<svg xmlns="http://www.w3.org/2000/svg" enable-background="new 0 0 24 24" viewBox="0 0 24 24"><path d="M23.887 9.18c-.08-.083-.153-.125-.217-.125h-.001c-.049.001-.092.023-.121.058l-1.088 1.092-1.086-1.097c-.088-.088-.19-.067-.322.065-.135.136-.157.241-.069.329l1.086 1.096-1.071 1.075c-.026.025-.065.063-.065.125-.001.063.042.14.126.224.07.071.138.107.2.107.069 0 .114-.045.139-.07l1.068-1.071 1.091 1.096c.029.028.069.045.112.045.001 0 .001 0 .002 0h.002c.069 0 .142-.04.217-.118.122-.129.143-.237.061-.32l-1.094-1.097 1.085-1.089C23.982 9.466 24.074 9.372 23.887 9.18zM19.82 11.171c-.135.182-.391.4-.844.4h-.009c-.115 0-.215.005-.234.281-.013.187-.012.27.148.291.286.04.576-.016.865-.167.492-.257.822-.743.861-1.271.003-.035.005-.077.005-.118 0-.432-.174-.824-.457-1.108-.282-.282-.671-.456-1.101-.456-.041 0-.082.002-.123.005h.005.002c-.805.062-1.434.771-1.434 1.615v2.67c0 .154.117.187.293.187.176 0 .293-.031.293-.187v-2.677c0-.526.382-.977.868-1.027.031-.004.068-.006.104-.006.252 0 .481.096.653.254.198.182.321.441.321.73v.001C20.037 10.669 19.998 10.929 19.82 11.171zM7.432 9c-1.65.002-2.988 1.344-2.99 3 .002 1.657 1.339 2.998 2.99 3 1.65-.002 2.988-1.344 2.99-3C10.42 10.343 9.083 9.002 7.432 9zM7.432 14.361c-1.297 0-2.354-1.06-2.354-2.361s1.057-2.361 2.354-2.361c1.297 0 2.353 1.06 2.353 2.361S8.729 14.361 7.432 14.361zM1.988 14.4c-.635 0-1.19-.409-1.421-1.004-.035-.088-.092-.152-.343-.062-.229.083-.243.182-.212.269.303.817 1.073 1.388 1.976 1.391 1.156-.007 2.09-.948 2.09-2.109 0-1.052-.769-1.925-1.774-2.083l-.012-.002c-.091-.014-.196-.022-.303-.022-.488 0-.936.167-1.292.446v-1.59h2.687c.093 0 .16-.017.16-.293 0-.27-.108-.281-.18-.281H.39c-.174 0-.265.14-.265.295v2.611c0 .137.087.184.247.215.141.028.223.012.285-.057l.006-.01c.283-.409.9-.807 1.486-.735.699.086 1.262.646 1.34 1.331.006.052.01.112.01.174C3.499 13.721 2.823 14.399 1.988 14.4zM10.914 12c.002 1.657 1.339 2.998 2.99 3 1.65-.002 2.988-1.344 2.99-3-.002-1.656-1.34-2.998-2.99-3C12.254 9.002 10.916 10.344 10.914 12zM16.257 12c0 1.301-1.056 2.361-2.353 2.361-1.298 0-2.353-1.06-2.353-2.361s1.055-2.361 2.353-2.361C15.201 9.639 16.257 10.699 16.257 12z"/></svg>