<svg xmlns="http://www.w3.org/2000/svg" enable-background="new 0 0 24 24" viewBox="0 0 24 24"><path fill="#424242" d="m7.851.502c1.98-.002 3.96-.002 5.94.001 2.757 6.886 5.51 13.774 8.266 20.66.276.8 1.19 1.046 1.943 1.145v1.191c-3.586 0-7.173 0-10.76 0 0-.392 0-.784 0-1.175.802-.062 1.75-.024 2.347-.658.471-.565.202-1.332.03-1.961-.368-1.048-.805-2.07-1.202-3.106-2.791 0-5.581 0-8.371 0-.352.971-.69 1.948-1.077 2.906-.245.535-.535 1.09-.489 1.697.037.355.279.666.614.792.548.231 1.153.27 1.74.306.003.401.008.8.003 1.2-2.278 0-4.557 0-6.835 0 0-.398 0-.796 0-1.193.663-.094 1.492-.268 1.748-.98 2.36-6.009 4.717-12.02 7.079-18.027.07-.128.055-.271-.009-.398-.325-.798-.644-1.6-.967-2.4zm-1.003 13.825c2.21.005 4.419.001 6.629.002-1.126-2.804-2.25-5.608-3.377-8.411-1.052 2.815-2.129 5.621-3.252 8.409z"/></svg>