<svg xmlns="http://www.w3.org/2000/svg" enable-background="new 0 0 24 24" viewBox="0 0 24 24"><path fill="#261200" d="M22,0H2C0.896,0,0,0.895,0,2v20c0,1.105,0.896,2,2,2h20c1.104,0,2-0.895,2-2V2C24,0.895,23.104,0,22,0z"/><path fill="#FF7C00" d="M22,1c0.551,0,1,0.449,1,1v20c0,0.551-0.449,1-1,1H2c-0.551,0-1-0.449-1-1V2c0-0.551,0.449-1,1-1H22L22,1z M22,0H2C0.896,0,0,0.895,0,2v20c0,1.105,0.896,2,2,2h20c1.104,0,2-0.895,2-2V2C24,0.895,23.104,0,22,0L22,0z"/><path fill="#FF7C00" d="M17.531 16.242c0 .083-.016.116-.115.116h-1.55c-.1 0-.133-.05-.133-.13V8.34l-.008.001c0-.08.033-.11.116-.11h1.57c.088 0 .12.033.12.116V16.242zM16.619 7.09c-.6 0-1.01-.363-1.01-1.023h.004c0-.643.445-1.023 1.023-1.023.61 0 1.023.412 1.023 1.023C17.659 6.727 17.229 7.09 16.619 7.09zM11.05 5.424c-.016-.082-.05-.1-.116-.1H8.838c-.05 0-.083.034-.083.1C8.739 5.919 8.707 6.077 8.657 6.257l-2.84 9.945c-.015.115 0 .148.1.148h1.468c.098 0 .131-.019.148-.102l.792-2.998-.003-.001h3.207l.825 3.015c.016.066.065.086.148.086h1.65c.083 0 .1-.049.083-.132L11.05 5.424zM8.753 11.625c.413-1.55.941-3.53 1.155-4.7h.017c.248 1.172.908 3.594 1.188 4.7H8.753z"/></svg>