<svg xmlns="http://www.w3.org/2000/svg" enable-background="new 0 0 24 24" viewBox="0 0 24 24"><path fill="#00251E" d="M22,0H2C0.896,0,0,0.895,0,2v20c0,1.105,0.896,2,2,2h20c1.104,0,2-0.895,2-2V2C24,0.895,23.104,0,22,0z"/><path fill="#00E4BA" d="M22,1c0.551,0,1,0.449,1,1v20c0,0.551-0.449,1-1,1H2c-0.551,0-1-0.449-1-1V2c0-0.551,0.449-1,1-1H22L22,1z M22,0H2C0.896,0,0,0.895,0,2v20c0,1.105,0.896,2,2,2h20c1.104,0,2-0.895,2-2V2C24,0.895,23.104,0,22,0L22,0z"/><path fill="#00E4BA" d="M19.378 16.035c-.886.389-1.917.629-3 .66h-.012c-1.465 0-2.866-.563-2.866-2.817V8.729c0-.081.032-.129.113-.129h1.574c.081 0 .113.048.113.129v4.94c0 .95.415 1.465 1.413 1.465.006 0 .014 0 .021 0 .34 0 .665-.064.966-.178V8.729c0-.081.032-.129.113-.129h1.474c.097 0 .113.048.113.129v6.196c0 .112.016.45.048.998C19.448 15.987 19.442 16.019 19.378 16.035zM9.316 5.897C9.3 5.816 9.267 5.8 9.203 5.8H7.158c-.048 0-.08.032-.08.097 0 .016 0 .031 0 .047 0 .274-.035.539-.097.77l-2.769 9.641c-.016.113 0 .145.097.145h1.433c.096 0 .128-.056.145-.137L6.659 13.5h3.124l.805 2.88v.001c.013.068.073.119.144.119h1.61c.081 0 .097-.048.081-.129L9.316 5.897zM7.078 11.9c.402-1.513.918-3.429 1.127-4.572h.016C8.462 8.471 9.106 10.821 9.38 11.9H7.078z"/></svg>