<svg xmlns="http://www.w3.org/2000/svg" enable-background="new 0 0 24 24" viewBox="0 0 24 24"><path fill="#1F0640" d="M0,2v20c0,1.105,0.895,2,2,2h20c1.105,0,2-0.895,2-2V2c0-1.105-0.895-2-2-2H2C0.895,0,0,0.895,0,2z"/><path fill="#D291FE" d="M22,1c0.551,0,1,0.449,1,1v20c0,0.551-0.449,1-1,1H2c-0.551,0-1-0.449-1-1V2c0-0.551,0.449-1,1-1H22L22,1z M22,0H2C0.896,0,0,0.895,0,2v20c0,1.105,0.896,2,2,2h20c1.104,0,2-0.895,2-2V2C24,0.895,23.104,0,22,0L22,0z"/><path fill="#D291FE" d="M16.502 8.086c-2.145 0-3.367 1.93-3.367 4.29 0 2.178.99 4.125 3.63 4.125.826 0 1.483-.116 2.01-.38.067-.05.1-.1.1-.2v-1.254c0-.082-.05-.099-.117-.067-.527.232-1.036.31-1.63.31-1.517 0-2.16-.906-2.178-2.257h2.605c.875 0 1.469-.033 1.667-.066.082-.017.115-.045.132-.127.05-.181.085-.577.085-1.057C19.439 9.919 18.68 8.086 16.502 8.086zM17.722 11.259c-.049.016-.23.016-.742.016l-.002-.002h-2.013c.098-.89.511-1.732 1.468-1.732 1.04 0 1.306.999 1.306 1.544C17.739 11.134 17.722 11.191 17.722 11.259zM9.509 5.446c-.016-.082-.05-.1-.116-.1H7.297c-.05 0-.083.034-.083.1-.016.495-.048.64-.098.82l-2.84 9.933c-.016.115 0 .15.1.15h1.468c.098 0 .131-.03.148-.113l.792-2.986.003-.002h3.2l.825 3.002c.017.066.065.096.147.096h1.65c.083 0 .099-.048.083-.13L9.509 5.446zM7.198 11.626c.414-1.552.956-3.53 1.17-4.7h.016c.246 1.17.926 3.594 1.206 4.7H7.198z"/></svg>