<svg xmlns="http://www.w3.org/2000/svg" enable-background="new 0 0 24 24" viewBox="0 0 24 24"><path fill="#0A2430" d="M0,2v20c0,1.105,0.895,2,2,2h20c1.105,0,2-0.895,2-2V2c0-1.105-0.895-2-2-2H2C0.895,0,0,0.895,0,2z"/><path fill="#ADD5EC" d="M22,1c0.551,0,1,0.449,1,1v20c0,0.551-0.449,1-1,1H2c-0.551,0-1-0.449-1-1V2c0-0.551,0.449-1,1-1H22L22,1z M22,0H2C0.896,0,0,0.895,0,2v20c0,1.105,0.896,2,2,2h20c1.104,0,2-0.895,2-2V2C24,0.895,23.104,0,22,0L22,0z"/><path fill="#ADD5EC" d="M12.267 16.217c-.016.082-.066.115-.148.115H6.65l-.002-.007c-.116 0-.148-.05-.148-.148V5.433c0-.083.033-.132.116-.132H8.2c.084 0 .1.037.1.12v9.26h4.125c.083 0 .106.033.09.116L12.267 16.217zM17.871 9.6c0 .084-.033.1-.116.1-.628-.033-1.564.05-1.91.198v6.31c0 .082-.033.115-.116.115h-1.57c-.08 0-.114-.033-.114-.116v-6.36l.005.002c0-.12 0-.416-.05-.977 0-.083.018-.1.084-.132.61-.246 2.058-.692 3.675-.692.08 0 .112.017.112.1V9.6z"/></svg>