<svg xmlns="http://www.w3.org/2000/svg" enable-background="new 0 0 24 24" viewBox="0 0 24 24"><path fill="#F44336" d="M1.969,24c2.594,0,5.328-4.294,6.717-6.883c1.067-0.361,2.133-0.689,3.198-1.018c1.17-0.324,2.344-0.585,3.41-0.768c2.739,2.512,5.154,2.91,6.368,2.91c1.494,0,2.027-0.619,2.206-1.126c0.28-0.652,0.07-1.375-0.252-1.746l0.02,0.04l-0.003-0.005c-0.711-0.763-2.167-1.201-4.231-1.201c-1.102,0-2.379,0.11-3.766,0.371c-0.783-0.773-1.564-1.676-2.311-2.729c-0.531-0.742-0.995-1.525-1.422-2.298c0.814-2.548,1.208-4.625,1.208-6.12C13.112,1.75,12.509,0,10.769,0c-0.534,0-1.068,0.326-1.352,0.803c-0.784,1.413-0.431,4.508,0.918,7.565c-0.504,1.525-1.037,2.983-1.703,4.62c-0.579,1.381-1.246,2.803-1.926,4.11c-3.91,1.589-6.44,3.445-6.677,4.9c-0.104,0.549,0.074,1.054,0.458,1.455C0.62,23.564,1.124,24,1.969,24z M19.33,14.935c0.741,0,1.382,0.032,1.813,0.144c0.491,0.106,1.272,0.436,1.097,1.385h0.006c-0.105,0.545-0.639,0.907-1.387,0.907c-0.21,0-0.391-0.037-0.604-0.072c-1.362-0.326-2.637-1.019-3.909-2.113C17.597,14.971,18.659,14.935,19.33,14.935z M14.712,14.749c-0.003,0.001-0.007,0.002-0.011,0.002v-0.008L14.712,14.749z M10.057,1.22l-0.002-0.001c0.145-0.291,0.431-0.437,0.679-0.437c0.746,0,0.888,0.871,0.888,1.565c0,1.172-0.355,2.952-0.961,4.984C9.597,4.501,9.524,2.133,10.057,1.22z M10.449,13.605c0.429-1.023,0.781-2.077,1.137-3.056c0.35,0.612,0.741,1.234,1.132,1.786c0.638,0.869,1.306,1.698,1.975,2.418c-0.916,0.19-1.905,0.413-2.929,0.691c-0.817,0.224-1.668,0.476-2.524,0.773C9.703,15.312,10.095,14.437,10.449,13.605z M0.747,22.176c0.213-1.093,2.239-2.621,5.399-4.003c-1.813,3.053-3.553,4.949-4.62,4.949c-0.21,0-0.388-0.075-0.531-0.184C0.781,22.722,0.675,22.465,0.747,22.176z"/></svg>