<svg xmlns="http://www.w3.org/2000/svg" enable-background="new 0 0 24 24" viewBox="0 0 24 24"><path fill="#2E0214" d="M0,2v20c0,1.105,0.895,2,2,2h20c1.105,0,2-0.895,2-2V2c0-1.105-0.895-2-2-2H2C0.895,0,0,0.895,0,2z"/><path fill="#FF3F94" d="M22,1c0.551,0,1,0.449,1,1v20c0,0.551-0.449,1-1,1H2c-0.551,0-1-0.449-1-1V2c0-0.551,0.449-1,1-1H22L22,1z M22,0H2C0.896,0,0,0.895,0,2v20c0,1.105,0.896,2,2,2h20c1.104,0,2-0.895,2-2V2C24,0.895,23.104,0,22,0L22,0z"/><path fill="#FF3F94" d="M8.775 16.218c0 .1-.017.132-.132.132H7.107c-.1 0-.132-.05-.132-.132V5.482c0-.1.05-.132.132-.132H8.66c.082 0 .115.033.115.116V16.218zM17 14.789V5.434c0-.05-.016-.084-.1-.084h-1.625c-.05 0-.1.034-.1.1v2.654c-.198-.015-.314-.015-.528-.015-2.524 0-4.102 1.864-4.102 4.257h-.003c0 2.788 1.584 4.158 3.797 4.158.858 0 1.766-.182 2.624-.595.067-.033.087-.05.087-.116C17 15.414 17 15.069 17 14.789zM15.177 14.787c-.198.083-.463.115-.71.115-1.155 0-2.073-.758-2.073-2.64 0-1.65.902-2.64 2.187-2.64.247 0 .446.034.594.1h.002V14.787z"/></svg>