<svg xmlns="http://www.w3.org/2000/svg" enable-background="new 0 0 24 24" viewBox="0 0 24 24"><path fill="#212121" d="M23.952,7.691c-3.46,5.784-8.997,8.798-12.4,6.731c-1.172-0.712-1.936-1.931-2.298-3.459c-1.575,3.037-4.351,5.334-7.693,6.244c2.334,2.78,5.818,4.542,9.705,4.542c7.032,0,12.733-5.77,12.733-12.887C24.004,8.465,23.985,8.076,23.952,7.691z"/><path fill="#F44336" d="M7.487,10.378c2.404-3.324,3.249-6.839,1.884-7.852C8.007,1.512,4.946,3.383,2.54,6.706c-2.409,3.324-3.254,6.835-1.884,7.852C2.02,15.572,5.082,13.701,7.487,10.378z"/></svg>