<svg xmlns="http://www.w3.org/2000/svg" enable-background="new 0 0 24 24" viewBox="0 0 24 24"><polygon fill="#FF9800" points="20.189 12.33 20.189 12.33 20.188 12.33"/><path fill="#FF9800" d="M0.106,14.677c3.13,2.855,7.272,4.573,11.87,4.573c3.28,0,7.096-1.04,9.722-3c0.431-0.323,0.056-0.815-0.383-0.613c-2.946,1.258-6.146,1.871-9.06,1.871c-4.318,0-8.493-1.202-11.877-3.186C0.082,14.145-0.141,14.452,0.106,14.677z"/><path fill="#212121" d="M17.181 5.16c0-.136-.073-.202-.2-.202H16.24c-.011-.001-.023-.001-.034-.001-.104 0-.2.03-.279.082-.056.048-.112.154-.16.315l-1.381 5.403-1.261-5.403c-.031-.154-.088-.267-.151-.315-.064-.056-.168-.081-.32-.081h-.636c-.012-.001-.023-.001-.035-.001-.106 0-.205.03-.287.082-.063.048-.111.154-.151.315L10.3 10.693 8.958 5.354c-.047-.154-.095-.267-.16-.315-.055-.056-.159-.081-.31-.081H7.705c-.127 0-.191.073-.191.202l.001.006C7.527 5.28 7.552 5.39 7.586 5.484l1.875 6.235c.048.153.104.266.168.314.064.057.16.081.304.081l.686-.001c.143 0 .255-.024.32-.081.063-.057.11-.162.15-.323l1.23-5.193 1.238 5.201c.031.162.087.267.15.323.065.057.169.081.32.081h.686c.01.001.019.001.029.001.102 0 .197-.03.275-.082.064-.048.12-.153.168-.314l1.923-6.234L17.105 5.5c.025-.066.045-.133.059-.21C17.172 5.241 17.181 5.201 17.181 5.16zM21.682 10.202c0 .008 0 .014 0 .022 0 .314-.164.589-.415.744-.271.178-.663.267-1.165.267-.32 0-.631-.032-.95-.097-.312-.065-.607-.161-.878-.282-.08-.032-.152-.065-.2-.081-.048-.016-.096-.024-.144-.024-.119 0-.183.081-.183.25v.411c.001.082.018.16.048.226.032.073.119.154.247.225.208.121.519.226.918.323.399.096.813.144 1.228.144.408 0 .782-.057 1.141-.169.343-.105.638-.25.886-.452.247-.194.439-.435.583-.71.135-.274.207-.589.207-.936 0-.419-.12-.798-.367-1.129-.247-.33-.663-.589-1.237-.775l-1.134-.362c-.423-.137-.718-.291-.877-.445-.16-.153-.24-.347-.24-.573 0-.33.128-.564.375-.717.247-.154.607-.225 1.062-.225.018 0 .037 0 .056 0 .534 0 1.042.115 1.476.314l-.004-.002c.092.052.194.086.307.099.12 0 .184-.089.184-.259V5.614c.001-.008.001-.017.001-.026 0-.09-.027-.173-.072-.24l-.001-.002c-.063-.082-.143-.151-.239-.2C22.216 5.096 22.104 5.048 21.96 5c-.143-.047-.295-.088-.455-.128-.168-.032-.335-.065-.518-.089-.176-.024-.36-.032-.535-.032-.351 0-.686.041-1.006.137-.32.096-.59.233-.83.419-.24.177-.431.403-.575.661-.143.259-.216.557-.216.895.002.443.152.851.4 1.17.263.363.694.637 1.277.821l1.157.364c.391.129.663.267.807.419.134.14.216.332.216.543 0 .008 0 .014 0 .021C21.682 10.201 21.682 10.201 21.682 10.202z"/><path fill="#FF9800" d="M22.424,18.169c1.405-1.193,1.772-3.685,1.485-4.048c-0.287-0.355-2.754-0.661-4.254,0.403c-0.232,0.17-0.192,0.396,0.063,0.364c0.854-0.105,2.738-0.33,3.074,0.104c0.335,0.428-0.375,2.227-0.695,3.025C22.001,18.258,22.209,18.355,22.424,18.169z"/><path fill="#212121" d="M4.52,7.944c-0.295-0.04-0.574-0.065-0.846-0.065c-0.822,0-1.468,0.21-1.955,0.629c-0.487,0.418-0.726,0.976-0.726,1.661c0,0.646,0.199,1.162,0.59,1.549c0.391,0.387,0.926,0.58,1.596,0.58c0.942,0,1.725-0.371,2.347-1.112l0.016,0.037c0.076,0.16,0.159,0.315,0.232,0.438l0.006,0.01c0.083,0.132,0.177,0.257,0.281,0.369C6.14,12.113,6.22,12.154,6.3,12.154h0.001c0.077-0.003,0.149-0.03,0.207-0.073l0.503-0.338c0.104-0.081,0.152-0.162,0.152-0.242c0-0.057-0.016-0.121-0.056-0.185c-0.112-0.21-0.192-0.404-0.256-0.582c-0.056-0.177-0.088-0.418-0.088-0.717l-0.016,0.001V7.404c0-0.887-0.223-1.549-0.662-1.983C5.638,4.985,4.944,4.767,3.994,4.767c-0.015,0-0.031,0-0.046,0c-0.426,0-0.84,0.056-1.2,0.153C2.357,5.017,2.022,5.138,1.743,5.283L1.739,5.284c-0.085,0.037-0.16,0.095-0.22,0.167c-0.04,0.057-0.056,0.154-0.056,0.283v0.395c0,0.169,0.056,0.25,0.168,0.25h0.001c0.045-0.002,0.088-0.01,0.126-0.023l0.016-0.004C1.87,6.321,1.963,6.286,2.038,6.25C2.317,6.137,2.605,6.048,2.9,5.975c0.295-0.073,0.583-0.104,0.863-0.104c0.614,0,1.045,0.12,1.3,0.371c0.248,0.25,0.375,0.677,0.375,1.29v0.589C5.12,8.049,4.815,7.984,4.52,7.944z M5.455,9.025v0.338c0,0.274-0.033,0.508-0.08,0.701c-0.048,0.194-0.144,0.364-0.272,0.517C4.888,10.823,4.632,11,4.345,11.097c-0.288,0.097-0.559,0.145-0.822,0.145c-0.368,0-0.647-0.097-0.838-0.299c-0.2-0.193-0.295-0.476-0.295-0.855c0-0.403,0.127-0.709,0.39-0.926c0.264-0.218,0.655-0.323,1.19-0.323c0.265,0,0.525,0.018,0.75,0.048l0.034,0.004C5.008,8.925,5.257,8.973,5.455,9.025z"/></svg>