<svg xmlns="http://www.w3.org/2000/svg" enable-background="new 0 0 24 24" viewBox="0 0 24 24"><path fill="#FFC107" d="M20.677,19.768c-9.79,4.688-15.858,0.761-19.743-1.623c-0.239-0.161-0.652,0.032-0.292,0.445C1.941,20.169,6.18,24,11.719,24c5.539,0,8.841-3.054,9.249-3.59v0.001C21.381,19.875,21.075,19.57,20.677,19.768z"/><path fill="#212121" d="M13.76,7.001c-2.581,0.096-8.984,0.831-8.984,6.295c0,5.867,7.331,6.108,9.727,2.314c0.345,0.546,1.876,2.009,2.401,2.508l3.011-3c0,0-1.712-1.355-1.712-2.829v-7.88C18.203,3.054,16.905,0,12.251,0C7.587,0,5.112,2.946,5.112,5.588l3.895,0.365c0.864-2.652,2.873-2.652,2.873-2.652c2.158-0.006,1.882,1.597,1.882,3.702L13.76,7.001z M13.76,11.651c0,4.286-4.463,3.644-4.463,0.921c0-2.528,2.676-3.038,4.463-3.096V11.651z"/><path fill="#FFC107" d="M23.422,18.219c-0.264-0.347-1.606-0.401-2.438-0.305c-0.838,0.106-2.11,0.632-1.988,0.937c0.053,0.123,0.17,0.07,0.742,0.016c0.583-0.059,2.199-0.273,2.544,0.171c0.35,0.455-0.514,2.598-0.673,2.946c-0.158,0.349,0.053,0.445,0.345,0.203c0.276-0.225,0.779-0.814,1.124-1.661h-0.001C23.422,19.671,23.618,18.492,23.422,18.219z"/></svg>