<svg xmlns="http://www.w3.org/2000/svg" enable-background="new 0 0 24 24" viewBox="0 0 24 24"><polygon fill="#212121" points="8.878 11.198 7.287 9.264 6.209 9.264 6.209 14.456 7.447 14.456 7.447 11.216 8.785 12.853 8.973 12.853 10.311 11.223 10.311 14.462 11.549 14.462 11.549 9.264 10.47 9.264"/><polygon fill="#4CAF50" points="18.277 14.863 20.523 14.863 22.127 13.179 19.881 13.179 19.881 10.826 18.277 12.505"/><path fill="#212121" d="M1.679,13.433H3.9l0.408,1.029h1.338L3.432,9.264H2l-2,5.197h1.309L1.679,13.433z M2.744,10.504l0.791,2.024H2.008L2.744,10.504z"/><polygon fill="#4CAF50" points="24 14.812 24 8.863 18.324 8.863 19.883 10.498 22.439 10.498 22.439 13.177"/><path fill="#212121" d="M14.682,9.264h-2.19v5.197h2.057c1.979,0,2.88-1.096,2.88-2.59C17.429,10.446,16.492,9.264,14.682,9.264z M14.535,13.51h-0.806v-3.292h0.792c1.17,0,1.63,0.745,1.63,1.645C16.151,12.626,15.779,13.51,14.535,13.51z"/></svg>