<svg xmlns="http://www.w3.org/2000/svg" enable-background="new 0 0 24 24" viewBox="0 0 24 24"><path d="M19.726,5.772c-0.243-0.646-0.458-1.199-0.657-1.758c-0.067-0.188-0.164-0.256-0.368-0.255c-1.398,0.009-2.796,0.011-4.194-0.001c-0.247-0.002-0.307,0.092-0.303,0.311c0.008,0.463,0.002,0.926-0.057,1.403c-0.214-0.463-0.444-0.918-0.634-1.39c-0.102-0.254-0.243-0.328-0.511-0.324C11.941,3.773,10.88,3.77,9.819,3.759C9.596,3.756,9.49,3.832,9.4,4.035C8.199,6.775,6.989,9.51,5.781,12.246c-0.163,0.368-0.161,0.369,0.256,0.37c0.783,0,1.567,0.013,2.35-0.007c0.282-0.007,0.354,0.091,0.353,0.356c-0.008,2.271-0.004,4.543-0.004,6.814c0,0.483,0.001,0.484,0.49,0.484c2.846,0,5.692-0.005,8.538,0.007c0.331,0.001,0.558-0.099,0.759-0.354c0.245-0.311,0.528-0.592,0.783-0.895c0.118-0.141,0.197-0.155,0.32-0.002c0.268,0.331,0.568,0.638,0.825,0.977c0.165,0.217,0.356,0.276,0.612,0.272c0.853-0.011,1.706,0.005,2.558-0.009c0.275-0.005,0.394,0.06,0.376,0.362c-0.025,0.435-0.006,0.873-0.007,1.309c-0.003,1.269-0.796,2.067-2.06,2.068C19.621,24.001,17.311,24,15.001,24c-4.313,0-8.627,0.001-12.94,0c-0.979,0-1.703-0.495-1.959-1.336C0.031,22.435,0,22.2,0,21.96C0.001,15.324,0,8.688,0.001,2.053c0-1.249,0.8-2.051,2.046-2.051C8.681,0,15.315,0,21.949,0.001c1.244,0,2.039,0.805,2.043,2.055c0.001,0.476-0.01,0.953,0.005,1.428c0.007,0.229-0.077,0.285-0.293,0.283c-0.962-0.01-1.924,0.005-2.885-0.01c-0.256-0.004-0.388,0.063-0.471,0.321C20.172,4.622,19.956,5.152,19.726,5.772z"/><path d="M22.423 6.493c-.174.087-.175.209-.211.304-.538 1.426-1.077 2.853-1.603 4.284-.084.229-.19.339-.447.318-.286-.023-.576-.02-.862-.001-.247.017-.364-.07-.452-.309-.523-1.432-1.064-2.857-1.6-4.284-.037-.099-.053-.212-.164-.295-.08.093-.049.204-.049.303-.002 1.418-.008 2.837.006 4.255.003.269-.084.345-.34.331-.336-.019-.674-.01-1.011-.003-.167.003-.224-.064-.224-.229.004-1.964.004-3.928 0-5.892 0-.174.074-.219.233-.218.744.005 1.487.008 2.231-.002.2-.003.245.116.3.261.432 1.138.868 2.276 1.303 3.413.014.037.027.075.045.11.047.093.039.257.154.261.125.005.119-.159.155-.253.445-1.165.892-2.33 1.322-3.501.082-.225.191-.3.429-.294.694.017 1.388.012 2.082.002.203-.003.277.054.276.268-.007 1.934-.007 3.868 0 5.802.001.21-.069.28-.274.272-.327-.012-.655-.016-.981.001-.245.013-.324-.069-.322-.318.01-1.398.005-2.797.005-4.195C22.423 6.767 22.423 6.65 22.423 6.493zM10.114 15.765c0-.942.007-1.885-.005-2.827-.003-.237.051-.328.31-.326 1.567.011 3.133.01 4.7.001.238-.001.32.07.304.305-.017.247-.015.496 0 .743.014.224-.073.289-.292.287-1.031-.009-2.063.003-3.094-.009-.265-.003-.389.064-.359.348.019.177.015.358.001.535-.019.233.071.308.306.306.982-.011 1.963-.005 2.945-.004.392 0 .392.001.393.393.001.208-.011.417.003.625.015.228-.062.311-.303.308-1.001-.013-2.003.002-3.004-.01-.258-.003-.344.073-.342.336.004.841-.006.841.838.841.873 0 1.745.006 2.618-.004.22-.003.305.065.291.288-.015.247-.017.497 0 .743.016.237-.07.306-.305.305-1.448-.01-2.895-.005-4.343-.005-.661 0-.661 0-.661-.65C10.114 17.451 10.114 16.608 10.114 15.765zM11.518 5.058c.268 0 .536.016.802-.005.219-.017.314.08.396.266.843 1.933 1.692 3.863 2.546 5.791.093.21.095.298-.173.288-.426-.016-.852-.011-1.278-.001-.177.004-.27-.061-.327-.228-.076-.225-.195-.436-.261-.663-.076-.262-.219-.354-.494-.348-.832.017-1.665.012-2.498.003-.22-.002-.347.068-.416.285-.075.235-.193.456-.271.69-.062.186-.16.269-.365.262-.426-.014-.852-.009-1.278-.002-.178.003-.232-.041-.152-.221C8.63 9.193 9.507 7.21 10.381 5.225c.058-.131.141-.172.275-.169C10.943 5.062 11.231 5.058 11.518 5.058zM11.461 6.43c-.304.75-.615 1.505-.915 2.264-.071.18.085.163.188.164.505.003 1.011-.004 1.516.004.242.004.262-.093.18-.291-.274-.657-.54-1.318-.81-1.978C11.596 6.532 11.584 6.457 11.461 6.43zM23.447 12.618c-.944 1.004-1.835 1.961-2.74 2.905-.181.189-.199.301-.007.5.837.872 1.657 1.762 2.481 2.647.065.069.158.122.172.271-.625 0-1.244.001-1.863-.001-.124-.001-.184-.108-.257-.186-.528-.565-1.06-1.126-1.578-1.7-.152-.169-.245-.169-.396-.003-.513.565-1.042 1.116-1.556 1.68-.137.15-.278.223-.487.218-.534-.014-1.07-.005-1.607-.005-.031-.124.071-.162.124-.219.838-.899 1.674-1.801 2.526-2.687.181-.188.175-.295-.001-.48-.834-.876-1.654-1.765-2.477-2.652-.072-.077-.166-.141-.204-.289.632 0 1.252.001 1.871-.001.129 0 .189.095.262.173.513.552 1.034 1.097 1.532 1.662.187.213.297.242.499.011.489-.559 1.013-1.089 1.512-1.64.139-.153.284-.215.49-.211C22.287 12.626 22.831 12.618 23.447 12.618z"/><path d="M23.972,17.421c-0.535-0.512-1.077-1.03-1.62-1.547c-0.073-0.069-0.079-0.127-0.006-0.199c0.534-0.525,1.068-1.051,1.626-1.602C23.972,15.216,23.972,16.328,23.972,17.421z"/></svg>