<svg xmlns="http://www.w3.org/2000/svg" enable-background="new 0 0 24 24" viewBox="0 0 24 24"><path fill="#03A9F4" d="M16.047,23.594c0.164,0.054,2.681,0.107,3.168,0.107c0.486,0,3.305,0.016,3.516-0.038C22.947,23.61,23,23.337,23,23.176V7.288c-0.006-4.302-3.062-7.285-10.152-7.285L12.845,0c-3.274,0-6.953,0.905-9.74,2.968c-0.27,0.166-0.482,0.493-0.38,1.039c0.059,0.273,0.27,1.467,0.539,2.121c0.217,0.546,0.751,0.546,1.074,0.327c1.718-1.194,5.102-2.555,8.053-2.555c3.062,0,3.115,1.521,3.115,3.916v2.063c-4.621,0.606-11.221,1.854-12.886,2.561c-1.877,0.873-1.607,5.009-1.607,5.989C1.013,19.409,1.818,24,7.618,24c2.528,0,6.012-1.108,8.106-2.255v1.361C15.724,23.267,15.835,23.545,16.047,23.594z M15.5,18.643c-1.131,0.707-2.575,1.307-4.183,1.307c-2.792,0-3.115-1.794-3.12-2.394v-0.001c0-0.654-0.159-2.288,0.968-2.834c1.285-0.707,3.971-1.575,6.335-1.794V18.643z"/></svg>