<svg xmlns="http://www.w3.org/2000/svg" enable-background="new 0 0 24 24" viewBox="0 0 24 24"><path fill="#8BC34A" d="M19.175 9.248v6.206c0 .825.662 1.484 1.468 1.484.822 0 1.607-.664 1.607-1.484V9.248c0-.825-.79-1.474-1.607-1.474C19.837 7.775 19.175 8.423 19.175 9.248zM1.75 9.248v6.206c0 .82.79 1.484 1.607 1.484.822 0 1.468-.658 1.468-1.484V9.248c0-.809-.662-1.474-1.468-1.474C2.54 7.775 1.75 8.439 1.75 9.248zM15.956 22.523v-3.274h1.079c.864 0 1.569-.708 1.569-1.587V8.048H5.402v9.614H5.401c0 .879.705 1.587 1.58 1.587h1.063l.016 3.274c0 1.978 2.947 1.962 2.947 0v-3.274h1.986v3.274C12.993 24.489 15.956 24.495 15.956 22.523zM15.262 2.201l1.019-1.886c.149-.263-.224-.434-.358-.203l-1.031 1.902c-1.778-.788-3.919-.831-5.782 0L8.075.106C7.948-.119 7.569.046 7.718.309l1.019 1.892C6.709 3.241 5.342 5.234 5.342 7.528h13.299C18.641 5.234 17.274 3.241 15.262 2.201zM8.968 5.117c-.298 0-.544-.257-.544-.562s.24-.562.544-.562c.314 0 .56.257.56.562S9.284 5.117 8.968 5.117zM15.037 5.117c-.314 0-.56-.257-.56-.562s.245-.562.56-.562c.298 0 .544.257.544.562S15.337 5.117 15.037 5.117z"/></svg>