<svg xmlns="http://www.w3.org/2000/svg" enable-background="new 0 0 24 24" viewBox="0 0 24 24"><path fill="#212121" d="m11.357 24c5.636 0 9.143-4.153 9.143-9.511 0-2.02-.329-3.844-2.622-4.392.558-1.528 2.168-5.948 2.168-7.364 0-1.247-.75-2.292-2.087-2.292-2.131 0-4.041 6.173-4.639 7.645-.463-1.336-2.631-8.086-4.542-8.086-1.485 0-2.182 1.073-2.182 2.423 0 1.655 1.633 5.944 2.225 7.594-.3-.108-.625-.202-.956-.202-1.118 0-2.307 1.364-2.307 2.466 0 .417.234 1.003.382 1.392-1.762.469-2.44 1.622-2.44 3.361-.005 3.384 3.263 6.966 7.857 6.966zm4.83-18.937c.192-.577 1.008-3.014 1.772-3.014.411 0 .521.417.521.75 0 .895-1.843 5.841-2.25 6.937l-1.624-.281zm-8.091-2.799c0-.558.693-2.142 2.211 2.208l1.653 4.702c-.745-.061-1.323-.141-1.69.066-2.481-6.429-2.099-6.719-2.174-6.976zm-.11 9.173.001.001c1.399 0 3.205 4.434 3.205 5.034 0 .239-.234.534-.506.534-.999 0-3.674-3.605-3.674-4.58.004-.361.606-.989.974-.989zm-1.608 3.67c.544 0 2.593 2.827 2.593 3.427 0 .23-.368.389-.558.389-.769 0-1.07-.727-2.44-2.409-1.419 1.392.979 4.073 2.785 4.073 1.246 0 2.058-1.134 1.815-1.969.177 0 .396.014.559-.028.053 1.27.435 2.784 1.992 2.892 0-.042.096-.333.096-.347 0-.816-.506-1.528-.506-2.358 0-1.327 1.036-2.611 2.087-3.361.811-.596 1.909-.653 2.603-1.336-.053-.525-.272-.989-.807-.989-1.323 0-5.76.188-5.76-1.861 0-.314.005-.614.832-.614 1.543 0 5.46.375 6.606 1.364.864.755 1.161 5.306-1.481 8.189-.465.335-1.93 2.279-5.241 2.279-2.837 0-5.078-1.528-6.157-4.139-.82-2.034.179-3.202.982-3.202zm5.701-.844c.465.146.942.189 1.42.282-.354.253-.668.563-.97.895-.134-.398-.297-.787-.45-1.177z"/></svg>