<svg xmlns="http://www.w3.org/2000/svg" enable-background="new 0 0 24 24" viewBox="0 0 24 24"><linearGradient id="a" x1="6" x2="18" y1="12" y2="12" gradientUnits="userSpaceOnUse"><stop offset="0" stop-color="#9c27b0"/><stop offset="1" stop-color="#ff9800"/></linearGradient><path fill="url(#a)" d="M17.926,2.869c0.001,0,0.002,0,0.003,0c-0.025,0.143-0.059,0.293-0.1,0.45c-0.048,0.178-0.115,0.381-0.201,0.599c-0.133,0.343-0.307,0.725-0.505,1.109c-0.205,0.398-0.433,0.798-0.666,1.162c-0.076,0.119-0.153,0.234-0.229,0.343c-0.286,0.398-0.582,0.672-1.244,0.976l-2.271,0.248c0.198-0.403,0.39-0.784,0.576-1.144c0.213-0.413,0.419-0.797,0.617-1.154c0.229-0.414,0.446-0.793,0.651-1.137c0.013-0.021,0.025-0.042,0.038-0.063c0.239-0.398,0.459-0.749,0.661-1.059c0.281-0.014,0.631-0.049,0.997-0.091c-0.366,0.042-0.716,0.077-0.998,0.091c0.538-0.826,0.94-1.344,1.18-1.634c-0.427,0.479-0.85,1.01-1.268,1.606l0.001,0.001c-0.229,0.326-0.454,0.667-0.679,1.021c-0.014,0.021-0.027,0.043-0.041,0.064c-0.227,0.36-0.452,0.734-0.673,1.119c-0.213,0.371-0.425,0.752-0.634,1.141c-0.196,0.365-0.39,0.738-0.579,1.116l0-0.001c-0.007,0.012-0.012,0.025-0.019,0.037c-0.121,0.24-0.241,0.48-0.359,0.724c-0.069,0.141-0.138,0.283-0.205,0.424c-0.188,0.393-0.373,0.791-0.554,1.19c-0.184,0.405-0.363,0.811-0.54,1.217c-0.172,0.399-0.344,0.798-0.509,1.197c-0.166,0.398-0.328,0.795-0.487,1.189c-0.166,0.412-0.327,0.819-0.483,1.223c-0.035,0.091-0.07,0.182-0.102,0.272c-0.126,0.325-0.247,0.647-0.366,0.964L8.04,14.3c0.095-0.464,0.21-0.93,0.344-1.398c0.056-0.199,0.115-0.398,0.178-0.597c0.076-0.234,0.16-0.476,0.251-0.727c0.139-0.382,0.297-0.784,0.478-1.206c0.16-0.372,0.335-0.759,0.53-1.16C9.852,9.15,9.883,9.086,9.915,9.022c0.157-0.318,0.32-0.633,0.487-0.945c0.196-0.37,0.398-0.735,0.604-1.094c0.203-0.354,0.41-0.702,0.619-1.042c0.014-0.024,0.03-0.048,0.043-0.071l0,0.001c0.008-0.012,0.015-0.025,0.022-0.036c0.198-0.319,0.397-0.632,0.595-0.934c0.233-0.356,0.466-0.7,0.694-1.028c0.248-0.356,0.492-0.695,0.731-1.011c0.21-0.281,0.417-0.546,0.614-0.793c0.052-0.064,0.103-0.128,0.155-0.191l-0.001-0.001c0.748-0.912,1.375-1.54,1.752-1.763c0.776-0.458,1.437,0.613,1.437,0.613S18.188,1.399,17.926,2.869z M9.859,16.192l-0.724,0.08C9.113,16.33,9.09,16.39,9.068,16.452c-0.118,0.325-0.237,0.655-0.356,0.993c-0.001,0.006-0.003,0.01-0.006,0.015c-0.017,0.048-0.034,0.095-0.05,0.143c-0.08,0.228-0.15,0.433-0.31,0.899c0.264,0.12,0.475,0.435,0.675,0.794c-0.021-0.371-0.175-0.72-0.467-0.99c1.299,0.059,2.418-0.269,2.996-1.217c0.052-0.084,0.099-0.174,0.142-0.268c-0.264,0.333-0.589,0.473-1.202,0.44c0.903-0.403,1.356-0.791,1.758-1.433c0.096-0.153,0.187-0.318,0.282-0.503C11.739,16.135,10.823,16.367,9.859,16.192z M8.444,17.408c0.01-0.025,0.018-0.05,0.028-0.076C8.592,17,8.717,16.659,8.846,16.312c0.029-0.078,0.059-0.158,0.088-0.238c0-0.001,0.001-0.003,0.001-0.004L8.038,14.3c-0.006,0.021-0.01,0.042-0.014,0.063c-0.112,0.567-0.194,1.132-0.233,1.692c-0.001,0.02-0.003,0.039-0.004,0.059c-0.281-0.448-1.031-0.886-1.03-0.882c0.537,0.777,0.945,1.55,1.006,2.308c-0.287,0.059-0.682-0.027-1.137-0.193c0.475,0.436,0.832,0.556,0.971,0.588C7.16,17.96,6.706,18.26,6.248,18.604c0.669-0.273,1.211-0.381,1.598-0.293C7.232,20.048,6.616,21.965,6,24c0.189-0.056,0.302-0.182,0.365-0.354c0.109-0.368,0.839-2.787,1.981-5.964C8.378,17.59,8.41,17.501,8.444,17.408z M15.081,7.498c-0.006,0.001-0.01,0.001-0.015,0.003c-0.034,0.006-0.067,0.011-0.101,0.017c0.006-0.003,0.011-0.006,0.017-0.008l-2.271,0.248c-0.003,0.008-0.007,0.017-0.011,0.025c-0.025,0.052-0.052,0.105-0.077,0.158c-0.077,0.16-0.156,0.322-0.236,0.489c-0.086,0.179-0.172,0.364-0.26,0.552c-0.044,0.095-0.088,0.19-0.133,0.287c-0.133,0.29-0.269,0.59-0.407,0.899c-0.17,0.381-0.341,0.776-0.516,1.186c-0.167,0.391-0.335,0.795-0.506,1.216c-0.163,0.398-0.327,0.808-0.494,1.231c-0.149,0.378-0.299,0.765-0.449,1.164c-0.007,0.02-0.014,0.039-0.022,0.057c-0.15,0.396-0.302,0.802-0.454,1.218c-0.003,0.01-0.007,0.02-0.01,0.028l0.724-0.08c-0.014-0.003-0.028-0.004-0.043-0.007c0.864-0.108,2.014-0.752,2.756-1.549c0.342-0.367,0.652-0.8,0.94-1.307c0.213-0.377,0.415-0.795,0.606-1.258c0.167-0.405,0.327-0.842,0.483-1.316c-0.199,0.105-0.426,0.181-0.678,0.234c-0.042,0.009-0.084,0.017-0.129,0.025c-0.005,0.001-0.01,0.002-0.015,0.003c-0.042,0.008-0.085,0.014-0.13,0.021c0,0,0.001,0,0.001-0.001c0.807-0.309,1.314-0.907,1.685-1.64c-0.212,0.144-0.557,0.333-0.971,0.424c-0.056,0.013-0.114,0.022-0.173,0.031c-0.013,0.001-0.026,0.004-0.039,0.006c0.279-0.116,0.515-0.248,0.719-0.401C14.916,9.419,14.959,9.386,15,9.351c0.063-0.053,0.122-0.111,0.178-0.171c0.036-0.038,0.071-0.077,0.105-0.118c0.08-0.095,0.156-0.199,0.226-0.309c0.021-0.034,0.042-0.069,0.063-0.105c0.027-0.052,0.052-0.102,0.077-0.151c0.112-0.225,0.204-0.427,0.275-0.605c0.036-0.088,0.067-0.171,0.094-0.246c0.011-0.031,0.021-0.06,0.031-0.088c0.028-0.085,0.052-0.161,0.07-0.227c0.028-0.099,0.043-0.178,0.053-0.235c-0.027,0.021-0.059,0.043-0.094,0.064C15.836,7.305,15.418,7.436,15.081,7.498z"/></svg>