<svg xmlns="http://www.w3.org/2000/svg" enable-background="new 0 0 24 24" viewBox="0 0 24 24"><path fill="#2196F3" d="M0,21.714C0,22.977,1.023,24,2.286,24h19.429C22.977,24,24,22.977,24,21.714V2.286C24,1.023,22.977,0,21.714,0H2.286C1.023,0,0,1.023,0,2.286V21.714z M6.803,18.883c-0.295,0.514-0.953,0.686-1.463,0.391c-0.514-0.295-0.686-0.953-0.391-1.463l0.766-1.323c0.863-0.263,1.569-0.059,2.121,0.61l-1.034,1.784L6.803,18.883z M19.502,13.854c0.59,0,1.072,0.482,1.072,1.072c0,0.594-0.482,1.072-1.072,1.072l-0.001-0.001h-1.553l1.05,1.816c0.295,0.514,0.118,1.168-0.391,1.463c-0.514,0.295-1.168,0.118-1.463-0.391c-1.762-3.048-3.08-5.341-3.965-6.863c-0.895-1.553-0.257-3.107,0.381-3.632c0.702,1.216,1.752,3.038,3.155,5.464H19.502z M4.499,13.853h2.733l3.504-6.064L9.638,5.893C9.343,5.378,9.52,4.725,10.029,4.43c0.514-0.295,1.168-0.118,1.463,0.391l0.477,0.825l0.477-0.825c0.295-0.514,0.953-0.686,1.463-0.391c0.514,0.295,0.686,0.953,0.391,1.463l-4.597,7.961h3.327c1.082,0,1.688,1.27,1.216,2.143H4.499c-0.59,0-1.072-0.482-1.072-1.072C3.427,14.335,3.91,13.853,4.499,13.853z"/></svg>