<svg xmlns="http://www.w3.org/2000/svg" enable-background="new 0 0 24 24" viewBox="0 0 24 24"><path fill="#212121" d="M15.712,3.884C17.163,2.148,17.029,0.567,16.987,0c-1.281,0.075-2.764,0.879-3.608,1.87c-0.93,1.061-1.477,2.374-1.36,3.852C13.405,5.83,14.67,5.112,15.712,3.884z"/><path fill="#212121" d="M2,12.94c0,1.404,0.255,2.855,0.765,4.351c0.68,1.966,3.135,6.789,5.696,6.709c1.339-0.032,2.285-0.959,4.028-0.959c1.69,0,2.567,0.959,4.059,0.959c2.582-0.038,4.804-4.42,5.452-6.392c-3.464-1.645-3.278-4.823-3.278-4.924H18.72c-0.01-1.966,0.872-3.451,2.657-4.544c-0.999-1.441-2.507-2.235-4.5-2.39c-1.886-0.15-3.948,1.109-4.702,1.109c-0.797,0-2.626-1.055-4.059-1.055C5.15,5.85,2,8.187,2,12.94z"/></svg>