<svg xmlns="http://www.w3.org/2000/svg" enable-background="new 0 0 24 24" viewBox="0 0 24 24"><path fill="#00B3E0" d="M9.54,15.06c1.68,1.26,4.08,0.96,5.4-0.72c1.32-1.68,1.14-4.08-0.54-5.34C12.78,7.74,10.38,8.04,9,9.72C7.68,11.4,7.86,13.8,9.54,15.06z"/><path fill="#00B3E0" d="M12,24c6.6,0,12-5.4,12-12c0-6.6-5.4-12-12-12S0,5.4,0,12C0,18.6,5.4,24,12,24z M1.32,12.96l7.26-5.58c2.1-1.62,5.04-1.68,7.14,0c2.34,1.86,2.76,5.28,1.08,7.8l-5.22,7.56c-0.78,0-2.34-0.3-3.06-0.6l4.62-4.38c-1.68,0.36-3.42,0.06-4.86-1.08c-1.68-1.26-2.4-3.3-2.1-5.28l-4.14,4.5C2.04,15.84,1.5,14.88,1.32,12.96z"/></svg>