<svg xmlns="http://www.w3.org/2000/svg" enable-background="new 0 0 24 24" viewBox="0 0 24 24"><path fill="#ff7043" d="m7.218 19.5c2.171 0 4.206-.999 5.583-2.744.039-.051.05-.12.024-.18l-.909-2.181c-.026-.06-.084-.102-.149-.105-.066-.003-.124.035-.154.093-.86 1.706-2.544 2.764-4.395 2.764-2.731 0-4.953-2.308-4.953-5.148s2.222-5.148 4.953-5.148c1.989 0 3.81 1.226 4.534 3.056l2.251 5.333.26.598c1.017 2.462 2.513 3.566 4.854 3.575 2.784 0 4.882-1.917 4.882-4.458 0-2.548-1.357-3.505-3.702-4.3h.004c-.212-.07-.416-.138-.611-.202-1.494-.488-2.394-.783-2.394-1.99 0-.98.727-1.689 1.729-1.689.768 0 1.341.332 1.854 1.079.048.069.139.095.213.054l1.508-.8c.04-.021.072-.058.084-.105s.008-.094-.014-.137c-.808-1.491-1.972-2.216-3.561-2.216-2.416 0-3.98 1.52-3.98 3.87 0 2.403 1.512 3.377 4.299 4.329 1.614.559 2.329.855 2.329 2.049 0 1.342-1.165 2.307-2.756 2.25-1.666-.058-2.17-.975-2.805-2.478-1.074-2.545-2.297-5.515-2.307-5.544-1.225-2.94-3.657-4.625-6.671-4.625-3.979 0-7.218 3.365-7.218 7.502 0 4.134 3.238 7.498 7.218 7.498z"/></svg>