<svg xmlns="http://www.w3.org/2000/svg" enable-background="new 0 0 24 24" viewBox="0 0 24 24"><path fill="#00A8E0" d="M20.953 19.692c.531-.435 1.037-1.012 1.49-1.789.26-.447.516-.978.723-1.5.01-.025-.006-.038-.025-.01-1.805 2.658-7.031 4.315-12.427 4.315-3.814 0-7.919-1.22-9.526-3.55-.016-.021-.031-.012-.022.012 1.497 3.183 6.038 4.921 11.648 4.921v.001C15.768 22.092 19.013 21.286 20.953 19.692zM4.931 2.686c0 1.012 2.364 2.1 6.56 2.1 4.151 0 7.371-1.193 7.371-2.339 0-.274-.239-.465-.723-.755h-.001C16.395.629 14.287 0 12.033 0 12.021 0 12.011 0 12 0 9.734 0 7.582.634 5.778 1.742 5.237 2.075 4.931 2.342 4.931 2.686z"/><path fill="#00A8E0" d="M.782 15.117c1.488 1.551 5.196 3.724 11.617 3.724 8.748 0 10.749-2.916 11.157-3.875C23.849 14.28 24 13.041 24 12c0-.253-.006-.453-.016-.651 0-.032-.018-.034-.025-.003-.437 2.345-7.912 5.466-14.371 5.466-6.142 0-9.037-2.862-9.563-4.815C.019 11.968 0 11.974 0 12c0 .657.066 1.505.179 2.069C.232 14.343.456 14.773.782 15.117zM4.239 2.849c-.622.53-1.176 1.105-1.669 1.73L2.551 4.604c-.239.302-.388.569-.388.73 0 2.333 5.849 4.025 11.318 4.025 5.827 0 8.428-1.903 8.428-3.575 0-.597-.232-.947-.827-1.624-.387-.44-.751-.798-1.138-1.151-.019-.015-.032-.003-.019.016C19.974 3.104 20 3.188 20 3.302c0 1.333-4.08 3.692-10.573 3.692-4.771 0-5.663-1.771-5.663-2.897 0-.403.154-.815.494-1.233C4.276 2.84 4.261 2.83 4.239 2.849zM19.893 21.003c-.947.631-3.645 2.013-7.894 2.013-3.692 0-6.025-.824-7.343-1.56-.025-.013-.034.006-.015.022C6.65 23.051 9.212 24 11.996 24c.001 0 .002 0 .003 0 3.032 0 5.796-1.126 7.905-2.975C19.93 21.003 19.918 20.988 19.893 21.003z"/><path fill="#00A8E0" d="M1.157,6.852C0.804,7.55,0.416,8.73,0.299,9.339C0.249,9.6,0.27,9.726,0.362,9.921c0.735,1.564,4.458,4.063,13.144,4.063c5.299,0,9.415-1.303,10.082-3.678c0.122-0.438,0.129-0.9-0.029-1.522c-0.176-0.696-0.506-1.506-0.786-2.076c-0.01-0.019-0.025-0.016-0.022,0.006c0.103,3.117-8.585,5.126-12.969,5.126c-4.749,0-8.71-1.892-8.71-4.283c0-0.23,0.048-0.459,0.107-0.698C1.185,6.837,1.166,6.833,1.157,6.852z"/></svg>