<svg xmlns="http://www.w3.org/2000/svg" enable-background="new 0 0 24 24" viewBox="0 0 24 24"><path fill="#0052CC" d="M15.13,24h8.166c0.525,0,0.863-0.553,0.628-1.017c0,0-10.992-22.059-11.269-22.608c-0.248-0.497-0.881-0.506-1.2,0.005V0.379c-5.733,9.066-0.398,16.341,3.047,23.227C14.619,23.845,14.863,24,15.13,24z"/><path fill="#0052CC" d="M5.972,11.211L0.075,22.977c-0.234,0.469,0.112,1.017,0.628,1.017h8.203c0.272,0.005,0.516-0.15,0.628-0.394c1.777-3.647,0.708-9.202-2.4-12.52C6.772,10.696,6.21,10.719,5.972,11.211z"/></svg>