<svg xmlns="http://www.w3.org/2000/svg" enable-background="new 0 0 24 24" viewBox="0 0 24 24"><path fill="#201747" d="M22.75,16.753v-9.51c0-0.801-0.567-1.781-1.259-2.181h0.001L13.26,0.3c-0.693-0.4-1.826-0.4-2.519,0L2.509,5.061C1.817,5.46,1.25,6.442,1.25,7.245v9.513c0,0.803,0.567,1.783,1.259,2.181l8.232,4.76c0.693,0.4,1.825,0.4,2.519,0l8.231-4.771C22.182,18.538,22.75,17.548,22.75,16.753z M15.429,17.119l-0.687-1.385H9.245l-0.673,1.385H5.291l5.393-11.04C10.989,5.472,11.461,5.178,12,5.178c0.54,0,1.034,0.328,1.315,0.891l5.393,11.05H15.429z"/><polygon fill="#201747" points="10.527 13.124 13.472 13.124 12 10.075"/></svg>