<svg xmlns="http://www.w3.org/2000/svg" enable-background="new 0 0 24 24" viewBox="0 0 24 24"><path fill="#09D" d="M12,24c6.628,0,12-5.372,12-12S18.628,0,12,0S0,5.372,0,12S5.372,24,12,24z M11.21,10.76c0.758,0,1.632,0.092,2.299,0.367v-0.598c0-1.908-0.737-2.713-2.53-2.713h-0.003C9.674,7.825,8.46,8.201,7.46,8.828c-0.161-0.575-0.092-1.471,0.23-2c0.781-0.46,2.139-0.827,3.656-0.827c2.736,0,4.139,1.172,4.139,4.321v5.011c0,0.667,0.345,0.851,0.805,0.851c0.437,0,0.851-0.161,1.081-0.322l0.001,0.001c0.046,0.598-0.092,1.31-0.391,1.724c-0.442,0.262-0.957,0.414-1.509,0.414h-0.009c-1.034,0-1.632-0.506-1.816-1.357h-0.092c-0.667,0.874-1.724,1.357-3.242,1.357c-1.978,0-3.702-0.942-3.702-3.448C6.611,11.863,8.611,10.76,11.21,10.76z"/><path fill="#09D" d="M10.817 16.183c.988 0 2.092-.321 2.69-1.195v-2.251c-.613-.222-1.274-.347-1.964-.347-.013 0-.025 0-.036 0-1.908 0-2.897.85-2.897 2.069C8.61 15.654 9.576 16.183 10.817 16.183zM13.507 12.735v.002c.013.005.027.006.04.011L13.507 12.735z"/></svg>