<svg xmlns="http://www.w3.org/2000/svg" enable-background="new 0 0 24 24" viewBox="0 0 24 24"><path fill="#504E5C" d="M23.946,4.772C24.274,2.963,23.065,1.5,21.238,1.5h-0.001H6.613c-1.823,0-3.572,1.463-3.905,3.267L0.055,19.233C-0.278,21.038,0.932,22.5,2.76,22.5h14.624c1.823,0,3.572-1.462,3.905-3.267L23.946,4.772z M18.509,17.778v0.002l-1.5,0.633L11.6,13.257c-0.689,0.469-1.369,0.914-1.955,1.27l1.036,3.009l-0.839,0.595L7.94,15.272l-2.456-2.255l0.736-0.722l2.719,1.458c0.436-0.492,0.975-1.059,1.537-1.636l-0.961-1.388L6.29,6.051l0.881-1.355l0.417-0.225L12.42,9.74l0.23,0.211c0.909-0.881,1.584-1.519,1.584-1.519c0.361-0.305,1.008-0.136,1.439,0.37c0.422,0.492,0.497,1.158,0.127,1.467c-0.084,0.061-0.727,0.534-1.655,1.2l0.211,0.342l4.448,5.597L18.509,17.778z"/></svg>