<svg xmlns="http://www.w3.org/2000/svg" enable-background="new 0 0 24 24" viewBox="0 0 24 24"><path fill="#AED7F7" d="M12,22c5.085,0,9.975-1.32,12-4.84C23.52,10.218,18.46,2,12,2S0.48,10.22,0,17.16C2.028,20.68,6.915,22,12,22z"/><path fill="#5AC65F" d="M22.45,16.43c0,0-0.76,3.97-10.3,3.97c-9.54,0-10.46-4.03-10.46-4.03l0.18-0.98c0,0,2.63-5.67,4.28-5.67s2.34,2.34,3.69,2.34c1.35,0,4.27-5.19,5.32-5.19c1.05,0,2.82,1.95,4.27,3.75c1.45,1.8,2.88,4.89,2.88,4.89l-0.01,0.03L22.45,16.43z"/><path fill="#05A845" d="M15.16,6.87c-1.83,1.37-2.83,7.38-5.66,7.38S6.15,9.72,6.15,9.72c1.65,0,2.34,2.34,3.69,2.34C11.19,12.06,14.11,6.87,15.16,6.87z"/></svg>