<svg xmlns="http://www.w3.org/2000/svg" enable-background="new 0 0 24 24" viewBox="0 0 24 24"><path fill="#0098D5" d="M15.965,2.368c0-1.031-0.842-1.868-1.871-1.868C8.207,0.5,3.429,5.255,3.428,11.098c0,1.857,0.49,3.69,1.429,5.299c0.336,0.575,0.956,0.932,1.618,0.933v-0.002c1.04,0,1.879-0.836,1.879-1.866c0-0.33-0.085-0.654-0.25-0.932c-0.608-1.044-0.925-2.23-0.925-3.432c0-3.785,3.096-6.867,6.907-6.867C15.123,4.231,15.965,3.396,15.965,2.368z"/><path fill="#0098D5" d="M7.825,18.267c1.459,0.447,3.078,0.313,4.508-0.509c0.9-0.522,1.592-1.239,2.072-2.058c0.27-0.464,0.67-0.866,1.159-1.136c1.079-0.626,2.389-0.521,3.348,0.135c-0.33-1.477-1.259-2.821-2.689-3.626c-0.879-0.507-1.859-0.747-2.819-0.747c-0.54,0-1.079-0.149-1.559-0.417c-1.08-0.626-1.651-1.791-1.546-2.955l-0.043,0.01l-0.009,0.009c-1.116,1.027-1.815,2.496-1.815,4.128c0,1.023,0.278,1.98,0.76,2.808c0.272,0.463,0.422,0.983,0.422,1.553C9.614,16.699,8.878,17.775,7.825,18.267z"/><path fill="#0098D5" d="M0.251,18.196c1.9,3.27,5.443,5.303,9.251,5.303L9.507,23.5l-0.05-0.023c1.864,0,3.71-0.493,5.332-1.419c1.621-0.941,2.973-2.27,3.904-3.881c0.347-0.581,0.347-1.299,0.015-1.866c-0.495-0.85-1.697-1.178-2.554-0.672c-0.298,0.164-0.524,0.402-0.69,0.685c-0.616,1.046-1.486,1.911-2.523,2.523c-1.051,0.602-2.245,0.92-3.446,0.92c-2.466,0-4.761-1.313-5.992-3.434c-0.497-0.856-1.691-1.182-2.564-0.681C0.044,16.165-0.267,17.308,0.251,18.196z"/><polygon fill="#0098D5" points="6.479 17.331 6.476 17.33 6.476 17.331"/><path fill="#0098D5" d="M23.633,13.211c-0.737-2.734-2.496-5.021-4.955-6.437c-1.622-0.931-3.47-1.418-5.333-1.418c-0.675,0.005-1.291,0.358-1.621,0.929c-0.527,0.892-0.21,2.036,0.69,2.549c0.282,0.167,0.612,0.256,0.942,0.256c1.219,0,2.399,0.314,3.448,0.914c3.308,1.895,4.448,6.108,2.539,9.386c-0.52,0.894-0.21,2.037,0.69,2.553c0.289,0.167,0.613,0.254,0.943,0.254l0.012-0.01l-0.04-0.006c0.662,0,1.291-0.358,1.621-0.924C23.993,18.794,24.368,15.943,23.633,13.211z"/></svg>