<svg xmlns="http://www.w3.org/2000/svg" enable-background="new 0 0 24 24" viewBox="0 0 24 24"><path fill="#01A9E9" d="M2,0C0.9,0,0,0.9,0,2v20c0,1.1,0.9,2,2,2h20c1.1,0,2-0.9,2-2V2c0-1.1-0.9-2-2-2H2z M13.296,18.215h-0.905c-2.362,0-3.343-0.798-3.771-2.079H8.571V18H5.143V5.571h3.429v4.002h0.059c0.247-1.634,2.127-2.079,3.734-2.079h0.927c4.95,0,5.561,1.774,5.561,4.419v1.875h0.005C18.857,16.437,18.247,18.215,13.296,18.215z"/><path fill="#01A9E9" d="M13.371,10.435h-2.426c-1.547,0-2.362,0.343-2.362,1.912v1.018c0,1.563,0.814,1.912,2.362,1.912h2.426c1.876,0,2.057-0.648,2.057-1.81v-1.226C15.429,11.079,15.247,10.425,13.371,10.435z"/></svg>