<svg xmlns="http://www.w3.org/2000/svg" enable-background="new 0 0 24 24" viewBox="0 0 24 24"><path fill="#FF9800" d="M10.808,12.139l-0.723,2.899c0.893,0.222,3.646,1.106,4.053-0.53C14.562,12.803,11.701,12.362,10.808,12.139z"/><path fill="#FF9800" d="M12,0C5.373,0,0,5.373,0,12c0,6.627,5.373,12,12,12s12-5.373,12-12C24,5.373,18.627,0,12,0z M17.146,10.291l-0.002,0.002c-0.174,1.169-0.822,1.735-1.682,1.933c1.181,0.614,1.783,1.558,1.21,3.193c-0.71,2.031-2.399,2.203-4.644,1.778l-0.545,2.183l-1.317-0.328l0.538-2.154l-0.348-0.075c-0.353-0.09-0.705-0.184-0.702-0.197l-0.54,2.165l-1.315-0.328l0.545-2.187c-0.308-0.08-0.619-0.163-0.938-0.243l-1.714-0.427l0.653-1.507c0,0,0.97,0.258,0.957,0.238c0.374,0.092,0.539-0.151,0.604-0.313l0.861-3.452c0.049,0.011,0.095,0.023,0.139,0.034c-0.052-0.022-0.1-0.035-0.137-0.044l0.614-2.464C9.4,7.816,9.304,7.463,8.77,7.33c0.021-0.013-0.956-0.237-0.956-0.237l0.35-1.406L9.98,6.14L9.979,6.147c0.274,0.067,0.554,0.132,0.841,0.197l0.54-2.163l1.316,0.328l-0.528,2.12c0.353,0.081,0.709,0.161,1.055,0.248l0.525-2.106L15.045,5.1l-0.539,2.163C16.169,7.836,17.384,8.694,17.146,10.291z"/><path fill="#FF9800" d="M11.794,8.184l-0.655,2.629c0.743,0.186,3.035,0.941,3.406-0.546v-0.001C14.931,8.714,12.537,8.368,11.794,8.184z"/></svg>