<svg xmlns="http://www.w3.org/2000/svg" enable-background="new 0 0 24 24" viewBox="0 0 24 24"><path fill="#F44336" d="M13.255,24c4.618,0,9.245-1.629,9.245-6.849c0-3.082-2.213-5.458-5.279-5.797v-0.067c2.519-0.745,4.244-2.54,4.244-5.253c0-4.372-3.797-6.032-7.48-6.032L1.501,0H1.5v0.357l1.254,1.046c1.503,1.204,1.7,1.439,1.7,2.526V24H13.255z M12.391,3.664c2.426,0,3.177,0.327,3.913,1.013c0.558,0.521,0.813,1.237,0.815,2.07c0,0.775-0.272,1.466-0.846,2.004c-0.717,0.676-1.704,1.011-3.504,1.011H8.805V3.664H12.391z M8.803,13.422L8.803,13.422h4.173c3.518,0,5.176,0.881,5.176,3.39c0,3.153-3.11,3.526-5.35,3.526H8.803V13.422z"/></svg>