<svg xmlns="http://www.w3.org/2000/svg" enable-background="new 0 0 24 24" viewBox="0 0 24 24"><path fill="#FF5722" d="M24,12.128C23.953,5.045,18.265,0,11.933,0h-0.01C5.32,0,0,5.297,0,12.224c0,3.594,1.92,7.062,4.623,9.147c0.52,0.4,1.138,0.367,1.497,0.02c0.297-0.285,0.272-0.984-0.285-1.475c-2.16-1.886-3.652-4.76-3.652-7.635c0-5.15,4.58-9.49,9.74-9.49c6.28,0,9.636,5.102,9.636,9.43c0,2.65-1.29,5.84-3.626,7.874c0.015,0,0.493-0.942,0.493-2.784c0-3.13-1.976-4.836-4.28-4.836c-1.663,0-2.667,0.598-3.34,1.152c0-1.272,0.045-3.652,0.045-3.652c0-1.572-0.54-2.83-2.47-2.86C7.271,7.1,6.449,7.608,5.941,8.762c-0.18,0.436-0.12,0.916,0.254,1.125c0.3,0.18,0.81,0.046,1.046-0.284c0.165-0.21,0.254-0.254,0.404-0.24c0.24,0.03,0.257,0.405,0.257,0.66c0.014,0.193,0.193,2.903,0.088,9.865C7.98,21.798,9.493,24,13.1,24c1.56,0,2.756-0.435,4.493-1.422C20.243,21.08,24,17.758,24,12.128z M13.066,21.26h-0.011c-1.345,0.022-2.325-0.41-2.386-1.585c-0.025-0.44-0.018-0.91,0.002-1.192c0.137-1.716,1.333-2.95,2.53-3.19c1.482-0.294,2.455,0.38,2.455,2.31C15.656,18.906,15.296,21.221,13.066,21.26z"/></svg>