<svg xmlns="http://www.w3.org/2000/svg" enable-background="new 0 0 24 24" viewBox="0 0 24 24"><polygon fill="#2196F3" points="15.216 8.02 13.191 6 13.205 10.031"/><path fill="#2196F3" d="M12.323,24C17.63,24,21,21.797,21,12.159C21,2.527,17.523,0,12.216,0C6.909,0,3,2.521,3,12.159S7.016,24,12.323,24z M6.703,7.805l1.266-1.261l3.459,3.459V1.711l5.864,6.295l-3.722,4.153l3.933,4.158l-5.972,5.977l-0.108-7.969l-3.459,3.459l-1.261-1.261l4.345-4.359L6.703,7.805z"/><polygon fill="#2196F3" points="13.2 14.292 13.191 18.323 15.211 16.303"/></svg>