<svg xmlns="http://www.w3.org/2000/svg" enable-background="new 0 0 24 24" viewBox="0 0 24 24"><path fill="#FF9800" d="M0.886,16.865c0.41,0.434,0.947,0.745,1.571,0.877l17.11,3.758l-3.304-3.395l0.01-0.001c0.503-0.058,0.953-0.291,1.288-0.636l5.557-5.847c1.176-1.24,1.176-3.25,0-4.49L23.117,7.13c-0.409-0.434-0.947-0.744-1.572-0.872h-0.001L4.434,2.5L7.74,5.889L7.73,5.89C7.224,5.948,6.772,6.183,6.437,6.532L0.885,12.37C-0.295,13.616-0.295,15.627,0.886,16.865L0.886,16.865z M8.02,6.491c0.051-0.053,0.106-0.102,0.16-0.152l7.802,8l-0.001-0.001c0.397,0.41,0.641,0.97,0.641,1.585s-0.245,1.174-0.641,1.584c-0.051,0.051-0.105,0.105-0.163,0.15v0.001L8.019,9.661L8.02,9.662c-0.397-0.411-0.642-0.97-0.642-1.586C7.378,7.46,7.623,6.9,8.02,6.491z"/></svg>