<svg xmlns="http://www.w3.org/2000/svg" enable-background="new 0 0 24 24" viewBox="0 0 24 24"><path fill="#212121" d="M0.025,12.749c0.123,2.004,0.734,3.876,1.723,5.494c1,1.649,2.384,3.032,4.024,4.036c1.798,1.075,3.897,1.706,6.13,1.721h0.18c6.343-0.043,11.497-4.994,11.889-11.248c0.014-0.24,0.03-0.496,0.03-0.736s0-0.495-0.016-0.735l-0.027-0.022l-0.001,0.002C23.578,5.002,18.403,0.039,12.061,0h-0.142c-2.24,0.016-4.336,0.64-6.125,1.725C4.143,2.724,2.752,4.111,1.747,5.761C0.76,7.377,0.15,9.251,0.023,11.255C0.008,11.502,0,11.749,0,12.002C0,12.253,0.01,12.503,0.025,12.749z M1.748,10.581c0.625-4.563,4.218-8.176,8.769-8.826l0.115,0.01c0.8,0.043,1.465,0.43,1.37,2.766v3.831c-0.01,1.574,0.895,3.074,1.857,3.643c-0.962,0.56-1.868,1.876-1.858,3.637v0.005v3.833c0.096,2.342-0.57,2.732-1.37,2.768c-0.034,0-0.066,0.003-0.1,0.004c-4.556-0.645-8.157-4.26-8.783-8.829c-0.066-0.464-0.1-0.939-0.1-1.421C1.648,11.519,1.682,11.046,1.748,10.581z"/></svg>