<svg xmlns="http://www.w3.org/2000/svg" enable-background="new 0 0 24 24" viewBox="0 0 24 24"><path fill="#FF9800" d="M14.075,24v-3.188c3.779-0.207,6.305-1.167,6.642-4.756c0.264-2.88-1.084-4.165-3.223-4.682l0.001-0.002c1.289-0.665,2.109-1.846,1.919-3.811c-0.249-2.688-2.438-3.589-5.339-3.84V0h-2.256v3.619c-0.586,0-1.186,0.015-1.787,0.03V0.001H7.776v3.722c-0.829,0.025-1.795,0.013-4.526,0v2.422c1.781-0.032,2.715-0.147,2.929,1.004V17.34c-0.136,0.914-0.861,0.782-2.475,0.753L3.25,20.796c4.113,0,4.526,0.015,4.526,0.015v3.188h2.256v-3.143c0.615,0.015,1.216,0.015,1.787,0.015V24H14.075z M10.077,6.306c1.274,0,5.259-0.399,5.259,2.275c0,2.555-3.985,2.26-5.259,2.26V6.306z M10.077,18.106v-4.992c1.523,0,6.188-0.428,6.188,2.496C16.265,18.431,11.6,18.106,10.077,18.106z"/></svg>