<svg xmlns="http://www.w3.org/2000/svg" enable-background="new 0 0 24 24" viewBox="0 0 24 24"><path fill="#F44336" d="M1.826,11.801L1,12.156c0,0,4.844,4.214,4.966,4.33c0.241,0.234,0.472,0.352,0.241,1.055c-0.241,0.703-0.476,1.645-0.476,1.645s4.495-0.942,4.972-1.059c0.411-0.042,0.864,0.117,0.864,0.586c0,0.473-0.274,5.286-0.274,5.286h1.416c0,0-0.274-4.813-0.274-5.287c0-0.469,0.448-0.628,0.869-0.586c0.472,0.117,4.966,1.059,4.966,1.059s-0.236-0.942-0.472-1.645c-0.237-0.703,0-0.82,0.236-1.055c0.118-0.117,4.966-4.33,4.966-4.33l-0.826-0.352c-0.472-0.23-0.349-0.539-0.236-0.816c0.114-0.356,0.949-3.155,0.949-3.155s-2.252,0.469-2.724,0.586c-0.354,0.112-0.472-0.117-0.59-0.352c-0.118-0.235-0.708-1.519-0.708-1.519s-2.484,2.808-2.602,2.92c-0.472,0.352-0.949,0-0.831-0.469c0-0.469,1.303-6.074,1.303-6.074s-1.421,0.816-1.894,1.05c-0.354,0.234-0.595,0.234-0.831-0.234C13.77,3.389,11.994,0,11.994,0l0.001,0.002c0,0-1.771,3.389-2.006,3.741C9.753,4.211,9.517,4.211,9.158,3.976c-0.472-0.234-1.894-1.05-1.894-1.05s1.303,5.605,1.303,6.074C8.686,9.47,8.213,9.821,7.737,9.47C7.619,9.353,5.135,6.55,5.135,6.55s-0.59,1.28-0.708,1.514C4.31,8.298,4.192,8.528,3.837,8.416C3.361,8.299,1.113,7.83,1.113,7.83s0.831,2.798,0.949,3.155C2.175,11.266,2.297,11.571,1.826,11.801z"/></svg>