<svg xmlns="http://www.w3.org/2000/svg" enable-background="new 0 0 24 24" viewBox="0 0 24 24"><path fill="#212121" d="M12,24c6.627,0,12-5.373,12-12S18.627,0,12,0C5.372,0,0,5.373,0,12S5.372,24,12,24z M11.998,13.991c-1.134,0-2.052-0.919-2.052-2.052s0.919-2.052,2.052-2.052c1.134,0,2.052,0.919,2.052,2.052S13.131,13.991,11.998,13.991z M11.977,3.42c0.001,0,0.002,0,0.002,0c4.709,0,8.526,3.817,8.526,8.526c0,0.003,0,0.006,0,0.01c0,2.822-1.373,5.323-3.488,6.871l-0.024,0.017l-2.012-2.791c1.27-0.936,2.085-2.425,2.085-4.105c0-2.808-2.276-5.084-5.084-5.084c-2.808,0-5.084,2.276-5.084,5.084c0,1.687,0.822,3.182,2.087,4.107l0.014,0.01l-2.014,2.793c-2.152-1.567-3.534-4.078-3.534-6.912C3.451,7.237,7.268,3.42,11.977,3.42z"/></svg>