<svg xmlns="http://www.w3.org/2000/svg" enable-background="new 0 0 24 24" viewBox="0 0 24 24"><path fill="#646FDF" d="M22,2.75H2c-1.104,0-2,0.888-2,1.982v14.536c0,1.094,0.896,1.982,2,1.982h20c1.104,0,2-0.888,2-1.982V4.732C24,3.638,23.104,2.75,22,2.75z M3.013,14.7c-0.509,0-1.067-0.1-1.617-0.335v-1.4c0.5,0.264,1.129,0.467,1.62,0.467c0.329,0,0.566-0.087,0.566-0.359c0-0.702-2.25-0.438-2.25-2.061c0-1.04,0.8-1.66,2-1.66c0.492,0,0.98,0.075,1.471,0.269v1.38c-0.451-0.24-1.021-0.376-1.471-0.376c-0.312,0-0.504,0.091-0.504,0.318c0,0.661,2.262,0.347,2.262,2.094l0.001-0.001C5.093,14.093,4.247,14.692,3.013,14.7z M7.958,10.699H6.833v2.085c0,0.863,0.938,0.595,1.125,0.521v1.194c-0.196,0.107-0.554,0.194-1.037,0.194c-0.879,0-1.538-0.64-1.538-1.507l0.008-4.703l1.446-0.306v1.272h1.121V10.699z M11.042,10.798c-0.188-0.062-0.779-0.149-1.129,0.306v3.485H8.434V9.448h1.279l0.092,0.433c0.346-0.632,1.037-0.504,1.233-0.433h0.004V10.798z M12.879,14.589h-1.487V9.448h1.487V14.589z M12.879,8.688l-1.487,0.314V7.808l1.487-0.314V8.688z M15.968,14.697c-0.517,0-0.834-0.219-1.046-0.372l-0.005,1.66l-1.479,0.31V9.448h1.304l0.075,0.363c0.204-0.186,0.579-0.458,1.158-0.458c1.037,0,2.017,0.929,2.017,2.635h0.001C17.993,13.85,17.027,14.692,15.968,14.697z M22.65,12.568h-2.896c0.067,0.685,0.575,0.888,1.15,0.888c0.587,0,1.05-0.123,1.454-0.326v1.181c-0.404,0.219-0.933,0.38-1.642,0.38c-1.442,0-2.45-0.896-2.45-2.663c0-1.495,0.854-2.68,2.262-2.68c1.404,0,2.138,1.186,2.138,2.688C22.667,12.182,22.654,12.486,22.65,12.568z"/><path fill="#646FDF" d="M15.625 10.654c-.341 0-.555.12-.708.289l.008 2.18c.147.152.354.277.7.277.547 0 .913-.591.913-1.379C16.538 11.253 16.163 10.649 15.625 10.654zM20.516 10.547c-.371 0-.779.277-.779.937h1.529C21.266 10.823 20.878 10.547 20.516 10.547z"/><polygon fill="#646FDF" points="20.516 10.546 20.516 10.547 20.516 10.546"/></svg>