<svg xmlns="http://www.w3.org/2000/svg" enable-background="new 0 0 24 24" viewBox="0 0 24 24"><path fill="#191E6E" d="M22,2.75H2c-1.104,0-2,0.888-2,1.982v14.536c0,1.094,0.896,1.982,2,1.982h20c1.104,0,2-0.888,2-1.982V4.732C24,3.638,23.104,2.75,22,2.75z M6.353,15.105H4.582L3.091,9.531c-0.512-0.302-1.1-0.541-1.758-0.707l0.029-0.128h2.696C4.424,8.713,4.72,8.829,4.816,9.237l0.583,2.949l0.179,0.888l1.637-4.377h1.771L6.353,15.105L6.353,15.105z M8.616,15.113l1.046-6.417h1.675l-1.05,6.417H8.616z M13.2,15.205c-0.75-0.008-1.475-0.165-1.867-0.343l0.234-1.441l0.22,0.103c0.546,0.24,0.904,0.343,1.571,0.343c0.479,0,0.996-0.198,1.004-0.627c0-0.277-0.22-0.484-0.867-0.797c-0.633-0.309-1.479-0.822-1.467-1.743c0.008-1.247,1.171-2.122,2.825-2.122c0.646,0,1.172,0.144,1.5,0.272l-0.229,1.387l-0.15-0.07c-0.3-0.129-0.7-0.256-1.246-0.244c-0.659,0-0.955,0.281-0.963,0.553c0,0.301,0.358,0.5,0.946,0.793c0.963,0.458,1.412,1.016,1.404,1.747v0.001C16.104,14.346,14.958,15.209,13.2,15.205z M20.451,15.114c0,0-0.15-0.735-0.2-0.962H18.1c-0.063,0.169-0.35,0.962-0.35,0.962h-1.758l2.487-5.885c0.17-0.418,0.475-0.533,0.875-0.533h1.296L22,15.113l0.001,0.001H20.451z"/><path fill="#191E6E" d="M19.587,10.98l-0.116-0.553c-0.083,0.239-0.229,0.627-0.22,0.615c0,0-0.529,1.429-0.667,1.796h1.392C19.904,12.516,19.588,10.98,19.587,10.98L19.587,10.98z"/></svg>