<svg xmlns="http://www.w3.org/2000/svg" enable-background="new 0 0 24 24" viewBox="0 0 24 24"><path d="M0.425,15.167c-0.008-0.028-0.01-0.057-0.017-0.085l-0.003,0.001L0.425,15.167z"/><rect width="24" height="24" fill="none"/><path fill="#EA4335" d="M2.898,4.181C8.476-2.312,18.82-1.03,22.686,6.554c-2.722,0.001-6.984-0.001-9.293,0c-1.674,0.001-2.755-0.038-3.926,0.579C8.091,7.857,7.053,9.2,6.69,10.777L2.898,4.181z"/><path fill="#4285F4" d="M8.008,12c0,2.2,1.789,3.991,3.988,3.991c2.199,0,3.988-1.79,3.988-3.991c0-2.2-1.789-3.991-3.988-3.991C9.797,8.009,8.008,9.799,8.008,12z"/><path fill="#34A853" d="M13.544,17.223c-2.239,0.665-4.858-0.073-6.293-2.549c-1.095-1.891-3.989-6.932-5.305-9.225C-2.661,12.51,1.31,22.132,9.673,23.774L13.544,17.223z"/><path fill="#FBBC05" d="M15.701,8.009c1.865,1.734,2.271,4.542,1.008,6.719c-0.952,1.64-3.988,6.766-5.46,9.248c8.617,0.531,14.899-7.914,12.061-15.967H15.701z"/></svg>