<svg xmlns="http://www.w3.org/2000/svg" enable-background="new 0 0 24 24" viewBox="0 0 24 24"><path fill="#212121" d="M11.816,0C6.127,0,1.363,3.84,0.01,9.025C0,9.061,0,9.095,0,9.145c0,0.313,0.256,0.576,0.584,0.576h4.909c0.234,0,0.44-0.13,0.525-0.333c1.012-2.16,3.229-3.672,5.799-3.672c3.519,0,6.382,2.82,6.382,6.287c0,3.47-2.863,6.29-6.386,6.29c-2.569,0-4.786-1.5-5.797-3.673c-0.099-0.19-0.295-0.336-0.525-0.336H0.584C0.267,14.284,0,14.537,0,14.86c0,0.037,0.014,0.072,0.014,0.12C1.354,20.16,6.126,24,11.816,24C18.542,24,24,18.625,24,12C24,5.377,18.542,0,11.816,0z"/><path fill="#212121" d="M14.716,12c0-1.571-1.304-2.855-2.9-2.855c-1.595,0-2.899,1.271-2.899,2.855c0,1.572,1.305,2.856,2.899,2.856C13.412,14.856,14.716,13.572,14.716,12z"/></svg>