<svg xmlns="http://www.w3.org/2000/svg" enable-background="new 0 0 24 24" viewBox="0 0 24 24"><path d="M14.048,18.006c-0.015,0.005-0.031,0.007-0.046,0.012l0.001,0.001L14.048,18.006z"/><path fill="#8CAFF6" d="M15.273,16.952c0.074,0.036,0.242,0.097,0.475,0.163c1.581-1.167,2.596-3.022,2.6-5.114V12h-0.002c-0.005-3.502-2.843-6.339-6.345-6.344c-0.696,0.001-1.365,0.118-1.991,0.325c1.288,1.468,1.907,3.565,2.506,5.86l0.001,0.003c0.001,0.002,0.192,0.637,0.518,1.48c0.326,0.842,0.789,1.885,1.293,2.645C14.66,16.479,15.025,16.845,15.273,16.952z"/><path d="M9.964,5.993c0.015-0.005,0.031-0.007,0.046-0.012c0,0-0.001-0.001-0.001-0.001L9.964,5.993z"/><path fill="#60AB31" d="M0.072,10.712c-0.092,0.486-0.07,0.854-0.07,1.29c0,6.626,5.373,11.999,12,11.999c4.059,0,7.643-2.017,9.815-5.101c-1.174,0.293-2.305,0.433-3.271,0.436c-0.362,0-0.702-0.02-1.019-0.058v-0.002c-0.84-0.105-1.533-0.232-2.141-0.446c-0.987,0.5-2.152,0.793-3.385,0.793c-4.211,0-7.624-3.413-7.625-7.622c0-0.002,0-0.004,0-0.006c0-2.279,1.003-4.323,2.591-5.716l0.009-0.007C6.579,6.17,6.122,6.111,5.653,6.11H5.652C3.416,6.13,1.055,7.368,0.072,10.712z"/><path fill="#8DD646" d="M10.815 10.275c-.406-1.018-.991-2.198-1.513-2.733C9.028 7.262 8.717 7.02 8.376 6.824L8.355 6.813C6.716 7.975 5.659 9.864 5.657 12c.002 2.104 1.029 3.968 2.607 5.121l.018.013c.39-1.622 1.366-3.107 2.83-6.083C11.025 10.811 10.926 10.55 10.815 10.275zM12.002 18.344c.699-.002 1.37-.119 2-.327-.15-.136-.286-.279-.411-.433l-.006-.007c-.854-1.089-1.329-2.682-2.082-5.362-.119.259-.251.549-.387.858-.482 1.092-1.016 2.42-1.21 3.271-.071.314-.112.674-.112 1.044 0 .017 0 .035 0 .052 0 .164.009.337.022.514C10.498 18.204 11.233 18.342 12.002 18.344z"/><path fill="#567DD2" d="M12.001,0.001c-0.002,0-0.004,0-0.006,0c-4.002,0-7.546,1.963-9.722,4.978L2.249,5.014C3.383,4.304,4.54,4.047,5.55,4.057c1.394,0.004,2.491,0.436,3.017,0.732c0.127,0.073,0.248,0.152,0.366,0.233C9.836,4.615,10.89,4.378,12,4.378c4.21,0,7.624,3.413,7.625,7.622c0,0.002,0,0.005,0,0.007c0,2.12-0.868,4.038-2.267,5.417l-0.001,0.001c0.344,0.038,0.709,0.063,1.084,0.061c1.328,0,2.766-0.293,3.842-1.198c0.703-0.592,1.291-1.458,1.617-2.757C23.965,13.029,24,12.519,24,12C24,5.374,18.629,0.001,12.001,0.001z"/></svg>