<svg xmlns="http://www.w3.org/2000/svg" enable-background="new 0 0 24 24" viewBox="0 0 24 24"><path fill="#F4A83F" d="M21.573,14.931l-1.921,0.114c-1.041,0.05-2.158,0.899-2.553,1.94l-0.141,0.363c-0.028,0.072,0.021,0.144,0.099,0.144h6.598c0.077,0,0.147-0.05,0.169-0.128C23.936,16.95,24,16.515,24,16.066c0-2.637-2.125-4.791-4.734-4.791V11.27c-0.077,0-0.161,0-0.238,0.011c-0.057,0-0.105,0.043-0.127,0.099l-0.338,1.19c-0.147,0.514-0.092,0.984,0.154,1.334c0.226,0.32,0.606,0.505,1.062,0.526l1.844,0.115c0.056,0,0.105,0.026,0.133,0.071c0.028,0.045,0.035,0.109,0.021,0.158C21.749,14.859,21.664,14.924,21.573,14.931z"/><path fill="#ED7E1F" d="M0,16.817c0,0.177,0.014,0.356,0.035,0.534C0.049,17.435,0.119,17.5,0.204,17.5h15.982c0.091,0,0.176-0.065,0.203-0.157l0.12-0.433v-0.001c0.147-0.514,0.091-0.984-0.155-1.333c-0.225-0.32-0.605-0.506-1.062-0.527l-8.659-0.114c-0.001,0-0.002,0-0.002,0c-0.055,0-0.103-0.028-0.131-0.072v-0.001c-0.028-0.043-0.035-0.1-0.021-0.157c0.028-0.085,0.112-0.15,0.204-0.158l8.736-0.114c1.035-0.05,2.16-0.899,2.554-1.94l0.499-1.319c0.021-0.057,0.029-0.115,0.015-0.17C17.924,8.425,15.652,6.5,12.937,6.5c-2.504,0-4.628,1.64-5.388,3.913c-0.493-0.371-1.119-0.571-1.794-0.506c-1.203,0.121-2.166,1.098-2.286,2.317c-0.028,0.314-0.007,0.621,0.063,0.906C1.568,13.187,0,14.813,0,16.817z"/></svg>