<svg xmlns="http://www.w3.org/2000/svg" enable-background="new 0 0 24 24" viewBox="0 0 24 24"><path fill="#44A831" d="M17.041,6.536l-0.504,0.407c-1.206-1.034-2.759-1.8-4.463-1.8c-3.835,0-6.932,3.257-6.932,7.088c0,0.353,0.022,0.702,0.075,1.039c-0.107-3,2.239-5.218,4.961-5.218c1.296,0,2.476,0.504,3.353,1.323l-1.35,1.093L17.041,6.536z"/><path fill="#044F79" d="M17.041,6.536l-4.859,3.931c-0.444-0.048-0.899,0.096-1.238,0.434c-0.594,0.59-0.594,1.549,0,2.143c0.594,0.59,1.549,0.59,2.143,0c0.337-0.337,0.482-0.798,0.434-1.238L17.55,7.05C17.887,6.702,17.373,6.199,17.041,6.536z M12.552,12.509c-0.3,0.295-0.781,0.295-1.082,0c-0.3-0.301-0.3-0.782,0-1.082c0.299-0.301,0.782-0.301,1.082,0C12.853,11.727,12.851,12.214,12.552,12.509z"/><path fill="#044F79" d="M12,0C5.384,0,0,5.384,0,12s5.384,12,12,12s12-5.384,12-12S18.616,0,12,0z M12,20.571c-4.725,0-8.571-3.847-8.571-8.571c0-4.725,3.847-8.571,8.571-8.571S20.571,7.275,20.571,12C20.571,16.725,16.725,20.571,12,20.571z"/></svg>