<svg xmlns="http://www.w3.org/2000/svg" enable-background="new 0 0 24 24" viewBox="0 0 24 24"><path fill="#212121" d="M23.604 8.988l-.019-.084c.008.028.01.057.017.085L23.604 8.988zM11.966 0c-1.123 0-2.211.154-3.242.442l.169-.04.931 3.482c.642-.18 1.38-.283 2.142-.283.008 0 .016 0 .023 0h.004V0h-.019C11.972 0 11.969 0 11.966 0zM7.719 4.766l.039-.021.04-.021L5.995 1.607C3.276 3.2 1.268 5.761.427 8.806L.407 8.89l3.476.932C4.488 7.647 5.877 5.867 7.719 4.766zM23.602 9.001l-3.484.932c.175.641.275 1.376.275 2.135 0 .791-.109 1.557-.313 2.283l.014-.059 3.483.934C23.845 14.277 24 13.188 24 12.062 24 11.003 23.859 9.979 23.602 9.001zM4.768 16.28l-.022-.039-.022-.04-3.119 1.802c.55.942 1.18 1.756 1.901 2.478l2.553-2.543C5.564 17.441 5.13 16.885 4.768 16.28zM19.22 7.727l.021.039.021.04 3.117-1.801c-1.591-2.722-4.146-4.732-7.186-5.576l-.084-.02-.931 3.477C16.347 4.492 18.124 5.884 19.22 7.727zM14.285 20.085l-.06.015-.059.014.931 3.481c3.124-.861 5.681-2.867 7.246-5.527l.031-.056-3.115-1.8C18.15 18.092 16.384 19.486 14.285 20.085zM11.964 20.4c-1.552 0-3.004-.426-4.247-1.168l.038.021.039.021-1.799 3.119C7.694 23.403 9.741 24 11.927 24c.012 0 .025 0 .037 0h.018v-3.6h-.004C11.974 20.4 11.969 20.4 11.964 20.4zM3.597 12.038c0-.009 0-.02 0-.029 0-.001 0-.001 0-.002v-.006L0 12v.006c0 1.071.145 2.108.408 3.096l3.473-.93C3.701 13.533 3.597 12.798 3.597 12.038z"/></svg>