<svg xmlns="http://www.w3.org/2000/svg" enable-background="new 0 0 24 24" viewBox="0 0 24 24"><path fill="#F44336" d="M24,19.5V12c0-0.828-0.672-1.5-1.5-1.5h-3c-0.828,0-1.5,0.672-1.5,1.5v7.5c0,0.828,0.672,1.5,1.5,1.5h3C23.328,21,24,20.328,24,19.5z"/><path fill="#2196F3" d="M13.5,21c0.828,0,1.5-0.672,1.5-1.5v-15C15,3.672,14.328,3,13.5,3h-3C9.673,3,9,3.672,9,4.5v15c0,0.828,0.673,1.5,1.5,1.5H13.5z"/><path fill="#FFC107" d="M0,19.5C0,20.328,0.673,21,1.5,21h3C5.328,21,6,20.328,6,19.5V9c0-0.828-0.672-1.5-1.5-1.5h-3C0.673,7.5,0,8.172,0,9V19.5z"/></svg>