<svg xmlns="http://www.w3.org/2000/svg" enable-background="new 0 0 24 24" viewBox="0 0 24 24"><path fill="#E9460F" d="M7.349,7.156c-1.054,0.98-2.021,2.058-2.888,3.21c-1.875,2.29-2.611,5.31-2.001,8.205c0.836,2.79,3.156,4.886,6.018,5.43h0.016l-0.01-0.009c-1.541-0.68-2.587-2.146-2.724-3.824c0.09-1.727,1.002-3.305,2.451-4.246c-0.238,0.58-0.18,1.24,0.15,1.77c0.376,0.525,1.022,0.777,1.656,0.646c0.902-0.254,1.431-1.19,1.177-2.092c-0.09-0.316-0.27-0.602-0.516-0.818c-1.02-0.83-1.533-2.133-1.351-3.436c0.175-0.69,0.557-1.314,1.097-1.785c-0.405,1.08,0.737,2.146,1.505,2.67c1.361,0.816,2.671,1.713,3.926,2.686c1.371,1.08,2.118,2.77,2.001,4.5c-0.308,1.84-1.611,3.36-3.386,3.93c3.552-0.79,7.213-3.61,7.283-7.61c-0.07-3.2-1.981-6.072-4.902-7.38h-0.13c0.065,0.157,0.096,0.326,0.09,0.496c-0.002,0.02,0.002,0.04,0,0.06c-0.222,0.91-1.14,1.47-2.053,1.248c-0.364-0.09-0.69-0.295-0.924-0.59c-1.171-1.5,0-3.207,0.196-4.857c0.12-2.11-0.844-4.127-2.555-5.36c0.856,1.427-0.284,3.3-1.114,4.366C9.529,5.432,8.327,6.226,7.349,7.156z"/></svg>