<svg xmlns="http://www.w3.org/2000/svg" enable-background="new 0 0 24 24" viewBox="0 0 24 24"><path d="M5.55,10.039c0.006-0.005,0.012-0.01,0.018-0.015c0,0,0,0,0,0L5.55,10.039z"/><path fill="#3D485A" d="M6.898,4.98v2.595c1.463-1.014,3.152-1.854,4.96-2.435l0.135-0.038c0.012-0.013,2.845,0.749,5.29,2.495L17.286,7.6V4.98c0-0.37-3.173-1.193-5.244-1.193C9.969,3.788,6.898,4.625,6.898,4.98z"/><path fill="#6D7380" d="M12.019,0L12.019,0c-0.987,0.001-2.434,0.406-2.434,0.763V2.88c0.731-0.157,1.577-0.256,2.443-0.272h0.013c0.883,0.02,1.73,0.114,2.552,0.275l-0.093-0.015V0.774C14.501,0.407,13.004,0,12.019,0z"/><path fill="#3D485A" d="M18.57,12.77v-0.01c-0.79,0.15-1.71,1.27-2.9,2.39c0.48-1.66,1.33-3.52,2.88-5.11c-0.38-0.35-0.79-0.68-1.22-1l-0.04-0.02V9c-1.55-1.13-3.35-2.1-5.22-2.63c-0.78,0.2-1.54,0.56-2.25,0.89C8.2,8.02,6.81,8.94,5.57,10.02c1.37,1.38,2.19,3.11,2.69,4.72l0.03,0.09l0.01,0.03H8.29c-0.02-0.02-1.65-1.66-4.03-1.66c-1.27,0-2.72,0.45-4.26,1.83c0.15,0.51,0.32,1,0.54,1.5v0.01l0.02,0.05c0.16,0.35,0.33,0.69,0.52,1.02c2.25,3.99,6.67,6.52,11.35,6.38c4.97-0.14,9.49-3.31,11.29-7.85c0.1-0.25,0.19-0.51,0.28-0.76C22.29,14.13,19.6,12.57,18.57,12.77z M12.06,7.27l0.62,3.05l-0.15,2.67l-0.45,3.96v0.01h-0.05c-0.01,0-0.02-0.01-0.02-0.01v-0.03l-0.5-3.95l-0.13-2.65L12.06,7.27z M12.9,17.13c0.02-0.01,0.05-0.02,0.07-0.04l0.02,0.01C12.99,17.1,12.94,17.12,12.9,17.13z"/><path fill="#6D7380" d="M12.85,17.15c-2.24,0.9-5.35,0.529-7.996-0.9c-2.474-1.336-4.134,0.69-4.134,0.69c-0.19-0.33,0,0-0.16-0.35l-0.02-0.05v-0.01c-0.22-0.5-0.39-0.99-0.54-1.5c1.54-1.38,2.99-1.83,4.26-1.83c2.38,0,4.01,1.64,4.03,1.66H8.3l-0.01-0.03c0.32,0.31,0.62,0.61,0.92,0.88C10.52,16.89,12.85,17.15,12.85,17.15z"/></svg>