<svg xmlns="http://www.w3.org/2000/svg" enable-background="new 0 0 24 24" viewBox="0 0 24 24"><path d="M17.436 9.532c.007-.001.014-.001.021-.002l.024-.003L17.436 9.532zM10.24 18.43c-.001-.011-.001-.025-.002-.036v-.001L10.24 18.43z"/><path fill="#F52A67" d="M2.07,13.669c2.181-1.577,5.243-1.399,7.235,0.529l-0.004-0.003l-0.004-0.003l0.35,0.34c0.103-0.192,0.405-1.11,1.19-2.139l0.205-0.268c-0.213-0.148-2.199-2.254-5.669-2.254c-0.911,0-1.788,0.148-2.612,0.422l0.061-0.018l0.061-0.017c0.971-4.435,4.713-7.525,9.132-7.528c0.009,0,0.021,0,0.032,0c2.564,0,4.886,1.079,6.569,2.826c2.017,2.073,2.359,4.293,2.508,4.687c-1.34-0.45-2.853-0.493-4.127-0.242l0.05-0.008c-0.104,0.019-0.403,0.081-0.618,0.14l0.056-0.013c-0.101,0.029-0.338,0.083-0.686,0.206l0.065-0.02c-0.105,0.082-5.751,1.828-5.649,8.343V18.64v-0.007c0.011,0.252,0.003,0.465,0.07,1.016l-0.006-0.059c0.029,0.1,0.108,2.116,1.825,4.357L12.145,24c0.332-0.488,1.278-1.752,1.367-2.737l0.001-0.016l-0.007-0.014c-1.859-3.609,0.514-8.38,4.756-8.644c0.116-0.004,0.215-0.009,0.334-0.009c1.821,0,2.782,0.791,3.363,1.09L24,12.434v-0.031C24,5.575,18.681,0,12.007,0l-0.001,0.001C5.391,0.006,0.005,5.575,0,12.417v0.031l2.042,1.241L2.07,13.669z"/></svg>