<svg xmlns="http://www.w3.org/2000/svg" enable-background="new 0 0 24 24" viewBox="0 0 24 24"><path fill="#27469B" d="M11.328,20.049c1.206,1.221,3.011,1.221,4.216,0l6.779-6.827c2.26-2.431,2.26-6.073-0.152-8.504h-0.001v-0.01c-2.258-2.277-6.022-2.277-8.43,0L4.56,14.125c-0.599,0.608-0.599,1.518,0,2.126c0.61,0.608,1.511,0.608,2.11,0L6.82,16.1l0.909-0.912l6.927-6.987l1.493-1.516c0.45-0.456,1.204-0.76,1.958-0.76c0.754,0,1.506,0.304,2.106,0.912c0.605,0.615,0.903,1.372,0.903,2.129c0,0.756-0.3,1.523-0.903,2.126L11.328,20.049z"/><path fill="#24A8F5" d="M10.127,19.289l9.336-9.415c0.453-0.61,0.453-1.518-0.15-2.128h-0.003c-0.603-0.609-1.506-0.609-2.108,0l-9.484,9.567c-0.45,0.455-1.199,0.761-1.96,0.761c-0.749,0-1.499-0.305-2.1-0.911c-0.599-0.608-0.902-1.365-0.902-2.126c0-0.76,0.3-1.518,0.899-2.126l8.882-8.96c-1.205-1.214-3.012-1.214-4.218,0l-6.624,6.834c-2.261,2.279-2.261,6.076,0,8.504C3.953,21.57,7.718,21.57,10.127,19.289z"/></svg>