<svg xmlns="http://www.w3.org/2000/svg" enable-background="new 0 0 24 24" viewBox="0 0 24 24"><linearGradient id="a" x1="2.736" x2="18.25" y1="4.153" y2="4.153" gradientUnits="userSpaceOnUse"><stop offset="0" stop-color="#feb041"/><stop offset="1" stop-color="#00b0ec"/></linearGradient><path fill="url(#a)" d="M2.986,7.058c-0.103,0-0.199-0.064-0.236-0.167c-0.046-0.13,0.022-0.273,0.152-0.319l15.014-5.308c0.129-0.048,0.272,0.022,0.319,0.152c0.046,0.13-0.022,0.273-0.152,0.319L3.069,7.043C3.042,7.053,3.014,7.058,2.986,7.058z"/><path fill="#FEB041" d="M0.5,12.25c-0.04,0-0.079-0.009-0.116-0.028c-0.122-0.064-0.169-0.215-0.105-0.338l5.5-10.5c0.065-0.122,0.217-0.168,0.338-0.105c0.122,0.064,0.169,0.215,0.105,0.338l-5.5,10.5C0.677,12.201,0.59,12.25,0.5,12.25z"/><path fill="#EE4035" d="M6,22.75c-0.09,0-0.177-0.049-0.222-0.134l-5.5-10.5c-0.064-0.123-0.017-0.273,0.105-0.338c0.123-0.062,0.274-0.017,0.338,0.105l5.5,10.5c0.064,0.123,0.017,0.273-0.105,0.338C6.079,22.741,6.039,22.75,6,22.75z"/><path fill="#ED008B" d="M18,22.75H6c-0.138,0-0.25-0.112-0.25-0.25S5.862,22.25,6,22.25h12c0.138,0,0.25,0.112,0.25,0.25S18.138,22.75,18,22.75z"/><path fill="#8C4EA2" d="M18,22.75c-0.039,0-0.079-0.009-0.116-0.028c-0.123-0.064-0.17-0.215-0.106-0.337l5.5-10.512c0.065-0.123,0.218-0.167,0.337-0.106c0.123,0.064,0.17,0.215,0.106,0.337l-5.5,10.512C18.177,22.701,18.09,22.75,18,22.75z"/><path fill="#00B0EC" d="M23.5,12.238c-0.09,0-0.177-0.049-0.221-0.134l-5.5-10.488c-0.064-0.123-0.017-0.273,0.105-0.337c0.121-0.063,0.273-0.017,0.337,0.105l5.5,10.488c0.064,0.123,0.017,0.273-0.105,0.337C23.579,12.229,23.54,12.238,23.5,12.238z"/><path fill="#6AC8C5" d="M18,1.75H6c-0.138,0-0.25-0.112-0.25-0.25S5.862,1.25,6,1.25h12c0.138,0,0.25,0.112,0.25,0.25S18.138,1.75,18,1.75z"/><linearGradient id="b" x1="6.117" x2="6.117" y1="4.292" y2="21.505" gradientUnits="userSpaceOnUse"><stop offset="0" stop-color="#6ac8c5"/><stop offset="1" stop-color="#ee4035"/></linearGradient><path fill="url(#b)" d="M6.117,22.75c-0.138,0-0.25-0.112-0.25-0.25v-21c0-0.138,0.112-0.25,0.25-0.25s0.25,0.112,0.25,0.25v21C6.367,22.638,6.255,22.75,6.117,22.75z"/><linearGradient id="c" x1="5.75" x2="20.927" y1="14.654" y2="14.654" gradientUnits="userSpaceOnUse"><stop offset="0" stop-color="#ee4035"/><stop offset="1" stop-color="#00b0ec"/></linearGradient><path fill="url(#c)" d="M6,22.75c-0.061,0-0.123-0.022-0.171-0.067c-0.101-0.094-0.106-0.252-0.012-0.354L20.495,6.637c0.095-0.101,0.253-0.105,0.354-0.012c0.101,0.094,0.106,0.252,0.012,0.354L6.183,22.671C6.133,22.724,6.067,22.75,6,22.75z"/><linearGradient id="d" x1="17.75" x2="20.927" y1="14.654" y2="14.654" gradientUnits="userSpaceOnUse"><stop offset="0" stop-color="#ed008b"/><stop offset="1" stop-color="#00b0ec"/></linearGradient><path fill="url(#d)" d="M18,22.75c-0.014,0-0.028-0.001-0.042-0.003c-0.136-0.023-0.228-0.152-0.205-0.289l2.677-15.692c0.024-0.136,0.159-0.225,0.289-0.205c0.136,0.023,0.228,0.152,0.205,0.289l-2.677,15.692C18.226,22.664,18.12,22.75,18,22.75z"/><linearGradient id="e" x1="2.736" x2="18.25" y1="14.654" y2="14.654" gradientUnits="userSpaceOnUse"><stop offset="0" stop-color="#feb041"/><stop offset="1" stop-color="#ed008b"/></linearGradient><path fill="url(#e)" d="M18,22.75c-0.066,0-0.131-0.026-0.181-0.077L2.805,6.98c-0.095-0.1-0.092-0.258,0.008-0.354c0.1-0.096,0.258-0.092,0.354,0.008l15.014,15.692c0.095,0.1,0.092,0.258-0.008,0.354C18.125,22.727,18.062,22.75,18,22.75z"/><linearGradient id="f" x1="2.656" x2="18.25" y1="9.014" y2="9.014" gradientUnits="userSpaceOnUse"><stop offset="0" stop-color="#ee4035"/><stop offset="1" stop-color="#00b0ec"/></linearGradient><path fill="url(#f)" d="M2.906,16.777c-0.064,0-0.128-0.024-0.177-0.074c-0.097-0.098-0.097-0.256,0.001-0.354L17.824,1.323c0.098-0.097,0.256-0.098,0.354,0.001c0.097,0.098,0.097,0.256-0.001,0.354L3.083,16.705C3.034,16.753,2.97,16.777,2.906,16.777z"/><linearGradient id="g" x1="2.656" x2="21.344" y1="16.527" y2="16.527" gradientUnits="userSpaceOnUse"><stop offset="0" stop-color="#ee4035"/><stop offset="1" stop-color="#8c4ea2"/></linearGradient><path fill="url(#g)" d="M21.094,16.777H2.906c-0.138,0-0.25-0.112-0.25-0.25s0.112-0.25,0.25-0.25h18.188c0.138,0,0.25,0.112,0.25,0.25S21.232,16.777,21.094,16.777z"/><linearGradient id="h" x1="5.75" x2="21.344" y1="9.014" y2="9.014" gradientUnits="userSpaceOnUse"><stop offset="0" stop-color="#6ac8c5"/><stop offset="1" stop-color="#8c4ea2"/></linearGradient><path fill="url(#h)" d="M21.094,16.777c-0.064,0-0.127-0.024-0.176-0.073L5.824,1.677C5.726,1.58,5.726,1.421,5.823,1.324C5.92,1.225,6.079,1.226,6.176,1.323L21.27,16.35c0.098,0.098,0.098,0.256,0.001,0.354C21.222,16.753,21.158,16.777,21.094,16.777z"/><circle cx="17.875" cy="1.516" r=".671" fill="#00B0EC"/><circle cx="2.906" cy="16.667" r=".671" fill="#EE4035"/><circle cx="6.117" cy="1.516" r=".75" fill="#6AC8C5"/><circle cx="12.283" cy="1.516" r=".75" fill="#6AC8C5"/><circle cx="12.283" cy="22.5" r=".75" fill="#ED008B"/><circle cx="6.117" cy="22.496" r=".75" fill="#EE4035"/><circle cx="20.677" cy="6.808" r=".75" fill="#00B0EC"/><circle cx="2.986" cy="6.808" r=".75" fill="#FEB041"/><circle cx="23.25" cy="11.998" r=".75" fill="#8C4EA2"/><circle cx=".75" cy="11.998" r=".75" fill="#FEB041"/><circle cx="21.094" cy="16.667" r=".75" fill="#8C4EA2"/><circle cx="17.958" cy="22.496" r=".75" fill="#ED008B"/></svg>