<svg xmlns="http://www.w3.org/2000/svg" enable-background="new 0 0 24 24" viewBox="0 0 24 24"><path fill="#F47C00" d="M1.594 22.496h3.731c-1.96-2.155-2.522-5.057-3.197-8.201v-.001c-.825-3.871-1.687-7.47.441-10.75C3.076 2.775 3.652 2.091 4.299 1.5H1.594C.712 1.5 0 2.217 0 3.094v17.809C0 21.784.717 22.496 1.594 22.496zM24 3.094C24 2.213 23.288 1.5 22.406 1.5l.001.001h-4.228c1.003 1.003 1.837 2.319 2.47 3.941l-6.427 1.373c-.698-1.359-1.772-2.497-3.872-2.057C9.196 5.005 8.427 5.662 8.085 6.379c-.413.877-.619 1.866.384 6.575.989 4.696 1.58 5.516 2.32 6.149.605.52 1.566.797 2.733.548 2.086-.441 2.611-1.908 2.691-3.43l6.441-1.388c.15 3.351-.877 5.868-2.691 7.667h2.442c.877 0 1.594-.712 1.594-1.594V3.094z"/></svg>