<svg xmlns="http://www.w3.org/2000/svg" enable-background="new 0 0 24 24" viewBox="0 0 24 24"><path fill="#659AD2" d="M22.24,6c0-0.01-0.01-0.01-0.01-0.02c-0.17-0.28-0.4-0.52-0.64-0.67l-8.68-5.09c-0.5-0.29-1.32-0.29-1.82,0L2.41,5.31C1.91,5.6,1.5,6.32,1.5,6.91v10.18c0,0.29,0.1,0.62,0.27,0.91c0.01,0.01,0.02,0.03,0.03,0.04c0.15,0.27,0.37,0.51,0.61,0.65l8.68,5.09c0.5,0.29,1.32,0.29,1.82,0l8.68-5.09c0.24-0.14,0.46-0.38,0.61-0.65c0.01-0.01,0.02-0.03,0.03-0.04c0.17-0.29,0.27-0.62,0.27-0.91V6.91C22.5,6.62,22.4,6.29,22.24,6z M19.59,12.39V11.6h0.77v-0.79h0.78v0.79h0.78v0.79h-0.78v0.8h-0.78v-0.8H19.59z M16.67,12.39V11.6h0.78v-0.79h0.77v0.79H19v0.79h-0.78v0.8h-0.77v-0.8H16.67z M12,19.11c-2.57,0-4.83-1.42-6.04-3.53C5.35,14.53,5,13.31,5,12c0-3.92,3.14-7.11,7-7.11c2.58,0.01,4.83,1.42,6.04,3.52l0.02,0.03l-3.03,1.78C14.42,9.15,13.29,8.45,12,8.44c-1.93,0-3.5,1.6-3.5,3.56c0,0.65,0.17,1.26,0.48,1.79c0.6,1.06,1.73,1.77,3.02,1.77c1.29-0.01,2.42-0.71,3.02-1.77l0.01-0.01l3.03,1.78c0,0.01-0.01,0.01-0.01,0.02C16.82,17.7,14.57,19.1,12,19.11z"/><path fill="#004482" d="M8.98 13.79L12 12l3.02 1.79c-.6 1.06-1.73 1.76-3.02 1.77C10.71 15.56 9.58 14.85 8.98 13.79zM22.2 18.04c-.15.27-.37.51-.61.65l-8.68 5.09c-.5.29-1.32.29-1.82 0l-8.68-5.09c-.24-.14-.46-.38-.61-.65l4.16-2.46c1.21 2.11 3.47 3.53 6.04 3.53 2.57-.01 4.82-1.41 6.05-3.53L22.2 18.04z"/><path fill="#00599C" d="M22.24,6c0-0.01-0.01-0.01-0.01-0.02l-4.17,2.46l-3.03,1.78L12,12l3.02,1.79l3.03,1.79l4.15,2.46c0.01-0.01,0.02-0.03,0.03-0.04c0.17-0.29,0.27-0.62,0.27-0.91V6.91C22.5,6.62,22.4,6.29,22.24,6z M19,12.39h-0.78v0.8h-0.77v-0.8h-0.78V11.6h0.78v-0.79h0.77v0.79H19V12.39z M21.92,12.39h-0.78v0.8h-0.78v-0.8h-0.77V11.6h0.77v-0.79h0.78v0.79h0.78V12.39z"/></svg>