<svg xmlns="http://www.w3.org/2000/svg" enable-background="new 0 0 24 24" viewBox="0 0 24 24"><path fill="#EF3359" d="M23.416,18.487c-0.035-0.596-0.3-1.021-0.784-1.272c-0.313-0.164-0.718-0.248-1.195-0.248c-0.541,0-0.957,0.11-1.272,0.322c-0.313,0.215-0.479,0.517-0.479,0.901c0,0.355,0.166,0.619,0.478,0.794c0.22,0.105,0.651,0.254,1.312,0.404l1.723,0.409c0.274,0.055,0.512,0.134,0.734,0.208v-1.517H23.416z"/><path fill="#EF3359" d="M0.06,16.529c0.777-0.699,1.753-1.059,2.915-1.059c1.673,0,2.897,0.549,3.67,1.648c0.427,0.619,0.657,1.24,0.687,1.858H5.249c-0.13-0.475-0.311-0.835-0.521-1.075c-0.391-0.433-0.941-0.643-1.693-0.643c-0.761,0-1.342,0.297-1.793,0.909c-0.431,0.609-0.661,1.458-0.661,2.577c0,1.105,0.224,1.94,0.689,2.497C1.584,23.642,1.971,23.895,2.422,24h1.229c0.421-0.105,0.761-0.315,1.022-0.644c0.213-0.252,0.386-0.639,0.526-1.149h2.056c-0.11,0.669-0.334,1.268-0.664,1.788h2.093c-0.215-0.429-0.32-0.921-0.32-1.478h2.02c0.06,0.449,0.19,0.793,0.371,1.013c0.17,0.209,0.407,0.359,0.691,0.464h2.244c0.581-0.21,0.881-0.579,0.881-1.149c0-0.33-0.15-0.579-0.431-0.759c-0.3-0.18-0.751-0.33-1.362-0.464l-1.047-0.24c-1.032-0.237-1.751-0.489-2.153-0.759c-0.671-0.461-1.002-1.179-1.002-2.147c0-0.879,0.33-1.625,0.972-2.207c0.659-0.579,1.601-0.879,2.858-0.879c1.047,0,1.929,0.285,2.674,0.834c0.736,0.55,1.122,1.356,1.152,2.401h-2.003c-0.04-0.596-0.297-1.03-0.791-1.285c-0.331-0.17-0.721-0.26-1.212-0.26c-0.541,0-0.962,0.1-1.292,0.31c-0.311,0.21-0.471,0.509-0.471,0.889c0,0.34,0.15,0.609,0.461,0.789c0.21,0.12,0.641,0.26,1.302,0.399l1.723,0.402c0.749,0.182,1.316,0.419,1.691,0.716c0.587,0.465,0.887,1.135,0.887,2.013c0,0.493-0.11,0.926-0.301,1.315h1.683c-0.227-0.434-0.33-0.913-0.33-1.478h1.983c0.06,0.462,0.18,0.788,0.36,1.012c0.18,0.196,0.404,0.346,0.691,0.449h2.214l0.03-0.016c0.581-0.193,0.871-0.581,0.871-1.147c0-0.328-0.15-0.581-0.431-0.764c-0.291-0.16-0.731-0.327-1.362-0.459l-1.052-0.24c-1.032-0.222-1.753-0.476-2.143-0.761c-0.671-0.459-1.002-1.179-1.002-2.147c0-0.896,0.321-1.625,0.972-2.222c0.65-0.595,1.603-0.895,2.859-0.895c0.898,0,1.69,0.206,2.361,0.615V1.119C23.929,0.499,23.432,0,22.807,0H1.119C0.501,0,0,0.499,0,1.117v15.291l0.01,0.012L0.06,16.529z"/><path d="M23.95,20.056l0.05-0.03c-0.021-0.007-0.045-0.015-0.067-0.022v0.035L23.95,20.056z"/></svg>