<svg xmlns="http://www.w3.org/2000/svg" enable-background="new 0 0 24 24" viewBox="0 0 24 24"><path fill="#23ADDE" d="M13.584,6.968c1.88,0,3.825,1.108,4.678,2.637c0.667-2.463,2.032-4.514,4.239-5.7C20.293,1.505,17.116,0,13.584,0C6.908,0,1.5,5.371,1.5,12s5.408,12,12.084,12c3.532,0,6.71-1.505,8.916-3.905c-2.207-1.185-3.571-3.237-4.239-5.7c-0.852,1.529-2.797,2.637-4.678,2.637c-2.758,0-5.067-2.294-5.067-5.032C8.516,9.261,10.826,6.968,13.584,6.968z"/><path d="M7.676 23.194L7.676 23.194c-.027-.01-.055-.018-.081-.028L7.676 23.194zM11.023 14.008c.01 0 .021 0 .031 0l0-.001L11.023 14.008z"/></svg>