<svg xmlns="http://www.w3.org/2000/svg" enable-background="new 0 0 24 24" viewBox="0 0 24 24"><path fill="#0E60E4" d="M23,0H1C0.448,0,0,0.448,0,1v22c0,0.552,0.448,1,1,1h22c0.552,0,1-0.448,1-1V1C24,0.448,23.552,0,23,0z M17.117,20.807v-1.41c-1.1,1.08-2.223,1.47-3.715,1.47c-1.522,0-2.832-0.495-3.93-1.485c-1.448-1.275-2.198-2.97-2.198-4.936c0-1.8,0.7-3.414,2.01-4.674c1.17-1.146,2.595-1.73,4.185-1.73c1.52,0,2.69,0.513,3.53,1.59V4.157l3.693-0.764v17.414H17.117z"/><path fill="#0E60E4" d="M14.067,11.313c-1.753,0.001-3.103,1.427-3.103,3.11c0,1.753,1.35,3.085,3.255,3.085l-0.016,0.002c1.59,0,2.925-1.31,2.925-3.04C17.128,12.67,15.792,11.314,14.067,11.313z"/><polygon points="14.066 11.313 14.067 11.313 14.068 11.313"/><polygon points="11.199 23.686 11.195 23.684 11.192 23.682"/></svg>