<svg xmlns="http://www.w3.org/2000/svg" enable-background="new 0 0 24 24" viewBox="0 0 24 24"><polygon fill="#2E7FCA" points="11.969 7.81 11.353 5.53 11.353 5.53 11.969 7.81"/><path fill="#2E7FCA" d="M5.754 10.365c-.164-.098-.284-.256-.333-.441L4.814 7.645 2.898 8.543C2.576 8.694 2.409 9.053 2.5 9.396l2.44 9.151c.118.441.605.669 1.019.476l6.073-2.833-.67-2.48L5.754 10.365zM11.353 5.53l-.151-.558c-.05-.183-.168-.34-.331-.438L3.386.049C3.127-.106 2.811.132 2.889.423l1.925 7.221 5.519-2.588C10.746 4.864 11.234 5.09 11.353 5.53z"/><path fill="#0A4DA5" d="M5.754,10.365l5.606,3.345l-1.187-4.392c-0.093-0.344,0.075-0.705,0.398-0.856l1.397-0.652L11.353,5.53c-0.119-0.44-0.606-0.666-1.019-0.473L4.814,7.645l0.608,2.279C5.471,10.108,5.59,10.267,5.754,10.365z"/><polygon fill="#2E7FCA" points="12.031 16.19 12.647 18.47 12.647 18.47 12.031 16.19"/><path fill="#FDD700" d="M21.5,14.604l-2.44-9.151c-0.118-0.441-0.605-0.669-1.019-0.476L11.969,7.81l0.67,2.48l5.606,3.345c0.164,0.098,0.284,0.256,0.333,0.441l0.608,2.279l1.917-0.899C21.424,15.306,21.591,14.947,21.5,14.604z"/><polygon fill="#2E7FCA" points="11.361 13.71 11.361 13.71 12.031 16.19 12.031 16.19"/><polygon fill="#2E7FCA" points="12.639 10.29 12.639 10.29 11.969 7.81 11.969 7.81"/><path fill="#45681B" d="M11.569,9.652l1.07,0.638l-0.67-2.48l-1.397,0.652c-0.323,0.151-0.491,0.512-0.398,0.856l1.187,4.392l0,0l-0.875-3.237C10.314,9.836,11.003,9.314,11.569,9.652z"/><path fill="#FDD700" d="M12.647,18.47l0.151,0.558c0.05,0.183,0.168,0.34,0.331,0.438l7.485,4.485c0.259,0.155,0.575-0.083,0.497-0.375l-1.925-7.221l-5.519,2.588C13.254,19.136,12.766,18.91,12.647,18.47z"/><path fill="#F9BC00" d="M18.246,13.635l-5.606-3.345l1.187,4.392c0.093,0.344-0.075,0.705-0.398,0.856l-1.397,0.652l0.616,2.281c0.119,0.44,0.606,0.666,1.019,0.473l5.519-2.588l-0.608-2.279C18.529,13.892,18.41,13.733,18.246,13.635z"/><path fill="#5A7F19" d="M13.514,13.527c0.172,0.636-0.518,1.159-1.084,0.821l-1.07-0.638l0.67,2.48l1.397-0.652c0.323-0.151,0.491-0.512,0.398-0.856l-1.187-4.392l0,0L13.514,13.527z"/><path fill="#2B5A20" d="M13.514,13.527l-0.875-3.237l-1.07-0.638c-0.566-0.338-1.256,0.185-1.084,0.821l0.875,3.237l1.07,0.638C12.997,14.686,13.686,14.164,13.514,13.527z"/></svg>