<svg xmlns="http://www.w3.org/2000/svg" enable-background="new 0 0 24 24" viewBox="0 0 24 24"><path d="M17.562,1.373c0.004,0.002,0.007,0.004,0.01,0.006c0.017,0.009,0.036,0.016,0.054,0.025L17.562,1.373z"/><polygon points="20.764 20.213 20.759 20.218 20.758 20.219"/><path d="M11.668 1.231c-.004 0-.009 0-.013 0 0 0-.001 0-.001 0L11.668 1.231 11.668 1.231zM1.992 5.424l.001-.001C2.002 5.409 2.01 5.395 2.019 5.381L1.992 5.424z"/><polygon points="7.253 9.882 7.255 9.884 7.258 9.886"/><path fill="#0083CA" d="M11.628,0.036h0.744c3.619,0.204,6.199,1.578,8.112,3.504c1.913,1.926,3.327,4.466,3.516,8.1v0.72c-0.184,3.692-1.623,6.129-3.516,8.112c-1.989,1.883-4.434,3.31-8.124,3.492h-0.732C8.01,23.76,5.429,22.386,3.516,20.46C1.603,18.534,0.189,15.994,0,12.36v-0.72c0.009-0.003,0.014-0.01,0.012-0.024c0.181-3.62,1.603-6.187,3.504-8.088C5.426,1.618,8.033,0.234,11.628,0.036L11.628,0.036z M9.276,1.752c-0.713,0.191-1.352,0.433-1.932,0.72c-1.764,0.872-3.219,2.12-4.236,3.72c-0.993,1.561-1.852,3.57-1.728,6.204c0.078,1.661,0.457,3.057,1.056,4.248c1.182,2.351,2.982,4.083,5.472,5.136c1.232,0.521,2.758,0.886,4.476,0.804c1.648-0.078,3.077-0.449,4.26-1.044c2.319-1.166,4.147-2.965,5.16-5.448c0.512-1.256,0.9-2.707,0.816-4.464c-0.159-3.329-1.513-5.587-3.3-7.308c-0.884-0.852-1.949-1.576-3.204-2.1c-1.218-0.508-2.803-0.885-4.5-0.804C10.782,1.456,9.994,1.56,9.276,1.752L9.276,1.752z"/><path fill="#0083CA" d="M10.896,8.892c0.38,0.252,0.769,0.495,1.128,0.768c-0.811,0.509-1.606,1.034-2.412,1.548c0.122,0.094,0.262,0.17,0.384,0.264c0.813-0.515,1.626-1.03,2.436-1.548c0.363,0.225,0.721,0.455,1.056,0.708c-0.812,0.513-1.596,1.052-2.4,1.572c0.119,0.097,0.265,0.167,0.396,0.252c0.831-0.509,1.642-1.038,2.46-1.56V9.192h1.8v3.396c0.508,0.028,1.068,0.004,1.596,0.012v1.596h-3.396v-1.62c-0.998,0.606-2.02,1.292-3.024,1.932c-1.045-0.679-2.053-1.395-3.096-2.076c-0.302,0.958-1.02,1.679-2.208,1.764c-0.741,0.053-1.583-0.04-2.436,0V9.192c1.067,0.071,2.238-0.143,3.084,0.12c0.748,0.232,1.278,0.829,1.524,1.572C8.832,10.228,9.86,9.556,10.896,8.892L10.896,8.892z M4.896,10.8v1.8c0.429,0.002,0.755,0.027,1.008-0.168c0.377-0.29,0.452-1.009,0.12-1.392c-0.222-0.256-0.596-0.309-1.116-0.276C4.894,10.766,4.895,10.783,4.896,10.8z M17.808,9.192h1.8V12.6h1.584v1.596h-3.396V9.228C17.795,9.211,17.794,9.194,17.808,9.192L17.808,9.192z"/></svg>