<svg xmlns="http://www.w3.org/2000/svg" enable-background="new 0 0 24 24" viewBox="0 0 24 24"><polygon points="6.519 10.097 6.52 10.097 6.521 10.096"/><path d="M6.48,10.792c0.21,0.106,0.422,0.056,0.531-0.127c0.039-0.06,0.063-0.133,0.063-0.212c0-0.216-0.175-0.392-0.392-0.392c-0.058,0-0.112,0.013-0.162,0.035C6.214,10.23,6.19,10.644,6.48,10.792z"/><path d="M2.818,19.778c0.444,0.502,0.903,0.961,1.388,1.39l0.017,0.015c1.833,1.535,3.89,2.432,6.325,2.762c0.54,0.074,2.364,0.074,2.904,0c2.435-0.331,4.492-1.228,6.325-2.762c0.502-0.444,0.961-0.903,1.39-1.388l0.015-0.017c1.535-1.833,2.432-3.89,2.762-6.325c0.074-0.54,0.074-2.364,0-2.904c-0.331-2.435-1.228-4.492-2.762-6.325c-0.444-0.502-0.903-0.961-1.388-1.39L19.777,2.82c-1.827-1.529-3.905-2.438-6.307-2.76c-0.26-0.035-0.637-0.05-1.337-0.056C11.994,0.001,11.83,0,11.666,0c-0.205,0-0.408,0.003-0.611,0.008l0,0c-0.056,0.006-0.236,0.027-0.398,0.041C8.349,0.291,6.076,1.268,4.223,2.82c-0.502,0.444-0.961,0.903-1.39,1.388L2.818,4.225c-1.535,1.833-2.432,3.89-2.762,6.325c-0.074,0.54-0.074,2.364,0,2.904C0.387,15.888,1.284,17.945,2.818,19.778z M21.903,14.953c0.006-0.965,0.021-1.942,0.027-2.169c0.006-0.227,0.012-0.868,0.015-1.426c0-0.673,0.009-1.009,0.03-1.009c0.018,0,0.08,0.021,0.139,0.044h-0.001l0.106,0.044l-0.021,2.444c-0.024,3.114-0.027,3.205-0.139,3.474C21.876,16.795,21.885,16.883,21.903,14.953z M20.677,8.725c0.015,0,0.083,0.021,0.148,0.047l-0.001,0.001c0.106,0.044,0.118,0.056,0.118,0.156c0.006,0.806-0.012,2.647-0.027,2.724c-0.003,0.027-0.156,0.03-0.221,0.006c-0.041-0.015-0.047-0.174-0.047-1.476C20.647,9.25,20.659,8.725,20.677,8.725z M20.622,17.474l0.006-1.266l0.109-0.112c0.037-0.042,0.08-0.078,0.128-0.108l0.002-0.001c0.009,0,0.009,0.555,0,1.231l0.001-0.001l-0.021,1.234l-0.074,0.109C20.605,18.808,20.614,18.855,20.622,17.474z M6.359,21.342c-0.077-0.044-0.145-0.112-0.13-0.13c-0.001-0.117-0.012-0.23-0.032-0.34l0.002,0.012c-0.021-0.171-0.047-0.449-0.059-0.62c-0.012-0.171-0.038-0.484-0.062-0.694c-0.056-0.516-0.053-0.576,0.012-0.576c0.03,0,0.068,0.015,0.089,0.035v0.003C6.2,19.053,6.214,19.126,6.214,19.2c0,0.077,0.035,0.475,0.074,0.888C6.4,21.218,6.409,21.372,6.359,21.342z M7.056,16.369c-0.124,0-0.121,0.009-0.162-0.511c-0.041-0.528-0.041-0.522,0.038-0.522c0.038,0,0.089,0.018,0.115,0.035v0.001c0.032,0.03,0.053,0.148,0.08,0.466C7.171,16.414,7.177,16.369,7.056,16.369z M7.504,21.939C7.469,21.912,7.445,21.8,7.41,21.464c-0.062-0.608-0.065-0.584,0.05-0.573c0.086,0.009,0.097,0.021,0.115,0.127c0.009,0.065,0.027,0.307,0.038,0.537C7.634,21.998,7.625,22.03,7.504,21.939z M8.576,19.779c-0.035,0.012-0.077,0.009-0.089-0.006c-0.021-0.021-0.086-0.676-0.165-1.685l-0.021-0.242h0.091c0.086,0,0.091,0.006,0.106,0.153h0.001c0.021,0.183,0.094,1.06,0.124,1.473C8.641,19.749,8.641,19.758,8.576,19.779z M9.51,18.082c-0.056,0-0.062-0.044-0.127-0.885c-0.044-0.653-0.079-1.074-0.117-1.494l0.02,0.275c-0.027-0.322-0.044-0.59-0.035-0.596c0.032-0.035,0.118-0.009,0.133,0.035v-0.001c0.006,0.03,0.021,0.207,0.032,0.393c0.009,0.186,0.035,0.605,0.059,0.93C9.558,17.931,9.561,18.082,9.51,18.082z M18.103,21.074c-0.03,0.032-0.056,0.053-0.065,0.044c-0.021-0.024-0.05-3.763-0.027-3.784c0.012-0.012,0.041-0.018,0.068-0.015c0.038,0.009,0.047,0.218,0.059,1.853v0.001C18.153,20.888,18.15,21.021,18.103,21.074z M19.34,3.821c0.05,0.035,0.106,0.086,0.13,0.112h-0.001c0.035,0.041,0.041,0.688,0.05,4.253c0.009,4.094,0.009,4.2-0.044,4.2c-0.039-0.003-0.074-0.017-0.104-0.038h0.001c-0.044-0.032-0.05-0.39-0.065-3.887c-0.006-1.598-0.019-3.098-0.038-4.598l0.003,0.321l-0.018-0.425L19.34,3.821z M18.226,11.264h-0.083c-0.18,0-0.177,0.044-0.189-1.632l-0.009-1.526h0.094c0.05,0,0.115,0.021,0.139,0.047h0.001c0.041,0.041,0.047,0.224,0.047,1.579V11.264z M17.928,3.33c0.012-0.044,0.012-0.044,0.133,0.006v0.001l0.1,0.041l0.021,0.395c0.009,0.215,0.015,0.682,0.009,1.033l-0.009,0.643l-0.124-0.062l-0.124-0.059l-0.009-0.98C17.919,3.808,17.922,3.35,17.928,3.33z M16.633,4.478l0.083,0.018c0.044,0.012,0.092,0.03,0.106,0.044V4.539c0.015,0.012,0.03,0.18,0.032,0.372c0.015,0.652,0.018,4.651,0.003,4.663c-0.006,0.006-0.059-0.009-0.118-0.032l-0.106-0.044V4.478z M15.464,7.319c0.006,0.266-0.027,0.31-0.186,0.254l-0.091-0.032V7.287c0-0.142-0.009-0.552-0.021-0.915l-0.018-0.655h0.068c0.056,0.007,0.107,0.025,0.153,0.051l-0.002-0.001l-0.001-0.001l0.086,0.05l0.003,0.638C15.458,6.802,15.464,7.192,15.464,7.319z M15.325,2.795L15.325,2.795c0.083,0.029,0.091,0.043,0.109,0.212c0.03,0.295,0.021,1.706-0.012,1.706c-0.086,0-0.263-0.1-0.277-0.156c-0.012-0.222-0.019-0.482-0.019-0.743c0-0.066,0-0.131,0.001-0.196C15.127,2.669,15.116,2.724,15.325,2.795z M13.699,1.19c0.012-0.032,0.044-0.035,0.168-0.015c0.086,0.018,0.156,0.032,0.159,0.035l0.001,0.002c0.003,0.003,0.012,0.894,0.021,1.98c0.012,1.089,0.027,2.066,0.035,2.172c0.009,0.109,0.006,0.204-0.009,0.21c-0.024,0.005-0.051,0.007-0.08,0.007c-0.029,0-0.056-0.003-0.082-0.008h0.003l-0.136-0.012l-0.021-0.859L13.726,3.53C13.702,3.008,13.682,1.234,13.699,1.19z M12.353,3.671l0.151,0.018c0.06,0.006,0.115,0.018,0.168,0.036c0.018,0.023,0.059,1.449,0.062,2.174l0.003,0.437l-0.139-0.021c-0.056-0.005-0.107-0.012-0.156-0.022l0.008,0.001c-0.009-0.006-0.097-2.193-0.097-2.405V3.671z M11.719,8.681c0.001,0,0.001,0,0.002,0l-0.004,0H11.719z M10.958,1.072c0.044-0.006,0.118-0.015,0.165-0.018l0.08-0.003v0.23l-0.001,0.002c0,0.345,0.024,1.095,0.056,1.806c0.018,0.348,0.038,0.847,0.047,1.107c0.032,0.921,0.13,3.338,0.145,3.553l0.015,0.215l-0.133-0.015c-0.055-0.003-0.106-0.014-0.153-0.032c-0.023-0.135-0.038-0.292-0.041-0.452V7.462c-0.034-0.377-0.122-2.369-0.202-4.364l-0.043-1.359l-0.018-0.655L10.958,1.072z M9.597,2.83c0.054-0.019,0.117-0.031,0.182-0.032H9.78c0.094-0.003,0.094-0.003,0.094,0.136V2.933c0,0.08,0.021,0.519,0.044,0.983L9.98,5.221c0.021,0.514,0.027,0.496-0.171,0.508C9.712,5.732,9.712,5.732,9.706,5.584C9.7,5.501,9.685,5.245,9.668,5.008c-0.015-0.236-0.05-0.747-0.074-1.136C9.57,3.483,9.541,3.096,9.532,3.013C9.514,2.865,9.517,2.86,9.597,2.83z M8.386,4.648c0.069-0.04,0.15-0.068,0.236-0.08h0.003c0.018-0.003,0.041,0.059,0.05,0.136h0.001c0.009,0.08,0.024,0.26,0.032,0.407l0.047,0.732c0.035,0.519,0.03,0.552-0.139,0.552c-0.089,0-0.1-0.009-0.112-0.097C8.474,6.124,8.371,4.672,8.386,4.648z M7.032,2.222C7.126,2.172,7.18,2.163,7.2,2.201c0.018,0.027,0.156,1.653,0.328,3.781C7.584,6.705,7.64,7.366,7.649,7.449C7.664,7.6,7.661,7.605,7.566,7.664C7.532,7.687,7.493,7.707,7.452,7.722L7.448,7.722c-0.009,0-0.027-0.077-0.035-0.171C7.372,7.168,7.212,5.315,7.1,3.975c-0.065-0.788-0.124-1.493-0.133-1.57C6.952,2.275,6.955,2.263,7.032,2.222z M9.74,8.708c0.324-0.056,0.697-0.088,1.078-0.088c0.309,0,0.613,0.022,0.912,0.063c0.662,0.1,1.241,0.285,1.814,0.579c0.372,0.192,0.549,0.325,0.962,0.72c0.614,0.587,0.992,1.101,1.346,1.827c0.516,1.057,0.717,1.992,0.971,4.501c0.115,1.124,0.266,3.164,0.298,3.999c0.009,0.242,0.03,0.64,0.047,0.885c0.032,0.519,0.071,0.449-0.387,0.67c-0.635,0.307-1.245,0.519-2.051,0.717c-0.986,0.242-1.623,0.319-2.597,0.322l-0.708,0.003l0.006-0.339c0-0.186,0.018-0.62,0.035-0.959c0.089-1.644,0.071-3.719-0.044-4.87c-0.065-0.661-0.192-1.464-0.263-1.641c-0.015-0.038,0.053-0.071,0.345-0.171c0.534-0.186,0.998-0.419,1.068-0.534c0.127-0.218-0.1-0.531-0.39-0.531c-0.05,0-0.201,0.053-0.339,0.115c-0.661,0.304-1.986,0.661-2.751,0.741c-0.191,0.017-0.413,0.026-0.637,0.026c-0.44,0-0.871-0.038-1.291-0.108c-0.311-0.058-0.86-0.266-1.319-0.503c-0.534-0.277-0.862-0.646-0.959-1.083c-0.053-0.236-0.038-0.708,0.03-0.974c0.074-0.292,0.28-0.717,0.469-0.965C6.225,10.003,7.961,9.044,9.74,8.708z M4.841,5.869c0.103-0.097,0.115-0.1,0.136-0.047c0.012,0.03,0.062,0.519,0.112,1.089H5.09l0.195,2.125l0.1,1.092L5.27,10.242l-0.112,0.115l-0.021-0.233c-0.012-0.13-0.071-0.732-0.133-1.34c-0.062-0.608-0.151-1.49-0.195-1.96l-0.083-0.85L4.841,5.869z M4.543,14.081c0.048,0.05,0.089,0.109,0.119,0.173l0.002,0.004l0.001,0.001c0.018,0.074,0.103,0.874,0.103,0.971c0,0.083-0.106,0.159-0.153,0.112c-0.015-0.015-0.053-0.266-0.083-0.555l-0.074-0.676L4.44,13.963L4.543,14.081z M4.217,10.922c0.05-0.035,0.103-0.059,0.112-0.053c0.009,0.006,0.027,0.124,0.035,0.26v-0.001c0.018,0.239,0.012,0.263-0.074,0.452l-0.094,0.201l-0.035-0.295C4.105,11.014,4.105,10.993,4.217,10.922z M4.196,19.079l0.015,0.127l-0.074-0.047C4.09,19.132,4.06,19.083,4.06,19.026c0-0.004,0-0.007,0-0.011c0-0.186-0.127-1.411-0.224-2.16c-0.056-0.425-0.1-0.8-0.1-0.835c0-0.062,0.071-0.086,0.1-0.035v-0.002c0.018,0.027,0.13,0.971,0.269,2.261C4.146,18.634,4.188,19.008,4.196,19.079z M3.727,4.872c0.009,0.006,0.038,0.269,0.068,0.584H3.794l0.145,1.455c0.05,0.487,0.092,0.9,0.092,0.918c0,0.035-0.227,0.148-0.251,0.124C3.709,7.502,3.599,6.56,3.503,5.614L3.47,5.208C3.47,5.137,3.697,4.839,3.727,4.872z M2.751,6.194c0.006,0.009,0.065,0.49,0.13,1.074L2.879,7.269c0.065,0.581,0.236,2.128,0.384,3.435c0.148,1.307,0.286,2.568,0.313,2.804C3.6,13.743,3.641,14.1,3.665,14.304c0.041,0.345,0.041,0.369-0.006,0.404c-0.071,0.053-0.1,0.047-0.1-0.015c0-0.027-0.027-0.251-0.059-0.493c-0.053-0.404-0.142-1.089-0.339-2.627c-0.041-0.31-0.121-0.927-0.177-1.372c0.135,1.43,0.004,0.447-0.123-0.536L2.615,7.33C2.562,6.929,2.529,6.571,2.538,6.533C2.559,6.453,2.733,6.176,2.751,6.194z M2.412,12.766c0.08-0.053,0.106-0.024,0.127,0.142H2.54c0.027,0.242,0.233,1.848,0.339,2.636c0.159,1.219,0.171,1.393,0.1,1.319c-0.046-0.213-0.098-0.523-0.14-0.837l-0.008-0.075C2.371,12.769,2.374,12.79,2.412,12.766z M1.789,8.097C1.807,8.024,1.836,7.96,1.872,7.9c0.012,0.003,0.056,0.29,0.103,0.639L1.976,8.54l0.183,1.44c0.056,0.437,0.127,0.983,0.159,1.21l0.056,0.413l-0.062,0.053c-0.035,0.03-0.071,0.041-0.083,0.03c-0.012-0.011-0.035-0.13-0.053-0.26c-0.018-0.13-0.127-0.888-0.245-1.682l-0.21-1.446L1.789,8.097z"/><path d="M8.522,11.145c0.28,0.168,0.643-0.053,0.643-0.39c0-0.325-0.372-0.543-0.643-0.378v0.001c-0.128,0.081-0.212,0.223-0.212,0.384c0,0.161,0.084,0.302,0.21,0.382L8.522,11.145z"/></svg>