<svg xmlns="http://www.w3.org/2000/svg" enable-background="new 0 0 24 24" viewBox="0 0 24 24"><path fill="#105E8C" d="M15.714,11.839c-0.055-0.054-0.13-0.088-0.214-0.088s-0.159,0.033-0.214,0.088l-1.037,1.036l-0.41-0.411c-0.055-0.054-0.13-0.088-0.214-0.088s-0.159,0.033-0.214,0.088l-0.322,0.322c-0.054,0.055-0.088,0.13-0.088,0.214c0,0.084,0.033,0.159,0.088,0.214l0.947,0.947c0.055,0.054,0.13,0.088,0.214,0.088s0.159-0.033,0.214-0.088l1.572-1.572c0.054-0.055,0.088-0.13,0.088-0.214c0-0.084-0.033-0.159-0.088-0.214L15.714,11.839z"/><path fill="#105E8C" d="M13.051,23.686l9.333-6.118c0.54-0.354,0.866-0.957,0.866-1.604V8.036c0-0.647-0.325-1.25-0.866-1.604l-9.329-6.115C12.753,0.117,12.39,0,12,0c-0.391,0-0.755,0.117-1.051,0.314L1.616,6.432C1.076,6.786,0.75,7.389,0.75,8.036v7.928v0.001c0,0.668,0.341,1.256,0.866,1.603l9.329,6.116C11.248,23.883,11.61,24,12,24C12.391,24,12.755,23.883,13.051,23.686z M6,16.5V15H5.5c-0.138,0-0.25-0.112-0.25-0.25v-2.5C5.25,12.112,5.362,12,5.5,12H6V9c0-0.414,0.336-0.75,0.75-0.75h6V7.5H11.5c-0.138,0-0.25-0.112-0.25-0.25V5.5c0-0.138,0.112-0.25,0.25-0.25h1.75c0.138,0,0.25,0.112,0.25,0.25v2.75h3.75C17.664,8.25,18,8.586,18,9v3h0.5c0.138,0,0.25,0.112,0.25,0.25v2.5c0,0.138-0.112,0.25-0.25,0.25H18v1.5c0,0.414-0.336,0.75-0.75,0.75H6.75C6.336,17.25,6,16.915,6,16.5z"/><path fill="#105E8C" d="M10.713,11.838c-0.055-0.054-0.131-0.088-0.214-0.088s-0.158,0.034-0.213,0.088L9.25,12.875l-0.412-0.411c-0.055-0.054-0.131-0.088-0.214-0.088s-0.158,0.034-0.213,0.088l-0.323,0.322C8.033,12.841,7.999,12.916,7.999,13s0.034,0.159,0.089,0.214l0.948,0.947c0.055,0.054,0.13,0.088,0.214,0.088s0.159-0.033,0.214-0.088V14.16l1.572-1.572c0.054-0.055,0.088-0.13,0.088-0.214c0-0.084-0.033-0.159-0.088-0.214L10.713,11.838z"/></svg>