<svg xmlns="http://www.w3.org/2000/svg" enable-background="new 0 0 24 24" viewBox="0 0 24 24"><path fill="#F69B5C" d="M22.247,10.322c0.11-6.374-3.849-10.466-10.229-10.318C11.919,0.002,11.819,0,11.721,0C5.514-0.015,1.644,4.046,1.753,10.322c-0.074,3.907,1.43,7.002,4.106,8.734c0.66,0.405,1.357,0.737,2.126,0.995l2.163,3.353c0.331,0.848,0.696,0.774,0.844-0.11l0.587-2.69h0.44c2.457,0.073,4.547-0.517,6.197-1.585C20.818,17.286,22.32,14.228,22.247,10.322z"/><path fill="#D15260" d="M10.294 14.53c-.22.258-.514.368-.844.368-.331-.005-.63-.145-.844-.368-.258-.222-.368-.516-.368-.848 0-.332.148-.627.368-.848.239-.24.549-.36.862-.36.311 0 .623.12.862.36h.001c.22.258.366.553.329.848C10.655 14.015 10.516 14.315 10.294 14.53zM10.294 9.555C10.073 9.813 9.78 9.924 9.45 9.924c-.33 0-.587-.148-.844-.37-.258-.22-.368-.515-.368-.847 0-.332.148-.627.368-.848.239-.24.549-.36.862-.36V7.5c.311 0 .623.12.862.359h.001c.22.221.366.516.329.848C10.66 9.039 10.514 9.296 10.294 9.555zM17.186 6.055l-3.703 9.25c-.257.441-.624.552-.881.552-.543-.007-.982-.449-.989-.994v-.001c0-.148.037-.258.073-.406l3.666-9.212c.073-.147.147-.258.22-.332.176-.171.417-.276.683-.276.005 0 .009 0 .014 0 .257 0 .514.092.697.276h.001c.184.185.294.442.294.737C17.26 5.797 17.26 5.944 17.186 6.055z"/></svg>