<svg xmlns="http://www.w3.org/2000/svg" enable-background="new 0 0 24 24" viewBox="0 0 24 24"><path d="M7.151,13.531c0,0.088-4.514,6.5-4.498,6.54c0.015,0.036,4.478,3.142,4.514,3.142s4.535-6.155,4.608-6.155l0.001-0.001c0.099,0,4.67,6.433,4.722,6.443c0.041,0,4.473-3.224,4.483-3.26c0.016-0.042-4.301-6.237-4.286-6.309c0.021-0.087,7.258-2.459,7.305-2.505c0.02-0.02-1.595-5.22-1.637-5.266c-0.031-0.036-7.164,2.376-7.237,2.376c-0.135,0-0.239-7.961-0.317-8.013C14.777,0.502,9.39,0.477,9.348,0.539C9.312,0.589,9.281,8.115,9.26,8.218C9.254,8.254,9.229,8.284,9.208,8.284c-0.057,0-7.528-2.449-7.559-2.413c-0.016,0.015-1.715,5.216-1.647,5.241C0.418,11.272,7.151,13.418,7.151,13.531z"/></svg>