<svg xmlns="http://www.w3.org/2000/svg" enable-background="new 0 0 24 24" viewBox="0 0 24 24"><path fill="#1D1D1B" d="M12.101,0C5.59,0,0.108,5.279,0.108,11.791C0.108,12.001,0.112,24,0.112,24l11.989-0.013c6.512,0,11.791-5.482,11.791-11.994C23.892,5.482,18.613,0,12.101,0z"/><path fill="#F2E88F" d="M12.216,4.563c-4.036,0-7.308,3.272-7.308,7.308c0,1.261,0.319,2.448,0.882,3.483l-1.322,4.255l4.749-1.074c0.915,0.412,1.929,0.643,2.998,0.643c4.036,0,7.308-3.272,7.308-7.308C19.523,7.835,16.251,4.563,12.216,4.563z"/><path fill="#00AEEF" d="M18.015,7.427c0.945,1.232,1.508,2.772,1.508,4.444c0,4.036-3.272,7.308-7.308,7.308c-1.069,0-2.083-0.231-2.998-0.643l-4.749,1.074l4.835-0.572c0.867,0.505,1.851,0.842,2.914,0.953c4.014,0.422,7.61-2.49,8.032-6.504C20.496,11.14,19.602,8.937,18.015,7.427z"/><path fill="#00953A" d="M16.668,6.078c1.068,1.126,1.789,2.599,1.964,4.262c0.422,4.014-2.49,7.61-6.504,8.032c-1.063,0.112-2.096-0.013-3.049-0.327l-4.611,1.565l4.749-1.074c0.915,0.412,1.929,0.643,2.998,0.643c4.036,0,7.308-3.272,7.308-7.308C19.523,9.511,18.404,7.414,16.668,6.078z"/><path fill="#E63C2F" d="M6.227,15.516c-0.451-1.089-0.645-2.302-0.513-3.556c0.422-4.014,4.017-6.926,8.032-6.504c1.667,0.175,3.142,0.899,4.269,1.972c-1.336-1.741-3.436-2.864-5.8-2.864c-4.036,0-7.308,3.272-7.308,7.308c0,1.261,0.319,2.448,0.882,3.483l-1.322,4.255L6.227,15.516z"/><path fill="#D13239" d="M5.79,15.354c-0.562-1.036-0.882-2.222-0.882-3.483c0-4.036,3.272-7.308,7.308-7.308c1.676,0,3.219,0.566,4.452,1.514c-1.511-1.591-3.717-2.489-6.068-2.242c-4.014,0.422-6.926,4.018-6.504,8.032c0.132,1.254,0.573,2.401,1.241,3.372l-0.869,4.37L5.79,15.354z"/></svg>