<svg xmlns="http://www.w3.org/2000/svg" enable-background="new 0 0 24 24" viewBox="0 0 24 24"><path fill="#752146" d="M18.394,6.32c-0.103-0.021-0.185,0.011-0.246,0.095c-0.061,0.105-0.061,0.189,0,0.252l0.369,0.094l0.154,0.221c0.041,0.021,0.092,0.021,0.154,0c0.061-0.084,0.061-0.168,0-0.252L18.824,6.73C18.722,6.562,18.578,6.425,18.394,6.32z"/><polygon fill="#752146" points="18.917 7.045 19.07 7.108 19.01 7.013 19.009 7.013"/><path fill="#752146" d="M16.979,6.289c-0.123,0.125-0.143,0.241-0.061,0.346l0.553,0.126l0.123-0.126c0.021,0.021,0.041,0.032,0.062,0.032c0.021,0.105,0.051,0.21,0.092,0.315l0.092-0.126c0.082-0.042,0.164-0.137,0.246-0.284L17.933,6.32l-0.524-0.126C17.245,6.131,17.102,6.163,16.979,6.289z"/><polygon fill="#752146" points="9.689 19.341 9.688 19.341 9.658 19.499"/><path fill="#752146" d="M23.192,11.396l0.154-0.221c0-0.042-0.01-0.095-0.031-0.157c-0.041,0-0.082,0.011-0.123,0.032V11.396z"/><polygon fill="#752146" points="16.641 6.888 16.793 6.982 16.763 6.824"/><polygon fill="#752146" points="9.719 18.49 9.566 18.647 9.873 18.395"/><path fill="#752146" d="M0.554,8.306c0.041,0.042,0.061,0.168,0.061,0.379L0.892,8.78L1.23,8.653l0.216,0.252c0.102,0.084,0.245,0.106,0.43,0.063l0.43-0.158l0.77-0.094l0.646-0.252C3.988,8.38,4.234,8.338,4.46,8.338l0.953-0.189L5.69,8.274l0.092,0.379C5.905,8.927,6.06,9.179,6.244,9.41L6.49,9.567l0.307,0.599l0.308,0.536l1.692,2.459l0.461,0.504l0.215,0.536l0.277,0.441l0.246,0.442l0.369,0.473l0.308,0.441c0.103,0.168,0.215,0.305,0.338,0.409c0,0.042-0.041,0.106-0.123,0.19l-0.338-0.095c-0.062,0.126-0.093,0.273-0.093,0.441v0.536l-0.43,0.474V18.3l-0.369,0.504l-0.277,0.346l0.185,0.158l0.492,0.032l0.215,0.221l0.277,0.189l0.184-0.252l0.369-0.063l0.185,0.127h0.554c0.164,0,0.307,0.032,0.43,0.095l0.339,0.031l0.461-0.188l0.308-0.158c0.225,0,0.389-0.031,0.492-0.094l0.215-0.158l0.154-0.284l0.492-0.157c0.082-0.042,0.154-0.116,0.215-0.221c0.082-0.105,0.174-0.158,0.277-0.158c0.103-0.042,0.359-0.063,0.769-0.063c0.41,0,0.697-0.031,0.861-0.094c0.164-0.063,0.267-0.158,0.308-0.284l0.123-0.222h0.585l0.03-0.346l0.308-0.189l0.03-0.158l0.123-0.094c0.123,0.021,0.154,0.116,0.093,0.284l-0.062,0.284l0.246-0.222c0.082-0.084,0.215-0.126,0.4-0.126l0.123-0.252c0.041-0.021,0.102-0.021,0.185,0l0.153,0.062l0.185-0.346c0.103-0.042,0.256-0.063,0.461-0.063c0.041-0.042,0.093-0.136,0.154-0.284l-0.031-0.378c0.062-0.126,0.144-0.2,0.246-0.222c0.123-0.02,0.246-0.083,0.369-0.188c0-0.042-0.01-0.106-0.03-0.19l-0.123-0.221l0.061-0.063c0.041-0.021,0.093-0.032,0.154-0.032l-0.123-0.409c0.082-0.063,0.164-0.032,0.246,0.095l0.092,0.032l-0.03-0.474c0.061-0.042,0.205-0.063,0.43-0.063l0.093-0.346c0.123-0.147,0.266-0.252,0.43-0.316l-0.031-0.252l0.277-0.189c0.062-0.042,0.103-0.084,0.123-0.126c0.021-0.063,0.041-0.116,0.062-0.158c-0.021-0.021-0.062-0.053-0.123-0.095c-0.042-0.042-0.103-0.073-0.185-0.094l-0.031-0.222L21.531,11.9l-0.184-0.252c0.041-0.042,0.133-0.063,0.277-0.063l0.153-0.378l0.154-0.063c0.041,0,0.082,0.042,0.123,0.127L21.9,11.459l0.093,0.126c0,0.063,0.041,0.137,0.122,0.221l0.37-0.094l0.123,0.19c0.082-0.022,0.133-0.127,0.154-0.316l0.153-0.346l-0.092-0.095l-0.03-0.126l0.43-0.032c-0.021-0.021-0.041-0.063-0.062-0.127c0-0.063-0.01-0.115-0.031-0.158l0.4-0.188c0.021,0.063,0.032,0.126,0.032,0.189c0.02,0.063,0.03,0.136,0.03,0.221l0.031,0.378l0.154-0.189l0.184-0.536c0.061-0.252,0.051-0.409-0.031-0.472l-0.122,0.063c-0.041,0.02-0.103,0.083-0.185,0.189L23.5,10.418l0.031-0.222l-0.093-0.188l-0.061-0.316c0.041-0.063,0.061-0.147,0.061-0.252l-0.276-0.095l-0.339-0.189L22.701,8.59c-0.083-0.042-0.206-0.063-0.37-0.063l-0.184-0.315l-0.185-0.315h-0.215L21.532,7.99c-0.062-0.105-0.062-0.199,0-0.283l-0.185-0.095l-0.215-0.284L20.917,7.36l-0.77-0.662L19.932,6.73l-0.215,0.031l-0.154-0.22c-0.021-0.043-0.082-0.096-0.185-0.158l-0.092,0.189l-0.092,0.221v0.158l0.307,0.062c0.041,0,0.082,0.053,0.123,0.158c-0.02,0.042-0.071,0.105-0.154,0.189l-0.43-0.127l0.062,0.158v0.157c-0.021,0.042-0.072,0.095-0.154,0.158L18.794,7.77l-0.092,0.158L18.21,7.77l-0.154,0.158l-0.123-0.094L17.84,7.518c-0.061-0.231-0.143-0.346-0.246-0.346h-0.522l-0.124-0.157l-0.03,0.252l-0.123,0.126c-0.144-0.168-0.216-0.326-0.216-0.474L16.364,6.73c-0.02-0.106-0.01-0.179,0.03-0.221c0.062-0.063,0.185-0.074,0.37-0.032l-0.062-0.126l-0.184-0.158l-0.308,0.032l-0.43-0.127c-0.164-0.021-0.246,0.021-0.246,0.126l0.123,0.158c0.041,0.042,0.061,0.095,0.061,0.157c-0.041,0.042-0.194,0.063-0.461,0.063l-0.092,0.253l-0.093-0.158l-0.092,0.094h-0.123l-0.062-0.315c-0.02,0.02-0.041,0.052-0.062,0.094c-0.02,0.021-0.03,0.063-0.03,0.127h-0.4l-0.184-0.252c-0.041-0.084-0.123-0.158-0.246-0.221c-0.103-0.084-0.205-0.105-0.308-0.063L13.38,6.226l-0.123-0.158l-0.308-0.063c0.021-0.21,0.103-0.315,0.246-0.315l0.369,0.126l-0.307-0.473L12.98,5.658l-0.123,0.063l-0.184-0.504l0.03-0.158l-0.215-0.252h-0.646l-0.308-0.221c-0.143-0.168-0.277-0.252-0.4-0.252l-0.523,0.221L9.873,4.492l-0.83-0.158L8.489,4.302l-0.4-0.032C7.946,4.229,7.71,4.25,7.382,4.334L6.89,4.366C6.726,4.323,6.562,4.334,6.397,4.397l-0.43,0.094l-1.23,0.063l-0.8,0.158L3.599,4.933L2.615,5.027c-0.411,0.084-0.677,0.221-0.8,0.41l0.277,0.094l0.184,0.222l0.092,0.221L2.092,5.942L1.815,6.288C1.794,6.33,1.733,6.373,1.63,6.415L1.477,6.257L1.323,6.163l0.03,0.284L1.169,6.983L0.923,6.951L0.8,7.202C0.779,7.245,0.718,7.298,0.615,7.36L0.308,7.234v0.158c0,0.084,0.01,0.158,0.03,0.221H0.03L0,7.77c0.061,0.021,0.154,0.074,0.277,0.158L0.554,8.306z M21.871,13.036l-0.001-0.002C21.87,13.035,21.87,13.035,21.871,13.036L21.871,13.036z M22.699,9.505c0.103,0.084,0.174,0.178,0.215,0.283c0.062,0.106,0.093,0.242,0.093,0.41l-0.123-0.032c0.02-0.042,0.02-0.095,0-0.157l-0.215-0.095L22.699,9.505z M21.561,10.292L21.5,10.544l0.184,0.284l0.153,0.032h0.001l-0.246,0.221c-0.021,0-0.062-0.011-0.123-0.032c-0.041-0.02-0.082-0.052-0.123-0.094L21.1,10.923l0.368-0.157l-0.03-0.096l-0.154-0.188L21.561,10.292z M20.669,10.103l0.123-0.127l0.092,0.158l0.216,0.063l0.123,0.094L21.1,10.512c-0.062-0.063-0.154-0.094-0.277-0.094l-0.246-0.095L20.669,10.103z M15.533,6.699l0.184,0.094l0.123,0.063l-0.184,0.221L15.44,6.951l-0.03-0.19C15.41,6.72,15.451,6.699,15.533,6.699z M12.303,9c0.103-0.042,0.246-0.063,0.43-0.063L13.103,9l1.138,0.252l0.707,0.221l0.677,0.252l0.462,0.284l1.23,0.535c0.471,0.189,0.839,0.41,1.106,0.663c0.329,0.231,0.595,0.535,0.8,0.914c0.247,0.378,0.37,0.736,0.37,1.072l-0.062,0.379v-0.001c-0.041,0.063-0.062,0.168-0.062,0.315l-0.123,0.316c-0.164,0.168-0.441,0.336-0.83,0.504l-0.953,0.378L16.887,15.4c-0.246,0.125-0.42,0.188-0.523,0.188l-0.369,0.158L15.78,15.81c-0.062-0.063-0.062-0.127,0-0.19l0.123-0.189l-0.123-0.189l0.061-0.41l-0.215-0.63l-0.462-0.82l-0.522-0.757l-0.339-0.409c-0.164-0.253-0.297-0.41-0.4-0.473c-0.041,0-0.102-0.032-0.185-0.095l-0.03-0.252l-0.307-0.378v-0.19l-0.277-0.189c-0.164-0.126-0.338-0.357-0.523-0.693l-0.369-0.725C12.191,9.094,12.221,9.021,12.303,9z"/><polygon fill="#752146" points="23.93 10.103 23.93 10.103 23.931 10.103"/><polygon fill="#752146" points="13.964 5.374 14.149 5.595 14.333 5.374 14.302 5.248 13.81 5.343"/><path fill="#752146" d="M15.995,5.817c0.103-0.021,0.164-0.053,0.185-0.095c0.061-0.126,0.061-0.22,0-0.283c-0.103,0.02-0.165,0.052-0.185,0.094C15.934,5.659,15.934,5.753,15.995,5.817z"/><polygon fill="#752146" points="16.794 6.983 16.793 6.982 16.793 6.983"/></svg>