<svg xmlns="http://www.w3.org/2000/svg" enable-background="new 0 0 24 24" viewBox="0 0 24 24"><path fill="#0D2E1E" d="M21.25,6.06V6.059h-3.897v7.747c0,3.414-0.177,4.714-0.734,5.835c-0.531,1.096-1.367,1.81-3.088,2.625L17.15,24c1.721-0.866,2.556-1.656,3.189-2.905c0.683-1.299,0.911-2.803,0.911-5.937V6.06z"/><path fill="#0D2E1E" d="M15.049,18.166V0h-3.897v5.984C10.57,5.831,10.089,5.78,9.457,5.78c-4.075,0-6.707,2.599-6.707,6.6c0,4.154,2.48,6.32,7.238,6.32C11.582,18.701,13.05,18.548,15.049,18.166z M6.723,12.304c0-2.141,1.138-3.364,3.113-3.364H9.832C9.86,8.938,9.887,8.938,9.914,8.938c0.443,0,0.868,0.075,1.237,0.205v6.294c-0.556,0.077-0.911,0.102-1.341,0.102C7.812,15.54,6.723,14.394,6.723,12.304z"/><rect width="3.897" height="4.026" x="17.353" y=".021" fill="#0D2E1E"/></svg>