<svg xmlns="http://www.w3.org/2000/svg" enable-background="new 0 0 24 24" viewBox="0 0 24 24"><path fill="#FFF" d="M21.269,14.909c0,6.057-3.26,9.091-9.781,9.091H2.731V0h8.758c0.952,0,1.821,0.155,2.594,0.404l0.107,0.274l6.663,6.663l0.321,0.119c0.059,0.547,0.095,1.023,0.095,1.63V14.909z M16.902,8.674c0-3.129-1.773-4.7-5.343-4.7H7.026v15.814h4.534c3.57,0,5.343-1.559,5.343-4.688L16.902,8.674L16.902,8.674z"/><path d="M21.269,14.909c0,6.057-3.26,9.091-9.781,9.091H2.731V0h8.758c0.952,0,1.821,0.155,2.594,0.404l0.107,0.274l6.663,6.663l0.321,0.119c0.059,0.547,0.095,1.023,0.095,1.63V14.909z M16.902,8.674c0-3.129-1.773-4.7-5.343-4.7H7.026v15.814h4.534c3.57,0,5.343-1.559,5.343-4.688L16.902,8.674L16.902,8.674z"/><path fill="#32A4FA" d="M14.07,0.404v7.056h7.104L14.07,0.404z"/></svg>