<svg xmlns="http://www.w3.org/2000/svg" enable-background="new 0 0 24 24" viewBox="0 0 24 24"><path fill="#00AEEF" d="M0,15.808c0,0.003,0,0.006,0,0.009c0,0.187,0.075,0.356,0.197,0.478c0.118,0.126,0.285,0.205,0.47,0.205c0.004,0,0.007,0,0.01,0h0.001c0.001,0,0.002,0,0.003,0c0.187,0,0.355-0.078,0.476-0.204c0.124-0.122,0.202-0.292,0.202-0.481c0-0.002,0-0.004,0-0.007c0-0.001,0-0.001,0-0.002c0-0.19-0.077-0.361-0.201-0.485c-0.12-0.129-0.29-0.209-0.478-0.209c-0.001,0-0.001,0-0.002,0c-0.003,0-0.008,0-0.012,0c-0.004,0-0.007,0-0.011,0H0.654H0.653c-0.181,0.005-0.342,0.084-0.456,0.209C0.075,15.445,0,15.615,0,15.803C0,15.805,0,15.806,0,15.808z"/><polygon fill="#00AEEF" points="16.915 8.442 16.915 7.502 12.481 7.501 12.481 16.378 17.131 16.378 17.136 15.404 13.528 15.404 13.528 12.327 16.685 12.327 16.685 11.392 13.528 11.392 13.528 8.442"/><polygon fill="#00AEEF" points="4.464 9.309 4.464 9.309 4.457 9.298"/><polygon fill="#00AEEF" points="24 7.501 17.919 7.501 17.919 8.441 20.434 8.441 20.434 16.378 21.456 16.378 21.456 8.441 24 8.441"/><path fill="#00AEEF" d="M4.19,9.961c0.002-0.071,0.003-0.155,0.003-0.24c0-0.345-0.019-0.685-0.056-1.02l0.004,0.042h0.038C4.26,8.956,4.354,9.138,4.464,9.309l4.49,7.069h1.257V7.5H9.189v6.243c-0.001,0.06-0.002,0.131-0.002,0.202c0,0.389,0.023,0.772,0.068,1.149l-0.004-0.046H9.228c-0.054-0.108-0.173-0.304-0.355-0.594L4.496,7.501H3.167v8.877H4.19V9.961z"/></svg>