<svg xmlns="http://www.w3.org/2000/svg" enable-background="new 0 0 24 24" viewBox="0 0 24 24"><path fill="#FA6900" d="M11.563,16.865c0.576-0.043,0.867-0.22,0.965-1.014c0.098-0.794,0.38-3.43,0.657-4.563c0.068-0.274,0.16-0.598,0.24-0.941c0.258-1.03,0.466-2.246,0-3.04c-0.296-0.5-0.865-0.824-1.86-0.824c-1.007,0-1.583,0.324-1.872,0.843c-0.465,0.794-0.256,2.02,0,3.05l-0.002-0.059v-0.016c0.084,0.353,0.168,0.677,0.237,0.956c0.285,1.134,0.562,3.769,0.665,4.578C10.692,16.646,10.984,16.807,11.563,16.865z"/><path fill="#FA6900" d="M24.004 11.191c-.247-2.247-2.786-3.605-6.31-3.41 3.97.254 6.173 2.767 3.449 6.156-1.32 1.635-3.53 3.253-6.49 4.284l-.42.147c-.29.088-.56.177-.83.251-.65.176-1.26.338-1.86.456-.65.137-1.28.226-1.88.294-.44.049-.86.079-1.25.079-2.747.079-4.818-.657-5.49-2.236-.81-1.883.823-4.501 4.11-6.502-2.43.951-6.84 3.226-7.036 6.443v.412c.016.343.074.667.195 1.02.707 2.177 4.01 3.207 8.21 2.844.407-.029.827-.072 1.25-.137.605-.08 1.23-.206 1.86-.353.605-.127 1.23-.304 1.865-.5l.42-.127c.285-.088.557-.177.826-.28 3.646-1.294 6.35-3.015 7.926-5.003.9-1.13 1.365-2.189 1.455-3.118V11.191zM17.171 7.778l-.044.044c.192-.019.38-.031.567-.041-.169-.011-.336-.024-.511-.027L17.171 7.778zM8.446 6.542l.001-.009c.09.029.178.044.283.044.48 0 .79-.25.96-.632.112-.265.162-.59.153-.927C9.829 4.724 9.769 4.457 9.679 4.224 9.484 3.766 9.14 3.457 8.613 3.457c-.074 0-.135 0-.18.016C7.758 3.581 7.457 4.238 7.488 5.052c.015.765.314 1.402.93 1.549L8.446 6.542z"/><path fill="#FA6900" d="M8.167 15.03c.048.339.14.551.278.68.144.127.34.176.596.206.304-.029.51-.098.65-.294.083-.127.14-.324.166-.598l.098-1.138v-.02l-.02-.177-.03-.167-.03-.172-.032-.162-.03-.17-.03-.162-.03-.161-.03-.167-.028-.157-.06-.294v-.135l-.03-.133-.03-.13L9.56 11.555l-.03-.114L9.5 11.344l-.03-.167-.047-.164-.09-.353L9.32 10.467l-.052-.199-.045-.206L9.171 9.856 9.141 9.65 9.098 9.439 9.068 9.23 9.05 8.993 9.036 8.787l-.01-.224V8.169l.02-.206L9.08 7.757l.046-.206.06-.196.09-.19.106-.182.04-.073c-.2-.045-.44-.075-.69-.075-.11 0-.2 0-.3.016-2.33.196-1.38 2.781-.98 4.2.28.981.6 3.275.72 3.982l-.02-.02L8.167 15.03zM11.571 6.104c.895-.004 1.323-.809 1.323-1.794 0-.988-.42-1.81-1.32-1.81h-.01c-.91 0-1.33.824-1.33 1.824s.42 1.804 1.337 1.804V6.104zM13.371 15.706c.14.196.35.265.66.294.26-.029.45-.069.6-.216.15-.118.23-.336.29-.677.12-.689.44-2.991.71-3.975.4-1.422 1.35-4.004-.98-4.201-.105-.014-.195-.014-.3-.014l.012-.049.013-.027c-.27 0-.51.029-.705.074l.045.074.105.19.075.196.06.206.045.206.03.206.015.226v.431l-.015.226V9.04l-.03.213-.03.209-.044.209-.046.206-.044.206-.045.202-.05.196-.05.193-.06.191-.05.176-.03.176-.05.165-.018.088-.03.118-.03.134-.026.131-.015.129-.03.118v.029l-.06.294-.02.16-.03.165-.02.162-.03.162-.02.176-.013.162-.028.353-.017.176v.014c.045.486.075.912.09 1.148C13.235 15.384 13.28 15.573 13.371 15.706zM14.352 6.609l.03-.049.01.018c.09 0 .18-.014.27-.029.6-.147.9-.779.93-1.53.03-.794-.27-1.471-.95-1.561-.06-.016-.12-.016-.18-.016-.54 0-.89.324-1.07.775-.09.235-.15.51-.15.804-.02.353.03.677.15.941C13.552 6.354 13.872 6.609 14.352 6.609z"/></svg>