<svg xmlns="http://www.w3.org/2000/svg" enable-background="new 0 0 24 24" viewBox="0 0 24 24"><path fill="#c2185b" d="m12 0c6.615 0 12 5.383 12 12 0 6.615-5.385 12-12 12-6.617 0-12-5.385-12-12 0-6.617 5.383-12 12-12z"/><g fill="#ec407a"><path d="M18.562 4.081v-.001c-1.78-1.478-4.067-2.366-6.562-2.366-.72 0-1.423.075-2.102.216 1.248 1.769 2.382 3.61 3.379 5.519 1.888-.88 3.664-2.015 5.285-3.368zM15.275 11.831v-.001c2.277-.467 4.646-.511 6.994-.121-.069-2.451-.991-4.687-2.486-6.418-1.765 1.487-3.705 2.719-5.766 3.682.452.939.87 1.891 1.258 2.858zM11.678 8.097c-1.031-1.955-2.198-3.841-3.501-5.641-3.088 1.238-5.428 3.926-6.191 7.225 3.329.142 6.624-.412 9.692-1.584zM13.605 12.257c-.358-.881-.745-1.749-1.159-2.607-2.969 1.157-6.141 1.787-9.366 1.787-.443 0-.889-.027-1.335-.051-.011.204-.031.407-.031.614 0 2.526.914 4.837 2.424 6.626 2.47-3.067 5.791-5.265 9.467-6.369zM15.905 13.453v.001c.817 2.28 1.458 4.624 1.929 7.013 2.318-1.599 3.936-4.125 4.342-7.042-2.102-.372-4.226-.356-6.271.028zM5.354 19.845h.001c1.793 1.521 4.109 2.441 6.645 2.441 1.522 0 2.963-.339 4.263-.934-.471-2.561-1.157-5.067-2.042-7.501-3.456 1.01-6.578 3.084-8.867 5.994z"/></g></svg>