<svg xmlns="http://www.w3.org/2000/svg" enable-background="new 0 0 24 24" viewBox="0 0 24 24"><path fill="#136DA9" d="M8.442,3.826c-4.199,1.784-6.841,5.281-6.841,9.775C1.601,19.344,6.257,24,12,24c5.743,0,10.399-4.656,10.399-10.399c0-6.905-6.416-9.65-6.416-9.65s-1.401-0.582-2.185-1.104c0,0-0.99-0.605-2.715-2.832C11.083,0.014,11.122,2.544,8.442,3.826L8.442,3.826z"/><path fill="#F0F0F0" d="M10.959,21.987c-0.365-0.254-0.278-1.062,0.711-0.485c0,0,2.108,1.548,5.444-0.309c0.259-0.144,0.577,0.365-0.247,0.832C16.868,22.025,13.496,23.75,10.959,21.987L10.959,21.987z"/><path fill="none" stroke="#FFFDFF" d="M10.959,21.987c-0.365-0.254-0.278-1.062,0.711-0.485c0,0,2.108,1.548,5.444-0.309c0.259-0.144,0.577,0.365-0.247,0.832C16.868,22.025,13.496,23.75,10.959,21.987L10.959,21.987z"/><path fill="#F0F0F0" d="M15.259,19.42c1.227,0.144,0.805,0.734,1.134,0.825c0.67,0.186,0.381-0.546,0.381-0.546c-0.495-0.99-1.351-0.928-1.351-0.928c-1.34-0.206-2.341,1.072-2.341,1.072c-0.248,0.546,0.099,0.575,0.227,0.516C13.96,20.059,14.355,19.314,15.259,19.42z"/><path fill="none" stroke="#FFFDFF" d="M15.259,19.42c1.227,0.144,0.805,0.734,1.134,0.825c0.67,0.186,0.381-0.546,0.381-0.546c-0.495-0.99-1.351-0.928-1.351-0.928c-1.34-0.206-2.341,1.072-2.341,1.072c-0.248,0.546,0.099,0.575,0.227,0.516C13.96,20.059,14.355,19.314,15.259,19.42z"/><path fill="#008ECE" d="M2.962,18.83c0,0,3.729,3.085,12.803-3.788c0,0,4.558-2.861,4.42-7.767c0,0-1.475-2.12-3.963-3.213c-0.354-0.156-3.464-1.852-5.143-3.98c0,0-0.304,6.173-8.211,8.61c0,0-1.992,2.939-0.906,7.714C1.961,16.407,2.656,18.343,2.962,18.83L2.962,18.83z"/><path fill="#F0F0F0" d="M8.876,19.976c0,0-3.093,0.082-2.722-3.217c0,0,0.646-3.712,4.991-2.887c0,0,0.949,0.206,2.722,1.567c0,0,1.17,0.902,1.815,0.885c0,0,0.5,0.048,1.54-0.61c0,0,2.121-1.636,2.862-1.588c0.018,0.001,1.496-0.162,1.496,2.22c0,0,0.027,2.626-1.952,3.506c0,0-0.522,0.179-1.086-0.412c0,0-1.622-1.842-2.42-2.145c0,0-0.46-0.18-1.072,0.041c0,0-0.399,0.041-2.035,1.127C13.015,18.464,10.265,20.183,8.876,19.976L8.876,19.976z"/><path fill="none" stroke="#FFFDFF" d="M8.876,19.976c0,0-3.093,0.082-2.722-3.217c0,0,0.646-3.712,4.991-2.887c0,0,0.949,0.206,2.722,1.567c0,0,1.17,0.902,1.815,0.885c0,0,0.5,0.048,1.54-0.61c0,0,2.121-1.636,2.862-1.588c0.018,0.001,1.496-0.162,1.496,2.22c0,0,0.027,2.626-1.952,3.506c0,0-0.522,0.179-1.086-0.412c0,0-1.622-1.842-2.42-2.145c0,0-0.46-0.18-1.072,0.041c0,0-0.399,0.041-2.035,1.127C13.015,18.464,10.265,20.183,8.876,19.976L8.876,19.976z"/><path fill="#008ECE" d="M10.513,8.139C12.515,5.27,11.078,0,11.078,0c-0.177,2.86-2.589,3.803-2.589,3.803C4.169,5.668,2.867,8.61,2.867,8.61C3.793,9.923,6.25,14.243,10.513,8.139L10.513,8.139z"/><path fill="#A0D8F1" d="M11.078,0c0,0,0.259,2.406-1.047,3.19c0,0-2.095,0.975-2.734,1.295c0,0-2.69,1.623-3.577,3.149c0,0-1.897,2.539,0.722,1.939c0,0,4.736-1.337,6.661-5.372c0,0,0.113-0.34-0.248-0.691C10.856,3.509,12.3,2.42,11.078,0L11.078,0z"/><path fill="#F0F0F0" d="M11.078,0c0,0,0.108,1.643-1.256,3.004c0,0-0.41,0.577-2.525,1.48c0,0-2.422,1.263-3.507,3.014c0,0-1.609,1.941,0.597,1.42c0,0,4.47-1.647,6.108-4.673c0,0,0.222-0.318-0.116-0.645C10.38,3.6,11.984,2.348,11.078,0L11.078,0z"/></svg>