<svg xmlns="http://www.w3.org/2000/svg" enable-background="new 0 0 24 24" viewBox="0 0 24 24"><path fill="#E53238" d="M3.103,9.29C1.411,9.29,0,10.008,0,12.175c0,1.717,0.949,2.797,3.147,2.797c2.588,0,2.754-1.705,2.754-1.705H4.647c0,0-0.269,0.918-1.576,0.918c-1.065,0-1.831-0.719-1.831-1.728h4.792v-0.633C6.032,10.828,5.399,9.29,3.103,9.29L3.103,9.29z M3.06,10.099c1.014,0,1.705,0.621,1.705,1.552H1.268C1.268,10.662,2.17,10.099,3.06,10.099z"/><path fill="#0064D2" d="M6.031,7.192v6.692c0,0.38-0.027,0.913-0.027,0.913H7.2c0,0,0.043-0.383,0.043-0.733c0,0,0.591,0.924,2.198,0.924c1.692,0,2.841-1.175,2.841-2.858c0-1.566-1.056-2.825-2.838-2.825c-1.669,0-2.188,0.901-2.188,0.901V7.192H6.031z M9.134,10.134c1.149,0,1.88,0.853,1.88,1.997c0,1.227-0.844,2.03-1.871,2.03c-1.226,0-1.888-0.958-1.888-2.019C7.255,11.153,7.848,10.134,9.134,10.134L9.134,10.134z"/><path fill="#F5AF02" d="M15.254,9.29c-2.547,0-2.71,1.394-2.71,1.617h1.268c0,0,0.066-0.814,1.355-0.814c0.837,0,1.486,0.383,1.486,1.12v0.262h-1.486c-1.973,0-3.016,0.577-3.016,1.748c0,1.153,0.964,1.78,2.266,1.78c1.775,0,2.347-0.981,2.347-0.981c0,0.39,0.03,0.775,0.03,0.775h1.127c0,0-0.044-0.476-0.044-0.781v-2.635C17.876,9.653,16.483,9.29,15.254,9.29z M16.652,12.262v0.35c0,0.456-0.281,1.59-1.938,1.59c-0.907,0-1.296-0.453-1.296-0.978C13.418,12.268,14.728,12.262,16.652,12.262L16.652,12.262z"/><path fill="#86B817" d="M17.194,9.509h1.426l2.047,4.1l2.042-4.1H24l-3.719,7.3h-1.355l1.073-2.035L17.194,9.509L17.194,9.509z"/></svg>