<svg xmlns="http://www.w3.org/2000/svg" enable-background="new 0 0 24 24" viewBox="0 0 24 24"><path fill="#F0BF1A" d="M22.74,4.68c-1.05,1.26-2.62,2.07-4.38,2.07H2.42C4.37,2.76,8.47,0,13.22,0C17.1,0,20.54,1.84,22.74,4.68z"/><path fill="#3EBEB0" d="M22.78,19.27c-2.2,2.87-5.66,4.73-9.56,4.73c-4.75,0-8.85-2.76-10.8-6.75h16.01C20.18,17.25,21.74,18.03,22.78,19.27z"/><path fill="#07A5DE" d="M20.38,12c0,1.88-1.54,3.38-3.37,3.38H1.71c-0.32-1.07-0.49-2.2-0.49-3.38s0.17-2.31,0.49-3.38h15.3C18.88,8.62,20.38,10.12,20.38,12z"/><path fill="#231F20" d="M12.13,12c0,1.24-0.15,2.36-0.41,3.38H1.71c-0.32-1.07-0.49-2.2-0.49-3.38s0.17-2.31,0.49-3.38h10.01C11.98,9.64,12.13,10.76,12.13,12z"/><path fill="#D7A229" d="M7.182,1.613c-2.025,1.2-3.712,3-4.762,5.137h8.85C10.37,4.688,8.945,2.962,7.182,1.613z"/><path fill="#019B8F" d="M7.557,22.575c1.725-1.387,3.113-3.225,3.975-5.325H2.42C3.545,19.5,5.345,21.375,7.557,22.575z"/></svg>