<svg xmlns="http://www.w3.org/2000/svg" enable-background="new 0 0 24 24" viewBox="0 0 24 24"><polygon points="22.27 19.41 22.261 19.42 22.27 19.43"/><path fill="none" d="M13.675,15.188C13.675,15.188,13.675,15.188,13.675,15.188c-0.004,0-0.008,0-0.012,0c-1.763,0-3.187-1.425-3.187-3.188s1.425-3.187,3.187-3.187c0.011,0,0.021,0,0.032,0c0,0,0,0,0,0c3.712-0.012,6.945-2.059,8.642-5.084C20.148,1.434,17.065,0,13.663,0c-2.071,0-4.025,0.532-5.73,1.466C6.877,2.044,5.916,2.777,5.081,3.633c0,0-0.001,0-0.001,0.001c0,0,0,0,0,0C5.05,3.666,5.02,3.697,4.989,3.728C4.981,3.737,4.973,3.745,4.965,3.754C2.921,5.908,1.663,8.814,1.663,12c0,3.193,1.264,6.105,3.316,8.26c0.003,0.004,0.007,0.008,0.011,0.011c0.837,0.877,1.805,1.629,2.872,2.223c0.001,0.001,0.003,0.002,0.004,0.002C9.587,23.454,11.564,24,13.663,24c3.402,0,6.485-1.434,8.674-3.728C20.637,17.241,17.396,15.192,13.675,15.188z"/><path fill="#353535" d="M13.663,15.188c0.004,0,0.008,0,0.012,0c0,0,0,0,0,0c-0.876,3.147-3.002,5.773-5.809,7.309c-0.001-0.001-0.003-0.002-0.004-0.002c-0.003,0.002-0.007,0.004-0.011,0.006c-1.083-0.56-2.054-1.343-2.876-2.201c-0.004-0.004-0.007-0.008-0.011-0.012c0.005-0.009,0.01-0.018,0.016-0.027C2.927,18.105,1.663,15.193,1.663,12c0-3.186,1.258-6.092,3.302-8.246C4.965,3.753,4.964,3.751,4.963,3.75C4.971,3.742,4.98,3.734,4.988,3.726C5.018,3.695,5.049,3.664,5.08,3.634c0,0,0,0,0,0c0,0,0.001-0.001,0.001-0.001c0.835-0.856,1.796-1.589,2.852-2.167c2.796,1.554,4.906,4.192,5.762,7.346c0,0,0,0,0,0c-0.011,0-0.021,0-0.032,0c-1.763,0-3.187,1.425-3.187,3.187S11.901,15.188,13.663,15.188z"/><path fill="none" d="M13.675,15.188C13.675,15.188,13.675,15.188,13.675,15.188c-0.004,0-0.008,0-0.012,0c-1.763,0-3.187-1.425-3.187-3.188s1.425-3.187,3.187-3.187c0.011,0,0.021,0,0.032,0c0,0,0,0,0,0c3.712-0.012,6.945-2.059,8.642-5.084C20.148,1.434,17.065,0,13.663,0c-2.071,0-4.025,0.532-5.73,1.466C6.877,2.044,5.916,2.777,5.081,3.633c0,0-0.001,0-0.001,0.001c0,0,0,0,0,0C5.05,3.666,5.02,3.697,4.989,3.728C4.981,3.737,4.973,3.745,4.965,3.754C2.921,5.908,1.663,8.814,1.663,12c0,3.193,1.264,6.105,3.316,8.26c0.003,0.004,0.007,0.008,0.011,0.011c0.837,0.877,1.805,1.629,2.872,2.223c0.001,0.001,0.003,0.002,0.004,0.002C9.587,23.454,11.564,24,13.663,24c3.402,0,6.485-1.434,8.674-3.728C20.637,17.241,17.396,15.192,13.675,15.188z"/><path fill="#07A5DE" d="M22.337,3.728c-1.696,3.025-4.929,5.072-8.642,5.084c-0.011,0-0.021,0-0.032,0c-0.045,0-0.091,0-0.136-0.001c-0.018,0-0.036,0-0.054-0.001c-0.006,0-0.012,0-0.018,0c-0.018,0-0.036-0.001-0.054-0.001c-0.019,0-0.038-0.001-0.058-0.002c-0.028-0.001-0.056-0.002-0.084-0.003c-0.034-0.001-0.068-0.003-0.102-0.005c0,0,0,0,0,0c-0.016-0.001-0.033-0.002-0.049-0.003c-0.001,0-0.002,0-0.003,0c-0.006,0-0.012-0.001-0.018-0.001c-0.022-0.001-0.045-0.003-0.067-0.004c-0.005,0-0.009-0.001-0.014-0.001c-0.007,0-0.014-0.001-0.021-0.001c-0.02-0.001-0.039-0.003-0.059-0.004c-0.027-0.002-0.054-0.004-0.081-0.006c-3.379-0.276-6.28-2.242-7.855-5.051c0-0.001-0.001-0.002-0.002-0.003C5.018,3.695,5.049,3.664,5.08,3.634c0,0,0,0,0,0c0,0,0.001-0.001,0.001-0.001c0.835-0.856,1.796-1.589,2.852-2.167C9.638,0.532,11.592,0,13.663,0C17.065,0,20.148,1.434,22.337,3.728z"/><path fill="none" d="M13.675,15.188C13.675,15.188,13.675,15.188,13.675,15.188c-0.004,0-0.008,0-0.012,0c-1.763,0-3.187-1.425-3.187-3.188s1.425-3.187,3.187-3.187c0.011,0,0.021,0,0.032,0c0,0,0,0,0,0c3.712-0.012,6.945-2.059,8.642-5.084C20.148,1.434,17.065,0,13.663,0c-2.071,0-4.025,0.532-5.73,1.466C6.877,2.044,5.916,2.777,5.081,3.633c0,0-0.001,0-0.001,0.001c0,0,0,0,0,0C5.05,3.666,5.02,3.697,4.989,3.728C4.981,3.737,4.973,3.745,4.965,3.754C2.921,5.908,1.663,8.814,1.663,12c0,3.193,1.264,6.105,3.316,8.26c0.003,0.004,0.007,0.008,0.011,0.011c0.837,0.877,1.805,1.629,2.872,2.223c0.001,0.001,0.003,0.002,0.004,0.002C9.587,23.454,11.564,24,13.663,24c3.402,0,6.485-1.434,8.674-3.728C20.637,17.241,17.396,15.192,13.675,15.188z"/><path fill="#93C90E" d="M22.337,20.272C20.148,22.566,17.065,24,13.663,24c-2.099,0-4.077-0.546-5.798-1.503c-0.001-0.001-0.003-0.002-0.004-0.002c-0.003,0.002-0.007,0.004-0.011,0.006c-1.083-0.56-2.054-1.343-2.876-2.201c0.005-0.009,0.01-0.018,0.015-0.027c1.547-2.758,4.371-4.703,7.67-5.034c0.053-0.005,0.106-0.01,0.159-0.015c0.027-0.002,0.053-0.004,0.08-0.006c0.042-0.003,0.084-0.006,0.126-0.009c0.019-0.001,0.039-0.002,0.058-0.003c0.003,0,0.007,0,0.011-0.001c0.016-0.001,0.033-0.002,0.049-0.003c0.03-0.002,0.06-0.003,0.09-0.004c0.015-0.001,0.031-0.001,0.046-0.002c0.017-0.001,0.035-0.001,0.052-0.002c0.014,0,0.027-0.001,0.041-0.001c0.013,0,0.027-0.001,0.04-0.001c0.025-0.001,0.05-0.001,0.075-0.002c0.021,0,0.043-0.001,0.064-0.001c0.014,0,0.028,0,0.042,0c0.023,0,0.046,0,0.069,0h0.012C17.396,15.192,20.637,17.241,22.337,20.272z"/><path fill="#0078A0" d="M13.663,8.813c-0.045,0-0.091,0-0.136-0.001c-0.018,0-0.036,0-0.054-0.001c-0.006,0-0.012,0-0.018,0c-0.018,0-0.036-0.001-0.054-0.001c-0.019,0-0.038-0.001-0.058-0.002c-0.028-0.001-0.056-0.002-0.084-0.003c-0.034-0.001-0.068-0.003-0.102-0.005c-0.01,0-0.019-0.001-0.029-0.001c-0.008,0-0.016-0.001-0.024-0.001c-0.006,0-0.012-0.001-0.018-0.001c-0.022-0.001-0.045-0.003-0.067-0.004c-0.005,0-0.009-0.001-0.014-0.001c-0.007,0-0.014-0.001-0.021-0.001C9.527,8.562,6.586,6.604,4.965,3.754C4.965,3.753,4.964,3.751,4.963,3.75C4.971,3.742,4.98,3.734,4.988,3.726C5.018,3.695,5.049,3.664,5.08,3.634c0,0,0,0,0,0c0,0,0.001-0.001,0.001-0.001C5.915,2.816,6.85,2.073,7.888,1.5C10.701,3.038,12.801,5.663,13.663,8.813z"/><path fill="#74A300" d="M13.663,15.188c-0.861,3.146-2.995,5.768-5.802,7.307c-0.003,0.002-0.007,0.004-0.011,0.006c-1.083-0.56-2.054-1.343-2.876-2.201c-0.004-0.004-0.007-0.008-0.011-0.012c0.005-0.009,0.01-0.018,0.016-0.027c1.572-2.748,4.374-4.693,7.681-5.023c0.053-0.005,0.106-0.01,0.159-0.015c0.027-0.002,0.053-0.004,0.08-0.006c0.042-0.003,0.084-0.006,0.126-0.009c0.019-0.001,0.039-0.002,0.058-0.003c0.003,0,0.007,0,0.011-0.001c0.016-0.001,0.033-0.002,0.049-0.003c0.03-0.002,0.06-0.003,0.09-0.004c0.015-0.001,0.031-0.001,0.046-0.002c0.017-0.001,0.035-0.001,0.052-0.002c0.014,0,0.027-0.001,0.041-0.001c0.013,0,0.027-0.001,0.04-0.001c0.025-0.001,0.05-0.001,0.075-0.002c0.021,0,0.043-0.001,0.064-0.001c0.014,0,0.028,0,0.042,0C13.617,15.188,13.64,15.188,13.663,15.188z"/><path fill="none" d="M22.337,20.272C20.148,22.566,17.065,24,13.663,24c-2.099,0-4.077-0.546-5.798-1.503c-0.001-0.001-0.003-0.002-0.004-0.002c-0.003,0.002-0.007,0.004-0.011,0.006c-1.083-0.56-2.054-1.343-2.876-2.201c-0.004-0.004-0.007-0.008-0.011-0.012c0.005-0.009,0.01-0.018,0.016-0.027C2.927,18.105,1.663,15.193,1.663,12c0-3.186,1.258-6.092,3.302-8.246C4.965,3.753,4.964,3.751,4.963,3.75C4.971,3.742,4.98,3.734,4.988,3.726C5.018,3.695,5.049,3.664,5.08,3.634c0,0,0,0,0,0c0,0,0.001-0.001,0.001-0.001c0.835-0.856,1.796-1.589,2.852-2.167C9.638,0.532,11.592,0,13.663,0c3.402,0,6.485,1.434,8.674,3.728c-1.696,3.025-4.929,5.072-8.642,5.084c0,0,0,0,0,0c-0.011,0-0.021,0-0.032,0c-1.763,0-3.187,1.425-3.187,3.187s1.425,3.188,3.187,3.188c0.004,0,0.008,0,0.012,0c0,0,0,0,0,0C17.396,15.192,20.637,17.241,22.337,20.272z"/></svg>