<svg xmlns="http://www.w3.org/2000/svg" enable-background="new 0 0 24 24" viewBox="0 0 24 24"><path fill="#8DCFE7" d="M3.931,17.311l0.521,0.398c1.192,0.912,3.206,2.453,6.166,4.709c0.483,0.367,1.035,0.677,1.382,0.677c0.344,0,0.902-0.31,1.382-0.677c2.961-2.256,4.973-3.797,6.165-4.709l0.972-0.739l-0.003-0.002l0.111-0.083c0.799-0.613,1.463-1.189,1.968-1.71c0.514-0.417,0.91-0.96,1.149-1.575c0.056-0.135,0.099-0.263,0.127-0.391C23.957,12.887,24,12.553,24,12.222v-7.15L11.016,6.691L3.931,17.311z"/><path fill="#72BE50" d="M23.999,4.682c0-2.083-1.673-3.777-3.726-3.777H12H3.725C1.67,0.905,0,2.598,0,4.682v7.54c0,0.331,0.044,0.666,0.13,0.987c0.028,0.128,0.07,0.256,0.126,0.391c0.239,0.615,0.635,1.158,1.148,1.575c0.509,0.521,1.17,1.097,1.969,1.71l0.113,0.083L3.483,16.97l0.448,0.341l20.068-12.24V4.682z"/><polygon fill="#FFF" points="7.202 3.396 7.202 8.523 12.033 3.396 15.429 3.396 10.596 8.281 15.896 15.762 12.484 15.762 8.761 10.202 7.202 11.778 7.202 15.762 4.483 15.762 4.483 3.396"/><path fill="#FFF" d="M17.424,9.398v1.182h0.025c0.082-0.197,0.192-0.38,0.331-0.548c0.14-0.168,0.299-0.312,0.481-0.431c0.18-0.119,0.373-0.211,0.578-0.277c0.205-0.065,0.418-0.098,0.64-0.098c0.115,0,0.241,0.021,0.382,0.062v1.625c-0.083-0.016-0.18-0.031-0.296-0.043c-0.115-0.012-0.226-0.018-0.333-0.018c-0.32,0-0.591,0.053-0.812,0.16c-0.222,0.107-0.4,0.252-0.536,0.437c-0.134,0.184-0.232,0.4-0.289,0.646c-0.057,0.246-0.086,0.513-0.086,0.8v2.868h-1.748V9.398H17.424z"/></svg>