<svg xmlns="http://www.w3.org/2000/svg" enable-background="new 0 0 24 24" viewBox="0 0 24 24"><polygon points="21 15.812 21 15.813 21 15.813"/><path fill="#F27224" d="M1.75,22.634V24c7.933-0.254,13.379-0.231,19.672,0c0.093-1.179,0.734-6.491,0.828-7.071h-1.188c-1.719,4.004-1.875,5.344-5.272,5.344h-4.765c-1.601,0-2.362-0.656-2.362-2.049v-7.447c3.55,0,4.698,0.107,4.698,0.107c1.625,0.025,1.62,1.148,2.109,3.295h1.375c-0.115-5.273-0.142-3.155,0.093-8.585h-1.375c-0.704,3.04-0.587,3.444-2.175,3.496c0,0-1.627,0.16-4.724,0.134V2.451c0-0.335,0.027-0.522,0.574-0.522h7.314c1.921,0,2.332,2.553,2.922,4.848h1.241c0,0,0.227-4.728,0.413-6.777C15.413,0.659,5.694,0.328,1.75,0.201v1.366c2.608,0.495,3.201,0.405,3.256,1.929c0.188,4.171,0.096,13.376,0,17.25C4.987,22.205,4.177,22.155,1.75,22.634z"/></svg>