<svg xmlns="http://www.w3.org/2000/svg" enable-background="new 0 0 24 24" viewBox="0 0 24 24"><linearGradient id="a" x1="10.452" x2="10.452" y1="22.833" y2="1.164" gradientUnits="userSpaceOnUse"><stop offset="0" stop-color="#f35814"/><stop offset="1" stop-color="#f52d29"/></linearGradient><ellipse cx="10.451" cy="10.475" fill="url(#a)" rx="1.161" ry="1.165"/><linearGradient id="b" x1="12" x2="12" y1="22.833" y2="1.164" gradientUnits="userSpaceOnUse"><stop offset="0" stop-color="#f35814"/><stop offset="1" stop-color="#f52d29"/></linearGradient><path fill="url(#b)" d="M10.839,24l-0.001-7.063c-2.217-0.526-3.87-2.526-3.87-4.908c0-2.785,2.254-5.045,5.032-5.045s5.031,2.26,5.031,5.045c0,2.382-1.65,4.382-3.87,4.908v7.063C19.24,23.414,24,18.273,24,12.028C24,5.39,18.623,0,12,0S0,5.39,0,12.028C0,18.272,4.76,23.415,10.839,24z"/></svg>