<svg xmlns="http://www.w3.org/2000/svg" enable-background="new 0 0 24 24" viewBox="0 0 24 24"><path fill="#063752" d="M0.408,14.168c-0.035,0.17-0.117,0.538,0.003,0.679c0.117,0.136,0.35,0.128,0.622,0.096c0.302-0.036,1.81-0.335,3.397-0.976c0.215-0.091,0.435-0.2,0.622-0.338c0.431-0.317,0.5-0.983,0.5-0.983c0.011-0.127,0.009-0.309-0.164-0.404c-0.126-0.068-0.301-0.025-0.562,0.042c-0.433,0.114-1.502,0.508-1.873,0.615c-0.15,0.043-0.447,0.112-0.561-0.026c-0.19-0.229,0.082-0.948,0.245-1.349c0.163-0.4,0.419-0.722,1.205-0.94c0.289-0.08,0.762-0.224,0.954-0.287c0.211-0.069,0.489-0.202,0.607-0.661c0.135-0.523-0.278-0.603-0.655-0.703C4.208,8.791,3.869,8.773,4.106,8.27c0.097-0.206,0.187-0.297,0.397-0.35c0.214-0.055,2.029-0.331,2.751-0.457c0.405-0.07,0.542-0.28,0.711-0.617C8.33,6.115,7.872,6.068,7.503,6.1C6.667,6.175,5.325,6.409,4.75,6.489c-0.306,0.043-0.102-0.46-0.46-0.484C3.586,5.957,2.989,6.243,2.75,6.421C2.523,6.59,2.416,7.109,2.416,7.109L1.719,9.427c-0.06,0.267-0.146,0.531-0.343,0.645c-0.479,0.277-1.457,0.296-1.37,1.312c0,0,0.019,0.499,0.437,1.518l0.001-0.002c0.102,0.25,0.113,0.417,0.072,0.677C0.484,13.774,0.448,13.972,0.408,14.168z"/><path fill="#063752" d="M11.138 7.501c-.485-.349-.766-.089-.918.162C9.96 8.09 9.269 9.309 8.643 10.254c-.825 1.247-1.094 1.493-1.094 1.493S7.548 9.351 7.517 9.143C7.415 8.457 7.04 8.523 6.761 8.57V8.569C6.037 8.688 6.046 8.95 6.012 9.173c-.088.575.04 3.036.066 3.346.026.31-.024 1.394.63 1.483.493.066.965-.369 1.319-.746.354-.377.757-.83 1.599-1.973.927-1.259 1.583-2.303 1.827-2.713C11.691 8.171 11.679 7.89 11.138 7.501zM17.185 8.624c-.087-1.088-1.271-1.585-1.707-1.496-.397.081-1.091.546-1.747 1.116-.044-.297-.052-.625-.368-.662-.232-.027-.501.08-.696.178-.214.101-.386.26-.498.457l-.003.006-.736 1.63c-.024.058-.072.07-.11.078-.394.088-.521.363-.549.44 0 0-.165.34.126.647-.146.377-.533 1.255-.533 1.255-.48 1.078-.449 1.451-.277 1.68.087.116.393.285.762.343.278.045.491-.116.723-.472.343-.525 1.032-1.911 1.032-1.911s1.37 1.442 4.121 2.391c0 0-1.455 1.931-1.665 2.999 0 0-.108.7.872.698.246 0 .617-.057.886-.216.107-.06.187-.157.222-.272l.001-.003c.004-.015.006-.031.006-.048 0-.037-.01-.072-.027-.103l.001.001c-.027-.046-.069-.071-.101-.102-.05-.048-.043-.111-.016-.183.539-1.511 2.732-4.08 3.197-4.637 1.233-1.475 3.512-3.772 3.673-3.955l.002.001c.291-.365.349-.583-.133-1.038-.433-.408-.723-.167-.934.044-.035.041-1.016.98-2.049 2.124-.804.891-1.499 1.719-1.499 1.719s-.025-.558.062-1.259c.049-.399.186-1.175.226-1.422.204-1.247-.593-1.297-.89-1.314-.312-.019-.461.142-.554.522-.085.348-.55 2.262-.365 4.233.033.355.105.721.112.745l-.188.252c-1.749-.475-2.946-1.629-2.946-1.629s.574-.161 1.204-.531C16.323 10.633 17.287 9.906 17.185 8.624zM14.98 9.883c-.374.266-1.014.664-1.672.664.293-.483.63-.9 1.016-1.269l.001-.001c.47-.451 1.018-.782 1.281-.644C15.908 8.791 15.561 9.47 14.98 9.883z"/></svg>