<svg xmlns="http://www.w3.org/2000/svg" enable-background="new 0 0 24 24" viewBox="0 0 24 24"><path fill="#28AF45" d="M7.395,21.82c0.414,0.407,1.008,0.679,1.604,0.68h5.908c0.642,0,1.284-0.273,1.695-0.678l6.779-6.747c0.826-0.771,0.826-2.537,0-3.353l-9.756-9.643c-0.776-0.771-2.516-0.771-3.297,0l-9.709,9.642c-0.825,0.772-0.825,2.537,0,3.352L7.395,21.82z M8.585,17.445l-0.959-0.949c-0.139-0.134-0.139-0.446,0-0.594l4.121-4.078c0.092-0.09,0.322-0.09,0.412,0l1.42,1.393c0.092,0.091,0.092,0.318,0,0.407h0.001v0.009l-3.893,3.812H8.585z M13.579,19.194l0.012-0.034l-1.065,1.009h-1.099l-1.054-0.994c-0.138-0.133-0.138-0.401,0-0.534l1.329-1.304c0.137-0.148,0.411-0.148,0.549,0l1.328,1.313C13.716,18.785,13.716,19.057,13.579,19.194z M4.788,13.126l6.914-6.837c0.137-0.103,0.412-0.103,0.502,0l1.375,1.359c0.137,0.091,0.092,0.363,0,0.453l-6.687,6.508H5.839l-1.1-1.038C4.648,13.481,4.694,13.215,4.788,13.126z"/></svg>