<svg xmlns="http://www.w3.org/2000/svg" enable-background="new 0 0 24 24" viewBox="0 0 24 24"><path fill="#42A5F5" fill-opacity=".8" d="M6,15.695l-3.696-3.696L14.305,0h7.391L6,15.695z M21.695,11.073h-7.391l-2.768,2.768l3.696,3.696L21.695,11.073z"/><path fill="#0D47A1" d="M11.536,21.232L14.305,24h7.391l-6.463-6.463L11.536,21.232z"/><path fill="#42A5F5" d="M7.849,17.539l3.69-3.691l3.69,3.69l-3.69,3.691L7.849,17.539z"/><linearGradient id="a" x1="-2075.633" x2="-2075.633" y1="-1590.528" y2="-1590.518" gradientTransform="matrix(380.4042 -380.4175 53.104 53.1021 874056.25 -705127.375)" gradientUnits="userSpaceOnUse"><stop offset=".2" stop-opacity=".15"/><stop offset=".85" stop-color="#616161" stop-opacity=".01"/></linearGradient><path fill="url(#a)" d="M11.539,21.229l3.69-3.69l0.515,0.515l-3.69,3.69L11.539,21.229z"/><linearGradient id="b" x1="-2078.999" x2="-2078.99" y1="-1580.155" y2="-1580.155" gradientTransform="matrix(565.291 0 0 380.9571 1175251.25 601990.813)" gradientUnits="userSpaceOnUse"><stop offset=".2" stop-opacity=".55"/><stop offset=".85" stop-color="#616161" stop-opacity=".01"/></linearGradient><path fill="url(#b)" d="M11.536,21.232l5.483-1.894l-1.788-1.801L11.536,21.232z"/></svg>