<svg xmlns="http://www.w3.org/2000/svg" enable-background="new 0 0 24 24" viewBox="0 0 24 24"><linearGradient id="a" x1="12.006" x2="12.006" y1="6.833" y2="23.846" gradientUnits="userSpaceOnUse"><stop offset="0" stop-color="#5b88f9"/><stop offset="1" stop-color="#815dee"/></linearGradient><path fill="url(#a)" d="M12.271,20.053L12.271,20.053c-0.129-0.117-0.152-0.131-0.307-0.131c-0.132,0.042-0.15,0.071-0.256,0.169c-0.545,0.511-1.437,1.472-1.483,2.231c-0.055,0.89,0.627,1.673,1.77,1.678c0.929,0.005,1.707-0.525,1.789-1.453c0-0.042,0.005-0.079,0.005-0.117C13.813,21.614,12.861,20.601,12.271,20.053z"/><linearGradient id="b" x1="12" x2="12" y1="6.833" y2="23.846" gradientUnits="userSpaceOnUse"><stop offset="0" stop-color="#5b88f9"/><stop offset="1" stop-color="#815dee"/></linearGradient><path fill="url(#b)" d="M18.406,3.155L18.406,3.155C17.66,1.949,16.64,1.251,15.51,0.712C14.344,0.21,13.013-0.01,12.006,0C9.988,0,8.749,0.619,8.295,0.811C5.842,2.12,4.434,4.089,4.502,7.435c0.325,3.853,4.438,8.25,7.127,10.959c0.078,0.075,0.206,0.211,0.284,0.239l0.151,0.005c0.096-0.033,0.082-0.023,0.16-0.098c2.393-2.306,6.437-6.834,7.132-10.111C19.678,6.592,19.499,5.03,18.406,3.155z M11.767,16.495c-1.281-2.395-2.983-6.127-3.17-8.859c-0.155-2.227,0.521-6.15,3.17-6.408V16.495z M18.259,8.439L18.259,8.439c-0.751,2.662-3.536,5.999-5.439,7.982c1.272-2.433,2.983-6.248,3.074-8.995c0.073-2.152-0.448-4.959-2.196-6.159C17.762,2.124,18.983,5.864,18.259,8.439z"/></svg>