<svg xmlns="http://www.w3.org/2000/svg" enable-background="new 0 0 24 24" viewBox="0 0 24 24"><path fill="#E5AE00" d="M21.087 11.473c.809 0 1.228.286 1.448.802h1.445c-.015-.226-.07-.446-.165-.649-.348-.628-1.171-1.352-3.093-1.219-.532.038-.934.096-1.282.249-.641.267-1.685 1.009-1.666 2.458v.171c-.019 1.447 1.026 2.19 1.666 2.457.347.152.771.209 1.282.248 1.28.075 2.069-.209 2.562-.591C23.98 14.826 24 14.12 24 14.12h-1.465v.002c-.221.512-.661.799-1.448.799 0 0-1.775.134-1.829-1.697v-.055C19.312 11.36 21.087 11.473 21.087 11.473zM14.863 12.693c-1.573.096-3.441.077-3.239 1.733 0 0-.038 1.581 2.526 1.544 0 0 1.373.036 1.939-.744v.019l.057.61h1.427l-.036-3.275c.109-1.848-1.648-2.135-1.648-2.135-1.574-.304-2.49 0-2.506 0-1.539.401-1.558 1.793-1.558 1.793h1.465c0 0 .019-1.087 1.573-.953 0 0 1.136.056 1.19.628C16.053 11.912 16.419 12.597 14.863 12.693zM16.073 13.341c.017.018.146.645-.166 1.084-.365.496-.786.648-1.299.667-.44.019-1.392.116-1.411-.703-.018-.782 1.154-.744 1.924-.802 0 0 .785 0 .933-.246C16.054 13.341 16.073 13.322 16.073 13.341zM1.281 15.893l.001.001h1.427v-4.346h2.508v4.342h1.428v-3.044c.072-.515.384-1.239 1.502-1.334 0 0 1.628-.304 1.83 1.334v3.048h1.427v-3.678c-.329-2.609-3.589-1.81-3.589-1.81-.768.23-1.061.573-1.189.762v-.742H2.689c-.109-1.428 1.19-1.408 1.19-1.408 1.283-.04 1.338.894 1.338.894h1.428c0-1.676-2.051-1.886-2.051-1.886C2.58 7.853 1.885 8.616 1.885 8.616c-.641.611-.623 1.583-.604 1.81H0v1.106h1.281V15.893z"/></svg>