<svg xmlns="http://www.w3.org/2000/svg" enable-background="new 0 0 24 24" viewBox="0 0 24 24"><path fill="#4caf50" d="m12 0-9.75 24h19.5z"/><path fill="#212121" d="m7.783 5.388v.001z"/><path fill="#fafafa" d="m17.063 16.925c-.187-.372-.64-.524-1.006-.333l-2.557 1.287v-.752c.144 0 .287-.04.415-.126l1.44-.96c.345-.229.438-.696.209-1.039-.232-.347-.699-.437-1.04-.209l-1.024.683v-1.978h-3v3.767l-1.387-1.399c-.292-.294-.767-.297-1.061-.006s-.296.768-.005 1.061l1.935 1.951c.143.146.329.216.518.221v4.907h3v-4.53c.114 0 .23-.023.336-.079l2.895-1.457-.001-.002c.371-.186.519-.637.333-1.007z"/></svg>