<svg xmlns="http://www.w3.org/2000/svg" enable-background="new 0 0 24 24" viewBox="0 0 24 24"><path fill="#B5090F" d="M23.726,0.652c-1.27-1.267-6.863,2.244-7.457,2.834c-0.6,0.591-0.049,2.099,1.226,3.362c1.27,1.267,2.785,1.81,3.381,1.219C21.471,7.477,24.996,1.915,23.726,0.652z"/><path fill="#B5090F" d="M12.304,23.75c6.381,0,11.55-5.14,11.55-11.485c0-2.046-0.541-3.969-1.484-5.636c-0.209,0.373-0.407,0.708-0.584,1.001v0.001c0.177,0.602,0.145,1.102-0.145,1.39c-1.088,1.082-4.688-1.439-5.855-3.734c-0.965-1.721-0.594-2.845,0.798-2.595c0.305-0.192,0.66-0.405,1.05-0.618c-1.597-0.826-3.407-1.294-5.33-1.294c-6.381,0-11.55,5.14-11.55,11.485C0.754,18.604,5.923,23.75,12.304,23.75z"/><path fill="#B5090F" d="M5.887,1.989C3.941,0.892,1.178-0.328,0.299,0.551C-0.59,1.435,0.68,4.248,1.794,6.182C2.785,4.467,4.194,3.023,5.887,1.989z"/></svg>