<svg xmlns="http://www.w3.org/2000/svg" enable-background="new 0 0 24 24" viewBox="0 0 24 24"><path fill="#F3AA39" d="M23.374,12.152C23.377,11.378,23.424,7.009,24,5h-7.178l-0.26,2.031l2.435,0.731l0.031,2.194l2.231,0.042l-0.056,2.299L23.374,12.152z"/><path fill="#F3AA39" d="M4.089,18.447c0-0.076,0.002-0.153,0.005-0.228v0.011c0.148-3.736,4.199-4.377,7.241-4.286v-1.076c-0.05-0.869-0.74-1.636-2.74-1.636c-1.333,0-2.915,0.174-3.939,0.551l0.272-2.43c0.978-0.282,2.08-0.555,4.453-0.555c4.572,0,5.077,2.068,5.04,4.468l-0.021,5.733h2.575c3.303,0,6.021-2.744,6.362-6.029l-2.947,0.117H20.39l0.052-2.29l-2.202-0.041l-0.035-2.472l-2.527-0.878L16.016,5h-9.43C2.767,5,0,8.315,0,11.949v7.05h4.116C4.099,18.834,4.089,18.642,4.089,18.447z"/><path fill="#F3AA39" d="M11.356,18.361c0.056-0.217,0-0.924,0-1.168l-0.049-1.491c-2.021-0.087-4.2,0.328-4.2,2.229c0,0.411,0.169,0.783,0.426,1.069h3.312C11.093,18.855,11.28,18.658,11.356,18.361z"/></svg>