<svg xmlns="http://www.w3.org/2000/svg" enable-background="new 0 0 24 24" viewBox="0 0 24 24"><path fill="#4caf50" d="m5.451 8.556h2.271v6.111c.001 2.93-1.632 4.333-4.088 4.333-1.122 0-2.115-.375-2.726-.889l.909-1.667c.525.348 1.022.556 1.69.556 1.207 0 1.945-.847 1.945-2.069v-.375c-.511.597-1.235.889-2.03.889-1.946-.001-3.422-1.584-3.422-3.556s1.476-3.556 3.421-3.556c.795 0 1.519.292 2.03.889zm-1.59 4.888c.866 0 1.59-.708 1.59-1.556 0-.847-.724-1.556-1.59-1.556s-1.59.708-1.59 1.556.724 1.556 1.59 1.556zm11.262 1.778h-2.271v-.556c-.44.486-1.051.778-1.846.778-1.59 0-2.47-1.083-2.47-2.319 0-1.833 2.3-2.514 4.287-1.931-.043-.597-.426-1.028-1.221-1.028-.554 0-1.193.208-1.59.431l-.681-1.597c.525-.333 1.491-.667 2.612-.667 1.661 0 3.18.917 3.18 3.417zm-2.271-2.639c-1.065-.333-2.044-.153-2.044.583 0 .431.369.722.809.722.525.001 1.121-.416 1.235-1.305zm5.697-7.583v4.222c.511-.597 1.235-.889 2.03-.889 1.945 0 3.421 1.583 3.421 3.556s-1.476 3.556-3.421 3.556c-.795 0-1.519-.292-2.03-.889v.667h-2.271v-10.223zm1.59 8.444c.866 0 1.59-.708 1.59-1.556 0-.847-.724-1.556-1.59-1.556s-1.59.708-1.59 1.556.724 1.556 1.59 1.556z"/></svg>