<svg xmlns="http://www.w3.org/2000/svg" enable-background="new 0 0 24 24" viewBox="0 0 24 24"><path fill="#212121" d="m1.535 6.002c3.494-2.004 6.988-4.005 10.483-6.002 3.493 1.998 6.992 3.99 10.481 5.996-.004 4.007-.006 8.014.002 12.021-3.487 2.009-6.99 3.987-10.484 5.984-3.504-2.014-7.025-3.995-10.517-6.026 1.393-.79 2.785-1.582 4.181-2.368 2.111 1.212 4.229 2.417 6.335 3.637 2.102-1.229 4.232-2.411 6.326-3.652-.019-1.604-.002-3.206-.009-4.81-2.104 1.215-4.21 2.428-6.317 3.638-3.496-1.98-6.982-3.982-10.479-5.966 0-.818.002-1.636-.002-2.452zm6.208 1.203c1.418.829 2.851 1.636 4.273 2.458 1.432-.818 2.862-1.637 4.296-2.454-1.435-.812-2.863-1.636-4.296-2.451-1.425.814-2.845 1.64-4.273 2.447z"/></svg>