<svg xmlns="http://www.w3.org/2000/svg" enable-background="new 0 0 24 24" viewBox="0 0 24 24"><path d="M12,24c6.629,0,12-5.371,12-12S18.629,0,12,0S0,5.371,0,12S5.371,24,12,24z M14.395,5.868l6.082,6.082l-6.082,6.077v0.002l-1.703-1.703l1.167-1.181l0.537,0.537l3.736-3.736l-3.736-3.736l-1.282,1.282l2.569,2.56l-1.181,1.181l-3.736-3.736L14.395,5.868z M9.605,5.972l1.703,1.713l-1.171,1.171L9.601,8.318l-3.736,3.736l3.736,3.736l1.287-1.287l-2.569-2.56L9.5,10.761l3.736,3.736l-3.629,3.639H9.605l-6.082-6.082L9.605,5.972z"/></svg>