<svg xmlns="http://www.w3.org/2000/svg" enable-background="new 0 0 24 24" viewBox="0 0 24 24"><path fill="#E24329" d="M12,23.054l4.419-13.6H7.581L12,23.054L12,23.054z"/><path fill="#FC6D26" d="M12,23.054l-4.419-13.6H1.388L12,23.054z"/><path fill="#FCA326" d="M1.388,9.453l-1.343,4.133c-0.122,0.377,0.012,0.79,0.332,1.023L12,23.054L1.388,9.453L1.388,9.453z"/><path fill="#E24329" d="M1.388,9.454h6.193L4.919,1.262c-0.137-0.422-0.733-0.421-0.87,0L1.388,9.454L1.388,9.454z"/><path fill="#FC6D26" d="M12,23.054l4.419-13.6h6.193L12,23.054L12,23.054z"/><path fill="#FCA326" d="M22.612,9.453l1.343,4.133c0.122,0.377-0.012,0.79-0.332,1.023L12,23.054L22.612,9.453L22.612,9.453z"/><path fill="#E24329" d="M22.612,9.454h-6.193l2.662-8.191c0.137-0.422,0.733-0.421,0.87,0L22.612,9.454L22.612,9.454z"/></svg>