<svg xmlns="http://www.w3.org/2000/svg" enable-background="new 0 0 24 24" viewBox="0 0 24 24"><path fill="#1F98FF" d="M24,22V2c0-1.105-0.895-2-2-2H2C0.895,0,0,0.895,0,2v20c0,1.105,0.895,2,2,2h20C23.105,24,24,23.105,24,22z M20.57,12.591c0,0.096-0.123,0.193-0.219,0.187c-0.947-0.155-1.372-0.279-1.966-0.279c-1.21,0-2.056,0.36-3.128,0.901c-0.284,0.144-0.155,0.235-0.659,2.255c-0.584,2.249-2.47,4.912-5.051,4.912c-1.762,0-2.855-1.2-2.855-2.93c0-0.943,0.622-2.711,1.752-2.711c0.397,0,1.955,0.514,1.966,0.921c-0.016,0.08-1.516,0.728-1.516,2.035c0,1.286,2.464,1.146,3.026-3.155c0-0.155,0.033-0.123-0.369-0.123c-2.908,0-4.623-1.623-4.623-4.553c0-2.823,1.945-6.616,5.786-6.616c2.341,0,3.616,0.969,3.616,3.359c0,1.618-0.551,3.107-0.782,4.682l0.026,0.026c1.045-0.59,1.88-1.152,3.118-1.152c0.129,0,0.397,0.076,0.514,0.124c0.252,0.097,1.366,1.843,1.366,2.116L20.57,12.591z"/><path fill="#1F98FF" d="M12.884,5.289c-0.263,0-0.525,0.092-0.755,0.225c-1.463,0.803-2.063,2.882-2.063,4.451c0,1.045,0.359,2.438,1.634,2.438c0.289,0,0.658,0.074,0.734-0.263c0.305-1.489,0.616-2.99,0.927-4.479c0.096-0.466,0.182-0.943,0.182-1.415l0.001,0.001C13.544,5.734,13.495,5.289,12.884,5.289z"/></svg>