<svg xmlns="http://www.w3.org/2000/svg" enable-background="new 0 0 24 24" viewBox="0 0 24 24"><path fill="#A22430" d="M4.175,0C2.422,0,1,1.413,1,3.156V15.77c0,1.744,1.422,3.158,3.175,3.158h9.419C13.577,22.498,8.739,24,8.739,24s8.183-0.038,9.357-5.072h1.73c1.754,0,3.175-1.414,3.175-3.157V3.157C23,1.413,21.578,0,19.826,0H4.175L4.175,0z M7.082,4.695c0-0.88,1.136-2.084,1.646-2.17L8.727,2.53C8.8,2.517,8.86,2.527,8.902,2.564c0.337,0.3-0.559,0.593-0.487,2.063c0.032,0.646-0.161,1.146,1.082,1.146c0.831,0,0.486-0.734,1.532-0.734c0.66,0,0.865,0.435,0.939,0.767c0.072-0.33,0.276-0.768,0.935-0.768c1.046,0,0.704,0.733,1.534,0.733c1.244,0,1.05-0.5,1.082-1.146c0.072-1.47-0.825-1.764-0.487-2.063c0.042-0.037,0.101-0.042,0.173-0.02c0.503,0.143,1.616,1.558,1.647,2.155c0.038,0.71,0.04,1.825-1.021,2.407c1.197,1.167,1.36,2.72,1.36,2.72L15.134,9.79c0,0-0.466-2.118-2.956-2.01C9.69,7.888,9.366,8.318,9.366,10.936c0,2.618,1.153,3.517,2.921,3.585c2.775,0.108,2.524-1.433,2.524-1.433l-1.297,0.072l-0.722-1.937h4.435c0,2.116-0.902,5.414-5.12,5.2c-4.219-0.216-5.157-3.515-5.193-5.74C6.896,9.458,7.103,8.081,8.121,7.109C7.063,6.529,7.082,5.409,7.082,4.695z"/></svg>