<svg xmlns="http://www.w3.org/2000/svg" enable-background="new 0 0 24 24" viewBox="0 0 24 24"><path fill="#FB8551" d="M13.124,4.794c1.898,0,3.688,0.75,5.03,2.111l3.348-3.391C19.256,1.248,16.283,0,13.112,0C6.517,0,1.25,5.39,1.25,12c0,6.562,5.214,12,11.862,12c3.398,0,6.692-1.403,9.192-4.419c-0.108-1.479-0.72-4.162-3.638-4.162v-0.001h-0.71v1.859c-1.316,1.238-3.026,1.918-4.832,1.918c-3.934,0-7.116-3.225-7.116-7.2C6.007,8.025,9.19,4.794,13.124,4.794z"/><path fill="#FB8551" d="M22.75,14.758c0-3.493-2.172-5.368-4.736-5.368H12.3v4.768h6.364c1.8,0,3.252,0.809,4.086,2.239V14.758z"/></svg>