<svg xmlns="http://www.w3.org/2000/svg" enable-background="new 0 0 24 24" viewBox="0 0 24 24"><path d="M21.37 11.537h.01V5.636c0-.574-.47-1.047-1.05-1.047H16.9c-.58 0-1.05.473-1.05 1.047V9.1c0 .584.47 1.047 1.05 1.047h2.31V8.788h-1.62c-.22 0-.4-.171-.4-.403V6.351c0-.223.179-.403.4-.403h2.03c.221 0 .4.18.4.403v4.481c0 .222-.179.403-.4.403h-3.78v1.36h4.48C20.9 12.594 21.37 12.121 21.37 11.537zM8.16 11.537H8.15V5.636c0-.574-.47-1.047-1.05-1.047H3.68c-.58 0-1.05.473-1.05 1.047V9.1c0 .584.47 1.047 1.05 1.047H6V8.788H4.38c-.22 0-.4-.171-.4-.403V6.351c0-.223.179-.403.4-.403.004 0 .007 0 .01 0h2.02c.221 0 .4.18.4.403v4.481c0 .222-.179.403-.4.403H2.63v1.36h4.48C7.69 12.594 8.16 12.121 8.16 11.537zM9.24 19.412h3.39c.57 0 1.03-.463 1.03-1.037v-3.414c0-.564-.46-1.027-1.03-1.027H9.24c-.57 0-1.03.463-1.03 1.027v3.414C8.21 18.948 8.67 19.412 9.24 19.412zM9.54 15.666c0-.222.18-.403.4-.403h2c.22 0 .4.181.4.403h-.01v2.014c0 .222-.179.403-.4.403v-.01H9.94c-.221 0-.4-.18-.4-.403V15.666zM3.96 17.68v-2.014c0-.223.179-.403.4-.403h2.79v-1.329H3.67c-.57 0-1.03.463-1.03 1.027v3.414c0 .574.46 1.037 1.02 1.037h3.5v-1.329h-2.8C4.14 18.082 3.96 17.891 3.96 17.68zM10.28 10.147h3.44c.57 0 1.04-.463 1.04-1.047V5.636c0-.574-.47-1.047-1.04-1.047h-3.44c-.58 0-1.04.473-1.04 1.047V9.1C9.24 9.684 9.7 10.147 10.28 10.147zM10.59 6.361c0-.222.17-.403.4-.403H13c.23 0 .4.181.4.403l.02-.01v2.034c0 .223-.179.403-.4.403h-2.03c-.221 0-.4-.18-.4-.403V6.361z"/><path d="M1.74,23.5c0.004,0,0.007,0,0.011,0H22.25c0.003,0,0.006,0,0.01,0c0.961,0,1.74-0.784,1.74-1.752c0-0.004,0-0.007,0-0.01c0,0,0-0.001,0-0.001V2.262c0-0.483-0.2-0.926-0.51-1.249v0.01C23.174,0.7,22.735,0.5,22.25,0.5H1.75c-0.003,0-0.006,0-0.01,0C0.779,0.5,0,1.285,0,2.252c0,0.004,0,0.007,0,0.01c0,0,0,0.001,0,0.001v19.475c0,0.003,0,0.006,0,0.01C0,22.716,0.779,23.5,1.74,23.5z M0.5,21.738C0.5,21.737,0.5,21.737,0.5,21.738V2.262c0-0.003,0-0.007,0-0.01c0-0.684,0.551-1.239,1.23-1.239c0.004,0,0.007,0,0.011,0H22.24c0.685,0,1.24,0.559,1.24,1.249v19.475h0.01c0,0.003,0,0.007,0,0.01c0,0.684-0.551,1.239-1.23,1.239c-0.004,0-0.007,0-0.011,0H1.75c-0.006,0-0.013,0-0.02,0c-0.679,0-1.23-0.555-1.23-1.239C0.5,21.744,0.5,21.741,0.5,21.738z"/><path d="M14.72 19.412h1.33v-3.746c0-.223.179-.403.4-.403h.93v4.149h1.33v-3.746c0-.223.179-.403.4-.403h.93v4.149h1.32v-5.478h-5.61c-.57 0-1.03.463-1.03 1.027V19.412zM.435 9.205C.435 9.205.435 9.204.435 9.205c.004-.008.006-.015.01-.022L.435 9.205z"/></svg>