<svg xmlns="http://www.w3.org/2000/svg" enable-background="new 0 0 24 24" viewBox="0 0 24 24"><path fill="#eceff1" d="m22 0h-20c-1.105 0-2 .895-2 2v20c0 1.105.895 2 2 2h20c1.105 0 2-.895 2-2v-20c0-1.105-.895-2-2-2z"/><g stroke-width=".094"><path fill="#dd4b39" stroke="#dd4b39" d="m12.004 2.571c.052.03.096.074.136.118 1.52 1.533 3.043 3.066 4.558 4.603-.957.946-1.898 1.906-2.848 2.856-.357.362-.721.717-1.074 1.086-.265-.643-.519-1.289-.773-1.936 0-.672.004-1.345 0-2.021-.003-1.566-.006-3.136.001-4.706z"/><path fill="#ef851c" stroke="#ef851c" d="m7.291 7.277h4.713c.004.676 0 1.348 0 2.021-.261.635-.515 1.275-.765 1.917-.081-.044-.14-.111-.202-.177l-3.731-3.746z"/><path fill="#7e3794" stroke="#7e3794" d="m16.699 7.292.015-.011c-.004 1.574-.004 3.151 0 4.725h-2.027c-.633-.266-1.273-.51-1.909-.772.353-.369.717-.724 1.074-1.086.948-.95 1.89-1.91 2.847-2.856z"/><path fill="#ffbb1b" stroke="#ffbb1b" d="m6.522 8.072c.265-.255.511-.528.784-.779l3.731 3.746c.063.066.121.133.202.177-.085.063-.191.085-.287.129-.545.222-1.096.429-1.637.665-.673-.007-1.347-.004-2.02-.004-1.567-.004-3.135.007-4.702-.004 1.306-1.315 2.619-2.623 3.929-3.93z"/><path fill="#1a8763" stroke="#1a8763" d="m7.295 12.006c.673 0 1.347-.004 2.02.004.636.262 1.273.51 1.909.768-1.045 1.064-2.101 2.113-3.149 3.173-.265.251-.504.528-.784.765 0-1.57-.004-3.14.004-4.71z"/><path fill="#427fed" stroke="#427fed" d="m14.686 12.006h2.027c1.564.004 3.131-.004 4.695.004-1.004 1.023-2.024 2.036-3.032 3.051-.559.558-1.111 1.123-1.67 1.673-1.251-1.271-2.52-2.527-3.775-3.798-.052-.055-.107-.103-.169-.14.107-.067.224-.1.338-.148.53-.213 1.06-.42 1.586-.642z"/><path fill="#65b045" stroke="#65b045" d="m11.224 12.778c.269.643.511 1.293.78 1.936-.004.672 0 1.348-.004 2.021v3.251c-.007.484.011.968-.007 1.448-.077-.037-.125-.107-.188-.166-1.505-1.518-3.006-3.037-4.514-4.551.28-.236.519-.513.784-.765 1.048-1.061 2.104-2.11 3.149-3.174z"/><path fill="#43459d" stroke="#43459d" d="m12.762 12.797c.063.037.118.085.169.14 1.255 1.271 2.524 2.527 3.775 3.798-1.571-.004-3.138.004-4.706 0 .004-.672 0-1.348.004-2.021.247-.639.511-1.275.758-1.917z"/></g></svg>