<svg xmlns="http://www.w3.org/2000/svg" enable-background="new 0 0 24 24" viewBox="0 0 24 24"><path fill="#009688" d="m12 20.182v3.818c6.383-3.191 10.5-8.333 10.5-13.637 0-.001 0-.003 0-.005 0-5.721-4.698-10.358-10.495-10.358-.002 0-.004 0-.005 0v.001c-.002 0-.004 0-.006 0-5.796 0-10.494 4.637-10.494 10.357v.006c0 5.427 5.014 9.818 10.5 9.818zm-.022-4.198c-3.235 0-6.079-2.631-6.079-5.868 0-.743.15-1.518.479-2.3 1.052-2.452 3.322-3.589 5.587-3.589 3.069 0 6.128 2.089 6.128 5.825 0 2.188-1.232 3.198-2.401 3.198-.73 0-1.434-.393-1.8-1.139-.516.772-1.32 1.127-2.142 1.127-1.484 0-3.024-1.156-3.024-3.093.009-.101-.03-.613.235-1.28.509-1.17 1.637-1.855 2.722-1.855.671 0 1.327.262 1.81.832h.097v-.613h1.312v3.832c0 .478.271.98.857.98.738 0 1.02-.875 1.02-1.851 0-.687-.139-1.424-.357-1.941-.875-1.947-2.616-2.831-4.347-2.831-2.409 0-4.796 1.711-4.796 4.648 0 2.859 2.396 4.643 4.748 4.643.694 0 1.384-.155 2.007-.484l.483 1.199c-.844.385-1.704.56-2.539.56z"/><path d="m15.429 6.789v.001h.001z"/><path fill="#009688" d="m11.834 8.4v.001c-.879 0-1.712.615-1.712 1.758 0 1.172.856 1.758 1.711 1.758.856 0 1.713-.586 1.713-1.759 0-1.488-1.269-1.757-1.712-1.758z"/><path d="m12.495 11.791-.01.003-.002.001z"/></svg>