<svg xmlns="http://www.w3.org/2000/svg" enable-background="new 0 0 24 24" viewBox="0 0 24 24"><path fill="#F57C00" d="M22.074,0h-4.342c-1.058,0-1.926,0.868-1.926,1.926V24h6.268C23.132,24,24,23.132,24,22.074V1.926C24,0.868,23.132,0,22.074,0z"/><path fill="#FFC107" d="M7.579,9.474v6.316H1.895C0.853,15.789,0,16.642,0,17.684v4.421C0,23.147,0.853,24,1.895,24h13.895V7.579H9.474C8.432,7.579,7.579,8.432,7.579,9.474z"/><linearGradient id="a" x1="36.39" x2="37.102" y1="844.005" y2="844.717" gradientTransform="translate(-586.322 -13858.825) scale(16.4342)" gradientUnits="userSpaceOnUse"><stop offset="0" stop-color="#bf360c" stop-opacity=".2"/><stop offset="1" stop-color="#bf360c" stop-opacity=".02"/></linearGradient><path fill="url(#a)" d="M15.789,7.579V24h6.268c1.058,0,1.926-0.868,1.926-1.926v-6.284L15.789,7.579z"/></svg>