<svg xmlns="http://www.w3.org/2000/svg" enable-background="new 0 0 24 24" viewBox="0 0 24 24"><path fill="#2BB965" d="M5.894,9H0.931C0.585,9,0.373,9.402,0.585,9.68c2.247,2.909,3.817,6.311,4.882,10.034h5.511c-0.862-3.734-2.06-7.162-4.392-10.366C6.425,9.134,6.159,9,5.894,9z"/><path fill="#D34145" d="M21.85,24c-0.639-7.393-3.641-14.197-7.623-19.714H8.44H8.439C12.086,10.072,15.36,16.848,15.796,24H21.85z"/><polygon points="8.423 5.079 8.424 5.081 8.424 5.079"/><path fill="#FBD553" d="M12.911,13.784c-1.071-2.645-2.486-5.457-4.487-8.703c-0.037,2.073,0.186,4.065-0.16,6.014c1.571,2.529,2.278,5.153,2.981,7.955C11.911,17.346,12.47,15.594,12.911,13.784z"/><path fill="#518CF1" d="M23.5,12.006c0-3.943-0.644-7.774-1.656-11.39C21.749,0.251,21.408,0,21.035,0h-4.701c-0.282,0-0.479,0.267-0.416,0.552c0.703,2.491,1.187,5.117,1.411,7.822c2.566,4.618,4.243,9.552,4.824,14.508C22.995,19.64,23.5,15.729,23.5,12.006z"/></svg>