<svg xmlns="http://www.w3.org/2000/svg" enable-background="new 0 0 24 24" viewBox="0 0 24 24"><path d="M20.214 7.078c-.27-.644-1.001-.944-1.639-.684-.632.27-.937.989-.67 1.634.27.629 1.007.929 1.638.674l-.001.002C20.173 8.445 20.474 7.715 20.214 7.078zM3.245 9.795C3.501 9.161 3.2 8.43 2.554 8.162 1.923 7.905 1.187 8.215.915 8.846c-.27.636.03 1.364.662 1.624.646.265 1.367-.039 1.639-.675H3.245zM6.071 8.031c.256-.637-.045-1.37-.676-1.634C4.763 6.138 4.027 6.446 3.756 7.081 3.485 7.717 3.802 8.444 4.434 8.702v.002C5.079 8.967 5.801 8.663 6.071 8.031zM.87 14.578c.922 1.26 1.857 3.011 2.59 6.084 2.275-.375 6.157-.601 8.508-.601 2.345.015 6.229.284 8.493.689.767-3.071 1.713-4.809 2.646-6.053l-1.773-.644-.014-.015c.16.88.188 1.28-.015 1.853-.285-.285-.54-.804-.749-1.589l-.872 2.781c.52-.345.915-.563 1.364-.569-.815 1.707-1.819 2.139-2.461 2.014-.787-.158-1.15-.864-1.012-1.461.175-.839 1.052-1.049 1.448-.067.792-1.561-.52-2.071-1.368-1.619 1.313-1.276 1.468-2.418.426-3.823-1.464 1.102-1.49 2.203-.851 3.76-.842-.982-2.18-.464-1.713 1.109.627-.946 1.432-.345 1.298.563-.109.793-1.163 1.408-2.461 1.288-1.864-.164-1.954-1.452-1.983-2.517.451-.074 1.277.36 1.983 1.35l.286-2.952c-.767.779-1.474.943-2.24.959.271-.778 1.459-2.083 1.459-2.083l-3.729-.045c0 0 1.188 1.319 1.443 2.112-.768-.014-1.459-.163-2.225-.958l.255 2.951c.706-.988 1.534-1.407 1.984-1.334-.045 1.05-.15 2.338-2.015 2.503-1.293.105-2.345-.524-2.449-1.319-.121-.898.691-1.498 1.307-.539.481-1.573-.856-2.097-1.699-1.123.662-1.559.647-2.667-.811-3.777C4.869 12.9 5.02 14.039 6.327 15.344c-.842-.465-2.165.029-1.383 1.602.405-.989 1.278-.763 1.458.076.12.599-.24 1.304-1.021 1.452-.646.121-1.639-.314-2.451-2.037.451.016.842.24 1.354.585l-.859-2.774c-.209.778-.48 1.291-.766 1.573-.186-.568-.166-.974.014-1.853L.87 14.578zM22.322 10.427h.015c.631-.256.931-.99.676-1.634-.271-.63-1.008-.943-1.639-.675-.646.27-.947.989-.676 1.634C20.954 10.381 21.691 10.681 22.322 10.427zM9.23 9.078c.255-.644-.046-1.378-.691-1.634-.634-.27-1.37.046-1.626.674-.27.63.045 1.363.677 1.62v.014C8.236 10.007 8.958 9.707 9.23 9.078zM.764 13.699c.632.266 1.368-.037 1.623-.671h.014c.261-.638-.04-1.369-.682-1.633-.631-.261-1.362.049-1.623.686C-.17 12.717.135 13.44.764 13.699zM16.808 7.923c-.271-.644-.993-.944-1.64-.689-.631.27-.932 1.005-.661 1.634.271.629.993.929 1.64.66l-.016.029C16.762 9.287 17.063 8.553 16.808 7.923zM9.426 4.959L9.519 7.35l1.752-.92c.035.039.079.078.12.107-.181.716-.621 1.908-.896 2.567-.335.809.051 1.738.862 2.071.812.33 1.747-.06 2.083-.869.241-.568.121-1.184-.24-1.618C12.809 8.012 12.419 7.16 12.208 6.5c.061-.045.105-.105.15-.15l1.895.974.09-2.382-1.969.63c-.016-.031-.031-.061-.045-.075l.766-2.174-2.33-.074.707 2.141c-.061.031-.105.076-.15.137L9.426 4.959zM23.9 12.029c-.271-.644-1.008-.944-1.639-.674-.646.255-.945.989-.676 1.634l.015.015c.271.629.993.93 1.639.659C23.871 13.393 24.172 12.674 23.9 12.029z"/></svg>