<svg xmlns="http://www.w3.org/2000/svg" enable-background="new 0 0 24 24" viewBox="0 0 24 24"><path d="M6.167,18.822c-0.004-0.005-0.007-0.01-0.011-0.015c-0.001-0.001-0.001-0.001-0.002-0.002L6.167,18.822z"/><linearGradient id="a" x1="12.003" x2="12.003" y1="21.167" y2="2.167" gradientUnits="userSpaceOnUse"><stop offset="0" stop-color="#f9c800"/><stop offset="1" stop-color="#eb5c10"/></linearGradient><path fill="url(#a)" d="M5.159,17.356c0.571,1.03,1.053,1.538,1.465,2.002c-0.701,2.002,0.106,3.684,0.106,3.684c2.143,0.085,3.543-0.937,3.84-1.171c0.144,0.034,1.221,0.445,2.631,0.49h0.87c0.997,1.448,2.78,1.64,2.78,1.64c0.731-0.784,1.27-1.707,1.337-3.067c1.83-1.378,1.935-2.021,2.185-2.278c1.422,0.085,2.419-0.894,2.419-0.894c-0.066-0.425-0.279-1.53-1.314-2.406c0-2.29,0.063-3.321-2.038-5.496c-1.047-0.934-1.986-1.208-3.203-1.449c-5.466-0.853-7.681,6.636-2.992,8.111c0.787,0.248,1.509,0.086,1.61,0.086c1.714-0.565,0.979-0.982,0.718-0.873l0.002-0.001c-0.279,0.28-1.38,0.255-1.215,0.255h-0.078c-0.022,0-0.064,0-0.085-0.021c-3.558-0.656-2.397-5.6,0.596-5.6c3.599,0,5.339,3.931,3.182,6.815c-1.801,2.454-4.707,2.087-4.181,2.087c-7.613,0-8.559-11.087-2.632-13.477c0.712-0.349,1.511-0.503,1.612-0.555c0.013,0,1.058-0.168,1.059-0.169c0.101,0,0.217,0.012,0.318-0.021c0.198,0.029,2.04-0.216,4.046,0.817c0.865,0.426,1.676,1.062,1.725,1.163c0.021,0.021,0.064,0.043,0.085,0.085c0.04,0.027,0.3,0.272,0.339,0.298c0.171,0.255,0.734,0.599,1.592,2.235c0.012,0.012,0.085,0.19,0.128,0.234c0.611,1.258,0.446,1.782,0.764,1.789c0.249,0,0.175-0.345,0.127-1.044h0.004c-0.264-2.494-1.207-3.946-2.61-5.494c0.34-1.342-0.404-2.513-0.404-2.513c-1.294-0.085-2.1,0.405-2.397,0.618c-0.725-0.355-2.158-0.682-2.397-0.682C14.601,0.766,12.988,0,12.988,0c-1.895,1.225-2.178,2.775-2.228,2.875c-0.466,0.093-1.745,0.628-2.678,1.296l0.026-0.018C8.065,4.132,8.044,4.11,8.044,4.11C5.561,3.152,3.355,4.302,3.355,4.302C3.164,6.963,4.353,8.624,4.586,8.922c-0.531,1.415-0.558,2.397-0.616,2.62C1.679,12.671,1,15.013,1,15.013C2.91,17.228,5.159,17.356,5.159,17.356z"/><polygon points="11.426 15.254 11.423 15.249 11.419 15.245"/><path d="M20.705,11.281c0.004,0.006,0.006,0.013,0.01,0.019c0.002,0.003,0.004,0.006,0.006,0.009L20.705,11.281z"/></svg>