<svg xmlns="http://www.w3.org/2000/svg" enable-background="new 0 0 24 24" viewBox="0 0 24 24"><path d="M18.104,7.621l0.01-0.008c0.591-1.131-0.247-1.791-0.825-2.332c-0.924-0.87-1.846-1.245-2.9-0.029c-1.052,1.199-0.383,2.609,0.58,3.284C15.929,9.226,17.504,8.762,18.104,7.621z M16.519,7.15c-0.372-0.445,0.322-1.252,0.757-0.77C18.076,7.27,16.889,7.596,16.519,7.15z"/><ellipse cx="11.715" cy="9.424" rx=".361" ry=".361" transform="rotate(-44.944 11.716 9.425)"/><path d="M12,0C5.373,0,0,5.373,0,12s5.373,12,12,12s12-5.373,12-12S18.627,0,12,0z M5.262,14.701c0.135-0.165,0.285-0.3,0.404-0.404c-0.09-0.09-0.135-0.21-0.149-0.36c-0.075-0.345-0.045-0.78,0.45-1.485c0.09-0.149,0.21-0.3,0.345-0.449l0.015-0.016l0.016-0.015v-0.015c0.029-0.046,0.074-0.076,0.104-0.12c0.57-0.585,1.485-1.2,2.911-1.74c0.022-0.032,0.039-0.056,0.061-0.088c0.419,0.525,0.554,1.304,0.568,2.022v0.255c-0.029,0.601-0.21,1.41-0.585,1.41v0.016c-0.39-0.016-0.885,0.074-1.319,0.21l-0.961,0.239c0,0,0.51-0.015,0.78,0.226c-0.314,0.51-1.005,1.125-1.771,1.484C5.022,16.396,4.692,15.361,5.262,14.701z M18.415,14.116l0.074-0.151c-1.251-0.825-1.965-1.523-2.589-2.777c-0.427,0.859-1.421,2.135-3.098,3.139c-0.84,2.61-4.823,7.605-6.113,6.885c-0.381-0.195-0.452-0.48-0.367-0.765c0.093-0.704,1.566-2.34,1.566-2.34s0.029,0.345,0.494,1.065c-0.629-1.936,1.021-4.305,1.456-5.131c0.689-0.209,0.734-1.095,0.734-1.095c0.046-1.362-0.567-2.337-1.153-2.937c1.644-2.405,2.248-2.868,2.248-2.868c0.181-0.179,0.511-0.419,0.615-0.479c-0.87-1.515-1.049-3.646-0.824-4.215c-0.03,0.03-0.046,0.06-0.061,0.105c0.09-0.195,0.135-0.255,0.225-0.36c0.24-0.27,1.035-0.42,1.336,0.18c0.15,0.315,0.18,0.735,0.18,1.035c-0.645-0.029-1.215,0.69-1.215,0.69s0.524-0.24,1.186-0.255c0,0,0.179,0.164,0.389,0.449c-0.284,0.556-0.779,1.725-0.42,2.971c0.061,0.24,0.15,0.45,0.256,0.629c0.015,0.016,0.015,0.016,0.015,0.031l0.03,0.029c0.585,0.886,1.649,0.976,1.649,0.976c-0.495-0.24-0.915-0.646-1.169-1.125c-0.136-0.255-0.227-0.48-0.271-0.646c-0.285-1.08,0.135-1.725,0.375-2.145c0.54-0.84,1.544-1.351,2.609-1.23c1.5,0.165,2.581,1.53,2.399,3.03c-0.104,0.915-0.659,1.681-1.409,2.085c0.181,0.494-0.015,1.08-0.015,1.08c0.449,0.57,0.479,0.9,0.465,1.215c-0.585-0.09-1.141,0.301-1.141,0.301s1.111-0.256,1.756,0.314c0.42,0.449,0.704,0.87,0.869,1.17c0.24,0.435,1.35,0.465,1.229,1.23C20.59,14.985,19.736,14.985,18.415,14.116z"/><ellipse cx="12.474" cy="8.662" rx=".361" ry=".361" transform="rotate(-45.001 12.474 8.662)"/><path d="M13.665,9.344v0.011c-0.22-0.219-0.574-0.219-0.795,0l-0.465,0.468c-0.222,0.21-0.222,0.57,0,0.796l0.51,0.51c0.222,0.225,0.577,0.21,0.795,0l0.47-0.466c0.221-0.225,0.221-0.585,0-0.794L13.665,9.344z"/></svg>