<svg xmlns="http://www.w3.org/2000/svg" enable-background="new 0 0 24 24" viewBox="0 0 24 24"><path fill="#CF4547" d="M6.396,12.242c-0.572,0.834-1.055,5.142-2.01,5.142c-0.958,0,0.14-2.734,0.445-3.677c-3.592,4.006-6.04,1.824-4.184-3.275C2.091,6.461,5.73,2.637,8.01,6.065c0.31,0.453,0.188,1.339-0.377,1.339c-0.65,0-0.686-1.496-1.727-1.496c-2.035,0-5.122,6.207-4.281,8.105c0.632,1.445,3.267-1.531,3.74-2.53c0.411-1.135,0.568-2.519,1.395-2.24C7.543,9.511,6.663,11.463,6.396,12.242L6.396,12.242z M14.318,13.701c-1.363,1.832-4.066,3.18-3.424,0.282c-0.991,1.762-3.575,2.446-3.575,0.581c0.215-1.372,0.8-2.714,1.401-3.966c0.262-0.563,0.723-0.632,1.036-0.421c0.613,0.419-0.516,1.346-1.018,3.148c-0.068,0.244-0.168,0.683-0.044,0.905c0.147,0.26,0.728,0.031,0.986-0.156c1.514-1.091,1.892-3.33,2.332-3.847c0.195-0.231,0.536-0.211,0.704,0.007c0.296,0.385,0.067,0.794-0.446,1.957c-0.261,0.593-0.947,2.285-0.302,2.285c0.721,0,1.845-1.1,2.287-1.786L14.318,13.701L14.318,13.701z"/><path fill="#CF4547" d="M14.513,13.329c-0.849,2.09,1.117,0.614,2.577-0.863c0.255-0.266,0.722,0.009,0.439,0.633c-0.108,0.238-2.153,2.567-3.512,2.567c-1.847,0-0.364-3.108,0.27-4.702c1.691-4.17,2.018-5.935,2.95-5.202C17.735,6.153,17.228,6.337,14.513,13.329L14.513,13.329z"/><path fill="#CF4547" d="M23.415,11.981c0.725-0.495,0.745,0.623,0.245,1.019c-1.221,1.082-1.516,1.417-2.195,1.931c-1.151,0.87-2.868,1.097-2.868-0.041c0.023-1.026,2.149-2.726,2.149-3.386c0-0.528-1.974-0.458-4.077,5.072c-0.467,1.236-0.96,3.269-1.926,2.575c-0.549-0.402,0.459-2.038,1.577-4.576c1.041-2.353,1.494-4.973,2.321-4.13c0.2,0.204,0.064,0.843-0.012,1.03c2.099-2.293,3.921-1.361,3.238,0.175c-0.389,0.875-1.114,1.643-1.791,2.441c-0.348,0.412-0.053,0.594,0.393,0.339C21.062,14.09,22.811,12.521,23.415,11.981L23.415,11.981z"/></svg>