<svg xmlns="http://www.w3.org/2000/svg" enable-background="new 0 0 24 24" viewBox="0 0 24 24"><linearGradient id="a" x1=".543" x2="23.457" y1="12" y2="12" gradientUnits="userSpaceOnUse"><stop offset="0" stop-color="#15998f"/><stop offset="1" stop-color="#f16533"/></linearGradient><path fill="url(#a)" d="M3.322,3.107h16.116c0.355,0.683,1.068,1.151,1.889,1.151c1.174,0,2.129-0.955,2.129-2.129C23.457,0.955,22.502,0,21.327,0c-0.891,0-1.654,0.55-1.971,1.329H3.322c-1.558,0-2.779,1.182-2.779,2.69v17.156C0.543,22.706,1.816,24,3.322,24h17.156c1.509,0,2.737-1.267,2.737-2.825V10.998c0-1.532-1.228-2.779-2.737-2.779H10.3c-1.554,0-2.867,1.273-2.867,2.779v3.198c0,1.484,1.286,2.691,2.867,2.691h3.554c0.317,0.778,1.081,1.328,1.971,1.328c1.174,0,2.129-0.955,2.129-2.129c0-1.174-0.955-2.129-2.129-2.129c-0.822,0-1.535,0.469-1.889,1.152H10.3c-0.524,0-1.089-0.349-1.089-0.913v-3.198c0-0.524,0.519-1.001,1.089-1.001h10.177c0.538,0,0.959,0.44,0.959,1.001v10.177c0,0.567-0.439,1.047-0.959,1.047H3.322c-0.533,0-1.001-0.489-1.001-1.047V4.019C2.321,3.499,2.752,3.107,3.322,3.107z M21.327,1.111c0.563,0,1.018,0.456,1.018,1.018c0,0.562-0.455,1.018-1.018,1.018c-0.561,0-1.017-0.456-1.017-1.018C20.31,1.567,20.766,1.111,21.327,1.111z M15.826,15.069c0.562,0,1.018,0.456,1.018,1.018c0,0.562-0.456,1.018-1.018,1.018c-0.562,0-1.018-0.456-1.018-1.018C14.808,15.525,15.263,15.069,15.826,15.069z"/></svg>