<svg xmlns="http://www.w3.org/2000/svg" enable-background="new 0 0 24 24" viewBox="0 0 24 24"><path fill="#29A8ED" d="M15.265 9.055c0 0 2.737.035 3.225 0 .487-.034.469-.479.469-.479s.035-5.427 0-6.085c-.035-.661-.547-.464-.547-.464s-2.756.702-3.268.89c-.516.196-.471.65-.471.65v5.077C14.673 9.107 15.265 9.055 15.265 9.055zM8.78 6.685c0 0 .356.015.383-.369.025-.385 0-1.318 0-1.318s-.07-.394-.375-.343H8.786c-.301.051-3.405.89-3.405.89S4.894 5.769 4.947 6.171c.042.403.357.514.357.514H8.78zM23.745 13.542h-4.26c-.32 0-.58-.258-.58-.573v-2.123c0-.266-.218-.472-.48-.472H9.649c-.262 0-.479-.215-.479-.471V7.499c0-.02-.003-.036-.007-.052C9.134 7.339 9.02 7.274 8.909 7.303l-8.76 2.491c-.226.067-.183.392.052.402l3.998.069c.354.007.635.293.634.64v2.492c.002.112.095.203.209.204h9.394c.115.001.207.094.209.207v2.218c-.002.044.006.089.019.131.072.245.333.384.581.312l8.568-2.431C24.1 13.961 24.04 13.542 23.745 13.542zM15.116 19.334c.304-.05 3.406-.888 3.406-.888s.489-.224.436-.625c-.052-.403-.357-.514-.357-.514h-3.475c.008.009-.35-.007-.375.378-.025.385 0 1.316 0 1.316S14.811 19.396 15.116 19.334zM5.494 21.972c0 0 2.755-.702 3.268-.889.522-.196.471-.65.471-.65v-4.298c0 0 .059-.325 0-.778-.063-.463-.592-.411-.592-.411s-2.738-.034-3.225 0c-.487.035-.469.479-.469.479s-.035 5.427 0 6.085C4.98 22.17 5.494 21.972 5.494 21.972z"/></svg>