<svg xmlns="http://www.w3.org/2000/svg" enable-background="new 0 0 24 24" viewBox="0 0 24 24"><polygon fill="#65C1C2" points="6.621 19.691 0 19.691 3.312 23"/><path fill="#393E47" d="M7.639,17.593c-1.094-1.116-1.112-1.704-0.581-2.234c0.531-0.53,1.105-0.193,2.154,0.854l2.057,2.059l1.564-1.549l-1.952-1.955c1.406,1.066,3.092,1.125,4.583-0.38l0.028-0.028c0.514-0.453,0.919-1.017,1.181-1.656l0.011-0.03l-1.171-0.787c-0.648,0.964-1.762,2.534-2.934,1.37l2.98-2.988l1.857,1.848l1.62-1.624l-2.323-2.329c-1.084-1.088-0.442-2.109,0-2.494c0.242,0.493,0.55,0.915,0.916,1.274l0.001,0.001c1.503,1.51,3.444,1.813,5.152,0.106l0.027-0.027c0.514-0.453,0.919-1.017,1.18-1.655L24,5.338l-1.174-0.784c-0.644,0.966-1.744,2.53-2.933,1.349l2.974-2.982c-0.266-0.284-0.471-0.526-0.612-0.679c-1.616-1.607-3.422-1.627-4.84-0.215c-0.944,0.947-1.192,2.028-0.916,3.064L15.582,4.02c-0.527,0.352-0.869,0.947-0.869,1.621c0,0.395,0.117,0.761,0.318,1.067l-0.005-0.007L13.96,5.814l-1.433,1.412l1.909,1.915c-1.476-1.173-3.055-1.059-4.346,0.218c-1.365,1.367-1.271,3.024-0.246,4.388l-0.208-0.206c-1.351-1.354-2.817-0.876-3.545-0.147c-0.562,0.563-0.916,1.335-0.763,1.875l-2.922-2.932l-1.558,1.562l5.771,5.792H9.72L7.639,17.593z M18.549,3.108L18.549,3.108c0.52-0.521,1.048-0.306,1.641,0.276L18.778,4.8C18.085,3.978,18.118,3.536,18.549,3.108z M11.232,10.441c0.52-0.522,1.048-0.307,1.641,0.275l-1.412,1.422C10.77,11.314,10.804,10.869,11.232,10.441z"/></svg>