<svg xmlns="http://www.w3.org/2000/svg" enable-background="new 0 0 24 24" viewBox="0 0 24 24"><path fill="#264970" d="M11.998,21.527c0.847,0,1.694-0.073,2.524-0.229l0.262-0.045c1.683,1.096,4.139,1.997,6.288,1.997c0.665,0,0.978-0.548,0.552-1.108c-0.648-0.798-1.541-2.075-1.888-3.062c0,0,0.103-0.073,0.267-0.199C22.46,16.975,24,14.211,24,11.137C24,5.402,18.627,0.75,12.003,0.75C5.377,0.75,0,5.402,0,11.137C0,16.873,5.371,21.527,11.998,21.527z M5.893,13.435h0.002c0.008-0.003,0.014-0.003,0.021-0.003c0.117,0.006,0.23,0.043,0.328,0.111c1.555,1.28,3.564,2.058,5.753,2.063h0.001c0.03,0,0.065,0.001,0.101,0.001c2.161,0,4.14-0.782,5.672-2.077l-0.013,0.011c0.082-0.076,0.192-0.122,0.312-0.122c0,0,0,0,0.001,0c0.267,0,0.478,0.214,0.483,0.477c-0.032,0.245-0.127,0.464-0.268,0.645h-0.011l-0.001-0.002c-0.716,1.073-2.934,2.899-6.254,2.899h-0.046c-3.328,0-5.543-1.837-6.254-2.899c-0.139-0.157-0.236-0.352-0.272-0.569l-0.001-0.007c-0.001-0.011-0.001-0.024-0.001-0.038C5.446,13.668,5.642,13.457,5.893,13.435z"/></svg>