<svg xmlns="http://www.w3.org/2000/svg" enable-background="new 0 0 24 24" viewBox="0 0 24 24"><path fill="#229EE0" d="M21.794 15.002c-1.65 1.203-4.913 2.222-9.794 2.222-4.875 0-8.138-1.019-9.794-2.209C2.186 15 2.16 14.99 2.132 14.99c-.061 0-.112.046-.119.107C2.006 15.148 2 15.206 2 15.263 2 16.842 5.331 19 12 19s10-2.158 10-3.744c0-.057-.006-.114-.012-.171C21.975 14.995 21.869 14.945 21.794 15.002zM12 5C4 5 0 6.42 0 8.438s4 4.711 12 4.711 12-2.693 12-4.711S20 5 12 5zM12 10.603c-5.669 0-8.5-1.471-8.5-2.483 0-1.012 2.831-1.592 8.5-1.592s8.5.579 8.5 1.592C20.5 9.132 17.669 10.603 12 10.603z"/><path fill="#229EE0" d="M1.262,11.519c-0.021-0.018-0.048-0.028-0.078-0.028c-0.047,0-0.088,0.027-0.109,0.067v0.001c-0.094,0.178-0.137,0.369-0.137,0.56c0,1.75,3.687,4.087,11.062,4.087s11.063-2.33,11.063-4.087c0-0.198-0.044-0.382-0.138-0.56c-0.02-0.04-0.062-0.068-0.109-0.068c-0.03,0-0.058,0.011-0.079,0.029c-1.75,1.42-5.33,2.649-10.737,2.649v-0.001C6.594,14.168,3.012,12.939,1.262,11.519z"/></svg>