<svg xmlns="http://www.w3.org/2000/svg" enable-background="new 0 0 24 24" viewBox="0 0 24 24"><path fill="#F8761F" d="M22.75,14.358c0-3.056-2.221-5.587-5.132-6.033V5.437c0.815-0.347,1.313-1.116,1.313-2.011c0-1.223-0.974-2.245-2.189-2.245c-1.215,0-2.175,1.022-2.175,2.245c0,0.895,0.499,1.664,1.313,2.011v2.869c-0.708,0.098-1.379,0.314-1.989,0.638c-1.286-0.98-5.472-4.017-7.865-5.85c0.056-0.206,0.093-0.422,0.093-0.647C6.121,1.097,5.026,0,3.681,0C2.34,0,1.25,1.097,1.25,2.447c0,1.355,1.09,2.452,2.431,2.452c0.456,0,0.88-0.136,1.248-0.356l7.6,5.377l-0.002-0.001c-1.169,1.111-1.9,2.686-1.9,4.434c0,1.373,0.452,2.639,1.211,3.656l-2.305,2.334c-0.205-0.075-0.424-0.117-0.652-0.117c-0.503,0-0.974,0.197-1.327,0.553c-0.354,0.356-0.549,0.834-0.549,1.341s0.196,0.98,0.549,1.336C7.908,23.812,8.383,24,8.882,24c0.503,0,0.974-0.183,1.332-0.544c0.354-0.356,0.549-0.834,0.549-1.336c0-0.197-0.028-0.384-0.088-0.567l2.329-2.353c1.024,0.792,2.301,1.261,3.693,1.261C20.044,20.461,22.75,17.728,22.75,14.358z M16.695,17.587c-1.774,0-3.213-1.448-3.213-3.234c0-1.786,1.438-3.234,3.213-3.234c1.774,0,3.213,1.448,3.213,3.234C19.908,16.139,18.469,17.587,16.695,17.587z"/></svg>