<svg xmlns="http://www.w3.org/2000/svg" enable-background="new 0 0 24 24" viewBox="0 0 24 24"><path fill="#C52629" d="M23.993,14.699c0.003-0.087-0.015-0.132-0.117-0.13c-0.467,0.004-0.934,0.002-1.401,0c-0.076,0-0.116,0.022-0.13,0.104c-0.016,0.104-0.048,0.206-0.076,0.306c-0.301,1.08-0.727,2.1-1.435,2.98c-0.704,0.88-1.587,1.437-2.748,1.47c-0.314,0.01-0.573-0.096-0.74-0.356c-0.113-0.18-0.209-0.378-0.273-0.58c-0.166-0.508-0.204-1.04-0.22-1.57c-0.027-0.878,0.027-1.755,0.113-2.63c0.157-1.564,0.402-3.118,0.69-4.664c0.55-2.978,1.231-5.927,1.987-8.863l0.193-0.753c-0.035-0.004-0.053-0.008-0.07-0.008c-1.123,0-2.243,0-3.364-0.004c-0.097,0-0.123,0.05-0.147,0.124c-1.024,2.996-1.816,6.052-2.391,9.165c-0.02,0.113-0.056,0.16-0.18,0.16c-0.907-0.007-1.813-0.005-2.718-0.005c-0.049,0-0.097-0.005-0.154-0.008c0-0.068-0.002-0.122,0-0.176c0.022-0.42,0.048-0.84,0.062-1.26c0.043-1.299,0.035-2.598-0.175-3.885c-0.132-0.797-0.335-1.573-0.71-2.293c-0.738-1.422-1.98-2.018-3.536-1.68C5.391,0.375,4.46,0.884,3.675,1.618C1.576,3.577,0.351,5.99,0.005,8.843C-0.018,9.03,0.002,9.222,0.002,9.415c0.012,0.002,0.023,0.01,0.036,0.01c0.495,0.001,0.991,0,1.485,0.006c0.089,0.001,0.095-0.056,0.115-0.122c0.138-0.443,0.256-0.895,0.422-1.33c0.351-0.918,0.826-1.765,1.554-2.445c0.639-0.597,1.39-0.934,2.273-0.96c0.32-0.01,0.585,0.095,0.75,0.368c0.126,0.213,0.23,0.446,0.3,0.686C7.097,6.167,7.12,6.727,7.13,7.283C7.15,8.324,7.075,9.36,6.932,10.388c-0.187,1.364-0.388,2.724-0.633,4.074c-0.498,2.757-1.129,5.484-1.821,8.196c-0.113,0.438-0.223,0.875-0.343,1.338l0.001,0.001h0.17c1.068,0,2.133-0.002,3.199,0.004c0.129,0,0.189-0.033,0.233-0.16c0.613-1.796,1.135-3.618,1.588-5.46c0.437-1.779,0.804-3.574,1.075-5.387c0.017-0.113,0.066-0.137,0.17-0.137c0.856,0.004,1.712,0.002,2.567,0.002c0.19,0,0.188,0,0.174,0.19c-0.066,0.889-0.151,1.776-0.193,2.666c-0.068,1.418-0.068,2.836,0.172,4.242c0.137,0.81,0.348,1.597,0.75,2.322c0.384,0.688,0.9,1.234,1.661,1.504c0.67,0.24,1.349,0.211,2.026,0.028c1.119-0.299,2.068-0.896,2.881-1.706c1.436-1.425,2.403-3.132,2.994-5.06C23.836,16.282,23.979,15.503,23.993,14.699z"/></svg>