<svg xmlns="http://www.w3.org/2000/svg" enable-background="new 0 0 24 24" viewBox="0 0 24 24"><path fill="#22A0ED" d="M2.544 13.808l1.401 7.581C4.245 22.896 5.547 24 7.096 24H16.9c1.551 0 2.853-1.103 3.154-2.612l1.401-7.58c.199-1.256-.251-2.612-1.452-3.365-.7-.451-.85-1.306 0-1.656 1.201-.452.95-1.909-.25-1.909h-2.102c-.851 0-2.15.804-2.15 2.863 0 1.707 1.2 2.66 1.2 4.72 0 2.008-.85 2.56-2.302 2.41-.85-.101-1.55-1.005-1.55-1.859 0-1.958 1.302-1.706 1.302-4.468s-1.402-3.615-2.553-3.615H4.295c-1.201 0-1.451 1.456-.25 1.908.85.301.7 1.155 0 1.656l-.013.008C3.11 11.09 2.5 12.114 2.5 13.277 2.5 13.464 2.516 13.648 2.544 13.808zM10.298 2.911c-3.302 0-6.203.855-6.203 2.01 0 .501.451.954.95.954l.001-.001h13.856c.526-.004.951-.425.951-.944 0-.003 0-.006 0-.009 0-1.206-2.952-2.009-6.254-2.009-.349 0-.5-.1-.5-.251 0-.502 1-.602 1-1.355C14.1.502 13.149 0 11.948 0c-1.2 0-2.15.502-2.15 1.306 0 .753 1 .903 1 1.355C10.798 2.911 10.598 2.911 10.298 2.911z"/></svg>