<svg xmlns="http://www.w3.org/2000/svg" enable-background="new 0 0 24 24" viewBox="0 0 24 24"><path fill="#45B62E" d="M18.537 2.728c-.304-1.881-2.124-3.088-3.972-2.63-1.638.406-2.644 1.749-2.599 3.468-.032.289-.033.579-.031.869.012 1.377.118 2.749.206 4.121.044.058.113.048.172.056.725.09 1.374.352 1.926.839.042.037.084.078.144.088.098-.004.147-.081.206-.139.708-.7 1.403-1.414 2.057-2.165.546-.627 1.076-1.268 1.485-1.997.272-.485.455-.996.453-1.56.006 0 .011-.005.013-.014C18.606 3.349 18.587 3.039 18.537 2.728zM11.742 8.046c-.096-.831-.189-1.661-.292-2.491-.105-.84-.187-1.686-.379-2.511-.375-1.609-1.823-2.615-3.464-2.113-1.202.368-1.987 1.405-1.933 2.6l0 0 0 0C5.674 3.7 5.675 3.869 5.675 4.038c.013.287.093.558.201.823.296.732.804 1.318 1.311 1.904C7.5 7.126 7.833 7.469 8.16 7.817c.475.507.968.996 1.444 1.501.038.04.078.086.145.072.585-.48 1.254-.756 2.006-.834.012 0 .024-.001.035-.001C11.774 8.386 11.762 8.215 11.742 8.046zM11.913 18.522c-.047-.811-.105-1.621-.159-2.432-.025-.066-.022-.138-.009-.202.033-.159.037-.315-.016-.47-.032-.087-.109-.086-.183-.096-.409-.054-.794-.18-1.158-.377-.195-.105-.359-.259-.565-.343-.114.044-.181.125-.203.242-.004.001-.008.004-.012.01-.012.012-.023.024-.035.036-.118.146-.238.291-.355.437-.827 1.029-1.657 2.054-2.406 3.143-.585.85-.888 1.772-.794 2.81.004.002.007.003.011.005 0 .005.001.01.001.015-.003.12.006.237.031.356.136.636.457 1.165.943 1.588.631.548 1.377.825 2.208.74 1.074-.109 1.841-.704 2.346-1.647.24-.448.368-.927.404-1.432C12.022 20.11 11.959 19.316 11.913 18.522zM22.864 14.328c-.57-1.133-1.563-1.617-2.762-1.762-.623-.075-4.243-.162-4.561-.158-.051.001-.103.006-.146.039-.022.107-.045.215-.067.322-.149.627-.464 1.161-.9 1.629.029.11.106.175.209.212.025.022.053.043.076.068.938.973 1.909 1.912 2.933 2.794.825.709 1.758 1.133 2.888 1.018 1.295-.132 2.387-1.161 2.553-2.636v0c0 0 0 0 0 0 .008-.003.016-.007.024-.011C23.146 15.318 23.103 14.803 22.864 14.328zM9.504 9.628C8.456 8.707 7.389 7.809 6.279 6.963 5.499 6.369 4.646 5.986 3.636 6.026c-.757.03-1.399.305-1.901.866-.656.733-.911 1.61-.848 2.586.009.008.017.011.025.01 0 0 0 .001 0 .001.053.525.252.99.593 1.389.604.707 1.416.999 2.308 1.06.824.057 1.65-.002 2.474-.069.765-.063 1.53-.134 2.294-.202.028-.149.055-.298.086-.447.103-.502.343-.94.633-1.355 0 0 0 0 0 0C9.367 9.785 9.435 9.706 9.504 9.628zM17.275 18.403c-.329-.563-.758-1.051-1.175-1.548-.562-.672-1.139-1.332-1.709-1.997-.01-.003-.02-.004-.03-.004-.062-.076-.123-.152-.185-.228-.627.499-1.342.759-2.143.782-.017.248.047.487.083.728.137.917.28 1.832.43 2.747.105.639.203 1.28.439 1.89.222.573.533 1.084 1.024 1.466.889.693 2.087.546 2.956-.084.523-.379.806-.899.853-1.546 0 0 0 0 0 0 .008-.003.016-.007.025-.01C17.882 19.808 17.672 19.08 17.275 18.403zM22.363 7.645c-.419-.822-1.065-1.315-2.004-1.386-.676-.051-1.29.157-1.876.467-.715.378-1.322.907-1.94 1.417-.575.474-1.14.959-1.71 1.439-.076.058-.19.077-.199.201.065.085.13.169.195.254 0 0 0 0 0 0 0 0 0 0 0 0 .405.635.614 1.327.597 2.083.448-.037.896-.067 1.343-.113.978-.101 1.955-.22 2.927-.367.646-.097 1.274-.242 1.818-.63.63-.449 1.01-1.052 1.096-1.829 0-.001 0-.001 0-.002.008.001.016-.001.025-.008C22.661 8.642 22.608 8.127 22.363 7.645z"/><path fill="#EB5D3B" d="M8.805,13.215c-0.101-0.257-0.14-0.53-0.226-0.79c0,0,0,0,0,0c-0.002-0.137-0.004-0.274-0.006-0.411c-0.608,0.052-1.205,0.179-1.808,0.27c-0.078,0.013-0.157,0.025-0.235,0.04c-0.763,0.148-1.528,0.293-2.255,0.578c-0.997,0.391-1.921,1.239-1.816,2.634c0.008,0.003,0.016,0.006,0.024,0.009c0,0,0,0,0,0c0.009,0.09,0.008,0.183,0.028,0.271c0.171,0.753,0.579,1.353,1.2,1.806c0.397,0.29,0.849,0.455,1.339,0.433c0.523-0.024,0.995-0.225,1.396-0.569c0.246-0.211,0.489-0.427,0.727-0.647c0.765-0.708,1.483-1.463,2.19-2.228c0,0,0,0,0,0c0,0,0,0,0,0c0.011-0.001,0.022-0.003,0.033-0.005c0.051-0.074,0.103-0.147,0.176-0.201C9.249,14.053,8.982,13.664,8.805,13.215z M8.578,12.429c-0.001,0-0.001,0-0.002,0c0.001-0.002,0.002-0.003,0.003-0.005C8.579,12.425,8.578,12.429,8.578,12.429z"/><path fill="#FCCB00" d="M14.88,10.049c-0.07-0.092-0.139-0.184-0.215-0.271c-0.08-0.095-0.141-0.211-0.271-0.253c-0.637-0.589-1.386-0.916-2.253-0.97c-0.117,0-0.234,0-0.351,0c-0.014-0.012-0.029-0.021-0.046-0.027c-0.046-0.012-0.09,0-0.135,0.006c-0.701,0.088-1.322,0.358-1.863,0.812C9.67,9.422,9.57,9.477,9.539,9.591C9.527,9.603,9.515,9.616,9.504,9.628C9.378,9.66,9.347,9.792,9.257,9.862c-0.168,0.224-0.31,0.462-0.428,0.717c-0.166,0.357-0.231,0.738-0.293,1.12c-0.011,0.106-0.007,0.212-0.006,0.318c-0.001,0.125-0.008,0.251,0.011,0.376c0.015,0.055,0.026,0.11,0.036,0.166c0.132,0.717,0.452,1.337,0.959,1.861c0.087,0.076,0.159,0.172,0.28,0.2c0.298,0.226,0.613,0.421,0.964,0.557c0.297,0.115,0.607,0.164,0.916,0.222c0.094,0.08,0.207,0.046,0.314,0.051c0.815-0.016,1.544-0.267,2.176-0.787c0.018-0.018,0.037-0.035,0.055-0.053c0.079-0.058,0.152-0.122,0.222-0.191c0.444-0.472,0.757-1.016,0.907-1.65c0.028-0.104,0.048-0.209,0.064-0.316c0.023-0.11,0.04-0.22,0.033-0.333C15.492,11.368,15.291,10.679,14.88,10.049z"/></svg>