<svg xmlns="http://www.w3.org/2000/svg" enable-background="new 0 0 24 24" viewBox="0 0 24 24"><linearGradient id="a" x1="-37.094" x2="-26.555" y1="-72.719" y2="-84.047" gradientTransform="matrix(0 -1.982 -1.8439 0 -132.522 -51.077)" gradientUnits="userSpaceOnUse"><stop offset="0" stop-color="#fd5"/><stop offset=".5" stop-color="#ff543e"/><stop offset="1" stop-color="#c837ab"/></linearGradient><path fill="url(#a)" d="m1.5 1.633c-1.886 1.959-1.5 4.04-1.5 10.362 0 6.336-.158 7.499.602 9.075.635 1.318 1.848 2.308 3.276 2.677 1.144.294 1.904.253 8.1.253 5.194 0 6.81.093 8.157-.255 1.996-.515 3.62-2.134 3.842-4.957.031-.394.031-13.185-.001-13.587-.236-3.007-2.087-4.74-4.526-5.091-.56-.081-.672-.105-3.54-.11-10.173.005-12.403-.448-14.41 1.633z"/><path fill="#fff" d="m11.998 3.139c-3.631 0-7.079-.323-8.396 3.057-.544 1.396-.465 3.209-.465 5.805 0 2.278-.073 4.419.465 5.804 1.314 3.382 4.79 3.058 8.394 3.058 3.477 0 7.062.362 8.395-3.058.545-1.41.465-3.196.465-5.804 0-3.462.191-5.697-1.488-7.375-1.7-1.7-3.999-1.487-7.374-1.487zm-.794 1.597c4.346-.007 7.811-.607 8.006 3.683.072 1.589.072 5.571 0 7.16-.189 4.137-3.339 3.683-7.211 3.683-3.412 0-5.104.121-6.244-1.02-1.157-1.157-1.019-2.811-1.019-6.245 0-4.071-.385-7.026 3.683-7.213.817-.037 1.134-.048 2.785-.05zm5.524 1.471c-.587 0-1.063.476-1.063 1.063s.476 1.063 1.063 1.063 1.063-.476 1.063-1.063-.476-1.063-1.063-1.063zm-4.73 1.243c-2.513 0-4.55 2.038-4.55 4.551s2.037 4.55 4.55 4.55 4.549-2.037 4.549-4.55-2.036-4.551-4.549-4.551zm0 1.597c1.631 0 2.953 1.323 2.953 2.954s-1.322 2.954-2.953 2.954-2.953-1.323-2.953-2.954c0-1.632 1.322-2.954 2.953-2.954z"/></svg>