<svg xmlns="http://www.w3.org/2000/svg" enable-background="new 0 0 24 24" viewBox="0 0 24 24"><path fill="#2ABBEE" d="M23.925,13.858V13.63c0-0.381,0.075-0.837,0.075-1.141c0-1.827-0.45-3.578-1.2-5.177c1.125-2.741,1.2-5.025-0.15-6.395c-1.5-1.522-5.1-1.066-8.924,0.761h-0.45c-2.7,0-5.324,0.991-7.274,2.741c-1.65,1.523-2.85,3.502-3.375,5.71c0.375-0.457,2.475-2.969,4.875-4.34c0.075,0,0.675-0.381,0.675-0.381c-0.075,0-1.2,1.142-1.425,1.37c-5.25,5.482-8.324,13.779-5.924,16.215c1.574,1.599,4.424,1.218,7.724-0.609c1.425,0.685,3,0.99,4.724,0.99c2.25,0,4.35-0.609,6.15-1.827c1.874-1.218,3.224-3.12,4.05-5.328h-5.85c-0.75,1.447-2.475,2.436-4.275,2.436c-2.55,0-4.65-2.132-4.724-4.568v-0.228H23.925z M22.575,2.06c0.825,0.99,0.75,2.664-0.15,4.643c-0.45-0.761-1.05-1.523-1.725-2.132c-1.012-0.957-2.207-1.73-3.524-2.258L17.1,2.288C19.5,1.147,21.525,0.994,22.575,2.06z M8.702,10.891c0.15-2.36,2.324-4.416,4.874-4.416c2.4,0,4.35,1.903,4.5,4.416v0.076h-0.225H8.702V10.891z M2.477,22.537c-1.2-1.218-0.824-3.577,0.6-6.394c0.675,1.903,1.8,3.578,3.225,4.796c0.45,0.381,0.975,0.761,1.5,1.066C5.402,23.299,3.452,23.528,2.477,22.537z"/></svg>