<svg xmlns="http://www.w3.org/2000/svg" enable-background="new 0 0 24 24" viewBox="0 0 24 24"><path fill="#DB395F" d="M0,2.175v19.65C0,23.025,0.975,24,2.175,24h19.65c1.2,0,2.175-0.975,2.175-2.175V2.175C24,0.975,23.025,0,21.825,0H2.175C0.975,0,0,0.975,0,2.175z M9.434,6.085v0.001c0.022,1.254-1.2,1.463-1.425,1.467c-0.798,0-1.451-0.644-1.451-1.447C6.563,4.221,9.402,4.205,9.434,6.085z M4.897,8.887H8.99c-1.8,7.162-1.746,6.798-1.762,7.403c0,1.12,2.191,0.723,3.075-1.243l1.061-4.254h-1.73l0.52-1.908h3.686l-0.477,2.169c2.169-4.045,6.851-2.561,5.454,2.035c-0.761,2.737-0.782,2.717-0.798,3.15c0,0.831,0.937,1.21,1.704-0.905l0.959,0.359c-0.562,1.966-1.575,2.786-2.85,2.786l-0.002,0.002c-3.514,0-1.826-3.965-1.339-5.711c0.755-2.486-2.422-3.161-3.209,0.038l-1.382,5.534H9.482l0.434-1.741c-1.688,2.775-5.068,2.378-5.068-0.231c0.006-0.766,0.048-0.75,1.232-5.577H4.377L4.897,8.887z"/></svg>