<svg xmlns="http://www.w3.org/2000/svg" enable-background="new 0 0 24 24" viewBox="0 0 24 24"><path fill="#4E8FF6" d="M12,6.529L12,6.529c-3.021,0.003-5.468,2.45-5.471,5.47c0.003,3.02,2.45,5.467,5.47,5.47c3.02-0.003,5.467-2.45,5.47-5.47C17.464,8.98,15.018,6.534,12,6.529z"/><circle cx="19.85" cy="4.522" r="2.494" fill="#4E8FF6"/><path fill="#4E8FF6" d="M12,24c6.619,0,12-5.381,12-12c0-1.73-0.361-3.403-1.078-4.973l-0.001-0.001l-0.103-0.23l-0.169,0.188c-0.408,0.464-0.928,0.82-1.505,1.036l-0.159,0.061l0.066,0.155c0.474,1.107,0.75,2.396,0.75,3.749c0,0.004,0,0.007,0,0.01c0,5.405-4.397,9.806-9.806,9.806s-9.802-4.397-9.802-9.802s4.402-9.806,9.806-9.806c1.467,0,2.883,0.319,4.2,0.947l0.155,0.075L16.42,3.06c0.254-0.582,0.63-1.07,1.099-1.447l0.007-0.006l0.197-0.159l-0.225-0.117C15.91,0.492,14.026,0,12.028,0C12.019,0,12.009,0,12,0C5.381,0,0,5.381,0,12C0,18.619,5.381,24,12,24z"/></svg>