<svg xmlns="http://www.w3.org/2000/svg" enable-background="new 0 0 24 24" viewBox="0 0 24 24"><path d="M2.847,22.089c1.953,0.453,5.546,0.66,9.15,0.661h0.001c3.605-0.001,7.197-0.208,9.15-0.661c1.26-1.28,1.008-6.49,1.029-8.813c-0.002-0.448-0.004-0.77-0.006-1.162v-0.004c-0.016-0.772-0.061-1.831-0.168-2.938c-0.077,0.026-0.172,0.052-0.263,0.052c-0.001,0-0.002,0-0.002,0c-0.759,0-1.447-0.302-1.949-0.792h0.001c-0.182-0.177-0.358-0.366-0.485-0.588h-0.001c-0.127,0.221-0.265,0.41-0.446,0.588c-0.502,0.489-1.19,0.792-1.948,0.792c-0.001,0-0.002,0-0.003,0c-0.758,0-1.445-0.303-1.947-0.792c-0.179-0.173-0.334-0.37-0.461-0.586l-0.007-0.013c-0.132,0.229-0.286,0.426-0.463,0.6c-0.502,0.489-1.19,0.792-1.949,0.792c-0.001,0-0.002,0-0.003,0c-0.026,0-0.053-0.001-0.079-0.002h-0.001c-0.026,0.001-0.053,0.002-0.08,0.002c-0.001,0-0.002,0-0.003,0c-0.759,0-1.447-0.302-1.949-0.792h0.001C9.789,8.258,9.636,8.06,9.511,7.844L9.504,7.831l0.001,0.002C9.372,8.063,9.217,8.26,9.038,8.432L9.037,8.433C8.535,8.921,7.848,9.224,7.09,9.224c-0.001,0-0.002,0-0.003,0c-0.759,0-1.447-0.302-1.949-0.792c-0.182-0.177-0.32-0.366-0.446-0.587H4.692C4.565,8.065,4.39,8.255,4.207,8.432c-0.502,0.489-1.19,0.791-1.949,0.791c-0.001,0-0.002,0-0.003,0c-0.091,0-0.186-0.025-0.263-0.052c-0.107,1.107-0.152,2.166-0.168,2.938v0.004c-0.002,0.392-0.004,0.714-0.006,1.162C1.839,15.6,1.587,20.809,2.847,22.089z M3.46,17.347l1.123-4.01c1.044-2.921,2.543-2.923,2.919-2.923v0.001h0.001c0.794,0.002,1.498,0,2.372,0.949c0.687-0.072,1.406-0.108,2.125-0.107H12c0.719-0.001,1.437,0.035,2.125,0.107c0.873-0.949,1.578-0.948,2.372-0.949h0.001v-0.001c0.375,0,1.875,0,2.92,2.923l1.122,4.01c0.832,2.983-0.266,3.056-1.636,3.059c-2.031-0.076-3.156-1.545-3.156-3.014c-1.124,0.183-2.436,0.275-3.748,0.275h-0.001c-1.312,0-2.624-0.092-3.748-0.275c0,1.469-1.125,2.938-3.156,3.014C3.726,20.402,2.628,20.33,3.46,17.347z"/><polygon points="11.999 12.712 11.998 12.712 11.998 12.713 11.999 12.713 11.999 12.713"/><path d="M2.325 8.445c1.329 0 2.436-1.097 2.436-2.398 0 1.302 1.069 2.398 2.398 2.398 1.329 0 2.364-1.097 2.364-2.398 0 1.302 1.137 2.398 2.466 2.398h.024c1.329 0 2.466-1.097 2.466-2.398 0 1.302 1.035 2.398 2.364 2.398 1.329 0 2.398-1.097 2.398-2.398 0 1.302 1.107 2.398 2.436 2.398 1.107 0 2.325-1.141 2.325-2.44V4.98c-.02-.618-2.082-2.979-3.129-3.597-3.254-.114-5.51-.133-8.87-.133C8.64 1.251 4.057 1.303 3.131 1.383H3.129C2.082 2.002.02 4.361 0 4.98v1.025C0 7.304 1.219 8.445 2.325 8.445zM10.875 16.523c0 .057.561.034 1.123.008h.001c.562.026 1.123.049 1.123-.008v-1.215l1.399.056c-.384-.695-2.519-2.648-2.522-2.651-.005.004-2.138 1.956-2.522 2.651l1.399-.056V16.523z"/></svg>