<svg xmlns="http://www.w3.org/2000/svg" enable-background="new 0 0 24 24" viewBox="0 0 24 24"><linearGradient id="a" x1="-81.64" x2="-81.635" y1="-23.986" y2="-29.672" gradientTransform="translate(351.027 123.514) scale(4.1528)" gradientUnits="userSpaceOnUse"><stop offset="0" stop-color="#bb5bfd"/><stop offset="1" stop-color="#eb82d6"/></linearGradient><path fill="url(#a)" d="M5.507,0h12.985C21.544,0,24,2.456,24,5.507v12.985C24,21.544,21.544,24,18.493,24H5.507C2.456,24,0,21.544,0,18.493V5.507C0,2.456,2.456,0,5.507,0z"/><path fill="#FFF" d="M11.978,1.45c-5.694,0-10.31,4.616-10.31,10.31c0,5.694,4.616,10.31,10.31,10.31c5.694,0,10.31-4.616,10.31-10.31C22.289,6.066,17.673,1.45,11.978,1.45z M11.978,2.588c5.065,0,9.172,4.107,9.172,9.172c0,5.065-4.107,9.172-9.172,9.172c-5.065,0-9.164-4.107-9.164-9.172C2.815,6.696,6.913,2.588,11.978,2.588z"/><path fill="#FFF" d="M16.275,4.883l-7.15,1.933H9.117v2.908h0.008v5.2c-0.313-0.188-0.696-0.3-1.108-0.3c-1.061,0-1.917,0.737-1.917,1.642c0,0.905,0.855,1.633,1.917,1.633s1.963-0.729,1.925-1.633l-0.019-0.464L9.875,9.516l5.65-1.525v5.742c-0.33-0.227-0.751-0.367-1.208-0.367c-1.061,0-1.917,0.737-1.917,1.642c0,0.905,0.855,1.633,1.917,1.633s1.953-0.729,1.953-1.633c0-0.009,0-0.017,0-0.025l0.005-7.192L16.275,4.883L16.275,4.883L16.275,4.883z"/></svg>