<svg xmlns="http://www.w3.org/2000/svg" enable-background="new 0 0 24 24" viewBox="0 0 24 24"><linearGradient id="a" x1="8.109" x2="17.942" y1="5.934" y2="19.601" gradientUnits="userSpaceOnUse"><stop offset="0" stop-color="#fa5f4c"/><stop offset=".503" stop-color="#9b49da"/><stop offset="1" stop-color="#3fc9fe"/></linearGradient><path fill="url(#a)" d="M21.985,0.937c0-0.615-0.343-0.975-0.942-0.933c-0.182,0-1.48,0.259-12.104,2.286c-0.083,0-0.479,0.106-0.698,0.292C8.027,2.756,7.912,2.989,7.87,3.265C7.693,3.987,8.125,16.986,7.599,17.596c-0.229,0.26-0.5,0.334-0.812,0.393c-1.87,0.334-3.114,0.509-4,1.368c-1.526,1.516-0.734,4.162,1.516,4.592c0.843,0.158,2.428-0.059,3.302-0.552c0.771-0.404,1.354-1.13,1.573-2.095c0.188-0.828,0.13-0.255,0.13-12.703c0-0.61,0.167-0.769,0.698-0.886c0,0,9.246-1.761,9.672-1.835c0.599-0.105,0.886,0.059,0.886,0.653c0,8.438,0.104,8.274-0.229,8.655c-0.229,0.26-0.5,0.334-0.812,0.393c-1.87,0.334-3.114,0.509-4,1.368c-1.119,1.113-1.103,2.88,0.141,3.945c1.02,0.838,2.083,0.78,3.359,0.541c1.453-0.276,2.537-1.093,2.87-2.546l-0.001,0.002C22.043,18.226,21.995,19.207,21.985,0.937z"/></svg>