<svg xmlns="http://www.w3.org/2000/svg" enable-background="new 0 0 24 24" viewBox="0 0 24 24"><path fill="#4E7D9D" d="M4.44,22.324c9.472,1.553,17.265-0.7,14.808-1.82c0,0,0.671,0.559-0.738,0.991c-2.681,0.822-11.16,1.069-13.514,0.033c-0.846-0.373,0.742-0.89,1.24-0.998c0.521-0.114,0.819-0.093,0.819-0.093C6.111,19.766,0.966,21.754,4.44,22.324z"/><path fill="#4E7D9D" d="M20.75 21.726c0 0-.299.775-3.532 1.391-3.646.694-8.146.613-10.813.168 0-.001.547.457 3.355.639C14.033 24.201 20.595 23.771 20.75 21.726zM15.195 16.549c-2.746.535-4.332.517-6.341.308-1.552-.163-.536-.924-.536-.924-4.019 1.348 2.237 2.879 7.852 1.218C15.574 16.938 15.195 16.549 15.195 16.549zM17.058 17.584c-.02.056-.089.117-.089.118 5.946-1.581 3.76-5.573.917-4.562-.25.09-.381.297-.381.297s.158-.064.509-.138C19.452 12.995 21.51 15.244 17.058 17.584z"/><path fill="#F2941B" d="M9.243,7.627c-1.106,1.681,0.544,3.486,2.792,5.539c-0.877-2.004-3.851-3.759,0.001-6.836C16.84,2.494,14.374,0,14.374,0C15.37,3.962,10.868,5.158,9.243,7.627z"/><path fill="#F2941B" d="M17.347,4.902c0-0.001-8.123,2.051-4.243,6.573c1.145,1.333-0.301,2.533-0.301,2.533s2.906-1.518,1.571-3.418C13.127,8.818,12.171,7.938,17.347,4.902z"/><path fill="#4E7D9D" d="M8.887 18.56c-3.648 1.031 2.219 3.162 6.865 1.149-.76-.3-1.306-.646-1.306-.646-2.071.398-3.032.429-4.913.211C7.98 19.094 8.887 18.56 8.887 18.56zM15.992 14.67c.456-.315 1.086-.587 1.086-.587s-1.792.325-3.577.477c-2.184.185-4.529.221-5.705.062C5.01 14.246 9.323 13.21 9.323 13.21s-1.675-.114-3.733.892C3.153 15.293 11.614 15.835 15.992 14.67z"/></svg>