<svg xmlns="http://www.w3.org/2000/svg" enable-background="new 0 0 24 24" viewBox="0 0 24 24"><path fill="#99415B" d="M20.97 11.819l-.001.001c0 .965-.791 1.75-1.764 1.75-.974-.003-1.762-.787-1.762-1.753 0-.555.26-1.049.665-1.37l.004-.003.007-.007c.056-.042.119-.084.182-.125 0 0 .008 0 .008-.007.028-.014.056-.035.084-.05.007 0 .014-.006.021-.006.028-.014.063-.028.098-.042.034-.014.071-.027.099-.041.007 0 .013-.007.02-.007.028-.007.056-.021.085-.028.007 0 .02-.007.028-.007.034-.007.063-.014.098-.02h.007l.105-.022c.007 0 .02 0 .028-.007.028 0 .056-.007.084-.007H19.1c.035 0 .071-.007.112-.007h.091c.028 0 .05 0 .078.007h.014c.056.007.112.014.168.028C20.371 10.272 20.968 10.976 20.97 11.819zM10.028 1.39h11.019l-2.529 7.4c-.105.02-.21.055-.315.09l-2.661-5.385-2.67 5.35c-.105-.034-.218-.055-.33-.076L10.028 1.39zM10.196 11.813c0-.001 0-.003 0-.005 0-.812.56-1.495 1.318-1.687l.012-.003v-.001c.034-.007.063-.014.098-.02h.02c.029-.008.056-.008.085-.015h.028c.028 0 .049-.007.077-.007h.273c.028 0 .049.007.071.007.014 0 .02 0 .035.007.027.007.048.007.077.014.007 0 .014 0 .028.007l.098.02h.007c.028.008.056.015.084.029.007 0 .014.007.028.007.021.007.049.014.071.027.007 0 .014.007.02.007.028.014.056.021.085.035h.007c.034.013.064.03.092.05l-.001-.001h.007c.028.014.056.034.085.048.007 0 .007.007.013.007.028.014.05.035.078.049l.007.007c.084.062.161.132.238.201l.007.007c.299.313.484.736.484 1.203 0 .002 0 .004 0 .007-.033.942-.81 1.693-1.765 1.693s-1.732-.751-1.765-1.69V11.813z"/><ellipse cx="4.633" cy="11.819" fill="#99415B" rx="1.765" ry="1.751"/><path fill="#99415B" d="M2.496,17.802c0.168-1.015,0.637-1.966,1.086-2.877c0.028-0.055,0.049-0.104,0.078-0.16c0.153,0.056,0.315,0.098,0.483,0.126c-0.266,1.473,0.49,2.994,1.962,3.745l0.266,0.139l0.286-0.104c1.226-0.431,2.361-1.133,3.363-2.071c0.545-0.505,1.025-1.068,1.435-1.681l0.022-0.035c0.161,0.027,0.323,0.034,0.484,0.034c1.45-0.003,2.668-0.98,3.027-2.305l0.005-0.022h1.176c0.362,1.349,1.583,2.327,3.033,2.327h0.001c0.581,0,1.119-0.16,1.583-0.43c0.182,0.52,0.238,1.063,0.14,1.605h0.001c-0.169,0.92-0.732,1.683-1.505,2.125l-0.015,0.008c-0.764,0.438-1.703,0.577-2.691,0.716c-0.658,0.084-1.22,0.186-1.771,0.314l0.118-0.023c-1.457,0.355-2.857,1.05-4.216,1.717c-1.738,0.854-3.377,1.66-4.897,1.66c-0.007,0-0.015,0-0.023,0c-0.804,0-1.548-0.257-2.153-0.691C2.237,20.863,2.313,18.885,2.496,17.802z"/></svg>