<svg xmlns="http://www.w3.org/2000/svg" enable-background="new 0 0 24 24" viewBox="0 0 24 24"><path d="M12.019,18.117c0.004,0,0.012,0.001,0.016,0.001c0.001,0,0.003,0,0.005,0L12.019,18.117z"/><polygon points="12.772 10.73 12.771 10.728 12.766 10.724"/><path d="M11.909,14.643c-0.009,0.003-0.019,0.004-0.028,0.006c-0.011,0.003-0.019,0.006-0.03,0.009L11.909,14.643z"/><path fill="#E14337" d="M11.87,0L23.26,3.994L21.53,18.72L11.87,24l-9.572-5.287L0.74,3.996L11.87,0L11.87,0z"/><path fill="#F9BD3E" d="M16.067,12.37c0,0.363-0.294,0.657-0.657,0.657c-0.363,0-0.657-0.294-0.657-0.657c0-0.363,0.294-0.657,0.657-0.657C15.773,11.714,16.067,12.008,16.067,12.37C16.067,12.37,16.067,12.37,16.067,12.37z M12.148,8.256c0,0.363-0.294,0.657-0.657,0.657c-0.363,0-0.657-0.294-0.657-0.657c0-0.363,0.294-0.657,0.657-0.657C11.854,7.599,12.148,7.893,12.148,8.256z M11.975,7.144c0.801-0.792,1.684-1.474,2.585-1.977c-0.843-0.361-1.751-0.547-2.668-0.546c-0.443,0-0.876,0.044-1.296,0.125c0.076,0.669,0.325,1.47,0.721,2.31c0.058-0.009,0.116-0.013,0.174-0.014C11.663,7.043,11.826,7.08,11.975,7.144L11.975,7.144z M8.561,13.35c0.063-0.498,0.18-1.008,0.356-1.529c0.334-0.987,0.875-1.984,1.55-2.918c-0.3-0.472-0.237-1.088,0.152-1.49c-0.412-0.869-0.686-1.72-0.786-2.473c-2.737,0.872-4.72,3.433-4.72,6.459c0,0.198,0.01,0.394,0.027,0.588c0.839,1.017,1.789,1.593,2.728,1.891C8.026,13.623,8.273,13.435,8.561,13.35z M12.345,10.131c-0.186-0.23-0.365-0.465-0.536-0.706c-0.104,0.029-0.21,0.043-0.318,0.044c-0.149,0-0.29-0.028-0.422-0.077c-0.614,0.859-1.107,1.774-1.414,2.68c-0.131,0.386-0.247,0.833-0.313,1.315c0.339,0.134,0.601,0.412,0.712,0.76c0.24-0.012,0.478-0.035,0.716-0.07c1.205-0.177,2.408-0.648,3.491-1.319c-0.042-0.125-0.064-0.255-0.064-0.387c0-0.114,0.017-0.224,0.046-0.328C13.619,11.537,12.979,10.911,12.345,10.131L12.345,10.131z M12.455,8.99c0.619,0.87,1.373,1.707,2.231,2.41c0.209-0.157,0.463-0.242,0.724-0.242c0.24,0,0.463,0.071,0.652,0.191c0.863-0.845,1.55-1.824,1.954-2.854c-0.569-1.197-1.476-2.201-2.607-2.89c-0.992,0.471-1.978,1.193-2.86,2.059c0.102,0.181,0.155,0.385,0.155,0.593C12.704,8.532,12.61,8.786,12.455,8.99L12.455,8.99z M16.596,12.626c0.58,0.276,1.19,0.484,1.823,0.6c0.166-0.595,0.251-1.209,0.251-1.827c0-0.636-0.09-1.269-0.266-1.881c-0.458,0.876-1.096,1.702-1.855,2.434c0.048,0.13,0.076,0.271,0.076,0.418C16.623,12.458,16.613,12.544,16.596,12.626L16.596,12.626z M7.693,14.634c-0.837-0.259-1.606-0.685-2.289-1.268c0.662,2.187,2.399,3.905,4.597,4.542c-0.305-0.299-0.55-0.604-0.737-0.916c-0.24-0.401-0.425-0.832-0.551-1.282C8.171,15.628,7.747,15.186,7.693,14.634L7.693,14.634z M14.731,13.375c-1.191,0.75-2.517,1.277-3.846,1.472c-0.28,0.041-0.562,0.068-0.845,0.08c-0.1,0.276-0.296,0.507-0.553,0.649c0.106,0.356,0.257,0.698,0.448,1.017c0.32,0.534,0.858,1.054,1.633,1.577c0.108,0.005,0.216,0.008,0.324,0.008c2.834,0,5.26-1.74,6.273-4.209c-0.552-0.113-1.225-0.316-1.968-0.676c-0.219,0.187-0.498,0.29-0.786,0.29C15.159,13.583,14.925,13.506,14.731,13.375z M9.557,14.514c0,0.363-0.294,0.657-0.657,0.657c-0.363,0-0.657-0.294-0.657-0.657c0,0,0,0,0-0.001c0-0.363,0.294-0.657,0.657-0.657C9.262,13.858,9.556,14.152,9.557,14.514z"/><path fill="#440401" fill-opacity=".3" d="M23.26,3.994L11.87,0v24l9.661-5.28L23.26,3.994z"/></svg>