<svg xmlns="http://www.w3.org/2000/svg" enable-background="new 0 0 24 24" viewBox="0 0 24 24"><path fill="#4679A4" d="M4.759,20.11h14.249c0.09,0,0.18,0.015,0.27,0.015c2.609,0,4.723-2.064,4.723-4.62c-0.012-1.869-1.16-3.547-2.91-4.247h-0.014c0.01-0.14,0.021-0.275,0.021-0.415c0-3.848-3.193-6.968-7.134-6.968c-2.738-0.01-5.24,1.534-6.441,3.973C6.947,7.41,6.242,7.173,5.516,7.173c-1.82,0-3.295,1.437-3.295,3.211c0,0.335,0.053,0.657,0.15,0.958C0.908,12.179,0.004,13.723,0,15.398C0,17.977,2.124,20.073,4.759,20.11z M6.447,12.181c0.645-0.57,1.462-0.856,2.455-0.856c1.02,0,1.979,0.379,2.831,1.136c0.21,0.187,0.417,0.4,0.614,0.635l1.091,1.272c0.188,0.257,0.389,0.476,0.6,0.665c0.563,0.499,1.17,0.749,1.686,0.749c0.438,0,0.801-0.134,1.094-0.398c0.248-0.227,0.402-0.534,0.434-0.867l0.008-0.147c0.002-0.14-0.021-0.278-0.064-0.412c-0.227-0.613-0.824-1.014-1.484-0.992c-0.543,0-1.082,0.181-1.672,0.748l-0.967-1.129l-0.105-0.128c0.855-0.821,1.695-1.129,2.834-1.129c1.004,0,1.828,0.281,2.441,0.846l0.016,0.015c0.646,0.564,0.959,1.293,0.959,2.188c0,0.208-0.016,0.431-0.059,0.624c-0.121,0.608-0.42,1.114-0.885,1.545c-0.477,0.431-1.07,0.71-1.709,0.803c-0.225,0.03-0.449,0.045-0.705,0.045c-1.033,0-2.008-0.372-2.832-1.114c-0.234-0.21-0.449-0.439-0.645-0.683l-1.094-1.264c-0.171-0.242-0.366-0.467-0.585-0.668c-0.555-0.505-1.17-0.743-1.709-0.743c-0.156,0-0.313,0.021-0.465,0.06c-0.235,0.059-0.452,0.176-0.629,0.342c-0.279,0.257-0.438,0.617-0.436,0.996c0,0.386,0.135,0.713,0.42,0.979l0.016,0.016c0.3,0.267,0.675,0.4,1.109,0.4c0.555,0,1.094-0.192,1.678-0.757l0.96,1.114l0.104,0.118c-0.869,0.833-1.708,1.144-2.803,1.144c-1.004,0-1.828-0.281-2.458-0.846l-0.052,0.072c-0.479-0.43-0.779-0.95-0.898-1.566c-0.041-0.214-0.061-0.43-0.061-0.646C5.481,13.472,5.803,12.75,6.447,12.181z"/></svg>