<svg xmlns="http://www.w3.org/2000/svg" enable-background="new 0 0 24 24" viewBox="0 0 24 24"><path fill="#35B5E2" d="M7.998,0H5.598C5.365,0,5.25,0.118,5.25,0.352v23.295c0,0.235,0.115,0.352,0.348,0.352h2.401c0.232,0,0.349-0.117,0.349-0.352v-5.11l1.427-1.374l5.115,6.59C15.027,23.918,15.189,24,15.375,24h3.097c0.162,0,0.255-0.047,0.278-0.141l-0.07-0.353l-6.749-8.494l6.471-6.343c0.121-0.124,0.078-0.493-0.244-0.493h-3.201c-0.162,0-0.324,0.083-0.487,0.247l-6.123,6.273V0.352C8.347,0.118,8.23,0,7.998,0z"/></svg>