<svg xmlns="http://www.w3.org/2000/svg" enable-background="new 0 0 24 24" viewBox="0 0 24 24"><polygon points="10.342 7.886 10.349 7.882 10.351 7.88"/><polygon points="21.56 23.484 21.553 23.488 21.551 23.49"/><polygon points="9.676 11.687 9.671 11.679 9.671 11.679"/><path fill="#6C02B0" d="M4.527 0C3.004 0 1.767 1.241 1.75 2.779v.002V21.21C1.756 22.752 2.992 24 4.517 24c.013 0 .026 0 .04 0 0 0 .001 0 .002 0 .014 0 .03 0 .047 0 1.522 0 2.756-1.242 2.767-2.779V2.781c-.028-1.541-1.269-2.78-2.797-2.78-.007 0-.013 0-.021 0L4.557 0C4.548 0 4.537 0 4.527 0zM17.414 7.36c.013 0 .026 0 .04 0 .001 0 .001 0 .002 0 .008 0 .018 0 .028 0 2.011 0 3.644-1.638 3.666-3.668V3.69c-.023-2.032-1.655-3.67-3.666-3.67-.01 0-.02 0-.03 0-.001 0-.001 0-.002 0-.011 0-.024 0-.038 0-2.011 0-3.644 1.638-3.666 3.668V3.69C13.769 5.722 15.402 7.36 17.414 7.36zM8.827 10.107c0 .588.187 1.131.504 1.572l7.906 11.149c.511.708 1.327 1.163 2.249 1.163.59 0 1.137-.187 1.588-.504.713-.488 1.177-1.303 1.177-2.227 0-.556-.167-1.072-.454-1.5l.006.009-.059-.09L13.857 8.54h-.011c-.508-.713-1.326-1.171-2.25-1.171-.594 0-1.144.19-1.595.513C9.288 8.37 8.827 9.183 8.827 10.107z"/></svg>