<svg xmlns="http://www.w3.org/2000/svg" enable-background="new 0 0 24 24" viewBox="0 0 24 24"><path fill="#3e2723" d="m12 1c-6.627 0-12 4.208-12 9.399 0 3.356 2.246 6.301 5.625 7.963-.184.63-1.181 4.051-1.221 4.32 0 0-.024.202.108.279s.286.017.286.017c.378-.052 4.378-2.844 5.07-3.328.692.097 1.404.148 2.131.148 6.627 0 12-4.208 12-9.399.001-5.191-5.372-9.399-11.999-9.399z"/><g fill="#ffeb3b"><path d="M12.04 12.598l-1.656-4.328c-.117-.33-.471-.669-.923-.679-.451.01-.805.349-.922.678l-1.656 4.33c-.21.649-.027.889.164.977.138.063.288.095.44.095.289 0 .509-.116.576-.303l.343-.892h2.111l.343.891c.067.187.287.304.576.304.152 0 .302-.032.44-.095.191-.087.374-.328.164-.978zm-3.27-1.341l.692-1.951.691 1.951zM6.058 13.023c0 .362-.311.657-.692.657s-.692-.295-.692-.657v-4.086h-1.08c-.375 0-.679-.302-.679-.673s.303-.674.678-.674h3.545c.375 0 .679.302.679.673s-.305.674-.679.674h-1.08zM15.375 13.579h-2.221c-.366 0-.663-.283-.663-.63v-4.671c0-.379.317-.688.707-.688s.707.308.707.688v4.04h1.471c.366 0 .663.283.663.63-.001.348-.298.631-.664.631zM20.794 13.061c-.025.181-.122.344-.269.454-.12.09-.266.139-.416.139-.218.001-.423-.1-.553-.273l-1.624-2.137-.24.239v1.5c0 .38-.31.688-.693.688-.382 0-.692-.308-.692-.688v-4.705c0-.379.31-.688.692-.688s.692.308.692.688v1.478l1.932-1.919c.099-.099.236-.153.384-.153.173 0 .346.074.476.203.121.12.194.275.204.436.01.162-.044.311-.153.419l-1.578 1.567 1.704 2.243c.113.145.161.329.134.509z"/></g></svg>