<svg xmlns="http://www.w3.org/2000/svg" enable-background="new 0 0 24 24" viewBox="0 0 24 24"><path fill="#E95821" d="M24,0H0v24h24V0z M13.92,8.448l2.88-2.88c0,0,2.112,1.248,0.864,2.496l-2.016,2.016C14.496,11.136,12.864,9.504,13.92,8.448z M10.752,4.128c0,0,2.4-0.576,2.4,1.152v2.88c0,1.44-2.4,1.44-2.4,0V4.128z M8.064,6.432l2.016,2.016c1.056,1.056-0.576,2.688-1.632,1.632L5.568,7.2C5.568,7.2,6.816,5.184,8.064,6.432z M5.28,10.848h2.88c1.44,0,1.44,2.4,0,2.4H4.128C4.128,13.152,3.552,10.848,5.28,10.848z M10.08,15.552l-2.88,2.88c0,0-2.112-1.248-0.864-2.496l2.016-2.016C9.504,12.864,11.136,14.496,10.08,15.552z M13.152,19.872c0,0-2.4,0.576-2.4-1.152v-2.88c0-1.44,2.4-1.44,2.4,0V19.872z M12,13.728c-0.96,0-1.728-0.768-1.728-1.728S11.04,10.272,12,10.272S13.728,11.04,13.728,12S12.96,13.728,12,13.728z M15.936,17.568l-2.016-2.016c-1.056-1.056,0.576-2.688,1.632-1.632l2.88,2.88C18.432,16.8,17.184,18.816,15.936,17.568z M18.72,13.152h-2.88c-1.44,0-1.44-2.4,0-2.4h4.032C19.872,10.848,20.448,13.152,18.72,13.152z"/></svg>