<svg xmlns="http://www.w3.org/2000/svg" enable-background="new 0 0 24 24" viewBox="0 0 24 24"><path d="M16.329,21.372l-0.004,0.001c0-0.524-0.425-0.955-0.947-0.955c-0.522,0-0.941,0.428-0.941,0.954c0,0.528,0.423,0.953,0.945,0.953C15.904,22.325,16.329,21.9,16.329,21.372z"/><path d="M1,20.995v1.775l1.295-1.387c0.264,0.93,0.647,1.807,1.136,2.615h1.684c-0.826-1.114-1.408-2.426-1.667-3.848l1.898-2.03l-0.977,3.091l1.726-1.268c3.051-2.234,6.691-2.75,10.824-1.529c1.791,0.532,3.532,0.039,4.438-1.257l0.103-0.165c0.09,0.498,0.14,0.998,0.14,1.496c0,1.563-0.253,3.687-1.369,5.512h1.598C22.598,22.437,23,20.568,23,18.488c-0.001-2.199-0.78-4.421-2.167-6.274l-0.155-0.204c-0.046-0.06-0.095-0.116-0.142-0.175c-0.045-0.061-0.093-0.113-0.14-0.169c-0.103-0.12-0.207-0.239-0.317-0.359l-0.075-0.08l-0.09-0.099l-0.134-0.131c-0.015-0.018-0.032-0.034-0.05-0.053c-1.151-1.139-2.485-1.986-3.924-2.504l-0.228-0.078c0.012-0.027,0.024-0.055,0.035-0.083c0.407-1.064,0.364-2.223-0.119-3.255c-0.487-1.035-1.345-1.8-2.419-2.16c-0.651-0.216-1.22-0.319-1.698-0.305c-0.033-0.105-0.099-0.577,0.492-1.848L10.673,0l-0.285,0.399c-0.327,0.455-0.643,0.895-0.937,1.328c-0.326-0.345-0.76-0.552-1.235-0.58L6.819,1.061c-0.033-0.003-0.07-0.003-0.103-0.003c-0.982,0-1.796,0.771-1.855,1.755L4.773,4.215v0.003C4.712,5.247,5.494,6.133,6.514,6.197l0.994,0.061c-0.065,0.84,0.072,1.62,0.402,2.306c-1.335,0.562-2.566,1.401-3.631,2.484C1,14.392,1,18.052,1,20.995z"/><path fill="#FA6F1B" d="M8.914,6.192l0.004-0.001c0.122-1.002,0.574-1.949,1.22-2.97c0.025,0.05,0.054,0.097,0.083,0.144c0.262,0.398,0.708,0.625,1.19,0.605c0.215-0.008,0.6,0.025,1.223,0.232c0.708,0.236,1.276,0.744,1.595,1.425c0.319,0.681,0.346,1.442,0.078,2.149c-0.172,0.445-0.451,0.82-0.8,1.109l-0.405-0.502L13.102,8.38c-0.277-0.341-0.688-0.535-1.125-0.535c-0.332,0-0.659,0.117-0.918,0.33c-0.331,0.27-0.51,0.66-0.53,1.058C9.339,8.692,8.743,7.59,8.914,6.192z"/><path fill="#3BCD8F" d="M13.19 11.301l-.002.001-.515.425c-.046.036-.094.053-.145.053-.066 0-.132-.03-.176-.085l-.11-.135c-.082-.1-.066-.25.034-.334l.506-.42-1.047-1.299c-.108-.133-.09-.33.044-.436.058-.048.125-.072.193-.072.09 0 .179.038.238.113l2.94 3.645c.108.135.089.33-.042.436-.039.029-.081.053-.125.063-.023.006-.045.009-.07.009-.089 0-.177-.04-.238-.113l-.293-.365-1.037.854c-.046.037-.099.055-.153.055-.068 0-.138-.03-.185-.09l-.473-.579c-.081-.102-.067-.252.035-.336l1.043-.857L13.19 11.301zM7.784 4.866L6.599 4.791C6.346 4.776 6.153 4.556 6.168 4.303l.089-1.401c.014-.245.214-.436.457-.436h.024l1.39.091c.122.006.234.06.314.152.082.094.122.21.115.336L8.551 3.146C8.233 3.713 7.971 4.28 7.784 4.866z"/><path fill="#FA6F1B" d="M9.011,9.941c0.467,0.373,1.026,0.66,1.66,0.841c0.159,0.044,0.319,0.074,0.476,0.102c-0.182,0.458-0.118,0.997,0.208,1.407l0.074,0.09c-0.171,0.45-0.104,0.975,0.219,1.374l0.471,0.582c0.264,0.325,0.654,0.513,1.071,0.513c0.318,0,0.63-0.111,0.879-0.314l0.283-0.232c0.173,0.074,0.364,0.113,0.562,0.113c0.112,0,0.22-0.01,0.327-0.035c0.216-0.05,0.421-0.15,0.593-0.291c0.618-0.51,0.714-1.435,0.207-2.06l-1.657-2.056c0.144-0.117,0.279-0.244,0.405-0.381c0.134,0.037,0.269,0.078,0.397,0.12c0.264,0.097,0.529,0.198,0.789,0.315c0.997,0.445,1.939,1.1,2.749,1.897c0.029,0.03,0.059,0.055,0.084,0.083l0.169,0.175c0.038,0.039,0.075,0.079,0.11,0.12c0.078,0.085,0.159,0.175,0.237,0.267l0.125,0.15c0.045,0.053,0.085,0.104,0.129,0.16l0.113,0.15c0.04,0.051,0.078,0.102,0.116,0.154c0.831,1.149,0.979,2.329,0.401,3.157v0.005h0.002c-0.56,0.805-1.674,1.081-2.901,0.718c-3.855-1.141-7.338-0.903-10.385,0.701l1.623-5.123l-5.249,5.609C3.397,14.491,5.732,11.286,9.011,9.941z"/><path d="M10.458,21.372l-0.004,0.001c0-0.524-0.424-0.955-0.944-0.955c-0.521,0-0.945,0.428-0.945,0.954c0,0.528,0.426,0.953,0.946,0.953C10.033,22.325,10.458,21.9,10.458,21.372z"/><rect width=".837" height=".829" x="6.946" y="3.257" transform="rotate(-86.474 7.364 3.672)"/></svg>