<svg xmlns="http://www.w3.org/2000/svg" enable-background="new 0 0 24 24" viewBox="0 0 24 24"><path fill="#2D3133" d="M4.31,16.666l1.022-0.991c-0.645-1.162-0.962-2.469-0.928-3.802c0.052-1.761,0.713-3.435,1.89-4.75c0.284-0.325,0.593-0.616,0.928-0.88L7.35,6.139l-2.129-2.22c0.087-0.436-0.043-0.889-0.353-1.214c-0.275-0.281-0.645-0.436-1.04-0.43C3.786,2.278,3.74,2.279,3.696,2.285C3.399,2.32,3.119,2.45,2.902,2.653C2.343,3.182,2.326,4.054,2.85,4.611c0.31,0.323,0.756,0.478,1.203,0.418l1.173,1.217c-1.354,1.548-2.16,3.536-2.204,5.593C2.97,13.548,3.417,15.214,4.31,16.666z"/><polygon points="3.828 2.275 3.828 2.275 3.829 2.275"/><path fill="#2D3133" d="M18.852 21.394c.532.556 1.409.573 1.967.052.559-.529.576-1.402.052-1.957-.31-.324-.756-.478-1.202-.418l-1.107-1.17-.01-.01c1.375-1.547 2.158-3.52 2.208-5.589.043-1.692-.395-3.359-1.28-4.803h-.001l-1.03.975c.644 1.154.962 2.46.927 3.793-.042 1.761-.703 3.435-1.88 4.751-.284.325-.593.616-.928.88l-.128.102.11.119c.525.547 1.436 1.512 1.95 2.059C18.414 20.616 18.542 21.07 18.852 21.394zM2.246 23.5c1.241 0 2.247-1.001 2.247-2.236-.003-.219-.029-.438-.096-.647L6.2 18.849l-.01.016c1.537 1.282 3.453 2 5.463 2.052 1.787.042 3.522-.438 5.017-1.393-.249-.266-.506-.531-.756-.796l-.216-.223c-1.21.71-2.593 1.068-4.01 1.035-1.718-.043-3.35-.666-4.655-1.768l-.07-.06-.077-.07L6.56 17.32c-.043-.044-.077-.086-.12-.129l-.06-.068c-.164-.179-.318-.358-.464-.557L5.814 16.43l-2.81 2.726-.032-.012v.003c-.213-.08-.441-.109-.667-.119l-.001-.001H2.246C1.005 19.026 0 20.027 0 21.261 0 22.496 1.005 23.5 2.246 23.5zM17.576 5.311c-1.537-1.29-3.454-2.008-5.464-2.059-1.787-.043-3.521.436-5.017 1.393l.98 1.017c1.204-.716 2.586-1.067 4.004-1.035 1.7.042 3.323.659 4.62 1.743l.077.07.06.05.077.07.12.102.266.265.034.043c.189.196.37.41.533.624l.102.137 3.05-2.88.033.012.002-.002c.226.072.46.115.7.111C22.994 4.971 24 3.972 24 2.736 24 1.501 22.993.5 21.753.5l.004.001c-1.241 0-2.247 1.001-2.247 2.236.003.226.033.452.103.666l-2.02 1.907H17.576z"/><path fill="#1577E7" d="M11.079,18.606c3.625,0.444,6.932-2.111,7.387-5.717c0.446-3.606-2.122-6.896-5.746-7.349c-0.253-0.03-0.506-0.05-0.76-0.05h-0.001c-3.37,0.012-6.196,2.421-6.628,5.767C4.885,14.864,7.453,18.154,11.079,18.606z M11.86,8.316L11.86,8.316l0.139-0.004c1.508,0.038,2.686,1.178,2.706,2.692c-0.015,1.071-0.57,1.906-1.505,2.411l0.51,2.388h-3.423l0.512-2.388c-0.94-0.482-1.478-1.365-1.505-2.413C9.332,9.535,10.394,8.431,11.86,8.316z"/></svg>