<svg xmlns="http://www.w3.org/2000/svg" enable-background="new 0 0 24 24" viewBox="0 0 24 24"><path fill="#4caf50" d="m10.237 9.238c-.681 0-1.237.563-1.237 1.255v.029h-.016v6.236h.016c.014.688.555 1.229 1.244 1.229.674 0 1.219-.547 1.235-1.229h.01v-6.218h-.016v-.045c0-.694-.555-1.257-1.236-1.257z"/><path fill="#2196f3" d="m22.619 11.863-.016-.008c-.764 0-1.379.614-1.379 1.38 0 .763.629 1.377 1.395 1.377.75 0 1.381-.614 1.381-1.374 0-.758-.631-1.375-1.381-1.375z"/><g fill="#4caf50"><path d="M14.501 6c-.679 0-1.23.562-1.23 1.252v.047h-.027v9.44h.016v.025c0 .684.547 1.237 1.221 1.237.655 0 1.186-.515 1.225-1.167h.014v-1.634l.631-.585 2.053 2.743c.211.375.617.63 1.08.63.691 0 1.244-.556 1.244-1.259 0-.254-.072-.49-.193-.685l.016.027.016-.016-2.281-3.058 1.621-1.603-.012-.015c.211-.225.344-.524.344-.87 0-.689-.559-1.259-1.248-1.259-.369 0-.699.15-.928.405l-2.311 2.259-.01-4.592h-.016v-.07c0-.691-.551-1.252-1.225-1.252zM.014 16.761c0 .682.549 1.237 1.225 1.237.651 0 1.185-.515 1.221-1.169h.015v-1.629l.63-.585 2.054 2.743c.21.375.615.63 1.081.63.689 0 1.244-.556 1.244-1.259 0-.245-.072-.473-.185-.664l.01-.01-2.271-3.058 1.627-1.603-.016-.015c.215-.225.346-.54.346-.87 0-.689-.558-1.259-1.245-1.259-.369 0-.701.15-.931.405l-2.311 2.259-.01-4.595h-.016v-.07c0-.691-.55-1.249-1.225-1.249-.679 0-1.23.561-1.23 1.251 0 .015 0 .029.004.044h-.031v9.44h.014z"/></g></svg>