<svg xmlns="http://www.w3.org/2000/svg" enable-background="new 0 0 24 24" viewBox="0 0 24 24"><path d="M12,24c6.6,0,12-5.4,12-12c0-6.6-5.4-12-12-12S0,5.4,0,12C0,18.6,5.4,24,12,24z M12,1.8c5.7,0,10.2,4.5,10.2,10.2S17.7,22.2,12,22.2S1.8,17.7,1.8,12S6.3,1.8,12,1.8z"/><path d="M11.3,17h-0.8c-0.4,0-0.7-0.3-0.7-0.7v-1.4c0-0.1,0-0.2,0.1-0.3l1.5-1.5c0,0,0.1-0.1,0.2-0.1s0.2,0,0.2,0.1l2.1,3.3v0.2c0,0.2-0.1,0.3-0.3,0.3h-0.9v2H19v-2h-0.7c-0.2,0-0.4-0.1-0.5-0.3v-0.1L14.1,11c0-0.1-0.1-0.1-0.1-0.2c0-0.1,0-0.2,0.1-0.2l3.2-3.2c0.113-0.113,0.195-0.159,0.281-0.181L17.4,7.4c0.1-0.1,0.3-0.2,0.4-0.2h0.5V5.3h-5.5v1.9h0.9c0.2,0,0.3,0.1,0.3,0.3c0,0.1,0,0.2-0.1,0.2l-3.8,3.8H10c-0.1,0-0.2-0.1-0.2-0.2V7.9c0-0.4,0.3-0.7,0.7-0.7h0.8V5.3H5.4v1.9h0.7c0.4,0,0.7,0.3,0.7,0.7v8.4c0,0.4-0.3,0.7-0.7,0.7H5.4v2h5.9V17z"/></svg>