<svg xmlns="http://www.w3.org/2000/svg" enable-background="new 0 0 24 24" viewBox="0 0 24 24"><path fill="#F34E39" d="M24 3.922c-.159-.193-.365-.453-.568-.716L23.37 3.121v-.01c-.25-.34-.43-.29-.63-.24-.2.05-4.77.87-5.05.9-.28.05-.19.2-.07.36l4 5.502L24 9.064V3.922zM.02 14.826l4.33-1.04c.35-.08.26-.12.09-.43L.02 5.722V14.826zM3.2 24h7.19c-.94-1.531-3.5-6.153-4.83-8.564H5.55v-.01L0 16.877v3.932C.006 22.572 1.436 24 3.2 24z"/><polygon fill="#F34E39" points="24 12.775 24 10.584 22.65 10.955 22.75 11.095"/><path fill="#F34E39" d="M20.16 9.984l-4.53-6.423c-.38-.53 0-.77.62-.87.6-.11 5.84-.99 6.3-1.05.37-.06.68-.18 1.2.3C23.27.8 22.14 0 20.82 0H3.2C3.199 0 3.197 0 3.195 0 1.647 0 .358 1.106.07 2.591l6.39 10.674L20.16 9.984zM24 15.126l-2.56-3.501c-.16-.25-.25-.3-.64-.17L7.44 14.936c0 0 4.1 7.103 4.41 7.553.32.46.51.42.76.32.18-.08 7.8-2.661 11.39-3.872V15.126zM23.99 21.059L15.8 23.99h5.02C22.5 23.99 23.87 22.689 23.99 21.059z"/></svg>