<svg xmlns="http://www.w3.org/2000/svg" enable-background="new 0 0 24 24" viewBox="0 0 24 24"><polygon fill="#F0B801" points="16.77 14.76 16.77 9.236 11.999 6.476 7.229 9.236 7.229 14.763 11.995 17.525"/><polygon fill="#941924" points="17.551 16.12 12.781 18.884 12.781 24 21.97 18.676"/><polygon fill="#C77E25" points="22.75 6.678 20.809 7.803 18.332 9.239 18.332 14.761 22.75 17.32"/><polygon fill="#83AB2B" points="12.779 5.121 17.551 7.883 21.972 5.324 12.779 0"/><polygon fill="#B32A76" points="11.218 24 11.218 18.881 6.446 16.119 2.029 18.676"/><polygon fill="#303A98" points="1.25 17.323 5.669 14.764 5.669 9.239 1.25 6.682"/><polygon fill="#2688B3" points="11.219 5.121 11.219 .003 2.029 5.324 6.451 7.883"/></svg>