<svg xmlns="http://www.w3.org/2000/svg" enable-background="new 0 0 24 24" viewBox="0 0 24 24"><path fill="#11386F" d="M18.16,12.91H5.84c-0.52,0-0.95,0.43-0.95,0.96v9.17c0,0.53,0.43,0.96,0.95,0.96h12.32c0.52,0,0.95-0.43,0.95-0.96v-9.17C19.11,13.34,18.68,12.91,18.16,12.91z M12.62,18.93v1.24c0,0.35-0.28,0.63-0.62,0.63s-0.62-0.28-0.62-0.63v-1.24h-0.01c-0.38-0.23-0.64-0.64-0.64-1.11c0-0.71,0.57-1.28,1.27-1.28s1.27,0.57,1.27,1.28C13.27,18.29,13.01,18.7,12.62,18.93z"/><path fill="#F5A106" d="M17 11.43v1.48h-2.87v-1.48c0-1.19-.95-2.15-2.13-2.15-1.17 0-2.13.96-2.13 2.15v1.48H7v-1.48c0-2.78 2.24-5.04 5-5.04S17 8.65 17 11.43zM19.107 3.337l-2.35 1.945-.002.001c-.194.161-.318.405-.318.678 0 .484.39.877.872.877 0 0 .003 0 .004 0 .211 0 .404-.076.554-.2l2.35-1.945.001-.001c.194-.161.317-.404.317-.677 0-.485-.39-.878-.872-.878C19.45 3.137 19.256 3.213 19.107 3.337zM11.127.878v3.014c0 .485.39.878.873.878.482 0 .872-.393.872-.878V.878C12.872.393 12.482 0 12 0 11.518 0 11.127.393 11.127.878zM23.25 10.664c0-.485-.391-.878-.873-.878h-3c-.482 0-.873.393-.873.878 0 .485.391.878.873.878h3C22.859 11.542 23.25 11.149 23.25 10.664zM1.622 11.542h2.971c.482 0 .873-.393.873-.878 0-.485-.39-.878-.873-.878H1.622c-.482 0-.872.393-.872.878C.75 11.149 1.141 11.542 1.622 11.542zM6.687 6.838h.001c.482 0 .872-.393.872-.878 0-.272-.123-.516-.318-.678l-2.35-1.945.001.001C4.744 3.213 4.55 3.137 4.338 3.137c-.482 0-.873.393-.873.878 0 .272.123.516.318.678l2.35 1.945L6.133 6.637c.149.125.342.201.553.201C6.687 6.838 6.687 6.838 6.687 6.838z"/></svg>