<svg xmlns="http://www.w3.org/2000/svg" enable-background="new 0 0 24 24" viewBox="0 0 24 24"><path fill="#EFC416" d="M14.84,14.587c0.352-0.159,0.648-0.383,0.887-0.658l0.003-0.003c0.244-0.283,0.435-0.623,0.571-1.02c0.13-0.378,0.204-0.814,0.204-1.267c0-0.016,0-0.032,0-0.048c0-0.468-0.104-0.865-0.31-1.192c-0.207-0.326-0.566-0.49-1.077-0.49c-0.008,0-0.018,0-0.028,0c-0.327,0-0.645,0.037-0.953,0.101l-1.142,4.749c0.185,0.044,0.413,0.065,0.685,0.065C14.105,14.824,14.492,14.745,14.84,14.587z"/><path fill="#EFC416" d="M0,21.68c0.001,1.281,1.039,2.319,2.32,2.32h19.36c1.281,0,2.32-1.039,2.32-2.32V2.32C24,1.039,22.961,0,21.68,0H2.32C1.039,0.001,0.001,1.039,0,2.32V21.68z M13.607,8.023c0.529-0.099,1.137-0.155,1.759-0.155c0.021,0,0.042,0,0.062,0c0.61,0,1.135,0.092,1.576,0.277c0.44,0.185,0.802,0.438,1.085,0.76c0.283,0.32,0.493,0.696,0.629,1.126s0.204,0.89,0.204,1.379v0.001c0,0.794-0.13,1.52-0.392,2.179c-0.261,0.662-0.628,1.228-1.087,1.707c-0.46,0.473-1.013,0.851-1.632,1.105l-0.032,0.012c-0.648,0.267-1.353,0.4-2.114,0.4c-0.37,0-0.74-0.033-1.11-0.098l-0.735,2.956H9.403l2.71-11.298C12.548,8.244,13.047,8.126,13.607,8.023z M6.736,14.483v0.004c0.005-0.452,0.068-0.933,0.188-1.445l2.074-8.67l2.53-0.392l-2.27,9.405c-0.038,0.159-0.064,0.343-0.073,0.533v0.006c-0.001,0.014-0.001,0.031-0.001,0.048c0,0.139,0.034,0.269,0.093,0.385c0.076,0.133,0.19,0.238,0.329,0.299l0.004,0.002c0.157,0.077,0.378,0.126,0.661,0.147l-0.49,2.008c-0.772,0-1.38-0.1-1.82-0.3c-0.441-0.203-0.757-0.477-0.947-0.826c-0.176-0.325-0.279-0.711-0.279-1.121C6.735,14.538,6.735,14.511,6.736,14.483z"/><path d="M14.107,10.013c0.01-0.002,0.021-0.001,0.03-0.003l0.001-0.003L14.107,10.013z"/><polygon points="9.278 14.361 9.277 14.357 9.276 14.356"/></svg>