<svg xmlns="http://www.w3.org/2000/svg" enable-background="new 0 0 24 24" viewBox="0 0 24 24"><path fill="#533936" d="M4.8,22.241c-0.24,0.13-0.59,0.2-1.03,0.23c-0.45,0.02-0.77,0.11-0.97,0.28c-0.2,0.16-0.3,0.29-0.3,0.38c0,0.57,0.53,0.85,1.6,0.85l0.23-0.03l1.92-0.2c0.32-0.02,0.7-0.03,1.12-0.03h0.4l1.2,0.03h3.2l0.88-0.08c0.28-0.03,0.53-0.05,0.75-0.05c0.29,0,0.69,0.07,1.2,0.22c0.51,0.14,0.94,0.19,1.3,0.14l0.38-0.1c0.24-0.06,0.46-0.1,0.69-0.1l0.45,0.06c0.27,0.03,0.5,0.05,0.68,0.05c0.09,0,0.24-0.03,0.47-0.07c0.55-0.11,0.94-0.32,1.16-0.63c0.16-0.22,0.24-0.42,0.24-0.62c-0.069-0.319-0.108-0.685-0.108-1.061c0-0.098,0.003-0.194,0.009-0.29c0.1-0.22,0.23-0.439,0.359-0.659c0.11-0.29,0.2-0.68,0.24-1.17c0.04-0.5,0.08-0.83,0.11-0.99c0.04-0.16,0.13-0.42,0.29-0.76c0.15-0.34,0.23-0.63,0.23-0.87c0-0.26-0.06-0.5-0.17-0.7c-0.1-0.19-0.25-0.29-0.43-0.29c-0.11,0-0.29,0.1-0.53,0.3c-0.11,0.09-0.2,0.25-0.29,0.5c-0.07,0.23-0.14,0.4-0.18,0.49c-0.27,0.4-0.53,0.78-0.8,1.15c-0.109,0.172-0.219,0.376-0.316,0.586l-0.014,0.034c-0.23,0.47-0.4,0.78-0.54,0.96c-0.162,0.181-0.336,0.345-0.521,0.493L17.7,20.301c-0.11,0.08-0.22,0.2-0.32,0.34s-0.24,0.37-0.41,0.68l-0.57,0.3l-0.4,0.1c-0.13,0.01-0.31,0.07-0.53,0.16c-0.23,0.08-0.4,0.14-0.5,0.16c-0.11,0.02-0.26,0.03-0.44,0.03c-0.2,0-0.5-0.03-0.9-0.1c-0.4-0.06-0.72-0.1-0.96-0.1l-0.7,0.04c-0.8,0-1.4-0.43-1.77-1.29c-0.371-0.969-0.586-2.091-0.586-3.262c0-0.497,0.039-0.984,0.113-1.46L9.72,15.952c0.05-0.36,0.08-0.64,0.08-0.86v-2.3l0.03-0.76c0.03-0.31,0.04-0.53,0.04-0.66c0-0.016,0-0.035,0-0.055c0-0.36-0.062-0.706-0.177-1.027L9.7,10.311c-0.07-0.164-0.116-0.355-0.13-0.555V9.751c0-0.1,0.02-0.26,0.06-0.46c0.05-0.2,0.07-0.35,0.07-0.46l-0.03-0.99c-0.03-0.42-0.04-0.75-0.04-0.99c0-0.28,0.05-0.63,0.14-1.05c0.09-0.42,0.13-0.76,0.13-1.02l0.001,0.001v-0.43l-0.03-0.46c0-0.13-0.05-0.33-0.14-0.6c-0.09-0.26-0.13-0.49-0.13-0.69c0-0.001,0-0.002,0-0.003c0-0.135,0.067-0.254,0.169-0.326l0.001-0.001l0.35-0.28c0.153-0.113,0.346-0.182,0.555-0.182c0.019,0,0.038,0.001,0.057,0.002H10.73c0.16,0,0.41,0.02,0.77,0.07c0.31,0,0.54-0.07,0.7-0.2l0.37-0.26c0.17-0.14,0.26-0.29,0.26-0.46c0-0.29-0.16-0.52-0.48-0.7C12.024,0.097,11.639,0,11.231,0c-0.036,0-0.071,0.001-0.106,0.002h0.005l-1.36,0.1c-0.31,0-0.9,0.07-1.77,0.21c-0.87,0.15-1.54,0.22-2.03,0.22c-0.2,0-0.54-0.04-1.02-0.12C4.609,0.35,4.212,0.31,3.808,0.302H3.8l-0.75,0.24c-0.26,0.08-0.38,0.2-0.38,0.35l0.06,0.3c0.14,0.28,0.34,0.5,0.6,0.65l0.27,0.14c0.13,0.04,0.24,0.06,0.33,0.06c0.11,0,0.28,0,0.5-0.03c0.002,0,0.004,0,0.007,0c0.18,0,0.349,0.048,0.495,0.132L5.3,2.472c0.18,0.2,0.3,0.4,0.38,0.58c0.08,0.18,0.12,0.35,0.12,0.5c0,0.12-0.02,0.3-0.07,0.57c-0.04,0.26-0.06,0.47-0.06,0.62c0,0.2,0.05,0.49,0.15,0.86c0.1,0.37,0.15,0.68,0.15,0.92c-0.03,0.38-0.04,0.75-0.04,1.12v1.12c0,0.29,0.03,0.66,0.07,1.12c0.04,0.46,0.07,0.83,0.07,1.1L6,12.352l-0.03,2.21l-0.1,1.81c0,0.25,0.04,0.56,0.13,0.96c0.09,0.4,0.13,0.71,0.13,0.95c0,0.25-0.03,0.55-0.1,0.93c-0.065,0.254-0.102,0.545-0.102,0.845c0,0.167,0.012,0.332,0.034,0.493L5.96,20.531c0.03,0.17,0.03,0.3,0,0.4c-0.029,0.143-0.092,0.269-0.181,0.371l0.001-0.001l-0.31,0.38C5.27,21.921,5.04,22.111,4.8,22.241z"/></svg>