<svg xmlns="http://www.w3.org/2000/svg" enable-background="new 0 0 24 24" viewBox="0 0 24 24"><polygon points="20.013 18.181 20.067 18.641 20.149 19.048 20.268 19.393 20.418 19.709 20.588 19.98 20.724 20.131 20.858 20.266 21.066 20.452 21.302 20.603 21.539 20.723 21.793 20.813 22.137 20.903 22.585 20.971 23.195 21 23.761 20.974 24 20.944 24 18.67 23.9 18.67 23.631 18.686 23.438 18.675 23.296 18.646 23.2 18.616 23.111 18.586 23.022 18.54 22.96 18.511 22.916 18.465 22.871 18.42 22.826 18.375 22.767 18.285 22.72 18.18 22.677 18.059 22.631 17.879 22.601 17.607 22.586 17.231 22.586 15.95 22.571 15.319 22.556 14.896 22.556 14.279 22.541 14.069 22.541 13.662 22.526 13.452 22.51 13.241 22.51 12.849 22.495 12.654 22.479 12.457 22.434 11.873 22.404 11.509 22.389 11.329 22.373 11.148 22.358 10.802 22.342 10.621 22.327 10.456 22.312 10.289 22.297 10.124 22.282 9.959 22.267 9.792 22.251 9.643 22.236 9.493 22.205 9.342 22.19 9.192 22.175 9.042 22.147 8.892 22.13 8.756 22.1 8.62 22.071 8.485 22.056 8.364 22.027 8.228 21.997 8.109 21.967 7.987 21.909 7.777 21.879 7.673 21.848 7.567 21.82 7.462 21.791 7.357 21.76 7.267 21.73 7.176 21.672 6.994 21.644 6.92 21.613 6.845 21.583 6.77 21.554 6.694 21.525 6.634 21.45 6.514 21.406 6.468 21.376 6.423 21.33 6.377 21.293 6.332 21.258 6.303 21.223 6.272 21.184 6.25 21.146 6.23 21.107 6.215 21.067 6.204 21.028 6.198 20.987 6.196 21.038 6.165 18.516 6.165 18.546 6.18 18.59 6.196 18.639 6.208 18.685 6.224 18.713 6.239 18.759 6.27 18.787 6.299 18.828 6.329 18.859 6.374 18.895 6.419 18.925 6.464 18.969 6.525 18.998 6.585 19.028 6.647 19.058 6.707 19.087 6.781 19.116 6.858 19.146 6.933 19.177 7.024 19.206 7.113 19.228 7.204 19.257 7.294 19.286 7.399 19.331 7.49 19.356 7.594 19.385 7.699 19.419 7.803 19.45 7.923 19.48 8.044 19.509 8.163 19.535 8.299 19.565 8.426 19.58 8.562 19.596 8.697 19.64 8.978 19.655 9.114 19.67 9.256 19.686 9.416 19.701 9.565 19.718 9.717 19.733 9.882 19.747 10.047 19.762 10.208 19.777 10.379 19.792 10.544 19.809 10.716 19.823 10.888 19.835 11.068 19.852 11.249 19.867 11.431 19.867 11.61 19.882 11.795 19.897 11.976 19.9 12.157 19.914 12.338 19.929 12.534 19.937 12.729 19.937 12.924 19.952 13.119 19.952 13.52 19.968 13.721 19.968 14.011 19.983 14.417 19.983 15.29 19.998 15.712 19.998 17.668"/><polygon fill="#CA1F2E" points=".119 3.033 .187 3.065 .258 3.095 .328 3.125 .396 3.156 .463 3.186 .537 3.23 .597 3.275 .672 3.321 .736 3.381 .806 3.426 .875 3.471 .942 3.525 1.01 3.583 1.14 3.705 1.215 3.786 1.277 3.852 1.352 3.922 1.418 3.982 1.492 4.057 1.55 4.158 1.609 4.232 1.678 4.311 1.745 4.388 1.833 4.506 1.908 4.597 1.967 4.687 2.043 4.776 2.117 4.866 2.176 4.957 2.242 5.048 2.305 5.153 2.365 5.259 2.426 5.349 2.484 5.455 2.545 5.559 2.619 5.666 2.744 5.876 2.805 5.981 2.864 6.094 2.94 6.215 3.014 6.326 3.072 6.446 3.207 6.677 3.355 6.918 3.416 7.038 3.476 7.158 3.596 7.399 3.655 7.537 3.775 7.777 3.834 7.899 3.895 8.019 3.969 8.14 4.029 8.259 4.103 8.38 4.163 8.516 4.236 8.636 4.296 8.756 4.357 8.877 4.416 9.012 4.476 9.133 4.536 9.284 4.655 9.554 4.715 9.689 4.775 9.826 4.834 9.962 4.893 10.096 4.952 10.232 5.013 10.352 5.072 10.488 5.13 10.623 5.25 10.894 5.31 11.03 5.37 11.15 5.431 11.286 5.494 11.406 5.554 11.542 5.617 11.663 5.68 11.783 5.74 11.918 5.8 12.07 5.86 12.19 5.923 12.31 5.983 12.43 6.047 12.55 6.107 12.67 6.167 12.798 6.231 12.925 6.29 13.051 6.351 13.175 6.41 13.299 6.459 13.426 6.594 13.454 6.654 13.575 6.713 13.695 6.774 13.815 6.833 13.935 6.894 14.056 6.954 14.176 7.014 14.297 7.075 14.418 7.134 14.523 7.195 14.628 7.254 14.733 7.315 14.838 7.435 15.047 7.494 15.152 7.555 15.257 7.615 15.363 7.675 15.468 7.735 15.574 7.781 15.679 7.84 15.77 7.9 15.875 7.96 15.965 8.021 16.056 8.08 16.147 8.141 16.238 8.261 16.419 8.321 16.508 8.381 16.584 8.442 16.675 8.501 16.749 8.562 16.84 8.607 16.915 8.666 16.991 8.785 17.14 8.839 17.206 8.884 17.274 8.943 17.335 9.005 17.34 9.049 17.4 9.11 17.461 9.17 17.521 9.23 17.567 9.291 17.621 9.335 17.682 9.395 17.739 9.455 17.799 9.515 17.844 9.56 17.889 9.621 17.934 9.709 18.025 9.77 18.056 9.815 18.085 9.875 18.115 9.919 18.144 9.98 18.175 10.037 18.206 10.093 18.221 10.145 18.245 10.161 18.245 10.221 18.26 10.281 18.277 10.338 18.291 10.395 18.307 10.446 18.322 17.443 18.322 17.428 18.307 17.412 18.303 17.383 18.287 17.368 18.27 17.352 18.255 17.307 18.21 17.291 18.18 17.276 18.15 17.261 18.12 17.246 18.091 17.216 18.029 17.201 17.991 17.163 17.915 17.148 17.871 17.119 17.824 17.103 17.78 17.073 17.689 17.043 17.638 17.028 17.592 16.983 17.41 16.967 17.35 16.952 17.289 16.936 17.224 16.913 17.162 16.89 17.088 16.874 17.027 16.859 16.958 16.844 16.882 16.829 16.808 16.805 16.733 16.789 16.654 16.775 16.58 16.759 16.504 16.744 16.418 16.728 16.327 16.713 16.252 16.698 16.161 16.683 16.071 16.668 15.98 16.638 15.889 16.623 15.799 16.593 15.702 16.563 15.611 16.534 15.505 16.519 15.4 16.489 15.295 16.46 15.19 16.444 15.085 16.415 14.98 16.393 14.875 16.363 14.77 16.334 14.665 16.305 14.559 16.259 14.334 16.229 14.229 16.215 14.108 16.155 13.867 16.097 13.627 16.037 13.387 16.008 13.266 15.978 13.146 15.948 13.024 15.89 12.784 15.86 12.648 15.83 12.528 15.801 12.393 15.756 12.272 15.727 12.137 15.697 12.001 15.667 11.881 15.638 11.745 15.609 11.609 15.578 11.481 15.549 11.36 15.549 11.346 15.504 11.21 15.475 11.089 15.43 10.953 15.401 10.818 15.36 10.683 15.331 10.546 15.292 10.41 15.263 10.276 15.224 10.14 15.179 10.003 15.149 9.868 15.105 9.732 15.06 9.596 14.97 9.324 14.925 9.19 14.88 9.069 14.829 8.933 14.785 8.813 14.731 8.677 14.67 8.541 14.626 8.421 14.566 8.3 14.506 8.164 14.456 8.045 14.396 7.909 14.348 7.788 14.303 7.669 14.243 7.547 14.063 7.187 13.989 7.067 13.928 6.947 13.868 6.827 13.794 6.705 13.72 6.585 13.645 6.464 13.571 6.344 13.497 6.239 13.423 6.119 13.333 6.013 13.259 5.908 13.079 5.698 12.975 5.592 12.795 5.382 12.69 5.277 12.586 5.186 12.482 5.081 12.378 4.99 12.021 4.718 11.902 4.629 11.632 4.447 11.484 4.357 11.32 4.282 11.172 4.207 11.006 4.133 10.843 4.056 10.664 3.981 10.47 3.922 10.276 3.846 10.067 3.785 9.844 3.725 9.604 3.664 9.352 3.605 9.082 3.545 8.799 3.484 8.157 3.393 7.8 3.348 7.413 3.302 6.995 3.257 6.532 3.211 6.026 3.182 5.459 3.151 4.817 3.122 4.087 3.093 3.236 3.063 2.266 3.047 1.177 3.021 .008 3 .008 3.004 0 3.004 .06 3.01"/></svg>