<svg xmlns="http://www.w3.org/2000/svg" enable-background="new 0 0 24 24" viewBox="0 0 24 24"><path fill="#73A1FB" d="M12.761,1.542c-1.587,0-3.095,0.33-4.463,0.921L5.829,0H5.823C3.216,1.14,1.125,3.237,0,5.85l2.475,2.467L2.472,8.314c1.128-2.61,3.217-4.71,5.823-5.85l9.143,9.12c-2.605,1.14-4.698,3.237-5.823,5.85L2.472,8.32C1.875,9.69,1.52,11.18,1.52,12.771C1.52,18.976,6.551,24,12.761,24C18.967,24,24,18.973,24,12.771C24,6.569,18.967,1.542,12.761,1.542z M14.709,18.095c0.655-1.514,1.869-2.735,3.381-3.399h0.003l0.886,4.282L14.709,18.095z"/></svg>