<svg xmlns="http://www.w3.org/2000/svg" enable-background="new 0 0 24 24" viewBox="0 0 24 24"><path fill="#00007D" d="M21.179,12.002c0-5.068-4.113-9.181-9.181-9.181c-5.068,0-9.181,4.113-9.181,9.181c0,5.068,4.113,9.181,9.181,9.181C17.066,21.183,21.179,17.07,21.179,12.002L21.179,12.002z"/><path fill="#FFF" d="M18.491,8.198c0-1.484-1.205-2.689-2.689-2.689c-1.484,0-2.689,1.205-2.689,2.689s1.205,2.689,2.689,2.689S18.491,9.682,18.491,8.198L18.491,8.198z"/><path fill="#00007D" d="M23.868,2.821c0-1.484-1.205-2.689-2.689-2.689S18.49,1.337,18.49,2.821c0,1.484,1.205,2.689,2.689,2.689C22.663,5.51,23.868,4.305,23.868,2.821L23.868,2.821z"/><path fill="#FFF" d="M5.738,10.663h0.803v5.221h2.973v0.706H5.738V10.663L5.738,10.663z M10.963,12.269v2.869c0,0.221,0.034,0.401,0.102,0.541c0.126,0.258,0.36,0.387,0.703,0.387c0.492,0,0.828-0.226,1.006-0.678c0.097-0.242,0.145-0.574,0.145-0.997v-2.122h0.726v4.321H12.96l0.008-0.637c-0.092,0.164-0.207,0.303-0.345,0.416c-0.272,0.226-0.602,0.339-0.99,0.339c-0.604,0-1.016-0.206-1.235-0.617c-0.119-0.22-0.178-0.515-0.178-0.884v-2.937L10.963,12.269L10.963,12.269z M17.148,13.975c0.167-0.021,0.278-0.091,0.335-0.209c0.032-0.065,0.048-0.158,0.048-0.279c0-0.248-0.088-0.429-0.264-0.541c-0.176-0.112-0.427-0.168-0.755-0.168c-0.379,0-0.647,0.103-0.805,0.308c-0.089,0.114-0.146,0.283-0.173,0.507h-0.678c0.013-0.534,0.186-0.906,0.518-1.115c0.332-0.209,0.717-0.314,1.154-0.314c0.508,0,0.92,0.097,1.237,0.29c0.314,0.194,0.471,0.495,0.471,0.904v2.489c0,0.075,0.015,0.136,0.046,0.181c0.031,0.046,0.096,0.068,0.196,0.068c0.032,0,0.068-0.002,0.109-0.006c0.04-0.004,0.083-0.01,0.129-0.018v0.537c-0.113,0.032-0.199,0.052-0.258,0.06c-0.059,0.008-0.14,0.012-0.242,0.012c-0.25,0-0.432-0.089-0.545-0.266c-0.059-0.094-0.101-0.227-0.125-0.399c-0.148,0.194-0.36,0.362-0.638,0.504c-0.277,0.142-0.582,0.214-0.916,0.214c-0.401,0-0.728-0.122-0.982-0.365c-0.254-0.243-0.381-0.547-0.381-0.913c0-0.4,0.125-0.71,0.375-0.931c0.25-0.22,0.578-0.356,0.984-0.407L17.148,13.975L17.148,13.975z M15.619,15.937c0.153,0.121,0.335,0.181,0.545,0.181c0.255,0,0.503-0.059,0.742-0.177c0.403-0.196,0.605-0.517,0.605-0.963v-0.584c-0.089,0.057-0.203,0.104-0.342,0.142c-0.14,0.038-0.276,0.065-0.411,0.081l-0.439,0.056c-0.263,0.035-0.461,0.09-0.593,0.165c-0.225,0.126-0.337,0.327-0.337,0.604C15.389,15.651,15.465,15.816,15.619,15.937L15.619,15.937z"/><path fill="#929292" d="M12.425,24l-0.01-0.275c0.34-0.012,0.684-0.039,1.02-0.08l0.033,0.273C13.124,23.96,12.773,23.988,12.425,24L12.425,24z M11.378,23.991c-0.348-0.018-0.698-0.051-1.042-0.099l0.038-0.273c0.336,0.047,0.679,0.079,1.019,0.097L11.378,23.991L11.378,23.991z M14.501,23.746l-0.057-0.269c0.333-0.071,0.666-0.157,0.991-0.256l0.081,0.263C15.181,23.586,14.843,23.673,14.501,23.746L14.501,23.746z M9.306,23.703c-0.339-0.078-0.679-0.172-1.009-0.279l0.085-0.262c0.325,0.105,0.654,0.196,0.986,0.272L9.306,23.703z M16.502,23.133l-0.103-0.255c0.316-0.128,0.626-0.27,0.93-0.425l0.125,0.245C17.144,22.857,16.826,23.002,16.502,23.133z M7.314,23.058c-0.322-0.137-0.637-0.287-0.945-0.451l0.129-0.243c0.3,0.16,0.611,0.308,0.924,0.441L7.314,23.058L7.314,23.058z M18.365,22.181l-0.146-0.233c0.289-0.181,0.57-0.375,0.843-0.581l0.166,0.22C18.949,21.798,18.661,21.996,18.365,22.181L18.365,22.181z M5.467,22.074c-0.293-0.19-0.577-0.393-0.853-0.609l0.17-0.217c0.269,0.21,0.547,0.409,0.833,0.595L5.467,22.074z M20.035,20.92l-0.184-0.204c0.253-0.228,0.498-0.469,0.73-0.718l0.201,0.188C20.543,20.442,20.294,20.687,20.035,20.92L20.035,20.92z M3.818,20.785c-0.255-0.238-0.501-0.487-0.735-0.747l0.204-0.184c0.229,0.253,0.468,0.497,0.718,0.729L3.818,20.785L3.818,20.785z M21.462,19.39l-0.217-0.17c0.21-0.269,0.409-0.547,0.595-0.833l0.231,0.15C21.88,18.831,21.677,19.115,21.462,19.39z M2.416,19.232c-0.211-0.279-0.409-0.566-0.595-0.862l0.233-0.146c0.181,0.289,0.375,0.57,0.581,0.842L2.416,19.232L2.416,19.232z M22.604,17.636l-0.243-0.129c0.16-0.3,0.308-0.611,0.441-0.924l0.253,0.108C22.919,17.012,22.768,17.327,22.604,17.636z M1.304,17.46C1.145,17.149,1,16.831,0.868,16.508l0.255-0.104c0.128,0.316,0.27,0.626,0.426,0.93L1.304,17.46z M23.423,15.709l-0.262-0.085c0.105-0.324,0.196-0.653,0.273-0.986l0.268,0.062C23.624,15.04,23.53,15.377,23.423,15.709L23.423,15.709z M0.518,15.521c-0.102-0.334-0.19-0.672-0.263-1.014l0.269-0.057c0.071,0.334,0.157,0.664,0.257,0.99L0.518,15.521z M23.892,13.67l-0.273-0.038c0.047-0.336,0.079-0.679,0.097-1.018l0.275,0.014C23.973,12.976,23.94,13.324,23.892,13.67z M0.082,13.474C0.04,13.128,0.012,12.779,0,12.43l0.275-0.01c0.012,0.34,0.039,0.683,0.08,1.02L0.082,13.474z M23.725,11.59c-0.012-0.34-0.039-0.683-0.08-1.02l0.273-0.034c0.042,0.345,0.07,0.697,0.082,1.044L23.725,11.59z M0.283,11.397l-0.275-0.014c0.018-0.348,0.051-0.699,0.098-1.042l0.273,0.038C0.333,10.715,0.3,11.058,0.283,11.397z M23.476,9.561c-0.071-0.334-0.157-0.664-0.256-0.991l0.263-0.08c0.102,0.334,0.19,0.672,0.262,1.014L23.476,9.561L23.476,9.561z M0.563,9.373L0.295,9.311c0.078-0.34,0.171-0.677,0.278-1.01l0.262,0.085C0.731,8.711,0.64,9.04,0.563,9.373z M22.878,7.605c-0.127-0.315-0.27-0.629-0.424-0.931l0.245-0.125c0.159,0.311,0.303,0.629,0.434,0.953L22.878,7.605z M1.193,7.427L0.94,7.32c0.136-0.322,0.287-0.637,0.451-0.946l0.243,0.129C1.474,6.805,1.327,7.113,1.193,7.427L1.193,7.427z M2.153,5.622l-0.231-0.15c0.19-0.293,0.393-0.577,0.608-0.853l0.217,0.17C2.538,5.057,2.339,5.335,2.153,5.622L2.153,5.622z M3.412,4.01L3.21,3.822c0.238-0.256,0.487-0.501,0.746-0.735l0.185,0.204C3.888,3.52,3.644,3.76,3.412,4.01L3.412,4.01z M4.929,2.639L4.763,2.42C5.042,2.209,5.329,2.01,5.625,1.824l0.147,0.233C5.482,2.239,5.201,2.433,4.929,2.639L4.929,2.639z M18.39,2.161l-0.015-0.01l0.15-0.231l0.015,0.009L18.39,2.161L18.39,2.161z M17.492,1.633c-0.302-0.16-0.61-0.306-0.924-0.439l0.107-0.254c0.322,0.136,0.637,0.286,0.946,0.45L17.492,1.633L17.492,1.633z M6.66,1.552L6.535,1.307C6.846,1.147,7.163,1.002,7.487,0.87L7.59,1.126C7.274,1.254,6.964,1.396,6.66,1.552L6.66,1.552z M15.609,0.837c-0.325-0.105-0.654-0.196-0.987-0.272l0.062-0.268c0.339,0.078,0.679,0.171,1.01,0.278L15.609,0.837z M8.554,0.782L8.473,0.519c0.334-0.102,0.672-0.19,1.014-0.263l0.057,0.269C9.211,0.597,8.88,0.682,8.554,0.782z M13.616,0.379c-0.337-0.047-0.68-0.079-1.019-0.097l0.014-0.275c0.347,0.018,0.698,0.051,1.043,0.099L13.616,0.379z M10.553,0.356L10.52,0.083C10.864,0.04,11.215,0.013,11.563,0l0.01,0.275C11.233,0.288,10.89,0.315,10.553,0.356z"/></svg>