<svg xmlns="http://www.w3.org/2000/svg" enable-background="new 0 0 24 24" viewBox="0 0 24 24"><path fill="#E30B88" d="M6.374,16.523c1.734,0.46,2.728-0.498,2.728-0.498c-0.098,0.63-0.68,1.095-1.636,1.189c-0.727,0.075-1.65-0.169-2.109-0.367v3.304c1.177,0.353,2.414,0.46,3.637,0.221c2.208-0.428,3.6-2.275,3.6-4.737V7.259H8.98v0.023l0.001,0.002v5.311c0,0.724-1.116,0.724-1.116,0V7.284h-3.6v6.236C4.265,14.639,4.64,16.058,6.374,16.523z"/><path fill="#E30B88" d="M4.922 16.458c-.572-.385-1.275-1.311-1.275-2.867V3.783H0v9.771c0 1.021.366 2.116 1.163 2.773C2.522 17.441 4.327 16.979 4.922 16.458zM24 13.153c-.68 0-1.223-.549-1.223-1.217h-.001v-1.034h1.116v-3.61h-1.223c-.473-2.176-2.4-3.793-4.702-3.793-2.653 0-4.814 2.162-4.814 4.827v8.422c.75.108 1.659-.014 2.423-.658.802-.658 1.163-1.749 1.163-2.773v-.315h1.819v-3.61h-1.819V8.299c0-1.626 2.447-1.626 2.447 0v3.623c0 2.66 2.156 4.827 4.814 4.827V13.153z"/></svg>