<svg xmlns="http://www.w3.org/2000/svg" enable-background="new 0 0 24 24" viewBox="0 0 24 24"><path d="M15.245,4.115v0.006h-0.002H8.757c-0.922,0-1.7,0.324-2.333,0.975C5.789,5.74,5.471,6.521,5.471,7.43v10.182c0,0.449,0.135,0.81,0.4,1.095c0.267,0.269,0.615,0.42,1.051,0.42c0.445,0,0.805-0.135,1.079-0.405c0.272-0.271,0.409-0.63,0.409-1.08V7.08h2.141v10.529c0,0.445,0.131,0.806,0.391,1.08c0.259,0.273,0.611,0.411,1.059,0.411c0.446,0,0.799-0.138,1.059-0.411c0.26-0.274,0.39-0.635,0.39-1.08V7.08h2.142v10.529c0,0.445,0.135,0.806,0.408,1.08c0.275,0.273,0.635,0.411,1.08,0.411c0.435,0,0.783-0.141,1.05-0.423c0.268-0.28,0.401-0.638,0.401-1.069V7.426c0-0.91-0.318-1.688-0.953-2.336C16.946,4.442,16.169,4.115,15.245,4.115z"/><path d="M20.487,3.515c-1.104-1.101-2.386-1.964-3.814-2.571C15.19,0.315,13.62,0,12,0S8.81,0.318,7.328,0.945C5.9,1.549,4.617,2.415,3.515,3.515C2.414,4.615,1.551,5.9,0.943,7.328C0.315,8.81,0,10.38,0,12c0,1.619,0.318,3.189,0.945,4.671c0.604,1.429,1.47,2.714,2.569,3.814c1.103,1.1,2.386,1.964,3.813,2.57C8.81,23.686,10.38,24,12,24c1.619,0,3.189-0.314,4.671-0.944c1.429-0.601,2.711-1.471,3.814-2.564c1.1-1.095,1.964-2.386,2.57-3.811c0.63-1.47,0.944-3.045,0.944-4.665c0-1.619-0.314-3.18-0.944-4.664V7.328C22.452,5.9,21.586,4.614,20.487,3.515z M12,22.335C6.293,22.335,1.665,17.707,1.665,12S6.293,1.665,12,1.665S22.336,6.293,22.336,12S17.708,22.335,12,22.335z"/></svg>