<svg xmlns="http://www.w3.org/2000/svg" enable-background="new 0 0 24 24" viewBox="0 0 24 24"><path fill="#FF5F00" d="M15.245,17.831h-6.49V6.168h6.49L15.245,17.831z"/><path fill="#EB001B" d="M9.167,12c0-2.366,1.108-4.473,2.833-5.831c-1.306-1.03-2.921-1.588-4.583-1.586C3.32,4.583,0,7.904,0,12s3.32,7.417,7.416,7.417c1.663,0.002,3.278-0.556,4.583-1.586C10.275,16.473,9.167,14.366,9.167,12L9.167,12z"/><path fill="#F79E1B" d="M24,12c0,4.096-3.32,7.417-7.416,7.417c-1.663,0.002-3.278-0.556-4.584-1.586c1.725-1.358,2.833-3.465,2.833-5.831S13.725,7.527,12,6.169c1.306-1.03,2.921-1.588,4.584-1.586C20.68,4.583,24,7.904,24,12L24,12z"/></svg>