<svg xmlns="http://www.w3.org/2000/svg" enable-background="new 0 0 24 24" viewBox="0 0 24 24"><linearGradient id="a" x1="9.951" x2="12.617" y1="10.505" y2="11.755" gradientUnits="userSpaceOnUse"><stop offset="0" stop-color="#74d1c9"/><stop offset="1" stop-color="#e97500"/></linearGradient><path fill="url(#a)" d="M5.812,16.626c0,0,0.596-0.147,1.193,0.147c1.193,0.44,1.789,2.056,2.236,3.23c0.298,0.881,0.745,1.616,1.043,2.496c1.193-0.293,1.938-0.734,2.683-1.469c0.745-0.735,1.491-1.616,2.236-2.35c1.342-1.616,2.981-3.672,5.068-2.643c0.298,0.147,0.745,0.44,0.894,0.587c0.447,0.294,0.745,0.587,1.193,1.028c0.745,0.587,1.043,1.028,1.64,1.322c-1.491-2.937-2.534-5.875-3.727-8.958l0.002,0.002c-0.447-1.175-0.745-2.35-1.193-3.525c-0.447-1.322-0.894-2.497-1.64-3.525c-0.298-0.44-0.894-1.469-1.64-1.469c-0.149,0-0.298,0.147-0.447,0.147c-0.447,0.147-1.043,1.028-1.193,1.616c-0.447,0.734-1.342,1.909-1.938,2.643c-0.149,0.294-0.447,0.587-0.596,0.734c-0.447,0.294-0.894,0.734-1.491,1.028c-0.149,0-0.298,0.147-0.447,0.147c-0.447,0-0.745,0.294-1.043,0.44c-0.447,0.44-0.894,1.028-1.342,1.469c0,0.147-0.149,0.294-0.298,0.44l2.236,1.616c1.64-1.909,3.578-3.819,4.919-7.489c0,0-0.447,3.965-4.025,8.224C7.9,15.011,6.11,16.333,5.812,16.626z"/><path fill="#74D1C9" d="M4.323,16.186L4.323,16.186c0.895-0.734,2.087-1.468,3.876-3.524L5.814,10.9L0,13.102C1.64,14.277,3.13,15.305,4.323,16.186z"/></svg>