<svg xmlns="http://www.w3.org/2000/svg" enable-background="new 0 0 24 24" viewBox="0 0 24 24"><polygon points="0 24 2.28 24 2.28 23.45 .632 23.45 .632 .55 2.28 .55 2.28 0 0 0"/><polygon points="24 0 21.72 0 21.72 .55 23.368 .55 23.368 23.45 21.72 23.45 21.72 24 24 24"/><path d="M18.535,16.371v-5.728c0-0.554-0.078-1.025-0.23-1.417c-0.157-0.392-0.37-0.706-0.646-0.951c-0.277-0.244-0.605-0.42-0.993-0.53c-0.388-0.111-0.807-0.167-1.26-0.167c-0.596,0-1.112,0.143-1.546,0.43C13.426,8.294,13.08,8.626,12.826,9c-0.235-0.526-0.572-0.9-1.02-1.108c-0.448-0.207-0.941-0.314-1.481-0.314c-0.564,0-1.067,0.12-1.5,0.365c-0.434,0.24-0.808,0.581-1.117,1.024H7.675V7.81H5.46v8.565h2.349v-4.966c0-0.42,0.06-0.761,0.18-1.02c0.12-0.258,0.268-0.457,0.439-0.595c0.17-0.139,0.35-0.231,0.53-0.282c0.18-0.05,0.328-0.074,0.439-0.074c0.378,0,0.66,0.065,0.854,0.19l0.004,0.003c0.182,0.116,0.325,0.288,0.41,0.497c0.084,0.214,0.135,0.445,0.145,0.691c0.014,0.249,0.018,0.498,0.018,0.752v4.8h2.35v-4.77c0.002-0.276,0.023-0.548,0.06-0.783l0.001-0.01c0.034-0.25,0.115-0.485,0.23-0.686l0.004-0.007c0.113-0.199,0.276-0.367,0.476-0.492c0.203-0.125,0.471-0.189,0.803-0.189c0.328,0,0.591,0.056,0.785,0.166l0.005,0.003c0.181,0.102,0.329,0.253,0.431,0.442c0.101,0.2,0.165,0.423,0.182,0.663c0.022,0.253,0.032,0.526,0.032,0.812v4.851H18.535z"/></svg>