<svg xmlns="http://www.w3.org/2000/svg" enable-background="new 0 0 24 24" viewBox="0 0 24 24"><path d="M1.5,18l3.196,1.831l4.084-2.338v4.681L11.983,24l3.205-1.831v-4.676l4.092,2.327l3.205-1.829v-3.646L18.402,12L22.5,9.664V6l-3.199-1.82l-4.106,2.327V1.826L11.993,0L8.796,1.83v4.677L4.708,4.17L1.503,6v3.664L5.594,12L1.5,14.343V18z M4.702,18.507l-1.656-0.944l6.134-3.508v1.897h0.001L4.702,18.507z M19.286,18.507l-4.469-2.555v-1.897l6.126,3.508L19.286,18.507z M21.331,15v1.894l-6.134-3.503l1.666-0.945L21.331,15z M19.677,5.715l1.655,0.942v1.905L19.68,7.609h-0.003V5.715z M20.944,9.218l-6.507,3.727L12.77,12l6.516-3.726L20.944,9.218z M18.908,5.715v1.898l-6.52,3.734V9.442L18.908,5.715z M12.38,1.55l1.657,0.937V7.61L12.38,8.564V1.55z M12.38,12.676l1.664,0.944v7.447l-1.664-0.95V12.676z M13.644,21.726l-1.653,0.952l-1.656-0.951l1.656-0.946L13.644,21.726z M9.954,21.076v-7.467l1.656-0.945v7.453L9.954,21.076z M9.954,2.493l1.656-0.944v7.004L9.954,7.604V2.493z M5.085,5.715l6.523,3.724v1.897L5.085,7.609V5.715z M2.657,6.66l1.656-0.945v1.898L2.657,8.564V6.66z M3.046,9.219l1.657-0.944L11.22,12l-1.655,0.945L3.046,9.219z M2.657,15l4.479-2.555l1.657,0.944H8.793l-6.135,3.508V15z"/></svg>