<svg xmlns="http://www.w3.org/2000/svg" enable-background="new 0 0 24 24" viewBox="0 0 24 24"><path d="M15.644 14.333v-2.711c0-.451 0-1.597-2.896-1.597-1.456 0-2.295.453-2.685.679-.21-.182-.795-.663-2.49-.663-.63 0-1.679.051-2.7.669H4.839v-.572L4.83 10.129H2.67v4.218h2.338v-2.049c0-.62.121-.814.307-1 .238-.244.865-.407 1.48-.407 1.221 0 1.206.431 1.206 1.145v2.313h2.325v-2.03c0-.52.085-.733.291-.968.221-.274.851-.462 1.463-.462 1.24 0 1.24.553 1.24 1.049v2.394H15.644zM17.419 14.039c.363.315 1.345.427 2.105.427.255 0 1.149-.016 1.966-.167l-.22-.858L21.2 13.45c-.311.059-.601.096-.929.096-.691 0-.691-.194-.691-.789V11.07h1.69l.018-.003v-.881h-1.696V8.701l-2.52.653v.831h-1.144v.881h1.145v1.828C17.073 13.53 17.11 13.783 17.419 14.039zM2.488 16.73c0-.016-.022-.061-.034-.061-.351-.765-1.125-2.455-1.125-4.647 0-1.91.473-3.226 1.168-4.772H1.561C.775 8.385 0 9.997 0 11.979c0 1.678.615 3.348 1.54 4.751H2.488zM22.439 16.75C23.224 15.616 24 14 24 12.021c0-1.678-.615-3.347-1.541-4.751V7.269h-.946c0 .011.019.05.031.06.352.769 1.129 2.455 1.129 4.649 0 1.91-.476 3.225-1.17 4.772H22.439z"/></svg>