<svg xmlns="http://www.w3.org/2000/svg" enable-background="new 0 0 24 24" viewBox="0 0 24 24"><path fill="#2ffc8d" d="m16.223 1.694c-.124-.058-.223 0-.223.14v16.751l7.34 3.666c.363.182.66 0 .66-.413v-16.124c0-.083-.041-.157-.116-.19z"/><path fill="#03e370" d="m8 14.59 7.868-12.788c.074-.116.231-.165.355-.099l7.604 3.797c.091.05.132.165.074.256l-7.901 12.829z"/><path fill="#10c767" d="m.883 2.032c-.487-.247-.652-.066-.363.405l7.48 12.153 8 4.004-7.95-12.921c-.033-.058-.083-.099-.14-.132z"/><path fill="#00ab6c" d="m8 21.847c0 .405-.297.594-.66.413l-6.894-3.451c-.248-.124-.446-.446-.446-.719v-16.008c0-.272.198-.396.446-.272l7.455 3.732c.058.032.099.09.099.156z"/></svg>