<svg xmlns="http://www.w3.org/2000/svg" enable-background="new 0 0 24 24" viewBox="0 0 24 24"><path fill="#6b488e" d="m23.679 9.289c-1.513-6.445-7.708-10.364-14.185-9.028-4.941 1.019-9.034 5.255-9.459 10.848-.174 2.299.303 4.472 1.435 6.489.117.209.135.398.071.626-.262.939-.459 1.69-1.541 5.76.647-.146 2.923-.779 5.723-1.51.154-.04.362-.03.5.043 2.634 1.403 5.409 1.829 8.33 1.197 6.481-1.401 10.67-7.849 9.126-14.425zm-9.537-2.64c.853-.004 1.501.637 1.502 1.485.001.847-.648 1.499-1.492 1.499-.84-.001-1.49-.657-1.488-1.504.002-.833.645-1.476 1.478-1.48zm-6.076 1.096c.807.012 1.487.694 1.498 1.501.011.806-.694 1.517-1.508 1.521-.811.003-1.514-.702-1.51-1.516.003-.816.712-1.518 1.52-1.506zm11.789 4.963c-3.804 5.318-9.876 6.069-14.904 2.752-.467-.308-.577-.868-.281-1.311.292-.436.86-.546 1.322-.25 4.617 2.959 9.515 1.831 12.354-2.253.345-.496.871-.616 1.324-.307.459.315.539.876.185 1.369z"/></svg>