<svg xmlns="http://www.w3.org/2000/svg" enable-background="new 0 0 24 24" viewBox="0 0 24 24"><path fill="#E20E00" d="M12,24c6.627,0,12-5.373,12-12c0-6.627-5.373-12-12-12S0,5.373,0,12C0,18.627,5.373,24,12,24z M4.979,15.839l2.878-2.878V8.71l2.879-2.879V2.172l1.261-0.93l1.261,0.93v3.66l2.879,2.879l-0.002,4.241l2.887,2.887v4.212l-1.261,0.93l-1.26-0.93v-3.167l-1.618-1.617l-1.619,1.617v3.167l-1.263,0.93l-1.263-0.93v-3.167l-1.619-1.617l-1.617,1.617v3.167l-1.262,0.93l-1.261-0.93V15.839z"/><polygon fill="#E20E00" points="13.613 12.968 13.613 9.755 11.995 8.137 10.377 9.755 10.377 12.958 12 14.581"/></svg>