<svg xmlns="http://www.w3.org/2000/svg" enable-background="new 0 0 24 24" viewBox="0 0 24 24"><path fill="#CE1A00" d="M12,0C5.372,0,0,5.372,0,12s5.372,12,12,12s12-5.372,12-12S18.628,0,12,0z M18.23,16.245c0,0.205-0.166,0.371-0.371,0.371c-0.001,0-0.001,0-0.002,0H16.29h-0.001c-0.205,0-0.371-0.166-0.371-0.371v-0.001v-4.828c0-0.04-0.046-0.06-0.08-0.033l-3.32,3.32c-0.134,0.132-0.318,0.214-0.522,0.214s-0.388-0.082-0.522-0.214l-3.32-3.32c-0.027-0.027-0.08-0.007-0.08,0.033v4.828v0.001c0,0.205-0.166,0.371-0.371,0.371H7.702H6.135H6.134c-0.205,0-0.371-0.166-0.371-0.371v-0.001V7.757c0-0.206,0.166-0.372,0.372-0.372h1.076c0.205,0.002,0.391,0.085,0.525,0.22l4.13,4.13c0.033,0.034,0.079,0.055,0.13,0.055c0.051,0,0.097-0.021,0.13-0.055l4.13-4.13c0.14-0.14,0.325-0.22,0.525-0.22h1.075c0.206,0,0.372,0.166,0.372,0.372l0.002,8.487V16.245z"/></svg>