<svg xmlns="http://www.w3.org/2000/svg" enable-background="new 0 0 24 24" viewBox="0 0 24 24"><path fill="#A61B28" d="M2.033,18.607L2.033,18.607c1.767,0.221,3.061-1.6,2.296-3.276c-1.773-3.869,6.971-3.958,5.493-0.306c-0.004,0.004-0.007,0.007-0.011,0.015c-1.005,1.597,0.255,3.634,2.205,3.551c1.954,0.078,3.202-1.962,2.205-3.551c-0.004-0.007-0.007-0.011-0.011-0.015c-1.477-3.652,7.267-3.563,5.493,0.306c-0.173,0.373-0.251,0.794-0.214,1.231c0.184,1.992,2.576,2.764,3.933,1.313c0.667-0.552,0.866-2.447,0-3.294c-0.462-0.462-1.114-0.716-1.815-0.642c-1.624-0.037-1.864-1.302-1.406-3.685c0.855-2.145-0.558-4.906-3.277-4.879c-2.902,0.026-3.064,3.059-4.909,3.059c-1.804,0-2.025-3.033-4.909-3.059C4.373,5.346,2.978,8.11,3.829,10.255c0.458,2.383,0.218,3.648-1.406,3.685c-0.795-0.086-1.387,0.243-1.987,0.84C-0.311,15.514-0.288,18.316,2.033,18.607z M12.005,9.183h0.022c1.301,0,2.355,1.048,2.355,2.343c0,0.933-0.72,2.343-2.355,2.343h-0.022c-1.627,0-2.355-1.399-2.355-2.343C9.65,10.231,10.707,9.183,12.005,9.183z"/></svg>