<svg xmlns="http://www.w3.org/2000/svg" enable-background="new 0 0 24 24" viewBox="0 0 24 24"><path fill="#0948AC" d="M16.54,10.649c-1.27-1.605-2.806-2.155-4.612-1.665c-1.804,0.476-2.845,1.724-3.12,3.744c-2.106,0.179-3.176,1.218-3.21,3.105c-0.036,1.88,0.998,2.958,3.102,3.232h12.738c1.612-0.182,2.463-0.999,2.555-2.448c0.093-1.447-0.649-2.368-2.225-2.755l-0.006-0.02c0-0.697-0.166-1.338-0.479-1.901c-0.316-0.566-0.796-1.012-1.396-1.323c-0.463-0.253-1.029-0.387-1.697-0.432C17.526,10.143,16.976,10.293,16.54,10.649z"/><path fill="#0948AC" d="M3.24,18.028c0.621,0,1.181-0.151,1.68-0.453l0.062,0.09c-0.21-0.505-0.301-1.056-0.301-1.65c0-0.534,0.091-1.039,0.256-1.53c0.164-0.489,0.42-0.921,0.75-1.293c0.345-0.432,0.779-0.759,1.289-0.996c0.316-0.134,0.661-0.237,1.021-0.311c0.105-0.52,0.3-1.011,0.585-1.471c0.285-0.459,0.63-0.862,1.05-1.218c0.48-0.416,1.02-0.727,1.62-0.95c0.6-0.224,1.23-0.327,1.89-0.327c0.721,0,1.396,0.118,2.011,0.386c0.629,0.268,1.185,0.653,1.664,1.158c0.361-0.133,0.765-0.192,1.23-0.192h0.285c-0.24-1.233-0.826-2.229-1.756-3.002c-0.929-0.772-2.023-1.174-3.314-1.204c-0.959,0.016-1.83,0.254-2.609,0.714C9.888,6.24,9.272,6.863,8.792,7.622C8.222,7.28,7.577,7.117,6.858,7.117C5.716,7.147,4.77,7.533,4.016,8.261c-0.75,0.728-1.14,1.663-1.17,2.792c0,0.197,0.012,0.384,0.042,0.561c-0.833,0.101-1.518,0.445-2.058,1.04C0.291,13.247,0.016,13.972,0,14.826c0.031,0.906,0.346,1.665,0.953,2.26C1.56,17.686,2.32,18,3.24,18.028z"/></svg>