<svg xmlns="http://www.w3.org/2000/svg" enable-background="new 0 0 24 24" viewBox="0 0 24 24"><path fill="#217345" d="M23.871 20.268C23.956 20.006 24 19.794 24 19.633V3.178c0-.128-.044-.205-.129-.231-.085-.026-.191-.04-.318-.04h-8.04V4.39h2.37v2.348h-2.37v.748h2.37v2.351h-2.37v.769h2.37v2.223h-2.37v.891h2.37v2.228h-2.37v.891h2.37v2.241h-2.37v1.635h8.04C23.68 20.676 23.786 20.527 23.871 20.268zM22.51 19.078h-3.857v-2.239h3.857V19.078zM22.51 15.948h-3.857v-2.229h3.857V15.948zM22.51 12.828h-3.857v-2.213h3.857V12.828zM22.51 9.836h-3.857V7.488h3.857V9.836zM22.51 6.725h-3.857V4.392h3.857V6.725zM14.16.031L0 2.536v18.552l14.16 2.443V.031zM8.393 16.57c-.054-.146-.308-.764-.758-1.858-.449-1.093-.72-1.729-.799-1.911H6.811l-1.519 3.605-2.03-.137 2.408-4.488L3.465 7.294l2.07-.109 1.368 3.512H6.93l1.545-3.671 2.139-.135-2.547 4.857 2.625 4.955L8.393 16.57z"/></svg>