<svg xmlns="http://www.w3.org/2000/svg" enable-background="new 0 0 24 24" viewBox="0 0 24 24"><path fill="#2C599C" d="M14.932 18.404v2.273h8.559c.139 0 .259-.044.36-.137C23.95 20.45 24 20.337 24 20.197V3.812c.001-.135-.044-.255-.149-.353-.088-.1-.209-.148-.358-.148h-8.562v2.568h6.98v.984h-6.98v1.292h6.98v1.033h-6.98v1.267h6.98v1.034h-6.98v1.28h6.98v1.022h-6.98v1.277h6.977v1.034h-6.982v1.267h6.988v1.035H14.932zM13.651.75L0 3.152v17.759l13.651 2.339V.75zM9.645 16.154l-1.77-.104L7.26 12.923c-.359-1.818-.554-2.877-.615-3.179H6.6c-.045.283-.255 1.319-.615 3.101L5.37 15.884 3.736 15.78 2.161 7.974l1.47-.077.975 6.189h.015c.055-.3.264-1.369.639-3.204l.642-3.152L7.506 7.65l.639 3.231c.36 1.903.561 3.016.615 3.334h.025l1.096-6.719 1.709-.104V7.391h.035L9.645 16.154z"/></svg>