<svg xmlns="http://www.w3.org/2000/svg" enable-background="new 0 0 24 24" viewBox="0 0 24 24"><path d="M4.26 17.608h10.896c1.969 0 3.573-1.578 3.573-3.526 0-1.681-1.209-3.093-2.802-3.433v.001C15.615 7.485 12.906 5 9.625 5 6.907 5 4.501 6.732 3.636 9.247 1.583 9.546 0 11.289 0 13.402 0 15.721 1.906 17.608 4.26 17.608zM4.261 10.772c.709 0 1.375.278 1.875.773.751.744 1.886-.38 1.136-1.124C6.719 9.885 6.043 9.514 5.313 9.328c.75-1.65 2.437-2.752 4.312-2.752 2.615 0 4.739 2.103 4.739 4.68 0 .505-.083 1-.24 1.474-.336 1.025 1.209 1.45 1.51.495.104-.309.188-.629.24-.948.729.278 1.26.979 1.26 1.804 0 1.072-.885 1.948-1.979 1.948l.001.002H4.261c-1.469 0-2.667-1.176-2.667-2.629C1.594 11.948 2.792 10.772 4.261 10.772zM21.332 14.082c0-1.175-.344-2.309-1.01-3.278-.608-.878-1.916.021-1.323.876.49.711.739 1.547.739 2.402 0 .866-.25 1.691-.739 2.402-.36.52.01 1.226.656 1.226.261 0 .51-.113.667-.34C20.99 16.391 21.333 15.258 21.332 14.082L21.332 14.082z"/><path d="M21.281,10.403c0.73,1.082,1.125,2.361,1.125,3.68c0,1.319-0.396,2.597-1.125,3.69C20.917,18.299,21.323,19,21.937,19c0.261,0,0.51-0.123,0.667-0.35C23.521,17.298,24,15.722,24,14.082l-0.001,0.002c0-1.639-0.479-3.217-1.396-4.557C22.01,8.644,20.692,9.553,21.281,10.403z"/><polygon points=".803 1.644 .803 1.643 .805 1.642"/></svg>