<svg xmlns="http://www.w3.org/2000/svg" enable-background="new 0 0 24 24" viewBox="0 0 24 24"><circle cx="12" cy="12" r="12" fill="#221E1F"/><path fill="#1269B0" d="M15.871,6.194c0-1.069,0.866-1.935,1.935-1.935c1.069,0,1.935,0.866,1.935,1.935V19.34c-1.026-1.006-2.352-1.81-3.871-2.323V6.194z"/><path fill="#FCD24A" d="M10.065,6.194c0-1.069,0.866-1.935,1.935-1.935s1.935,0.866,1.935,1.935v10.355c-0.624-0.097-1.268-0.15-1.926-0.15c-0.668,0-1.316,0.054-1.945,0.15V6.194z"/><path fill="#E93A40" d="M4.258,6.193c0-1.069,0.866-1.935,1.935-1.935s1.935,0.866,1.935,1.935v10.833v0.001c-1.519,0.513-2.845,1.321-3.871,2.332V6.193z"/></svg>