<svg xmlns="http://www.w3.org/2000/svg" enable-background="new 0 0 24 24" viewBox="0 0 24 24"><polygon points="6.171 13.292 6.171 13.292 6.172 13.291"/><linearGradient id="a" x1="-200.663" x2="-200.671" y1="-70.065" y2="-70.056" gradientTransform="matrix(1019.2484 0 0 -595.6411 204546.89 -41727.223)" gradientUnits="userSpaceOnUse"><stop offset="0" stop-color="#80c3e6"/><stop offset="1" stop-color="#3380c2"/></linearGradient><path fill="url(#a)" d="M18.745,10.026l4.817-7.707H11.975l-1.601,2.569L18.745,10.026L18.745,10.026z"/><path d="M10.375,4.887l0.82-1.318l7.552,6.457L10.375,4.887L10.375,4.887z" enable-background="new" opacity=".15"/><linearGradient id="b" x1="-201.532" x2="-201.543" y1="-69.402" y2="-69.398" gradientTransform="matrix(599.4398 0 0 -1016.2092 120829.633 -70507.648)" gradientUnits="userSpaceOnUse"><stop offset="0" stop-color="#f38649"/><stop offset=".185" stop-color="#f28147"/><stop offset=".409" stop-color="#ef7242"/><stop offset=".654" stop-color="#ea5a3a"/><stop offset=".911" stop-color="#e4382e"/><stop offset="1" stop-color="#e12a29"/></linearGradient><path fill="url(#b)" d="M21.293,24V12.413l-2.5-1.563l-5.257,8.303L21.293,24L21.293,24z"/><path d="M13.537,19.153l1.298,0.811l3.958-9.113L13.537,19.153L13.537,19.153z" enable-background="new" opacity=".15"/><linearGradient id="c" x1="-200.078" x2="-200.068" y1="-70.219" y2="-70.211" gradientTransform="matrix(1245.2634 0 0 -1016.2094 249151.469 -71346.203)" gradientUnits="userSpaceOnUse"><stop offset="0" stop-color="#42ab4a"/><stop offset="1" stop-color="#add155"/></linearGradient><path fill="url(#c)" d="M2.63,0v11.587l2.681,1.562l13.432-3.125L2.63,0z"/><linearGradient id="d" x1="-199.947" x2="-199.94" y1="-69.275" y2="-69.256" gradientTransform="matrix(1418.6571 0 0 -831.5027 283660.75 -57578.195)" gradientUnits="userSpaceOnUse"><stop offset="0" stop-color="#42ab4a"/><stop offset="1" stop-color="#add155"/></linearGradient><path fill="url(#d)" d="M5.255,14.033L0.438,21.61h11.587l6.77-10.759L5.255,14.033z"/></svg>