<svg xmlns="http://www.w3.org/2000/svg" enable-background="new 0 0 24 24" viewBox="0 0 24 24"><path fill="#F6C217" d="M4.001,24h16C22.209,24,24,22.209,24,19.999V4.001C24,1.791,22.209,0,20.001,0h-16C1.791,0,0,1.791,0,4.001v15.998C0,22.209,1.791,24,4.001,24z"/><polygon fill="#141414" points="19.216 14.954 20.703 14.954 20.531 16.433 20.541 16.439 19.057 16.439"/><path fill="#141414" d="M14.6,9.082h0.855V7.504l1.79-0.188v1.775h1.588v1.467h0.031v0.001h-1.585v3.257c0,1.095,0.087,1.151,1.096,1.151h0.49l-0.171,1.472h-1.293c-1.354,0-1.93-0.95-1.93-1.89v-3.997h-1.027L14.6,9.082z"/><polygon fill="#141414" points="4.919 6.209 6.43 6.209 8.888 10.8 11.342 6.209 12.856 6.209 14.253 16.295 12.335 16.295 11.469 9.536 8.89 14.174 6.307 9.551 5.449 16.295 3.519 16.295"/></svg>