<svg xmlns="http://www.w3.org/2000/svg" enable-background="new 0 0 24 24" viewBox="0 0 24 24"><path fill="#327887" d="M6.06,11.34v0.01L6.05,22.31c0,0.24-0.2,0.44-0.45,0.44c-0.12,0-0.23-0.05-0.31-0.12l-4.97-4.94C0.12,17.49,0,17.22,0,16.91c0,0,0,0,0-0.01V5.34L6.06,11.34z"/><path fill="#E83860" d="M23.99,5.35v11.53c0,0.01,0,0.02,0,0.02c0,0.31-0.12,0.58-0.32,0.78l-4.98,4.93c-0.08,0.07-0.19,0.12-0.31,0.12c-0.24,0-0.44-0.19-0.45-0.43V11.35L23.99,5.35z"/><path fill="#DFC586" d="M24,5.34l-0.01,0.01l-6.06,6L12,17.22h-0.01V8.71L12,8.72l7.39-7.32c0.08-0.08,0.19-0.13,0.32-0.13c0.12,0,0.23,0.05,0.31,0.13L24,5.34z"/><polygon points="12 17.22 11.99 17.23 11.99 17.22"/><path fill="#8ABB9C" d="M11.99,8.71v8.52l-5.93-5.89L0,5.34l3.96-3.96C4.04,1.3,4.15,1.25,4.28,1.25c0.12,0,0.23,0.05,0.31,0.13L11.99,8.71z"/></svg>