<svg xmlns="http://www.w3.org/2000/svg" enable-background="new 0 0 24 24" viewBox="0 0 24 24"><path fill="#105E86" d="M6.532,19.554c-0.146,0-0.276-0.009-0.386-0.026v0.485c0.226,0.09,0.413,0.135,0.566,0.135c0.573,0,1.101-0.35,1.583-1.053c0.616-0.91,1.114-2.371,1.492-4.379h-0.88c-0.157,1.233-0.435,2.375-0.835,3.419c0.028-0.209-0.041-0.576-0.205-1.102L7.14,14.716H6.23l1.014,3.099c0.153,0.465,0.23,0.775,0.23,0.927c0,0.219-0.098,0.417-0.295,0.594C7.015,19.48,6.8,19.554,6.532,19.554z"/><polygon fill="#DE8A03" points="19.482 13.293 19.482 18.722 22.112 18.722 22.112 18.054 20.367 18.054 20.367 13.293"/><path fill="#105E86" d="M1.04,14.392h0.01l1.4,4.33h0.705l1.41-4.33h0.008c0.147,1.355,0.24,2.796,0.27,4.33H5.77h0.003c-0.044-1.64-0.186-3.451-0.428-5.429H4.25l-1.347,3.99H2.895l-1.335-3.99H0.41C0.192,14.981,0.055,16.792,0,18.722h0.845C0.872,17.134,0.937,15.691,1.04,14.392z"/><path fill="#DE8A03" d="M18.679 15.906c0-1.796-.718-2.696-2.155-2.696-.704 0-1.254.228-1.65.684-.43.499-.646 1.233-.646 2.204 0 .954.19 1.655.574 2.101.35.403.877.604 1.583.604.264 0 .506-.032.725-.096l1.325.758.36-.61h-.003l-1.016-.491c.09-.075.177-.155.255-.245C18.464 17.621 18.679 16.883 18.679 15.906zM16.476 18.131c-.445 0-.77-.164-.978-.491l.002-.005c-.225-.353-.337-.923-.337-1.704 0-1.368.424-2.052 1.27-2.052.443 0 .77.164.977.491.224.355.336.919.336 1.692C17.746 17.44 17.322 18.131 16.476 18.131zM13.2 16.074c0 0-.794-.447-1.187-.658-.432-.236-.666-.513-.666-.834 0-.21.095-.381.248-.515.152-.136.371-.202.654-.202.349 0 .704.076 1.064.226l.213-.467c-.42-.269-.888-.402-1.4-.402-.5 0-.905.134-1.22.407-.313.27-.47.623-.47 1.065 0 .531.21.854.632 1.156 0 0 .775.436 1.163.645.418.231.648.506.648.83 0 .256-.112.459-.3.604-.19.144-.451.216-.783.216-.357 0-.752-.106-1.19-.322l-.237.467c.509.337 1.03.506 1.573.506.581 0 1.04-.147 1.384-.442.344-.294.516-.673.516-1.135l.006.003C13.848 16.693 13.633 16.374 13.2 16.074z"/><path fill="#105E86" d="M16.405,5.768c-0.115,0-0.193,0.014-0.274,0.032v0.013h0.014c0.054,0.102,0.146,0.177,0.214,0.268c0.054,0.105,0.1,0.21,0.154,0.314l0.014-0.015c0.094-0.065,0.14-0.169,0.14-0.327c-0.04-0.046-0.046-0.092-0.08-0.137c-0.04-0.066-0.126-0.098-0.18-0.15L16.405,5.768z"/><path fill="#105E86" d="M23.695,13.2c-0.194-0.255-0.435-0.478-0.695-0.663c-0.214-0.143-0.682-0.344-0.77-0.584l-0.013-0.014c0.146-0.013,0.32-0.065,0.46-0.104c0.227-0.059,0.435-0.046,0.67-0.104c0.106-0.026,0.213-0.059,0.32-0.092V11.58c-0.12-0.118-0.21-0.278-0.334-0.388c-0.34-0.29-0.717-0.571-1.104-0.808c-0.21-0.132-0.476-0.216-0.697-0.328c-0.08-0.039-0.214-0.059-0.26-0.125c-0.12-0.143-0.19-0.334-0.275-0.505c-0.192-0.361-0.38-0.761-0.547-1.142c-0.12-0.257-0.193-0.513-0.34-0.749c-0.69-1.116-1.437-1.793-2.586-2.454c-0.247-0.137-0.543-0.196-0.856-0.269c-0.167-0.008-0.334-0.02-0.5-0.027c-0.11-0.046-0.216-0.171-0.31-0.231c-0.38-0.236-1.364-0.746-1.644-0.071c-0.18,0.426,0.267,0.846,0.422,1.062c0.115,0.15,0.26,0.322,0.34,0.491c0.047,0.114,0.06,0.231,0.107,0.35c0.106,0.289,0.207,0.61,0.347,0.881c0.073,0.137,0.153,0.282,0.247,0.405c0.054,0.072,0.146,0.105,0.167,0.223c-0.094,0.134-0.1,0.328-0.154,0.491c-0.24,0.743-0.146,1.662,0.194,2.209c0.107,0.163,0.362,0.524,0.703,0.386c0.3-0.118,0.234-0.491,0.32-0.82c0.02-0.079,0.007-0.131,0.048-0.184v0.015c0.094,0.185,0.188,0.36,0.274,0.545c0.206,0.322,0.566,0.656,0.867,0.879c0.16,0.118,0.287,0.322,0.487,0.395v-0.02h-0.015c-0.043-0.057-0.1-0.084-0.154-0.131c-0.12-0.118-0.255-0.262-0.35-0.393c-0.28-0.37-0.527-0.776-0.747-1.196c-0.11-0.206-0.202-0.428-0.29-0.631c-0.04-0.078-0.04-0.196-0.107-0.236c-0.1,0.143-0.247,0.268-0.32,0.445c-0.127,0.283-0.14,0.63-0.188,0.992c-0.027,0.007-0.014,0-0.027,0.014c-0.214-0.051-0.287-0.269-0.367-0.452c-0.2-0.466-0.233-1.215-0.06-1.753c0.047-0.137,0.247-0.571,0.167-0.703c-0.042-0.125-0.174-0.196-0.247-0.297c-0.087-0.122-0.18-0.28-0.24-0.419c-0.16-0.367-0.24-0.774-0.414-1.141c-0.08-0.17-0.22-0.348-0.334-0.504c-0.127-0.177-0.267-0.301-0.368-0.511c-0.033-0.072-0.08-0.191-0.027-0.269c0.014-0.053,0.042-0.074,0.094-0.088c0.088-0.071,0.335,0.022,0.422,0.061c0.247,0.098,0.455,0.19,0.662,0.328c0.094,0.065,0.195,0.189,0.315,0.222h0.14c0.214,0.046,0.455,0.014,0.655,0.072c0.355,0.112,0.675,0.275,0.962,0.452c0.876,0.546,1.596,1.32,2.085,2.244c0.08,0.151,0.115,0.29,0.188,0.447c0.14,0.324,0.313,0.651,0.455,0.964c0.14,0.309,0.275,0.625,0.476,0.881c0.1,0.137,0.502,0.209,0.682,0.281c0.133,0.059,0.34,0.113,0.46,0.185c0.23,0.137,0.454,0.295,0.67,0.446c0.11,0.075,0.443,0.239,0.463,0.371c-0.535-0.014-0.95,0.039-1.297,0.185c-0.1,0.039-0.26,0.039-0.274,0.164c0.055,0.052,0.063,0.137,0.11,0.21c0.08,0.131,0.218,0.307,0.346,0.4c0.14,0.108,0.28,0.212,0.427,0.304c0.26,0.157,0.555,0.25,0.81,0.408c0.145,0.092,0.293,0.209,0.44,0.307c0.073,0.049,0.12,0.138,0.214,0.169V13.6c-0.046-0.059-0.06-0.144-0.105-0.21C23.828,13.324,23.761,13.265,23.695,13.2z"/></svg>