<svg xmlns="http://www.w3.org/2000/svg" enable-background="new 0 0 24 24" viewBox="0 0 24 24"><path fill="#334497" d="M2.124,14.546c1.277,11.707,18.473,11.478,19.726,0.071l0.014-0.082c2.841-1.734,2.851-5.813,0.009-7.557V3.674c-0.837,0.023-1.646,0.144-2.424,0.354c-3.969-4.37-10.913-4.37-14.882,0.005c-0.789-0.21-1.602-0.334-2.449-0.359v0.002v3.31C-0.707,8.729-0.707,12.77,2.124,14.546z M6.46,4.741c3.117-2.867,7.952-2.871,11.078-0.009c-0.344,0.167-0.673,0.348-0.997,0.549C13.7,3.823,10.288,3.829,7.447,5.286C7.143,5.094,6.774,4.894,6.46,4.741L6.46,4.741z M4.059,5.8c1.253,0.329,2.4,0.937,3.364,1.738c2.748-1.911,6.413-1.906,9.142-0.005v0.001c0.968-0.807,2.11-1.395,3.368-1.729v7.7c0,10.479-15.874,10.394-15.874,0.014V5.8z"/><path fill="#68B951" d="M7.253,15.66c0.213,0.119,0.735,0.286,1.234,0.311c1.224,0.053,2.966,0.071,2.966,0.071c-0.639-2.837-1.631-2.68-5.469-2.646h0.001C6.023,13.787,5.98,14.939,7.253,15.66z"/><path fill="#334497" d="M13.836,18.941c-1.2,0.349-2.526,0.329-3.673,0c0,0-0.14,0.071-0.31,0.315c-0.135,0.196-0.179,0.459-0.179,0.459c1.408,0.841,3.247,0.841,4.655,0c-0.005-0.005-0.014-0.192-0.16-0.425C14.015,19.037,13.836,18.941,13.836,18.941z"/><path fill="#68B951" d="M15.51,15.966c0.494-0.023,1.021-0.192,1.234-0.311c1.273-0.721,1.23-1.872,1.268-2.264c-3.848-0.028-4.835-0.186-5.469,2.647h0.001C12.543,16.037,14.286,16.023,15.51,15.966z"/><path fill="#334497" d="M11.996,18.527c0.925-0.306,1.752-0.808,2.44-1.457h-0.001H9.562C10.244,17.72,11.076,18.221,11.996,18.527z"/></svg>