<svg xmlns="http://www.w3.org/2000/svg" enable-background="new 0 0 24 24" viewBox="0 0 24 24"><polygon points="1.77 22.43 1.768 22.428 1.763 22.424"/><path fill="#3A57F5" d="M5.87,24h12.38h0.006c1.598-0.034,3.037-0.718,4.064-1.8c1.12-1.15,1.68-2.39,1.68-3.73V5.7V5.696c-0.021-1.557-0.698-2.955-1.77-3.936C21.05,0.6,19.77,0,18.4,0H5.8H5.796C4.214,0.023,2.788,0.693,1.77,1.76h0.001L1.765,1.765C0.683,2.719,0,4.117,0,5.673c0,0.02,0,0.04,0,0.057v12.4c0.1,1.899,0.689,3.318,1.768,4.298C2.864,23.393,4.296,23.984,5.87,24z M4,10.75V5.9c0.08-0.65,0.26-1.13,0.54-1.43s0.69-0.5,1.25-0.6h2.23L16,14.08V3.88h2.15h0.006c0.417,0.033,0.794,0.206,1.084,0.47c0.31,0.27,0.52,0.63,0.64,1.07v4.72c0.08,0.84,0.67,1.46,1.77,1.86c-1.1,0.21-1.69,0.8-1.77,1.75v4.94c-0.14,0.44-0.34,0.77-0.64,1c-0.29,0.23-0.68,0.37-1.17,0.43h-2.12L8.02,10.06L8,20H5.64c-0.4,0.03-0.77-0.14-1.1-0.5C4.2,19.13,4.02,18.68,4,18.13v-4.77c-0.25-0.75-0.8-1.2-1.65-1.36C3.1,11.85,3.65,11.44,4,10.75z"/></svg>