<svg xmlns="http://www.w3.org/2000/svg" enable-background="new 0 0 24 24" viewBox="0 0 24 24"><path fill="#F07937" d="M9.533 16.557c.75 0 1.299-.542 1.299-1.264 0-.727-.554-1.264-1.299-1.264-.741 0-1.299.532-1.299 1.264C8.235 16.027 8.795 16.557 9.533 16.557zM14.623 16.557c.743 0 1.299-.535 1.299-1.264 0-.727-.554-1.264-1.299-1.264-.745 0-1.299.537-1.299 1.264C13.324 16.015 13.872 16.557 14.623 16.557z"/><path fill="#F07937" d="M12,24c4.698,0,8.5-3.701,8.5-8.274c0-4.568-3.796-8.275-8.5-8.275c-1.662,0-4.893,0.929-6.336,3.19L3.5,0v15.726C3.5,20.303,7.307,24,12,24z M12,9.558c3.503,0,6.336,2.761,6.336,6.168c0,3.407-2.833,6.168-6.336,6.168c-3.504,0-6.336-2.761-6.336-6.168C5.664,12.319,8.497,9.558,12,9.558z"/></svg>