<svg xmlns="http://www.w3.org/2000/svg" enable-background="new 0 0 24 24" viewBox="0 0 24 24"><path fill="#F31014" d="M3.78,7.343c0.022,0.391,0.043,0.498,0.203,0.815C4.219,8.64,4.568,8.993,5.05,9.23c0.333,0.166,0.418,0.182,0.851,0.198c0.391,0.016,0.53,0,0.793-0.092c1.076-0.364,1.73-1.409,1.543-2.486c-0.209-1.27-1.425-2.127-2.673-1.875C5.253,5.034,4.777,5.274,4.52,5.495C4,5.945,3.738,6.587,3.78,7.343z"/><path fill="#F31014" d="M5.136.078C2.746.506.824 2.274.219 4.599c-.219.841-.235 1.334-.209 7.848.01 5.978.016 6.118.118 6.584.552 2.491 2.32 4.264 4.837 4.848.327.075.745.091 3.434.102 2.78.022 3.069.016 3.145-.059.075-.075.08-1.034.08-11.904 0-8.063-.016-11.855-.048-11.924-.048-.092-.134-.096-3.048-.092-2.368.006-3.079.022-3.39.075L5.136.078zM9.618 1.933v10.072l.011-.001V22.07l-2.025-.026c-1.864-.022-2.062-.032-2.437-.124-1.602-.412-2.786-1.645-3.123-3.251C1.937 18.165 1.937 5.806 2.039 5.313 2.339 3.915 3.308 2.758 4.61 2.238c.654-.263.959-.295 3.085-.299L9.618 1.933zM14.038.03c-.022.016-.032 5.4-.032 11.974 0 10.838.006 11.936.08 11.968.134.048 3.99.032 4.467-.022 2.019-.231 3.803-1.457 4.767-3.279.123-.235.289-.626.375-.867C24.006 18.871 24 19.118 24 11.977c0-5.701-.01-6.552-.08-6.911-.493-2.588-2.469-4.543-5.062-4.987-.349-.059-.883-.076-2.614-.076-1.2-.006-2.191.01-2.207.026H14.038zM16.442 12.465c.369-1.216 1.66-1.934 2.904-1.607v-.001c.777.203 1.409.793 1.671 1.549.166.466.161 1.152-.006 1.581-.305.787-.9 1.339-1.666 1.543-1.243.321-2.565-.429-2.924-1.661C16.313 13.494 16.319 12.856 16.442 12.465z"/></svg>