<svg xmlns="http://www.w3.org/2000/svg" enable-background="new 0 0 24 24" viewBox="0 0 24 24"><polygon points="22.53 23.92 22.529 23.92 22.527 23.922"/><path fill="#4D4B3C" d="M22.981,23.431L23,8.84c-0.001-0.424-0.238-0.793-0.587-0.985l-0.006-0.003V7.851l-0.721-0.398C22.795,5.884,23.456,3.526,22.626,0c0,0-1.871,5.029-5.632,4.863l-4.402-2.431c-0.155-0.088-0.341-0.143-0.538-0.15h-0.002h-0.102c-0.199,0.007-0.384,0.062-0.546,0.152l-4.4,2.429C3.245,5.03,1.374,0,1.374,0C0.543,3.526,1.207,5.884,2.315,7.453L1.593,7.851C1.239,8.046,1.002,8.415,1,8.839L1.022,23.43c0,0.203,0.11,0.392,0.296,0.491C1.403,23.971,1.504,24,1.612,24c0.108,0,0.208-0.029,0.295-0.079l5.832-3.204c0.369-0.211,0.593-0.582,0.593-0.987v-6.817c0-0.406,0.225-0.783,0.592-0.984l2.483-1.372c0.169-0.097,0.373-0.154,0.59-0.154c0.002,0,0.003,0,0.005,0c0.202,0,0.41,0.05,0.589,0.154l2.483,1.372c0.368,0.201,0.592,0.578,0.592,0.984v6.817c0,0.405,0.228,0.779,0.594,0.987l5.831,3.204C22.179,23.971,22.282,24,22.39,24c0.108,0,0.211-0.029,0.298-0.08C22.862,23.823,22.98,23.641,22.981,23.431z"/><polygon points="11.326 2.435 11.328 2.434 11.332 2.432"/><polygon points="1.903 23.92 1.901 23.921 1.9 23.921"/></svg>