<svg xmlns="http://www.w3.org/2000/svg" enable-background="new 0 0 24 24" viewBox="0 0 24 24"><path fill="#8CC03E" d="M9.414,21.027c-0.616,0.357-0.733,0.399-1.312,0.604c-0.14,0.048-0.352,0.133,0.08,0.381l2.9,1.738c0.277,0.163,0.597,0.248,0.912,0.248L11.996,24c0.319,0,0.634-0.086,0.911-0.248l8.682-5.077c0.564-0.333,0.912-0.948,0.912-1.605V6.922c0-0.662-0.347-1.277-0.912-1.605l-8.682-5.082c-0.545-0.314-1.274-0.314-1.824,0L2.411,5.312C1.848,5.641,1.5,6.26,1.5,6.917v10.148c0,0.662,0.347,1.277,0.911,1.605l2.275,1.329c1.1,0.553,1.494,0.553,1.997,0.553c1.631,0,2.571-1,2.571-2.743V7.785c0-0.142-0.117-0.252-0.254-0.252h-1.1c-0.141,0-0.254,0.109-0.254,0.252v10.019c0,0.776-0.79,1.543-2.083,0.891l-2.378-1.391C3.102,17.261,3.05,17.166,3.05,17.07V6.922c0-0.099,0.052-0.195,0.136-0.243l8.672-5.077c0.079-0.048,0.188-0.048,0.268,0l8.677,5.072c0.084,0.052,0.136,0.143,0.136,0.243V17.07c0,0.094-0.051,0.19-0.131,0.238l-8.682,5.077c-0.075,0.048-0.188,0.048-0.268,0L9.63,21.047C9.564,21.004,9.48,20.989,9.414,21.027z"/><path fill="#8CC03E" d="M14.674,15.469c-2.298,0-2.802-0.586-2.97-1.743c-0.019-0.124-0.122-0.214-0.249-0.214h-1.123c-0.141,0-0.249,0.114-0.249,0.252c0,1.481,0.794,3.248,4.596,3.248c2.744-0.005,4.325-1.104,4.325-3.019l-0.003,0.001c0-1.9-1.269-2.405-3.934-2.762c-2.698-0.362-2.97-0.548-2.97-1.186c0-0.528,0.231-1.233,2.228-1.233c1.782,0,2.44,0.39,2.712,1.609c0.023,0.115,0.127,0.2,0.245,0.2h1.128c0.07,0,0.136-0.028,0.183-0.081c0.047-0.053,0.07-0.124,0.066-0.195c-0.174-2.1-1.551-3.076-4.334-3.076c-2.477,0-3.953,1.058-3.953,2.833c0,1.924,1.471,2.458,3.845,2.695c2.844,0.282,3.064,0.705,3.064,1.272C17.283,15.051,16.503,15.469,14.674,15.469z"/></svg>