<svg xmlns="http://www.w3.org/2000/svg" enable-background="new 0 0 24 24" viewBox="0 0 24 24"><path fill="#736AC7" d="M.468.413C-1.516 2.4 4.684 10.098 9.313 14.731 14.769 20.193 20.226 24 22.54 24c.496 0 .827-.165 1.075-.413.827-.828.33-2.731-1.57-5.628l-.083-.083c.987-1.686 1.57-3.712 1.57-5.874V12c0-1.738-.413-3.394-1.074-4.8-1.736 2.566-4.216 5.462-7.027 8.276-.579.58-1.24 1.241-1.902 1.821-.248-.248-.496-.497-.826-.745.681-.6 1.302-1.222 1.881-1.881l.02-.023c3.059-3.061 5.622-6.124 7.275-8.689 1.901-2.896 2.397-4.717 1.57-5.627C23.367.165 22.954 0 22.54 0c-.992 0-2.645.745-4.63 2.069-1.735-.993-3.72-1.656-5.869-1.656-2.149 0-4.133.58-5.87 1.656C4.189.745 2.535 0 1.543 0 1.046 0 .716.165.468.413zM21.382 18.869c1.653 2.648 1.736 3.724 1.488 3.972-.083.082-.248.082-.33.082-.745 0-1.985-.579-3.638-1.572C19.812 20.689 20.721 19.863 21.382 18.869zM22.54 1.076c.083 0 .248 0 .331.082.248.248.165 1.324-1.488 3.972-.661-.91-1.488-1.82-2.48-2.483C20.556 1.655 21.796 1.076 22.54 1.076zM2.724 5.1L2.7 5.131C1.294 2.896.88 1.49 1.212 1.158c.082-.082.248-.082.33-.082.744 0 1.984.579 3.638 1.572C4.265 3.401 3.452 4.215 2.724 5.1zM12.041 23.587c1.736 0 3.39-.415 4.795-1.076-1.57-1.076-3.224-2.4-4.795-3.807-1.57 1.408-3.224 2.731-4.794 3.807C8.735 23.172 10.305 23.587 12.041 23.587zM.385 23.503c.248.248.661.413 1.075.413 1.818 0 5.539-2.317 9.672-5.958-.151-.148-.287-.31-.406-.486l-.007-.011h-.001c-.744-.662-1.488-1.324-2.15-2.069C5.84 12.662 3.195 9.6 1.541 7.118c-.66 1.489-1.073 3.144-1.073 4.799 0 2.152.578 4.138 1.57 5.876l-.082.082C.054 20.773-.442 22.593.385 23.503zM2.699 18.869c.661.91 1.488 1.738 2.48 2.483-1.654.993-2.894 1.572-3.638 1.572-.082 0-.248 0-.33-.082C.963 22.593 1.045 21.517 2.699 18.869z"/></svg>