<svg xmlns="http://www.w3.org/2000/svg" enable-background="new 0 0 24 24" viewBox="0 0 24 24"><path d="M2.689,17.605c0.846,0.678,1.815,1.146,2.865,1.4c0.603,0.146,1.206,0.211,1.823,0.229c0.45,0.016,0.9,0.012,1.365,0.012h6.496c0.449,0,0.914,0.004,1.364-0.012c0.615-0.018,1.215-0.082,1.814-0.229c1.05-0.256,2.011-0.723,2.866-1.402C23.01,16.239,24,14.179,24,11.999c0-2.181-0.99-4.241-2.691-5.606c-0.845-0.678-1.812-1.146-2.865-1.398c-0.6-0.146-1.203-0.211-1.822-0.23c-0.449-0.015-0.899-0.01-1.364-0.01H8.76c-0.457,0-0.915-0.005-1.372,0.01C6.77,4.786,6.166,4.848,5.563,4.995c-1.051,0.254-2.025,0.723-2.865,1.4C0.99,7.76,0,9.819,0,11.999C0,14.181,0.99,16.24,2.689,17.605z M5.863,10.047c0.314-0.225,0.674-0.359,1.049-0.42s0.75-0.061,1.141-0.061h7.875c0.375,0,0.765-0.014,1.14,0.046s0.735,0.194,1.051,0.405c0.645,0.434,1.02,1.17,1.02,1.949c0,0.78-0.391,1.5-1.035,1.95l0.031,0.032c-0.319,0.221-0.675,0.355-1.057,0.416c-0.382,0.061-0.761,0.049-1.142,0.049H8.063c-0.382,0-0.762,0.014-1.145-0.049c-0.381-0.063-0.734-0.195-1.057-0.416c-0.643-0.451-1.027-1.17-1.027-1.951C4.834,11.201,5.221,10.482,5.863,10.047z"/></svg>