<svg xmlns="http://www.w3.org/2000/svg" enable-background="new 0 0 24 24" viewBox="0 0 24 24"><path fill="#4caf50" d="m12 .522c-6.617 0-12 5.319-12 11.855 0 4.877 3.094 9.318 7.698 11.051.192.075.408.064.594-.025.186-.09.327-.25.389-.446l2.25-7.098c.107-.337-.04-.701-.352-.87-.974-.531-1.579-1.532-1.579-2.612 0-1.635 1.345-2.964 3-2.964 1.654 0 3 1.329 3 2.964 0 1.08-.604 2.081-1.578 2.613-.312.169-.46.533-.352.87l2.25 7.098c.062.195.203.356.388.446.104.049.216.074.327.074.09 0 .181-.016.267-.049 4.605-1.733 7.698-6.175 7.698-11.052 0-6.537-5.383-11.855-12-11.855z"/></svg>