<svg xmlns="http://www.w3.org/2000/svg" enable-background="new 0 0 24 24" viewBox="0 0 24 24"><path fill="#404A5D" d="M23.947,6.615C23.609,4.4,22.429,2.518,20.615,1.3c-3.302-2.222-7.772-1.533-10.267,1.581C9.302,4.191,8.677,5.849,8.677,7.654c0,0.593,0.067,1.171,0.185,1.674c0.181,0.8,0.582,1.767,1.007,2.429l0.218,0.343l-1.746,1.744l-0.277-0.14c-0.242-0.124-0.319-0.14-0.621-0.14c-0.65-0.002-0.464-0.159-4.069,3.449c-3.568,3.572-3.372,3.341-3.372,3.986c-0.004,0.58,0.067,0.689,1.184,1.802c0.938,0.934,1.12,1.079,1.473,1.168l0.001,0.001c0.255,0.065,0.675,0.019,0.946-0.106c0.212-0.097,0.638-0.505,3.402-3.261c3.586-3.582,3.433-3.398,3.43-4.049c0-0.301-0.015-0.376-0.14-0.617l-0.14-0.28l1.746-1.744l0.343,0.218c1.338,0.858,3.087,1.294,4.662,1.163c1.107-0.093,1.924-0.32,2.885-0.803l0.04-0.017c0.714-0.347,1.358-0.817,1.905-1.384l0.001-0.001c1.169-1.143,1.968-2.662,2.207-4.401C24.018,8.194,24.018,7.081,23.947,6.615z M22.099,10.441l-0.017,0.038c-0.877,1.772-2.549,3.082-4.592,3.472l0.001,0.002c-0.524,0.095-1.558,0.115-2.068,0.037l-0.035-0.004c-1.531-0.233-2.886-1.008-3.867-2.129c-0.981-1.121-1.576-2.59-1.576-4.197c0-1.393,0.447-2.682,1.193-3.713c0.309-0.437,1.036-1.164,1.482-1.481c0.714-0.505,1.533-0.873,2.462-1.07c0.606-0.129,1.835-0.142,2.417-0.025c0.839,0.168,1.731,0.532,2.37,0.962C22.555,4.134,23.492,7.541,22.099,10.441z"/><path fill="#95CA6E" d="M2.712 5.459c.013.019.994.315 2.183.654L4.9 6.113l2.185.629c.034.003-1.2-4.325-1.248-4.376-.041-.042-4.33-1.271-4.356-1.246C1.465 1.138 2.672 5.397 2.712 5.459zM22.08 14.662c-.013-.037-.105.009-.265.134-1.133.857-2.572 1.486-3.913 1.713l-.156.028.044.156.002.009c.016.065.036.127.057.178l-.001.002c.012.021 4.464-1.227 4.497-1.261C22.352 15.612 22.134 14.827 22.08 14.662zM17.227 17.463c-.172-.084-4.396-1.262-4.419-1.236-.05.053-1.284 4.421-1.259 4.449l-.574-.158c.729.233 1.462.455 2.772.809l-.001-.001c1.192.344 2.194.628 2.222.631.028 0 .072-.069.097-.156l.695-2.814c.216-.748.433-1.495-.059.578C17.224 17.751 17.289 17.488 17.227 17.463zM22.257 16.293c-.017-.019-4.299 1.177-4.346 1.211-.019.014-1.248 4.294-1.248 4.347v.001c0 .019.044.03.098.019.133-.027 4.244-1.199 4.264-1.218C21.057 20.63 22.276 16.311 22.257 16.293zM1.482 11.289c.085.424 1.215 4.251 1.265 4.29l.001.001c.037.029.077.054.093.054l.025-.023c.46-.439.913-.885 1.367-1.344.755-.755 1.441-1.42 1.525-1.479.136-.094.153-.125.125-.223-.03-.111-.101-.136-2.225-.74C1.628 11.246 1.466 11.206 1.482 11.289zM9.905 1.322C9.869 1.336 9.078 1.566 8.143 1.831L6.448 2.314l.078.28L7.046 4.4v.002c.391 1.365.506 1.683.506 1.39l.004-.026c.033-.193.079-.382.128-.535L7.698 5.17C8.07 3.841 8.748 2.643 9.645 1.659 9.822 1.463 9.939 1.307 9.905 1.322z"/><polygon fill="#95CA6E" points="10.343 2.889 10.349 2.882 10.355 2.873"/><path fill="#95CA6E" d="M7.397 8.73l-.421 1.476c-.232.811-.433 1.503-.445 1.534l.001-.001c-.016.04.001.05.059.034.045-.014.397-.115.787-.224.387-.111.712-.206.72-.212.006-.006-.075-.249-.181-.545C7.718 10.238 7.546 9.607 7.453 9.05L7.397 8.73zM3.569 11.202L3.569 11.202c1.188.34 2.199.622 2.249.625.08.004.147-.2.724-2.22.349-1.222.628-2.23.619-2.239C7.114 7.327 2.708 6.093 2.686 6.116c-.024.027-1.303 4.448-1.286 4.46C1.403 10.579 2.38 10.859 3.569 11.202zM9.439 21.079c.788-.223 1.446-.42 1.466-.436.039-.039 1.271-4.335 1.248-4.36-.009-.01-.099.006-.202.034l-.182.051-.011.307c-.005.17-.032.404-.058.522-.067.283-.301.797-.473 1.015-.075.101-.829.876-1.676 1.728l.001.002-1.539 1.542L9.439 21.079z"/></svg>