<svg xmlns="http://www.w3.org/2000/svg" enable-background="new 0 0 24 24" viewBox="0 0 24 24"><path fill="#0E1A3A" d="M1.647,10.395h1.286l0.96,9.31c0,0,0,1.899,1.916,1.899h12.384c0,0,1.916-0.017,1.916-1.899l0.96-9.31h1.286c0,0,1.646,0.051,1.646-1.603c0,0,0.005-1.603-1.646-1.603h-1.29c-0.313-1.097-1.295-3.185-5.118-3.185h-1.201V3.185c0,0-0.116-0.789-0.904-0.789h-3.678c0,0-0.904,0-0.904,0.789v0.818H8.054c0,0-4.501,0.18-5.165,3.185H1.646c0,0-1.646-0.051-1.646,1.603h0.001C0.001,8.792-0.004,10.395,1.647,10.395z M10.408,6.943c0.043-0.531,0.129-0.943,0.45-1.209c0.48-0.386,1.14-0.15,1.265,0.476c3.094-0.952,5.795,0.043,5.795,3.086c0,3.34-3.399,6.541-6.005,5.924c-0.005,1.689,0.038,3.189,0.116,4.287v0.008c0.008,0.145,0.026,0.536-0.227,0.818c-0.411,0.455-1.432,0.429-1.56-0.956c-0.175-1.903,0.008-8.835,0.06-10.395c-0.922,0.643-2.508,2.156-2.508,3.254c0.008,0.107,0.017,0.172,0.026,0.198L7.82,12.435c0.008,0,0.279-0.116,0.48-0.116c1.14,0,0.887,1.89-0.617,1.89c-0.922,0-1.59-0.775-1.59-1.844C6.092,10.565,7.931,8.268,10.408,6.943z"/><path fill="#0E1A3A" d="M12.586,13.465c1.578,0,3.575-1.835,3.571-4.123V9.34c0-2.032-2.366-1.895-4.089-1.277c-0.056,1.689-0.107,3.459-0.129,5.136C11.968,13.318,12.05,13.465,12.586,13.465z"/></svg>