<svg xmlns="http://www.w3.org/2000/svg" enable-background="new 0 0 24 24" viewBox="0 0 24 24"><path fill="#eceff1" d="m21.5 9.904c0-5.414-4.252-9.904-9.364-9.904-5.384 0-9.636 4.488-9.636 9.904 0 5.656 7.479 14.096 9.636 14.096 1.885 0 9.364-8.439 9.364-14.096z"/><path fill="#e84f3b" d="m6.192 9.526c0-1.396.452-2.64 1.236-3.63v.03c0 1.245 1.011 2.234 2.262 2.234 1.252.001 2.31-1.02 2.31-2.264 0-.918-.562-1.705-1.363-2.051.486-.119.997-.184 1.527-.184 3.016 0 5.611 2.551 5.611 5.865 0 2.985-2.595 5.535-5.626 5.535-3.363 0-5.957-2.55-5.957-5.535z"/></svg>