<svg xmlns="http://www.w3.org/2000/svg" enable-background="new 0 0 24 24" viewBox="0 0 24 24"><path fill="#081C54" d="M7.35,13.224l0.459,0.964c0.029,0.068,1.428,0.024,1.428,0.024l0.455,0.448c0,0-0.009,1.532,0.058,1.556l0.972,0.4c0.068,0.029,1.001-1.133,1.001-1.133l0.634,0.009c0,0,0.992,1.147,1.055,1.122l0.968-0.362c0.068-0.029-0.009-1.547-0.009-1.547l0.441-0.439c0,0,1.413,0.043,1.437-0.024l0.392-0.954c0.034-0.053-1.012-0.997-1.012-0.997h0.001l-0.005-0.626c0,0,1.05-0.954,1.021-1.022l-0.459-0.964c-0.029-0.068-1.427-0.024-1.427-0.024l-0.455-0.448c0,0,0.009-1.373-0.058-1.402l-0.972-0.443c-0.068-0.029-1.001,1.011-1.001,1.011l-0.634-0.009c0,0-0.992-1.031-1.06-1.002l-0.968,0.4C9.542,7.788,9.619,9.157,9.619,9.157L9.179,9.596c0,0-1.413-0.043-1.437,0.019L7.35,10.569c-0.029,0.068,1.016,1.011,1.016,1.011l0.005,0.622C8.37,12.202,7.321,13.156,7.35,13.224z M11.87,10.452c0.837-0.038,1.553,0.602,1.587,1.421c0.034,0.824-0.619,1.522-1.457,1.561c-0.837,0.039-1.553-0.602-1.586-1.426C10.38,11.184,11.033,10.486,11.87,10.452z"/><path fill="#081C54" d="M0.809,13.95c3.383,3.343,2.245,2.216,4.713,4.673l0.005-0.005c3.633,3.531,9.454,3.512,13.054-0.077c2.468-2.452,1.35-1.344,4.611-4.591c1.079-1.074,1.079-2.828,0-3.902l-4.693-4.673L18.493,5.38C14.86,1.848,9.039,1.873,5.439,5.457c-2.463,2.457-1.345,1.344-4.63,4.591C-0.27,11.122-0.27,12.876,0.809,13.95z M6.794,6.809c2.879-2.872,7.547-2.866,10.431,0c2.879,2.866,2.884,7.516,0,10.386c-2.884,2.866-7.548,2.861-10.431-0.005v0.001C3.91,14.325,3.91,9.676,6.794,6.809z"/></svg>