<svg xmlns="http://www.w3.org/2000/svg" enable-background="new 0 0 24 24" viewBox="0 0 24 24"><path fill="#F49204" d="M22.975,10.911c-0.247,1.394-0.893,2.716-1.844,3.769c0.099-0.507,0.275-0.997,0.365-1.508c0.111-0.658,0.169-1.331,0.076-1.995c-0.086-0.982-0.406-1.923-0.781-2.829c0.004,0.35,0.054,0.696,0.078,1.045c0.064,1.589-0.409,3.201-1.367,4.481c-0.919,1.253-2.261,2.25-3.799,2.596c-0.676,0.138-1.433,0.134-2.038-0.237c-0.57-0.34-0.888-0.986-0.979-1.623c-0.128-1.015,0.115-2.046,0.552-2.961c0.534-1.127,1.392-2.098,2.432-2.795c0.216-0.15,0.472-0.259,0.636-0.473c0.593-0.729,1.2-1.45,1.88-2.101c0.685-0.691,1.46-1.287,2.192-1.925c-1.342,0.062-2.619,0.565-3.824,1.122c-1.474,0.712-2.866,1.585-4.168,2.572c-0.826,0.63-1.603,1.35-2.552,1.802c-0.547,0.268-1.17,0.333-1.769,0.253c0.934,0.357,1.972,0.25,2.91-0.036l0.068-0.019c0.58-0.189,1.136-0.431,1.612-0.696c0.09-0.065,0.195-0.03,0.295-0.014c-0.004,0.201,0.055,0.445-0.123,0.594c-0.436,0.451-0.958,0.81-1.498,1.128c-0.634,0.358-1.32,0.645-2.044,0.76c-0.597,0.122-1.238-0.005-1.759-0.314C6.845,11.079,6.584,10.227,6.6,9.46C6.649,8.332,7.11,7.256,7.757,6.339c0.986-1.371,2.431-2.398,4.045-2.913c0.65-0.233,1.339-0.316,2.015-0.445c-0.921-0.109-1.853-0.188-2.779-0.089c-0.926,0.073-1.833,0.323-2.683,0.689C8.11,3.683,7.871,3.808,7.604,3.854c1.351-1.49,3.232-2.503,5.242-2.752c1.142-0.181,2.309-0.102,3.44,0.114c-1.303-0.463-2.687-0.73-4.074-0.712C9.45,0.434,6.681,1.36,4.5,3.041L4.498,3.045C1.915,5.018,0.185,8.094,0,11.339v1.457c0.096,1.501,0.501,2.981,1.189,4.321C2.153,19,3.658,20.602,5.474,21.705c3.437,2.138,7.954,2.367,11.624,0.682c2.306-1.041,4.269-2.821,5.494-5.023c0.785-1.394,1.255-2.956,1.391-4.544c0.023-0.592,0.023-1.185,0-1.778c-0.158-1.763-0.7-3.508-1.674-4.998C23.002,7.556,23.242,9.271,22.975,10.911z M16.138,6.047c-0.05,0.245-0.25,0.439-0.484,0.521c-0.243,0.09-0.491,0.171-0.749,0.209C15.3,6.508,15.721,6.278,16.138,6.047z"/></svg>