<svg xmlns="http://www.w3.org/2000/svg" enable-background="new 0 0 24 24" viewBox="0 0 24 24"><path fill="#212121" d="m7.81 19.687h-6.524c-.686 0-1.286-.402-1.286-1.081v-12.756c0-.564.597-1.537 1.029-1.537h1.886c.079-.512.623-1.025 1.254-1.025h.944c.628 0 1.148.512 1.231 1.025h1.466c2.646-1.414 5.729-1.417 8.379 0h6.525c.685 0 1.286.857 1.286 1.536v12.757c0 .679-.6 1.081-1.285 1.081h-6.525c-2.649 1.414-5.726 1.417-8.38 0zm-3.137-7.57c0 3.152 1.965 6.091 5.424 7.105 8.236 2.265 12.862-9.079 5.665-13.419-4.863-2.928-11.089.603-11.089 6.314zm17.869 6.033.001-12.47h-4.452c3.509 3.192 3.552 9.239 0 12.47zm-16.632 0c-3.507-3.19-3.555-9.237 0-12.47h-4.367v12.47zm10.878-6.42c-.166-2.42-2.094-4.341-4.504-4.484-.424-.026-.246-.603-.284-.862 0-.192.164-.344.356-.333 3.046.177 5.442 2.568 5.632 5.627.013.212-.156.391-.369.391-.176-.032-.798.139-.831-.339z"/></svg>