<svg xmlns="http://www.w3.org/2000/svg" enable-background="new 0 0 24 24" viewBox="0 0 24 24"><path fill="#ffc107" d="m18 1.618v14.882h5.12c.564-1.39.88-2.907.88-4.5 0-4.438-2.416-8.306-6-10.382z"/><path fill="#f44336" d="m7.89.738 8.61 8.036v-7.893-.001c-1.39-.564-2.907-.88-4.5-.88-1.446 0-2.826.268-4.11.738z"/><path fill="#4caf50" d="m7.5 23.12c1.39.564 2.907.88 4.5.88 4.438 0 8.305-2.416 10.381-6h-14.881z"/><path fill="#ab47bc" d="m0 12c0 1.058.15 2.079.408 3.055l10.128-9.796-4.143-3.865v-.001c-3.801 2.015-6.393 6.006-6.393 10.607z"/><path fill="#673ab7" d="m6 22.381v-10.647l-5.07 4.903c1.018 2.424 2.814 4.437 5.07 5.744z"/></svg>