<svg xmlns="http://www.w3.org/2000/svg" enable-background="new 0 0 24 24" viewBox="0 0 24 24"><path d="M24,12c0-6.627-5.372-12-12-12C5.373,0,0,5.373,0,12s5.373,12,12,12C18.628,24,24,18.627,24,12z M10.281,19.348c0,0.26-0.187,0.47-0.42,0.47h-2.78c-0.233,0-0.42-0.21-0.42-0.47V4.652c0-0.26,0.187-0.47,0.42-0.47h2.78c0.233,0,0.42,0.21,0.42,0.47V19.348z M20.13,10.09l-0.003,0.002c-0.436,0.264-7.558,4.495-8.074,4.789c-0.085,0.051-0.187,0.082-0.296,0.082c-0.319,0-0.577-0.258-0.577-0.577c0-0.006,0-0.011,0-0.017v-0.001v-1.811c0-1.712,2.962-2.201,3.398-2.465c0.179-0.107,0.297-0.3,0.297-0.52s-0.118-0.413-0.294-0.518l-0.003-0.002C13.973,8.692,11.18,8.306,11.18,6.6V4.79c0-0.334,0.251-0.605,0.564-0.61v0.002c0,0,0.001,0,0.002,0c0.12,0,0.232,0.034,0.327,0.093L12.07,4.273c0.355,0.209,7.451,4.42,8.057,4.78c0.178,0.107,0.296,0.3,0.296,0.519S20.305,9.984,20.13,10.09z"/></svg>