<svg xmlns="http://www.w3.org/2000/svg" enable-background="new 0 0 24 24" viewBox="0 0 24 24"><path fill="#E67A1B" d="M10.892 10.428l.006-.004-1.409-2.44H4.779v3.55h.002v-.03h5.36C10.263 11.055 10.532 10.681 10.892 10.428zM10.642 13.357c-.309-.309-.514-.723-.556-1.183l-.001-.008H7.267L4.91 16.24l3.049 1.762L10.642 13.357z"/><path fill="#507EAB" d="M12.001,24C18.617,24,24,18.616,24,11.998C24,5.382,18.618,0,12.001,0S0,5.382,0,11.998C0,18.616,5.384,24,12.001,24z M12.001,2.43c5.284,0,9.569,4.284,9.569,9.568c0,5.286-4.283,9.572-9.569,9.572S2.43,17.284,2.43,11.998C2.43,6.713,6.716,2.43,12.001,2.43z"/><path fill="#E67A1B" d="M13.913,11.834h2.816l2.356-4.076l-3.049-1.762l-2.68,4.643C13.681,10.963,13.876,11.388,13.913,11.834z"/><polygon fill="#E67A1B" points="11.186 13.74 11.187 13.74 11.187 13.74"/><path fill="#E67A1B" d="M12.811 10.258l1.41-2.442L11.866 3.74 8.821 5.5l2.68 4.64C11.926 10.027 12.389 10.06 12.811 10.258zM13.107 13.57l-.006.004 1.41 2.442h4.707v-3.52h-5.362C13.736 12.945 13.467 13.318 13.107 13.57zM11.187 13.74l-1.41 2.442 2.353 4.076 3.049-1.76-2.68-4.64C12.074 13.972 11.61 13.938 11.187 13.74z"/></svg>