<svg xmlns="http://www.w3.org/2000/svg" enable-background="new 0 0 24 24" viewBox="0 0 24 24"><circle cx="12" cy="12" r="6.949" fill="#1981D7"/><path fill="#1981D7" d="M0,16.599c0,2.608,0.01,4.262,1.571,5.827C3.138,23.991,4.799,24,7.398,24h9.2c2.609,0,4.261-0.009,5.828-1.571C23.99,20.862,24,19.201,24,16.601v-9.2c0-2.607-0.01-4.26-1.572-5.827C20.862,0.009,19.2,0,16.6,0H7.4C4.793,0,3.141,0.01,1.574,1.572C0.01,3.138,0,4.8,0,7.399V16.599z M12,3.002c4.684,0,8.57,3.576,8.998,8.149L21,11.149v7.47c-0.004,1.315-1.066,2.378-2.379,2.381h-7.136C6.752,20.734,3,16.801,3,12C3,7.029,7.029,3.002,12,3.002z"/><circle cx="18.714" cy="18.716" r="1.024" fill="#1981D7"/></svg>