<svg xmlns="http://www.w3.org/2000/svg" enable-background="new 0 0 24 24" viewBox="0 0 24 24"><path fill="#9531C7" d="M1.24,13.059c0.227,1.055,0.592,2.063,1.11,3.01c1.141,2.092,2.98,3.778,5.155,4.754c0.395,0.181,0.807,0.332,1.217,0.468c-0.106-0.436-0.198-0.887-0.274-1.325c-0.014-0.136-0.046-0.271-0.061-0.392c-0.244-0.104-0.471-0.21-0.699-0.314c-1.885-0.95-3.406-2.513-4.303-4.394c-0.381-0.813-0.64-1.671-0.776-2.543c-0.151-0.994-0.151-2.001,0.016-2.98c0.168-0.947,0.47-1.865,0.911-2.723c0.518-1.008,1.232-1.926,2.068-2.678c0.882-0.797,1.901-1.415,3.011-1.834c1.156-0.437,2.387-0.633,3.62-0.603c1.23,0.03,2.448,0.286,3.557,0.782c1.079,0.467,2.069,1.145,2.906,1.972c0.822,0.798,1.475,1.745,1.944,2.784c0.413,0.883,0.672,1.824,0.778,2.787c0.12,1.029,0.062,2.08-0.168,3.088c-0.198,0.902-0.531,1.769-0.983,2.572c-0.991,1.75-2.547,3.165-4.394,3.993c-0.117,0.052-0.234,0.1-0.35,0.15l-0.054,0.36c-0.071,0.455-0.162,0.904-0.278,1.351l0.021-0.023c0.577-0.18,1.14-0.405,1.673-0.661c2.144-1.054,3.908-2.8,4.972-4.922c0.472-0.962,0.822-2,0.989-3.053c0.198-1.129,0.198-2.302,0.016-3.446c-0.168-1.099-0.518-2.182-1.019-3.175c-0.592-1.177-1.396-2.244-2.371-3.139c-1.007-0.928-2.187-1.668-3.467-2.166c-1.329-0.518-2.756-0.773-4.183-0.758c-1.423,0.017-2.838,0.31-4.155,0.857c-1.263,0.527-2.42,1.295-3.345,2.211C3.384,3.987,2.593,5.085,2.031,6.273C1.559,7.282,1.24,8.381,1.088,9.493C0.934,10.682,0.98,11.901,1.24,13.059z"/><path fill="#9531C7" d="M11.929,7.474v0.021c-1.483,0-2.683,1.19-2.683,2.649s1.201,2.648,2.683,2.648c1.48,0,2.682-1.189,2.682-2.662C14.612,8.662,13.41,7.474,11.929,7.474z"/><path fill="#9531C7" d="M17.159,8.594c0.226,0.512,0.381,1.053,0.456,1.61c0.09,0.632,0.061,1.263-0.062,1.865c-0.107,0.543-0.304,1.07-0.563,1.551c-0.35,0.647-0.821,1.219-1.384,1.67c0.03,0.12,0.061,0.225,0.076,0.346c0.047,0.311,0.047,0.627,0.047,0.943l-0.01,0.47l-0.115,0.106c1.247-0.738,2.266-1.866,2.858-3.176c0.306-0.647,0.503-1.339,0.594-2.046c0.106-0.723,0.077-1.459-0.046-2.182c-0.122-0.692-0.366-1.369-0.685-2.001c-0.394-0.769-0.943-1.46-1.581-2.047c-0.653-0.587-1.399-1.053-2.22-1.368c-0.895-0.347-1.869-0.513-2.843-0.497c-0.959,0.03-1.916,0.241-2.799,0.632c-0.79,0.346-1.52,0.842-2.143,1.459C6.131,6.546,5.615,7.269,5.265,8.05c-0.289,0.633-0.487,1.325-0.578,2.032c-0.106,0.783-0.077,1.579,0.091,2.347c0.138,0.693,0.38,1.355,0.731,1.972c0.592,1.083,1.475,2.017,2.54,2.663v-0.422c0-0.33-0.015-0.631,0.045-0.947l0.092-0.406c-0.64-0.557-1.156-1.234-1.506-2.002c-0.227-0.51-0.38-1.052-0.456-1.609c-0.075-0.571-0.061-1.158,0.045-1.73c0.107-0.556,0.288-1.084,0.548-1.58c0.304-0.616,0.73-1.158,1.248-1.624c0.517-0.466,1.11-0.827,1.749-1.083c0.714-0.271,1.491-0.407,2.251-0.392c0.76,0.016,1.521,0.196,2.22,0.496c0.639,0.287,1.202,0.678,1.704,1.159C16.475,7.406,16.871,7.978,17.159,8.594z"/><path fill="#9531C7" d="M11.929,13.573c-1.469,0-2.662,1.182-2.662,2.633C9.267,24,11.929,24,11.929,24s2.661,0,2.661-7.794C14.59,14.755,13.398,13.573,11.929,13.573z"/></svg>