<svg xmlns="http://www.w3.org/2000/svg" enable-background="new 0 0 24 24" viewBox="0 0 24 24"><path fill="#F36933" d="M18.855,6.049L18.855,6.049c-0.036,0.027-0.059,0.069-0.059,0.117c0,0.015,0.002,0.029,0.006,0.042V6.207c0.027,0.054,0.043,0.117,0.043,0.184c0,0.101-0.036,0.194-0.097,0.266l0.001-0.001c-0.019,0.024-0.03,0.054-0.03,0.087c0,0.044,0.021,0.084,0.053,0.11c0.023,0.018,0.052,0.029,0.084,0.03c0.042,0,0.08-0.02,0.106-0.05c0.099-0.119,0.16-0.273,0.16-0.442c0-0.112-0.027-0.216-0.074-0.31c-0.025-0.035-0.066-0.058-0.112-0.058C18.906,6.023,18.878,6.033,18.855,6.049z"/><polygon fill="#F36933" points="19.049 6.082 19.047 6.078 19.048 6.081"/><path fill="#F36933" d="M13.527,0.099C6.955-0.744,0.942,3.9,0.099,10.473c-0.843,6.572,3.8,12.584,10.373,13.428c6.573,0.843,12.588-3.801,13.429-10.374C24.745,6.955,20.102,0.943,13.527,0.099z M15.998,7.584c-0.232,0.003-0.441,0.098-0.593,0.25l-4.453,4.453l-0.95-0.95C14.391,6.961,15.183,6.919,15.998,7.584z M11.135,12.445l4.44-4.44c0.113-0.118,0.272-0.192,0.449-0.192c0.342,0,0.62,0.278,0.62,0.62c0,0.19-0.086,0.361-0.221,0.474l-0.001,0.001l-4.699,4.125L11.135,12.445z M11.465,13.139l-1.1,0.238c-0.004,0.001-0.009,0.001-0.013,0.001c-0.023,0-0.044-0.013-0.054-0.033c-0.005-0.009-0.008-0.019-0.008-0.03c0-0.017,0.007-0.032,0.018-0.043l0.645-0.645L11.465,13.139z M8.662,12.68l1.172-1.172l0.879,0.878l-1.979,0.426c-0.006,0.001-0.012,0.002-0.019,0.002c-0.029,0-0.054-0.017-0.066-0.041c-0.007-0.011-0.011-0.024-0.011-0.039C8.638,12.713,8.647,12.693,8.662,12.68z M5.016,18.737L5.016,18.737c-0.039-0.003-0.069-0.035-0.069-0.075c0-0.003,0-0.005,0-0.008c0.002-0.018,0.01-0.034,0.022-0.046h0.002l0.946-0.946l1.222,1.222L5.016,18.737z M7.442,17.482L7.442,17.482c-0.075,0.039-0.124,0.115-0.124,0.203c0,0.019,0.002,0.037,0.007,0.055v-0.002l0.203,0.865c0.002,0.009,0.004,0.019,0.004,0.03c0,0.069-0.056,0.125-0.125,0.125c-0.035,0-0.067-0.014-0.09-0.038H7.314l-1.228-1.229l3.762-3.758l1.82-0.393l0.874,0.874C11.287,15.316,9.571,16.415,7.442,17.482z M12.72,14.054h-0.002l-0.839-0.839l4.699-4.125c0.043-0.039,0.082-0.08,0.117-0.125l0.002-0.002C16.55,10.308,14.668,12.208,12.72,14.054z M17.662,8.126c-0.502,0-0.956-0.203-1.285-0.532h0.001l-0.003-0.002c-0.328-0.329-0.531-0.784-0.531-1.285c0-1.006,0.816-1.822,1.822-1.822c0.446,0,0.854,0.16,1.17,0.426l-0.003-0.002l-1.61,1.613c-0.022,0.022-0.035,0.051-0.035,0.084c0,0.033,0.013,0.063,0.035,0.084l1.247,1.247C18.234,8.056,17.956,8.126,17.662,8.126z M18.956,7.594c-0.081,0.08-0.169,0.151-0.265,0.214l-0.006,0.004h-0.001l-1.207-1.207l1.533-1.533C19.671,5.792,19.647,6.904,18.956,7.594z"/></svg>