<svg xmlns="http://www.w3.org/2000/svg" enable-background="new 0 0 24 24" viewBox="0 0 24 24"><path fill="#1E7CE1" d="M23.725,9.408c-0.27-1.4-0.991-2.936-1.823-4.176l0.038,0.037c-0.728-1.087-1.939-2.329-3.155-3.133c-2.526-1.73-5.452-2.344-8.04-2.076c-2.699,0.291-5.01,1.308-6.91,3.004c-1.76,1.572-2.922,3.494-3.434,5.327c-0.518,1.833-0.449,3.53-0.264,4.808c0.195,1.297,0.841,2.929,0.841,2.929c0.132,0.313,0.315,0.44,0.41,0.493c0.472,0.258,1.247,0.031,1.842-0.637c0.03-0.041,0.046-0.098,0.03-0.146c-0.166-0.639-0.226-1.12-0.285-1.492C2.84,13.611,2.78,12.377,2.87,11.238C2.915,10.62,3.035,9.96,3.245,9.269c0.406-1.367,1.262-2.794,2.6-3.98c1.441-1.277,3.289-2.066,5.046-2.27c0.616-0.074,1.788-0.145,3.199,0.203c0.301,0.075,1.593,0.412,2.975,1.348c1.006,0.684,1.816,1.528,2.374,2.363c0.568,0.797,1.185,2.141,1.366,3.125c0.256,1.12,0.256,2.307,0.074,3.463c-0.225,1.158-0.631,2.284-1.262,3.275c-0.435,0.768-1.337,1.783-2.403,2.545c-0.961,0.676-2.058,1.164-3.184,1.434c-0.57,0.135-1.142,0.221-1.728,0.24c-0.521,0.016-1.212,0-1.697-0.082c-0.721-0.115-0.871-0.299-1.036-0.549c0,0-0.115-0.18-0.147-0.662c0.011-4.405,0.009-3.229,0.009-5.516c0-0.646-0.021-1.232-0.015-1.764c0.03-0.873,0.104-1.473,0.728-2.123c0.451-0.479,1.082-0.768,1.777-0.768c0.211,0,0.938,0.01,1.577,0.541c0.685,0.572,0.8,1.354,0.827,1.563c0.156,1.223-0.652,2.134-0.962,2.365c-0.384,0.288-0.729,0.428-0.962,0.51c-0.496,0.166-1.041,0.214-1.531,0.182c-0.075-0.005-0.143,0.044-0.158,0.119l-0.165,0.856c-0.161,0.65,0.2,0.888,0.41,0.972c0.671,0.207,1.266,0.293,1.971,0.24c1.081-0.076,2.147-0.502,3.052-1.346c0.77-0.732,1.209-1.635,1.359-2.645c0.15-1.121-0.045-2.328-0.556-3.35c-0.562-1.127-1.532-2.068-2.81-2.583c-1.291-0.508-2.318-0.526-3.642-0.188l-0.015,0.005C9.456,7.087,8.72,7.452,7.954,8.243C7.429,8.79,6.999,9.45,6.737,10.196c-0.26,0.752-0.33,1.313-0.342,2.185c-0.016,0.646,0.015,1.246,0.015,1.808v3.701c0,1.184-0.04,1.389,0,1.998c0.022,0.404,0.078,0.861,0.255,1.352c0.182,0.541,0.564,1.096,0.826,1.352c0.367,0.391,0.834,0.705,1.293,0.9c1.051,0.467,2.478,0.541,3.635,0.496c0.766-0.029,1.536-0.135,2.291-0.314c1.51-0.359,2.96-1.012,4.235-1.918c1.367-0.963,2.555-2.277,3.211-3.393c0.841-1.326,1.385-2.814,1.668-4.343C24.079,12.488,24.067,10.917,23.725,9.408z"/></svg>