<svg xmlns="http://www.w3.org/2000/svg" enable-background="new 0 0 24 24" viewBox="0 0 24 24"><path fill="#5F6379" d="M12,20.352c0,0-1.091-0.108-1.947-0.705C9.196,19.051,3.5,14.959,3.5,14.959v8.098c0,0,0.048,0.943,1.081,0.943h14.839c1.032,0,1.081-0.942,1.081-0.942v-8.1c0,0-5.7,4.092-6.553,4.69C13.09,20.243,12,20.352,12,20.352z"/><path fill="#5F6379" d="M20.5,7.62C19.046-0.229,12,0.003,12,0.003V0.001c0,0-7.046-0.232-8.5,7.622v5.35c0,0,0.06,0.572,1.663,1.735c1.6,1.162,5.749,4.436,6.839,4.436c1.084,0,5.232-3.273,6.837-4.437c1.6-1.164,1.661-1.737,1.661-1.737V7.62z M16.826,10.537h-9.65V7.623C8.156,3.723,12,3.669,12,3.669s3.847,0.054,4.826,3.954V10.537z"/></svg>