<svg xmlns="http://www.w3.org/2000/svg" enable-background="new 0 0 24 24" viewBox="0 0 24 24"><path fill="#61C214" d="M24 10.193h-.673v.525c-.416-.463-.993-.71-1.73-.71-1.41 0-2.852 1.05-2.852 2.811 0 1.359 1.089 2.749 2.916 2.749.705 0 1.282-.247 1.666-.71v.586H24V10.193zM23.359 14.147c-.416.494-1.058.772-1.698.772-1.41 0-2.244-1.05-2.244-2.101 0-1.359 1.09-2.162 2.18-2.162.008 0 .015 0 .023 0 .694 0 1.317.298 1.739.772V14.147zM10.67 8.926c0-.309-.257-.556-.577-.556S9.517 8.618 9.517 8.926c0 .001 0 .001 0 .002 0 .306.257.554.574.554.001 0 .001 0 .002 0C10.414 9.482 10.67 9.235 10.67 8.926z"/><rect width=".673" height="5.25" x="9.773" y="10.193" fill="#61C214"/><path fill="#61C214" d="M3.973 15.598c.801 0 1.602-.247 2.275-.71L7.402 16l.513-.494-1.09-1.05c.673-.71 1.058-1.637 1.058-2.688C7.883 9.915 6.409 8 3.909 8 1.987 7.999 0 9.421 0 11.83 0 13.683 1.474 15.598 3.973 15.598zM3.909 8.679c1.827 0 3.269 1.359 3.269 3.119 0 1.514-1.218 3.12-3.237 3.12-2.018 0-3.236-1.575-3.236-3.088C.705 9.853 2.339 8.679 3.909 8.679zM13.394 8.926c0-.309-.257-.556-.577-.556S12.24 8.618 12.24 8.926c0 .001 0 .001 0 .002 0 .306.257.554.574.554.001 0 .002 0 .003 0C13.138 9.482 13.394 9.235 13.394 8.926zM15.22 8.741v4.942c0 .927.737 1.853 1.987 1.853.321 0 .673-.093.961-.247l.064-.031-.32-.556-.065.031c-.191.123-.416.185-.64.185-.833 0-1.313-.618-1.313-1.205v-2.873h2.37v-.649h-2.371V8.741H15.22z"/><rect width=".673" height="5.25" x="12.497" y="10.193" fill="#61C214"/></svg>