<svg xmlns="http://www.w3.org/2000/svg" enable-background="new 0 0 24 24" viewBox="0 0 24 24"><path fill="#3151D6" d="M22.5,10.458c0-5.971-4.687-10.457-10.501-10.457L12.001,0C6.187,0,1.5,4.486,1.5,10.474c0,6.004,4.687,10.474,10.501,10.474c0.991,0,1.949-0.133,2.856-0.384l1.142,2.919C16.117,23.8,16.352,24,16.772,24h1.814c0.437,0,0.757-0.284,0.554-0.834l-1.479-3.819C20.568,17.529,22.5,14.31,22.5,10.458z M16.571,16.563L16.571,16.563l-1.328-3.42c-0.118-0.284-0.353-0.55-0.857-0.55h-1.731c-0.437,0-0.773,0.284-0.571,0.834l1.748,4.486C13.26,18.063,12.639,18.13,12,18.13c-4.251,0-7.275-3.319-7.275-7.655S7.749,2.82,12,2.82c4.251,0,7.275,3.319,7.275,7.655C19.275,13.01,18.251,15.178,16.571,16.563z"/></svg>