<svg xmlns="http://www.w3.org/2000/svg" enable-background="new 0 0 24 24" viewBox="0 0 24 24"><polygon points="21.924 5.708 21.923 5.708 21.923 5.708"/><polygon points="15.133 21.868 15.138 21.873 15.152 21.873"/><ellipse cx="18.641" cy="19.2" fill="#011FAC" rx="4.868" ry="4.8"/><path fill="#011FAC" d="M11.997,0C5.373,0,0,5.298,0,11.835s5.373,11.835,11.997,11.835c1.216,0,2.346-0.155,3.454-0.488c-0.253-0.168-0.439-0.393-0.652-0.605h-0.049c-4.284,0-7.758-3.426-7.758-7.65c0-4.224,3.474-7.65,7.758-7.65c4.656,0,8.253,4.02,7.703,8.545c0.197,0.247,0.402,0.465,0.55,0.74C23.661,15.097,24,13.544,24,11.835C24,5.298,18.627,0,11.997,0z"/></svg>