<svg xmlns="http://www.w3.org/2000/svg" enable-background="new 0 0 24 24" viewBox="0 0 24 24"><path fill="#EEC70E" d="M14.346,18.169c2.428-0.961,4.112-3.278,4.112-5.986c0-3.547-2.891-6.424-6.458-6.427c-0.001,0-0.003,0-0.005,0c-3.569,0-6.462,2.876-6.462,6.425c0,2.711,1.689,5.03,4.077,5.973l0.044,0.015c0.08,0.035,0.173,0.055,0.271,0.055c0.377,0,0.683-0.3,0.69-0.674v-5.37c0-0.761,0.62-1.377,1.385-1.377s1.385,0.616,1.385,1.377v5.369c0.008,0.374,0.315,0.673,0.692,0.673c0.097,0,0.19-0.02,0.274-0.056L14.346,18.169L14.346,18.169z"/><path fill="#EEC70E" d="M12,0.25c-6.627,0-12,5.342-12,11.931c0,5.504,3.748,10.137,8.845,11.514c0.011,0.004,0.028,0.008,0.044,0.012l0.005,0.001l0.059,0.016l0.001-0.002c0.084,0.018,0.179,0.028,0.278,0.028c0.765,0,1.385-0.616,1.385-1.377c0-0.634-0.431-1.168-1.018-1.328l-0.01-0.002c-3.961-1.091-6.821-4.643-6.821-8.86c0-5.069,4.133-9.178,9.231-9.178c5.098,0,9.231,4.109,9.231,9.178c0,4.215-2.858,7.766-6.752,8.843l-0.065,0.015c-0.597,0.162-1.028,0.696-1.028,1.33c0,0.76,0.62,1.377,1.385,1.377c0.098,0,0.194-0.01,0.287-0.03l-0.009,0.002l0.001,0.002l0.059-0.016l0.049-0.013l-0.002,0.002C20.252,22.318,24,17.685,24,12.181C24,5.592,18.627,0.25,12,0.25z"/></svg>