<svg xmlns="http://www.w3.org/2000/svg" enable-background="new 0 0 24 24" viewBox="0 0 24 24"><polygon fill="#C70B00" points="6.366 11.484 6.366 11.483 6.366 11.483"/><path fill="#C70B00" d="M5.668 12.853c-.079.239-.133.479-.182.711l.491.413c.024-.252.067-.504.127-.756L5.668 12.853zM5.395 15.207c.012.343.042.621.073.815l.727.278c-.055-.252-.109-.537-.145-.841L5.395 15.207 5.395 15.207z"/><path fill="#C70B00" d="M.469 16.183c-.034.199-.045.316-.045.316l.001.001h4.789c0 0-.915-4.454 2.116-6.259.661-.343 2.765-1.623 6.207 1.092.109-.097.212-.175.212-.175s-3.153-3.355-6.663-2.981c-1.77.168-3.94 1.882-5.213 4.144C.905 14.04.573 15.552.469 16.183zM2.831 10.493l-.43-.401c-.158.162-.309.323-.448.485l.467.426c.127-.175.267-.349.412-.511L2.831 10.493z"/><path fill="#C70B00" d="M7.015 11.49l-.273-.44c-.139.136-.267.284-.376.433l.291.465C6.76 11.786 6.881 11.637 7.015 11.49zM7.645 7.894L7.524 7.5c-.188 0-.382.013-.582.039L7.057 7.92c.176-.019.352-.026.527-.026H7.645zM4.849 8.127C4.697 8.211 4.54 8.302 4.376 8.404l.279.453c.158-.103.309-.2.467-.284L4.849 8.127zM1 13.383l-.697-.272C.188 13.389.061 13.713 0 13.887l.697.271C.776 13.938.903 13.622 1 13.383zM7.73 16.5h1.164v-1.112L9.9 16.5h1.721l-1.352-1.454v-.001c0 0 1.061-.096 1.061-1.558s-1.285-1.597-1.285-1.597H7.73V16.5zM8.893 13.046h.933c0 0 .261.103.261.524 0 .42-.267.53-.267.53H8.893V13.046z"/><polygon fill="#C70B00" points="17.604 11.922 17.604 16.499 20.484 16.499 20.484 15.316 18.829 15.316 18.829 11.922"/><polygon fill="#C70B00" points="5.122 8.572 5.122 8.572 5.122 8.573"/><rect width="1.23" height="4.577" x="15.871" y="11.922" fill="#C70B00"/><path fill="#C70B00" d="M10.427,8.107c-0.055-0.032-0.206-0.11-0.588-0.226L9.814,8.308c0.2,0.071,0.394,0.149,0.588,0.232v0.001L10.427,8.107z"/><polygon fill="#C70B00" points="7.875 10.275 7.875 10.275 7.875 10.274"/><path fill="#C70B00" d="M10.427 9.995c-.206-.045-.406-.071-.6-.084v.001l-.024.407c.2.006.4.032.6.077L10.427 9.995zM14.203 11.922h-1.182c-.842 0-1.127.815-1.127 1.203V16.5h1.182v-.809h1.109V16.5h1.145v-3.375C15.331 12.142 14.495 11.922 14.203 11.922zM13.07 14.385v-1.118c0 0 0-.253.37-.253h.406c.327 0 .333.253.333.253v1.118H13.07zM22.49 14.757C22.531 14.757 22.552 14.757 22.49 14.757L22.49 14.757zM23.843 13.099v-1.177h-1.879c-.485 0-1.133.426-1.133 1.222v.407c0 .796.642 1.203 1.133 1.203.316.001.464.002.527.002-.095-.001-.274-.002.406-.002v.569l-2.006.006V16.5h1.982c.406 0 1.103-.317 1.127-1.203v-.453c0-.756-.582-1.203-1.127-1.203h-.988v-.543H23.843zM8.541 10.494l-.133-.426c-.206.064-.382.136-.533.207l.139.446C8.19 10.63 8.366 10.552 8.541 10.494z"/></svg>