<svg xmlns="http://www.w3.org/2000/svg" enable-background="new 0 0 24 24" viewBox="0 0 24 24"><path fill="#8CA1AE" d="M4.998,23.548c0.24-0.046,0.48-0.085,0.721-0.129l0.055-0.015c0.25-0.044,0.498-0.09,0.747-0.12l1.214-0.179V0H7.693c-0.63,0.004-1.256,0.016-1.884,0.036C5.12,0.054,4.415,0.096,3.725,0.141c-0.299,0.021-0.6,0.046-0.899,0.07H2.781v23.783L2.76,24l0.664-0.144c0.207-0.044,0.412-0.085,0.619-0.126C4.361,23.668,4.68,23.607,4.998,23.548z M3.691,2.124c0.078-0.054,0.167-0.086,0.26-0.099c0.158-0.014,0.314-0.014,0.473-0.029c0.65-0.045,1.301-0.075,1.949-0.105h0.048c0.091,0.016,0.181,0.03,0.256,0.075c0.179,0.105,0.3,0.315,0.3,0.524c0,0.061-0.016,0.121-0.03,0.166c-0.03,0.074-0.06,0.135-0.104,0.195c-0.047,0.06-0.107,0.12-0.182,0.15C6.586,3.046,6.496,3.076,6.406,3.076C6.302,3.09,6.196,3.09,6.076,3.09L5.627,3.121C5.222,3.15,4.832,3.166,4.441,3.195l-0.3,0.016C4.066,3.226,4.007,3.226,3.947,3.226L4.023,3.2c-0.086,0-0.171-0.019-0.25-0.056c-0.07-0.033-0.134-0.079-0.187-0.137C3.541,2.954,3.5,2.895,3.475,2.826C3.455,2.777,3.441,2.725,3.436,2.67C3.414,2.456,3.514,2.243,3.691,2.124z M3.769,6.107C3.575,6.012,3.455,5.814,3.44,5.602c0-0.057,0.015-0.111,0.03-0.165c0.014-0.068,0.045-0.133,0.09-0.19c0.045-0.065,0.104-0.12,0.164-0.162c0.077-0.05,0.167-0.076,0.241-0.092l0.48-0.044C5.104,4.891,5.75,4.844,6.394,4.805h0.06c0.105,0.004,0.195,0.024,0.271,0.071c0.194,0.103,0.314,0.305,0.314,0.519c0,0.055-0.015,0.109-0.029,0.161C6.994,5.623,6.965,5.688,6.919,5.745C6.875,5.82,6.815,5.865,6.754,5.91C6.68,5.955,6.604,5.984,6.514,6C6.41,6.015,6.305,6.015,6.2,6.03C6.064,6.045,5.914,6.045,5.764,6.061L4.596,6.149L4.311,6.18C4.25,6.195,4.189,6.195,4.115,6.195L4.04,6.17C3.95,6.17,3.859,6.149,3.769,6.107z"/><path fill="#EBEDF1" d="M11.494,22.711c2.121-0.161,4.248-0.211,6.373-0.151c1.128,0.034,2.253,0.099,3.374,0.192V1.504c-1.004-0.229-2.012-0.432-3.028-0.607c-1.968-0.342-3.955-0.581-5.947-0.731c-1.114-0.081-2.233-0.132-3.352-0.149H8.912v22.94C9.773,22.857,10.632,22.775,11.494,22.711z M20.323,11.667c-0.029,0.06-0.061,0.104-0.09,0.15c-0.03,0.044-0.074,0.075-0.136,0.12c-0.044,0.029-0.104,0.045-0.164,0.061l-0.091,0.014H19.8l-0.091,0.09c-0.044,0-0.044,0-0.09-0.006l-0.555-0.071c-1.395-0.179-2.804-0.3-4.198-0.359c-1.395-0.075-2.805-0.09-4.214-0.06l-0.046-0.016c-0.045-0.015-0.09-0.015-0.135-0.029c-0.09-0.03-0.194-0.09-0.254-0.166c-0.03-0.045-0.076-0.104-0.09-0.148c-0.075-0.166-0.075-0.361,0.014-0.525c0.031-0.061,0.061-0.105,0.105-0.15c0.044-0.045,0.09-0.09,0.15-0.104c0.061-0.03,0.119-0.06,0.18-0.06l0.09-0.016l0.585-0.015c1.396-0.016,2.774,0.015,4.153,0.09c1.439,0.075,2.865,0.21,4.289,0.39l0.149,0.016l0.091,0.014c0.105,0.031,0.194,0.075,0.27,0.166c0.12,0.119,0.18,0.284,0.165,0.449C20.368,11.563,20.352,11.623,20.323,11.667z M20.31,9.076c-0.029,0.055-0.061,0.105-0.105,0.146c-0.075,0.074-0.164,0.127-0.27,0.15c-0.029,0.012-0.046,0.012-0.091,0.014L19.8,9.391h-0.091c-0.044,0-0.044,0-0.09-0.006l-0.555-0.08c-1.395-0.19-2.789-0.334-4.198-0.428c-1.395-0.092-2.805-0.135-4.214-0.129h-0.046l-0.09-0.016c-0.059-0.016-0.104-0.036-0.164-0.068c-0.15-0.092-0.256-0.254-0.285-0.438c0-0.061,0-0.12,0.016-0.18c0.014-0.061,0.029-0.117,0.059-0.17c0.031-0.054,0.076-0.102,0.121-0.144c0.074-0.075,0.18-0.126,0.285-0.15c0.045-0.011,0.089-0.015,0.135-0.015h0.569c1.439,0.009,2.879,0.064,4.304,0.172c1.395,0.105,2.774,0.26,4.153,0.457l0.15,0.021c0.046,0.007,0.061,0.007,0.09,0.019c0.06,0.02,0.12,0.046,0.165,0.08c0.061,0.033,0.104,0.075,0.135,0.123c0.031,0.048,0.061,0.101,0.09,0.158C20.401,8.753,20.384,8.931,20.31,9.076z M10.067,2.308c0.016-0.061,0.045-0.12,0.074-0.18c0.031-0.061,0.076-0.105,0.121-0.15c0.074-0.076,0.18-0.121,0.285-0.15c0.045-0.015,0.089-0.015,0.135-0.015l0.584,0.015c1.395,0.061,2.774,0.15,4.154,0.301c1.439,0.148,2.864,0.359,4.288,0.6l0.15,0.014c0.046,0,0.061,0,0.09,0.016c0.06,0.015,0.12,0.045,0.165,0.074c0.135,0.105,0.225,0.256,0.239,0.421c0.016,0.06,0,0.12-0.015,0.181c0,0.059-0.029,0.119-0.059,0.164c-0.031,0.045-0.062,0.09-0.105,0.135c-0.076,0.076-0.181,0.12-0.286,0.135L19.8,3.883h-0.046l-0.06,0.086l-0.091-0.01l-0.554-0.1c-1.395-0.234-2.805-0.425-4.214-0.564c-1.395-0.138-2.804-0.225-4.214-0.271h-0.045l-0.09-0.018c-0.061-0.015-0.105-0.038-0.165-0.071c-0.045-0.03-0.091-0.072-0.135-0.121C10.067,2.676,10.022,2.484,10.067,2.308z M10.24,4.844c0.074-0.075,0.176-0.125,0.279-0.15c0.045-0.015,0.09-0.015,0.135-0.015c0.189,0,0.38,0.005,0.57,0.008c1.437,0.034,2.871,0.113,4.304,0.246c1.387,0.119,2.77,0.3,4.145,0.524l0.135,0.016c0.04,0,0.052,0,0.09,0.014c0.062,0.016,0.112,0.046,0.165,0.076c0.046,0.029,0.09,0.074,0.125,0.119c0.091,0.135,0.135,0.301,0.105,0.465c-0.015,0.061-0.031,0.105-0.061,0.166c-0.03,0.045-0.074,0.104-0.12,0.135c-0.074,0.074-0.165,0.119-0.271,0.149h-0.135l0.004,0.082c-0.044,0-0.044,0-0.09-0.007l-0.555-0.09c-1.395-0.225-2.789-0.391-4.198-0.496c-1.395-0.119-2.805-0.179-4.214-0.209h-0.046l-0.105-0.014c-0.061-0.015-0.115-0.045-0.165-0.074c-0.053-0.031-0.099-0.076-0.14-0.121c-0.036-0.045-0.068-0.104-0.094-0.149c-0.02-0.06-0.037-0.12-0.044-0.181C10.043,5.158,10.112,4.967,10.24,4.844z M10.09,13.646c0.027-0.044,0.063-0.104,0.104-0.134c0.043-0.045,0.09-0.075,0.143-0.104c0.061-0.03,0.121-0.046,0.18-0.061h0.09c0.195,0,0.391-0.016,0.57-0.016c1.395-0.029,2.773-0.029,4.169,0.03c1.439,0.06,2.864,0.165,4.288,0.33l0.151,0.015c0.044,0.016,0.089,0.016,0.135,0.03c0.105,0.046,0.194,0.105,0.255,0.181c0.044,0.044,0.074,0.104,0.105,0.164c0.029,0.061,0.044,0.12,0.044,0.18c0.015,0.165-0.044,0.33-0.164,0.45c-0.046,0.046-0.091,0.075-0.135,0.105c-0.047,0.03-0.105,0.044-0.166,0.06c-0.03,0.016-0.045,0.016-0.089,0.016h-0.047l-0.048-0.08l-0.046-0.004l-0.561-0.061c-1.399-0.146-2.805-0.242-4.207-0.291c-1.407-0.045-2.815-0.03-4.223,0.016h-0.044c-0.045,0-0.091,0-0.135-0.016c-0.101-0.03-0.195-0.074-0.267-0.149c-0.127-0.136-0.186-0.315-0.156-0.495C10.044,13.751,10.065,13.707,10.09,13.646z"/></svg>