<svg xmlns="http://www.w3.org/2000/svg" enable-background="new 0 0 24 24" viewBox="0 0 24 24"><path fill="#D74937" d="M11.679,16.005c-0.002-0.906-0.561-1.395-1.529-1.395H8.4v2.82h1.75C11.118,17.43,11.677,16.931,11.679,16.005z"/><path fill="#D74937" d="M0,24h24V0H0V24z M15.5,12.69h7.24v1.92H17.9v1.72h4.38v1.9l-4.38,0.01v1.73h4.99v1.92h-0.01H15.5V12.69z M6,12.69h4.13c2.44,0,3.83,1.19,3.83,3.24c0,1.39-0.58,2.4-1.64,2.96l1.92,3h-2.72l-1.33-2.54H8.4v2.54H6V12.69z"/><polygon points="11.68 16 11.679 16.005 11.68 16.01"/></svg>