<svg xmlns="http://www.w3.org/2000/svg" enable-background="new 0 0 24 24" viewBox="0 0 24 24"><path fill="#F31001" d="M5.89,2.011c-3.545,2.333-5.5,5.863-5.635,9.696C0.052,18.378,5.286,24,12.023,24l0.001-0.003c6.892,0,11.821-5.022,11.724-12.067c-0.077-5.825-3.198-8.142-5.62-9.908c0,0-0.334-0.131-0.039,0.135c0,0,5.475,6.439,0.508,10.886c0,0-2.674,2.293-4.242,0.135c-1.339-1.833-0.793-4.78-0.029-6.159c0,0,0.871-1.5,2.196-1.93L15.143,3.55c0,0-1.436,0.789-2.104,1.901c0,0,0.068-1.635,1.06-3.028L11.956,0L9.799,2.453c0,0,1.098,1.539,1.06,2.971c0,0-0.909-1.364-2.089-1.872L7.376,5.09c0,0,1.726,0.736,2.21,1.94c0,0,1.891,3.668,0.029,6.092c0,0-1.945,2.274-4.353-0.121C0.561,8.328,5.663,2.315,5.944,2.049C5.982,1.982,5.905,2.011,5.89,2.011z"/></svg>