<svg xmlns="http://www.w3.org/2000/svg" enable-background="new 0 0 24 24" viewBox="0 0 24 24"><path fill="#DE1420" d="M12,0C5.373,0,0,5.373,0,12s5.373,12,12,12c6.628,0,12-5.373,12-12S18.63,0,12,0L12,0z M13.114,16.002V7.974c0-0.177,0.143-0.32,0.32-0.32H16.4c2.226,0,2.693,1.31,2.693,2.408c0,0.636-0.169,1.14-0.504,1.511c0.816,0.337,1.256,1.096,1.256,2.194c0,1.601-1.201,2.557-3.212,2.557h-3.199C13.257,16.323,13.114,16.18,13.114,16.002L13.114,16.002z M12.306,16.001c0,0.177-0.142,0.32-0.319,0.322l0.002,0.001H5.345c-0.177,0-0.32-0.143-0.32-0.32c0-0.001,0-0.001,0-0.002V7.974c0-0.177,0.143-0.32,0.32-0.32h3.103c1.939,0,3.096,1.043,3.096,2.791c0,1.163-0.585,2.077-1.527,2.448l2.21,2.897C12.276,15.846,12.306,15.92,12.306,16.001z"/></svg>