<svg xmlns="http://www.w3.org/2000/svg" enable-background="new 0 0 24 24" viewBox="0 0 24 24"><path fill="#912626" d="M23.06,17.537c-1.281,0.668-7.916,3.396-9.328,4.132c-1.413,0.737-2.197,0.729-3.313,0.196c-1.116-0.533-8.177-3.385-9.448-3.993C0.334,17.568,0,17.312,0,17.069v-2.426c0,0,9.192-2.001,10.676-2.533c1.484-0.532,1.999-0.552,3.262-0.089c1.263,0.463,8.814,1.825,10.062,2.282l-0.001,2.392C24,16.935,23.712,17.198,23.06,17.537L23.06,17.537z"/><path fill="#C6302B" d="M23.059,15.126c-1.281,0.667-7.915,3.395-9.328,4.132c-1.412,0.737-2.197,0.729-3.313,0.196C9.302,18.92,2.242,16.068,0.97,15.46c-1.272-0.608-1.298-1.026-0.049-1.516c1.249-0.489,8.271-3.244,9.755-3.777c1.484-0.532,1.999-0.552,3.261-0.089c1.263,0.463,7.858,3.088,9.106,3.545C24.292,14.082,24.34,14.458,23.059,15.126L23.059,15.126z"/><path fill="#912626" d="M23.06,13.612c-1.281,0.668-7.916,3.396-9.328,4.132c-1.413,0.736-2.197,0.729-3.313,0.196c-1.116-0.533-8.177-3.385-9.448-3.993C0.334,13.643,0,13.387,0,13.144v-2.426c0,0,9.192-2.001,10.676-2.533c1.484-0.532,1.999-0.552,3.262-0.089C15.201,8.558,22.752,9.921,24,10.378l-0.001,2.392C24,13.009,23.712,13.272,23.06,13.612L23.06,13.612z"/><path fill="#C6302B" d="M23.059,11.201c-1.281,0.668-7.915,3.395-9.328,4.132c-1.412,0.736-2.197,0.729-3.313,0.196c-1.116-0.533-8.176-3.385-9.448-3.993c-1.272-0.608-1.298-1.026-0.049-1.516C2.17,9.53,9.192,6.775,10.676,6.243c1.484-0.532,1.999-0.552,3.261-0.089c1.263,0.463,7.858,3.087,9.106,3.545C24.292,10.156,24.34,10.533,23.059,11.201L23.059,11.201z"/><path fill="#912626" d="M23.06,9.541c-1.281,0.668-7.916,3.396-9.328,4.132c-1.413,0.736-2.197,0.729-3.313,0.196c-1.116-0.533-8.177-3.386-9.448-3.993C0.334,9.572,0,9.316,0,9.074V6.648c0,0,9.192-2.001,10.676-2.533c1.484-0.533,1.999-0.552,3.262-0.089C15.201,4.488,22.752,5.85,24,6.307l-0.001,2.392C24,8.939,23.712,9.202,23.06,9.541L23.06,9.541z"/><path fill="#C6302B" d="M23.059,7.13c-1.281,0.668-7.915,3.396-9.328,4.132c-1.412,0.736-2.197,0.729-3.313,0.196C9.303,10.924,2.242,8.072,0.97,7.464c-1.272-0.608-1.298-1.026-0.049-1.516C2.17,5.46,9.192,2.705,10.676,2.172c1.484-0.532,1.999-0.552,3.261-0.089c1.263,0.463,7.858,3.088,9.106,3.545C24.292,6.085,24.34,6.462,23.059,7.13L23.059,7.13z"/><path fill="#FFF" d="M14.933,4.77l-2.063,0.214l-0.462,1.112l-0.746-1.24L9.279,4.641L11.057,4l-0.533-0.984l1.665,0.651l1.569-0.514l-0.424,1.018L14.933,4.77L14.933,4.77z M12.284,10.162L8.433,8.565l5.518-0.847L12.284,10.162L12.284,10.162z M6.945,5.388c1.629,0,2.949,0.512,2.949,1.143c0,0.631-1.32,1.143-2.949,1.143S3.996,7.162,3.996,6.531C3.996,5.9,5.316,5.388,6.945,5.388L6.945,5.388z"/><path fill="#621B1C" d="M17.371,5.074l3.266,1.291l-3.263,1.289L17.371,5.074L17.371,5.074z"/><path fill="#9A2928" d="M13.758,6.503l3.613-1.429l0.003,2.58L17.02,7.792L13.758,6.503L13.758,6.503z"/></svg>