<svg xmlns="http://www.w3.org/2000/svg" enable-background="new 0 0 24 24" viewBox="0 0 24 24"><path fill="#6C4EB0" d="M8.152,3.711c0.899-1.136,2.592-1.697,3.746-1.726c3.236-0.062,4.585,4.013,4.689,5.633l1.498,0.454c-0.345-4.966-3.4-7.571-6.323-7.571C9.021,0.5,6.49,2.514,5.47,5.467c-1.393,3.937-0.479,7.722,1.229,10.751C6.55,16.415,6.46,16.762,6.49,17.095c0.029,0.909,0.793,1.666,1.708,1.666h0.06c0.959-0.03,1.693-0.832,1.648-1.787c0-0.909-0.779-1.664-1.693-1.664H8.152c-0.06,0-0.149,0-0.225,0.029c-1.243-2.12-1.768-4.392-1.572-6.843C6.474,6.648,7.074,5.043,8.152,3.711z"/><path fill="#6C4EB0" d="M0.932,20.898c1.004,1.514,3.057,2.482,5.304,2.482c0.599,0,1.229-0.044,1.843-0.196c3.896-0.757,6.848-3.119,8.541-6.601l0.014-0.031c0.869-0.076,1.543-0.849,1.499-1.773c-0.046-0.924-0.795-1.665-1.708-1.665h-0.061c-0.943,0.031-1.678,0.833-1.648,1.788c0.03,0.484,0.226,0.878,0.494,1.165c-1.048,2.06-2.621,3.573-5.004,4.846c-1.603,0.847-3.296,1.166-4.944,0.939c-1.378-0.196-2.456-0.819-3.116-1.817c-0.988-1.515-1.078-3.149-0.255-4.784c0.601-1.181,1.499-2.044,2.099-2.469c-0.15-0.393-0.33-1.059-0.42-1.558C-0.867,14.433-0.416,18.823,0.932,20.898z"/><path fill="#6C4EB0" d="M23.465,20.23c0.898-1.817,0.824-4.875-1.469-7.495l-0.014,0.03c-2.321-2.756-5.738-4.27-9.635-4.27h-0.51c-0.253-0.56-0.837-0.909-1.497-0.909h-0.045c-0.943,0-1.678,0.819-1.647,1.772c0.03,0.908,0.794,1.666,1.708,1.666h0.074c0.675-0.03,1.259-0.455,1.498-1.06h0.555c2.309,0,4.495,0.681,6.489,2.013c1.527,1.015,2.622,2.347,3.236,3.937c0.538,1.302,0.509,2.574-0.045,3.635c-0.854,1.665-2.293,2.544-4.195,2.544c-1.199,0-2.367-0.379-2.967-0.651c-0.359,0.301-0.959,0.801-1.394,1.105c1.318,0.604,2.652,0.953,3.94,0.953C20.469,23.5,22.64,21.836,23.465,20.23z"/></svg>