<svg xmlns="http://www.w3.org/2000/svg" enable-background="new 0 0 24 24" viewBox="0 0 24 24"><path fill="#F34A41" d="M15.365,14.695l0,0.001c-0.203-0.289-0.52-0.434-0.959-0.429c-0.509,0-0.883,0.155-1.125,0.455c-0.241,0.3-0.391,0.706-0.439,1.21h2.769C15.648,15.396,15.568,14.984,15.365,14.695z"/><path fill="#F34A41" d="M17.143,24C20.914,24,24,20.914,24,17.143V6.857C24,3.086,20.914,0,17.143,0H6.857C3.086,0,0,3.086,0,6.857v10.286C0,20.914,3.086,24,6.857,24H17.143z M19.645,13.168c0.219-0.203,0.504-0.305,0.863-0.305c0.381,0,0.675,0.102,0.895,0.305c0.219,0.203,0.327,0.478,0.327,0.825c0,0.348-0.107,0.626-0.327,0.836c-0.22,0.209-0.52,0.311-0.895,0.311c-0.359,0-0.643-0.102-0.863-0.311c-0.219-0.209-0.327-0.487-0.327-0.836C19.318,13.645,19.425,13.371,19.645,13.168z M19.645,18.552c0.219-0.203,0.504-0.305,0.863-0.305c0.381,0,0.675,0.102,0.895,0.305c0.219,0.204,0.327,0.478,0.327,0.825c0,0.348-0.107,0.626-0.327,0.836c-0.22,0.209-0.52,0.311-0.895,0.311c-0.359,0-0.643-0.102-0.863-0.311c-0.219-0.209-0.327-0.482-0.327-0.836C19.318,19.028,19.425,18.755,19.645,18.552z M11.803,13.699c0.626-0.654,1.505-0.981,2.635-0.981c0.381,0,0.745,0.054,1.104,0.15c0.359,0.102,0.674,0.262,0.953,0.492c0.279,0.225,0.498,0.536,0.67,0.921c0.166,0.386,0.251,0.867,0.251,1.441c0,0.209-0.011,0.434-0.038,0.67c-0.026,0.241-0.064,0.488-0.112,0.745h-4.463c0.027,0.626,0.187,1.097,0.482,1.414c0.289,0.316,0.766,0.477,1.419,0.477c0.407,0,0.771-0.064,1.093-0.187c0.321-0.123,0.562-0.253,0.734-0.38v0.001l0.643,1.264c-0.294,0.235-0.702,0.433-1.21,0.6c-0.509,0.167-1.055,0.247-1.629,0.247c-1.2,0-2.078-0.348-2.635-1.05c-0.557-0.696-0.835-1.655-0.835-2.877C10.866,15.334,11.177,14.353,11.803,13.699z M5.999,12.921h1.501l0.225,0.981h0.059c0.171-0.365,0.396-0.649,0.686-0.847s0.627-0.299,1.013-0.299c0.257,0,0.551,0.058,0.877,0.165l-0.257,1.821c-0.311-0.112-0.589-0.166-0.836-0.166c-0.343,0-0.636,0.09-0.867,0.273c-0.231,0.183-0.386,0.418-0.466,0.708v4.806H5.999V12.921z"/></svg>