<svg xmlns="http://www.w3.org/2000/svg" enable-background="new 0 0 24 24" viewBox="0 0 24 24"><path fill="#CD1E10" d="M1.853 18.417L0 12.039C0 14.386.692 16.558 1.853 18.417zM15.737 10.975l-.542-1.901c-.295-1.012-.89-1.36-3.441-.619l-9.107 2.618 1.384 4.771 9.577-2.767-.001-.001C15.833 12.431 16.007 11.937 15.737 10.975z"/><path fill="#CD1E10" d="M11.086,6.078c1.684-0.493,2.623-0.566,3.837-0.396c1.757,0.295,2.55,1.21,2.971,2.671l0.518,1.829c0.396,1.359,0.049,2.448-1.138,3.561c-0.938,0.842-1.509,1.185-2.971,1.606l-4.481,1.287l10.665,1.311l0.47,1.655l-2.328,0.643L4.751,18.44l1.113,3.88C7.644,23.385,9.749,24,11.975,24C18.605,24,24,18.61,24,11.986C24.048,5.391,18.653,0.001,12.024,0C6.358,0.001,1.606,3.905,0.348,9.17L11.086,6.078z"/></svg>