<svg xmlns="http://www.w3.org/2000/svg" enable-background="new 0 0 24 24" viewBox="0 0 24 24"><path fill="#A5DCF1" d="M19.147,15.13C20.939,13.537,22,11.143,22,8.576C22,3.768,18.411,0,13.83,0H6.158C3.865,0,2,1.872,2,4.174c0,0.007,0.002,0.013,0.002,0.02C2.002,4.197,2,4.2,2,4.203v16.112C2,22.347,3.646,24,5.671,24s3.671-1.653,3.671-3.685v-3.163h1.866l3.083,5.079c0.512,0.843,1.318,1.434,2.273,1.665c0.288,0.07,0.579,0.104,0.869,0.104c0.666,0,1.322-0.184,1.906-0.542l0.414-0.254c1.728-1.058,2.275-3.328,1.223-5.062L19.147,15.13z"/><polygon points="20.389 23.361 20.379 23.367 20.378 23.368"/><path d="M9.233,1.453l-0.007-0.01C9.23,1.449,9.234,1.456,9.238,1.462C9.238,1.463,9.239,1.463,9.24,1.464L9.233,1.453z"/><path fill="#3D89DC" d="M5.671,24C3.646,24,2,22.347,2,20.315V4.203c0-0.414,0.336-0.75,0.75-0.75S3.5,3.789,3.5,4.203v16.112c0,1.204,0.974,2.185,2.171,2.185s2.171-0.98,2.171-2.185v-3.913c0-0.414,0.336-0.75,0.75-0.75s0.75,0.336,0.75,0.75v3.913C9.342,22.347,7.695,24,5.671,24z"/><path fill="#3D89DC" d="M11.62 17.152H8.592c-.414 0-.75-.336-.75-.75s.336-.75.75-.75h3.028c.414 0 .75.336.75.75S12.034 17.152 11.62 17.152zM18.174 15.724c-.229 0-.456-.104-.604-.304-.247-.332-.177-.802.156-1.049 1.763-1.307 2.773-3.419 2.773-5.795 0-4.034-2.867-7.076-6.67-7.076H6.158c-.414 0-.75-.336-.75-.75S5.744 0 6.158 0h7.672C18.411 0 22 3.768 22 8.576c0 2.813-1.264 5.431-3.381 7C18.485 15.676 18.329 15.724 18.174 15.724zM9.945 13.729H5.914c-.414 0-.75-.336-.75-.75V7.598c0-.414.336-.75.75-.75s.75.336.75.75v4.631h3.281c.414 0 .75.336.75.75S10.359 13.729 9.945 13.729z"/><path fill="#3D89DC" d="M16.157,12.407c-0.187,0-0.374-0.069-0.52-0.209c-0.299-0.286-0.309-0.762-0.021-1.061c0.638-0.665,0.989-1.574,0.989-2.562c0-2.082-1.523-3.652-3.544-3.652H9.565c-0.414,0-0.75-0.336-0.75-0.75s0.336-0.75,0.75-0.75h3.496c2.828,0,5.044,2.263,5.044,5.152c0,1.376-0.5,2.654-1.407,3.601C16.551,12.33,16.354,12.407,16.157,12.407z"/><path fill="#3D89DC" d="M11.737,10.794h-1.685c-0.414,0-0.75-0.336-0.75-0.75V7.108c0-0.414,0.336-0.75,0.75-0.75h2.327c1.3,0,2.317,0.975,2.317,2.218c0,0.608-0.244,1.172-0.687,1.585c-0.302,0.281-0.777,0.267-1.06-0.036c-0.283-0.303-0.267-0.777,0.036-1.06c0.14-0.131,0.21-0.295,0.21-0.489c0-0.416-0.344-0.718-0.817-0.718h-1.577v1.436h0.935c0.414,0,0.75,0.336,0.75,0.75S12.151,10.794,11.737,10.794z"/><path fill="#3D89DC" d="M6.158 8.348C3.865 8.348 2 6.476 2 4.174S3.865 0 6.158 0c2.292 0 4.157 1.872 4.157 4.174S8.45 8.348 6.158 8.348zM17.434 24.001c-.29 0-.581-.034-.869-.104-.955-.231-1.762-.822-2.273-1.665l-4.562-7.516c-1.053-1.733-.505-4.005 1.222-5.062l.414-.254c.837-.514 1.822-.671 2.775-.438.955.231 1.762.822 2.273 1.664l4.563 7.518c1.053 1.733.505 4.004-1.223 5.062l-.414.254C18.756 23.817 18.1 24.001 17.434 24.001z"/><g><path fill="#3D89DC" d="M5.914,20.821c-0.414,0-0.75-0.336-0.75-0.75v-7.093c0-0.414,0.336-0.75,0.75-0.75s0.75,0.336,0.75,0.75v7.093C6.664,20.485,6.328,20.821,5.914,20.821z"/></g></svg>