<svg xmlns="http://www.w3.org/2000/svg" enable-background="new 0 0 24 24" viewBox="0 0 24 24"><path d="M16.475,21.618l1.563,1.227c0,0,1.066,0.377,1.16,0.377c0.094,0,0.828-0.094,0.828-0.094L20.5,22.35l-0.355-1.062l0.142-0.355l-0.758-0.99l-1.604-1.626L17.54,17.04l0.024-0.874l-0.356-0.92l-0.402-0.732l0.236-0.731l-0.189-1.062l-0.807-1.808l0.299-0.05L15.844,10l0.325-0.103L15.597,8.97l0.241-0.128l-0.429-0.7l0.141-0.078l-0.519-0.418l0.189-0.098l-1.349-0.94l-1.705-1.181c0,0-0.355-0.685-0.379-0.78c0.02,0.185-0.053-0.174-0.126-0.534l-0.087-0.527l0.237-0.425l0.521-0.779l0.757-0.59l0.19-0.07l1.823-0.685l0.166-0.165l-0.189-0.284l-0.261-0.141l-0.478-0.122l-1.196-0.122l-0.93,0.01l-0.639,0.141l-0.568-0.212l-0.711-0.094L9.254,0.024L8.733,0L7.856,0.33L6.531,1.864l-0.166,0.59l-0.094,0.52L5.82,3.941l-0.284,0.92L5.395,5.853v0.212L4.707,7.103l-0.379,0.78V8.99l0.119,2.29l0.213,0.826l0.426,0.755l0.545,0.495l0.236,0.968l0.9,1.982l1.066,1.275l0.07,0.07l0.379,1.912l-1.302,2.36l-0.355,0.543L6.294,22.68l-0.521-0.071l-0.308,0.118l-0.355-0.023l-0.237,0.188l-0.449-0.118l-0.45-0.07l-0.379,0.235L3.5,23.34l0.261-0.236l0.402-0.07v0.377l0.638-0.142l0.356,0.023l0.615,0.142c0,0,0.545,0.023,0.639,0.023s0.664,0.118,0.664,0.118h0.425l0.213,0.118l0.308-0.047l0.309,0.189h0.473l0.095-0.307v-0.165l0.308,0.141l0.236,0.236L9.585,24l0.023-0.307l-0.166-0.377c0,0-0.118-0.213-0.213-0.213c-0.094,0-0.449-0.118-0.449-0.118l-0.261,0.071l-0.259-0.142l-0.285,0.119l-0.236-0.119l-0.094-0.235l-0.166-0.071l0.142-0.425l0.426-0.968l0.568-0.944l0.498-0.59l0.189-0.236c0,0,0.237-0.354,0.237-0.448c0-0.095,0.047-1.086,0.047-1.086l-0.308-0.637l-0.143-0.52l2.746,0.662h0.166l2.344,1.675l0.332,0.425l0.118,1.628l-0.047,0.378l-0.166,0.307l-0.189,0.188l-0.07,0.331l-0.095,0.165l-0.45,0.071l-0.425-0.141l-0.261-0.071h-0.497l-0.237,0.188l-0.118,0.26l0.023,0.283l0.142-0.26l0.166-0.165l0.143-0.023l-0.024,0.236l0.166,0.142l0.402-0.118h0.19l0.023,0.26l0.569,0.07l0.402-0.07l0.308,0.094l0.45,0.118l0.165-0.023l0.143-0.094l0.142,0.448l0.07-0.472l-0.118-0.566l-0.261-0.213l0.095-0.354l-0.213-0.401l0.024-1.487L16.475,21.618z"/></svg>