<svg xmlns="http://www.w3.org/2000/svg" enable-background="new 0 0 24 24" viewBox="0 0 24 24"><path fill="#3ABDCC" d="M19.33,7.75c-0.6-2.13-2.31-3.79-4.54-4.09c-2.75-0.42-5.62,0.89-7.64,2.69c-0.04,0.04-0.16,0.12-0.21,0.2C6.73,6.17,6.46,5.79,6.17,5.49C5.79,4.94,4.93,4.04,4.89,4C4.72,3.79,4.42,3.75,4.25,3.66C3.72,3.55,3.36,3.37,3.13,3.24C3.12,3.23,3.11,3.21,3.09,3.19l-2.18-2.3c-0.22-0.17-0.48-0.21-0.69,0C0.05,1.11,0,1.36,0.22,1.58l2.16,2.31h0.03c0.08,0.14,0.35,0.36,0.45,0.83c0.05,0.21,0.17,0.46,0.38,0.76c0,0,1.51,1.61,2.11,2.71c0.56,1.1,0.69,1.45,0.77,1.65c-0.02,0-0.57-0.65-1.21-1.1c-2.48,2.81-4.29,6.18-4.82,9.83c-0.55,3.74,1.51,4.72,3.05,4.68c1.23,0,3.81-1.32,5.18-4.59c1.32-3.19,1.11-6.85-0.23-10.04c1.28-1.29,3.65-2.81,5.95-2.77c1.72,0,2.58,1.48,2.7,1.62c1.32,2.38-0.23,4.52-0.23,4.52c-0.86,1.28-2.35,1.88-3.13,2.09c-0.59,0.16-1.7,0.12-1.98,0c-0.16-0.05-0.21-0.14-0.21-0.26c0-0.17,0.14-0.25,0.26-0.25c0.17,0,0.26,0.12,0.26,0.26v0.13c0.43,0.12,1.28,0.03,1.62,0c-0.27-0.64-0.86-0.98-1.64-0.98h-0.04c-1.01,0.01-1.82,0.83-1.81,1.83c0,0.77,0.44,1.41,1.07,1.66c0.33,0.13,1.33,0.26,2.56,0.13c1.89-0.26,3.26-1.11,4.54-2.55C19.51,12.3,19.94,9.96,19.33,7.75z M6.65,16.17c-0.86,3.75-3.26,5.07-3.9,4.86c-0.65-0.22-0.86-2.09,0.42-5.24c0.22-0.47,1.5-3.39,3.18-5.22C6.35,10.78,7.27,13.47,6.65,16.17z"/><path fill="#3ABDCC" d="M23.21,18.13c0.08,0.26,0.05,0.51,0.08,0.51v0.05c-0.03,0.03-0.03,0.07-0.05,0.11l-0.01,0.03l-0.05,0.11c-0.51,1.32-1.29,2.34-2.48,3.15c-2.07,1.32-5.06,1.32-6.99,0c-1.67-1.11-2.62-3.45-2.79-5.41c0.56,0.26,1.93,0.56,2.61,0.43c0.04,0.3,0.67,3.83,3.85,3.7c2.7-0.12,3.56-2.81,3.68-2.93c0,0,0.12-0.26,0.37-0.47c0.34-0.25,0.56-0.6,0.68-0.81c0.02-0.02,0.03-0.04,0.05-0.06h0.09l0.81-2.96c0.03-0.26,0.33-0.39,0.59-0.34c0.26,0.04,0.38,0.34,0.35,0.59l-0.82,3.07v0.04C23.16,17.1,23.06,17.5,23.21,18.13z"/><path fill="#FCB536" d="M3.13 3.24c0 0-.5.09-.72.65H2.38L.22 1.58C0 1.36.05 1.11.22.89c.21-.21.47-.17.69 0l2.18 2.3C3.11 3.21 3.12 3.23 3.13 3.24zM24 13.83l-.82 3.07v.04c-.02-.07-.14-.36-.93-.4l.81-2.96c.03-.26.33-.39.59-.34C23.91 13.28 24.03 13.58 24 13.83z"/></svg>