<svg xmlns="http://www.w3.org/2000/svg" enable-background="new 0 0 24 24" viewBox="0 0 24 24"><path fill="#22A0E0" d="M18.841,5.791c-0.751,0-1.471,0.152-2.101,0.455c-0.735-1.321-2.129-2.231-3.689-2.231c-1.201,0-2.296,0.516-3.046,1.322L9.99,5.322C9.12,4.212,7.8,3.5,6.27,3.5c-2.55,0-4.65,2.094-4.65,4.705c0,0.654,0.135,1.291,0.39,1.868C0.811,10.786,0,12.107,0,13.625c0,2.277,1.801,4.098,4.005,4.098c0.285,0,0.555-0.014,0.825-0.076c0.6,1.67,2.191,2.853,4.05,2.853c1.786,0,3.316-1.091,3.975-2.655c0.495,0.228,1.05,0.379,1.65,0.379c1.425,0,2.655-0.789,3.3-1.973c0.331,0.061,0.675,0.105,1.02,0.105c2.865,0,5.176-2.368,5.176-5.282S21.69,5.791,18.841,5.791z"/></svg>