<svg xmlns="http://www.w3.org/2000/svg" enable-background="new 0 0 24 24" viewBox="0 0 24 24"><path fill="#1873CC" d="M24,6H0v12h12.13L24,6z M10.014,14.683c-0.37,0.123-0.787,0.191-1.23,0.191c-0.456,0-0.885-0.072-1.263-0.202L7.163,15.6l-2,0.006l0.09-0.467c-0.029,0.025-0.057,0.051-0.087,0.075c-0.535,0.435-1.208,0.636-2.037,0.651l-0.213,0.002c-0.015,0-0.033,0-0.052,0c-0.921,0-1.784-0.25-2.53-0.683l0.729-1.463c0.79,0.472,1.286,0.578,1.956,0.564c0.347-0.007,0.598-0.071,0.761-0.242c0.093-0.097,0.151-0.228,0.156-0.372v-0.001c0.007-0.38-0.53-0.559-1.185-0.764c-0.531-0.166-1.135-0.393-1.606-0.743c-0.559-0.414-0.825-0.934-0.812-1.668C0.338,9.954,0.553,9.463,0.9,9.104c0.519-0.543,1.357-0.872,2.363-0.872h0.001h0.005c0.863,0.001,1.915,0.248,2.676,0.64l-0.82,1.445C4.29,9.909,3.87,9.87,3.395,9.845c-0.708-0.038-1.064,0.217-1.069,0.493c-0.007,0.336,0.669,0.64,1.305,0.847c0.964,0.309,2.19,0.723,2.377,1.92L7.77,8.399h2.046l2.064,5.636L11.873,8.4h2.37c2.257,0,3.318,0.772,3.318,2.546c0,1.592-1.09,2.541-2.936,2.541h-0.763l-0.01,2.117L10.264,15.6L10.014,14.683z"/><path fill="#1873CC" d="M15.63 10.87c0-.717-.554-.95-1.248-.95h-.521v1.925h.521C15.076 11.844 15.629 11.612 15.63 10.87zM8.774 10.695l-.748 2.387c.223.086.481.134.757.134.268 0 .52-.048.742-.127l-.736-2.395L8.774 10.695z"/></svg>