<svg xmlns="http://www.w3.org/2000/svg" enable-background="new 0 0 24 24" viewBox="0 0 24 24"><path fill="#C76495" d="M12,24c6.627,0,12-5.373,12-12S18.627,0,12,0S0,5.373,0,12S5.373,24,12,24z M6.411,6.759c1.549-1.449,3.704-2.56,5.693-3.267c3.345-1.189,6.88-0.488,7.422,1.645L19.453,5.07c0.525,2.1-1.29,4.606-3.614,5.505c-2.07,0.809-3.796,0.675-4.5,0.45c-0.811-0.27-1.276-0.795-1.396-1.095c-0.045-0.12-0.12-0.315,0-0.375c0.075-0.046,0.105-0.031,0.314,0.194c0.196,0.211,0.961,0.78,2.431,0.615c3.855-0.434,6.164-3.42,5.431-5.024c-0.51-1.125-3.466-1.636-7.171,0.21c-4.515,2.25-4.77,4.109-4.8,4.814c-0.105,1.935,2.4,2.955,3.75,4.41c0.044,0.03,0.075,0.06,0.105,0.105c0.404-0.165,0.975-0.24,1.875-0.256c2.189-0.029,3.42,1.41,3.375,2.7c-0.045,1.021-0.976,1.441-1.141,1.471c-0.119,0.015-0.195,0.015-0.21-0.075c-0.014-0.061,0.031-0.09,0.181-0.181c0.151-0.09,0.584-0.405,0.674-0.944c0.091-0.54-0.329-1.86-2.43-2.1c-0.75-0.091-1.334-0.031-1.83,0.104c0.362,0.795,0.436,2.415-0.404,3.676c-0.87,1.289-2.49,2.085-4.065,1.649c-0.51-0.134-1.29-1.185-0.615-2.655c0.63-1.396,3.319-2.745,3.686-2.925v-0.006c-1.246-1.073-4.276-2.519-4.703-4.73C4.275,9.98,4.568,8.48,6.411,6.759z"/><path fill="#C76495" d="M6.803,19.761c0.418,0.242,1.392-0.046,2.09-0.805c0.229-0.25,0.415-0.52,0.555-0.81c0.026-0.056,0.054-0.115,0.078-0.176l0.065-0.18c0.18-0.544,0.199-1.147,0.024-1.792l-0.108,0.061v0.003c0,0-1.249,0.591-2.12,1.509C6.577,18.426,6.353,19.499,6.803,19.761z"/></svg>