<svg xmlns="http://www.w3.org/2000/svg" enable-background="new 0 0 24 24" viewBox="0 0 24 24"><path fill="#D4281B" d="M12.021,3.477C7.308,3.471,3.483,7.287,3.477,12c0,0-0.022,1.164,0.318,2.318h7.459l-3.115,5.876l7.539-7.614H5.428L16.94,1.064C15.436,0.381,13.761,0,12,0C5.383,0,0,5.383,0,12c0.002,4.18,2.178,8.057,5.744,10.237l3.582-6.758L2.93,15.475C2.229,13.719,2.289,12,2.29,12c0-5.358,4.374-9.715,9.73-9.715c0.46,0,0.92,0.033,1.375,0.098l-1.094,1.099C12.208,3.479,12.114,3.477,12.021,3.477z"/><path fill="#D4281B" d="M18.255,1.764L14.674,8.52h6.394c0.427,1.11,0.647,2.29,0.647,3.479c0,0.467-0.036,0.934-0.103,1.395c-0.776,5.317-5.718,8.995-11.032,8.218l1.084-1.096c0.104,0.004,0.209,0.006,0.314,0.006c4.713,0.007,8.539-3.808,8.547-8.522c0,0,0-1.239-0.319-2.318h-7.46l3.115-5.876l-7.656,7.616h10.28L7.059,22.935C8.611,23.64,10.296,24.003,12,24c6.616,0,12-5.384,12-12C23.997,7.82,21.82,3.943,18.255,1.764z"/></svg>