<svg xmlns="http://www.w3.org/2000/svg" enable-background="new 0 0 24 24" viewBox="0 0 24 24"><path fill="#1A818B" d="M18.412 7.248l2.562-3.661c-1.395-1.096-4.348-3.666-9.352-3.585-4.668 0-8.484 2.677-8.484 7.774.005 1.726.442 3.092 1.259 4.057 1.501 1.813 4.343 1.925 5.825.427 1.212-1.234 1.376-3.433.036-4.667-.706-.68-1.65-.979-2.832-.711C6.543 7.142 5.975 7.041 5.975 6.091c0-2.488 3.095-3.911 5.668-3.869 2.213-.036 4.39.599 6.242 1.818l-1.365 1.96L18.412 7.248zM12.708 24c2.608 0 4.79-.533 6.779-2.239 2.898-2.61 2.751-7.576 1.031-9.628h.001c-.787-.954-1.973-1.493-3.206-1.453-1.934-.102-3.608 1.421-3.578 3.412-.036.854.304 1.676.933 2.25.716.706 1.675 1 2.857.731.883-.259 1.452-.157 1.452.792 0 .219-.025.431-.071.644-.848 2.077-3.019 3.27-6.161 3.27-2.634.01-5.196-.833-7.313-2.402l1.71-2.001-1.807-1.391L2.25 19.633l.781.701C5.696 22.711 9.141 24.015 12.708 24z"/></svg>