<svg xmlns="http://www.w3.org/2000/svg" enable-background="new 0 0 24 24" viewBox="0 0 24 24"><polygon points="3.991 19.862 3.996 19.858 3.998 19.856"/><path d="M22.2 12.943c.007.014.011.029.017.043.001.003.003.005.005.008L22.2 12.943zM17.896 23.887c-.131.004-.262.005-.393.008L17.5 23.896 17.896 23.887z"/><path fill="#868E91" d="M22.101,19.055c0.252-0.762,0.397-1.639,0.397-2.55c0-1.257-0.279-2.449-0.775-3.519c-0.576-1.141-1.358-2.1-2.307-2.859l-0.017-0.013c-0.685-0.453-1.487-0.794-2.35-0.976L17.004,9.13c-0.246-0.06-4.052-0.106-7.812-0.121l0.001-0.002c-3.759-0.015-7.472,0-7.532,0.06c-0.126,0.126-0.06,0.798,0.06,1.35c0.34,1.117,0.983,2.057,1.834,2.753l0.01,0.008c0.917,0.766,2.035,1.323,3.264,1.581l0.049,0.009c0.366,0.126,1.044,0.126,4.598,0.126c4.237,0,4.916,0.06,5.221,0.24c0.142,0.107,0.265,0.23,0.369,0.367l0.003,0.005c0.18,0.24,0.181,0.307,0.181,0.979s-0.066,0.732-0.186,1.044c-0.117,0.147-0.258,0.269-0.419,0.362l-0.007,0.004c-0.186,0.12-0.307,0.119-4.358,0.179c-4.671,0-5.156,0-6.321,0.432c-0.951,0.281-1.773,0.744-2.463,1.352c-1.163,1.038-1.84,2.202-1.96,3.426l0.06,0.611C3.891,23.962,6.591,24,9.3,24c2.577,0,5.146-0.037,7.707-0.105l0.489-0.119c0.285-0.069,0.531-0.153,0.766-0.256l-0.029,0.011l0.367-0.18c1.644-0.955,2.884-2.453,3.484-4.242L22.101,19.055z"/><path fill="#08458E" d="M22.461,0.12C22.401,0,21.421,0,14.863,0L6.877,0.06C5.316,0.409,4.009,1.312,3.145,2.548l-0.013,0.02C2.5,3.299,2.029,4.187,1.784,5.164L1.775,5.208l-0.12,0.553L1.536,6.618c-0.06,0.799-0.06,1.351,0.12,1.471h5.276c0.06,0-0.186-0.246-0.186-0.672c0-0.738,0.252-0.924,0.552-1.23c0.552-0.426,2.946-0.12,4.729-0.246c2.449,0,4.603-0.06,4.849-0.12c2.701-0.427,5.031-2.388,5.524-4.536C22.521,0.738,22.521,0.18,22.461,0.12z"/></svg>