<svg xmlns="http://www.w3.org/2000/svg" enable-background="new 0 0 24 24" viewBox="0 0 24 24"><path fill="#0442EA" d="M2.75,24l10.632-0.01c4.346,0,7.868-3.521,7.868-7.869c0-4.344-3.521-7.869-7.867-7.869l-2.76,0.016c-0.217,0-0.397-0.178-0.397-0.399c0-0.218,0.178-0.399,0.397-0.399h10.598l0.006-3.33V4.139H10.612c-2.057,0-3.722,1.665-3.722,3.726c0,2.054,1.667,3.72,3.726,3.72l2.771,0.03c2.489,0,4.505,2.016,4.505,4.506c0,2.488-2.017,4.504-4.503,4.504H2.755L2.75,24z"/><path fill="#0442EA" d="M13.368,16.512H2.761l0.004,3.331l10.65-0.003c2.055,0,3.719-1.664,3.719-3.719c0-2.056-1.665-3.724-3.719-3.724l-2.774-0.03c-2.491,0-4.514-2.016-4.514-4.504s2.01-4.507,4.499-4.507l10.602-0.003l-0.006-3.35L10.624,0C6.279,0,2.758,3.523,2.758,7.869c0,4.346,3.521,7.871,7.866,7.871h2.744c0.211,0,0.384,0.172,0.384,0.385C13.751,16.337,13.578,16.512,13.368,16.512z"/></svg>