<svg xmlns="http://www.w3.org/2000/svg" enable-background="new 0 0 24 24" viewBox="0 0 24 24"><path fill="#209AE6" d="M4.711,20.5h14.579c2.589,0,4.711-2.092,4.711-4.674c0-2.14-1.488-4.023-3.598-4.535V11.29c0.117-0.466,0.164-0.942,0.164-1.418c0-3.512-2.883-6.371-6.422-6.371c-2.953,0-5.531,2.012-6.235,4.849C7.324,7.849,6.573,7.57,5.801,7.57C4.031,7.57,2.59,9,2.59,10.756c0,0.279,0.035,0.57,0.117,0.849C1.066,12.373,0,14.024,0,15.826C0,18.408,2.121,20.5,4.711,20.5z M15.316,8.999c0-0.325,0.269-0.593,0.586-0.593h1.09c0.317,0,0.586,0.267,0.586,0.593v8.523c0,0.314-0.269,0.581-0.586,0.581h-1.09c-0.317,0-0.586-0.267-0.586-0.581V8.999z M11.894,11.348c0-0.314,0.269-0.581,0.586-0.581h1.184c0.317,0,0.586,0.267,0.586,0.581v6.174c0,0.314-0.269,0.581-0.586,0.581H12.48c-0.317,0-0.586-0.267-0.586-0.581V11.348z M8.473,12.534c0-0.314,0.269-0.581,0.586-0.581h1.184c0.317,0,0.586,0.267,0.586,0.581v4.988c0,0.314-0.269,0.581-0.586,0.581H9.058c-0.317,0-0.586-0.267-0.586-0.581V12.534z M5.05,13.313c0-0.314,0.269-0.581,0.586-0.581H6.82c0.317,0,0.586,0.267,0.586,0.581v4.209c0,0.314-0.269,0.581-0.586,0.581H5.636c-0.317,0-0.586-0.267-0.586-0.581V13.313z"/></svg>