<svg xmlns="http://www.w3.org/2000/svg" enable-background="new 0 0 24 24" viewBox="0 0 24 24"><path fill="#28AE4F" d="M0.8,22.946C4.511,23.491,8.22,24,12.005,24c3.748,0,7.459-0.51,11.17-1.017c1.1-7.56,1.1-14.607,0-22.165h0.004c-7.646-1.091-14.773-1.091-22.379,0C-0.267,8.377-0.267,15.424,0.8,22.946z M12.378,13.637l-2.279-0.631c-2.416-0.66-3.557-1.891-3.557-3.855c0-2.365,1.83-4.256,5.619-4.256c1.99,0,3.973,0.545,5.07,1.092L16.28,8.963c-1.104-0.615-2.79-1.125-4.226-1.125c-1.365,0-1.95,0.436-1.95,1.092c0,0.619,0.404,0.87,1.291,1.092l2.488,0.734c2.566,0.736,3.707,1.966,3.707,3.885c-0.076,2.701-2.461,4.517-5.957,4.517l0.006-0.026c-2.055,0-4.226-0.689-5.179-1.199l0.807-3.126c1.064,0.705,2.682,1.395,4.446,1.395c1.395,0,2.24-0.436,2.24-1.305C13.953,14.282,13.518,13.922,12.378,13.637z"/></svg>