<svg xmlns="http://www.w3.org/2000/svg" enable-background="new 0 0 24 24" viewBox="0 0 24 24"><path fill="#3496E6" d="M22.977 14.025l.591.175c.268-.903.417-1.854.432-2.831l-.617.001C23.368 12.285 23.227 13.176 22.977 14.025zM.928 6.855l.564.261c.371-.825.854-1.598 1.428-2.302L2.45 4.407C1.838 5.152 1.331 5.964.938 6.834L.928 6.855zM20.743 4.433h.003c.607.675 1.125 1.425 1.538 2.228l.556-.275c-.436-.852-.981-1.645-1.631-2.366L20.743 4.433zM0 10.738l.616.03c.042-.923.209-1.816.488-2.662L.511 7.925C.214 8.835.042 9.778 0 10.738zM22.737 7.68c.314.828.522 1.703.605 2.61l.616-.061c-.088-.956-.306-1.892-.653-2.793L22.737 7.68zM5.793 2.33L5.465 1.801c-.7.422-1.353.914-1.949 1.473C3.413 3.368 3.315 3.465 3.215 3.563l.44.441.003.001C4.289 3.367 5.008 2.805 5.793 2.33zM11.995.616c.381 0 .752.02 1.122.052l.057-.614C12.783.019 12.393 0 11.997 0c-.571 0-1.138.036-1.695.109l.083.612.001-.001C10.912.655 11.45.616 11.995.616zM5.7 18.081H5.695l.235 3.042v.004c0 .017 0 .031.004.046v.006c.024.144.15.255.302.255.053 0 .1-.015.144-.035l.011-.008 2.903-1.674c.856.196 1.771.299 2.716.299 5.232 0 9.474-3.899 9.474-8.71 0-4.81-4.243-8.709-9.476-8.709l.004.001c-5.232 0-9.474 3.9-9.474 8.709C2.538 14.323 3.76 16.608 5.7 18.081zM16.663.877c-.764-.3-1.555-.524-2.36-.671l-.11.608c.917.165 1.789.436 2.616.795l.253-.567C16.928.986 16.797.93 16.663.877zM5.089 23.974C5.13 23.991 5.172 24 5.215 24c.043 0 .084-.009.123-.026l1.286-.563-.252-.562-.971.425-.333-1.025-.586.19.439 1.347C4.951 23.869 5.012 23.937 5.089 23.974zM9.866 22.222c.068.017.139.026.209.038l.129-.604c-.078-.016-.157-.027-.237-.041l-.466-.079c-.061-.009-.12 0-.172.023l-1.956.853.272.554 1.849-.803C9.619 22.184 9.745 22.204 9.866 22.222zM20.415 3.215V3.213c-.708-.649-1.488-1.207-2.334-1.673l-.312.541c.813.445 1.565.981 2.229 1.596L20.415 3.215zM4.023 19.223c-.232-.182-.45-.366-.661-.558l-.423.446c.194.184.409.362.631.541l.562 1.717.588-.184L4.129 19.37C4.109 19.31 4.072 19.261 4.023 19.223zM23.183 15.285l-.569-.236c-.35.833-.805 1.614-1.357 2.332l.496.369c.578-.758 1.063-1.586 1.427-2.465H23.183zM13.944 21.677l-.002-.001c-.634.104-1.284.156-1.946.156-.274 0-.526-.015-.774-.038l-.019.615c.252.024.512.04.793.04.7 0 1.386-.058 2.053-.166L13.944 21.677zM.003 11.88c.03 1.071.145 2.005.346 2.843l.595-.172C.756 13.755.65 12.875.62 11.88H.003zM17.535 20.488c-.788.413-1.635.738-2.527.967l.15.596c.947-.24 1.849-.591 2.692-1.03L17.535 20.488zM.678 15.807c.041.107.083.216.126.322.331.796.773 1.509 1.345 2.175l.461-.411c-.592-.691-1.039-1.449-1.358-2.315L.678 15.807zM20.552 18.21c-.613.651-1.313 1.229-2.075 1.728l.34.515c.808-.524 1.545-1.14 2.195-1.829L20.552 18.21zM9.189.308C8.557.449 7.936.637 7.332.877 7.034.994 6.745 1.122 6.463 1.258l.27.556c.813-.389 1.682-.698 2.592-.902L9.189.308z"/></svg>