<svg xmlns="http://www.w3.org/2000/svg" enable-background="new 0 0 24 24" viewBox="0 0 24 24"><path d="M4.5 24h15v-1.5H15v-6h1.5V15h-9v1.5H9v6H4.5V24zM10.5 16.5h3v6h-3V16.5zM14.922 6.078C14.965 4.42 13.656 3.043 12 3c-1.597.04-2.88 1.326-2.922 2.922C9.035 7.58 10.343 8.957 12 9 13.597 8.96 14.88 7.674 14.922 6.078zM13.5 6.002c0 .828-.672 1.5-1.5 1.5-.83 0-1.5-.673-1.5-1.502 0-.83.67-1.5 1.5-1.5.828 0 1.5.672 1.5 1.5V6.002z"/><path d="M12 0C8.688 0 6 2.688 6 6s2.688 6 6 6v-1.5c-2.484 0-4.5-2.016-4.5-4.5S9.516 1.5 12 1.5s4.5 2.016 4.5 4.5H18C18 2.688 15.312 0 12 0zM4.5 17.97V18c-.002 1.047.218 2.084.645 3.04h1.683C6.3 20.148 6 19.11 6 18v-.03H4.5z"/><path d="M18.855,21.04c0.423-0.954,0.642-1.987,0.643-3.03c0.003-4.144-3.352-7.505-7.494-7.51V12c1.066,0,2.113,0.286,3.033,0.826c2.858,1.678,3.816,5.355,2.138,8.214H18.855z"/></svg>