<svg xmlns="http://www.w3.org/2000/svg" enable-background="new 0 0 24 24" viewBox="0 0 24 24"><path d="M14.157,6.637l-2.406,2.291c-0.22,0.3-0.206,0.705,0.045,0.985l2.2,1.891H13.99l2.363,2.265c0.269,0.314,0.269,0.766-0.029,1.064l-6.376,6.075L12.853,24l8.65-8.238c0.662-0.633,0.664-1.659,0-2.295l0.002,0.003l-1.766-1.691L14.157,6.637z"/><path d="M2.497,8.238c-0.663,0.633-0.663,1.66,0,2.295H2.493l1.767,1.688l5.585,5.141l2.394-2.291c0.21-0.297,0.194-0.705-0.046-0.985l-2.199-1.902l0.01-0.005L7.639,9.913C7.361,9.599,7.37,9.133,7.66,8.834l6.375-6.076L11.148,0L2.497,8.238z"/></svg>