<svg xmlns="http://www.w3.org/2000/svg" enable-background="new 0 0 24 24" viewBox="0 0 24 24"><polygon points="4.394 8.77 4.728 2.643 .898 7.602 .898 7.603 0 8.77"/><path fill="#EA6C00" d="M4.86,8.885l7.139,13.973L0,8.885H4.86z" transform="translate(.17 30.901)"/><path fill="#EA6C00" d="M19.14,8.885l-7.139,13.973L24,8.885H19.14z" transform="matrix(-1 0 0 1 94.64 30.901)"/><path fill="#FDAD00" d="M4.86,8.885h14.278l-7.139,13.973L4.86,8.885z" transform="translate(19.3 30.901)"/><path fill="#FDD231" d="M11.999,1.142L5.236,1.857L4.86,8.885L11.999,1.142z" transform="translate(19.3 .42)"/><path fill="#FDD231" d="M11.999,1.142l6.763,0.715l0.376,7.029L11.999,1.142z" transform="matrix(-1 0 0 1 75.5 .42)"/><path fill="#FDAD00" d="M24,8.885l-5.236-7.029l0.376,7.029H24z" transform="matrix(-1 0 0 1 94.64 3.234)"/><path fill="#FDAD00" d="M0,8.885l5.236-7.029L4.86,8.885H0z" transform="translate(.17 3.234)"/><path fill="#FEEEB7" d="M11.999,1.142L4.86,8.885h14.278L11.999,1.142z" transform="translate(19.3 .42)"/></svg>