<svg xmlns="http://www.w3.org/2000/svg" enable-background="new 0 0 24 24" viewBox="0 0 24 24"><path fill="#B1B3B5" d="M2.714,13.242V3.385c0-1.632,0.416-2.144,1.91-2.144h14.892c1.415,0,1.915,0.608,1.915,2.144v9.548l1.151-0.795V2.331c0-1.289-0.97-2.331-2.163-2.331H3.593C2.4,0,1.431,1.042,1.431,2.331V12.44L2.714,13.242L2.714,13.242z"/><path fill="#008ED3" d="M12.316,15.055c0-0.837,0.386-1.397,1.584-1.337c1.729,0.054,5.127,0.446,8.958-2.29c0.717-0.5,1.187,0.181,0.747,0.831c-0.855,1.048-2.482,2.35-4.976,3.374c2.645,8.988-6.44,10.416-6.301,5.808C12.328,21.573,12.316,15.055,12.316,15.055L12.316,15.055z"/><path fill="#F6921E" d="M11.69,9.91c0,1.494-1.295,2.705-2.891,2.705S5.907,11.404,5.907,9.91c0-1.494,1.295-2.705,2.891-2.705C10.395,7.205,11.69,8.416,11.69,9.91L11.69,9.91z"/><path fill="#008ED3" d="M12.636,9.91c0,1.494,1.295,2.705,2.892,2.705c1.596,0,2.891-1.211,2.891-2.705c0-1.494-1.295-2.705-2.891-2.705C13.931,7.205,12.636,8.416,12.636,9.91L12.636,9.91z"/><path fill="#F6921E" d="M16.003,14.422c-1.253,1.723-2.747,1.403-4.5-0.223c-0.042-0.04-0.083-0.075-0.122-0.108c-0.243-0.264-0.649-0.405-1.282-0.374c-1.729,0.054-5.126,0.446-8.958-2.29c-0.717-0.5-1.187,0.181-0.747,0.831c0.856,1.048,2.482,2.35,4.976,3.374c-2.638,8.987,6.438,10.416,6.302,5.809c0-0.043,0.005-2.662,0.009-4.533c1.057,0.249,1.5,0.478,2.955,0.146c1.391-0.325,2.072-1.313,2.361-2.018C17.479,13.862,16.648,13.531,16.003,14.422z"/></svg>