<svg xmlns="http://www.w3.org/2000/svg" enable-background="new 0 0 24 24" viewBox="0 0 24 24"><path fill="#EF4D37" d="M23.951,17.866L20.005,1.362c-0.228-0.953-1.185-1.541-2.139-1.313l-3.399,0.813c0.867,0.137,2.583,0.512,4.474,1.504l-1.48,4.102c0,0-1.232-1.376-4.535-1.543c-3.14-0.159-4.887,3.238,1.238,5.241c4.689,1.533,6.189,4.489,6.111,7.222c-0.041,1.421-0.538,2.577-1.114,3.449l3.478-0.831C23.591,19.777,24.179,18.819,23.951,17.866L23.951,17.866z M10.652,13.677c-3.188-1.205-5.867-3.356-6.044-6.155c-0.113-1.786,0.336-3.346,1.499-4.66L1.362,3.995C0.409,4.223-0.179,5.181,0.049,6.134l3.946,16.504c0.228,0.953,1.185,1.541,2.138,1.313l2.031-0.486c-0.788-0.261-2.151-0.759-3.458-1.455l1.894-4.296c0,0,2.228,1.985,5.429,1.985C15.23,19.699,16.652,15.943,10.652,13.677L10.652,13.677z"/><radialGradient id="a" cx="-63.987" cy="-512.391" r=".006" gradientTransform="matrix(2162.4089 0 0 -1569.8112 138376.406 -804350.813)" gradientUnits="userSpaceOnUse"><stop offset="0" stop-color="#f8953e"/><stop offset="1" stop-color="#f36e3e"/></radialGradient><path fill="url(#a)" d="M4.607,7.521C4.51,5.984,4.828,4.614,5.659,3.424L1.465,4.427C0.752,4.598,0.31,5.317,0.48,6.031l2.268,9.483c0.715-0.883,2.431-2.7,4.91-3.381C5.933,10.936,4.725,9.37,4.607,7.521L4.607,7.521z M19.573,1.465c-0.171-0.713-0.89-1.155-1.604-0.985l-2.467,0.59c1.195,0.29,2.349,0.725,3.438,1.295l-1.48,4.102c0,0-1.232-1.376-4.535-1.543c-3.14-0.159-4.887,3.238,1.238,5.241c1.604,0.525,2.835,1.216,3.757,2.008c0.036-0.012,0.072-0.023,0.107-0.036c1.192-0.436,2.337-1.996,3.176-3.856L19.573,1.465L19.573,1.465z"/></svg>