<svg xmlns="http://www.w3.org/2000/svg" enable-background="new 0 0 24 24" viewBox="0 0 24 24"><path d="M23.999,11.912c0,0.029-0.003,0.059-0.003,0.088v0L23.999,11.912z"/><path fill="#9181AD" d="M24,12.002c-0.033-5.019-3.13-9.617-8.053-11.332C14.771,0.245,13.412,0,11.997,0c-0.028,0-0.056,0-0.084,0l0.088,0.003l-0.002,0.009C10.211,0.027,8.55,0.408,7.035,1.103c3.639,2.026,6.956,5.635,8.934,8.242c0.398,0.534,0.753,1.006,1.078,1.434l0.004-0.019c0.412-1.738-0.313-5.24-1.518-7.332c-0.117-0.203-0.201-0.379-0.187-0.392l0.006,0.002l0.002-0.007c0.098,0.024,1.031,0.995,1.373,1.433c0.599,0.767,0.832,1.213,1.162,2.23c0.858,2.645,1.424,4.802,1.901,7.25c0.239,1.228,0.675,3.459,0.731,3.885c0.007,0.057-0.009,0.128-0.01,0.143c-0.09-0.089-0.185-0.175-0.282-0.258l-0.008-0.006c-0.645-0.568-1.924-1.417-3.184-2.114c-1.57-0.87-3.118-1.614-6.576-3.163c-3.157-1.413-4.611-2.086-5.752-2.661l-1.024-0.51c0.12,0.301,0.249,0.624,0.399,1.005c0,0,1.933,1.08,2.174,1.408c0,0,2.322,4.368,3.354,6.956c0.767,1.949,1.634,4.265,2.155,4.905l0.06,0.069c-1.026-0.251-5.746-2.598-5.746-2.598c-0.518-4.4-1.969-9.612-3.856-14.943C2.201,6.017,2.159,5.928,2.119,5.838L2.101,5.792c0.001-0.015,0.141,0.121,0.311,0.303c1.901,2.037,5.957,3.888,10.265,4.683c0.841,0.152,1.81,0.239,2.799,0.239c0.246,0,0.491-0.006,0.735-0.017c-0.307-0.392-0.64-0.821-1.009-1.302c-3.419-4.456-6.775-6.327-9.782-7.47C5.342,2.199,5.267,2.166,5.19,2.139C3.113,3.578,1.536,5.61,0.696,7.989L0.67,8.072C0.245,9.249,0,10.607,0,12.022c0,0.023,0,0.044,0,0.067l0.003-0.088c0.033,5.019,3.13,9.618,8.053,11.332C9.363,23.788,10.694,24,12.002,24c5.019-0.033,9.617-3.13,11.331-8.053C23.788,14.641,24,13.31,24,12.002z M21.107,9.843c0,0-1.378-1.305-2.141-2.153c-0.293-0.326-0.32-0.38-0.478-0.628c-0.062-0.097-0.275-0.825-0.354-0.935h-0.001l0.002-0.007l-0.001,0.004c0.531,0.511,1.376,1.503,2.336,2.062c0.789,0.99,1.216,1.963,1.748,2.629C21.999,10.627,21.107,9.843,21.107,9.843z"/><polygon points="7.03 1.105 7.035 1.103 7.035 1.103"/><path d="M16.248,10.999c-0.012,0-0.024,0-0.036,0.001l0,0L16.248,10.999z"/></svg>