<svg xmlns="http://www.w3.org/2000/svg" enable-background="new 0 0 24 24" viewBox="0 0 24 24"><path fill="#E82F25" d="M8.824,7.751c0,0-1.195-0.48-2.598,0.046C4.96,8.27,3.922,9.309,4.005,11.92V24c0,0,1.305-1.602,2.84-3.236c1.716-1.84,2.499-3.083,4.263-2.938c3.338,0.207,5.752-1.274,7.393-3.646c3.15-4.562,0.683-9.66-1.433-10.344c0.001,0.003,0.34,1.441-0.748,1.64c-0.756,0.133-1.979-0.617-2.594-1.363c-0.76-0.922-0.662-1.649-0.075-2.29c0.886-0.98,2.406-0.6,2.406-0.6s-2.782-2.43-5.677-0.438c-2.578,1.77-1.837,4.181,0.489,6.286c2.096,1.902,0.423,3.989-1.693,3.72C7.732,10.607,7.14,9.446,7.484,8.735C7.785,8.125,8.824,7.751,8.824,7.751z"/><polygon points="17.028 3.835 17.029 3.836 17.029 3.835"/></svg>