<svg xmlns="http://www.w3.org/2000/svg" enable-background="new 0 0 24 24" viewBox="0 0 24 24"><path fill="#F35A26" d="M20.564,3.797c-4.239-4.724-11.51-5.09-16.239-0.816S-0.803,14.55,3.436,19.274c4.929,5.493,14.102,5.449,18.483,3.616c1.174-0.492-3.243-1.896-2.244-2.8C24.405,15.816,24.803,8.521,20.564,3.797z M15.211,11.025c1.43,0.904,1.556,2.185,1.541,3.032c-0.075,4.356-4.676,4.348-5.222,4.339c-1.308-0.023-2.954-0.323-4.457-1.77l2.133-2.282c0.928,1.294,2.382,1.316,2.542,1.319c0.65,0.011,2.041-0.232,2.06-1.371c0.03-1.648-2.75-1.652-4.589-2.8c-1.554-0.97-1.581-2.33-1.57-2.937c0.049-2.767,2.372-4.332,5.166-4.283c2.356,0.041,3.553,1.002,4.066,1.479l-2.056,2.189l-0.001-0.001c-0.694-0.917-2.092-0.93-2.115-0.93c-0.351-0.006-1.982,0.107-2.003,1.353C10.677,9.983,13.377,9.866,15.211,11.025z"/></svg>