<svg xmlns="http://www.w3.org/2000/svg" enable-background="new 0 0 24 24" viewBox="0 0 24 24"><path fill="#E2BE13" d="M17.236,11.216c0.394-0.554,0.685-0.876,0.685-1.456c0-0.952-1.131-1.65-1.945-2.135c-1.951,4.51-6.331,10.125-8.739,12.587C10.633,17.909,15.567,13.575,17.236,11.216z"/><path fill="#E2BE13" d="M11.831 4.81c.024 2.721-.936 9.101-1.997 11.874 2.35-2.967 4.198-6.454 4.198-8.958C14.032 6.419 13.077 5.504 11.831 4.81zM2 .003c2.456 2.66 6.097 7.935 7.364 9.825C8.336 7.099 5.772 1.412 2 .003z"/><path fill="#E2BE13" d="M9.952 5.38C9.647 4.206 8.568 2.88 7.57 2.467c1.308 3.643 2.432 8.832 2.761 11.355C10.771 10.975 10.512 7.537 9.952 5.38zM21.171 14.216C21.637 13.901 22 13.608 22 13.097c0-.889-1.659-2.08-2.464-2.555C15.167 14.998 6.472 21.677 2.129 23.997H2.13C7.636 22.19 15.619 17.977 21.171 14.216z"/></svg>