<svg xmlns="http://www.w3.org/2000/svg" enable-background="new 0 0 24 24" viewBox="0 0 24 24"><path fill="#1C8CF2" d="M24,22.46V1.54C24,0.69,23.354,0,22.557,0H1.444C0.647,0,0,0.69,0,1.54v20.92C0,23.311,0.647,24,1.444,24h21.113C23.354,24,24,23.311,24,22.46z M18.736,20.509h-0.002c-1.34,0-2.473-0.891-2.842-2.134h-2.69l-0.015,0.009l-3.208-5.52H8.018c-0.284,0.972-1.044,1.734-2.017,2.017c-1.57,0.457-3.215-0.446-3.673-2.017c-0.457-1.571,0.446-3.215,2.017-3.673s3.216,0.445,3.673,2.016h1.917l3.252-5.594l0.026,0.016h2.665l0.005-0.021c0.285-0.954,1.038-1.706,2.013-1.996c1.57-0.457,3.215,0.446,3.672,2.017c0.458,1.571-0.446,3.216-2.017,3.673s-3.216-0.446-3.673-2.017H14.13l-2.736,4.709l-0.002,0.004l2.742,4.721h1.758c0.367-1.264,1.527-2.134,2.844-2.134c1.635,0,2.961,1.326,2.961,2.962C21.697,19.183,20.372,20.509,18.736,20.509z"/><path fill="#1C8CF2" d="M18.764 15.928c-.743.002-1.381.526-1.527 1.254-.004.029-.004.057-.007.085-.004.017-.015.029-.018.046-.041.301 0 .602 0 .602.173.842.995 1.383 1.837 1.209.573-.118 1.005-.548 1.164-1.088.065-.172.105-.356.105-.551C20.318 16.626 19.621 15.928 18.764 15.928zM5.2 10.417c-.858 0-1.556.698-1.556 1.557 0 .006.002.012.002.018 0 .003-.001.005-.001.008.001.854.693 1.547 1.548 1.548.541-.001 1.015-.278 1.292-.698.171-.249.272-.551.272-.875C6.757 11.115 6.059 10.417 5.2 10.417zM18.734 7.951h.007c.003 0 .006.001.009.001.86 0 1.557-.698 1.557-1.556S19.609 4.84 18.75 4.84h-.002c-.005 0-.009-.001-.014-.001-.754 0-1.384.54-1.525 1.254v.01c0 0-.035.32 0 .594C17.354 7.425 17.992 7.95 18.734 7.951z"/></svg>