<svg xmlns="http://www.w3.org/2000/svg" enable-background="new 0 0 24 24" viewBox="0 0 24 24"><polygon points="10.042 .05 10.056 .052 10.064 .053"/><polygon points="19.147 2.597 19.147 2.597 19.147 2.596"/><path fill="#194E96" d="M3.979,2.596C3.741,2.478,0.75,4.966,0.75,6.798C0.746,9.3,4.24,14.969,4.826,17.16c0.507,1.883-0.857,4.139-0.483,4.244c0.343,0.22,3.601-3.102,3.729-4.519C8.236,14.63,4.267,8.053,3.951,6.356C3.585,4.374,4.241,2.641,3.979,2.596z"/><path fill="#489DEC" d="M11.443,0.005c-0.3-0.15-4.117,3.021-4.117,5.359c-0.003,3.192,4.451,10.421,5.201,13.217c0.645,2.398-1.094,5.275-0.618,5.406c0.438,0.283,4.593-3.951,4.758-5.76c0.208-2.877-4.855-11.261-5.258-13.431C10.94,2.276,11.777,0.063,11.443,0.005z"/><path fill="#194E96" d="M19.124,6.357c-0.367-1.98,0.289-3.71,0.024-3.76c-0.238-0.112-3.226,2.372-3.226,4.202C15.917,9.3,19.41,14.969,20,17.161c0.505,1.883-0.859,4.139-0.485,4.244c0.344,0.22,3.606-3.102,3.73-4.52C23.409,14.631,19.44,8.054,19.124,6.357z"/></svg>