<svg xmlns="http://www.w3.org/2000/svg" enable-background="new 0 0 24 24" viewBox="0 0 24 24"><rect width="1.673" height="5.805" x="11.319" y="9.242" fill="#646FDE"/><path fill="#646FDE" d="M4.226,13.355c0-2.005-2.547-1.644-2.547-2.403l0.001,0.002c0-0.262,0.218-0.364,0.567-0.368c0.506,0,1.151,0.155,1.658,0.432V9.434c-0.551-0.22-1.103-0.307-1.654-0.307C0.9,9.127,0,9.839,0,11.029c0,1.864,2.532,1.561,2.532,2.365c0,0.31-0.266,0.413-0.638,0.413c-0.551,0-1.264-0.231-1.823-0.538v1.516c0.619,0.268,1.245,0.382,1.819,0.382C3.274,15.166,4.226,14.567,4.226,13.355z"/><polygon fill="#646FDE" points="11.314 8.732 12.987 8.372 12.987 7 11.314 7.36"/><path fill="#646FDE" d="M16.468 9.129c-.653 0-1.073.31-1.305.527l-.086-.417H13.61V17l1.665-.357.004-1.902c.24.178.596.425 1.178.425 1.193 0 2.28-.879 2.28-3.016C18.741 10.194 17.639 9.129 16.468 9.129zM16.071 13.77L16.071 13.77c-.391.001-.622-.143-.784-.318l-.011-2.501c.173-.193.413-.334.795-.334.607 0 1.027.69 1.027 1.569C17.103 13.092 16.69 13.77 16.071 13.77zM21.592 9.129c-1.583 0-2.547 1.36-2.547 3.074 0 2.027 1.136 2.964 2.757 2.964.795 0 1.391-.182 1.845-.436v-1.266c-.454.231-.975.371-1.635.371-.649 0-1.219-.231-1.294-1.019h3.259c.007-.087.022-.44.022-.602H24C24 10.49 23.175 9.129 21.592 9.129zM20.703 11.577c0-.758.462-1.076.878-1.076.409 0 .844.319.844 1.076H20.703zM7.452 10.675V9.242H6.188L6.184 7.783 4.559 8.132l-.007 5.396c0 .997.743 1.641 1.729 1.641.548 0 .949-.103 1.171-.224v-1.281c-.214.087-1.264.398-1.264-.595v-2.395H7.452zM10.917 10.789V9.243c-.225-.08-1.001-.227-1.391.496L9.424 9.243h-1.44v5.805h1.662v-3.907C10.04 10.618 10.704 10.721 10.917 10.789z"/></svg>