<svg xmlns="http://www.w3.org/2000/svg" enable-background="new 0 0 24 24" viewBox="0 0 24 24"><path d="M7.963,0.26c0.036-0.006,0.072-0.007,0.108-0.013C8.076,0.246,8.08,0.245,8.085,0.244L7.963,0.26z"/><polygon points="23.145 3 23.14 3.001 23.146 3.001"/><path fill="#7D98C4" d="M23.14 3.25H0v6.323c3.244-1.353 7.587-2.72 13.031-4.095C16.516 4.599 19.887 3.855 23.14 3.25zM15.509 6.286c-2.85.72-5.16 1.454-6.9 2.189-1.74.72-2.55 1.319-2.445 1.77.105.404.832.584 2.195.554.697-.014 1.834-.09 3.41-.24 1.573-.135 3.603-.345 6.093-.615C20.32 9.687 22.365 9.51 24 9.41V4.599l-.001.038C20.849 5.102 18.014 5.656 15.509 6.286zM0 20.705v.045h24v-6.304c-3.285 1.296-7.362 2.555-12.23 3.785C7.236 19.375 3.312 20.2 0 20.705zM16.977 15.063c1.602-.703 2.34-1.297 2.22-1.779-.107-.42-.846-.635-2.217-.645-.703.01-1.67.06-2.904.15-1.236.09-2.774.234-4.61.426-2.85.304-5.216.537-7.1.694C1.47 13.983.681 14.04 0 14.078v5.13c3.738-.55 7.116-1.205 10.13-1.966C13.092 16.494 15.375 15.768 16.977 15.063zM1.195 17.43c-.047.045-.104.066-.164.066-.032 0-.064-.006-.092-.018-.03-.012-.054-.03-.075-.05-.023-.014-.04-.044-.05-.074 0-.015-.016-.045-.016-.09 0-.06.03-.12.075-.165.045-.045.105-.06.18-.06l-.018-.013c.06 0 .114.025.16.07.046.046.07.103.07.166C1.265 17.328 1.241 17.382 1.195 17.43zM1.195 15.916c-.046.045-.1.07-.164.07-.065 0-.122-.024-.167-.07-.045-.045-.07-.102-.07-.165 0-.067.016-.123.06-.168.044-.045.106-.068.166-.068l.015.001c.06 0 .114.022.16.07.046.045.07.1.07.165C1.265 15.817 1.241 15.871 1.195 15.916zM2.009 17.43c-.06.045-.106.066-.18.066-.03 0-.06-.006-.09-.018-.03-.012-.06-.03-.076-.05-.03-.014-.045-.044-.06-.074-.015-.015-.015-.045-.015-.09 0-.06.014-.12.06-.165.046-.045.104-.06.164-.06l.033-.013c.063 0 .117.025.165.07.045.046.066.103.066.166C2.076 17.328 2.054 17.382 2.009 17.43zM2.009 15.916c-.06.045-.106.07-.18.07-.074 0-.12-.024-.166-.07-.045-.045-.075-.102-.075-.165 0-.067.014-.123.06-.168.046-.045.104-.068.164-.068l.033.001c.063 0 .117.022.165.07.045.045.066.1.066.165C2.076 15.817 2.054 15.871 2.009 15.916z"/></svg>