<svg xmlns="http://www.w3.org/2000/svg" enable-background="new 0 0 24 24" viewBox="0 0 24 24"><path d="M24,0c-4.463,0.59-8.936,1.178-13.393,1.768c-4.929,0.67-8.748,4.644-9.053,9.643c-0.177,2.974,0.965,5.866,3.096,7.939L0,24c4.463-0.59,8.92-1.178,13.381-1.768c4.917-0.67,8.748-4.65,9.037-9.632c0.187-2.973-0.965-5.866-3.091-7.939l4.671-4.66L24,0z M19.731,12.444c-0.225,4.259-3.964,7.457-8.186,7.205c-4.259-0.251-7.537-3.803-7.301-8.089c0.241-4.243,3.98-7.463,8.196-7.205C16.687,4.607,19.966,8.158,19.731,12.444z"/></svg>