<svg xmlns="http://www.w3.org/2000/svg" enable-background="new 0 0 24 24" viewBox="0 0 24 24"><path d="M12,0C5.372,0,0,5.372,0,12s5.372,12,12,12s12-5.372,12-12S18.628,0,12,0z M18.472,6.944c-0.557,0.02-0.94-0.312-0.957-0.816c-0.006-0.192,0.053-0.382,0.168-0.537c0.125-0.241,0.15-0.27,0.147-0.375c-0.011-0.317-0.491-0.33-0.623-0.323c-1.802,0.06-2.275,2.491-2.661,4.467l-0.188,1.042c1.038,0.152,1.774-0.034,2.184-0.3c0.578-0.376-0.162-0.761-0.068-1.189c0.088-0.376,0.42-0.645,0.806-0.654c0.44-0.011,0.754,0.446,0.744,0.91c-0.015,0.766-1.032,1.82-3.064,1.776c-0.249-0.006-0.477-0.024-0.69-0.048l-0.383,2.116c-0.344,1.605-0.801,3.795-2.434,5.706c-1.402,1.668-2.826,1.928-3.464,1.949c-1.193,0.041-1.984-0.594-2.012-1.444c-0.027-0.821,0.699-1.269,1.176-1.286c0.638-0.021,1.078,0.441,1.094,0.973c0.018,0.45-0.218,0.591-0.372,0.674c-0.105,0.082-0.261,0.169-0.255,0.353c0.003,0.081,0.089,0.262,0.355,0.257c0.503-0.018,0.839-0.268,1.073-0.434c1.161-0.969,1.609-2.656,2.194-5.726l0.123-0.746c0.199-0.999,0.421-2.112,0.759-3.222c-0.818-0.617-1.309-1.38-2.412-1.68c-0.754-0.205-1.215-0.03-1.539,0.379C7.79,9.249,7.916,9.881,8.287,10.251l0.612,0.677c0.751,0.865,1.159,1.54,1.006,2.447c-0.244,1.448-1.969,2.56-4.009,1.932c-1.743-0.536-2.069-1.769-1.86-2.449c0.186-0.596,0.66-0.709,1.125-0.566c0.498,0.153,0.692,0.758,0.551,1.223c-0.018,0.048-0.043,0.132-0.095,0.242c-0.058,0.128-0.165,0.241-0.21,0.391c-0.114,0.364,0.386,0.624,0.734,0.73c0.781,0.238,1.539-0.168,1.732-0.799c0.18-0.578-0.189-0.984-0.339-1.138l-0.737-0.79c-0.338-0.375-1.079-1.424-0.719-2.6c0.151-0.497,0.451-0.935,0.861-1.254c0.798-0.619,1.847-0.811,2.813-0.514c1.207,0.347,1.786,1.147,2.539,1.761c0.42-1.232,1.003-2.441,1.881-3.461c0.792-0.929,1.855-1.602,3.075-1.644c1.218-0.038,2.138,0.512,2.17,1.386C19.427,6.196,19.215,6.921,18.472,6.944z"/></svg>