<svg xmlns="http://www.w3.org/2000/svg" enable-background="new 0 0 24 24" viewBox="0 0 24 24"><g fill="#212121"><path d="m12.379 0c.587.126.287.01 9.181 5.114.284.184.618.367.758.69.088.312-.19.611-.507.564-5.067.005-10.134-.002-15.203.004-.931.008-1.766.776-1.884 1.69-.175 1.084.735 2.176 1.833 2.224 1.007.02 2.017-.005 3.024.008.694-.01 1.313.623 1.296 1.313.039.419-.207.776-.391 1.128-4.345 8.297-4.009 7.706-4.172 7.888-.215.206-.561.173-.794.015-1.078-.626-2.166-1.235-3.24-1.868-.587-.331-.982-.943-1.031-1.615v-10.397c.089-.659.499-1.241 1.071-1.574 11.323-6.525 8.409-4.933 10.059-5.184z"/><path d="m14.966 12.634c.723-1.413 2.275-2.364 3.87-2.343 1.304.005 2.608 0 3.914.003 0 7.096.109 7.222-.328 7.837-.391.555-.237.377-8.818 5.303-.408.236-.824.485-1.298.566h-.627c-.779-.17-1.412-.678-2.108-1.033 1.783-3.453 3.602-6.887 5.395-10.333z"/></g></svg>