<svg xmlns="http://www.w3.org/2000/svg" enable-background="new 0 0 24 24" viewBox="0 0 24 24"><polygon fill="#E02A24" points="15.255 9.927 15.255 7.75 7.945 7.75 7.945 16.25 15.255 16.25 15.255 14.069 10.617 14.069 10.617 13.011 15.255 13.011 15.255 10.988 10.617 10.988 10.617 9.927"/><path fill="#E02A24" d="M20.089,7.75h-4.384v8.499h3.861c3.025,0,4.434-1.657,4.434-4.265C24,9.843,22.98,7.75,20.089,7.75z M19.421,14.073h-1.046l-0.016,0.001V9.928h0.854c1.936,0,2.115,1.488,2.115,2.022C21.328,12.748,21.085,14.073,19.421,14.073z"/><polygon fill="#E02A24" points="2.431 16.249 5.1 16.249 5.1 9.927 7.53 9.927 7.53 7.75 0 7.75 0 9.927 2.431 9.927"/></svg>