<svg xmlns="http://www.w3.org/2000/svg" enable-background="new 0 0 24 24" viewBox="0 0 24 24"><path fill="#3BA4DB" d="M2.606,10.855l0.049-0.029c0.469-0.269,0.946-0.523,1.435-0.777C4.576,9.795,5.069,9.57,5.573,9.347l0.094-0.045l0.09-0.044l2.073,8.561l0.045-0.03l0.75-0.389c0.236-0.119,0.463-0.209,0.682-0.299c0.281-0.119,0.544-0.209,0.799-0.313c0.251-0.09,0.498-0.164,0.753-0.224c0.455-0.135,0.916-0.225,1.385-0.299c0.469-0.07,0.939-0.105,1.41-0.105h0.226c0.09,0,0.165,0,0.24,0.016c0.224,0,0.465,0.021,0.734,0.06c0.286,0.03,0.556,0.104,0.811,0.194c0.136,0.045,0.24,0.104,0.33,0.164c0.09,0.06,0.181,0.135,0.255,0.209c0.09,0.076,0.151,0.165,0.181,0.27c0.044,0.105,0.06,0.217,0.06,0.344c0,0.245-0.075,0.469-0.24,0.663c-0.15,0.195-0.3,0.369-0.465,0.509c-0.106,0.074-0.226,0.147-0.331,0.209l-0.284,0.163c-0.119,0.061-0.226,0.12-0.345,0.18c-0.104,0.045-0.225,0.105-0.359,0.15c-0.237,0.089-0.478,0.178-0.725,0.254c-0.249,0.083-0.51,0.148-0.795,0.209c-0.282,0.056-0.563,0.089-0.834,0.13c-0.272,0.045-0.533,0.06-0.788,0.06H10.72c-0.063,0-0.126-0.005-0.191-0.021c-0.074,0-0.146-0.015-0.21-0.015c-0.06,0-0.12-0.014-0.181-0.029V19.85l-0.134-0.031c-0.021-0.014-0.046-0.014-0.06-0.014c0.033-0.046,0.074-0.09,0.119-0.12c0.045-0.03,0.09-0.06,0.12-0.089c0.045-0.031,0.095-0.062,0.15-0.091c0.056-0.029,0.112-0.06,0.176-0.09c0.112-0.058,0.227-0.104,0.351-0.149c0.125-0.059,0.26-0.104,0.406-0.148c0.231-0.076,0.48-0.149,0.749-0.195c0.266-0.044,0.541-0.09,0.821-0.12c0.125-0.014,0.255-0.014,0.391-0.029c0.133-0.015,0.269-0.015,0.408-0.015h0.436c0.006,0,0.02,0.014,0.035,0.029h0.014c0.165-0.044,0.42-0.163,0.795-0.358c0.375-0.179,0.614-0.433,0.75-0.747l0.029-0.029l-0.044-0.029l-0.015-0.016c0,0-0.015-0.016-0.031-0.016h-0.014l-0.166-0.059c-0.06-0.016-0.135-0.046-0.21-0.061c-0.121-0.029-0.24-0.045-0.375-0.074c-0.135-0.031-0.269-0.045-0.404-0.061l-0.451-0.044h-0.449c-0.136,0-0.255,0-0.376,0.015c-0.119,0-0.24,0.014-0.344,0.029c-0.314,0.016-0.599,0.046-0.87,0.09c-0.269,0.045-0.524,0.105-0.75,0.164c-0.284,0.075-0.555,0.165-0.794,0.239c-0.255,0.075-0.48,0.18-0.691,0.284c-0.255,0.135-0.479,0.284-0.66,0.448c-0.18,0.165-0.33,0.344-0.435,0.539c-0.106,0.208-0.166,0.431-0.166,0.656c-0.015,0.239,0.045,0.448,0.15,0.628c0.09,0.21,0.24,0.373,0.45,0.508c0.21,0.133,0.451,0.239,0.735,0.314c0.194,0.043,0.39,0.089,0.615,0.104c0.209,0.03,0.449,0.03,0.704,0.03h0.151c0.27-0.015,0.539-0.045,0.81-0.076c0.268-0.029,0.539-0.074,0.824-0.119c0.255-0.044,0.524-0.106,0.795-0.179c0.27-0.06,0.525-0.149,0.78-0.239c0.27-0.09,0.526-0.195,0.765-0.299c0.24-0.106,0.465-0.209,0.676-0.343l0.104-0.047c0.029-0.015,0.059-0.029,0.074-0.044l0.119-0.09v0.225c-0.014,0.119-0.044,0.225-0.088,0.329c-0.046,0.105-0.121,0.208-0.196,0.298c-0.119,0.149-0.27,0.3-0.45,0.449s-0.39,0.283-0.646,0.418c-0.225,0.104-0.451,0.21-0.691,0.283c-0.241,0.09-0.495,0.165-0.765,0.239c-0.27,0.075-0.524,0.133-0.795,0.195c-0.255,0.058-0.526,0.103-0.81,0.148c-0.045,0-0.089,0.015-0.15,0.015h-0.181l-0.06,0.046h-0.15l-0.03,0.015h-0.045v0.016L11.25,24l0.254-0.028l0.391-0.015c0.134-0.016,0.269-0.046,0.42-0.076c0.615-0.106,1.171-0.24,1.68-0.389c0.494-0.149,0.959-0.328,1.38-0.553c0.539-0.268,0.991-0.567,1.349-0.912c0.345-0.342,0.6-0.715,0.766-1.149c0.089-0.254,0.15-0.523,0.18-0.808c0.03-0.267,0.016-0.523-0.045-0.777c0-0.058-0.014-0.133-0.029-0.192l-0.09-0.195l-0.015-0.029v-0.029l-0.03-0.062c-0.015-0.015-0.015-0.029-0.015-0.044s0-0.03,0.015-0.045l0.045-0.045c0-0.014,0-0.029,0.016-0.029c0.015,0,0.015-0.015,0.015-0.03c0.074-0.106,0.134-0.224,0.194-0.344c0.046-0.104,0.09-0.224,0.12-0.358c0.06-0.24,0.09-0.493,0.09-0.762c-0.014-0.269-0.06-0.509-0.15-0.747c-0.09-0.225-0.226-0.434-0.375-0.628c-0.165-0.195-0.359-0.359-0.585-0.509c-0.195-0.149-0.42-0.253-0.66-0.357c-0.255-0.09-0.525-0.179-0.81-0.24c-0.24-0.045-0.494-0.075-0.765-0.104c-0.286-0.024-0.571-0.04-0.855-0.04c-0.549,0-1.097,0.04-1.645,0.104c-0.547,0.07-1.081,0.176-1.597,0.317c-0.271,0.078-0.545,0.167-0.84,0.269c-0.289,0.1-0.597,0.221-0.928,0.363L6.67,7.326H6.626C6.13,7.52,5.624,7.729,5.126,7.938C4.623,8.162,4.128,8.386,3.64,8.64C3.563,8.67,3.489,8.715,3.428,8.745L3.23,8.85L1.67,5.441l0.037-0.029l0.088-0.044c0.016,0,0.026,0,0.026-0.016V5.338c0.235-0.12,0.465-0.24,0.693-0.374L3.204,4.59c0.453-0.238,0.917-0.463,1.382-0.672c0.47-0.209,0.949-0.404,1.435-0.568l0.721-0.269L7.46,2.827C7.569,3.006,7.684,3.171,7.794,3.32c0.12,0.15,0.255,0.299,0.421,0.434C8.51,4.037,8.843,4.277,9.211,4.471C9.577,4.665,9.968,4.8,10.373,4.874c0.142,0.03,0.285,0.045,0.436,0.059c0.15,0.016,0.294,0.016,0.436,0.016c0.264,0,0.524-0.029,0.779-0.074c0.264-0.045,0.519-0.12,0.765-0.21c0.359-0.134,0.698-0.313,1.005-0.538c0.314-0.223,0.596-0.477,0.847-0.777c0.108-0.165,0.213-0.313,0.315-0.478c0.102-0.149,0.2-0.313,0.297-0.493c0.03-0.09,0.063-0.179,0.104-0.283c0.041-0.09,0.07-0.195,0.086-0.284l0.043-0.14l0.045-0.148c0.015-0.029,0.015-0.06,0.015-0.09h0.795c0.436,0,0.877,0.015,1.305,0.03c0.439,0.015,0.87,0.044,1.29,0.09c0.551,0.044,1.095,0.105,1.634,0.179c0.541,0.09,1.082,0.179,1.606,0.283l0.12,0.046c0.03,0.015,0.051,0.015,0.066,0.015l-0.75,3.691c-0.045-0.03-0.119-0.03-0.211-0.046c-0.089,0-0.179-0.014-0.255-0.03C21.091,5.679,21.036,5.663,21,5.663h-0.091l-0.406-0.045l-0.421-0.044c-0.27-0.03-0.539-0.059-0.809-0.075l-0.825-0.045c-0.136,0-0.285,0-0.42-0.016c-0.136-0.014-0.271-0.014-0.391-0.014h-0.119l-0.345,8.203l0.015,0.029c0.015,0.016,0.029,0.016,0.045,0.016l0.165,0.09l0.18,0.089c0.105,0.06,0.211,0.135,0.33,0.21c0.104,0.075,0.195,0.149,0.285,0.223c0.029,0.016,0.059,0.046,0.075,0.061c0.014,0.03,0.044,0.045,0.074,0.061c0,0.015,0,0.029,0.016,0.045c0.015,0.014,0.028,0.014,0.044,0.014l0.015,0.016c0,0.014,0.016,0.014,0.016,0.03l0.069,0.12l0.375-7.861c0.533,0.031,1.065,0.075,1.6,0.135c0.53,0.061,1.07,0.135,1.619,0.225c0.075,0,0.147,0,0.21,0.015c0.065,0.016,0.134,0.03,0.216,0.044h0.044c0.059,0.016,0.095,0.016,0.104,0.016h0.059V7.176L24,1.024c0-0.034-0.008-0.052-0.023-0.061c-0.014-0.007-0.041-0.011-0.07-0.011l0.037,0.005l-0.029-0.015c-0.015,0-0.03-0.016-0.045-0.016h-0.016c-0.044-0.03-0.104-0.044-0.165-0.059l-0.181-0.045l-0.089-0.03l-0.045-0.015c-0.51-0.135-1.005-0.239-1.517-0.329c-0.51-0.089-1.02-0.164-1.544-0.224c-0.538-0.06-1.08-0.119-1.619-0.15c-0.54-0.029-1.08-0.058-1.635-0.074h-0.645c-0.345,0-0.675,0-1.021,0.015l-1.02,0.044l-0.045,0.015c0.076,0.449,0.031,0.897-0.104,1.315c-0.12,0.419-0.345,0.792-0.646,1.12c-0.265,0.286-0.574,0.508-0.925,0.688c-0.353,0.179-0.72,0.284-1.095,0.314c-0.046,0-0.089,0-0.126,0.016c-0.045,0-0.089,0.014-0.136,0.014c-0.374,0-0.749-0.074-1.109-0.209C9.825,3.184,9.51,2.988,9.225,2.75C9.001,2.525,8.805,2.286,8.64,2.018C8.476,1.734,8.37,1.449,8.295,1.136V1.09L8.249,1.121C7.725,1.256,7.215,1.42,6.72,1.6c-0.495,0.164-0.99,0.343-1.5,0.537C4.755,2.316,4.276,2.525,3.795,2.75C3.33,2.959,2.865,3.184,2.401,3.422C2.175,3.541,1.966,3.676,1.725,3.795C1.5,3.915,1.275,4.05,1.058,4.169L0.693,4.393C0.577,4.467,0.461,4.526,0.351,4.587H0.339C0.332,4.595,0.32,4.595,0.306,4.595c-0.017,0.02-0.041,0.039-0.07,0.061C0.203,4.68,0.171,4.701,0.139,4.716L0.024,4.799C0.007,4.806,0,4.812,0,4.828L2.606,10.855z"/></svg>