<svg xmlns="http://www.w3.org/2000/svg" enable-background="new 0 0 24 24" viewBox="0 0 24 24"><path fill="#379BD4" d="M14.685,7.661c0-1.43-1.154-2.583-2.562-2.583c-1.926,0-3.078,2.02-2.353,3.615c-3.269,3.455-5.255,8.593-4.715,14.683c0.097,0.905,1.446,0.797,1.381-0.136h0.001c-0.507-5.504,1.153-10.121,4.209-13.464C12.384,10.981,14.685,9.724,14.685,7.661z"/><path fill="#379BD4" d="M10.263,15.416c5.148,1.088,9.487-2.813,9.487-7.609C19.75,3.498,16.281,0,12.003,0h-0.001C6.146,0,2.5,6.292,5.105,11.36c0.405,0.816,1.642,0.211,1.223-0.628C4.175,6.39,7.304,1.393,12.002,1.393c3.506,0,6.366,2.878,6.366,6.418c0,4.257-4.041,7.215-7.799,6.24C9.681,13.859,9.379,15.195,10.263,15.416z"/></svg>