<svg xmlns="http://www.w3.org/2000/svg" enable-background="new 0 0 24 24" viewBox="0 0 24 24"><polygon fill="#30CC74" points="14.06 7.201 14.059 7.201 12.092 4.699 11.727 4.699 11.727 10.484 12.88 10.484 12.88 7.304 14.06 8.835 15.241 7.304 15.233 10.484 16.386 10.484 16.386 4.699 16.027 4.699"/><path fill="#30CC74" d="M16.5,13.191c0.023-1.004-0.605-1.729-1.614-1.729h-2.251v5.706h2.251c0.928-0.008,1.677-0.763,1.678-1.694v-0.028c0-0.466-0.23-0.878-0.584-1.127l-0.004-0.003l-0.001-0.001C16.332,14.068,16.484,13.626,16.5,13.191z M15.312,13.174c0.001,0.012,0.002,0.027,0.002,0.041c0,0.292-0.236,0.53-0.526,0.533h-1.011v-1.147h1.01C15.113,12.601,15.312,12.856,15.312,13.174z M15.358,15.462c0,0.313-0.252,0.566-0.565,0.566h-0.001h-0.006h-1.011v-1.139H14.8c0.308,0,0.558,0.25,0.558,0.559V15.462z"/><path fill="#30CC74" d="M23,3.531C23,1.425,21.579,0,19.476,0H4.524C2.422,0,1,1.424,1,3.531V24l1.805-2.101V3.531c0.001-0.949,0.768-1.718,1.716-1.719h14.952c0.947,0.002,1.715,0.77,1.716,1.719v14.837c-0.001,0.949-0.768,1.718-1.716,1.719H6.93l-1.792,1.798l14.338,0.014c2.102,0,3.524-1.424,3.524-3.531V3.531z"/><polygon fill="#30CC74" points="7.047 5.83 8.463 5.83 8.463 10.389 9.6 10.389 9.6 5.83 11.015 5.83 11.015 4.699 7.047 4.699"/><path fill="#30CC74" d="M8.794,11.466H7.1v5.698h1.694C12.579,17.164,12.579,11.466,8.794,11.466z M8.794,16.024L8.794,16.024l-0.55,0.001v-3.419h0.55C11.004,12.606,11.004,16.024,8.794,16.024z"/><polygon points="5.132 21.899 5.146 21.885 5.121 21.885"/></svg>