<svg xmlns="http://www.w3.org/2000/svg" enable-background="new 0 0 24 24" viewBox="0 0 24 24"><path fill="#B3141A" d="M19.125,0h-4.398L12.05,13.988L9.33,0H4.91c0.214,0.219,0.332,0.634,0.387,1.072v21.211c0,0.621-0.104,1.383-0.422,1.717c1.006-0.214,2.29-0.416,3.389-0.611V9.374l2.47,12.376c0.069,0.46,0.134,1.084-0.021,1.198c0.841-0.129,1.681-0.252,2.525-0.366c-0.104-0.16-0.063-0.652-0.005-1.061l2.436-12.372v13.096c1.046-0.123,2.348-0.24,3.444-0.349l0.012-0.008c-0.322-0.328-0.427-1.1-0.427-1.724V1.725C18.698,1.099,18.802,0.331,19.125,0z"/><polygon points="19.357 14 19.356 14.001 19.357 14.001"/></svg>