<svg xmlns="http://www.w3.org/2000/svg" enable-background="new 0 0 24 24" viewBox="0 0 24 24"><path fill="#D91920" d="M12,0C5.373,0,0,5.37,0,12s5.373,12,12,12c6.63,0,12-5.37,12-12S18.63,0,12,0z M11.16,4.67h1.68v8.36h-1.68V4.67z M12.001,18.154L12.001,18.154c-3.241-0.001-5.866-2.629-5.865-5.867c0-2.64,1.767-4.956,4.314-5.655v1.71c-1.628,0.64-2.698,2.21-2.695,3.96c0,2.345,1.903,4.244,4.248,4.243c2.344-0.002,4.244-1.903,4.243-4.248c0-1.745-1.07-3.312-2.694-3.95V6.63c2.55,0.7,4.314,3.018,4.314,5.66C17.866,15.53,15.24,18.154,12.001,18.154z"/></svg>