<svg xmlns="http://www.w3.org/2000/svg" enable-background="new 0 0 24 24" viewBox="0 0 24 24"><path fill="#7D4597" d="M12.32,8.007c0.045,0.258-0.007,0.514,0.123,1.135c0.155,0.736,0.377,1.185,0.783,1.763c0.173,0.245,0.33,0.518,0.487,0.787c0.314,0.538,0.581,1.108,0.761,1.784c0.175,0.651,0.357,1.404,0.453,2.091c0.213,1.517,0.195,3.239-0.105,4.718c-0.227,1.122-0.485,1.828-1.149,2.667c-0.296,0.375-0.556,0.532-0.644,0.635c0.778-0.065,2.098-0.536,2.71-0.855c0.428-0.222,0.761-0.399,1.11-0.66c0.09-0.065,0.173-0.132,0.256-0.202l0.451-0.422c0.067-0.063,0.128-0.146,0.204-0.233c1.25-1.4,1.714-3.583,1.25-5.463c-0.59-2.387-2.167-3.527-4.112-4.754c-0.184-0.117-0.361-0.218-0.561-0.334c-0.5-0.294-0.987-0.828-1.25-1.395c-0.24-0.523-0.285-0.859-0.182-1.476l-0.59-0.298L12.32,8.007L12.32,8.007z"/><path fill="#ABCD03" d="M12.575,4.177L12.564,4.22L12.575,4.177z M13.589,4.079c0.002-0.002,0.007,0.002,0.007,0.007L13.589,4.079z M12.575,4.177c0.002-0.101,0.254-1.057,0.287-1.185c0.052-0.204,0.099-0.399,0.146-0.588c0.031-0.126,0.141-0.485,0.144-0.592c-0.067,0.049-0.256,0.464-0.307,0.547c-0.254,0.422-0.879,1.902-1.03,2.45c-0.135,0.489-0.505,1.741-0.469,2.151l0.352,0.258l0.072,0.031l-0.011,0.018c0.128-0.002,0.027-0.007,0.067,0.029v15.706l0.022-0.007c-0.036-0.072-0.016-11.724-0.016-13.752c0-0.633-0.029-1.342,0.002-1.965l0.146,0.052c0.067-0.025,0.442,0.047,0.55,0.058c0.651-1.007,1.128-1.644,1.819-2.528l0.494-0.599c0.034-0.045,0.052-0.054,0.085-0.094l1.483-1.62l1.395-1.328c0.058-0.043,0.072-0.036,0.09-0.108L17.248,1.36c-0.395,0.157-0.693,0.292-1.057,0.496c-0.637,0.357-1.18,0.7-1.712,1.232c-0.258,0.258-0.426,0.413-0.653,0.7c-0.047,0.061-0.162,0.215-0.206,0.249c0.022-0.101,0.227-0.446,0.292-0.563c0.254-0.455,0.554-0.87,0.85-1.299c0.206-0.298,0.52-0.691,0.747-0.983c0.061-0.079,0.126-0.166,0.195-0.242C15.739,0.911,16.47,0.056,16.486,0c-0.099,0.065-0.191,0.132-0.289,0.206l-1.38,1.142c-0.083,0.081-0.164,0.177-0.249,0.247c-0.209,0.166-0.769,0.808-0.971,1.057c-0.467,0.577-0.617,0.855-0.96,1.445c-0.018,0.029,0.002,0-0.022,0.036C12.598,4.153,12.587,4.164,12.575,4.177L12.575,4.177z"/><path fill="#FEFBDA" d="M11.851,22.999c0.404-0.774,0.509-2.064,0.516-3.035c0.011-1.319-0.455-2.546-0.42-3.121c0.262,1.117,0.684,1.985,0.722,3.26c0.016,0.541-0.07,1.321-0.148,1.858c-0.092,0.624-0.343,0.994-0.639,1.339l-0.002,0.022c0.159-0.09,0.319-0.245,0.426-0.363c0.411-0.453,0.637-0.978,0.774-1.611c0.166-0.778,0.345-2.098,0.262-2.91c-0.043-0.42-0.173-0.915-0.283-1.301c-0.384-1.328-0.812-1.29-0.971-2.21c-0.074-0.433-0.056-1.068-0.043-1.521c0.056,0.433,0.083,0.929,0.162,1.36c0.081,0.444,0.305,0.702,0.491,1.041c0.904,1.66,1.097,3.123,0.763,5.03c-0.074,0.428-0.164,0.837-0.307,1.22c-0.245,0.646-0.321,0.612-0.523,0.989c0.249-0.215,0.608-0.895,0.758-1.31c0.278-0.765,0.574-2.654,0.628-3.5c0.047-0.738-0.022-1.218-0.146-1.909c-0.227-1.252-0.628-2.026-1.128-3.011c-0.289-0.57-0.46-0.734-0.574-1.494c-0.083-0.556-0.164-1.36-0.153-1.925c0.025,0.052,0.02,0.056,0.025,0.128l0.081,0.774c0.034,0.283,0.072,0.572,0.121,0.848c0.137,0.758,0.224,0.756,0.559,1.391c0.415,0.79,0.96,1.73,1.193,2.703c0.258,1.079,0.354,2.436,0.191,3.569c-0.083,0.57-0.451,2.147-0.691,2.73c-0.045,0.11-0.114,0.229-0.148,0.332c0.132-0.11,0.354-0.489,0.455-0.68c0.153-0.283,0.215-0.471,0.294-0.821c0.424-1.916,0.588-4.17,0.316-6.109c-0.482-3.457-2.01-3.621-2.12-5.671c-0.02-0.363,0.034-0.951,0.022-1.084l-0.004-0.511l-0.33-0.162l-0.146-0.052c-0.034,0.624-0.002,1.333-0.002,1.965C11.837,11.275,11.815,22.928,11.851,22.999L11.851,22.999z M11.757,17.151c-0.105,0.22-0.056,0.35-0.312,0.747c-0.437,0.68-0.904,1.122-0.953,2.183c-0.031,0.68,0.162,1.158,0.39,1.694c0.188,0.44,0.52,1.03,0.877,1.202L11.757,17.151z"/><path fill="#FFFCDB" d="M11.761,7.269l0.011-0.018L11.7,7.219l-1.366-0.552c0.155,0.289,0.444,0.884,0.527,1.229c0.108,0.435,0.132,1.144-0.052,1.534c-0.328,0.695-1.158,1.315-1.799,1.701c-0.738,0.442-0.924,0.592-1.534,1.09l-0.942,0.803c-0.298,0.298-0.361,0.33-0.639,0.675c-0.063,0.076-0.126,0.157-0.188,0.249c-0.103,0.144-0.245,0.361-0.332,0.543c-0.832,1.725-0.848,4.009,0.17,5.662c0.635,1.032,1.597,2.057,2.688,2.562c0.314,0.146,0.904,0.435,1.265,0.489c-0.305-0.269-0.538-0.065-1.512-1.256c-0.39-0.476-0.756-1.041-1.088-1.656c-0.332-0.617-0.579-1.234-0.747-1.997c-0.2-0.904,0.04-1.494,0.375-2.216c0.345-0.745,0.671-1.061,1.167-1.597c0.321-0.345,1.557-1.205,1.983-1.456c0.938-0.556,1.077-0.761,1.465-1.956l0.316-1.057c-0.157,0.817-0.249,1.586-0.626,2.277c-0.215,0.393-0.413,0.489-0.743,0.729c-1.027,0.749-2.026,1.245-2.831,2.32C6.942,15.76,6.68,16.254,6.5,16.772c-0.162,0.464-0.238,0.711-0.159,1.252c0.209,1.436,1.093,2.854,1.965,3.921l0.608,0.684c0.2,0.22,0.72,0.46,1.081,0.568c0.289,0.087,0.864,0.271,1.142,0.296c-0.148-0.025-0.603-0.236-0.756-0.305c-0.686-0.312-1.33-0.844-1.781-1.418c-0.568-0.722-1.066-2.095-0.801-3.3c0.245-1.115,1.108-1.947,1.878-2.398c0.242-0.141,0.462-0.249,0.669-0.404c0.646-0.485,0.931-1.193,1.187-1.985c-0.009,0.204-0.15,0.655-0.218,0.848c-0.451,1.281-1.209,1.306-2.136,2.14c-0.496,0.446-1.061,1.285-1.2,1.999c-0.209,1.066,0.525,2.329,1.102,3.096c0.639,0.852,1.236,1.211,2.273,1.485c0.072,0.018,0.337,0.108,0.404,0.072c-0.031-0.056-0.016-0.031-0.09-0.07c-0.469-0.251-0.781-0.756-0.985-1.243c-0.294-0.7-0.449-1.075-0.381-1.947c0.144-1.855,0.98-1.864,1.375-2.802c0.092-0.22,0.079-0.236,0.079-0.498c0-1.584,0-3.168,0-4.752C11.761,10.441,11.725,8.835,11.761,7.269L11.761,7.269z"/><path d="M12.528,23.163c0.034-0.056,0.009-0.043,0.083-0.087L12.528,23.163z M12.497,24h-0.399c-0.339-0.004-0.678-0.016-0.933-0.02l-0.906-0.09c-0.298-0.043-0.559-0.094-0.832-0.162c-0.859-0.215-1.678-0.583-2.387-1.072c-0.314-0.218-0.826-0.633-1.081-0.909c-0.489-0.529-0.686-0.817-1.039-1.427c-0.803-1.386-0.944-3.444-0.532-4.947c0.294-1.077,0.704-1.615,1.317-2.4c0.13-0.166,0.455-0.48,0.603-0.63c0.413-0.413,1.196-0.96,1.678-1.283c0.204-0.137,0.393-0.262,0.597-0.397c0.103-0.07,0.193-0.13,0.298-0.2C9.318,10.172,10,9.815,10.242,9.36c0.695-1.303-0.359-2.854-0.411-3.076c0.027-0.038,0.063-0.058,0.108-0.09c0.052-0.038,0.067-0.058,0.11-0.087c0.112,0.058,0.215,0.137,0.325,0.211l0.644,0.428c0.11,0.074,0.215,0.15,0.328,0.215l0.352,0.258l-1.366-0.552c0.155,0.289,0.444,0.884,0.527,1.229c0.108,0.435,0.132,1.144-0.052,1.534c-0.328,0.695-1.158,1.315-1.799,1.701c-0.738,0.442-0.924,0.592-1.534,1.09l-0.94,0.803c-0.298,0.298-0.361,0.33-0.639,0.675c-0.063,0.076-0.126,0.157-0.188,0.249c-0.103,0.144-0.245,0.361-0.332,0.543c-0.832,1.725-0.848,4.009,0.17,5.662c0.635,1.032,1.597,2.057,2.688,2.562c0.314,0.146,0.904,0.435,1.265,0.489c-0.305-0.269-0.538-0.065-1.512-1.256c-0.39-0.476-0.756-1.041-1.088-1.656c-0.332-0.617-0.579-1.234-0.747-1.997c-0.2-0.904,0.04-1.494,0.375-2.216c0.345-0.745,0.671-1.061,1.167-1.597c0.321-0.345,1.557-1.205,1.983-1.456c0.938-0.556,1.077-0.761,1.465-1.956l0.316-1.057c-0.157,0.817-0.249,1.586-0.626,2.277c-0.215,0.393-0.413,0.489-0.743,0.729c-1.027,0.749-2.026,1.245-2.831,2.32C6.942,15.76,6.68,16.254,6.5,16.772c-0.162,0.464-0.238,0.711-0.159,1.252c0.209,1.436,1.093,2.854,1.965,3.921l0.608,0.684c0.2,0.22,0.72,0.46,1.081,0.568c0.289,0.087,0.864,0.271,1.142,0.296c-0.148-0.025-0.603-0.236-0.756-0.305c-0.686-0.312-1.33-0.844-1.781-1.418c-0.568-0.722-1.066-2.095-0.801-3.3c0.245-1.115,1.108-1.947,1.878-2.398c0.242-0.141,0.462-0.249,0.669-0.404c0.646-0.485,0.931-1.193,1.187-1.985c-0.009,0.204-0.15,0.655-0.218,0.848c-0.451,1.281-1.209,1.306-2.136,2.14c-0.496,0.446-1.061,1.285-1.2,1.999c-0.209,1.066,0.525,2.329,1.102,3.096c0.639,0.852,1.236,1.211,2.273,1.485c0.072,0.018,0.337,0.108,0.404,0.072c-0.031-0.056-0.016-0.031-0.09-0.07c-0.469-0.251-0.781-0.756-0.985-1.243c-0.294-0.7-0.449-1.075-0.381-1.947c0.144-1.855,0.98-1.864,1.375-2.802c0.092-0.22,0.079-0.236,0.079-0.498c0-1.584,0-3.168,0-4.752c0-1.57-0.034-3.177,0.002-4.74c0.128-0.002,0.027-0.007,0.067,0.029v15.706l0.022-0.007c0.404-0.774,0.509-2.064,0.516-3.035c0.011-1.319-0.455-2.546-0.42-3.121c0.262,1.117,0.684,1.985,0.722,3.26c0.016,0.541-0.07,1.321-0.148,1.858c-0.092,0.624-0.343,0.994-0.639,1.339c-0.049,0.025-0.04,0.004-0.061,0.061c0.061-0.018,0.043-0.022,0.058-0.038c0.159-0.09,0.319-0.245,0.426-0.363c0.411-0.453,0.637-0.978,0.774-1.611c0.166-0.778,0.345-2.098,0.262-2.91c-0.043-0.42-0.173-0.915-0.283-1.301c-0.384-1.328-0.812-1.29-0.971-2.21c-0.074-0.433-0.056-1.068-0.043-1.521c0.056,0.433,0.083,0.929,0.162,1.36c0.081,0.444,0.305,0.702,0.491,1.041c0.904,1.66,1.097,3.123,0.763,5.03c-0.074,0.428-0.164,0.837-0.307,1.22c-0.245,0.646-0.321,0.612-0.523,0.989c0.249-0.215,0.608-0.895,0.758-1.31c0.278-0.765,0.574-2.654,0.628-3.5c0.047-0.738-0.022-1.218-0.146-1.909c-0.227-1.252-0.628-2.026-1.128-3.011c-0.289-0.57-0.46-0.734-0.574-1.494c-0.083-0.556-0.164-1.36-0.153-1.925c0.025,0.052,0.02,0.056,0.025,0.128l0.081,0.774c0.034,0.283,0.072,0.572,0.121,0.848c0.137,0.758,0.224,0.756,0.559,1.391c0.415,0.79,0.96,1.73,1.193,2.703c0.258,1.079,0.354,2.436,0.191,3.569c-0.083,0.57-0.451,2.147-0.691,2.73c-0.045,0.11-0.114,0.229-0.148,0.332c0.132-0.11,0.354-0.489,0.455-0.68c0.153-0.283,0.215-0.471,0.294-0.821c0.424-1.916,0.588-4.17,0.316-6.109c-0.482-3.457-2.01-3.621-2.12-5.671c-0.02-0.363,0.034-0.951,0.022-1.084c0.045,0.258-0.007,0.514,0.123,1.135c0.155,0.736,0.377,1.185,0.783,1.763c0.173,0.245,0.33,0.518,0.487,0.787c0.314,0.538,0.581,1.108,0.761,1.784c0.175,0.651,0.357,1.404,0.453,2.091c0.213,1.517,0.195,3.239-0.105,4.718c-0.227,1.122-0.485,1.828-1.149,2.667c-0.296,0.375-0.556,0.532-0.644,0.635c0.778-0.065,2.098-0.536,2.71-0.855c0.428-0.222,0.761-0.399,1.11-0.66c0.09-0.065,0.173-0.132,0.256-0.202l0.451-0.422c0.067-0.063,0.128-0.146,0.204-0.233c1.25-1.4,1.714-3.583,1.25-5.463c-0.59-2.387-2.167-3.527-4.112-4.754c-0.184-0.117-0.361-0.218-0.561-0.334c-0.5-0.294-0.987-0.828-1.25-1.395c-0.24-0.523-0.285-0.859-0.182-1.476l-0.581-0.301l-0.33-0.162c0.067-0.025,0.442,0.047,0.55,0.058l0.974,0.126c0,0.094-0.022,0.144-0.038,0.22c-0.155,0.727,0.153,1.521,0.639,2.001c0.489,0.485,0.527,0.494,1.135,0.835c0.761,0.424,1.261,0.754,1.952,1.27l0.653,0.581c0.092,0.092,0.148,0.168,0.238,0.258c0.056,0.054,0.07,0.083,0.119,0.139c0.597,0.671,1.032,1.53,1.315,2.383c0.372,1.119,0.406,2.378,0.159,3.495c-0.063,0.28-0.135,0.532-0.224,0.769c-0.09,0.242-0.175,0.462-0.287,0.686c-0.092,0.182-0.339,0.63-0.46,0.794c-0.283,0.388-0.44,0.606-0.783,0.947c-0.262,0.262-0.256,0.242-0.507,0.467c-0.628,0.563-1.855,1.119-2.643,1.312c-0.442,0.11-0.794,0.193-1.25,0.242l-0.451,0.045C12.916,23.987,12.714,23.996,12.497,24L12.497,24z M11.757,17.151l0.004,5.826c-0.357-0.173-0.691-0.763-0.877-1.202c-0.229-0.534-0.422-1.014-0.39-1.694c0.049-1.063,0.516-1.503,0.953-2.183C11.7,17.501,11.651,17.371,11.757,17.151L11.757,17.151z"/><path fill="#8C8A78" d="M12.611,23.076c-0.074,0.045-0.049,0.031-0.083,0.087L12.611,23.076z"/><path d="M12.47,19.089c0.002,0.01,0.003,0.021,0.005,0.032c0.001,0.002,0.001,0.005,0.002,0.007L12.47,19.089z"/></svg>