<svg xmlns="http://www.w3.org/2000/svg" enable-background="new 0 0 24 24" viewBox="0 0 24 24"><path fill="#0079c0" d="m21 0h-18c-1.657 0-3 1.343-3 3v18c0 1.656 1.343 3 3 3h18c1.656 0 3-1.344 3-3v-18c0-1.657-1.344-3-3-3zm-10.56 18.18c0 .795-.645 1.44-1.44 1.44h-4.44c-.795 0-1.44-.646-1.44-1.44v-13.62c0-.795.645-1.44 1.44-1.44h4.44c.795 0 1.44.645 1.44 1.44zm10.44-6c0 .794-.645 1.44-1.44 1.44h-4.44c-.795 0-1.44-.646-1.44-1.44v-7.62c0-.795.646-1.44 1.44-1.44h4.44c.795 0 1.44.645 1.44 1.44z"/></svg>