<svg xmlns="http://www.w3.org/2000/svg" enable-background="new 0 0 24 24" viewBox="0 0 24 24"><path fill="#1677C7" d="M0,12v12h24V0H0V12z M14.563,19.626c0.108-0.061,0.511-0.294,0.892-0.515l0.69-0.4l0.145,0.214c0.202,0.308,0.643,0.731,0.91,0.872c0.766,0.404,1.817,0.347,2.335-0.118c0.193-0.163,0.314-0.405,0.314-0.675c0-0.016,0-0.031-0.001-0.047v0.002c0-0.278-0.035-0.4-0.18-0.61c-0.186-0.266-0.567-0.49-1.649-0.96c-1.238-0.533-1.771-0.864-2.259-1.39c-0.294-0.334-0.521-0.736-0.653-1.178l-0.006-0.022c-0.091-0.339-0.114-1.189-0.042-1.531c0.255-1.197,1.158-2.03,2.461-2.278c0.423-0.08,1.406-0.05,1.821,0.053v0.001c0.61,0.152,1.074,0.423,1.501,0.865c0.221,0.236,0.549,0.666,0.575,0.77c0.008,0.03-1.036,0.73-1.668,1.123c-0.023,0.015-0.115-0.084-0.217-0.236c-0.31-0.45-0.633-0.644-1.128-0.678c-0.728-0.05-1.196,0.331-1.192,0.967c0,0.011-0.001,0.024-0.001,0.037c0,0.151,0.038,0.293,0.105,0.417l-0.002-0.005c0.16,0.331,0.458,0.53,1.39,0.933c1.719,0.74,2.454,1.227,2.911,1.92c0.51,0.773,0.625,2.008,0.278,2.926c-0.38,0.998-1.325,1.676-2.655,1.9c-0.411,0.073-1.386,0.062-1.828-0.018c-0.964-0.172-1.878-0.648-2.442-1.273c-0.221-0.243-0.652-0.88-0.625-0.925C14.354,19.751,14.453,19.69,14.563,19.626z M5.258,12.065c0-0.534,0.011-0.98,0.026-0.99c0.012-0.016,1.913-0.024,4.217-0.02l4.195,0.012l0.011,0.979l0.008,0.983H10.59v8.876H8.38v-8.876H5.258V12.065z"/></svg>