<svg xmlns="http://www.w3.org/2000/svg" enable-background="new 0 0 24 24" viewBox="0 0 24 24"><path d="M0.5,12.444C0.5,18.818,5.654,24,12.005,24S23.5,18.829,23.5,12.444v-0.455v-0.001C23.241-0.304,6.98-4.89,0.716,6.634c0.28,0.206,0.657,0.477,0.938,0.672c-0.433,0.887-0.77,1.917-0.961,2.997l-0.01,0.071C0.568,10.996,0.501,11.713,0.5,12.444L0.5,12.444z M13.828,2.309c6.114,1.55,9.403,7.957,6.998,13.94l0.001-0.001c-1.66,3.783-5.079,5.767-8.723,5.713c-6.998-0.347-9.036-8.466-4.357-11.393l0.205,0.206c-0.076,0.108-0.356,0.325-0.787,1.182c-0.507,1.041-0.668,2.081-0.604,2.732c0.367,5.67,8.271,6.83,10.987,1.214C21.009,8.217,11.822,0.401,3.67,6.374L3.487,6.19C5.632,2.808,9.827,1.301,13.828,2.309z M13.429,15.532c0.291,0.206,0.572,0.401,0.851,0.596l0.001,0.001c-0.572,0.823-1.51,1.355-2.572,1.355c-0.002,0-0.004,0-0.005,0c-0.001,0-0.003,0-0.004,0c-1.731,0-3.134-1.411-3.134-3.151c0-0.001,0-0.003,0-0.004c0.004-1.66,1.28-3.02,2.9-3.143l0.011-0.001c1.013-0.043,1.963,0.51,2.404,1.398c0.171,0.336,0.271,0.733,0.271,1.154C14.152,14.435,13.876,15.069,13.429,15.532L13.429,15.532z M8.588,6.33c3.526-0.52,6.901,1.68,7.688,4.759l-0.28,0.098c-0.087-0.087-0.227-0.336-0.766-0.878c-4.259-4.282-10.944-2.32-11.893,3.74l0.001-0.001c-0.151,1.247-0.054,1.637-0.054,1.789l-0.28,0.098c-0.107-0.206-0.367-0.932-0.485-1.908C2.215,10.309,4.738,6.959,8.588,6.33z"/></svg>