<svg xmlns="http://www.w3.org/2000/svg" enable-background="new 0 0 24 24" viewBox="0 0 24 24"><path fill="#26AEDE" d="M0,4.595v10.579C-0.015,20.032,3.915,23.985,8.775,24c1.604,0.004,3.115-0.423,4.414-1.167l6.487-3.729c2.561-1.321,4.313-3.992,4.323-7.072V0.969l-1.59-0.927l-6.503,3.673V15.22c-0.003,0.488-0.025,0.846-0.153,1.452c-0.216,0.926-0.521,1.579-0.574,1.684c-0.511-0.03-1.546-0.318-2.386-0.819c-0.42-0.243-0.914-0.608-1.364-1.033c-0.3-0.288-0.556-0.622-0.78-0.956c-0.24-0.349-0.435-0.712-0.585-1.092c-0.165-0.396-0.284-0.789-0.375-1.199c-0.09-0.426-0.104-0.865-0.104-1.29L9.6,0.924L8.01,0.005V0L0,4.595z M17.701,15.23V4.64l4.504-2.756l0.003,10.125c0,0.436-0.018,0.889-0.105,1.311v0.008c-0.087,0.409-0.211,0.812-0.375,1.2c-0.439,0.966-1.148,1.791-1.74,2.321c-1.216,1.114-2.725,1.457-2.898,1.457C17.452,17.346,17.698,16.317,17.701,15.23z M14.253,19.806c-0.135,0.167-0.24,0.335-0.391,0.486c-0.33,0.326-0.675,0.631-1.064,0.887c-0.375,0.26-0.645,0.47-1.065,0.652l-0.035,0.003c-0.436,0.181-0.889,0.32-1.35,0.415c-0.477,0.095-0.916,0.143-1.403,0.143c-0.488,0-0.978-0.054-1.452-0.153c-0.461-0.093-0.915-0.237-1.35-0.422c-0.424-0.181-0.836-0.408-1.219-0.667c-0.99-0.699-1.5-1.306-1.941-1.958c-0.26-0.394-0.48-0.804-0.66-1.229c-0.183-0.44-0.322-0.896-0.416-1.35c-0.09-0.47-0.104-0.972-0.104-1.456V5.505l6-3.663v10.127C7.802,15.819,10.622,19.029,14.253,19.806z"/></svg>