<svg xmlns="http://www.w3.org/2000/svg" enable-background="new 0 0 24 24" viewBox="0 0 24 24"><path d="M19.272,8.773c0,0.008,0,0.015,0,0.023c0,0.001,0,0.002,0,0.003V8.773z"/><path fill="#E35050" d="M23.58,13.365c-0.078-0.065-0.172-0.114-0.276-0.138L23.3,13.226c-0.6,0.604-1.35,1.237-2,1.663c-0.31,0.198-0.7,0.297-0.95,0.297c-0.59,0-0.84-0.544-0.91-1.425c-0.11-1.287-0.172-2.784-0.172-4.297c0-0.163,0.001-0.325,0.002-0.487c0-2.235-0.521-3.759-1.88-3.877l-0.18-0.01c-0.83,0-1.24,0.426-1.77,1.505c-0.46,0.931-1.17,2.277-2.48,4.85c-1.061,2.075-2.207,3.86-3.5,5.524c-0.31,0.376-0.55,0.633-0.78,0.791c-0.123,0.084-0.275,0.136-0.439,0.139H8.242c-0.43,0-0.75-0.356-0.85-1.198c-0.026-0.196-0.04-0.424-0.04-0.653c0-0.009,0-0.019,0-0.029c0-1.732,0.66-4.553,1.8-8.691c0.83-3.019,0.48-5.078-1.34-5.078h-0.03c-0.41,0-0.75,0.158-1.08,0.416c-0.33,0.247-0.65,0.802-0.96,1.544c-0.34,0.832-2.42,4.979-5.739,7.127c-0.04,0.802,0.42,1.614,1.37,1.712c0.85,0.079,1.46-0.277,2.24-0.802l-0.16,0.723c-0.166,0.644-0.341,1.515-0.478,2.399l-0.022,0.174c-0.46,4.157,1.47,6.206,3.74,6.206c0.38,0,0.76-0.05,1.13-0.148c2.5-0.624,4.9-3.474,7.749-10.027c-0.021,0.327-0.032,0.708-0.032,1.092c0,0.311,0.008,0.619,0.023,0.926c0.194,3.746,1.682,4.862,3.798,4.862c1.6,0,3.09-0.822,3.85-1.851c0.474-0.592,0.768-1.344,0.79-2.163v-0.005C23.98,13.95,23.83,13.564,23.58,13.365L23.58,13.365z"/><path d="M15.564,13.485c0-0.009,0-0.018-0.001-0.027c0-0.006-0.001-0.012-0.001-0.018L15.564,13.485z"/></svg>