<svg xmlns="http://www.w3.org/2000/svg" enable-background="new 0 0 24 24" viewBox="0 0 24 24"><path fill="#7C7E81" d="M10.099 18.038c-.689-.305-1.287-.761-1.762-1.329H2.203c.139.455.31.9.513 1.329H10.099zM22.18 14.85h-5.574c-.111.423-.278.825-.491 1.194h5.856C22.068 15.654 22.137 15.257 22.18 14.85zM21.07 18.562H2.978c.278.514.491 1.002.844 1.457H20.12C20.478 19.564 20.793 19.076 21.07 18.562zM1.82 14.85c.048.407.117.804.208 1.194h5.856c-.214-.369-.385-.771-.491-1.194H1.82zM19.793 20.422H4.146c.512.59 1.142 1.125 1.772 1.591h.001 12.155C18.705 21.546 19.287 21.016 19.793 20.422zM21.796 16.703h-6.14c-.47.574-1.073 1.029-1.756 1.329h.001 7.442C21.539 17.604 21.652 17.165 21.796 16.703z"/><rect width="5.493" height=".396" x="1.75" y="3.712" fill="#7C7E81"/><rect width="5.493" height=".664" x="1.75" y="7.425" fill="#7C7E81"/><rect width="5.493" height=".53" x="1.75" y="5.571" fill="#7C7E81"/><rect width="5.493" height=".263" x="1.75" y="1.859" fill="#7C7E81"/><path fill="#7C7E81" d="M1.75,13.655c0,0.134,0,0.268,0.006,0.396H7.26c-0.01-0.128-0.016-0.263-0.016-0.396H7.243v-0.664H1.75V13.655z"/><rect width="5.493" height=".793" x="1.75" y="9.283" fill="#7C7E81"/><rect width="5.493" height=".927" x="1.75" y="11.137" fill="#7C7E81"/><path fill="#7C7E81" d="M22.25,13.655v-0.664h-5.493v0.664c0,0.134-0.006,0.268-0.022,0.396h5.504C22.245,13.918,22.25,13.789,22.25,13.655z"/><rect width="5.493" height=".793" x="16.757" y="9.283" fill="#7C7E81"/><rect width="5.493" height=".664" x="16.757" y="7.425" fill="#7C7E81"/><rect width="5.493" height=".927" x="16.757" y="11.137" fill="#7C7E81"/><rect width="5.493" height=".525" x="16.757" y="5.571" fill="#7C7E81"/><rect width="5.493" height=".263" x="16.757" y="1.858" fill="#7C7E81"/><rect width="5.493" height=".396" x="16.757" y="3.712" fill="#7C7E81"/><path fill="#7C7E81" d="M6.303,22.275C7.932,23.368,9.891,24,12,24s4.068-0.632,5.701-1.725H6.303z"/></svg>