<svg xmlns="http://www.w3.org/2000/svg" enable-background="new 0 0 24 24" viewBox="0 0 24 24"><path fill="#7E451C" d="M23.736 17.884l-5.822-8.117c-.517-.722-1.041-.914-2.207-1.527-.438-.231-.556-.426-1.194-1.129C14.475 7.068 14.4 7.076 14.373 7.13c-1.811 3.467-1.843 3.233-1.917 3.702-.067.418-.051.781.012 1.164.074.469.258.918.536 1.305l5.826 8.117c.297.414.79.632 1.295.574 1.577-.192 3.051-1.249 3.744-2.679C24.08 18.847 24.037 18.301 23.736 17.884L23.736 17.884zM8.822 3.949C9.13 4.569 9.42 5.14 9.69 5.667c.028.051.09.058.129.019.438-.469.962-1.023 1.584-1.663.051-.055.055-.137.004-.192-.313-.32-.645-.66-1.002-1.019-.039-.183-.039-.285-.141-.312-.118-.031-.258-.039-.246-.18C10.031 2.191 10.074 2.004 9.91 2 9.734 1.996 9.393 2.044 8.908 2.391 8.427 2.738 8.266 3.047 8.216 3.215c-.055.164.141.18.266.211H8.481c.133.035.098.172.09.289C8.564 3.82 8.653 3.851 8.822 3.949z"/><path fill="#B8661E" d="M5.175,21.413l5.826-8.113c0.278-0.387,0.462-0.836,0.536-1.305l0.204-1.28c0.129-0.809,0.316-0.512,3.439-6.763h-0.002c0.164-0.097,0.259-0.129,0.255-0.238c-0.008-0.118-0.043-0.254,0.09-0.289l0.176-0.043c0.071-0.02,0.118-0.094,0.094-0.164C15.742,3.05,15.581,2.741,15.1,2.394c-0.485-0.344-0.825-0.395-1.002-0.39c-0.074,0-0.133,0.066-0.125,0.141l0.016,0.18c0.012,0.141-0.129,0.153-0.246,0.18c-0.102,0.027-0.102,0.125-0.141,0.312C8.676,7.775,9.02,7.857,8.297,8.24L7.151,8.845C6.728,9.068,6.364,9.384,6.086,9.771l-5.826,8.117c-0.297,0.414-0.344,0.96-0.121,1.421c0.684,1.418,2.152,2.48,3.728,2.675C4.377,22.046,4.878,21.827,5.175,21.413z"/></svg>