<svg xmlns="http://www.w3.org/2000/svg" enable-background="new 0 0 24 24" viewBox="0 0 24 24"><path fill="#F5AF04" d="M2,2.246h0.001v11.865c0,5.57,3.99,7.261,10,9.889C17.989,21.374,22,19.693,22,14.111V2.246C15.804-1.063,6.987-0.418,2,2.246z"/><path fill="#331A13" d="M21.079,2.499V14.11c0,4.651-2.835,6.102-9.079,8.878c-6.26-2.782-9.083-4.227-9.083-8.878V7.321C8.367,2.283,15.256,1.95,21.079,2.499z"/><path fill="#F5AF04" d="M18.651 13.783c.032 1.263-1.62 1.235-2.706.264v1.617c1.929 1.155 4.363.436 4.432-1.799.091-2.766-2.882-2.503-2.845-3.932.032-1.091 1.63-1.101 2.583-.118V8.289c-1.518-1.181-4.256-.494-4.246 1.713C15.876 12.542 18.619 12.284 18.651 13.783zM9.023 15.5V7.896H7.286v6.607c-.277.194-1.737.704-1.737-1.021V7.896H3.807v5.51C3.807 17.429 8.079 16.15 9.023 15.5z"/><polygon fill="#F5AF04" points="15.869 10.001 15.869 10.003 15.87 10.002"/><path fill="#F5AF04" d="M11.655,16.082c1.3,0.392,3.82-0.14,3.82-4.217c0-5.232-4.3-4.345-5.562-3.523v11.43h1.742V16.082z M11.655,9.254c0.448-0.226,2.046-0.682,2.046,2.648c0,3.647-1.939,2.782-2.046,2.74V9.254z"/></svg>