<svg xmlns="http://www.w3.org/2000/svg" enable-background="new 0 0 24 24" viewBox="0 0 24 24"><path fill="#4685ED" d="M12,1.375c-0.001,0-0.001,0-0.002,0c-2.56,0-4.635,2.073-4.635,4.63c0,0.001,0,0.001,0,0.002c0,0.002,0,0.004,0,0.005c0,1.009,0.324,1.943,0.874,2.702L8.228,8.7C6.864,9.805,6,11.48,6,13.354c0,0.002,0,0.004,0,0.006c0.001,2.525,1.563,4.686,3.774,5.572l0.04,0.014c0.647,0.259,1.398,0.409,2.184,0.409c0.789,0,1.542-0.152,2.232-0.427l-0.041,0.014c2.251-0.9,3.812-3.061,3.812-5.585c0-0.466-0.055-0.919-0.156-1.355c-0.32-1.341-1.055-2.477-2.061-3.294l-0.011-0.009c0.539-0.747,0.862-1.681,0.862-2.691C16.635,3.452,14.56,1.378,12,1.375z M12,4.236c1.129,0,2.046,0.916,2.046,2.043c0,1.129-0.916,2.044-2.046,2.044S9.954,7.407,9.954,6.278C9.954,5.152,10.872,4.236,12,4.236z M12,15.679c-1.245-0.046-2.237-1.066-2.237-2.316s0.992-2.269,2.232-2.315h0.004c1.282,0,2.318,1.036,2.318,2.315C14.317,14.642,13.281,15.678,12,15.679z"/><path fill="#474747" d="M17.011,4.811c0.056,0.238,0.112,0.476,0.134,0.725c0.014,0.144,0.022,0.311,0.022,0.478c0,0.953-0.26,1.846-0.712,2.612l0.013-0.024c0.777,0.738,1.371,1.66,1.714,2.697l0.013,0.046l2.097-3.976h1.527L24,3.555h-6.272L17.011,4.811z"/><path d="M17.846,12.006l-0.008-0.041c0.003,0.012,0.004,0.026,0.007,0.038C17.845,12.005,17.846,12.006,17.846,12.006L17.846,12.006z"/><path fill="#474747" d="M6.855 5.528c.019-.207.07-.401.112-.598L6.273 3.555H0l2.182 3.814h1.527l2.097 3.976c.355-1.083.949-2.005 1.724-2.739l.003-.003c-.441-.74-.701-1.631-.701-2.584 0-.004 0-.007 0-.011C6.832 5.846 6.84 5.685 6.855 5.528zM13.637 19.653c-.535.138-1.079.234-1.637.234s-1.101-.096-1.635-.233L12 22.625 13.637 19.653z"/></svg>