<svg xmlns="http://www.w3.org/2000/svg" enable-background="new 0 0 24 24" viewBox="0 0 24 24"><path fill="#EA5754" d="M21.832,7.348c1.287-3.872-0.805-6.812-0.805-6.811c-1.01,2.158-2.88,2.559-2.88,2.559c-1.867,0.477-2.52,1.201-2.52,1.201c-1.868,1.889-0.398,4.183-0.398,4.183c4.036-0.924,5.51-4.259,5.51-4.259c-0.18,2.241-4.983,4.888-4.983,4.888c1.59,1.563,3.106,1.375,4.109,0.774C21.193,9.089,21.832,7.348,21.832,7.348z"/><path fill="#EA5754" d="M4.092 21.418C5.661 23.141 7.681 24 10.157 24c2.461 0 4.475-.87 6.057-2.583 1.581-1.726 2.357-3.736 2.357-6.032 0-1.232-.224-2.373-.656-3.427-.715.445-1.401.68-1.968.799.342.815.507 1.707.507 2.671 0 1.193-.285 2.304-.848 3.331-.567 1.031-1.328 1.825-2.291 2.386-.935.545-1.963.821-3.078.835.556-.37 7.725-5.361 4.239-14.723l-.053-.165c.046.646.772 12.41-5.4 14.81-.72-.12-1.398-.375-2.039-.75-.961-.557-1.725-1.351-2.288-2.388-.567-1.019-.85-2.13-.85-3.33 0-1.845.62-3.422 1.858-4.727 1.239-1.303 2.722-1.956 4.45-1.956.82 0 1.585.15 2.298.45.071-.755.335-1.457.625-2.03C12.18 6.845 11.208 6.68 10.157 6.68c-2.49 0-4.554.924-6.18 2.771-1.486 1.675-2.227 3.653-2.227 5.937C1.75 17.686 2.525 19.698 4.092 21.418zM14.413 7.075V7.046C13.933 1.977 11.217.073 11.112 0 13.092 3.352 14.17 6.36 14.413 7.075z"/><polygon fill="#EA5754" points="11.405 14 11.415 14.007 11.411 14"/></svg>