<svg xmlns="http://www.w3.org/2000/svg" enable-background="new 0 0 24 24" viewBox="0 0 24 24"><path fill="#212121" d="m6.645 21.75h9.767l-2.862-8.011h4.656l-.001-.001c3.2 0 5.794-2.573 5.794-5.745 0-3.171-2.595-5.744-5.794-5.744-2.912 0-5.317 2.127-5.728 4.897h-.187c-.413-2.77-2.821-4.896-5.732-4.896-3.2 0-5.793 2.573-5.793 5.744 0 3.143 2.546 5.697 5.706 5.744v.002h.174v1.957l-6.645-1.786v7.639l6.645-1.981zm11.677-15.378c.906 0 1.639.726 1.639 1.621 0 .897-.733 1.625-1.639 1.625-.903-.002-1.634-.728-1.634-1.625 0-.896.73-1.621 1.634-1.621zm-11.765 3.243c-.904 0-1.636-.724-1.636-1.623 0-.896.733-1.622 1.636-1.622s1.636.726 1.636 1.622c0 .899-.733 1.623-1.636 1.623z"/></svg>