<svg xmlns="http://www.w3.org/2000/svg" enable-background="new 0 0 24 24" viewBox="0 0 24 24"><path fill="#19b2e5" d="m20.497 1.505c-3.328-.121-5.576 1.787-6.762 5.694.61-.273 1.203-.395 1.777-.395 1.219 0 1.758.697 1.614 2.082-.072.839-.608 2.059-1.612 3.664-1.009 1.605-1.763 2.409-2.265 2.409-.645 0-1.237-1.236-1.776-3.711-.182-.725-.506-2.58-.971-5.562-.431-2.765-1.58-4.058-3.447-3.877-.789.075-1.975.799-3.554 2.181-1.15 1.055-2.316 2.105-3.501 3.16l1.129 1.472c1.075-.762 1.702-1.144 1.881-1.144.824 0 1.593 1.307 2.312 3.917l1.918 7.185c.975 2.613 2.144 3.92 3.553 3.92 2.264 0 5.022-2.144 8.29-6.434 3.155-4.107 4.789-7.344 4.894-9.705l.013-.01c.134-3.165-1.021-4.785-3.493-4.846z"/></svg>