<svg xmlns="http://www.w3.org/2000/svg" enable-background="new 0 0 24 24" viewBox="0 0 24 24"><path fill="#1F6EA4" d="M11.344 9c-1.282 0-1.74 1.14-1.74 1.14l-2.096 4.182c0 0-.39.679.39.679h1.234c.39 0 .494-.326.705-.679l1.376-2.794c0 0 .195-.491.791-.491s.791.491.791.491l1.376 2.794C14.381 14.674 14.487 15 14.876 15h1.23c.78 0 .39-.679.39-.679L14.4 10.14c0 0-.462-1.14-1.74-1.14H11.344zM3.934 15h1.315c1.282 0 1.74-1.14 1.74-1.14l2.093-4.182c0 0 .39-.678-.39-.678h-1.23c-.39 0-.494.322-.705.678l-1.376 2.794c0 0-.195.491-.791.491-.596 0-.791-.491-.791-.491L2.422 9.678C2.213 9.326 2.108 9 1.718 9h-1.23c-.781 0-.39.678-.39.678l2.096 4.182C2.194 13.86 2.655 15 3.934 15zM23.512 9h-1.234c-.39 0-.495.322-.705.678l-1.38 2.794c0 0-.195.491-.791.491-.596 0-.791-.491-.791-.491l-1.376-2.794C17.026 9.326 16.92 9 16.531 9H15.3c-.78 0-.39.678-.39.678l2.096 4.182c0 0 .462 1.14 1.74 1.14h1.32c1.282 0 1.74-1.14 1.74-1.14l2.096-4.182C23.903 9.678 24.292 9 23.512 9z"/></svg>