<svg xmlns="http://www.w3.org/2000/svg" enable-background="new 0 0 24 24" viewBox="0 0 24 24"><path fill="#ff5722" d="m15.975 8.869c1.332-1.865 4.845-5.905 7.017-5.126.462.143.879.524.963 1.014.306 1.278-.749 2.088-2.713 5.291-2.401 3.917-3.138 6.516-4.203 7.563-2.091 2.336-6.328 1.307-5.824-5.067-2.518 4.116-3.141 9.135-7.4 8.289-4.47-1.211-4.261-11.742-3.222-14.458.071-.346.243-.658.395-.972 1.059-2.049 3.513-2.062 4.559-.846 1.073 1.248.76 3.81.595 5.487 1.108-1.927 3.031-4.679 4.806-6.045 2.77-2.062 5.968-.73 5.027 4.87z"/></svg>