<svg xmlns="http://www.w3.org/2000/svg" enable-background="new 0 0 24 24" viewBox="0 0 24 24"><path fill="#cfd8dc" d="m-405.475-653.77c-4.557.616-9.035 2.51-12.613 5.335-3.978 3.142-6.542 7.163-7.412 11.628-.264 1.348-.375 2.822-.493 4.382-.459 6.084-1.097 9.778-6.068 9.778-.579 0-1.109.328-1.367.847-.259.519-.202 1.14.147 1.603 6.766 8.977 17.698 9.939 28.963 9.946 3.779 0 7.766-.183 11.323-1.509 6.316-2.356 11.639-7.652 13.56-13.492 2.167-6.591 1.161-13.261-2.835-18.782-4.446-6.141-12.077-9.956-19.918-9.956-1.097-.001-2.202.073-3.287.22z" transform="matrix(.41145 0 0 .41145 179.028 270.893)"/><path fill="#424242" d="m-393.214-252.367c-4.583 0-9.326 3.05-10.21 7.579-.268 1.376-.17 3.475-.679 4.556-.63 1.338-1.896.189-2.529 1.458-.213.427-.166.938.121 1.319 2.937 3.897 7.599 4.343 12.419 4.343 3.316 0 5.879-.457 8.45-2.925 6.375-6.116 1.488-16.33-7.572-16.33zm0 1.258c5.67 0 10.716 5.062 8.764 10.998-.786 2.391-2.977 4.328-5.202 5.158-1.451.541-3.145.581-4.439.581-4.199 0-8.681-.215-11.415-3.842 3.559 0 2.856-3.977 3.317-6.335.763-3.907 4.974-6.56 8.975-6.56z" transform="translate(406.763 253.549)"/><path fill="#424242" d="m-371.652-101.621c.119 1.39-.91 2.613-2.3 2.732s-2.613-.91-2.732-2.3c-.12-1.39.91-2.613 2.3-2.732 1.388-.119 2.612.911 2.732 2.3z" transform="translate(381.595 121.697)"/><path fill="#cfd8dc" d="m-373.172-101.49c.047.55-.361 1.035-.911 1.082s-1.035-.36-1.082-.911c-.047-.55.36-1.035.911-1.082.55-.047 1.034.361 1.082.911z" transform="translate(381.595 121.697)"/><path fill="#424242" d="m-423.423-101.621c.12 1.39-.91 2.613-2.3 2.732s-2.613-.91-2.732-2.3c-.12-1.39.91-2.613 2.3-2.732s2.612.911 2.732 2.3z" transform="translate(442.025 121.697)"/><path fill="#cfd8dc" d="m-424.942-101.49c.047.55-.36 1.035-.911 1.082-.55.047-1.035-.36-1.082-.911-.047-.55.36-1.035.911-1.082.55-.047 1.034.361 1.082.911z" transform="translate(442.025 121.697)"/><g fill="#424242"><path d="m-380.529-192.32c0 .668-.541 1.208-1.208 1.208s-1.208-.541-1.208-1.208.541-1.208 1.208-1.208c.668 0 1.208.541 1.208 1.208z" transform="translate(391.956 201.028)"/><path d="m-415.028-193.826c0 .668-.541 1.208-1.208 1.208s-1.208-.541-1.208-1.208.541-1.208 1.208-1.208 1.208.541 1.208 1.208z" transform="translate(432.227 202.345)"/><path d="m-390.661-140.627c-2.287 0-4.066-1.613-4.261-3.315-.095-.829 1.156-.968 1.25-.144.154 1.34 1.756 2.235 3.103 2.199 1.717-.045 2.852-1.072 3.085-2.063.191-.81 1.415-.523 1.225.288-.375 1.596-2.089 3.035-4.402 3.035z" transform="translate(403.784 155.815)"/></g></svg>