<svg xmlns="http://www.w3.org/2000/svg" enable-background="new 0 0 24 24" viewBox="0 0 24 24"><linearGradient id="a" x1="-221.58" x2="-221.262" y1="-87.717" y2="-86.572" gradientTransform="translate(4336.313 1713.723) scale(19.5312)" gradientUnits="userSpaceOnUse"><stop offset=".28" stop-color="#00cdd7"/><stop offset=".94" stop-color="#2086d7"/></linearGradient><path fill="url(#a)" d="M3.225,21.675L0,2.512l6-2.475l3.788,2.25l3.525-1.875l7.275,2.812L16.5,24L3.225,21.675L3.225,21.675z"/><linearGradient id="b" x1="-221.481" x2="-220.943" y1="-87.571" y2="-86.782" gradientTransform="translate(4336.313 1713.723) scale(19.5312)" gradientUnits="userSpaceOnUse"><stop offset=".14" stop-color="#fff045"/><stop offset=".37" stop-color="#00cdd7"/></linearGradient><path fill="url(#b)" d="M24,8.137l-3.112-7.65L15.3,0L6.6,8.325l2.325,10.762l4.387,3.038L24,15.787l-2.625-4.912L24,8.137z"/><linearGradient id="c" x1="-220.947" x2="-220.876" y1="-87.475" y2="-87.224" gradientTransform="translate(4336.313 1713.723) scale(19.5312)" gradientUnits="userSpaceOnUse"><stop offset=".28" stop-color="#00cdd7"/><stop offset=".94" stop-color="#2086d7"/></linearGradient><path fill="url(#c)" d="M19.2,6.975l2.175,3.9L24,8.137l-1.913-4.762L19.2,6.975z"/><path d="M4.5,4.5h15v15h-15V4.5z"/><path fill="#FFF" d="M5.925,16.688h5.625v0.938H5.925L5.925,16.688z M13.275,11.775l0.787-0.975c0.562,0.45,1.125,0.75,1.838,0.75c0.562,0,0.9-0.225,0.9-0.6c0-0.337-0.225-0.525-1.238-0.788c-1.237-0.337-2.025-0.675-2.025-1.913V8.212c0-1.125,0.9-1.875,2.137-1.875c0.83-0.003,1.636,0.274,2.287,0.788l-0.712,1.05c-0.453-0.354-1.002-0.563-1.575-0.6c-0.488,0-0.788,0.225-0.788,0.562c0,0.413,0.263,0.562,1.313,0.825c1.237,0.338,1.95,0.788,1.95,1.875c0,1.238-0.938,1.95-2.25,1.95C14.937,12.752,14.013,12.396,13.275,11.775L13.275,11.775z M12.075,6.45l-0.938,3.6l-1.05-3.6h-1.05l-1.05,3.6L7.05,6.45H5.588l1.8,6.225H8.55l1.012-3.6l1.012,3.6h1.163l1.8-6.225L12.075,6.45L12.075,6.45z"/></svg>