<svg xmlns="http://www.w3.org/2000/svg" enable-background="new 0 0 24 24" viewBox="0 0 24 24"><polygon points="23 7.046 22.999 7.046 22.999 7.047"/><path fill="#70C50A" d="M0.029,10.852l-0.026,2.19l2.892,0.755l0.257,1.222l-2.03,2.003l1.055,1.864l2.973-0.755l0.734,0.863l-0.813,2.705l2.003,1.162l1.949-2.057l1.162,0.299l0.675,2.871L13.131,24l0.675-2.892l1.162-0.353l2.083,2.169l2.051-1.216l-0.895-2.812l0.782-0.814l2.892,0.895l1.028-2.03l-2.083-1.891l0.219-1.216l2.951-0.718v-2.137l-2.512-0.777v0.001l0.364,1.136l0.107,0.348l-0.311,0.187l-1.092,0.648l-0.311,0.182l-1.168-1.216l-0.102,0.032l-0.299,1.285l-0.086,0.359l-1.076-0.016c-0.563,2.539-2.823,4.435-5.528,4.435c-3.129,0-5.662-2.539-5.662-5.662c0-2.716,1.917-4.987,4.462-5.544l0.01-0.691l0.006-0.343l1.607-0.439l0.016-0.054l-0.921-0.932l-0.247-0.247l0.177-0.299l0.59-1.023l0.177-0.305l0.337,0.092l1.21,0.316L13.125,0h-2.27l-0.622,2.786L9.017,3.113L7.046,1.002L5.097,2.11L5.91,4.896L5.097,5.737L2.225,4.982L1.117,6.899L3.2,9.01l-0.305,1.055L0.029,10.852z"/><path fill="#D3D3D3" d="M12.414,2.581l-0.59,1.023l1.108,1.124l-0.155,0.557l-1.527,0.418l-0.016,1.162l1.542,0.402l0.128,0.648l-1.076,1.066l0.558,0.991l1.586-0.402l0.386,0.461l-0.434,1.441l1.066,0.622L16.03,11l0.622,0.155l0.359,1.527l1.21,0.016l0.359-1.543l0.622-0.187l1.108,1.156l1.092-0.648l-0.472-1.5l0.418-0.434l1.543,0.472l0.552-1.076l-1.12-1.007l0.118-0.648l1.557-0.375V5.769l-1.527-0.472L22.353,4.74l1.076-1.108l-0.556-1.039L21.32,2.995l-0.386-0.402l0.402-1.511l-1.023-0.622l-1.14,1.124l-0.574-0.171L18.225,0h-1.21l-0.333,1.414l-0.648,0.171l-1.055-1.124L13.941,1.05l0.434,1.483l-0.434,0.45L12.414,2.581z M17.613,3.247c1.682,0,3.043,1.361,3.043,3.042c0,1.688-1.361,3.042-3.043,3.042c-1.676,0-3.043-1.361-3.043-3.042C14.57,4.608,15.931,3.247,17.613,3.247z"/></svg>