<svg xmlns="http://www.w3.org/2000/svg" enable-background="new 0 0 24 24" viewBox="0 0 24 24"><rect width="1.441" height="4.572" x="10.438" y="10.881" fill="#757575"/><path fill="#24A6C6" d="M23.312,8.552h-1.075v2.745c0,2.081-3.701,2.064-3.701,0.039V8.512h-0.818V8.511c-0.53,0-0.99,0.329-0.99,0.841v3.252c0,0.793,0.56,1.264,1.377,1.264h4.647c0.689,0,1.248-0.468,1.248-1.14V9.396C24,8.991,23.692,8.552,23.312,8.552z"/><path fill="#757575" d="M11.133,8.5c-0.465,0-0.835,0.352-0.835,0.798c0.007,0.445,0.381,0.801,0.835,0.796c0.488,0,0.873-0.351,0.873-0.795C12.006,8.854,11.621,8.5,11.133,8.5z"/><path fill="#24A6C6" d="M21.331,11.168V8.513h-1.934v2.404C19.397,12.521,21.331,12.292,21.331,11.168z"/><path fill="#757575" d="M14.063 8.5c-.465 0-.848.352-.848.798 0 .433.383.796.848.796.477 0 .861-.351.861-.795C14.924 8.854 14.539 8.5 14.063 8.5zM2.708 15.5c.627 0 .917-.445 1.045-.844.14-.413 1.08-3.82 1.08-3.82s.942 3.409 1.069 3.82c.14.398.431.844 1.047.844.547 0 .906-.378 1.07-.844.196-.605 1.65-5.768 1.65-5.768H8.148L6.89 13.734c0 0-.963-3.638-1.125-4.161-.15-.516-.479-.742-.93-.742H4.833c-.465 0-.776.228-.938.742-.152.523-1.116 4.161-1.116 4.161L1.512 8.888H0c0 0 1.451 5.163 1.65 5.768C1.8 15.123 2.171 15.5 2.708 15.5z"/><rect width="1.442" height="4.572" x="13.354" y="10.881" fill="#757575"/></svg>