<svg xmlns="http://www.w3.org/2000/svg" enable-background="new 0 0 24 24" viewBox="0 0 24 24"><path d="M18.998,4.519l-0.059,0.044v0.43c0,0.043,0.029,0.089,0.072,0.117c0.047,0.03,0.091,0.044,0.152,0.044l0.42,0.016c0.511,0.022,0.66,0.121,0.857,0.291c0.193,0.17,0.218,0.466,0.064,0.882l-4.396,10.282l-0.17-0.047l-2.792-5.627l0.065-0.133l2.301-4.209c0.271-0.443,0.526-0.84,0.646-1.024c0.241-0.339,0.377-0.403,1.023-0.432c0.134,0,0.193-0.056,0.193-0.175v-0.43l-0.059-0.044c0,0-2.796-0.008-4.043,0l-0.061,0.044v0.421c0,0.052,0.022,0.096,0.067,0.127c0.047,0.036,0.093,0.05,0.145,0.05l0.201,0.021c0.507,0.02,0.742,0.154,0.812,0.236c0.122,0.144,0.182,0.303-0.111,0.933l-1.758,3.452l-1.582-3.204c-0.525-1.025-0.656-1.341,0.136-1.401l0.308-0.046c0.151,0,0.227-0.044,0.227-0.148V4.545l-0.113-0.036H7.251l-0.06,0.044v0.461c0,0.098,0.106,0.124,0.313,0.147c0.735,0.098,0.719,0.171,1.447,1.593c0.11,0.215,0.428,0.859,0.428,0.859l1.658,3.215l0.482,1.051l-2.411,4.738l-0.136-0.045c0,0-3.736-7.758-4.818-10.364C4.041,5.941,3.988,5.749,3.988,5.616c0-0.268,0.242-0.401,0.727-0.43l0.564-0.031c0.15,0,0.225-0.056,0.225-0.173V4.555L5.453,4.51c0,0-4.477-0.005-5.401,0L0,4.555v0.448C0,5.086,0.103,5.136,0.313,5.16C0.881,5.19,1.254,5.279,1.435,5.426c0.178,0.15,0.368,0.53,0.619,1.122c1.358,3.216,4.245,8.952,5.651,12.224c0.405,0.889,0.916,1.03,1.532-0.029c0.628-1.148,1.884-3.674,2.817-5.57c0.872,1.892,2.061,4.441,2.629,5.588c0.45,0.934,0.978,1.023,1.503,0.031c1.383-3.035,5.426-12.155,5.426-12.155c0.179-0.444,0.422-0.8,0.736-1.051c0.316-0.237,0.795-0.385,1.443-0.415c0.135,0,0.209-0.06,0.209-0.177v-0.43l-0.041-0.044H18.998z"/></svg>