<svg xmlns="http://www.w3.org/2000/svg" enable-background="new 0 0 24 24" viewBox="0 0 24 24"><path d="M22.59,14.503c-0.008,1.278-0.412,2.521-1.157,3.552c-1.954,2.706-5.709,3.299-8.383,1.319c1.147-1.356,1.776-3.084,1.77-4.87V4.853C14.82,3.278,13.557,2,12,2S9.18,3.278,9.18,4.853v9.651c0.009,1.792,0.652,3.52,1.815,4.87c-1.037,0.782-2.296,1.204-3.589,1.203c-3.313-0.002-5.998-2.722-5.996-6.074V2.712H0v11.791c0.025,1.649,0.58,3.244,1.58,4.545c2.543,3.308,7.255,3.902,10.524,1.328c1.278,1.037,2.863,1.608,4.5,1.624h0.016c4.084-0.009,7.389-3.365,7.38-7.497V2.712h-1.41V14.503z M12,18.403c-0.909-1.091-1.408-2.473-1.41-3.9V4.852c0-0.788,0.632-1.426,1.41-1.426s1.41,0.639,1.41,1.426v9.651C13.408,15.93,12.908,17.312,12,18.403z"/></svg>