<svg xmlns="http://www.w3.org/2000/svg" enable-background="new 0 0 24 24" viewBox="0 0 24 24"><path fill="#D71000" d="M15.769,10.7c-0.534-1.53,0.141-4,0.141-4S13.613,8.01,11.93,8C10.246,7.99,8.1,6.7,8.1,6.7s0.564,2.46,0.07,4.04c-0.484,1.58-2.489,3.34-2.489,3.34s2.6,0.23,3.88,1.1C10.841,16.05,12,18.64,12,18.64s0.786-2.35,2.338-3.41c1.552-1.07,3.991-1.15,3.991-1.15s-2.016-1.84-2.56-3.37V10.7z M16.414,13.4c0,0-1.572,0.17-2.661,0.99c-1.099,0.81-1.764,2.19-1.764,2.19s-0.766-1.43-1.814-2.22c-1.058-0.79-2.59-0.97-2.59-0.97c0.715-0.618,1.25-1.421,1.533-2.334l0.009-0.036c0.464-1.54,0.181-2.73,0.181-2.73s0.927,0.7,2.641,0.7s2.812-0.7,2.812-0.7s-0.383,1.58,0.07,2.7C15.275,12.13,16.414,13.4,16.414,13.4z"/><path fill="#D71000" d="M18.612,7.23l0.504-4.94l-4.596,2L12,0L9.48,4.29l-4.586-2l0.494,4.95L0.5,8.29L3.826,12L0.51,15.7l4.888,1.07l-0.504,4.94l4.586-2L12,24l2.52-4.29l4.596,2l-0.504-4.94l4.888-1.06L20.174,12h-0.01L23.5,8.3L18.612,7.23z M20.426,14.73c0,0-4.737,0.62-5.584,1.22h0.01C14.016,16.56,12,20.81,12,20.81s-1.512-3.86-3.024-4.86c-1.492-1-5.422-1.22-5.422-1.22s3.014-2.37,3.598-4.47c0.595-2.1-0.373-5.37-0.373-5.37s2.923,2.1,5.12,2.1c2.187,0,5.301-2.1,5.301-2.1s-0.827,4.5-0.534,5.46C16.969,11.31,20.426,14.73,20.426,14.73z"/><path fill="#D71000" d="M13.744,9.6c0,0-0.958,0.38-1.784,0.37c-0.826,0-1.713-0.37-1.713-0.37c0.05,0.58,0,1.15-0.171,1.7c-0.272,0.86-0.917,1.64-0.917,1.64c1.219,0.248,2.229,0.985,2.831,1.99L12,14.95c0,0,0.454-0.85,1.189-1.33c0.504-0.31,1.058-0.55,1.643-0.7c0,0-0.746-0.78-1.028-1.57C13.522,10.57,13.744,9.6,13.744,9.6z"/></svg>