<svg xmlns="http://www.w3.org/2000/svg" enable-background="new 0 0 24 24" viewBox="0 0 24 24"><path d="M12.001,0C8.818,0,5.767,1.27,3.515,3.515C1.27,5.766,0,8.817,0,12s1.27,6.235,3.514,8.478C5.683,22.654,8.685,24,12.001,24c3.316,0,6.317-1.347,8.487-3.523C22.739,18.234,24,15.182,24,12s-1.261-6.234-3.513-8.485h0.001C18.315,1.345,15.315,0.002,12.001,0z"/><path fill="#F8F8F8" d="M15.836,22.154C15.836,22.154,15.836,22.154,15.836,22.154C9.218,24.547,4.435,20.14,3.416,18.602c0.006-0.014,0.006-0.027,0.006-0.039c0.92-3.889,2.058-8.535,3.885-9.91C8.262,6.998,8.538,4.54,10.25,3.252c0.432,1.288,1.107,3.958,1.57,5.246c2.025,2.026,5.088,4.546,7.147,5.59c0.212,0.12,0.489,0.981,0.489,0.981l-0.825,1.038l-8.837-0.887c-0.2-0.02-0.394-0.028-0.594-0.028c-0.569,0-1.15,0.073-1.833,0.18c0.432-1.071,1.35-1.936,1.35-1.936s-0.855-0.519-1.505-0.605c0.187-0.432,0.681-0.989,0.799-1.138c-0.243,0.087-2.025,0.888-2.207,1.563c0.857,0.214,1.469,0.487,1.469,0.487s-0.949,0.957-1.131,2.612c0,0,2.821-0.431,4.94-0.153c0.063,0.03,0.094,0.03,0.125,0.03l1.102,0.031l3.537,5.886C15.844,22.152,15.84,22.154,15.836,22.154z"/><path fill="#F8F8F8" d="M12.001,6.691c0.832-0.801,0.951-0.92,1.751-1.689c0.063,1.532,0.031,2.333-0.063,4.203c-0.463-0.458-1.381-1.044-1.381-1.044S12.127,7.091,12.001,6.691z"/><path fill="#D71000" d="M22.802,11.999c0,2.98-1.205,5.678-3.156,7.634h-0.001c-0.563,0.564-1.187,1.066-1.863,1.495l-0.044,0.026h-0.006l-3.703-4.614l3.071,0.336c0,0,1.471,0.151,1.808,0c0.308-0.117,1.963-2.449,1.963-2.449s-4.76-3.009-6.385-4.666c0.188-2.794-0.213-6.509-0.213-6.479c-1.193,1.195-1.35,1.383-2.545,2.489c-0.52-1.688-0.769-2.269-1.289-3.958C8.87,3.102,7.675,5.277,6.817,7.829c-0.178,0.197-0.358,0.41-0.531,0.63l-0.02,0.026C6.154,8.642,6.036,8.797,5.922,8.96c-0.231,0.326-0.45,0.675-0.663,1.032c-0.15,0.257-0.299,0.52-0.438,0.788c-0.063,0.112-0.125,0.231-0.188,0.35c-0.913,1.788-1.676,3.789-2.34,5.604C1.605,15.35,1.202,13.722,1.202,12c0-2.863,1.138-5.614,3.165-7.64c2.026-2.026,4.77-3.159,7.634-3.159c0.003,0,0.007,0,0.011,0c2.981,0,5.679,1.207,7.634,3.158C21.596,6.317,22.801,9.017,22.802,11.999z"/><path d="M13.172,12.769c0.549-0.157,0.612-0.188,1.164-0.337c-0.709-0.526-1.478-1.077-2.515-0.926c-0.094,0.275-0.188,0.494-0.245,0.8C12.065,12.242,12.583,12.432,13.172,12.769z"/></svg>