<svg xmlns="http://www.w3.org/2000/svg" enable-background="new 0 0 24 24" viewBox="0 0 24 24"><path fill="#1E92C1" d="M12,0C5.377,0,0,5.377,0,12s5.381,12,12,12c6.623,0,12-5.381,12-12C24,5.377,18.623,0,12,0z M12,22.5C6.211,22.5,1.5,17.789,1.5,12S6.211,1.5,12,1.5c5.798,0,10.5,4.725,10.5,10.5C22.5,17.789,17.789,22.5,12,22.5z"/><polygon fill="#1E92C1" points="13.983 12.896 15.361 9.694 12.145 8.316 10.781 11.532"/><rect width="4.429" height="4.429" x="6.495" y="6.533" fill="#1E92C1" transform="rotate(-66.878 8.709 8.747)"/><polygon fill="#1E92C1" points="12.699 13.766 13.472 14.099 13.753 13.429 10.537 12.065 10.256 12.721 11.301 13.162 8.906 18.173 9.562 18.173 11.854 13.485 14.198 18.173 14.882 18.173 12.698 13.767"/><polygon fill="#1E92C1" points="14.826 12.872 17.371 13.955 18.468 11.41 15.909 10.327"/></svg>