<svg xmlns="http://www.w3.org/2000/svg" enable-background="new 0 0 24 24" viewBox="0 0 24 24"><path fill="#3EBEB0" d="M18.048,12L12,18.048l4.89,4.89c1.416,1.416,3.775,1.416,5.233,0l0.815-0.815c1.416-1.416,1.416-3.775,0-5.233L18.048,12z"/><path fill="#35BEEF" d="M7.11,1.062c-1.416-1.416-3.775-1.416-5.233,0L1.062,1.877c-1.416,1.416-1.416,3.775,0,5.233L12,18.048L18.048,12L7.11,1.062z"/><path fill="#0086AA" d="M1.062,16.89c-1.416,1.416-1.416,3.775,0,5.233l0.815,0.815c1.416,1.416,3.775,1.416,5.233,0l4.89-4.89L5.952,12L1.062,16.89z"/><path fill="#F3BD19" d="M22.938,7.11c1.416-1.416,1.416-3.775,0-5.233l-0.815-0.815c-1.416-1.416-3.775-1.416-5.233,0L12,5.952L18.048,12L22.938,7.11z"/><path fill="#353535" d="M12,8.611C8.997,8.611,5.952,12,5.952,12L12,18.048L18.048,12C18.048,12,15.003,8.611,12,8.611z"/><path fill="#37A595" d="M12.002,18.084l6.026-6.046l1.489,1.484l-6.026,6.046L12.002,18.084z"/></svg>