<svg xmlns="http://www.w3.org/2000/svg" enable-background="new 0 0 24 24" viewBox="0 0 24 24"><path fill="#666" d="M24,12c0.001,6.552-5.371,11.865-11.998,11.866C5.374,23.867,0.001,18.556,0,12.004V12C-0.001,5.447,5.371,0.135,11.998,0.134C18.626,0.133,23.999,5.444,24,11.996L24,12L24,12z"/><radialGradient id="a" cx="-10630.115" cy="-1336.957" r=".03" gradientTransform="matrix(0 729.4088 -647.6815 0 -865910.563 7753710.5)" gradientUnits="userSpaceOnUse"><stop offset=".259" stop-color="#fff"/><stop offset="1" stop-color="#fff" stop-opacity="0"/></radialGradient><path fill="url(#a)" d="M24,12c0.001,6.552-5.371,11.865-11.998,11.866C5.374,23.867,0.001,18.556,0,12.004V12C-0.001,5.447,5.371,0.135,11.998,0.134C18.626,0.133,23.999,5.444,24,11.996L24,12L24,12z"/><path fill="#00A54D" d="M8.954,6.803C7.63,8.409,2.079,14.937,2.572,19.351c0.343,0.434,0.72,0.84,1.119,1.224c-0.058-3.379,3.907-6.995,7.001-9.724L8.954,6.803L8.954,6.803z"/><g transform="matrix(1.0075 0 0 1.00084 1.107 -34.93)"><linearGradient id="b" x1="-10415.459" x2="-10415.497" y1="-1301.451" y2="-1301.496" gradientTransform="matrix(443.7749 0 0 432.1571 4622125.5 562481.5)" gradientUnits="userSpaceOnUse"><stop offset="0" stop-color="#97ca43"/><stop offset="1" stop-color="#97ca43" stop-opacity="0"/></linearGradient><path fill="url(#b)" d="M7.789,41.698c-1.315,1.605-6.824,8.127-6.335,12.538c0.34,0.434,0.715,0.839,1.111,1.223c-0.058-3.376,3.878-6.989,6.949-9.716L7.789,41.698z"/></g><g transform="matrix(1.0075 0 0 1.00084 .968 -34.898)"><path fill="#02A74D" d="M4.694,36.776c-0.687,0.416-1.325,0.905-1.911,1.445c1.889,0.361,3.785,2.036,4.824,3.423c0.905,1.423,1.396,2.729,2.036,4.077c0.432-0.368,0.873-0.744,1.349-1.129l-0.003-5.852c-1.408-0.881-3.735-2.04-6.271-1.965C4.711,36.78,4.699,36.772,4.694,36.776L4.694,36.776z"/><linearGradient id="c" x1="-10414.889" x2="-10414.854" y1="-1301.476" y2="-1301.553" gradientTransform="matrix(443.7749 0 0 432.1571 4621872.5 562484.188)" gradientUnits="userSpaceOnUse"><stop offset="0" stop-color="#97ca43"/><stop offset="1" stop-color="#97ca43" stop-opacity="0"/></linearGradient><path fill="url(#c)" d="M4.694,36.776c-0.687,0.416-1.325,0.905-1.911,1.445c1.889,0.361,3.785,2.036,4.824,3.423c0.905,1.423,1.396,2.729,2.036,4.077c0.432-0.368,0.873-0.744,1.349-1.129l-0.003-5.852c-1.408-0.881-3.735-2.04-6.271-1.965C4.711,36.78,4.699,36.772,4.694,36.776L4.694,36.776z"/></g><path fill="#00A54D" d="M15.05,6.807c1.32,1.608,6.852,8.141,6.362,12.559c-0.341,0.435-0.718,0.841-1.116,1.225c0.058-3.382-3.894-7.001-6.978-9.733L15.05,6.807L15.05,6.807z"/><g transform="matrix(-1.00417 0 0 1.00169 61.912 -34.932)"><linearGradient id="d" x1="-751.939" x2="-751.977" y1="-1301.639" y2="-1301.684" gradientTransform="matrix(437.9291 0 0 433.6184 329340 564463.25)" gradientUnits="userSpaceOnUse"><stop offset="0" stop-color="#97ca43"/><stop offset="1" stop-color="#97ca43" stop-opacity="0"/></linearGradient><path fill="url(#d)" d="M46.668,41.669c-1.314,1.605-6.824,8.127-6.335,12.537c0.34,0.434,0.715,0.839,1.111,1.223c-0.058-3.376,3.878-6.989,6.949-9.716L46.668,41.669z"/></g><g transform="matrix(-1.00417 0 0 1.00169 62.051 -34.9)"><path fill="#02A74D" d="M43.574,36.747c-0.688,0.416-1.325,0.905-1.912,1.445c1.889,0.361,3.785,2.036,4.824,3.424c0.905,1.423,1.397,2.729,2.036,4.077c0.432-0.369,0.873-0.744,1.349-1.129l-0.003-5.852c-1.408-0.881-3.735-2.039-6.271-1.965C43.59,36.75,43.579,36.743,43.574,36.747L43.574,36.747z"/><linearGradient id="e" x1="-751.908" x2="-751.878" y1="-1301.664" y2="-1301.712" gradientTransform="matrix(437.9291 0 0 433.6184 329329.094 564465.5)" gradientUnits="userSpaceOnUse"><stop offset="0" stop-color="#97ca43"/><stop offset="1" stop-color="#97ca43" stop-opacity="0"/></linearGradient><path fill="url(#e)" d="M43.574,36.747c-0.688,0.416-1.325,0.905-1.912,1.445c1.889,0.361,3.785,2.036,4.824,3.424c0.905,1.423,1.397,2.729,2.036,4.077c0.432-0.369,0.873-0.744,1.349-1.129l-0.003-5.852c-1.408-0.881-3.735-2.039-6.271-1.965C43.59,36.75,43.579,36.743,43.574,36.747L43.574,36.747z"/></g></svg>