<svg xmlns="http://www.w3.org/2000/svg" enable-background="new 0 0 24 24" viewBox="0 0 24 24"><polygon fill="#27AFD1" points="10.544 10.027 10.544 10.027 10.545 10.027"/><path fill="#27AFD1" d="M10.544,10.029v-0.002c-0.91,0-1.671,0.623-1.885,1.466v0.03h3.776C12.232,10.668,11.462,10.029,10.544,10.029z"/><path fill="#27AFD1" d="M12,0C5.373,0,0,5.373,0,12s5.373,12,12,12s12-5.373,12-12S18.627,0,12,0z M7.54,14.644H7.53c-0.099,0-0.192-0.041-0.267-0.116l-2.043-2.04l-2.052,2.047c-0.069,0.068-0.16,0.108-0.258,0.108c-0.202,0-0.368-0.166-0.368-0.368c0-0.099,0.04-0.191,0.111-0.263l2.04-2.05L2.655,9.915C2.58,9.846,2.542,9.753,2.542,9.654c0-0.203,0.166-0.366,0.368-0.366c0.098,0,0.188,0.037,0.258,0.105l2.055,2.048l2.048-2.045c0.069-0.071,0.162-0.108,0.26-0.108c0.211,0,0.375,0.165,0.375,0.366c0,0.098-0.029,0.188-0.104,0.258l-2.056,2.055l2.055,2.051c0.068,0.069,0.104,0.16,0.104,0.258C7.905,14.478,7.74,14.644,7.54,14.644z M12.388,12.304l0.068-0.046H8.625c0,0.019,0.003,0.037,0.006,0.057c0.02,0.105,0.045,0.211,0.083,0.31c0.194,0.531,0.765,1.275,1.829,1.29c0.33-0.003,0.631-0.086,0.9-0.229c0.21-0.12,0.391-0.271,0.525-0.428c0.045-0.058,0.09-0.112,0.12-0.168c0.18-0.229,0.405-0.186,0.54-0.083c0.164,0.135,0.18,0.391,0.045,0.57l-0.016,0.016c-0.21,0.27-0.435,0.495-0.689,0.66c-0.255,0.164-0.525,0.284-0.811,0.345c-0.33,0.09-0.645,0.104-0.975,0.06c-1.095-0.135-2.01-0.93-2.28-2.01c-0.06-0.21-0.09-0.42-0.09-0.645c0-0.855,0.421-1.695,1.125-2.205c0.885-0.615,2.085-0.66,3-0.075c0.63,0.405,1.035,1.021,1.185,1.771C13.197,11.913,12.912,12.288,12.388,12.304z M15.547,10.053c-0.796,0.101-0.882,0.476-0.882,1.404v2.787c0,0.202-0.165,0.366-0.366,0.366c-0.203,0-0.367-0.165-0.368-0.366v-4.53c0-0.204,0.16-0.366,0.362-0.366c0.166,0,0.316,0.125,0.346,0.289c0.27-0.209,0.6-0.317,0.93-0.317h0.105c0.195,0,0.359,0.165,0.359,0.368c0,0.201-0.164,0.352-0.375,0.359c0,0-0.09,0-0.164,0.008L15.547,10.053z M21.275,11.966c0,1.484-1.207,2.689-2.69,2.689c-1.485,0-2.69-1.206-2.69-2.689c0-1.485,1.207-2.691,2.69-2.691C20.07,9.275,21.275,10.482,21.275,11.966z"/><path fill="#27AFD1" d="M18.585,10.035c-1.064,0-1.931,0.865-1.931,1.931c0,1.064,0.866,1.931,1.931,1.931c1.065,0,1.931-0.867,1.931-1.931c0-1.065-0.866-1.933-1.931-1.933V10.035z M19.252,11.964c0,0.369-0.3,0.667-0.667,0.666c-0.367,0-0.666-0.297-0.666-0.666c0-0.367,0.3-0.665,0.666-0.665C18.952,11.299,19.252,11.598,19.252,11.964z"/></svg>