<svg xmlns="http://www.w3.org/2000/svg" enable-background="new 0 0 24 24" viewBox="0 0 24 24"><g fill="#4527a0"><ellipse cx="17.724" cy="20.999" rx="1.508" ry="1.5"/><path d="M22.547 1.932c-.274-.279-.645-.432-1.042-.432-.762 0-1.407.566-1.498 1.341l-2.275 14.292c-.061.394.196.769.59.85.052.011.105.017.155.017.337 0 .639-.222.729-.556l3.731-13.966c.008-.027.014-.05.017-.077.03-.078.045-.161.046-.244.011-.482-.151-.915-.453-1.223zM14.074.162c-.354.012-.703-.034-1.029-.13-.374-.106-.762.077-.911.43l-4.199 10.062-4.221-10.062c-.15-.354-.542-.54-.911-.43-.328.098-.669.132-1.025.129-.265-.011-.503.115-.648.329s-.171.484-.067.72l5.355 12.258v9.783c0 .414.338.75.754.75h1.508c.416 0 .754-.336.754-.75l.009-9.804 5.345-12.237c.102-.236.076-.507-.068-.718-.144-.213-.392-.321-.646-.33z"/></g></svg>