<svg xmlns="http://www.w3.org/2000/svg" enable-background="new 0 0 24 24" viewBox="0 0 24 24"><path fill="#1E8FB9" d="M23.997 12.085c-.046-.553-.437-1-.965-1.105l.031.029c-.061-.015-.105-.015-.166-.015-.932 0-7.584.717-7.253 1.39.331.657 4.424.986 7.344.986C23.591 13.264 24.041 12.711 23.997 12.085zM20.837 6.526l.015.003c.488-.386.611-1.08.268-1.609-.301-.467-.868-.657-1.378-.512l-.14.074c-.813.444-6.306 4.258-5.688 4.688C14.531 9.597 18.277 7.922 20.837 6.526zM2.342 19.868c-.151 0-.708-.029-.738-.046-.527-.029-1.008.315-1.144.838-.165.584.181 1.194.783 1.375.421.074.873.09 1.264.09 2.98 0 3.973-1.704 4.951-4.198l5.869-14.432c.211-.657-.165-1.344-.813-1.554-.646-.208-1.324.135-1.565.747L6.856 13.444H6.795L2.493 2.615C2.222 2.017 1.5 1.718.853 1.958.19 2.197-.156 2.928.067 3.586l5.427 13.147-.068-.002C4.674 18.866 3.967 19.868 2.342 19.868zM19.709 20.117c.512.149 1.067-.044 1.368-.511.347-.53.211-1.224-.271-1.608l.031.001c-2.574-1.395-6.321-3.069-6.938-2.645-.617.431 4.86 4.246 5.673 4.689L19.709 20.117z"/></svg>