<svg xmlns="http://www.w3.org/2000/svg" enable-background="new 0 0 24 24" viewBox="0 0 24 24"><path fill="#2A8AB2" d="M18.823,15.241c-0.837,0.005-1.577,0.441-2.197,0.823c-1.098,0.678-1.722,0.707-1.761,0.639c-0.082-0.126,0.369-1.291-0.135-2.676c-0.547-1.514-1.413-1.883-1.345-1.998c0.3-0.503,1.04-1.301,1.336-2.782c0.173-0.9,0.125-2.376-0.271-3.15c-0.072-0.14-0.731,0.242-0.731,0.242s-0.619-1.369-0.789-1.48c-0.556-0.358-1.156,1.471-1.156,1.471S10.506,6.126,9.509,7.2C9.311,7.418,9.04,7.535,8.764,7.641c-0.077,0.03-0.174,0.025-0.416,0.673c-0.372,0.992,0.625,2.096,0.625,2.096c-2.187,1.543-2.027,3.653-1.964,4.141c-1.384,1.195-0.847,2.55-0.556,3c0.227,0.339,0.508,0.174,0.508,0.174s-0.561,0.653-0.039,0.929c0.475,0.247,1.282,0.391,1.708-0.039c0.314-0.31,0.372-1.001,0.488-1.282c0.038-0.087,0.082,0.151,0.474,0.392c0,0-0.755,0.324-0.445,1.064c0.101,0.242,0.465,0.402,1.064,0.396c0.223-0.005,2.666-0.135,3.315-0.295c0.371-0.087,0.503-0.281,0.503-0.281c2.69-0.74,3.145-1.844,5.032-2.294h0.001C19.675,16.17,19.632,15.217,18.823,15.241z"/><path fill="#2A8AB2" d="M12,0C5.376,0,0,5.376,0,12s5.376,12,12,12s12-5.376,12-12S18.624,0,12,0z M19.228,17.001c-0.649,0.155-0.949,0.277-1.82,0.842c-1.229,0.793-2.536,1.238-3.01,1.388c-0.15,0.126-0.377,0.266-0.706,0.344c-0.706,0.175-3.183,0.315-3.513,0.315c-0.784,0-1.214-0.236-1.451-0.488c-0.659,0.329-1.514,0.189-2.124-0.135c-0.402-0.214-0.659-0.615-0.581-1.152c-0.3-0.319-1.375-2.109,0.27-3.852c-0.063-2.066,0.866-3.223,1.727-3.992C7.7,9.735,7.376,8.903,7.69,8.061c0.222-0.6,0.411-0.933,0.818-1.079H8.503c0.202-0.077,0.391-0.155,0.488-0.261c0.785-0.848,1.708-1.06,2.299-1.104c0.862-2.149,1.95-1.389,2.004-1.355c0.126,0.083,0.285,0.184,0.755,1.152c0.658-0.184,0.938,0.208,1.016,0.358c0.479,0.919,0.542,2.555,0.333,3.605c-0.243,1.229-0.755,2.027-1.132,2.575c0.299,0.304,1.538,1.689,1.388,3.842c0.169-0.077,0.367-0.184,0.6-0.329c0.596-0.363,1.491-0.915,2.555-0.929c0.716-0.009,1.273,0.446,1.355,1.103l0.003-0.002C20.244,16.27,19.852,16.847,19.228,17.001z"/></svg>