<svg xmlns="http://www.w3.org/2000/svg" enable-background="new 0 0 24 24" viewBox="0 0 24 24"><path fill="#212121" d="M19.627 16.468c1.087 0 2.676-.307 3.74-1.386l-1.175-1.312c-.614.626-1.659.888-2.384.888-1.339 0-2.297-.791-2.532-1.915l.001-.001V12.72H24v-.745C24 9.425 22.085 7.5 19.5 7.5c-2.676 0-4.57 2.027-4.57 4.491C14.93 14.615 16.987 16.468 19.627 16.468zM19.536 9.226L19.536 9.226c1.447.001 2.189 1.036 2.314 2.057h-4.608C17.403 10.212 18.163 9.226 19.536 9.226zM2.349 10.435c.342-.408.904-.978 1.717-.978.903 0 1.318.54 1.318 1.489v5.541h2.35v-6.065c.362-.41.903-.979 1.717-.979.903 0 1.338.544 1.338 1.493v5.527l-.005.006h2.353v-6.065c0-1.897-.99-2.879-2.69-2.879-1.41 0-2.386.805-2.91 1.546C7.156 8.034 6.307 7.523 5.06 7.523c-1.408 0-2.31.774-2.71 1.225V7.63H0v8.87h2.349V10.435z"/></svg>