<svg xmlns="http://www.w3.org/2000/svg" enable-background="new 0 0 24 24" viewBox="0 0 24 24"><path fill="#212121" d="M14.409 22.449l-1.861-1.861c-.75.511-1.655.811-2.63.811-3.778 0-5.971-4.247-3.876-7.317L4.181 12.22c-.975 1.233-1.556 2.794-1.556 4.486C2.625 22.834 9.689 26.148 14.409 22.449zM4.921 11.401l1.842 1.842c.83-.755 1.936-1.219 3.15-1.219 4.083 0 6.183 4.851 3.469 7.837l1.842 1.842c1.228-1.303 1.983-3.061 1.983-4.992 0-1.153-.268-2.241-.741-3.211l1.927-.108-.469 5.742c-.154 1.875 2.686 2.138 2.841.23l.605-7.373c.069-.857-.638-1.584-1.505-1.532l-4.973.277L17.63 7.62c.684-.778.473-1.993-.286-2.466-.009-.01-6.539-3.802-6.539-3.802C10.271 1.043 9.6 1.108 9.141 1.521L5.953 4.366C4.542 5.627 6.445 7.75 7.851 6.494l2.419-2.156L12.267 5.5l-3.53 4.017C7.269 9.756 5.952 10.431 4.921 11.401z"/><circle cx="18.328" cy="2.386" r="2.386" fill="#212121"/><polygon points="21.745 11.991 21.745 11.992 21.745 11.993"/></svg>