<svg xmlns="http://www.w3.org/2000/svg" enable-background="new 0 0 24 24" viewBox="0 0 24 24"><path fill="#4FC3F7" d="M18.62,11.999c0-3.656-2.964-6.62-6.62-6.623v0.001v0.002c-3.654,0-6.62,2.966-6.62,6.62c0,3.654,2.966,6.62,6.62,6.62S18.62,15.653,18.62,11.999z M12.878,10.44h0.993v0.356c0.144-0.125,0.296-0.233,0.46-0.323c0.148-0.08,0.314-0.12,0.484-0.12c0.182-0.004,0.36,0.045,0.514,0.14c0.153,0.1,0.27,0.244,0.34,0.414c0.19-0.177,0.37-0.314,0.54-0.41c0.17-0.096,0.34-0.145,0.515-0.145c0.136-0.002,0.27,0.023,0.396,0.075c0.115,0.044,0.22,0.116,0.3,0.21c0.09,0.106,0.16,0.23,0.2,0.364c0.045,0.142,0.066,0.328,0.066,0.553v2.076h-0.995v-0.001v-1.597c0-0.157,0-0.29-0.007-0.397c-0.002-0.09-0.02-0.18-0.052-0.263c-0.023-0.066-0.07-0.12-0.13-0.15c-0.153-0.064-0.325-0.063-0.478,0.002c-0.086,0.04-0.168,0.087-0.244,0.14v2.263h-0.993v-1.595c0-0.156-0.003-0.286-0.01-0.396c-0.003-0.09-0.02-0.18-0.05-0.264c-0.027-0.066-0.076-0.12-0.136-0.15c-0.06-0.033-0.145-0.048-0.25-0.048c-0.083,0-0.165,0.02-0.24,0.056c-0.078,0.04-0.152,0.086-0.228,0.136v2.262h-0.995V10.44z M9.138,13.623H8.143v-0.336l-0.182,0.154c-0.142,0.108-0.304,0.188-0.477,0.233c-0.082,0.02-0.202,0.035-0.352,0.035c-0.262,0.007-0.515-0.097-0.698-0.285c-0.187-0.19-0.277-0.426-0.277-0.716c0-0.238,0.046-0.427,0.14-0.574c0.1-0.15,0.24-0.27,0.405-0.348c0.205-0.09,0.423-0.152,0.646-0.18c0.25-0.033,0.516-0.06,0.803-0.078v-0.017c0-0.176-0.066-0.297-0.196-0.363c-0.13-0.07-0.322-0.102-0.58-0.102c-0.117,0-0.254,0.02-0.41,0.063c-0.158,0.044-0.308,0.1-0.458,0.164H6.42v-0.77c0.097-0.03,0.256-0.062,0.48-0.1c0.217-0.04,0.438-0.06,0.663-0.06c0.55,0,0.95,0.092,1.2,0.276c0.25,0.183,0.375,0.462,0.375,0.837V13.623z M11.658,13.682c-0.084,0.014-0.196,0.022-0.336,0.022c-0.263,0-0.506-0.033-0.723-0.1c-0.21-0.062-0.406-0.165-0.57-0.307c-0.164-0.142-0.292-0.32-0.373-0.52c-0.09-0.21-0.135-0.457-0.135-0.738c-0.008-0.27,0.042-0.535,0.146-0.78c0.09-0.204,0.224-0.384,0.392-0.53c0.165-0.134,0.355-0.233,0.56-0.29c0.22-0.066,0.447-0.096,0.675-0.096c0.37,0,0.732,0.087,1.06,0.255v0.854h-0.127c-0.048-0.043-0.096-0.085-0.147-0.124c-0.06-0.048-0.122-0.09-0.188-0.126c-0.167-0.095-0.357-0.144-0.55-0.14c-0.254,0-0.45,0.086-0.59,0.263c-0.138,0.177-0.21,0.414-0.21,0.714c0,0.32,0.075,0.56,0.225,0.715c0.15,0.157,0.347,0.235,0.592,0.235c0.11,0,0.222-0.013,0.33-0.042c0.153-0.043,0.295-0.12,0.415-0.225c0.048-0.04,0.088-0.082,0.123-0.11h0.13v0.843l0.001,0.001c-0.07,0.028-0.134,0.056-0.2,0.086c-0.074,0.03-0.15,0.058-0.23,0.08C11.834,13.646,11.742,13.666,11.658,13.682z"/><path fill="#4FC3F7" d="M24,12L12,0L0,12l12,12L24,12z M4.643,12C4.645,7.938,7.938,4.644,12,4.642c4.063,0.002,7.355,3.295,7.357,7.358c-0.002,4.063-3.294,7.355-7.357,7.357C7.938,19.355,4.645,16.063,4.643,12z"/><path fill="#4FC3F7" d="M7.434,12.25L7.434,12.25c-0.079,0.025-0.149,0.072-0.201,0.135c-0.048,0.072-0.073,0.158-0.07,0.245c0,0.15,0.038,0.252,0.12,0.308c0.077,0.056,0.194,0.082,0.352,0.082c0.087,0,0.174-0.02,0.264-0.06c0.09-0.038,0.174-0.095,0.245-0.165v-0.66c-0.168,0.015-0.303,0.03-0.405,0.045C7.634,12.19,7.532,12.214,7.434,12.25z"/></svg>