<svg xmlns="http://www.w3.org/2000/svg" enable-background="new 0 0 24 24" viewBox="0 0 24 24"><path d="M22.678 16.724c-.001.002-.003.004-.004.006-.006.01-.011.021-.017.03L22.678 16.724zM19.78 4.337c.002.001.004.003.007.005.009.005.018.01.026.015L19.78 4.337zM4.562 20.378L4.562 20.378c-.015-.007-.03-.011-.045-.018L4.562 20.378z"/><path fill="#F44336" d="M0.074,14.379c0.103,0.845,0.35,1.646,0.697,2.335c0.828,1.684,2.094,2.909,3.791,3.664c0.75,0.333,1.568,0.543,2.448,0.598C7.053,20.98,7.095,20.992,7.138,21h8.431c0.217-0.024,0.435-0.047,0.652-0.073l0.04-0.004c1.005-0.121,1.956-0.418,2.772-0.839l0.051-0.023c1.474-0.745,2.71-1.89,3.59-3.331c0.576-0.931,0.983-1.978,1.18-3.15c0.057-0.347,0.084-0.698,0.124-1.048c0.005-0.043,0.014-0.086,0.022-0.13v-0.803H24c-0.024-0.229-0.046-0.458-0.072-0.687l-0.004-0.041c-0.118-1.021-0.411-1.989-0.826-2.821l-0.023-0.053c-0.727-1.493-1.859-2.751-3.289-3.655c-0.906-0.578-1.93-0.989-3.079-1.191c-0.353-0.06-0.711-0.087-1.068-0.13C15.592,3.016,15.544,3.007,15.498,3h-0.72c-0.233,0.024-0.466,0.047-0.7,0.074l-0.041,0.004C13.029,3.2,12.073,3.5,11.254,3.922l-0.051,0.023c-0.9,0.457-1.712,1.062-2.407,1.787C8.763,5.762,8.719,5.78,8.671,5.78c-0.006,0-0.012-0.001-0.017-0.001l0.043,0.005C8.315,5.728,7.924,5.699,7.526,5.699c-0.132,0-0.264,0.003-0.376,0.009L7.134,5.709c-1.06,0.05-2.06,0.329-2.912,0.769c-1.768,0.901-3.016,2.294-3.733,4.168c-0.259,0.68-0.422,1.407-0.466,2.186C0.02,12.876,0.008,12.919,0,12.962v0.78l0.071,0.602L0.074,14.379z"/><path fill="#FFF" d="M11.832,5.551c0.79-0.432,1.677-0.71,2.644-0.792c2.421-0.183,4.456,0.641,6.074,2.487c0.844,0.966,1.372,2.101,1.617,3.366c0.087,0.45,0.134,0.914,0.134,1.39c0,0.346-0.024,0.686-0.066,0.981l-0.004,0.036c-0.178,1.375-0.743,2.628-1.572,3.634c-1.052,1.292-2.388,2.128-4,2.497c-0.845,0.192-1.697,0.218-2.555,0.102c-1.094-0.147-2.104-0.513-3-1.174c-0.239-0.177-0.464-0.372-0.674-0.582c-1.226-1.228-2.443-2.464-3.67-3.69c-0.309-0.308-0.327-0.648-0.185-0.948l0.002-0.005c0.13-0.284,0.417-0.482,0.751-0.482c0.039,0,0.078,0.002,0.111,0.007c0.211,0.027,0.374,0.147,0.521,0.297c1.101,1.125,2.207,2.245,3.305,3.373c0.856,0.879,1.889,1.404,3.086,1.564c1.945,0.259,3.598-0.353,4.918-1.833c0.722-0.811,1.148-1.781,1.33-2.861c0.271-1.61-0.104-3.06-1.086-4.34c-0.867-1.132-2.002-1.841-3.397-2.092c-1.423-0.257-2.748,0.015-3.97,0.802c-0.034,0.022-0.104,0.03-0.132,0.01c-0.445-0.329-0.917-0.62-1.41-0.867c-0.006-0.003-0.01-0.012-0.024-0.031C10.954,6.083,11.361,5.802,11.832,5.551z"/><polygon points="10.581 6.399 10.58 6.399 10.58 6.399"/><path fill="#FFF" d="M5.783,7.735c2.148-0.664,4.089-0.199,5.736,1.362c0.849,0.805,1.646,1.667,2.462,2.507c0.231,0.239,0.285,0.534,0.173,0.844c-0.114,0.316-0.367,0.47-0.683,0.516c-0.245,0.035-0.449-0.048-0.625-0.23c-0.778-0.799-1.57-1.583-2.34-2.391c-0.63-0.661-1.399-1.038-2.274-1.197C6.279,8.792,4.298,9.941,3.583,11.83c-0.907,2.394,0.522,5.115,2.983,5.68c0.495,0.114,0.998,0.112,1.5,0.1c0.006,0,0.011,0,0.017,0c0.121,0,0.229,0.053,0.303,0.137c0.496,0.489,1.001,0.967,1.502,1.449L9.881,19.19c0.033,0.03,0.065,0.061,0.107,0.1c-0.058,0.003-0.096,0.007-0.134,0.007H7.555c-2.744-0.003-5.089-1.916-5.691-4.643C1.204,11.661,2.895,8.628,5.783,7.735z"/></svg>