<svg xmlns="http://www.w3.org/2000/svg" enable-background="new 0 0 24 24" viewBox="0 0 24 24"><path fill="#132400" d="M0,2v20c0,1.105,0.895,2,2,2h20c1.105,0,2-0.895,2-2V2c0-1.105-0.895-2-2-2H2C0.895,0,0,0.895,0,2z"/><path fill="#83E603" d="M22,1c0.551,0,1,0.449,1,1v20c0,0.551-0.449,1-1,1H2c-0.551,0-1-0.449-1-1V2c0-0.551,0.449-1,1-1H22L22,1z M22,0H2C0.896,0,0,0.895,0,2v20c0,1.105,0.896,2,2,2h20c1.104,0,2-0.895,2-2V2C24,0.895,23.104,0,22,0L22,0z"/><path fill="#83E603" d="M11.716 7.983H8.962v9.235c0 .083-.033.132-.132.132H7.296c-.098 0-.131-.033-.131-.132V7.983H4.394c-.082 0-.115-.033-.099-.132l.198-1.385C4.509 6.383 4.542 6.35 4.625 6.35h6.926c.099 0 .132.033.149.132l.132 1.369C11.848 7.95 11.799 7.983 11.716 7.983zM19.467 17.349h-1.946c-.099 0-.132-.033-.165-.099-.584-.765-1.451-1.962-2.301-3.173l-.337-.505v3.662c0 .082-.017.115-.116.115h-1.55c-.116 0-.132-.033-.132-.132V6.448c0-.049.016-.099.115-.099h1.567c.066 0 .116.033.116.116v6.283.001l2.523-3.414c.066-.082.082-.115.165-.115h1.682c.099 0 .132.066.066.148-.396.511-2.21 2.754-2.804 3.48-.008.014-.012.031-.012.049s.004.035.012.05v-.001l3.2 4.271C19.583 17.283 19.566 17.349 19.467 17.349z"/></svg>