<svg xmlns="http://www.w3.org/2000/svg" enable-background="new 0 0 24 24" viewBox="0 0 24 24"><path fill="#001D25" d="M0,2v20c0,1.105,0.895,2,2,2h20c1.105,0,2-0.895,2-2V2c0-1.105-0.895-2-2-2H2C0.895,0,0,0.895,0,2z"/><path fill="#00C8FE" d="M22,1c0.551,0,1,0.449,1,1v20c0,0.551-0.449,1-1,1H2c-0.551,0-1-0.449-1-1V2c0-0.551,0.449-1,1-1H22L22,1z M22,0H2C0.896,0,0,0.895,0,2v20c0,1.105,0.896,2,2,2h20c1.104,0,2-0.895,2-2V2C24,0.895,23.104,0,22,0L22,0z"/><path fill="#00C8FE" d="M15.555 16.502c-.876 0-1.62-.183-2.05-.43-.065-.033-.08-.082-.08-.165V14.44c0-.1.048-.133.114-.084.624.413 1.352.594 2.012.594.792 0 1.122-.33 1.122-.776 0-.363-.23-.677-1.237-1.205-1.42-.68-2.014-1.37-2.014-2.527 0-1.287 1.006-2.36 2.755-2.36.86 0 1.464.132 1.794.28.082.05.1.132.1.198v1.37c0 .083-.05.133-.15.1-.444-.264-1.1-.43-1.743-.43l.004.004c-.792 0-1.056.396-1.056.726 0 .363.18.61 1.237 1.155 1.568.76 2.062 1.485 2.062 2.557C18.425 15.642 17.205 16.502 15.555 16.502zM8.602 5.314c-.99 0-1.934.017-2.578.05C5.94 5.364 5.8 5.413 5.8 5.48h.001v10.758c0 .083.032.113.115.113H7.46c.082 0 .115-.033.115-.116v-3.842c.265 0 .395.017.775.017 2.26 0 4.102-1.09 4.102-3.63C12.452 6.834 11.374 5.314 8.602 5.314zM8.385 10.808c-.397 0-.579 0-.809-.016V6.931c.182-.017.561-.033.957-.033 1.336 0 2.122.644 2.122 1.914C10.655 10.396 9.555 10.808 8.385 10.808z"/></svg>