<svg xmlns="http://www.w3.org/2000/svg" enable-background="new 0 0 24 24" viewBox="0 0 24 24"><path fill="#062600" d="M22,0H2C0.896,0,0,0.895,0,2v20c0,1.105,0.896,2,2,2h20c1.104,0,2-0.895,2-2V2C24,0.895,23.104,0,22,0z"/><path fill="#35F900" d="M19.379 16.234c-.015.083-.03.116-.146.116h-1.617-.003c-.116 0-.148-.045-.165-.143-.495-2.755-.907-4.703-1.09-6.056h-.016c-.214 1.226-.61 3.257-1.27 6.078-.033.1-.066.127-.148.127h-1.617c-.116 0-.148-.016-.18-.115L11.36 8.36c-.016-.067.018-.133.117-.133h1.617c.066 0 .116.023.132.09.627 3.546.89 5.384.99 6.11h.066c.116-.858.462-2.646 1.204-6.078.033-.1.033-.124.132-.124h1.7c.082 0 .098.04.115.123.578 3.25.957 5.3 1.056 6.126h.05c.16-1.056.38-2.48 1.084-6.144.017-.066.033-.106.116-.106h1.52c.066 0 .116.033.083.116L19.379 16.234zM5.838 5.327c-1.127 0-2.217.033-2.597.05C3.142 5.393 3.125 5.426 3.125 5.51l.006-.002v10.725c0 .082.033.132.098.132.446.016 1.668.032 2.51.032 2.225 0 5.115-1.335 5.115-5.74C10.854 7.489 9.188 5.327 5.838 5.327zM5.767 14.814c-.312 0-.559-.016-.836-.034V6.949c.28-.018.56-.038.907-.038 1.763 0 3.183 1.055 3.163 3.795C8.984 13.51 7.615 14.814 5.767 14.814z"/><path fill="#35F900" d="M22,1c0.551,0,1,0.449,1,1v20c0,0.551-0.449,1-1,1H2c-0.551,0-1-0.449-1-1V2c0-0.551,0.449-1,1-1H22L22,1z M22,0H2C0.896,0,0,0.895,0,2v20c0,1.105,0.896,2,2,2h20c1.104,0,2-0.895,2-2V2C24,0.895,23.104,0,22,0L22,0z"/></svg>