<svg xmlns="http://www.w3.org/2000/svg" enable-background="new 0 0 24 24" viewBox="0 0 24 24"><path fill="#261200" d="M0,2v20c0,1.105,0.895,2,2,2h20c1.105,0,2-0.895,2-2V2c0-1.105-0.895-2-2-2H2C0.895,0,0,0.895,0,2z"/><path fill="#EA77FE" d="M22,1c0.551,0,1,0.449,1,1v20c0,0.551-0.449,1-1,1H2c-0.551,0-1-0.449-1-1V2c0-0.551,0.449-1,1-1H22L22,1z M22,0H2C0.896,0,0,0.895,0,2v20c0,1.105,0.896,2,2,2h20c1.104,0,2-0.895,2-2V2C24,0.895,23.104,0,22,0L22,0z"/><path fill="#EA77FE" d="M8.97 5.312c-.99 0-1.93.017-2.573.05-.083 0-.1.05-.1.116v10.756c0 .083.033.116.116.116h1.544c.082 0 .115-.033.115-.116v-3.843c.264 0 .396.017.776.017 2.26 0 4.099-1.09 4.099-3.63C12.947 6.831 11.742 5.312 8.97 5.312zM8.881 10.807c-.396 0-.578 0-.809-.016V6.93c.182-.017.561-.033.957-.033 1.337 0 2.119.644 2.119 1.914C11.148 10.395 10.052 10.807 8.881 10.807zM18.272 9.636c0 .082-.026.099-.109.099-.107-.007-.231-.011-.357-.011-.532 0-1.046.075-1.534.211v6.299c0 .083-.034.116-.116.116h-1.57c-.082 0-.115-.033-.115-.116l.001-6.351c0-.115 0-.412-.049-.973 0-.083.011-.1.077-.132 1.084-.429 2.339-.683 3.653-.693h.004c.082 0 .115.016.115.099V9.636z"/></svg>