<svg xmlns="http://www.w3.org/2000/svg" enable-background="new 0 0 24 24" viewBox="0 0 24 24"><path fill="#fe5b5f" d="m18.042 23.975c-.207 0-.416-.013-.625-.039-.001 0-.002 0-.002 0-.083 0-.166-.014-.244-.041-.529-.064-1.53-.206-2.949-1.227-.967-.687-1.711-1.468-2.222-2.04-.511.571-1.256 1.353-2.226 2.043-1.452 1.044-2.468 1.167-2.901 1.219l-.002-.009c-.099.042-.204.066-.314.058-1.387.167-2.724-.243-3.773-1.154-1.12-.971-1.763-2.395-1.763-3.906 0-1.282 0-1.988 6.43-14.806l.151-.313c.891-1.848 1.814-3.76 4.388-3.76 2.594 0 3.517 1.912 4.409 3.761l.154.318c6.427 12.813 6.427 13.52 6.427 14.801 0 1.511-.643 2.935-1.763 3.906-.898.778-2.005 1.189-3.175 1.189zm-.489-1.534c.989.134 1.939-.146 2.682-.789.791-.686 1.245-1.696 1.245-2.772 0-.948 0-1.633-6.271-14.133-.001-.003-.002-.005-.004-.008l-.158-.326c-.922-1.914-1.477-2.913-3.037-2.913-1.58 0-2.134.999-3.058 2.912l-.158.326c-6.274 12.509-6.274 13.194-6.274 14.142 0 1.076.454 2.086 1.245 2.772.743.644 1.697.922 2.682.789.086-.021.17-.031.247-.041.319-.039 1.066-.128 2.208-.95.923-.656 1.638-1.435 2.104-1.963-1.994-2.575-3.006-4.788-3.006-6.577 0-2.738 2.012-4.17 4-4.17s4 1.432 4 4.17c0 1.789-1.011 4.002-3.006 6.578.466.529 1.181 1.307 2.101 1.961 1.146.824 1.892.914 2.211.952.077.009.161.019.247.04zm-5.553-12.201c-1.244 0-2.5.826-2.5 2.67 0 1.375.863 3.241 2.5 5.408 1.637-2.167 2.5-4.033 2.5-5.408 0-1.844-1.256-2.67-2.5-2.67z"/></svg>