<svg xmlns="http://www.w3.org/2000/svg" enable-background="new 0 0 24 24" viewBox="0 0 24 24"><path d="M7.89,13.27c1.17,0,3.04,0.59,5.13,1.47c-1.19,1.56-3.09,3.42-5.53,3.42c-2.79,0-3.23-1.58-3.27-2.52C4.17,14.82,4.73,13.27,7.89,13.27z"/><path fill="#00A4E8" d="M24,16.32V2c0-1.1-0.9-2-2-2H2C0.9,0,0,0.9,0,2v20c0,1.1,0.9,2,2,2h20c1.1,0,2-0.9,2-2v-1.73c-2.46-1.37-5.92-3.23-9.19-4.74c-1.72,2.36-4.51,4.34-7.97,4.34c-3.78,0-5.02-2.42-5.2-4.09c-0.21-2.09,0.8-4.37,5.34-4.37c1.89,0,4.25,0.55,6.81,1.34c0.88-1.61,1.41-3.23,1.41-3.23H5.66V8.63h4.93V6.95H4.73V5.93h5.86v-2.7h2.73v2.7h5.86v1.02h-5.86v1.68h4.75c0,0-0.81,2.49-2.05,4.87C18.64,14.39,21.4,15.43,24,16.32z"/><path fill="#00A4E8" d="M4.22,15.64c0.04,0.94,0.48,2.52,3.27,2.52c2.44,0,4.34-1.86,5.53-3.42c-2.09-0.88-3.96-1.47-5.13-1.47C4.73,13.27,4.17,14.82,4.22,15.64z"/></svg>