<svg xmlns="http://www.w3.org/2000/svg" enable-background="new 0 0 24 24" viewBox="0 0 24 24"><path fill="#2196F3" d="M14.096,14.995c0.43-0.807-0.126-1.974-1.118-1.974H9.915l4.234-7.331c0.27-0.475,0.111-1.08-0.363-1.35c-0.475-0.27-1.079-0.11-1.35,0.363l-0.44,0.758l-0.429-0.757c-0.276-0.475-0.877-0.635-1.35-0.363c-0.475,0.276-0.634,0.876-0.363,1.35l1.007,1.747l-3.223,5.584H5.12c-0.546,0-0.987,0.441-0.987,0.987c0,0.546,0.44,0.987,0.987,0.987H14.096z"/><path fill="#2196F3" d="M12,24c6.629,0,12-5.371,12-12S18.629,0,12,0S0,5.371,0,12S5.371,24,12,24z M12,1.548c5.743,0,10.452,4.65,10.452,10.452c0,5.743-4.65,10.452-10.452,10.452c-5.743,0-10.452-4.65-10.452-10.452C1.548,6.256,6.199,1.548,12,1.548z"/><path fill="#2196F3" d="M6.231 15.451L5.525 16.67c-.27.475-.112 1.08.363 1.35.475.27 1.08.11 1.35-.363l.949-1.645-.001.001C7.673 15.393 7.024 15.204 6.231 15.451zM13.451 7.993c-.586.484-1.177 1.916-.349 3.343.807 1.404 2.027 3.509 3.648 6.319.276.475.876.634 1.35.363.475-.276.634-.876.363-1.35L17.501 15h1.428c.546 0 .987-.441.987-.987 0-.546-.44-.987-.987-.987h-2.569v-.001C15.068 10.785 14.1 9.106 13.451 7.993z"/></svg>