<svg xmlns="http://www.w3.org/2000/svg" enable-background="new 0 0 24 24" viewBox="0 0 24 24"><path fill="#212121" d="M19.641 11.318v-.426c0-1.647-.484-2.139-2.089-2.139-.859 0-1.361.123-1.692.434-.338.307-.462.783-.462 1.758h-.001c0 1.133.106 1.624.424 1.95.338.346.867.473 1.898.473.927 0 1.388-.147 1.662-.523.162-.223.255-.572.255-.948v-.088H18.23c0 .419-.15.534-.672.534-.585 0-.754-.192-.754-.841 0-.03 0-.107.011-.184H19.641zM16.838 10.374c.037-.464.138-.58.679-.58.612 0 .736.088.736.56 0 .019 0 .077.011.146v.001h-1.437L16.838 10.374zM6.621 12.551h.03c.172.603.503.814 1.268.814.63 0 .99-.107 1.245-.387.341-.377.454-.88.454-2.031 0-1.064-.113-1.517-.48-1.847C8.882 8.865 8.496 8.75 7.955 8.75c-.811 0-1.065.146-1.407.803h-.03l.056-.791H5.139v6.489h1.482V12.551zM7.397 9.844c.652 0 .776.192.776 1.247h.001c0 .926-.142 1.14-.758 1.14-.664 0-.796-.211-.796-1.286C6.621 10.036 6.763 9.844 7.397 9.844zM20.35 8.761l-.004.001v4.55h1.436v-2.611c0-.307 0-.357.038-.473.086-.23.255-.357.491-.357.311 0 .387.153.387.745 0 .027 0 .085-.011.154H24c-.007-.165-.007-.3-.007-.357 0-.753-.057-1.025-.255-1.306-.162-.23-.473-.357-.878-.357-.574 0-.859.204-1.114.776h-.026l.067-.764H20.35zM10.345 8.761h-.004v6.489h1.482v-2.699h.03c.172.603.503.814 1.268.814.634 0 .994-.107 1.249-.387.341-.377.454-.88.454-2.031 0-1.064-.113-1.517-.48-1.847-.255-.234-.642-.35-1.182-.35-.811 0-1.065.146-1.407.803h-.03l.056-.791H10.345zM12.603 9.844c.652 0 .776.192.776 1.247h.001c0 .926-.142 1.14-.758 1.14-.664 0-.795-.211-.795-1.286C11.827 10.036 11.97 9.844 12.603 9.844zM0 11.934c0 1.044.406 1.432 1.542 1.432.821 0 1.133-.184 1.332-.783h.038l-.049.733h1.437v-2.93c0-.311-.075-.745-.15-.91C3.893 8.942 3.364 8.75 2.126 8.75c-1.02 0-1.456.115-1.729.453C.235 9.407.19 9.606.179 10.14h1.448c.026-.396.142-.491.567-.491.491 0 .672.157.672.591v.879h-.03c-.169-.453-.423-.56-1.256-.56l.001.001C.462 10.559 0 10.966 0 11.934zM2.118 11.445c.574 0 .735.096.735.446 0 .399-.142.514-.634.514-.635 0-.777-.097-.773-.496C1.447 11.56 1.627 11.445 2.118 11.445z"/></svg>