<svg xmlns="http://www.w3.org/2000/svg" enable-background="new 0 0 24 24" viewBox="0 0 24 24"><ellipse cx="11.998" cy="11.999" fill="#7AC989" rx="1.375" ry="1.383"/><path fill="#7AC989" d="M0.003,11.368c-0.06,1.177,0.865,2.297,2.68,3.24c0.224,0.116,0.502,0.03,0.62-0.201c0.114-0.225,0.03-0.503-0.2-0.62c-1.45-0.75-2.23-1.597-2.183-2.372C0.97,10.33,2.692,9.213,5.68,8.62c0.27,1,0.62,2.044,1.05,3.108c-1.018,1.899-1.756,3.769-2.137,5.431c-0.56,2.479-0.26,4.244,0.86,4.976c0.36,0.235,0.78,0.352,1.247,0.352c0.935,0,2.067-0.463,3.347-1.38c0.21-0.151,0.256-0.437,0.11-0.644c-0.146-0.206-0.433-0.258-0.64-0.107c-1.544,1.109-2.844,1.48-3.562,1.009c-0.76-0.498-0.926-1.954-0.46-3.999c0.32-1.394,0.907-2.947,1.708-4.546c0.2,0.441,0.41,0.881,0.63,1.321c1.425,2.812,3.17,5.257,4.91,6.884C14.129,22.323,15.417,23,16.478,23c0.35,0,0.68-0.075,0.976-0.224c1.145-0.588,1.64-2.223,1.398-4.601c-0.224-2.226-1.06-4.938-2.354-7.644c-0.11-0.228-0.384-0.325-0.61-0.217c-0.23,0.111-0.33,0.387-0.22,0.616c2.69,5.634,2.88,10.249,1.37,11.023c-1.59,0.818-5.424-2.369-8.39-8.227c-0.34-0.659-0.637-1.307-0.9-1.941c0.34-0.612,0.7-1.227,1.095-1.841c0.395-0.607,0.806-1.195,1.224-1.755h0.394c0.54,0,1.126,0.01,1.734,0.048c6.53,0.345,10.975,2.575,10.884,4.359c-0.04,0.769-0.924,1.547-2.425,2.132c-0.234,0.097-0.352,0.362-0.26,0.599c0.07,0.181,0.24,0.294,0.426,0.294c0.058,0,0.114-0.01,0.167-0.03c1.905-0.744,2.95-1.766,3.01-2.947c0.07-1.338-1.17-2.625-3.5-3.621v-0.01l-0.008-0.005c-2.183-0.935-5.116-1.539-8.25-1.705c-0.5-0.03-0.987-0.04-1.45-0.04c2.318-2.846,4.802-4.757,6.437-4.818c0.322-0.013,0.595,0.055,0.813,0.197c0.706,0.461,0.905,1.778,0.545,3.611c-0.04,0.251,0.12,0.496,0.36,0.543c0.25,0.05,0.49-0.111,0.54-0.362c0.45-2.293,0.12-3.868-0.94-4.564c-0.38-0.249-0.84-0.367-1.35-0.348c-2.05,0.077-4.94,2.313-7.59,5.753C8.45,7.31,7.364,7.406,6.372,7.564C5.726,4.65,5.982,2.558,6.966,2.055c0.138-0.073,0.285-0.111,0.457-0.125c0.697-0.054,1.66,0.397,2.71,1.277c0.194,0.161,0.486,0.141,0.646-0.06c0.163-0.196,0.134-0.483-0.06-0.649c-1.26-1.05-2.422-1.563-3.372-1.493C7.061,1.031,6.791,1.105,6.544,1.228c-1.19,0.61-1.67,2.34-1.37,4.866c0.07,0.523,0.16,1.068,0.29,1.629C2.183,8.383,0.093,9.704,0.003,11.368z M8.896,8.217c-0.28,0.392-0.554,0.799-0.82,1.217v-0.01L8.073,9.435c-0.27,0.417-0.52,0.832-0.764,1.251C7.017,9.913,6.777,9.167,6.586,8.458C7.299,8.347,8.071,8.267,8.896,8.217z"/></svg>