<svg xmlns="http://www.w3.org/2000/svg" enable-background="new 0 0 24 24" viewBox="0 0 24 24"><polygon fill="#FF9800" points="24 9.874 12 17.458 0 9.878 0 11.924 12 19.5 24 11.92"/><path fill="#FF9800" d="M16.706,12.602l1.766-1.114c-1.395-2.115-3.776-3.51-6.476-3.51S6.915,9.369,5.524,11.48h0.011c0.094-0.087,0.191-0.171,0.289-0.254C9.188,8.407,14.051,9.025,16.706,12.602z"/><path fill="#FF9800" d="M8.453 13.316c.634-.451 1.369-.709 2.153-.709 1.29 0 2.445.697 3.24 1.804l1.702-1.076c-.784-1.134-2.085-1.876-3.555-1.876C10.534 11.458 9.24 12.193 8.453 13.316zM19.567 10.795l1.83-1.152C19.391 6.546 15.93 4.5 11.996 4.5c-3.882 0-7.373 2.028-9.394 5.139.371-.398.851-.891 1.282-1.235 4.942-3.953 11.933-2.895 15.656 2.354L19.567 10.795z"/></svg>