<svg xmlns="http://www.w3.org/2000/svg" enable-background="new 0 0 24 24" viewBox="0 0 24 24"><linearGradient id="a" x1="-149.485" x2="-145.896" y1="1097.293" y2="1093.998" gradientTransform="matrix(7.8859 0 0 -8.5893 1177.161 9413.522)" gradientUnits="userSpaceOnUse"><stop offset="0" stop-color="#c06fbb"/><stop offset="1" stop-color="#6e4d9b"/></linearGradient><path fill="url(#a)" d="M15.716,4.636l-2.227,1.487l-2.295-3.439l2.227-1.487L15.716,4.636L15.716,4.636z"/><linearGradient id="b" x1="-157.508" x2="-158.483" y1="1070.331" y2="1071.662" gradientTransform="matrix(15.7008 0 0 -16.9564 2492.03 18171.002)" gradientUnits="userSpaceOnUse"><stop offset="0" stop-color="#6e4d9b"/><stop offset=".14" stop-color="#77327a"/><stop offset=".29" stop-color="#b31777"/><stop offset=".84" stop-color="#cd0f7e"/><stop offset="1" stop-color="#ed2c89"/></linearGradient><path fill="url(#b)" d="M17.527,14.967l3.806,5.703L16.8,23.695l-3.806-5.703l-0.664-0.995l4.534-3.025L17.527,14.967L17.527,14.967z"/><linearGradient id="c" x1="-151.69" x2="-148.414" y1="1105.039" y2="1100.479" gradientTransform="matrix(8.6368 0 0 -7.9404 1297.222 8765.022)" gradientUnits="userSpaceOnUse"><stop offset="0" stop-color="#c06fbb"/><stop offset="1" stop-color="#6e4d9b"/></linearGradient><path fill="url(#c)" d="M11.817,18.777l0.838,1.256l-3.451,2.303l-1.502-2.251l0.754-0.503l2.697-1.8L11.817,18.777L11.817,18.777z"/><linearGradient id="d" x1="-5.156" x2="24.82" y1="34.144" y2="9.554" gradientUnits="userSpaceOnUse"><stop offset="0" stop-color="#c06fbb"/><stop offset="1" stop-color="#6e4d9b"/></linearGradient><polygon fill="url(#d)" points="20.381 11.625 19.413 12.271 18.153 13.111 18.817 14.106 19.655 15.362 21.882 13.875"/><linearGradient id="e" x1="-9.43" x2="20.175" y1="21.722" y2="-4.366" gradientUnits="userSpaceOnUse"><stop offset="0" stop-color="#c06fbb"/><stop offset="1" stop-color="#6e4d9b"/></linearGradient><polygon fill="url(#e)" points="5.803 9.765 4.195 7.355 .744 9.657 3.039 13.096 3.792 12.593 6.489 10.794"/><linearGradient id="f" x1="-156.362" x2="-157.341" y1="1068.829" y2="1070.168" gradientTransform="matrix(15.6776 0 0 -16.9217 2472.24 18110.947)" gradientUnits="userSpaceOnUse"><stop offset="0" stop-color="#6e4d9b"/><stop offset=".14" stop-color="#77327a"/><stop offset=".29" stop-color="#b31777"/><stop offset=".84" stop-color="#cd0f7e"/><stop offset="1" stop-color="#ed2c89"/></linearGradient><path fill="url(#f)" d="M11.513,5.954L12.2,6.983l-4.534,3.025L6.98,8.98l-3.77-5.65l4.534-3.025L11.513,5.954L11.513,5.954z"/><linearGradient id="g" x1="-149.336" x2="-145.748" y1="1097.488" y2="1093.515" gradientTransform="matrix(7.8867 0 0 -8.5893 1177.294 9413.522)" gradientUnits="userSpaceOnUse"><stop offset="0" stop-color="#c06fbb"/><stop offset="1" stop-color="#6e4d9b"/></linearGradient><path fill="url(#g)" d="M14.749,5.282l-1.26,0.841l-0.686-1.028l-1.609-2.41l2.228-1.487l2.295,3.439L14.749,5.282L14.749,5.282z"/><rect width="1.542" height="1.542" x="1.522" y="5.431" fill="#9E61AD" transform="rotate(-33.716 2.293 6.201)"/><rect width="1.542" height="1.542" x="6.144" y="20.804" fill="#8053A3" transform="rotate(-33.716 6.914 21.574)"/><linearGradient id="h" x1="-165.994" x2="-165.541" y1="1055.721" y2="1056.169" gradientTransform="matrix(37.6274 7.5077 7.4772 -37.4744 -1646.105 40827.672)" gradientUnits="userSpaceOnUse"><stop offset="0" stop-color="#6e4d9b"/><stop offset=".14" stop-color="#77327a"/><stop offset=".53" stop-color="#b31777"/><stop offset=".79" stop-color="#cd0f7e"/><stop offset="1" stop-color="#ed2c89"/></linearGradient><path fill="url(#h)" d="M3.754,21.797L0,16.125L20.063,2.706L24,8.287L3.754,21.797L3.754,21.797z"/></svg>