<svg xmlns="http://www.w3.org/2000/svg" enable-background="new 0 0 24 24" viewBox="0 0 24 24"><path fill="#2219D6" d="M20.086 16.827l.001-.011c0 0-2.979-2.309-4.717-4.798-2.356-3.676-5.704-2.179-6.822-.316-1.118 1.882-2.855 3.061-3.099 3.376-.25.31-3.593 2.119-2.849 5.418.749 3.299 3.354 3.239 3.354 3.239s1.916.19 4.152-.31c2.236-.5 4.152.12 4.152.12s5.197 1.749 6.636-1.61C22.316 18.566 20.086 16.827 20.086 16.827zM15.355 7.661l.008-.007c1.927.26 3.156-1.799 3.406-3.359.25-1.549-.998-3.359-2.356-3.669-1.367-.316-3.054 1.873-3.224 3.299C13.009 5.674 13.439 7.414 15.355 7.661zM22.99 10.279l-.008.003c0-.746-.612-2.992-2.905-2.992-2.291 0-2.605 2.119-2.605 3.619 0 1.43.118 3.419 2.979 3.359C23.301 14.198 22.99 11.029 22.99 10.279zM4.329 12.646v.001C6.934 12.085 6.574 8.964 6.5 8.282c-.128-1.05-1.364-2.887-3.038-2.739C1.356 5.729 1.049 8.782 1.049 8.782.762 10.192 1.729 13.207 4.329 12.646zM9.167 7.409L9.165 7.408c1.437 0 2.599-1.659 2.599-3.709C11.764 1.659 10.606 0 9.168 0 7.731 0 6.562 1.65 6.562 3.7 6.562 5.749 7.73 7.409 9.167 7.409z"/></svg>