<svg xmlns="http://www.w3.org/2000/svg" enable-background="new 0 0 24 24" viewBox="0 0 24 24"><polygon points="9.203 18.737 9.203 18.737 9.198 18.732"/><polygon points="13.375 15.112 13.374 15.112 13.374 15.112"/><path d="M23.925 12.839c.001.007 0 .014.001.02.001.006.003.012.003.018L23.925 12.839zM22.897 10.068c.005.008.009.017.015.026.001.001.002.002.002.003L22.897 10.068z"/><path fill="#1976D2" d="M15.752,10.418c-0.009,0-0.016,0-0.025,0c-0.835,0-1.599,0.298-2.188,0.79c-0.592,0.5-0.984,1.206-1.03,2.006h0.001c-0.045,0.822,0.285,1.584,0.865,2.151c0.61,0.582,1.435,0.939,2.344,0.939c0.011,0,0.022,0,0.032,0c0,0,0.001,0,0.002,0c0.011,0,0.022,0,0.033,0c0.909,0,1.734-0.357,2.341-0.938c0.58-0.567,0.91-1.33,0.865-2.153c-0.045-0.799-0.436-1.505-1.028-2.005C17.383,10.718,16.602,10.418,15.752,10.418z"/><path fill="#FF9800" d="M22.088,18.965c0.701-0.767,1.247-1.69,1.577-2.709l0.015-0.053c0.203-0.624,0.32-1.342,0.32-2.087c0-0.341-0.027-0.676-0.073-1.004c-0.152-1.028-0.504-1.951-1.015-2.764c-0.504-0.797-1.118-1.474-1.832-2.027l-0.018-0.013h0.002l-7.518-5.772c-0.492-0.378-1.319-0.376-1.86,0.002c-0.547,0.382-0.609,1.015-0.123,1.415l-0.001,0.001l3.126,2.543l-9.543,0.01C4.357,6.508,3.6,7.025,3.45,7.679c-0.154,0.665,0.38,1.217,1.2,1.22v0.002l4.83-0.01l-8.654,6.642c-0.813,0.622-1.075,1.658-0.563,2.313c0.52,0.667,1.625,0.668,2.447,0.004l4.704-3.849c0,0-0.069,0.52-0.063,0.831l-0.002-0.001c0.006,0.314,0.106,0.922,0.256,1.398c0.345,1.071,0.89,1.992,1.598,2.762c0.764,0.837,1.69,1.511,2.73,1.975l0.052,0.021c1.062,0.48,2.303,0.76,3.609,0.76c0.017,0,0.034,0,0.051,0c0.001,0,0.002,0,0.003,0c0.004,0,0.009,0,0.015,0c1.3,0,2.534-0.279,3.649-0.777c1.089-0.491,2.013-1.167,2.77-1.998L22.088,18.965z M20.471,14.954c-0.238,0.631-0.588,1.17-1.031,1.617l-0.002,0.001c-0.97,0.988-2.326,1.548-3.795,1.55c-1.47,0.004-2.827-0.552-3.797-1.538c-0.446-0.448-0.798-0.989-1.026-1.591l-0.01-0.031c-0.16-0.431-0.252-0.929-0.252-1.448c0-0.752,0.195-1.458,0.535-2.073c0.303-0.538,0.687-0.992,1.143-1.362l0.009-0.007c0.942-0.768,2.141-1.183,3.396-1.185s2.455,0.41,3.398,1.175c0.48,0.391,0.87,0.854,1.152,1.367c0.279,0.492,0.465,1.072,0.521,1.689l0.001,0.016c0.01,0.109,0.016,0.236,0.016,0.364C20.73,14.01,20.638,14.499,20.471,14.954z"/><path d="M19.359,20.698c-0.015,0.007-0.031,0.011-0.047,0.018c-0.003,0.001-0.006,0.003-0.009,0.005L19.359,20.698z"/></svg>