<svg xmlns="http://www.w3.org/2000/svg" enable-background="new 0 0 24 24" viewBox="0 0 24 24"><path fill="#ff7043" d="m5.945 23.872c.793.145 10.57.177 11.572.042 1.741-.235 3.108-.937 4.388-2.245.927-.949 1.505-1.972 1.886-3.328.263-.943.241-7.652.134-8.129l-.001.001c-.096-.429-.365-.825-.67-.991-.096-.054-.696-.118-1.339-.145-1.077-.048-1.194-.07-1.537-.268-.541-.317-.686-.66-.692-1.581-.011-3.265-2.746-6.163-5.7-7.063-.317-.096-1.023-.129-3.391-.155-3.718-.042-4.543.032-5.807.536-2.33.921-4.003 2.883-4.613 5.391-.112.471-.139 1.227-.166 5.567-.032 5.439.006 6.237.343 7.314.835 2.659 3.209 4.625 5.593 5.054zm11.262-8.471c.648.606.509 1.671-.263 2.112v-.001l-.798.129-4.152.048c-3.648.042-4.677-.022-4.87-.107-.381-.166-.74-.627-.798-1.039-.059-.391.139-.927.439-1.2.381-.343.546-.353 5.213-.359 4.8-.007 4.774-.007 5.229.417zm-10.54-8.594.001-.002c.418-.423.536-.439 3.15-.439 2.352 0 2.432.006 2.775.182.498.251.718.606.718 1.174 0 .509-.203.868-.659 1.158-.247.155-.391.166-2.695.177-1.421.011-2.557-.021-2.722-.064-.89-.251-1.222-1.527-.568-2.186z"/></svg>