<svg xmlns="http://www.w3.org/2000/svg" enable-background="new 0 0 24 24" viewBox="0 0 24 24"><path fill="#212121" d="M0.213,18.644l11.36,5.246c0.284,0.146,0.568,0.146,0.855,0l11.356-5.246c0.288-0.108,0.288-0.234,0-0.376v-0.002l-2.717-1.235c-0.284-0.141-0.568-0.141-0.852,0l-7.787,3.59c-0.284,0.141-0.569,0.141-0.854,0l-7.787-3.589c-0.282-0.141-0.568-0.141-0.852,0l-2.723,1.235C-0.071,18.41-0.071,18.536,0.213,18.644L0.213,18.644z"/><path fill="#212121" d="M0.213,12.21l11.36,5.254c0.284,0.105,0.568,0.105,0.855,0l11.356-5.252c0.288-0.142,0.288-0.284,0-0.428v-0.003l-2.717-1.232c-0.284-0.145-0.568-0.145-0.852,0l-7.787,3.586c-0.284,0.145-0.569,0.145-0.854,0L3.787,10.55c-0.282-0.145-0.568-0.145-0.852,0l-2.723,1.233C-0.071,11.925-0.071,12.067,0.213,12.21L0.213,12.21z"/><path fill="#212121" d="M0.214,5.731L0.214,5.731l11.359,5.252c0.284,0.143,0.568,0.143,0.855,0l11.356-5.247c0.288-0.144,0.288-0.27,0-0.377L12.427,0.105c-0.282-0.141-0.569-0.141-0.852,0L0.214,5.355C-0.071,5.463-0.071,5.588,0.214,5.731L0.214,5.731z"/></svg>