<svg xmlns="http://www.w3.org/2000/svg" enable-background="new 0 0 24 24" viewBox="0 0 24 24"><g fill="#03a9f4"><path d="m22.82 7.118c1.416 2.709 1.564 6.032.41 8.86-2.727 6.795-11.58 8.982-17.177 4.216-.915-.74-.905-.97-2.234-.97-1.126-.007-2.252.176-3.376.061-.178-.039-.455-.081-.441-.319-.054-.667 1.622-1.121 2.522-1.939.817-.758.228-1.103-.201-3.6-.561-3.399.79-7.003 3.353-9.296 5.194-4.853 13.867-3.383 17.144 2.987zm-13.271-1.57c-.339.06-.711-.013-1.025.155.4 3.924.324 9.709.106 11.686-.053.237.258.247.417.256.863-.003 1.731.029 2.59-.044.16-.191.168-.462.283-.679.338.208.636.489 1.025.607 2.501.839 4.982-.922 5.106-3.751.168-3.25-1.986-5.079-4.623-4.591-.559.101-1.028.436-1.432.815-.186.002-.159-.207-.169-.336.016-3.376.216-3.467.122-4.235-.798-.084-1.602.069-2.4.117z"/><path d="m12.976 11.734c1.791-.359 2.538 1.8 1.501 2.907-.66.691-1.999.565-2.457-.296-.511-.907-.168-2.376.956-2.611z"/></g></svg>