<svg xmlns="http://www.w3.org/2000/svg" enable-background="new 0 0 24 24" viewBox="0 0 24 24"><polygon fill="#FFEB3B" points="7.58 23.5 16.361 23.5 19.255 5.822 4.684 5.822"/><path fill="#212121" d="M16.786,24H7.155L4.096,5.322h15.748L16.786,24z M8.004,23h7.932l2.73-16.678H5.273L8.004,23z"/><polygon fill="#FAFAFA" points="20 5.822 4 5.822 4 3.299 5.777 3.299 20 3.299"/><path fill="#212121" d="M20.5,6.322h-17V2.799h17V6.322z M4.5,5.322h15V3.799h-15V5.322z"/><polygon fill="#FAFAFA" points="6.975 .5 16.913 .5 18.111 3.3 5.777 3.299"/><path fill="#212121" d="M18.869,3.8L5.02,3.799L6.645,0h10.598L18.869,3.8z M6.535,2.799L17.354,2.8L16.583,1H7.305L6.535,2.799z"/><polygon fill="#FAFAFA" points="4.29 10.3 19.601 10.299 18.163 18.03 5.728 18.03"/><path fill="#212121" d="M18.579,18.53H5.312L3.689,9.8l16.514-0.001L18.579,18.53z M6.144,17.53h11.604L19,10.799L4.892,10.8L6.144,17.53z"/></svg>