<svg xmlns="http://www.w3.org/2000/svg" enable-background="new 0 0 24 24" viewBox="0 0 24 24"><path fill="#01D031" d="M3.415,23.579L3.45,23.59C4.75,24,5.95,24,8.35,24h7.28c2.41,0,3.61,0,4.9-0.4c1.427-0.527,2.533-1.634,3.049-3.026l0.011-0.035C24,19.238,24,18.037,24,15.637V8.384c0-2.411,0-3.612-0.41-4.912c-0.527-1.422-1.629-2.524-3.015-3.04L20.54,0.42C19.23,0,18.04,0,15.62,0H8.36c-2.4,0-3.61,0-4.9,0.4C2.037,0.929,0.935,2.035,0.421,3.426L0.41,3.461C0,4.762,0,5.962,0,8.363v7.273c0,2.411,0,3.601,0.4,4.902C0.927,21.96,2.029,23.063,3.415,23.579z M6.559,15.777l1-0.97c0.087-0.082,0.205-0.132,0.335-0.132c0.13,0,0.248,0.05,0.335,0.133c0.91,0.86,2.13,1.341,3.39,1.321c1.3,0,2.17-0.55,2.17-1.421s-0.88-1.1-2.54-1.721c-1.76-0.63-3.43-1.521-3.43-3.601c0-2.421,2.01-3.601,4.39-3.712l0.25-1.23c0.048-0.219,0.24-0.38,0.47-0.38c0.004,0,0.007,0,0.011,0h1.779l0.1,0.01c0.26,0.06,0.43,0.31,0.37,0.57l-0.27,1.371c0.9,0.3,1.75,0.77,2.48,1.391l0.02,0.02c0.19,0.2,0.19,0.5,0,0.68l-0.929,0.93c-0.089,0.083-0.209,0.134-0.341,0.134c-0.126,0-0.242-0.047-0.33-0.124h0.001c-0.863-0.732-1.989-1.178-3.22-1.18c-0.97,0-1.94,0.32-1.94,1.211c0,0.9,1.04,1.2,2.24,1.651c2.1,0.7,3.84,1.581,3.84,3.642c0,2.241-1.74,3.782-4.58,3.952l-0.26,1.201c-0.048,0.224-0.244,0.39-0.48,0.39H9.63l-0.09-0.01c-0.225-0.052-0.391-0.251-0.391-0.488c0-0.036,0.004-0.071,0.011-0.105l-0.001,0.003l0.28-1.271c-1.124-0.288-2.096-0.834-2.884-1.574l0.004,0.003v-0.01c-0.087-0.087-0.141-0.207-0.141-0.34S6.472,15.864,6.559,15.777z"/></svg>