<svg xmlns="http://www.w3.org/2000/svg" enable-background="new 0 0 24 24" viewBox="0 0 24 24"><path fill="#0B74B9" d="M23.5,24V0h-5.21v9.988h-2.066c-1.061,0-1.922,0.86-1.922,1.92s0.861,1.92,1.922,1.92h2.066V24H23.5z"/><path fill="#0B74B9" d="M8.717,3.422c-4.392,0-8.217,3.489-8.217,8.456c0,4.766,3.478,8.532,8.274,8.532c3.859,0,5.578-2.017,6.547-3.129l-2.834-2.969c0,0.001-1.416,1.794-3.58,1.794c-2.131,0-3.663-1.794-3.663-4.266c0-2.148,1.469-4.095,3.492-4.095c2.277,0,3.548,1.857,3.548,1.857l2.942-3.298C14.316,5.242,12.626,3.422,8.717,3.422z"/></svg>