<svg xmlns="http://www.w3.org/2000/svg" enable-background="new 0 0 24 24" viewBox="0 0 24 24"><path fill="#F89A3E" d="M6.809,1.175c1.714-0.827,3.623-1.238,5.525-1.167c3.226,0.053,6.393,1.522,8.549,3.928c1.903,2.082,3.027,4.859,3.111,7.683c-0.361-0.373-0.629-0.821-0.947-1.228c-1.56-2.059-3.314-3.997-5.383-5.553c-1.424-1.051-3.026-1.959-4.797-2.223c-1.52-0.27-3.15,0.239-4.245,1.332C7.173,5.396,6.572,7.449,6.24,9.422c-0.516,3.736-0.079,7.54,0.751,11.196c-1.374-0.288-2.596-1.204-3.249-2.452c-0.941-1.76-0.98-3.837-0.79-5.78C3.42,8.418,5.005,4.696,6.809,1.175z"/><path fill="#E34A34" d="M0.632,8.135c1.011-3.031,3.303-5.593,6.177-6.96C5.005,4.696,3.42,8.418,2.952,12.385c-0.189,1.943-0.151,4.021,0.79,5.78c0.653,1.249,1.875,2.164,3.249,2.452c2.097,0.449,4.247-0.15,6.179-0.963c2.522-1.101,4.838-2.649,6.941-4.418c1.388-1.07,2.589-2.354,3.886-3.526c0.048,2.13-0.464,4.279-1.514,6.135c-0.159,0.096-0.318,0.193-0.469,0.302c-2.658,2.034-5.509,3.858-8.608,5.138c-0.601,0.26-1.235,0.434-1.827,0.714h-0.151c-2.619-0.093-5.186-1.111-7.183-2.81c-2.165-1.821-3.642-4.436-4.1-7.232C-0.139,12.015-0.018,9.996,0.632,8.135z"/><path fill="#9C350B" d="M8.622 3.946c1.095-1.093 2.725-1.602 4.245-1.332 1.771.264 3.373 1.172 4.797 2.223 2.069 1.556 3.823 3.495 5.383 5.553.318.407.586.855.947 1.228.001.023.001.068.003.092-1.297 1.172-2.498 2.456-3.886 3.526.248-1.197.005-2.452-.55-3.527-.588-1.138-1.446-2.115-2.394-2.962C14.689 6.567 11.676 5.119 8.622 3.946zM22.013 18.147c.151-.109.31-.206.469-.302C20.558 21.4 16.722 23.806 12.7 24h-1.121c.592-.28 1.226-.455 1.827-.714C16.505 22.005 19.355 20.182 22.013 18.147z"/><g><path fill="#62C9D3" d="M11.235,9.08c0.857-0.184,1.803-0.062,2.516,0.478c0.767,0.544,1.229,1.469,1.249,2.409c-0.005,0.973-0.477,1.951-1.29,2.495c-0.881,0.635-2.113,0.71-3.073,0.215c-0.864-0.441-1.494-1.326-1.607-2.299C8.809,10.922,9.823,9.439,11.235,9.08z"/></g></svg>