<svg xmlns="http://www.w3.org/2000/svg" enable-background="new 0 0 24 24" viewBox="0 0 24 24"><path fill="#1077C5" d="M.528 7.802C.423 7.847.335 7.908.264 7.988c-.071.08-.132.168-.185.265C.026 8.349.009 8.46.026 8.583H0l.026 7.709 6.74 7.153L6.792 7.736H.845C.739 7.736.633 7.758.528 7.802zM23.974 15.418V7.708l-6.793-7.153.026 15.709h5.921c.123 0 .233-.022.33-.066.097-.044.19-.106.278-.185s.15-.168.185-.265c.035-.097.062-.207.079-.331H23.974zM7.717 23.153c.018.124.044.239.079.345.035.106.096.194.185.265s.181.128.278.172C8.355 23.978 8.463 23.999 8.584 24h7.697l7.11-6.781H7.743L7.717 23.153zM16.229.848c.017-.124 0-.239-.053-.345-.053-.106-.11-.194-.172-.265-.062-.071-.15-.128-.264-.172C15.626.022 15.516 0 15.41 0l-.027.001H7.717L.554 6.782h15.701L16.229.848z"/></svg>