<svg xmlns="http://www.w3.org/2000/svg" enable-background="new 0 0 24 24" viewBox="0 0 24 24"><path fill="#086287" d="M8.333,24c-0.128,0-0.257-0.013-0.385-0.04c-1.249-0.264-1.762-1.732-1.816-1.899L0.639,5.228c-0.353-1.08-0.258-1.931,0.28-2.53C1.772,1.75,3.3,2.042,3.472,2.078l17.28,3.677c1.11,0.236,1.8,0.745,2.05,1.511c0.396,1.215-0.618,2.393-0.735,2.524L10.278,22.935C9.644,23.643,8.991,24,8.333,24z M2.743,3.798c-0.234,0-0.44,0.04-0.492,0.098C2.228,3.923,2.17,4.144,2.342,4.672l5.492,16.833c0.113,0.331,0.368,0.678,0.483,0.701c0.031,0.009,0.255-0.053,0.627-0.467L20.733,8.594c0.217-0.248,0.407-0.647,0.365-0.772c-0.011-0.034-0.175-0.198-0.719-0.314L3.103,3.832C2.986,3.809,2.861,3.798,2.743,3.798z"/><path fill="#81C459" d="M6.131,22.061l-0.317-0.968c-0.131,0.04-0.2,0.035-0.216,0.027c-0.101-0.053-0.251-0.456-0.267-0.805l-0.029-0.792l-0.232-6.488L4.755,4.183L3.101,3.831C3.053,3.82,3.003,3.812,2.949,3.81l0.107,3.056l0.232,6.48l0.251,7.032c0.008,0.176,0.093,1.731,1.221,2.325c0.272,0.144,0.563,0.216,0.875,0.216c0.261,0,0.536-0.051,0.824-0.155C6.256,22.426,6.152,22.13,6.131,22.061z M22.571,9.047c-0.208,0.403-0.451,0.685-0.504,0.744l-0.6,0.669c0.248,0.176,0.309,0.301,0.312,0.331c0.005,0.133-0.288,0.469-0.565,0.648l-1.44,0.909l-5.555,3.507l-6.821,4.309l0.437,1.341c0.045,0.133,0.112,0.267,0.187,0.384l1.813-1.144l5.552-3.509l6.784-4.283c0.149-0.093,1.445-0.949,1.397-2.229C23.547,10.085,23.211,9.522,22.571,9.047z M19.851,9.578l0.883-0.984c0.107-0.123,0.208-0.283,0.277-0.429l-1.619-0.867l-5.693-3.043L6.496,0.402C6.344,0.319,4.955-0.385,3.875,0.29C3.328,0.634,3.008,1.21,2.928,2.012c0.283,0.013,0.488,0.053,0.544,0.067L4.696,2.34C4.712,1.967,4.797,1.823,4.821,1.81c0.024-0.016,0.067-0.021,0.12-0.021c0.173,0,0.475,0.072,0.715,0.195l1.739,0.931l5.685,3.043L19.851,9.578z M3.101,3.831C3.053,3.82,3.003,3.812,2.949,3.81l0.107,3.056l2.013,6.168L4.755,4.183L3.101,3.831z"/></svg>