<svg xmlns="http://www.w3.org/2000/svg" enable-background="new 0 0 24 24" viewBox="0 0 24 24"><path fill="#05A4ED" d="M1.5,12c0,6.627,5.298,12,11.835,12c0.003,0,0.005,0,0.007,0c2.113,0,4.095-0.563,5.747-1.517l-2.656-2.695l0.053-0.02c-0.968,0.409-2.033,0.635-3.15,0.635h-0.001c-4.577,0-8.287-3.78-8.287-8.44c0-4.66,3.71-8.44,8.287-8.44c1.115,0.001,2.178,0.226,3.092,0.613l2.611-2.65C17.347,0.54,15.403,0,13.335,0C6.799,0,1.5,5.373,1.5,12z"/><path fill="#212121" d="M13.277,9.961c-1.063,0-1.925,0.878-1.925,1.96c0,0.539,0.214,1.028,0.562,1.385c0.346,0.355,0.829,0.576,1.364,0.577c0.535-0.001,1.017-0.222,1.364-0.577c0.362-0.373,0.563-0.869,0.563-1.385C15.205,10.839,14.341,9.961,13.277,9.961z"/><polygon fill="#212121" points="17.064 14.065 15.506 15.642 20.944 21.157 22.5 19.578"/><polygon fill="#212121" points="22.476 4.311 20.919 2.734 15.481 8.248 15.48 8.248 17.038 9.825"/></svg>