<svg xmlns="http://www.w3.org/2000/svg" enable-background="new 0 0 24 24" viewBox="0 0 24 24"><path fill="#01ACD7" d="M11.223 2.711c-.326-1.016-1.079-1.834-2.025-2.194C8.293.19 7.247.001 6.159.001S4.025.19 3.055.537l.065-.02C2.106.909 1.355 1.728 1.092 2.743.875 3.504.75 4.378.75 5.281c0 .882.123 1.735.347 2.547.329 1.011 1.078 1.827 2.023 2.186.98.36 1.994.492 3.039.492s2.058-.197 3.039-.492c.996-.353 1.75-1.163 2.02-2.172l.005-.022c.033-.131.065-.295.131-.426L8.25 5.953C8.217 6.149 8.185 6.313 8.119 6.51 7.957 7.034 7.499 7.46 6.943 7.591 6.707 7.638 6.436 7.665 6.159 7.665c-.27 0-.534-.027-.79-.076C4.799 7.486 4.347 7.066 4.2 6.52L4.198 6.51c-.125-.372-.196-.8-.196-1.245 0-.436.071-.855.199-1.248.165-.522.62-.946 1.174-1.078C5.611 2.892 5.882 2.865 6.16 2.865c.27 0 .534.027.79.076.571.103 1.022.523 1.168 1.07l.002.01c.098.425.164.818.164 1.211h3.298C11.582 4.381 11.452 3.529 11.223 2.711zM1.109 7.887c-.005-.019-.007-.04-.012-.059C1.096 7.825 1.094 7.823 1.093 7.82L1.109 7.887zM1.109 19.122c-.005-.019-.007-.04-.012-.059-.001-.003-.003-.005-.004-.008L1.109 19.122zM12.777 7.854c-.005-.019-.007-.04-.012-.059-.001-.003-.003-.005-.003-.008L12.777 7.854zM23.249 5.265c0-.852-.132-1.703-.359-2.555-.327-1.016-1.078-1.834-2.026-2.194C19.958.189 18.913 0 17.824 0c-1.089 0-2.134.189-3.104.536l.065-.02c-.996.352-1.751 1.163-2.02 2.172L12.76 2.71c-.218.761-.343 1.635-.343 2.538 0 .882.124 1.735.348 2.547.327 1.011 1.077 1.827 2.022 2.186.824.314 1.777.495 2.773.495.094 0 .188-.002.28-.005h-.014c1.047 0 2.058-.196 3.039-.491.996-.353 1.751-1.163 2.022-2.172l.005-.022c.228-.819.359-1.67.359-2.522L23.249 5.265zM19.948 5.265c0 .393-.065.852-.195 1.212-.164.524-.622.95-1.177 1.081-.235.047-.507.074-.784.074-.27 0-.533-.027-.789-.076-.571-.102-1.023-.522-1.169-1.069l-.002-.01c-.125-.372-.197-.8-.197-1.245 0-.437.071-.856.199-1.25.164-.522.62-.945 1.175-1.076.236-.047.507-.074.784-.074.27 0 .533.028.789.076.571.103 1.022.523 1.169 1.069l.002.01c.13.458.195.884.195 1.277V5.265zM11.206 13.911c.005.019.007.04.012.059.001.003.003.005.004.008L11.206 13.911zM18.607 18.89c-.235.047-.507.074-.784.074-.271 0-.535-.028-.791-.077-.098-.031-.224-.063-.32-.096l1.111 3.079c1.047 0 2.058-.197 3.039-.491.996-.353 1.75-1.163 2.022-2.172l.005-.022c.218-.761.342-1.635.342-2.538 0-.882-.123-1.735-.347-2.547-.329-1.012-1.078-1.827-2.023-2.187-.905-.327-1.951-.516-3.039-.516-1.089 0-2.134.189-3.104.536l.065-.02c-1.014.263-1.765 1.082-2.092 2.098h.002c-.225.765-.356 1.644-.359 2.554V24h3.3v-7.468c0-.393.065-.852.196-1.212.163-.524.621-.95 1.177-1.081.236-.047.507-.074.784-.074.27 0 .533.028.789.077.571.103 1.022.523 1.169 1.069l.002.01c.125.372.196.8.196 1.245 0 .436-.071.855-.198 1.248C19.584 18.335 19.128 18.76 18.607 18.89z"/><path fill="#01ACD7" d="M11.217 19.079l.006-.024c.218-.761.342-1.635.342-2.538 0-.882-.123-1.735-.347-2.547-.328-1.012-1.078-1.827-2.022-2.187-.905-.327-1.951-.516-3.039-.516-1.088 0-2.134.189-3.104.536l.065-.02c-.996.353-1.751 1.164-2.021 2.173l-.005.022c-.218.761-.342 1.635-.342 2.538 0 .882.123 1.735.347 2.547.329 1.011 1.078 1.827 2.023 2.185.905.327 1.951.516 3.039.516s2.134-.189 3.104-.536l-.065.02C10.173 20.864 10.914 20.068 11.217 19.079zM8.282 16.532c0 .393-.066.852-.197 1.212-.183.538-.621.945-1.165 1.079l-.011.002c-.235.047-.507.074-.784.074-.27 0-.534-.027-.79-.076C4.764 18.72 4.313 18.3 4.166 17.754l-.002-.01c-.125-.372-.195-.8-.195-1.245 0-.436.071-.855.198-1.248.182-.537.619-.943 1.164-1.075l.011-.002C5.577 14.127 5.848 14.1 6.126 14.1c.27 0 .534.028.79.077.571.103 1.021.523 1.168 1.069l.002.01C8.217 15.682 8.283 16.107 8.282 16.532L8.282 16.532zM23.172 14.041c.005.019.007.04.012.059.001.003.003.005.004.008L23.172 14.041z"/></svg>