<svg xmlns="http://www.w3.org/2000/svg" enable-background="new 0 0 24 24" viewBox="0 0 24 24"><path fill="#1B3C4D" d="M.153 21.462h16.184c.003 0 .005 0 .007 0 .052 0 .098-.023.129-.059.017-.018.037-.053.037-.113V2.667c-.017-.052-.031-.084-.047-.119h-.001l-.01.001V2.534C16.433 2.517 16.377 2.5 16.337 2.5H.096C.04 2.516 0 2.573 0 2.649V21.31c0 .001 0 .002 0 .003 0 .052.021.097.056.13C.078 21.462.115 21.462.153 21.462zM1.82 4.47c0-.076.04-.129.096-.149h12.639c.059.016.098.076.098.149v15.035c0 .077-.038.134-.096.153H1.915c-.058-.017-.096-.079-.096-.152l-.002-.001L1.82 4.47zM24 19.836c0-.104-.057-.165-.173-.165V19.66h-5.595c-.094 0-.17.058-.17.17v1.502c0 .093.058.168.172.168h5.594c.096 0 .172-.044.172-.163V19.836z"/><path fill="#1B3C4D" d="M6.948,17.783c1.2,0,2.115-0.476,2.745-1.205c0.045-0.073,0.06-0.164-0.015-0.224l-1.037-0.907c-0.073-0.047-0.163-0.047-0.224,0.027c-0.39,0.446-0.795,0.684-1.454,0.684c-0.706,0-1.245-0.342-1.47-1.026c-0.136-0.386-0.166-0.862-0.166-1.47c0-0.61,0.045-1.058,0.18-1.458c0.24-0.653,0.766-0.998,1.486-0.998c0.65,0,1.014,0.175,1.396,0.613c0.058,0.074,0.153,0.093,0.23,0.035l1.034-0.912c0.075-0.044,0.058-0.163,0.02-0.222c-0.635-0.757-1.554-1.233-2.74-1.233c-1.59,0-2.79,0.788-3.255,2.186c-0.165,0.491-0.24,1.116-0.24,1.961c0,0.847,0.075,1.471,0.255,1.962C4.158,17.011,5.358,17.783,6.948,17.783z"/></svg>