<svg xmlns="http://www.w3.org/2000/svg" enable-background="new 0 0 24 24" viewBox="0 0 24 24"><path fill="#28324E" d="M3.138,3.902c-1.22,0.462-1.88,0.856-1.88,1.446c0.07,0.669,1.16,1.338,3.389,1.85c2.099,0.522,4.779,0.787,8.008,0.787c3.299,0,5.918-0.266,8.008-0.787c2.229-0.512,3.299-1.2,3.299-1.85c0-0.462-0.48-0.915-1.35-1.259c0.2,0.128,0.35,0.344,0.35,0.58c0,0.659-1.01,1.2-3.039,1.653c-1.88,0.403-4.279,0.689-7.198,0.689c-2.819,0-5.329-0.285-7.138-0.669C3.638,5.87,2.618,5.358,2.618,4.689C2.618,4.414,2.748,4.177,3.138,3.902z"/><path fill="#28324E" d="M7.877 3.144c.5-.049 1.11.039 1.4.197.21-.108.28-.216.26-.344-.1-.344-.79-.492-1.66-.433-1.7.148-1.7.895-1.639 1.23.17.856 1.48 1.427 3.099 1.279 2.269-.197 2.929-1.633 5.589-1.87 1.31-.098 2.139.157 2.229.61.08.423-.57.708-1.36.768-1.09.108-1.54-.276-1.63-.64-.81.089-.94.423-.9.659.09.453 1.07.905 2.749.748 1.9-.148 2.539-.886 2.379-1.624-.2-.964-1.659-1.771-4.279-1.525-3.359.295-3.339 1.83-5.628 2.017-.94.089-1.46-.128-1.55-.492C6.877 3.361 7.337 3.184 7.877 3.144zM.009 15.02c.077 1.055.614 1.974 1.411 2.572l.009.006c.87.669 1.81.866 2.879.669.41-.069.87-.276 1.29-.413-.88 0-1.619-.276-2.359-.856-.794-.547-1.344-1.39-1.488-2.362l-.002-.019c-.2-.925 0-1.781.53-2.539.12-.148.25-.276.39-.394.3.718.62 1.427.98 2.086.81 1.21 1.62 2.263 2.429 3.404.35.669.58 1.328.74 1.988.536.722 1.308 1.249 2.203 1.47l.027.006c1.15.394 2.349.571 3.579.502h.13c.133.006.289.01.446.01 1.161 0 2.275-.191 3.315-.542l-.072.021c.885-.26 1.624-.774 2.152-1.456l.007-.01h.07c.13-.659.35-1.318.67-1.988.8-1.151 1.62-2.194 2.419-3.404 1.043-1.86 1.824-4.022 2.221-6.313l.018-.122c-.43.59-1.44 1.112-3.249 1.515-2.099.482-4.779.797-8.008.797-3.299 0-5.988-.335-8.078-.787-1.88-.472-2.879-.994-3.229-1.535.18 1.21.49 2.381.89 3.493-.48.295-.91.659-1.3 1.151-.639.762-1.026 1.747-1.026 2.821 0 .081.002.16.006.24V15.02z"/></svg>