<svg xmlns="http://www.w3.org/2000/svg" enable-background="new 0 0 24 24" viewBox="0 0 24 24"><polygon points="23.974 11.653 23.973 11.645 23.974 11.657"/><path fill="#0068B0" d="M6.267,18.242c0.118,0.005,0.235,0.008,0.353,0.008c1.045,0,2.011-0.19,2.878-0.569c0.217-0.095,0.427-0.205,0.642-0.328c0.117-0.068,0.228-0.142,0.338-0.219l0.08-0.056l0.137-0.095c0.164-0.12,0.317-0.251,0.467-0.388l0.052-0.051c0.088-0.085,0.176-0.171,0.259-0.26l0.311-0.359l0.118-0.151l0.056-0.083l0.055-0.081c0.462-0.791,1.965-3.672,1.965-3.672v-0.006l0.09-0.175l0.074-0.138c0.222-0.411,0.382-0.703,0.594-1.009l0.006-0.01c0.493-0.731,1.344-1.251,2.346-1.339c1.68-0.148,3.152,0.978,3.287,2.513c0.135,1.537-1.117,2.902-2.798,3.05c-0.087,0.008-0.189,0.012-0.292,0.012c-0.255,0-0.503-0.029-0.742-0.083l0.023,0.004l-0.009,0.003c-1.232-0.262-2.017-1.178-2.404-1.589l-1.617,3.032c0,0,0.503,0.516,0.847,0.774c0.346,0.258,0.791,0.511,1.146,0.669c0.836,0.379,1.812,0.6,2.838,0.601c0.121,0,0.097,0,0.222-0.005c1.844-0.079,3.488-0.799,4.674-2.034c1.123-1.173,1.733-2.511,1.738-4.097v-0.048l-0.011-0.262v0.001c-0.004-0.107-0.01-0.204-0.02-0.3c-0.095-1.068-0.447-2.037-0.991-2.862c-0.26-0.396-0.545-0.743-0.862-1.053l-0.002-0.002c-0.469-0.457-1.01-0.842-1.603-1.136l-0.037-0.016c-0.875-0.43-1.903-0.681-2.988-0.681c-0.021,0-0.042,0-0.063,0c-0.001,0-0.002,0-0.003,0c-0.008,0-0.017,0-0.027,0c-0.886,0-1.734,0.162-2.52,0.455c-0.693,0.251-1.293,0.592-1.824,1.02c-0.12,0.1-0.227,0.195-0.33,0.293l0.004-0.003l-0.085,0.087L12.521,7.73h0.001l-0.056,0.056l-0.026,0.029L12.3,7.965c-0.104,0.119-0.202,0.239-0.296,0.356V8.319L12,8.315c-0.192,0.238-0.37,0.485-0.5,0.707c-0.089,0.143-0.176,0.289-0.259,0.435l-1.147,2.365l0.002,0.001l-0.06,0.12L9.91,12.204c-0.251,0.519-0.521,1.037-0.821,1.463c-0.672,0.751-1.431,1.12-2.406,1.12c-0.068,0-0.139-0.003-0.209-0.008c-0.588-0.023-1.092-0.165-1.539-0.435c-0.423-0.251-0.762-0.608-0.987-1.036l-0.007-0.014c-0.206-0.376-0.328-0.826-0.328-1.304c0-0.033,0.001-0.065,0.002-0.097v0.005l0.002-0.035c0.031-0.775,0.321-1.379,0.904-1.898c0.142-0.126,0.291-0.232,0.446-0.326c0.021-0.013,0.044-0.024,0.065-0.037C5.466,9.361,5.959,9.24,6.524,9.24L6.7,9.245c0.899,0.035,1.592,0.32,2.145,0.88l1.734-3.174c-0.403-0.275-0.864-0.519-1.352-0.708L9.18,6.227C9.161,6.22,9.14,6.211,9.12,6.205C9.058,6.182,8.997,6.159,8.934,6.138C8.432,5.963,7.849,5.838,7.245,5.786L7.218,5.784C7.185,5.78,7.175,5.778,7.162,5.777c-0.088-0.005-0.177-0.016-0.265-0.02C6.813,5.754,6.709,5.751,6.605,5.75H6.6H6.545c-0.011,0-0.025,0-0.038,0c-1.071,0-2.085,0.247-2.994,0.685C2.485,6.941,1.64,7.693,1.03,8.619L1.016,8.642C0.38,9.599,0,10.779,0,12.05c0,0.014,0,0.026,0,0.039c-0.002,1.595,0.568,2.996,1.701,4.173C2.885,17.498,4.421,18.163,6.267,18.242z"/><polygon points="23.972 11.637 23.972 11.642 23.973 11.645"/><path d="M3.476 6.688c.012-.006.026-.01.038-.016C3.515 6.672 3.517 6.671 3.518 6.67L3.476 6.688zM7.145 6.153c.004 0 .014.002.019.002.003 0 .007.001.01.001L7.145 6.153z"/><polygon points="13.045 7.551 13.051 7.547 13.058 7.541"/><path d="M14.829 6.583c.015-.006.031-.009.047-.015.002-.001.003-.001.004-.002L14.829 6.583zM22.971 8.818c.004.005.006.012.01.017.001.001.002.003.003.004L22.971 8.818z"/></svg>