<svg xmlns="http://www.w3.org/2000/svg" enable-background="new 0 0 24 24" viewBox="0 0 24 24"><path fill="#2062AF" d="M20.667,21.666L12,24l-8.667-2.334L1.333,0h21.333L20.667,21.666z"/><path fill="#3C9CD7" d="M12,1.755v20.384l0.02,0.005l7.013-1.889l1.619-18.501L12,1.755L12,1.755z"/><path fill="#FFF" d="M11.992,7.172L5.789,9.756l0.206,2.558l5.997-2.564l6.38-2.728l0.264-2.616L11.992,7.172L11.992,7.172z"/><linearGradient id="a" x1="-1227.603" x2="-1227.603" y1="-1146.988" y2="-1148.095" gradientTransform="translate(5707.182 5336.404) scale(4.6418)" gradientUnits="userSpaceOnUse"><stop offset=".387" stop-color="#d1d3d4" stop-opacity="0"/><stop offset="1" stop-color="#d1d3d4"/></linearGradient><path fill="url(#a)" d="M5.789,9.756l0.206,2.558l5.997-2.564V7.172L5.789,9.756z"/><linearGradient id="b" x1="-1226.219" x2="-1226.219" y1="-1147.54" y2="-1148.691" gradientTransform="translate(5707.182 5336.404) scale(4.6418)" gradientUnits="userSpaceOnUse"><stop offset=".387" stop-color="#d1d3d4" stop-opacity="0"/><stop offset="1" stop-color="#d1d3d4"/></linearGradient><path fill="url(#b)" d="M18.636,4.405l-6.644,2.767v2.577l6.38-2.728L18.636,4.405z"/><linearGradient id="c" x1="-1228.269" x2="-1225.609" y1="-1146.494" y2="-1146.494" gradientTransform="translate(5707.182 5336.404) scale(4.6418)" gradientUnits="userSpaceOnUse"><stop offset="0" stop-color="#e8e7e5"/><stop offset="1" stop-color="#fff"/></linearGradient><path fill="url(#c)" d="M5.799,9.756l0.206,2.558l9.202,0.029l-0.206,3.41l-3.028,0.852l-2.911-0.735l-0.176-2.117H6.181l0.353,4.086l5.468,1.617l5.439-1.588l0.706-8.114H5.799z"/><path d="M11.992,9.756H5.789l0.206,2.558l5.997,0.019L11.992,9.756L11.992,9.756z M11.992,16.597l-0.029,0.008l-2.91-0.735l-0.176-2.117H6.171l0.353,4.086l5.468,1.617V16.597z" enable-background="new" opacity=".05"/><linearGradient id="d" x1="-1228.392" x2="-1225.504" y1="-1148.41" y2="-1148.41" gradientTransform="translate(5707.182 5336.404) scale(4.6418)" gradientUnits="userSpaceOnUse"><stop offset="0" stop-color="#e8e7e5"/><stop offset="1" stop-color="#fff"/></linearGradient><path fill="url(#d)" d="M5.231,4.405h13.406l-0.264,2.616H5.554L5.231,4.405L5.231,4.405z"/><path d="M11.992,4.405H5.231l0.323,2.616h6.438L11.992,4.405L11.992,4.405z" enable-background="new" opacity=".05"/></svg>