<svg xmlns="http://www.w3.org/2000/svg" enable-background="new 0 0 24 24" viewBox="0 0 24 24"><polygon points="14.757 4.171 14.759 4.171 14.759 4.17"/><path d="M17.628 13.026h-.646c-.168 0-.279.024-.333.072-.055.049-.082.147-.082.295v3.638l-1.91-3.647c-.076-.155-.152-.253-.226-.295-.074-.041-.204-.063-.39-.063h-.599c-.167 0-.278.025-.332.073-.055.048-.082.147-.082.294v6.138c0 .148.025.246.077.294.052.048.16.072.328.072h.656c.167 0 .278-.024.332-.072.055-.048.082-.146.082-.294v-3.648l1.91 3.657c.077.155.152.253.227.295.073.042.204.062.39.062h.598c.167 0 .278-.024.333-.072.054-.048.082-.146.082-.294v-6.138c0-.148-.028-.246-.082-.294C17.906 13.051 17.795 13.026 17.628 13.026zM6.419 19.896h4.25c.148 0 .245-.027.29-.081.045-.055.068-.17.068-.344v-.579c0-.173-.023-.287-.068-.342-.045-.055-.142-.082-.29-.082l.001.001H7.96l2.855-4.014c.034-.045.063-.096.085-.151l.002-.004c.012-.038.019-.081.019-.126 0-.003 0-.006 0-.01v-.772c0-.148-.028-.246-.082-.294-.055-.048-.166-.073-.334-.073H6.382c-.149 0-.245.028-.29.082-.045.055-.068.169-.068.343v.58c0 .172.023.287.068.341.045.055.141.083.29.083h2.545L6.11 18.468c-.063.072-.103.166-.107.269v.001.792c0 .148.027.245.082.294C6.14 19.872 6.252 19.896 6.419 19.896z"/><path d="M0,24h24V13.387L22.613,12L24,10.613V0H0v10.613L1.387,12L0,13.387V24z M1.504,1.505h20.991v8.384l-1.665,1.666c-0.114,0.114-0.184,0.271-0.184,0.445s0.07,0.331,0.184,0.445h0.001l1.665,1.665v8.385H1.505V14.11l1.663-1.664c0.114-0.114,0.184-0.271,0.184-0.445s-0.07-0.331-0.184-0.445L1.504,9.891V1.505z"/><path d="M6.418,10.974h2.218c1.048,0,1.765-0.447,2.15-1.342c0.09-0.205,0.153-0.413,0.188-0.622c0.035-0.219,0.054-0.472,0.054-0.729c0-0.022,0-0.044,0-0.066c0-0.001,0-0.003,0-0.004V6.912c0-0.367-0.018-0.656-0.054-0.868c-0.036-0.225-0.104-0.427-0.196-0.614c-0.224-0.449-0.528-0.783-0.911-0.999c-0.39-0.219-0.88-0.328-1.47-0.328H6.418c-0.167,0-0.278,0.024-0.333,0.072C6.031,4.224,6.003,4.322,6.003,4.469v6.138c0,0.148,0.028,0.246,0.082,0.295C6.14,10.95,6.251,10.974,6.418,10.974z M7.588,5.453h0.79c0.366,0,0.63,0.11,0.79,0.324c0.16,0.214,0.241,0.571,0.241,1.067v1.389H9.408c0,0.264-0.017,0.484-0.052,0.661c-0.035,0.177-0.093,0.32-0.174,0.43C9.103,9.43,8.994,9.511,8.869,9.554L8.864,9.555c-0.135,0.043-0.29,0.068-0.451,0.068c-0.012,0-0.024,0-0.035,0c-0.001,0-0.001,0-0.002,0H7.588V5.453z"/><polygon points="10.781 5.432 10.775 5.419 10.778 5.43 10.783 5.437"/><path d="M12.797,10.974h0.84c0.076,0,0.139-0.003,0.187-0.01c0.045-0.004,0.085-0.021,0.116-0.048c0.033-0.032,0.059-0.071,0.076-0.114l0.001-0.002c0.022-0.051,0.046-0.119,0.072-0.202l0.318-1.071h2.306l0.327,1.051c0.026,0.09,0.051,0.16,0.077,0.213c0.022,0.047,0.051,0.086,0.087,0.12c0.031,0.028,0.07,0.047,0.114,0.053h0.002c0.045,0.006,0.103,0.01,0.173,0.01h0.897c0.18,0,0.27-0.074,0.27-0.223c0-0.004,0-0.008,0-0.012c0-0.027-0.002-0.054-0.005-0.081v0.003c-0.011-0.043-0.024-0.079-0.038-0.114l0.002,0.006l0.003,0.006l-2.025-6.128c-0.045-0.135-0.097-0.224-0.154-0.266c-0.059-0.041-0.152-0.063-0.28-0.063h-1.12c-0.01-0.001-0.022-0.001-0.034-0.001c-0.092,0-0.177,0.026-0.25,0.07c-0.06,0.045-0.11,0.132-0.149,0.26l-2.045,6.128c-0.025,0.032-0.038,0.096-0.038,0.192C12.527,10.9,12.617,10.974,12.797,10.974z M15.546,5.695l0.79,2.596h-1.562L15.546,5.695z"/><polygon points="10.788 5.444 10.783 5.437 10.787 5.445"/></svg>