<svg xmlns="http://www.w3.org/2000/svg" enable-background="new 0 0 24 24" viewBox="0 0 24 24"><path fill="#B1E3FA" d="M19.599,12.844v-0.512H24v1.023h-4.401L19.599,12.844L19.599,12.844z M19.599,11.207v-0.512H24v1.023h-4.401L19.599,11.207L19.599,11.207z M19.599,9.569V9.058H24v1.023h-4.401L19.599,9.569L19.599,9.569z M19.599,7.881V7.369H24v1.075h-4.401L19.599,7.881L19.599,7.881z M19.599,6.294V5.731H24v1.126h-4.401L19.599,6.294L19.599,6.294z"/><path fill="#F7BACF" d="M9.774,12.844v-0.512h4.401v1.023H9.774V12.844z M9.774,11.207v-0.512h4.401v1.023H9.774V11.207z M9.774,9.569V9.058h4.401v1.023H9.774V9.569z M9.774,7.881V7.369h4.401v1.075H9.774V7.881z"/><path fill="#E7EE9F" d="M14.687,12.844v-0.512h4.401v1.023h-4.401L14.687,12.844L14.687,12.844z M14.687,11.207v-0.512h4.401v1.023h-4.401L14.687,11.207L14.687,11.207z"/><path fill="#FEEA3A" d="M4.913,17.757v-0.512h4.299v1.023H4.913V17.757z M4.913,16.068v-0.512h4.299v1.023H4.913V16.068z M4.913,14.431v-0.512h4.299v1.023H4.913V14.431z"/><path fill="#FE9D7F" d="M0,12.844v-0.512h4.299v1.023H0V12.844z M0,11.207v-0.512h4.299v1.023H0V11.207z"/><path fill="#4EC2F6" d="M19.65,17.757v-0.512h4.299v1.023H19.65V17.757z M19.65,16.068v-0.512h4.299v1.023H19.65V16.068z M19.65,14.431v-0.512h4.299v1.023H19.65V14.431z"/><path fill="#CCDB38" d="M14.738,17.757v-0.512h4.299v1.023h-4.299L14.738,17.757L14.738,17.757z M14.738,16.068v-0.512h4.299v1.023h-4.299L14.738,16.068L14.738,16.068z M14.738,14.431v-0.512h4.299v1.023h-4.299L14.738,14.431L14.738,14.431z"/><path fill="#FE3F80" d="M9.825,17.757v-0.512h4.299v1.023H9.825V17.757z M9.825,16.068v-0.512h4.299v1.023H9.825V16.068z M9.825,14.431v-0.512h4.299v1.023H9.825V14.431z"/><path fill="#FE3D02" d="M0,17.757v-0.512h4.299v1.023H0V17.757z M0,16.068v-0.512h4.299v1.023H0V16.068z M0,14.431v-0.512h4.299v1.023H0V14.431z"/></svg>