<svg xmlns="http://www.w3.org/2000/svg" enable-background="new 0 0 24 24" viewBox="0 0 24 24"><path d="M3,21h18c1.65,0,3-1.35,3-3V6c0-1.65-1.35-3-3-3H3C1.35,3,0,4.35,0,6v12C0,19.65,1.35,21,3,21z M1.5,6c0-0.82,0.675-1.5,1.5-1.5h18c0.82,0,1.5,0.675,1.5,1.5v12c0,0.82-0.675,1.5-1.5,1.5H3c-0.82,0-1.5-0.675-1.5-1.5V6z"/><path d="M5.377 17.325c.984.441 2.531.474 3.459-.689v.97h2.423V6.375H8.836v4.87C7.8 10.143 6.277 10.213 5.33 10.64c-1.336.605-2.03 1.922-2.03 3.319C3.3 15.539 4.149 16.777 5.377 17.325zM7.359 12.431c.914 0 1.556.754 1.556 1.556 0 .773-.628 1.542-1.556 1.542-.918 0-1.556-.717-1.556-1.57C5.803 13.2 6.436 12.431 7.359 12.431zM14.457 17.325c.984.441 2.531.474 3.459-.689v.97h2.423V6.375h-2.423v4.87c-1.036-1.102-2.559-1.032-3.506-.605-1.336.605-2.03 1.922-2.03 3.319C12.38 15.539 13.229 16.777 14.457 17.325zM16.439 12.431c.914 0 1.556.754 1.556 1.556 0 .773-.628 1.542-1.556 1.542-.918 0-1.556-.717-1.556-1.57C14.883 13.2 15.52 12.431 16.439 12.431z"/></svg>