<svg xmlns="http://www.w3.org/2000/svg" enable-background="new 0 0 24 24" viewBox="0 0 24 24"><path fill="#4794DA" d="M23.25 14.689l-8.225-.014-.816 1.467 5.587-.005C21.604 16.137 22.537 15.499 23.25 14.689zM15.368 18.898c.005.089.028 2.119-1.795 2.991-.511.243-1.134.3-1.711.309l-1.458 1.8h-.001c.84.004 1.968 0 2.376-.052 2.404-.309 4.021-2.142 4.462-3.253.136-.337.469-1.2.478-3.549h-3.707C15.33 18.692 15.363 18.664 15.368 18.898z"/><path fill="#4794DA" d="M0.756,0.789v9.999c-0.178,4.089,3.82,5.345,5.015,5.345h4.265c-0.825-0.802-1.172-1.936-1.238-2.677c-0.056-0.628,0.886-0.703,0.942-0.084c0.01,0.113,0.281,2.761,2.732,2.761h0.305l1.533-2.602h3.444V5.64h-0.001c0-1.912-0.835-5.654-5.929-5.635H7.878c0.483,0.511,0.741,1.195,0.741,2.048c0,0.628-0.947,0.623-0.947,0c0-2.146-2.145-2.067-2.348-2.048C5.316,0.005,5.311,0,5.302,0H1.459C1.211,0.011,0.756,0.038,0.756,0.789z M14.543,9.639l-2.999-1.373C12.566,6.277,15.166,7.506,14.543,9.639z"/></svg>