<svg xmlns="http://www.w3.org/2000/svg" enable-background="new 0 0 24 24" viewBox="0 0 24 24"><path fill="#0080FF" d="M11.956,24.004v-4.671c4.952,0,8.772-4.883,6.863-10.049c-0.703-1.941-2.232-3.47-4.174-4.174C10.83,3.676,6.576,5.605,5.141,9.42c-0.307,0.817-0.467,1.681-0.472,2.553H0C0,4.188,7.57-1.968,15.846,0.58c3.61,1.134,6.437,3.962,7.57,7.572C25.964,16.432,19.808,24.004,11.956,24.004z"/><rect width="4.669" height="4.6" x="7.357" y="14.733" fill="#0080FF"/><polygon fill="#0080FF" points="7.357 22.943 3.82 22.943 3.82 19.333 7.357 19.333 7.357 22.943"/><rect width="2.968" height="2.972" x=".852" y="16.361" fill="#0080FF"/></svg>