<svg xmlns="http://www.w3.org/2000/svg" enable-background="new 0 0 24 24" viewBox="0 0 24 24"><g fill="#2196f3"><path d="m12.339 9.013h-1.292v5.975h1.292c1.897 0 3.157-1.075 3.157-2.971v-.033c0-1.88-1.26-2.971-3.157-2.971z"/><path d="m12.438.25c-6.387 0-11.564 5.261-11.564 11.75 0 1.74.375 3.389 1.043 4.875l-1.917 4.77 4.962-.683c7.435 6.409 19.038 1.09 19.038-8.962 0-6.489-5.177-11.75-11.562-11.75zm6.313 11.716c0 3.39-2.405 5.909-6.526 5.909h-4.351v-11.75h4.417c4.089 0 6.461 2.418 6.461 5.808v.033z"/></g></svg>