<svg xmlns="http://www.w3.org/2000/svg" enable-background="new 0 0 24 24" viewBox="0 0 24 24"><path fill="#242727" d="M12,2C6.344,1.957,0.353,5.89,0,12.785h7.256c0,0,0.935-3.826,4.744-3.852c3.809-0.026,4.744,3.852,4.744,3.852H24C23.452,5.766,17.359,2.042,12,2z"/><ellipse cx="12" cy="13.61" fill="#242727" rx="3.07" ry="3.026"/><path fill="#242727" d="M7.256,14.435H2.791c1.53,4.603,5.263,7.576,9.259,7.565h0.001c3.995-0.01,8.164-2.695,9.159-7.565h-4.465c0,0-0.906,3.783-4.716,3.808C8.219,18.269,7.256,14.435,7.256,14.435z"/></svg>