<svg xmlns="http://www.w3.org/2000/svg" enable-background="new 0 0 24 24" viewBox="0 0 24 24"><g fill="#1976d2"><path d="M11.999 4.483l7.119 4.246 4.882-3.775-7.061-4.454zM12 4.485l-4.94-3.985-7.06 4.453 4.883 3.777z"/><path d="m12 12.976 4.939 3.983 7.061-4.453-4.883-3.777-7.117 4.246-7.119-4.246-4.881 3.777 7.06 4.453z"/><path d="m19.501 19.187v-2.125l-2.204 1.39v.001c-.125.08-.269.118-.411.118-.172 0-.343-.058-.483-.169l-4.402-3.551-4.403 3.551c-.253.204-.618.224-.895.05l-2.202-1.389v2.124l7.515 4.313z"/></g></svg>