<svg xmlns="http://www.w3.org/2000/svg" enable-background="new 0 0 24 24" viewBox="0 0 24 24"><path d="M18.76,22.555c1.66-0.953,2.95-2.308,3.87-4.035c0.92-1.726,1.37-3.714,1.37-5.952v-1.104c0-2.228-0.47-4.215-1.4-5.982c-0.897-1.711-2.221-3.091-3.832-4.03L18.72,1.427C17.149,0.53,15.268,0,13.264,0c-0.065,0-0.129,0.001-0.194,0.002H0.18l6.91,4.015h5.99c1.94,0,3.41,0.622,4.42,1.887c1,1.255,1.5,3.091,1.5,5.53v1.275c-0.01,2.349-0.53,4.155-1.55,5.42c-1.02,1.265-2.5,1.897-4.42,1.897H6.86L0,24h13.13C15.22,24,17.1,23.508,18.76,22.555z"/><polygon fill="#FA1100" points=".13 3.936 .13 20.096 14.07 12.006"/></svg>