<svg xmlns="http://www.w3.org/2000/svg" enable-background="new 0 0 24 24" viewBox="0 0 24 24"><polygon points="5.145 19.513 5.139 19.505 5.131 19.496"/><path fill="#2C2255" d="M6.605,15.1h-3.68c0.487,1.671,1.391,3.169,2.715,4.493c2.11,2.111,4.648,3.164,7.615,3.164c0.593,0,1.168-0.044,1.726-0.128c2.235-0.337,4.192-1.348,5.869-3.036c1.332-1.324,2.243-2.822,2.734-4.493L6.605,15.1L6.605,15.1z M4.576,10.102H2.654c-0.072,0.429-0.118,0.862-0.14,1.296h21.485c-0.022-0.442-0.07-0.873-0.141-1.296H4.576z M2.514,12.601c0.022,0.442,0.069,0.874,0.14,1.296h21.205c0.072-0.429,0.119-0.861,0.141-1.296H2.514z M23.585,8.899c-0.491-1.676-1.401-3.181-2.734-4.514c-1.672-1.672-3.624-2.676-5.852-3.013c-0.577-0.087-1.16-0.131-1.743-0.13c-2.967,0-5.505,1.048-7.615,3.144C4.316,5.718,3.411,7.223,2.925,8.899H23.585z"/><path fill="#F7941E" d="M1.875,12c0-5.676,4.263-10.392,9.808-11.221c-0.138-0.005-0.276-0.011-0.415-0.011C5.045,0.769,0,5.797,0,12c0,6.203,5.045,11.231,11.268,11.231c0.139,0,0.278-0.005,0.416-0.01C6.137,22.392,1.875,17.676,1.875,12L1.875,12z"/><linearGradient id="a" x1="-268.222" x2="-268.222" y1="517.796" y2="517.916" gradientTransform="matrix(1518.0859 0 0 -134.5215 407197.75 69678.883)" gradientUnits="userSpaceOnUse"><stop offset=".303" stop-color="#473788"/><stop offset=".872" stop-color="#2c2255"/></linearGradient><path fill="url(#a)" d="M20.568,11.398c-0.035-0.438-0.11-0.871-0.222-1.296H6.167c-0.113,0.424-0.187,0.858-0.223,1.296H20.568z"/><linearGradient id="b" x1="-268.222" x2="-268.222" y1="519.724" y2="519.844" gradientTransform="matrix(1518.0664 0 0 -134.5313 407192.563 69943.313)" gradientUnits="userSpaceOnUse"><stop offset=".303" stop-color="#473788"/><stop offset=".872" stop-color="#2c2255"/></linearGradient><path fill="url(#b)" d="M20.568,12.601H5.945c0.035,0.438,0.109,0.871,0.222,1.296h14.178C20.458,13.473,20.533,13.039,20.568,12.601z"/><linearGradient id="c" x1="-268.294" x2="-268.294" y1="512.175" y2="512.212" gradientTransform="matrix(1380.9766 0 0 -439.9219 370521.031 225341.203)" gradientUnits="userSpaceOnUse"><stop offset=".303" stop-color="#473788"/><stop offset=".863" stop-color="#2c2255"/></linearGradient><path fill="url(#c)" d="M13.256,19.338c2.944,0,5.482-1.735,6.651-4.238H6.605C7.774,17.603,10.312,19.338,13.256,19.338z"/><g><path fill="#FFF" d="M4.861,12.601h19.123C23.994,12.41,24,12.217,24,12.023c0-0.21-0.008-0.418-0.02-0.625H2.514c-0.012,0.207-0.02,0.415-0.02,0.625c0,0.194,0.006,0.387,0.016,0.578H4.861z M6.562,8.899H2.924c-0.12,0.392-0.197,0.794-0.271,1.204H23.79c-0.073-0.406-0.17-0.808-0.289-1.204H6.562z M22.408,13.897H2.653c0.072,0.409,0.154,0.811,0.272,1.204h20.646c0.118-0.395,0.213-0.797,0.284-1.204H22.408z"/></g></svg>