<svg xmlns="http://www.w3.org/2000/svg" enable-background="new 0 0 24 24" viewBox="0 0 24 24"><path fill="#3775C2" d="M23,11.404c0-2.131-0.37-4.087-1.377-5.923C19.664,1.929,16.194,0,12.13,0C5.441-0.013,1.695,5.091,1,10.63c2.028-2.967,5.597-5.874,10.534-6.047c0,0,5.243,0,4.752,5.079H7.88c0.305-1.809,0.887-2.854,1.642-3.82c-3.588,1.689-5.825,4.651-5.772,9.112c0.04,3.457,2.396,7.008,5.772,8.321c3.984,1.541,9.215,0.348,11.479-1.032v-5.052c-3.865,2.734-12.948,2.948-13.015-3.269H23V11.404z"/><path d="M1.016,10.297C1.011,10.305,1.005,10.312,1,10.32h0.013C1.014,10.312,1.015,10.305,1.016,10.297z"/></svg>