<svg xmlns="http://www.w3.org/2000/svg" enable-background="new 0 0 24 24" viewBox="0 0 24 24"><path fill="#47848F" d="M8.741,5.159C5.604,4.587,3.125,5.185,2.136,6.897c-0.737,1.277-0.527,2.971,0.511,4.781c0.088,0.154,0.285,0.208,0.439,0.119c0.154-0.088,0.208-0.285,0.119-0.439l0,0c-0.935-1.631-1.117-3.092-0.512-4.14c0.821-1.422,3.033-1.955,5.932-1.427C8.8,5.826,8.969,5.713,9.003,5.538S8.925,5.195,8.75,5.16C8.747,5.16,8.744,5.159,8.741,5.159L8.741,5.159z M4.278,13.879c1.268,1.394,2.916,2.701,4.795,3.786c4.549,2.627,9.393,3.329,11.78,1.701c0.146-0.101,0.182-0.301,0.081-0.448c-0.1-0.145-0.298-0.182-0.444-0.084c-2.136,1.457-6.737,0.79-11.096-1.727c-1.823-1.053-3.418-2.318-4.641-3.661C4.637,13.313,4.433,13.3,4.3,13.417c-0.133,0.117-0.146,0.321-0.029,0.454C4.273,13.874,4.276,13.876,4.278,13.879L4.278,13.879z"/><path fill="#47848F" d="M20.091,13.488c2.054-2.426,2.771-4.866,1.785-6.574c-0.726-1.257-2.26-1.921-4.299-1.947c-0.178-0.002-0.324,0.14-0.326,0.317c-0.002,0.178,0.14,0.324,0.317,0.326c1.834,0.024,3.156,0.596,3.75,1.625c0.819,1.419,0.18,3.595-1.718,5.837c-0.117,0.133-0.104,0.337,0.029,0.454c0.133,0.117,0.337,0.104,0.454-0.029C20.086,13.494,20.089,13.491,20.091,13.488L20.091,13.488z M14.814,5.266c-1.857,0.398-3.833,1.176-5.731,2.271c-4.697,2.712-7.761,6.71-7.335,9.609c0.021,0.176,0.181,0.302,0.358,0.281c0.176-0.021,0.302-0.181,0.281-0.358c-0.001-0.006-0.002-0.011-0.003-0.017c-0.378-2.574,2.526-6.364,7.02-8.958c1.841-1.063,3.755-1.816,5.544-2.2c0.173-0.041,0.279-0.215,0.238-0.388C15.147,5.34,14.983,5.234,14.814,5.266z"/><path fill="#47848F" d="M7.205,19.156C8.279,22.154,10.035,24,12.011,24c1.44,0,2.773-0.982,3.813-2.711c0.096-0.149,0.053-0.348-0.096-0.445c-0.149-0.096-0.348-0.053-0.445,0.096c-0.004,0.005-0.007,0.011-0.01,0.017c-0.934,1.554-2.082,2.399-3.262,2.399c-1.641,0-3.207-1.647-4.2-4.418c-0.056-0.168-0.239-0.259-0.407-0.203c-0.168,0.056-0.259,0.239-0.203,0.407C7.202,19.147,7.204,19.152,7.205,19.156L7.205,19.156z M17.013,18.569c0.556-1.776,0.854-3.825,0.854-5.961c0-5.328-1.865-9.921-4.521-11.1c-0.163-0.07-0.352,0.006-0.422,0.17c-0.068,0.16,0.003,0.345,0.161,0.418c2.369,1.052,4.139,5.411,4.139,10.512c0,2.071-0.289,4.056-0.825,5.769c-0.057,0.168,0.033,0.351,0.201,0.408c0.168,0.057,0.351-0.033,0.408-0.201C17.01,18.58,17.011,18.575,17.013,18.569z M23.07,18.255c0-0.85-0.688-1.54-1.539-1.54c-0.85,0-1.54,0.688-1.54,1.539c0,0,0,0.001,0,0.001c0,0.85,0.69,1.539,1.54,1.539C22.381,19.793,23.069,19.104,23.07,18.255z M22.427,18.255c0,0.495-0.401,0.896-0.895,0.897s-0.896-0.401-0.897-0.895c0,0,0-0.001,0-0.001c0-0.495,0.402-0.896,0.897-0.895C22.026,17.36,22.426,17.76,22.427,18.255z M2.469,19.794c0.85,0,1.54-0.688,1.54-1.539c0-0.85-0.688-1.54-1.539-1.54c0,0-0.001,0-0.001,0c-0.85,0-1.539,0.69-1.539,1.54C0.931,19.105,1.619,19.793,2.469,19.794z M2.469,19.151c-0.495,0-0.896-0.401-0.896-0.896c0-0.495,0.401-0.896,0.896-0.896s0.896,0.401,0.896,0.896S2.964,19.151,2.469,19.151L2.469,19.151z"/><path fill="#47848F" d="M12.011,3.078c0.85,0,1.539-0.689,1.539-1.539S12.861,0,12.011,0s-1.539,0.689-1.539,1.539S11.161,3.078,12.011,3.078z M12.011,2.435c-0.495,0-0.896-0.401-0.896-0.896s0.401-0.896,0.896-0.896c0.495,0,0.896,0.401,0.896,0.896S12.506,2.436,12.011,2.435L12.011,2.435z M12.246,13.698c-0.601,0.13-1.194-0.252-1.324-0.854c-0.13-0.601,0.252-1.194,0.854-1.324c0.603-0.121,1.19,0.271,1.311,0.874C13.204,12.984,12.832,13.561,12.246,13.698L12.246,13.698z"/></svg>