<svg xmlns="http://www.w3.org/2000/svg" enable-background="new 0 0 24 24" viewBox="0 0 24 24"><linearGradient id="a" x1="1.25" x2="22.094" y1="22.75" y2="1.906" gradientUnits="userSpaceOnUse"><stop offset="0" stop-color="#312878"/><stop offset="1" stop-color="#e02c5d"/></linearGradient><path fill="url(#a)" d="M24,22.8V1.2C24,0.536,23.464,0,22.8,0H1.2C0.536,0,0,0.536,0,1.2v21.6C0,23.464,0.536,24,1.2,24h21.6C23.464,24,24,23.464,24,22.8z M8.802,17.33H6.67V6.67h2.133V17.33z M17.336,17.33h-6.402v-2.133h6.402V17.33z M17.336,13.066h-6.402v-2.133h6.402V13.066z M17.336,8.797h-6.402V6.664h6.402V8.797z"/><path d="M0.084,19.243c0-0.001,0-0.002,0-0.002c-0.001-0.004-0.003-0.009-0.004-0.013L0.084,19.243z"/></svg>