<svg xmlns="http://www.w3.org/2000/svg" enable-background="new 0 0 24 24" viewBox="0 0 24 24"><path d="M4.26,12.365c0-0.007,0-0.014,0-0.021c0-0.001,0-0.002,0-0.003L4.26,12.365z"/><path fill="#424242" d="M12,24c6.627,0,12-5.373,12-12S18.627,0,12,0S0,5.373,0,12S5.373,24,12,24z M22.9,10.53v-0.01c0.063,0.442,0.099,0.953,0.099,1.472c0,6.075-4.925,11-11,11c-3.404,0-6.447-1.546-8.464-3.974L3.52,19c1.342-0.308,2.516-0.705,3.632-1.198c0.509,0.399,1.078,0.709,1.668,0.938c0.793,0.289,1.71,0.457,2.665,0.457c0.997,0,1.95-0.182,2.83-0.515L14.26,18.7c1.807-0.688,3.353-1.69,4.642-2.952L18.9,15.75c1.582-1.482,2.916-3.205,3.948-5.114L22.9,10.53z M5.632,11.018c0.122-1.316,0.58-2.591,1.198-3.777c0.668-1.43,1.704-2.594,2.987-3.401L9.85,3.821c0.68-0.37,1.45-0.6,2.22-0.6V3.22c0.77,0,1.55,0.24,2.17,0.7c0.55,0.42,0.97,1.02,1.2,1.68c0.23,0.65,0.3,1.37,0.21,2.06c-0.236,1.444-0.837,2.718-1.703,3.764c-1.662,2.136-3.801,3.823-6.264,4.915L7.58,16.38c-0.48-0.42-0.9-0.92-1.2-1.48c-0.498-0.907-0.791-1.987-0.791-3.135C5.589,11.512,5.604,11.264,5.632,11.018z M2.649,17.781c-1.03-1.643-1.641-3.64-1.641-5.78c0-6.072,4.92-10.995,10.99-11L12,1c0.001,0,0.003,0,0.004,0c5.01,0,9.238,3.35,10.567,7.932L22.59,9.01c-1.175,2.388-2.742,4.409-4.637,6.06l-0.023,0.02c-0.94,0.81-1.96,1.53-3.08,2.04c-1.13,0.5-2.37,0.8-3.6,0.72c-0.971-0.054-1.867-0.325-2.66-0.76c2.216-1.212,4.097-2.742,5.658-4.554l0.022-0.026c1.062-1.143,1.861-2.545,2.293-4.1l0.017-0.07c0.18-0.79,0.2-1.6,0.04-2.4c-0.172-0.822-0.552-1.537-1.082-2.112c-0.532-0.556-1.208-0.969-1.968-1.181L13.54,2.64c-0.402-0.111-0.864-0.174-1.341-0.174c-0.342,0-0.675,0.035-0.999,0.098C9.61,2.927,8.245,3.733,7.203,4.847L7.199,4.851c-1.822,1.776-2.952,4.255-2.952,6.998c0,0.166,0.005,0.331,0.012,0.495c0.147,1.774,0.86,3.359,1.957,4.595l-0.007-0.008C5.187,17.302,3.985,17.6,2.743,17.77L2.649,17.781z"/><path d="M11.176,2.566c0.008-0.001,0.016-0.001,0.024-0.002c0.003-0.001,0.006-0.002,0.009-0.003L11.176,2.566z"/><polygon points="15.537 3.827 15.538 3.828 15.54 3.83"/></svg>