<svg xmlns="http://www.w3.org/2000/svg" enable-background="new 0 0 24 24" viewBox="0 0 24 24"><path fill="#EB572C" d="M20.302,12.552L24,11.753c0-0.799-0.1-1.598-0.3-2.297C22.201,2.966,15.805-0.928,9.309,0.57S-1.184,8.358,0.315,14.648s7.895,10.284,14.391,8.787c3.798-0.899,6.796-3.395,8.195-6.59c0.1-0.1-5.497-1.298-5.497-1.298c-0.899,1.298-2.299,2.296-3.897,2.596c-2.698,0.599-5.297-0.499-6.796-2.596l11.693-2.596L20.302,12.552z M5.611,10.954c0.4-2.496,2.299-4.593,4.897-5.192c2.698-0.599,5.297,0.499,6.796,2.496L5.611,10.954z"/></svg>