<svg xmlns="http://www.w3.org/2000/svg" enable-background="new 0 0 24 24" viewBox="0 0 24 24"><path fill="#57B050" d="M15.67 23.409c1.403-.442 2.66-1.145 3.773-2.107 1.095-.951 1.978-2.069 2.649-3.36.255-.492.475-.994.662-1.507l-3.257.701-1.939-2.35c-.126.337-.284.663-.478.986v-.007C16.313 17.071 15.235 18 13.855 18.6l-.051.021-.629 2.775 2.412 2.039C15.614 23.425 15.643 23.418 15.67 23.409zM10.566 6.426c.315 0 .644 0 .99.029 1.485.149 2.82.675 4.006 1.575.114.074.222.164.327.255l3.616-.435 1.314-3.486c-.564-.705-1.212-1.337-1.941-1.896-1.158-.896-2.438-1.53-3.844-1.93-.664-.181-1.336-.331-2.016-.42-.484-.062-.969-.098-1.46-.113-.822-.014-1.633 0-2.46.09L11.826 3.2 10.566 6.426zM4.776 14.518c.002.005.004.009.006.014l.026.006L4.776 14.518zM5.281 3.723C4.684 4.12 4.129 4.577 3.614 5.099 2.751 5.968 2.061 6.955 1.55 8.059l2.055-.434 1.261 1.529c.043-.102.088-.201.139-.3C5.543 7.747 6.3 6.837 7.269 6.124l-.188-1.71-1.79-.69L5.281 3.723zM6.186 16.834c-.618-.698-1.084-1.464-1.404-2.302l-2.195-.503-1.636 1.919c.105.375.226.75.375 1.125.54 1.351 1.32 2.55 2.341 3.6.605.615 1.275 1.154 2.001 1.605l-.12-2.864 2.201-1.261C7.176 17.809 6.651 17.373 6.186 16.834z"/><path fill="#57B050" d="M5.787 3.411l1.72.658.178 1.737.195-.12c.9-.54 1.86-.915 2.88-1.11l.525-1.319-1.127-1.274C9.117 2.089 8.103 2.327 7.121 2.748 6.658 2.94 6.214 3.161 5.787 3.411zM23.38 13.915c.195-1.423.151-2.842-.12-4.252-.285-1.422-.798-2.756-1.54-4.004-.179-.294-.364-.581-.563-.854V4.804h-.026L19.824 8.28 16.313 8.7c.734.785 1.23 1.736 1.455 2.85.195.939.166 1.842-.06 2.709l1.951 2.357 3.257-.699C23.125 15.265 23.275 14.599 23.38 13.915zM1.323 8.582L1.307 8.621C.77 9.97.503 11.369.5 12.82c0 .869.09 1.721.283 2.554l1.591-1.881 2.221.505c-.091-.313-.165-.635-.21-.969-.195-1.17-.106-2.296.285-3.38L3.433 8.14 1.332 8.584 1.323 8.582zM7.189 23.067c1.338.571 2.736.879 4.192.925 1.246.044 2.467-.088 3.661-.401l-2.388-2.02.625-2.757c-1.144.374-2.323.421-3.531.141-.539-.124-1.046-.304-1.519-.54l-2.201 1.26.119 2.882C6.484 22.745 6.829 22.914 7.189 23.067z"/><polygon fill="#57B050" points="5.782 3.414 5.787 3.411 5.782 3.409"/></svg>