<svg xmlns="http://www.w3.org/2000/svg" enable-background="new 0 0 24 24" viewBox="0 0 24 24"><path fill="#F07502" d="M22.21,12.175c-1.142-0.201-2.086-1.047-2.434-2.245c-0.298-1.198,0.1-2.445,0.994-3.193L18.932,0L0,5.039l1.838,6.786c1.093,0.201,2.087,1.047,2.385,2.245c0.348,1.198-0.1,2.395-0.944,3.193L5.067,24L24,18.911L22.21,12.175z M11.428,21.152l-5.615,1.496L4.42,17.563c0.846-0.999,1.194-2.396,0.846-3.744c-0.398-1.348-1.392-2.395-2.584-2.844L1.29,5.737l11.28-2.996l1.094,4.194L8.05,8.481l1.14,4.242l5.615-1.546l1.145,4.238l-5.615,1.496L11.428,21.152z"/></svg>