<svg xmlns="http://www.w3.org/2000/svg" enable-background="new 0 0 24 24" viewBox="0 0 24 24"><path fill="#4F2CA3" d="M8.255,12.28l0.02,0.042V8.22c0-0.002,0-0.005,0-0.008c0-1.851,1.478-3.351,3.302-3.351c0.003,0,0.006,0,0.008,0c0.91,0,1.655-0.756,1.655-1.68c0-0.924-0.745-1.68-1.655-1.68L11.586,1.5C7.93,1.501,4.967,4.509,4.966,8.22v0.784C6.395,9.741,7.533,10.882,8.255,12.28z"/><path fill="#4F2CA3" d="M1.656 12.419c.002 0 .005 0 .008 0 1.824 0 3.302 1.5 3.302 3.351 0 .003 0 .006 0 .008v5.04c0 .924.745 1.68 1.655 1.68s1.655-.756 1.655-1.68v-5.04c-.001-3.711-2.965-6.719-6.621-6.72L1.656 9.06C.745 9.06 0 9.816 0 10.739 0 11.663.745 12.419 1.656 12.419zM24 20.82V10.74c-.003-.927-.742-1.677-1.655-1.68-.676 0-1.241.406-1.503.994-.981-.624-2.174-.994-3.452-.994-.004 0-.006 0-.01 0V9.06c-3.655 0-6.621 3.011-6.621 6.72 0 3.71 2.966 6.72 6.621 6.72.002 0 .005 0 .008 0 1.278 0 2.472-.369 3.482-1.01l-.028.016c.262.588.841.994 1.503.994C23.258 22.497 23.996 21.747 24 20.82zM17.38 19.139c-1.835 0-3.31-1.498-3.31-3.36s1.476-3.36 3.31-3.36c1.834 0 3.31 1.498 3.31 3.36S19.214 19.139 17.38 19.139z"/></svg>