<svg xmlns="http://www.w3.org/2000/svg" enable-background="new 0 0 24 24" viewBox="0 0 24 24"><path fill="#221E1F" d="M20.767 10.357c-2.055 0-3.402 1.311-3.402 3.37 0 2.06 1.425 3.273 3.286 3.273 1.702 0 3.35-1.06 3.35-3.39C23.998 11.7 22.704 10.357 20.767 10.357zM20.702 15.581L20.702 15.581c-.851-.001-1.305-.813-1.305-1.907 0-.932.369-1.897 1.305-1.897.891 0 1.262.954 1.262 1.886C21.964 14.822 21.471 15.581 20.702 15.581zM1.226 16.853H3.19v-4.884h1.226v-1.443H3.19V9.762c-.001-.02-.002-.043-.002-.067 0-.252.09-.482.238-.661L3.426 9.035 3.425 9.037c.02-.022.041-.043.063-.062l.001-.001L3.49 8.973c0 0 .423-.418 1.42-.143h.002L5.398 7.2C5.291 7.162 5.16 7.126 5.024 7.1L5.006 7.097 4.986 7.094C4.736 7.035 4.448 7 4.153 7 4.148 7 4.143 7 4.138 7c0 0-.001 0-.001 0C4.136 7 4.134 7 4.131 7 3.754 7 3.39 7.057 3.046 7.159 2.908 7.2 2.789 7.25 2.676 7.308 2.417 7.44 2.194 7.6 2.001 7.79 1.49 8.289 1.23 8.967 1.23 9.802v.722H0v1.445h1.226V16.853z"/><path d="M3.029 7.162L3.002 7.169c.014-.004.029-.006.043-.01C3.05 7.158 3.053 7.156 3.057 7.155L3.029 7.162zM2.668 7.311L2.657 7.316C2.662 7.313 2.67 7.311 2.676 7.308c.001-.001.002-.002.004-.002L2.668 7.311z"/><path fill="#F5B83D" d="M8.028,9.638c0.612,0,1.108-0.494,1.109-1.105V8.533c0-0.61-0.497-1.106-1.109-1.106c-0.613,0-1.11,0.495-1.11,1.106C6.919,9.143,7.416,9.638,8.028,9.638z"/><polygon fill="#F5B83D" points="5.056 11.97 7.048 11.97 7.048 16.854 7.767 16.854 7.767 14.078 8.288 14.078 8.288 16.854 9.014 16.854 9.014 10.525 5.056 10.525"/><path fill="#F5B83D" d="M12.744,10.356c-1.523,0-2.86,1.247-2.849,3.382c0,1.973,1.208,3.262,2.719,3.262c0.815,0,1.595-0.368,1.979-1.06l0.12,0.91h1.707V7.568h-1.978l0.001,3.504h-0.022C14.127,10.647,13.539,10.356,12.744,10.356z M14.443,14.03c0,0.156-0.012,0.309-0.034,0.459c-0.113,0.541-0.587,0.94-1.155,0.94h-0.013c-0.815,0-1.348-0.671-1.348-1.756c0-0.997,0.456-1.801,1.359-1.801c0.62,0,1.045,0.445,1.164,0.965c0.014,0.092,0.023,0.198,0.023,0.306l-0.001,0.054L14.443,14.03z"/></svg>