<svg xmlns="http://www.w3.org/2000/svg" enable-background="new 0 0 24 24" viewBox="0 0 24 24"><radialGradient id="a" cx="-15858.519" cy="-10711.196" r="15.906" fx="-15859.533" fy="-10711.196" gradientTransform="matrix(.5269 .0235 -.0346 .7744 8007.434 8673.65)" gradientUnits="userSpaceOnUse"><stop offset=".045" stop-color="#ffea00"/><stop offset=".12" stop-color="#ffde00"/><stop offset=".254" stop-color="#ffbf00"/><stop offset=".429" stop-color="#ff8e00"/><stop offset=".769" stop-color="#ff272d"/><stop offset=".872" stop-color="#e0255a"/><stop offset=".953" stop-color="#cc2477"/><stop offset="1" stop-color="#c42482"/></radialGradient><path fill="url(#a)" d="M19.162,2.233c-0.584,0.68-0.857,2.211-0.264,3.762c0.592,1.552,1.5,1.215,2.066,2.798c0.747,2.087,0.399,4.893,0.399,4.893s0.898,2.6,1.524-0.162C24.271,8.336,19.162,3.511,19.162,2.233L19.162,2.233z"/><radialGradient id="b" cx="-9132.971" cy="-8932.235" r="9.415" gradientTransform="matrix(.8428 .0837 -.0837 .8428 6970.342 8305.057)" gradientUnits="userSpaceOnUse"><stop offset=".003" stop-color="#ffea00"/><stop offset=".497" stop-color="#ff272d"/><stop offset="1" stop-color="#c42482"/></radialGradient><path fill="url(#b)" d="M17.718,21.14c3.973-0.46,5.731-4.554,3.473-4.635C19.151,16.441,15.836,21.358,17.718,21.14L17.718,21.14z"/><radialGradient id="c" cx="-9133.823" cy="-8941.264" r="15.723" gradientTransform="matrix(.8428 .0837 -.0837 .8428 6970.342 8305.057)" gradientUnits="userSpaceOnUse"><stop offset=".003" stop-color="#ffe900"/><stop offset=".157" stop-color="#ffaf0e"/><stop offset=".316" stop-color="#ff7a1b"/><stop offset=".472" stop-color="#ff4e26"/><stop offset=".621" stop-color="#ff2c2e"/><stop offset=".762" stop-color="#ff1434"/><stop offset=".892" stop-color="#ff0538"/><stop offset="1" stop-color="#ff0039"/></radialGradient><path fill="url(#c)" d="M21.477,15.671c2.733-1.59,2.021-5.027,2.021-5.027s-1.055,1.225-1.772,3.179C21.018,15.756,19.834,16.631,21.477,15.671z"/><radialGradient id="d" cx="-9131.6" cy="-8926.69" r="14.427" gradientTransform="matrix(.8428 .0837 -.0837 .8428 6970.342 8305.057)" gradientUnits="userSpaceOnUse"><stop offset=".003" stop-color="#ff272d"/><stop offset=".497" stop-color="#c42482"/><stop offset=".986" stop-color="#620700"/></radialGradient><path fill="url(#d)" d="M12.799,23.174c3.811,1.216,7.086-1.787,5.068-2.789C16.031,19.481,10.992,22.599,12.799,23.174z"/><radialGradient id="e" cx="-36.113" cy="-2358.403" r="27.594" fx="-35.126" fy="-2358.891" gradientTransform="translate(42.788 1640.29) scale(.6914)" gradientUnits="userSpaceOnUse"><stop offset=".156" stop-color="#ffea00"/><stop offset=".231" stop-color="#ffde00"/><stop offset=".365" stop-color="#ffbf00"/><stop offset=".541" stop-color="#ff8e00"/><stop offset=".763" stop-color="#ff272d"/><stop offset=".796" stop-color="#f92433"/><stop offset=".841" stop-color="#e91c45"/><stop offset=".893" stop-color="#cf0e62"/><stop offset=".935" stop-color="#b5007f"/></radialGradient><path fill="url(#e)" d="M21.761,17.129c0.092-0.131,0.218-0.55,0.329-0.737c0.673-1.087,0.677-1.952,0.677-1.971c0.407-2.03,0.37-2.858,0.119-4.391c-0.202-1.234-1.081-3.003-1.843-3.854c-0.786-0.877-0.232-0.592-0.993-1.232c-0.666-0.739-1.313-1.471-1.665-1.765C15.843,1.052,15.9,0.6,15.949,0.523c-0.008,0.009-0.02,0.023-0.036,0.041c-0.03-0.121-0.052-0.221-0.052-0.221S14.47,1.734,14.178,4.05c-0.192,1.513,0.375,3.089,1.195,4.098c0.427,0.522,0.91,0.996,1.439,1.415V9.561c0.62,0.889,0.96,1.987,0.96,3.168c0,2.958-2.399,5.355-5.357,5.355c-0.404,0-0.805-0.045-1.198-0.134c-1.397-0.266-2.202-0.97-2.605-1.448c-0.23-0.274-0.328-0.473-0.328-0.473c1.251,0.449,2.634,0.354,3.475-0.11c0.848-0.47,1.36-0.818,1.776-0.681c0.41,0.136,0.737-0.26,0.444-0.672c-0.287-0.411-1.035-1-2.144-0.836c-0.849,0.124-1.626,0.726-2.738,0.142c-0.072-0.037-0.141-0.078-0.209-0.123c-0.073-0.043,0.238,0.065,0.166,0.017c-0.216-0.105-0.6-0.335-0.699-0.416c-0.017-0.014,0.168,0.053,0.151,0.039c-1.039-0.768-0.91-1.285-0.877-1.611c0.026-0.26,0.215-0.593,0.533-0.728c0.153,0.076,0.249,0.133,0.249,0.133S8.347,11.064,8.311,11c0.012-0.005,0.025-0.003,0.036-0.008c0.126,0.054,0.405,0.196,0.551,0.282c0.19,0.121,0.251,0.229,0.251,0.229s0.051-0.025,0.014-0.13c-0.014-0.043-0.071-0.18-0.26-0.319l0.011,0.001c0.113,0.057,0.22,0.124,0.32,0.2c0.053-0.174,0.149-0.355,0.128-0.68c-0.012-0.228-0.007-0.287-0.052-0.375c-0.041-0.076,0.023-0.105,0.092-0.027c-0.012-0.062-0.032-0.122-0.06-0.179l0.001-0.006c0.087-0.272,1.843-0.978,1.97-1.062c0.206-0.13,0.382-0.301,0.516-0.503c0.098-0.14,0.171-0.335,0.189-0.631c0.006-0.134-0.035-0.239-0.5-0.34c-0.28-0.061-0.711-0.119-1.376-0.183C9.658,7.226,9.374,6.91,9.212,6.62C9.182,6.557,9.152,6.5,9.122,6.444C9.093,6.377,9.07,6.31,9.053,6.24c0.292-0.762,0.815-1.411,1.497-1.856c0.039-0.032-0.157,0.008-0.117-0.024c0.045-0.037,0.343-0.144,0.399-0.169c0.069-0.029-0.294-0.167-0.613-0.133C9.893,4.09,9.824,4.125,9.649,4.192c0.072-0.064,0.302-0.149,0.248-0.148C9.545,4.093,9.109,4.275,8.736,4.483C8.735,4.447,8.743,4.41,8.759,4.378c-0.174,0.067-0.601,0.334-0.725,0.56C8.04,4.895,8.042,4.851,8.041,4.807C7.91,4.905,7.79,5.017,7.685,5.141L7.678,5.146C6.669,4.782,5.782,4.759,5.03,4.922C4.866,4.775,4.602,4.55,4.228,3.815C4.202,3.771,4.188,3.907,4.169,3.863C4.024,3.526,3.936,2.973,3.95,2.594c0,0-0.301,0.136-0.549,0.709c-0.046,0.103-0.076,0.16-0.105,0.216C3.283,3.536,3.327,3.331,3.32,3.342C3.277,3.415,3.165,3.518,3.116,3.65C3.082,3.748,3.035,3.803,3.005,3.925L2.998,3.936C2.996,3.9,3.007,3.787,2.999,3.811c-0.116,0.236-0.216,0.479-0.3,0.728C2.565,4.98,2.41,5.578,2.385,6.358C2.379,6.417,2.384,6.483,2.379,6.536C2.062,6.898,1.846,7.205,1.765,7.364c-0.411,0.631-0.863,1.619-1.302,3.18c0.195-0.426,0.428-0.835,0.697-1.22c-0.364,0.828-0.716,2.13-0.787,4.135c0.088-0.415,0.202-0.824,0.338-1.225c-0.063,1.337,0.092,2.994,0.938,4.864c0.502,1.1,1.657,3.333,4.479,5.075s0.96,0.715,2.61,1.25c0.122,0.044,0.246,0.088,0.372,0.13c-0.038-0.016-0.077-0.033-0.115-0.05C10.094,23.832,11.234,24,12.381,24c4.273,0.003,5.533-1.712,5.533-1.712s-0.005,0.003-0.012,0.009c0.06-0.056,0.118-0.116,0.175-0.177c-0.674,0.637-2.213,0.679-2.789,0.633c0.981-0.289,1.626-0.532,2.882-1.013c0.147-0.054,0.298-0.116,0.451-0.186c0.017-0.007,0.034-0.016,0.05-0.023c0.03-0.015,0.061-0.027,0.091-0.043c0.612-0.289,1.187-0.648,1.714-1.073c1.261-1.008,1.535-1.989,1.679-2.636c-0.02,0.062-0.082,0.206-0.126,0.301c-0.325,0.694-1.045,1.121-1.827,1.487c0.372-0.488,0.717-0.996,1.034-1.523C21.491,17.792,21.571,17.395,21.761,17.129L21.761,17.129z"/><radialGradient id="f" cx="-38.189" cy="-2372.258" r="32.583" gradientTransform="translate(42.788 1640.29) scale(.6914)" gradientUnits="userSpaceOnUse"><stop offset=".279" stop-color="#ffea00"/><stop offset=".402" stop-color="#fd0"/><stop offset=".63" stop-color="#ffba00"/><stop offset=".856" stop-color="#ff9100"/><stop offset=".933" stop-color="#ff6711"/><stop offset=".994" stop-color="#ff4a1d"/></radialGradient><path fill="url(#f)" d="M20.226,19.538c0.514-0.567,0.976-1.215,1.326-1.951c0.901-1.892,2.291-5.039,1.196-8.325c-0.867-2.597-2.056-4.017-3.565-5.405C16.73,1.604,16.044,0.599,16.044,0c0,0-2.831,3.157-1.604,6.448s3.743,3.172,5.407,6.607c1.958,4.043-1.585,8.455-4.514,9.69c0.179-0.039,6.511-1.473,6.845-5.095C22.172,17.717,22.028,18.718,20.226,19.538L20.226,19.538z"/><linearGradient id="g" x1="-9066.564" x2="-9063.358" y1="-8266.929" y2="-8267.746" gradientTransform="scale(2.651) rotate(5.67 -88042.59 87419.29)" gradientUnits="userSpaceOnUse"><stop offset="0" stop-color="#c42482" stop-opacity=".5"/><stop offset=".474" stop-color="#ff272d" stop-opacity=".5"/><stop offset=".486" stop-color="#ff2c2c" stop-opacity=".513"/><stop offset=".675" stop-color="#ff7a1a" stop-opacity=".72"/><stop offset=".829" stop-color="#ffb20d" stop-opacity=".871"/><stop offset=".942" stop-color="#ffd605" stop-opacity=".964"/><stop offset="1" stop-color="#ffe302"/></linearGradient><path fill="url(#g)" d="M12.022,7.79c0.01-0.214-0.101-0.357-1.87-0.523C9.424,7.199,9.145,6.527,9.061,6.243C8.801,6.916,8.696,7.621,8.753,8.475c0.039,0.559,0.415,1.159,0.594,1.511c0,0,0.039-0.052,0.059-0.071c0.338-0.352,1.755-0.888,1.888-0.965C11.439,8.858,11.998,8.45,12.022,7.79L12.022,7.79z"/><linearGradient id="h" x1="-56.709" x2="-57.324" y1="-2852.408" y2="-2853.985" gradientTransform="rotate(5.727 -61785.864 -1823.473) scale(2.1641)" gradientUnits="userSpaceOnUse"><stop offset="0" stop-color="#891551" stop-opacity=".6"/><stop offset="1" stop-color="#c42482" stop-opacity="0"/></linearGradient><path fill="url(#h)" d="M4.234,3.816C4.208,3.773,4.195,3.908,4.176,3.864C4.03,3.527,3.942,2.981,3.963,2.595c0,0-0.301,0.136-0.549,0.709C3.368,3.406,3.338,3.464,3.309,3.52c-0.014,0.017,0.03-0.188,0.024-0.177C3.29,3.416,3.177,3.519,3.129,3.645C3.088,3.749,3.047,3.804,3.016,3.933C3.007,3.967,3.025,3.778,3.017,3.802C2.439,4.92,2.328,6.609,2.389,6.538C3.62,5.224,5.031,4.912,5.031,4.912C4.882,4.8,4.556,4.481,4.234,3.816L4.234,3.816z"/><linearGradient id="i" x1="-376.085" x2="-375.024" y1="-1252.255" y2="-1251.051" gradientTransform="rotate(5.727 -27590.312 6836.31) scale(2.1641)" gradientUnits="userSpaceOnUse"><stop offset=".005" stop-color="#891551" stop-opacity=".5"/><stop offset=".484" stop-color="#ff272d" stop-opacity=".5"/><stop offset="1" stop-color="#ff272d" stop-opacity="0"/></linearGradient><path fill="url(#i)" d="M8.906,17.565c-1.701-0.726-3.634-1.75-3.562-4.077c0.099-3.064,2.857-2.458,2.857-2.458c-0.104,0.025-0.382,0.223-0.481,0.435c-0.104,0.264-0.294,0.86,0.282,1.486c0.905,0.981-1.859,2.326,2.406,4.868C10.517,17.876,9.41,17.783,8.906,17.565z"/><linearGradient id="j" x1="-374.079" x2="-374.078" y1="-1250.158" y2="-1251.001" gradientTransform="rotate(5.727 -27590.312 6836.31) scale(2.1641)" gradientUnits="userSpaceOnUse"><stop offset="0" stop-color="#c42482"/><stop offset=".083" stop-color="#c42482" stop-opacity=".81"/><stop offset=".206" stop-color="#c42482" stop-opacity=".565"/><stop offset=".328" stop-color="#c42482" stop-opacity=".362"/><stop offset=".447" stop-color="#c42482" stop-opacity=".204"/><stop offset=".562" stop-color="#c42482" stop-opacity=".091"/><stop offset=".673" stop-color="#c42482" stop-opacity=".023"/><stop offset=".773" stop-color="#c42482" stop-opacity="0"/></linearGradient><path fill="url(#j)" d="M8.302,16.038c1.206,0.419,2.61,0.346,3.452-0.118c0.564-0.313,1.285-0.816,1.73-0.692c-0.384-0.152-0.676-0.223-1.027-0.24c-0.06,0-0.131-0.001-0.196-0.008c-0.128,0-0.257,0.007-0.384,0.021c-0.218,0.02-0.458,0.157-0.676,0.135c-0.011-0.001,0.212-0.092,0.194-0.088c-0.116,0.024-0.242,0.029-0.375,0.046c-0.085,0.009-0.158,0.02-0.241,0.024c-2.512,0.213-4.635-1.362-4.635-1.362C5.962,14.364,6.952,15.568,8.302,16.038L8.302,16.038z"/><linearGradient id="k" x1="-25.61" x2="-22.164" y1="-1539.354" y2="-1531.651" gradientTransform="translate(70.93 3332.198) scale(2.1641)" gradientUnits="userSpaceOnUse"><stop offset="0" stop-color="#fff14f"/><stop offset=".268" stop-color="#ffee4c"/><stop offset=".452" stop-color="#ffe643"/><stop offset=".612" stop-color="#ffd834"/><stop offset=".757" stop-color="#ffc41e"/><stop offset=".892" stop-color="#ffab02"/><stop offset=".902" stop-color="#ffa900"/><stop offset=".949" stop-color="#ffa000"/><stop offset="1" stop-color="#ff9100"/></linearGradient><path fill="url(#k)" d="M20.222,19.553c2.541-2.494,3.827-5.526,3.282-8.928c0,0,0.218,1.744-0.606,3.528c0.396-1.741,0.442-3.906-0.609-6.146c-1.402-2.991-3.708-4.565-4.59-5.222c-1.333-0.995-1.887-2.007-1.897-2.217c-0.399,0.816-1.604,3.615-0.13,6.025c1.382,2.258,3.558,2.928,5.081,4.999C23.561,15.408,20.222,19.553,20.222,19.553L20.222,19.553z"/><linearGradient id="l" x1="-24.929" x2="-26.561" y1="-1534.924" y2="-1530.542" gradientTransform="translate(70.93 3332.198) scale(2.1641)" gradientUnits="userSpaceOnUse"><stop offset="0" stop-color="#ff8e00"/><stop offset=".04" stop-color="#ff8e00" stop-opacity=".858"/><stop offset=".084" stop-color="#ff8e00" stop-opacity=".729"/><stop offset=".13" stop-color="#ff8e00" stop-opacity=".628"/><stop offset=".178" stop-color="#ff8e00" stop-opacity=".557"/><stop offset=".227" stop-color="#ff8e00" stop-opacity=".514"/><stop offset=".282" stop-color="#ff8e00" stop-opacity=".5"/><stop offset=".389" stop-color="#ff8e00" stop-opacity=".478"/><stop offset=".524" stop-color="#ff8e00" stop-opacity=".416"/><stop offset=".676" stop-color="#ff8e00" stop-opacity=".314"/><stop offset=".838" stop-color="#ff8e00" stop-opacity=".172"/><stop offset="1" stop-color="#ff8e00" stop-opacity="0"/></linearGradient><path fill="url(#l)" d="M19.858,13.063c-0.888-1.834-1.996-2.634-3.044-3.502c0.122,0.17,0.152,0.231,0.22,0.342c0.923,0.983,2.284,3.383,1.295,6.393c-1.86,5.668-9.297,2.999-10.077,2.25c0.316,3.28,5.806,4.85,9.381,2.723C19.667,19.343,21.313,16.07,19.858,13.063L19.858,13.063z"/></svg>