<svg xmlns="http://www.w3.org/2000/svg" enable-background="new 0 0 24 24" viewBox="0 0 24 24"><path fill="#28B0B9" d="M11.512 3.582c.976 0 1.786-.812 1.786-1.791 0-.975-.81-1.791-1.786-1.791-.971 0-1.784.815-1.784 1.791C9.728 2.769 10.54 3.582 11.512 3.582zM11.514 8.788c1.053 0 1.865-.814 1.865-1.871 0-1.056-.823-1.87-1.871-1.872-1.05.002-1.859.814-1.859 1.872C9.649 7.974 10.459 8.788 11.514 8.788zM6.486 15.446v.012c-.892 0-1.62.733-1.62 1.625 0 .898.729 1.628 1.62 1.628.893 0 1.619-.737 1.619-1.64C8.105 16.168 7.378 15.446 6.486 15.446zM6.463 10.334c.004 0 .008.001.012.001.004 0 .007-.001.011-.001H6.463zM11.508 15.215c-1.05.002-1.859.814-1.859 1.87 0 1.057.81 1.872 1.865 1.872 1.053 0 1.865-.814 1.865-1.872C13.379 16.111 12.556 15.217 11.508 15.215zM6.475 10.335c-.967.006-1.692.734-1.692 1.708 0 .978.721 1.709 1.695 1.709s1.695-.732 1.695-1.709C8.173 11.068 7.444 10.341 6.475 10.335z"/><polygon fill="#28B0B9" points="11.504 5.045 11.508 5.045 11.512 5.045"/><path fill="#28B0B9" d="M11.514 10.091h-.002c-1.052 0-1.945.894-1.945 1.951s.894 1.952 1.947 1.952c1.053 0 1.946-.894 1.946-1.952S12.566 10.091 11.514 10.091zM11.512 20.423c-.972 0-1.784.812-1.784 1.79 0 .973.813 1.787 1.784 1.787.977 0 1.786-.812 1.786-1.79C13.298 21.234 12.488 20.423 11.512 20.423z"/><polygon fill="#28B0B9" points="11.504 15.215 11.508 15.215 11.512 15.215"/><ellipse cx="16.46" cy="12.042" fill="#28B0B9" rx="2.189" ry="2.196"/><path fill="#28B0B9" d="M14.352 6.917c0 1.138.973 2.114 2.108 2.114s2.106-.978 2.106-2.114c0-1.139-.972-2.116-2.106-2.116V4.799C15.324 4.799 14.352 5.779 14.352 6.917zM21.566 9.592V9.6c-1.296 0-2.43 1.059-2.43 2.442 0 1.301 1.051 2.441 2.43 2.441 1.381 0 2.434-1.069 2.434-2.452C23.918 10.645 22.865 9.592 21.566 9.592zM16.46 19.201c1.135 0 2.106-.979 2.106-2.116 0-1.137-.971-2.114-2.106-2.114-1.136 0-2.108.979-2.108 2.114C14.352 18.224 15.325 19.201 16.46 19.201zM4.866 6.918c0 .894.729 1.625 1.62 1.625.893 0 1.619-.731 1.619-1.625 0-.896-.727-1.626-1.619-1.626V5.29C5.594 5.29 4.866 6.022 4.866 6.918z"/><ellipse cx="1.46" cy="12.042" fill="#28B0B9" rx="1.459" ry="1.464"/></svg>