<svg xmlns="http://www.w3.org/2000/svg" enable-background="new 0 0 24 24" viewBox="0 0 24 24"><path fill="#85AB2E" d="M7.344,23.089c0.969,0.407,1.981,0.67,3.032,0.814c2.48-6.112,7.329-11.079,13.419-13.581h0.001c-0.14-1.045-0.423-2.073-0.847-3.042C15.561,9.734,9.749,15.67,7.344,23.089z"/><path fill="#85AB2E" d="M18.797 2.153c-8.013 2.374-14.266 8.683-16.59 16.714.67.969 1.5 1.907 2.422 2.625 2.308-8.105 8.635-14.555 16.729-16.912V4.579C20.624 3.642 19.767 2.827 18.797 2.153zM0 11.962c0 .921.107 1.842.311 2.753v.001C2.78 8.089 7.982 2.812 14.593.295 13.735.107 12.841 0 11.951 0 5.346 0 0 5.357 0 11.962zM13.735 23.877c1.607-.235 3.155-.819 4.532-1.676 1.875.702 3.798 1.302 5.732 1.8-.498-1.955-1.093-3.991-1.794-5.882h-.001c.814-1.345 1.361-2.877 1.581-4.436C19.532 15.98 16.018 19.607 13.735 23.877z"/></svg>