<svg xmlns="http://www.w3.org/2000/svg" enable-background="new 0 0 24 24" viewBox="0 0 24 24"><polygon points="23.776 7.203 23.777 7.203 23.777 7.201"/><path d="M22.192,4.428c0.004,0.006,0.007,0.012,0.012,0.018c0.002,0.003,0.004,0.005,0.006,0.007L22.192,4.428z"/><polygon points="21.557 14.823 21.558 14.827 21.558 14.826"/><path fill="#187DAE" d="M14.361,13.663c0.003,0.005-0.006-0.012,0.025,0.044L14.361,13.663z"/><path fill="#187DAE" d="M24,7.203c-0.002,0.02,0,0.042-0.02,0.063c0-0.028-0.027-0.057-0.027-0.084c-1.649-4.249-5.493-6.662-9.691-6.524h0.017c-1.892,0.117-3.893,0.757-4.942,1.355l0.036-0.019c-0.027,0-0.083,0-0.083,0.055c2.633-0.353,4.723-0.717,6.852,0.519c5.107,2.94,6.552,8.932,5.645,14.28c-0.404,3.039-3.308,5.467-3.645,5.979c0.055,0,0.055-0.028,0.083-0.028c4.821-2.79,5.515-6.14,5.727-6.471h0.027L24,7.203z"/><path d="M16.782,23.052c-0.004,0.003,0.009-0.004-0.037,0.021L16.782,23.052z"/><path fill="#187DAE" d="M0,13.352c0.076,0.112,0.646,3.156,3.537,5.133c0.027,0.027,0.053,0.082,0.109,0.054c-0.028-0.027-0.028-0.054-0.056-0.082c-3.945-5.67-1.699-10.723,3.406-15.298c2.977-2.307,2.774-1.832,3.309-2.174c3.344-1.538,5.965-0.493,6.743-0.493c0.081,0.028,0.136,0.028,0.219,0.028c-0.02-0.008-1.3-0.503-1.315-0.518L15.95,0c-3.151,0-6.276,0-9.4,0.027c0,0.055-0.054,0.055-0.083,0.082C1.439,2.226,0.259,6.955,0,7.127V13.352z"/><path fill="#187DAE" d="M6.029 12.561c.521.354 1.18.354 1.645.027 1.75-1.218.602-5.023-1.344-5.023V7.564C4.292 7.694 4.175 11.327 6.029 12.561zM6.523 23.973c.107 0 8.059.027 8.166.027.027-.027.027-.027.055-.027 3.383-1.051 6.796-4.467 7.016-8.901.025-.075.027-.16 0-.245-.028.028-.055.054-.055.081-.083.246-.137.464-.219.71-1.853 5.728-7.401 6.435-13.314 5.188l.161.028c-4.67-1.05-7.426-3.682-8.33-6.195v2.127C.38 17.237 1.387 22.075 6.523 23.973zM20.58 21.166c-.006.005-.014.01-.02.016-.002.002-.004.004-.006.005L20.58 21.166z"/><path fill="#187DAE" d="M15.382,15.907c0.006,0.018,0.004,0.008,0.02,0.066L15.382,15.907z"/><polygon fill="#187DAE" points="11.946 4.474 11.948 4.477 11.949 4.478"/><path fill="#187DAE" d="M9.243 12.296c.004-.002.01-.003.014-.006.002-.001.003-.002.005-.003L9.243 12.296zM8.826 7.592c.219 1.252 1.413 2.426 2.602 1.775 1.12-.65 1.388-2.2 1.152-3.496-.347-2.276-2.71-2.748-3.53-.698C9.05 5.173 8.548 6.204 8.826 7.592zM16.964 15.018c2.627 0 4.056-4.714 1.34-4.815h-.003v.001C15.698 10.064 13.956 15.018 16.964 15.018z"/><polygon fill="#187DAE" points="17.392 10.407 17.396 10.406 17.402 10.402"/><path fill="#187DAE" d="M17.648 7.592c.102-.855-.18-1.998-.987-2.321-1.628-.67-3.476 1.463-3.396 3.222h-.001C13.264 11.826 17.222 10.916 17.648 7.592zM8.687 18.022c4.337-.458 3.883 2.17 6.085 1.691 1.484-.311 1.124-2.307.63-3.741-1.43-4.632-4.01-3.999-4.276-4.122v.002C7.374 11.852 3.002 18.681 8.687 18.022z"/></svg>