<svg xmlns="http://www.w3.org/2000/svg" enable-background="new 0 0 24 24" viewBox="0 0 24 24"><path fill="#744C9E" d="M11.993,23.994c6.678,0,12.001-5.322,12.001-12c0-6.678-5.321-12-12-12s-12,5.322-12,11.999C-0.006,18.67,5.315,23.994,11.993,23.994z M2.602,12.098l9.288,9.288C6.776,21.386,2.602,17.212,2.602,12.098z M11.993,2.602c3.115,0.006,5.876,1.514,7.6,3.837l0.018,0.025l-1.356,1.147c-1.399-2.027-3.709-3.339-6.325-3.339c-0.013,0-0.027,0-0.04,0c-0.001,0-0.001,0-0.002,0c-0.014,0-0.03,0-0.047,0c-3.299,0-6.104,2.113-7.136,5.06L4.689,9.385l9.809,9.81c2.401-0.835,4.278-2.921,4.8-5.427h-4.07v-1.774h6.157c0,4.487-3.131,8.244-7.305,9.183L2.811,9.907C3.748,5.733,7.507,2.602,11.993,2.602z"/></svg>