<svg xmlns="http://www.w3.org/2000/svg" enable-background="new 0 0 24 24" viewBox="0 0 24 24"><path fill="#2FA66A" d="M7.164,16.044c0,1.66,1.35,2.476,3.64,2.476c2.873,0,4.695-1.604,4.695-3.41h-0.018c0-1.674-1.078-2.41-2.88-2.475H12.6l-1.125-0.053c-0.945-0.033-1.197-0.083-1.197-0.435c0-0.135,0.1-0.318,0.303-0.42c0.167,0.036,0.337,0.053,0.507,0.053c2.415,0,3.63-1.17,3.63-2.98c0-0.3-0.074-0.57-0.225-0.735h0.96v-2.01H12.6c-0.472-0.115-0.892-0.2-1.465-0.2c-2.543,0-3.804,1.474-3.804,3.18c0,1.07,0.506,1.84,1.26,2.242c-0.584,0.234-1.022,0.87-1.022,1.54c0,0.586,0.322,1.054,0.81,1.287C7.739,14.44,7.164,15.259,7.164,16.044z M10.426,14.523c0.09,0.015,0.226,0,0.33,0.015l1.35,0.032c0.796,0.033,1.08,0.388,1.08,0.84h-0.04v-0.001c0,0.63-0.612,1.113-1.82,1.113c-0.944,0-1.5-0.405-1.5-1.002C9.826,15.167,10.052,14.812,10.426,14.523z M11.138,7.855c0.895,0,1.342,0.48,1.342,1.193c0,0.71-0.5,1.14-1.325,1.14c-0.893,0-1.342-0.445-1.342-1.173C9.813,8.335,10.296,7.855,11.138,7.855z"/><path fill="#2FA66A" d="M12,24c6.627,0,12-5.373,12-12S18.627,0,12,0S0,5.373,0,12S5.373,24,12,24z M12,1.665c5.708,0,10.335,4.628,10.335,10.335S17.708,22.335,12,22.335C6.293,22.335,1.665,17.708,1.665,12S6.293,1.665,12,1.665z"/><path fill="#2FA66A" d="M17.637,14.524c1.01,0,1.846-0.814,1.846-1.824s-0.837-1.846-1.846-1.846v0.002c-0.99,0-1.824,0.834-1.824,1.845C15.813,13.711,16.647,14.524,17.637,14.524z"/></svg>