<svg xmlns="http://www.w3.org/2000/svg" enable-background="new 0 0 24 24" viewBox="0 0 24 24"><path fill="#1D884E" d="M3.888 4.613c0 0-.375-.359-.88-.951L1.905 4.606 1.428 4.201l2.869-1.635L3.959 2.852c.404.24.81.42 1.215.555 0 0 1.395-.78 2.774-2.655l.33.016c-.255.84-1.05 2.28-2.294 3.435 0 0 3.299 1.44 4.049 3.886-.21-.12-1.395-.375-1.979-.24-.105-.165-1.215-2.431-2.896-2.4 0 0-.375.45-.734 1.62-.314 1.035-.18 3.21-.136 3.72h6.45V0H0v10.759h2.407C2.305 9.776 2.197 6.954 3.888 4.613zM5.006.814c.5 0 .905.404.905.899S5.506 2.61 5.012 2.61H5.006C4.504 2.61 4.1 2.205 4.1 1.71S4.504.814 5.006.814zM1.673.763l.003.002C2.054 1.34 2.5 1.812 3.076 2.247l-1.005.18C1.695 1.89 1.365 1.368 1.064.728L1.673.763zM.807 2.94l3.237-.67L3.425 2.501c.079.06.145.109.243.17L2.633 3.194c-.094-.113-.165-.205-.24-.309l-1.31.489L.807 2.94zM13.238 24h10.758V13.241l-10.758-.002V24zM16.018 15.202l6.555-.015-5.655 4.064.631 3.954h.026v.001l-.6.097-1.306-8.045L16.018 15.202zM10.76 21.766c-1.264-.179-2.835-.647-4.305-1.77v-.004l1.184-1.605h.019c0 0 1.163.987 3.103 1.342v-6.491H4.59c.109.933.42 2.076 1.174 3.235L4.08 17.592c0 0-1.296-1.761-1.529-4.355H0v10.76h10.76V21.766z"/><ellipse cx="4.977" cy="2.201" fill="#1D884E" rx=".31" ry=".233"/><path fill="#1D884E" d="M13.24,2.325c1.29,0.16,2.938,0.622,4.477,1.795l-1.186,1.608l-0.016-0.015c0,0-1.229-1.051-3.27-1.38v6.419h6.33c-0.12-0.914-0.436-2.01-1.154-3.119l1.695-1.125c0,0,1.26,1.71,1.53,4.244H24V0L13.24,0.003V2.325z"/></svg>