<svg xmlns="http://www.w3.org/2000/svg" enable-background="new 0 0 24 24" viewBox="0 0 24 24"><path fill="#E6364B" d="M0,10.7c0,6.702,5.341,12.05,12.01,12.05C18.654,22.75,24,17.402,24,10.7V3.432c0-1.204-0.949-2.182-2.165-2.182H2.175C0.991,1.25,0,2.244,0,3.432V10.7z M6.374,7.41c0.911,0,0.863,0.204,5.635,4.8c4.854-4.67,4.746-4.8,5.651-4.8c0.905,0,1.645,0.742,1.645,1.65c0,0.956-0.156,0.844-6.15,6.622h0.001c-0.664,0.634-1.682,0.596-2.272,0c-6.091-5.854-6.155-5.65-6.155-6.622C4.729,8.152,5.468,7.41,6.374,7.41z"/></svg>