<svg xmlns="http://www.w3.org/2000/svg" enable-background="new 0 0 24 24" viewBox="0 0 24 24"><path fill="#1F98FF" d="M21.75,12.871c0-0.375-1.566-2.836-1.917-2.972L19.831,9.9c-0.164-0.066-0.544-0.178-0.722-0.178c-1.739,0-2.916,0.787-4.383,1.617l-0.042-0.042c0.328-2.217,1.102-4.308,1.102-6.581C15.786,1.364,13.995,0,10.705,0C5.31,0,2.577,5.33,2.577,9.3c0,4.12,2.405,6.403,6.497,6.403c0.563,0,0.516-0.047,0.516,0.178c-0.792,6.042-4.256,6.239-4.256,4.434c0-1.837,2.109-2.747,2.133-2.859c-0.014-0.572-2.203-1.294-2.761-1.294c-1.589,0.005-2.456,2.4-2.456,3.717c0,2.433,1.538,4.12,4.008,4.12c3.628,0,6.281-3.647,7.097-6.816c0.708-2.836,0.525-2.967,0.923-3.169c1.509-0.759,2.695-1.266,4.397-1.266c0.834,0,1.43,0.173,2.761,0.394C21.572,13.143,21.75,13.007,21.75,12.871z M11.615,5.943L11.615,5.943c-0.437,2.096-0.873,4.201-1.304,6.296c-0.108,0.478-0.623,0.366-1.031,0.366c-1.795,0-2.297-1.959-2.297-3.427c0-2.203,0.844-5.123,2.897-6.253c0.328-0.192,0.694-0.314,1.059-0.314c0.872,0,0.938,0.623,0.938,1.345C11.872,4.626,11.75,5.292,11.615,5.943z"/></svg>