<svg xmlns="http://www.w3.org/2000/svg" enable-background="new 0 0 24 24" viewBox="0 0 24 24"><path fill="#EAEAEA" d="M22.5,21H1.5C0.672,21,0,20.328,0,19.5v-15C0,3.672,0.672,3,1.5,3H22.5C23.328,3,24,3.672,24,4.5v15C24,20.328,23.328,21,22.5,21z"/><path fill="#D54C3F" d="M3,21H1.5C0.672,21,0,20.328,0,19.5v-15C0,3.672,0.672,3,1.5,3S3,3.672,3,4.5V21z"/><path fill="#B63524" d="M21,21h1.5c0.828,0,1.5-0.672,1.5-1.5v-15C24,3.672,23.328,3,22.5,3S21,3.672,21,4.5V21z"/><path fill="#DE5145" d="M23.359,5.73c0.679-0.474,0.845-1.41,0.371-2.089s-1.41-0.845-2.089-0.371l-9.64,7.018l-0.001,0l-0.001,0L2.359,3.27C1.68,2.796,0.745,2.962,0.27,3.641S-0.038,5.256,0.641,5.73l0,0l-0.04-0.029L12,14L23.359,5.73z M23.399,5.701L12,14L23.399,5.701z"/><path fill="#EFEFEF" d="M22.5,3c-0.319,0-0.616,0.1-0.859,0.27l-9.64,7.018l-0.001,0l-0.001,0L2.359,3.27C2.108,3.094,1.808,3,1.5,3H22.5z"/><path fill="#C64132" d="M3.001,8.094L0.473,5.59L0.472,5.592c0.053,0.05,0.109,0.096,0.169,0.138l-0.04-0.029l2.4,1.747L3.001,8.112L3.001,8.094z"/><path fill="#E3E3E3" d="M10.334,15.296L3,21L3.001,8.032l7.332,7.262L10.334,15.296z"/><linearGradient id="a" x1="-261.914" x2="-261.679" y1="1097.147" y2="1097.147" gradientTransform="matrix(38.2761 0 0 -38.2761 10028.054 42005.938)" gradientUnits="userSpaceOnUse"><stop offset="0" stop-color="#c8c8c8"/><stop offset="1" stop-color="#cdcdcd"/></linearGradient><path fill="url(#a)" d="M10.334,15.296L12,14L3.001,7.448v0.583l7.332,7.262L10.334,15.296z"/><linearGradient id="b" x1="-261.722" x2="-261.444" y1="1097.073" y2="1097.073" gradientTransform="matrix(38.2761 0 0 -38.2761 10028.054 42005.938)" gradientUnits="userSpaceOnUse"><stop offset="0" stop-color="#d9d9d9"/><stop offset="1" stop-color="#e2e2e2"/></linearGradient><path fill="url(#b)" d="M16.03,21H21V7.448L12,14l-1.667,1.293L16.03,21z"/></svg>