<svg xmlns="http://www.w3.org/2000/svg" enable-background="new 0 0 24 24" viewBox="0 0 24 24"><g fill="#00b460"><path d="M4.886 15.261c.196-.168.376-.323.58-.446.582-.355 1.217-.464 1.889-.405.314.025.623.1.912.225.416.182.725.478.977.841.042.059.065.073.111.002.432-.635 1.048-.982 1.806-1.073.75-.091 1.448.055 2.027.569.291.259.455.596.524.976.044.252.065.509.065.769.002 1.303 0 2.609.005 3.912 0 .111-.032.136-.141.136-.697-.005-1.392-.005-2.09 0-.102 0-.129-.025-.129-.125.005-1.028.005-2.054.002-3.082.002-.246-.023-.491-.079-.732-.201-.841-1.171-.846-1.602-.448-.266.246-.353.557-.393.896-.032.287-.021.575-.021.862-.002.837 0 1.676.002 2.513 0 .086-.018.116-.113.116-.709-.005-1.415-.005-2.124 0-.099 0-.12-.03-.12-.123.002-1.039.002-2.076.002-3.116 0-.212-.007-.423-.048-.632-.076-.389-.314-.632-.702-.728-.457-.111-.91.057-1.15.428-.143.223-.175.478-.178.73-.009 1.098-.009 2.199-.005 3.298 0 .118-.032.143-.148.141-.697-.005-1.392-.005-2.09 0-.097 0-.12-.027-.12-.121.002-2.013.002-4.025 0-6.038 0-.098.032-.118.125-.116.704.005 1.408.005 2.113 0 .099 0 .122.032.12.123-.012.204-.007.413-.007.648zM19.975 18.04h-2.318c-.134 0-.145.014-.127.146.018.127.025.255.06.38.109.396.349.669.75.791.349.107.7.127 1.055.023.256-.075.459-.227.616-.437.046-.059.09-.089.171-.089.677.002 1.355.002 2.032 0 .111 0 .118.032.085.125-.358 1.042-1.113 1.637-2.173 1.899-.344.084-.695.116-1.051.121-.614.011-1.221-.043-1.799-.259-1.134-.423-1.852-1.212-2.069-2.397-.164-.905-.044-1.774.464-2.563.388-.605.935-1.023 1.625-1.242.933-.296 1.884-.318 2.826-.055 1.166.325 1.856 1.119 2.173 2.249.113.4.129.814.122 1.226 0 .091-.055.082-.113.082zm-1.069-1.258h1.224c.048 0 .111.014.088-.071-.085-.314-.229-.594-.506-.789-.279-.196-.596-.225-.924-.212-.6.023-1.053.4-1.182.978-.018.084.005.096.079.093.406.001.812.001 1.221.001zM23.706 4.806c-.45-.534-1.515-.666-2.173-.362-.139.064-.284.116-.409.205l-3.946 2.82c-.282.241-.536.516-.575.873-.037.325 0 .594.289.885.653.655 1.808.66 2.357.33.506-.302 3.842-2.731 4.387-3.127l.141-.139c.162-.221.441-.876-.071-1.485zM7.105 9.127c.288-.291.325-.56.288-.885-.039-.357-.295-.632-.574-.873l-3.946-2.82c-.125-.089-.268-.141-.407-.205-.658-.305-1.72-.173-2.17.362-.515.609-.236 1.264-.072 1.483l.141.139c.543.395 3.879 2.826 4.385 3.129.547.329 1.701.325 2.355-.33zM12.027 8.39c.843 0 1.549-.378 1.75-1.078.025-.096.039-.196.039-.296l.018-2.529c0-.02.002-.043.002-.064.002-.97-.793-1.423-1.792-1.423-.993 0-1.799.525-1.808 1.487l-.002 2.549c-.002.1.009.198.03.296.17.728.895 1.058 1.763 1.058zM17.236 10.291c-1.339-.657-3.11-1.069-5.421-1.069-3.872 0-6.469 1.203-7.788 2.954h.021l-.005.007 15.585-.002c-.57-.725-1.35-1.38-2.392-1.89z"/></g></svg>