<svg xmlns="http://www.w3.org/2000/svg" enable-background="new 0 0 24 24" viewBox="0 0 24 24"><path d="M21.347,4.994l-0.001-0.016c0,0,0,0.002,0,0.003C21.346,4.986,21.347,4.99,21.347,4.994z"/><ellipse cx="14.163" cy="20.948" fill="#1D87E4" rx="2.214" ry="2.052"/><path fill="#4BAD4F" d="M2.216,11.42c1.225,0,2.214-0.92,2.214-2.055h0.003c0-1.131-0.992-2.05-2.217-2.05C0.995,7.315,0,8.234,0,9.365C0,10.5,0.995,11.42,2.216,11.42z"/><path fill="#FBBA46" d="M19.134,3.573c-1.224,0-2.217,0.914-2.217,2.039c0,1.139,0.993,2.054,2.217,2.054c1.225,0,2.21-0.914,2.212-2.051C21.338,4.495,20.352,3.573,19.134,3.573z"/><path fill="#FBBA46" d="M12.688,11.408c0.375,0.34,0.853,0.373,0.853,0.373l9.974,0.366c0,0,0.27,0.028,0.394-0.103c0.208-0.216-0.003-0.412-0.003-0.412l-3.81-3.872l-0.003-0.026c-0.297,0.113-0.623,0.182-0.964,0.182c-1.386,0-2.509-1.04-2.509-2.32c0-0.395,0.105-0.76,0.293-1.084L13.595,1.15c0,0-0.197-0.233-0.467-0.119c-0.262,0.113-0.212,0.473-0.212,0.473l-0.51,9.127C12.406,10.631,12.378,11.127,12.688,11.408z"/><path fill="#4BAD4F" d="M2.653,11.644l-1.472,4.74c0,0-0.106,0.278,0.136,0.429c0.24,0.147,0.547-0.078,0.547-0.078l8.659-4.375c0,0,0.468-0.239,0.567-0.633c0.117-0.478-0.106-0.872-0.106-0.872L6.095,2.797c0,0-0.117-0.224-0.303-0.253C5.483,2.487,5.411,2.768,5.411,2.768L3.9,7.636c0.506,0.429,0.824,1.037,0.824,1.72C4.724,10.502,3.83,11.453,2.653,11.644z"/><polygon points="3.898 7.634 3.898 7.644 3.9 7.636"/><path fill="#1D87E4" d="M11.382,13.458l-5.213,7.887c0,0-0.151,0.201-0.091,0.369c0.105,0.273,0.392,0.199,0.392,0.199l5.192-1.125v0.001h0.028c0.091-1.207,1.184-2.163,2.504-2.163c0.926,0,1.73,0.463,2.156,1.153l5.04-1.091c0,0,0.318-0.046,0.333-0.318c0.014-0.27-0.348-0.406-0.348-0.406l-8.351-4.867c0,0-0.454-0.26-0.872-0.148C11.649,13.085,11.382,13.458,11.382,13.458z"/></svg>