<svg xmlns="http://www.w3.org/2000/svg" enable-background="new 0 0 24 24" viewBox="0 0 24 24"><path fill="#EFEDDD" d="M24,2c0-1.105-0.895-2-2-2H2C0.895,0,0,0.895,0,2v20c0,1.105,0.895,2,2,2h20c1.105,0,2-0.895,2-2V2z"/><path fill="#553B08" d="M17.673,3.423H16.12v2.159c-0.042,0.016-0.064-0.026-0.086-0.064c-0.514-1.109-1.923-2.48-4.072-2.464c-2.781,0.022-4.671,1.672-5.39,4.168C6.342,8.019,6.262,8.834,6.278,9.665c0.092,4.174,2.416,6.311,6.022,6.171c1.549-0.059,2.92-0.911,3.696-2.422c0.026-0.054,0.059-0.102,0.091-0.155c0.01,0.006,0.022,0.006,0.032,0.01c0.016,0.203,0.01,1.645,0.006,1.848c-0.01,0.793-0.107,1.581-0.385,2.33c-0.418,1.125-1.194,1.859-2.384,2.116c-0.953,0.209-1.907,0.204-2.85-0.064c-1.152-0.327-1.955-1.018-2.202-2.239c-0.016-0.086-0.07-0.07-0.123-0.07H6.744c0.042,0.568,0.172,1.088,0.455,1.565c1.296,2.169,4.431,2.598,6.867,2.003c2.673-0.659,3.606-2.941,3.61-5.695l0.002-0.001C17.679,15.064,17.673,13.242,17.673,3.423z M14.143,13.922c-1.194,0.831-2.828,0.755-3.793,0.305c-1.987-0.927-2.651-3.139-2.507-5.207c0.231-3.263,2.191-4.709,4.034-4.688c2.512-0.01,3.847,1.704,4.19,4.194v0.001C16.339,10.526,15.815,12.76,14.143,13.922z"/></svg>