<svg xmlns="http://www.w3.org/2000/svg" enable-background="new 0 0 24 24" viewBox="0 0 24 24"><path fill="#FAB908" d="M10.5 22.495c0 .001 0 .003 0 .005 0 .828.672 1.5 1.5 1.5.827 0 1.497-.669 1.5-1.495v-1.64c0-.82-.67-1.5-1.5-1.5v-.01c-.83 0-1.5.67-1.5 1.5V22.495zM10.5 16.357c0 .828.672 1.5 1.5 1.5s1.5-.672 1.5-1.5V7.638c0-.83-.67-1.5-1.5-1.5v-.01c-.83 0-1.5.68-1.5 1.5V16.357z"/><path fill="#34A853" d="M18.82,12.397c0-0.83-0.67-1.5-1.5-1.5c-0.83,0-1.5,0.68-1.5,1.5v5.329c0,0.828,0.672,1.5,1.5,1.5c0.828,0,1.5-0.672,1.5-1.5V12.397z"/><path fill="#EA4335" d="M5.18,17.716c0,0.828,0.672,1.5,1.5,1.5c0.828,0,1.5-0.672,1.5-1.5v-1.62c0-0.83-0.67-1.5-1.5-1.5v-0.01c-0.83,0-1.5,0.67-1.5,1.5V17.716z"/><path fill="#FAB908" d="M12,4.629c0.828,0,1.5-0.672,1.5-1.5V1.5C13.5,0.67,12.83,0,12,0s-1.5,0.67-1.5,1.5v1.63C10.5,3.957,11.172,4.629,12,4.629z"/><path fill="#EA4335" d="M6.68,13.127c0.828,0,1.5-0.672,1.5-1.5V6.259c0-0.83-0.67-1.5-1.5-1.5v0.01c-0.83,0-1.5,0.67-1.5,1.5v5.359C5.18,12.455,5.852,13.127,6.68,13.127z"/><path fill="#34A853" d="M18.82,6.269c0-0.83-0.67-1.5-1.5-1.5c-0.83,0-1.5,0.67-1.5,1.5v1.64c0,0.828,0.672,1.5,1.5,1.5c0.828,0,1.5-0.672,1.5-1.5V6.269z"/><path fill="#1066D9" d="M22.5 9.678c-.83 0-1.5.67-1.5 1.5v1.63c0 .828.672 1.5 1.5 1.5s1.5-.672 1.5-1.5v-1.63C24 10.348 23.33 9.678 22.5 9.678zM1.5 14.307c.828 0 1.5-.672 1.5-1.5v-1.63c0-.83-.67-1.5-1.5-1.5s-1.5.67-1.5 1.5v1.63C0 13.635.672 14.307 1.5 14.307z"/></svg>