<svg xmlns="http://www.w3.org/2000/svg" enable-background="new 0 0 24 24" viewBox="0 0 24 24"><path fill="#f44336" d="m12 24c6.624 0 12-5.376 12-12s-5.376-12-12-12-12 5.376-12 12 5.376 12 12 12zm4.283-12.857h1.718v-1.717h1.718v1.718h1.703v1.718h-1.703v1.718h-1.718v-1.718h-1.718zm-7.704-5.144c1.514 0 2.908.533 4.017 1.563l-1.626 1.578c-.639-.625-1.514-.924-2.391-.924-2.076 0-3.736 1.718-3.736 3.779s1.655 3.779 3.736 3.779c1.577 0 3.14-.924 3.392-2.579h-3.392v-2.061h5.657c.063.329.092.658.092 1.001 0 3.426-2.299 5.864-5.749 5.864v.001c-3.329 0-6.001-2.686-6.001-6.001s2.672-6 6.001-6z"/></svg>