<svg xmlns="http://www.w3.org/2000/svg" enable-background="new 0 0 24 24" viewBox="0 0 24 24"><path fill="#4285F4" d="M23.761,12.273c0-0.819-0.067-1.634-0.207-2.441H12.237v4.62h6.48c-0.268,1.491-1.132,2.809-2.395,3.646v3.001h3.868C22.455,19.014,23.761,15.925,23.761,12.273L23.761,12.273z"/><path fill="#34A853" d="M12.237,24c3.238,0,5.966-1.062,7.953-2.898l-3.868-3.001c-1.077,0.73-2.462,1.147-4.085,1.147c-3.129,0-5.786-2.109-6.736-4.952H1.518v3.092C3.554,21.443,7.702,24,12.237,24z"/><path fill="#FBBC04" d="M5.502,14.297C5,12.808,5,11.192,5.502,9.704V6.612H1.518c-1.704,3.391-1.704,7.387,0,10.778L5.502,14.297z"/><path fill="#EA4335" d="M12.237,4.752c1.711-0.027,3.363,0.618,4.602,1.799l3.427-3.424c-2.173-2.039-5.049-3.159-8.029-3.126c-4.535,0-8.684,2.56-10.72,6.611l3.984,3.092C6.451,6.861,9.109,4.752,12.237,4.752z"/></svg>