<svg xmlns="http://www.w3.org/2000/svg" enable-background="new 0 0 24 24" viewBox="0 0 24 24"><g stroke-width=".094"><path fill="#dd4b39" stroke="#dd4b39" d="m12.005.081c.065.037.121.093.172.149 1.92 1.938 3.845 3.876 5.76 5.818-1.209 1.195-2.399 2.41-3.598 3.61-.451.458-.911.906-1.358 1.373-.335-.813-.656-1.63-.976-2.447 0-.85.005-1.7 0-2.554-.005-1.98-.009-3.964 0-5.949z"/><path fill="#ef851c" stroke="#ef851c" d="m6.049 6.03h5.956c.005.855 0 1.704 0 2.554-.33.803-.651 1.611-.967 2.424-.102-.056-.177-.14-.256-.224l-4.714-4.735z"/><path fill="#7e3794" stroke="#7e3794" d="m17.937 6.049.019-.014c-.005 1.989-.005 3.983 0 5.972h-2.562c-.8-.336-1.609-.644-2.413-.976.446-.467.907-.915 1.358-1.373 1.199-1.2 2.39-2.414 3.598-3.609z"/><path fill="#ffbb1b" stroke="#ffbb1b" d="m5.078 7.034c.335-.322.646-.668.99-.985l4.714 4.735c.079.084.153.168.256.224-.107.079-.242.107-.363.163-.688.28-1.386.542-2.069.841-.851-.009-1.702-.005-2.552-.005-1.981-.005-3.961.009-5.942-.005 1.651-1.662 3.31-3.315 4.966-4.968z"/><path fill="#1a8763" stroke="#1a8763" d="m6.054 12.007c.851 0 1.702-.005 2.552.005.804.332 1.609.644 2.413.971-1.32 1.345-2.655 2.671-3.98 4.011-.335.318-.637.668-.99.967 0-1.985-.004-3.969.005-5.954z"/><path fill="#427fed" stroke="#427fed" d="m15.394 12.007h2.562c1.976.005 3.957-.005 5.932.005-1.269 1.293-2.557 2.573-3.831 3.857-.707.705-1.404 1.42-2.111 2.115-1.581-1.606-3.185-3.194-4.77-4.8-.065-.07-.135-.131-.214-.177.135-.084.284-.126.428-.187.67-.271 1.339-.533 2.004-.813z"/><path fill="#65b045" stroke="#65b045" d="m11.019 12.983c.339.812.646 1.634.986 2.447-.005.85 0 1.704-.005 2.554v4.109c-.009.612.014 1.223-.009 1.83-.098-.047-.158-.135-.237-.21-1.902-1.919-3.798-3.838-5.705-5.753.353-.299.656-.649.99-.967 1.326-1.339 2.66-2.665 3.98-4.01z"/><path fill="#43459d" stroke="#43459d" d="m12.963 13.006c.079.047.149.107.214.177 1.585 1.606 3.189 3.194 4.77 4.8-1.985-.005-3.966.005-5.946 0 .005-.85 0-1.704.005-2.554.31-.807.645-1.61.957-2.423z"/></g></svg>