<svg xmlns="http://www.w3.org/2000/svg" enable-background="new 0 0 24 24" viewBox="0 0 24 24"><path fill="#5F6368" d="M10.917,11.496v2.904H9.995V7.227h2.444c0.59-0.013,1.159,0.211,1.583,0.621c0.429,0.386,0.67,0.938,0.661,1.514c0.013,0.58-0.229,1.136-0.661,1.523c-0.428,0.408-0.956,0.612-1.583,0.611L10.917,11.496L10.917,11.496z M10.917,8.11v2.505h1.545c0.343,0.01,0.673-0.124,0.912-0.371c0.484-0.47,0.496-1.245,0.024-1.729c-0.008-0.008-0.016-0.017-0.024-0.024c-0.235-0.252-0.568-0.39-0.912-0.381H10.917L10.917,8.11z M16.807,9.332c0.682,0,1.219,0.182,1.613,0.546c0.394,0.364,0.591,0.864,0.591,1.497v3.026H18.13v-0.682h-0.04c-0.382,0.561-0.89,0.842-1.523,0.842c-0.541,0-0.993-0.16-1.357-0.481c-0.353-0.298-0.554-0.739-0.546-1.202c0-0.508,0.192-0.912,0.576-1.212c0.384-0.3,0.896-0.451,1.538-0.451c0.547,0,0.998,0.1,1.352,0.3v-0.211c0.002-0.316-0.138-0.615-0.381-0.815c-0.244-0.22-0.561-0.34-0.89-0.336c-0.514,0-0.922,0.217-1.222,0.651l-0.811-0.511C15.271,9.652,15.932,9.332,16.807,9.332L16.807,9.332z M15.614,12.898c-0.001,0.238,0.113,0.462,0.305,0.601c0.204,0.16,0.457,0.246,0.716,0.24c0.389-0.001,0.762-0.156,1.037-0.431c0.305-0.288,0.458-0.624,0.458-1.012c-0.288-0.229-0.688-0.344-1.202-0.344c-0.374,0-0.687,0.09-0.937,0.271C15.74,12.408,15.614,12.631,15.614,12.898L15.614,12.898z M24.071,9.492l-3.077,7.073h-0.951l1.142-2.475L19.16,9.492h1.002l1.463,3.526h0.02l1.423-3.526H24.071z"/><path fill="#4285F4" d="M8.079,11.7c0-0.281-0.023-0.561-0.071-0.838H4.121v1.587h2.226c-0.092,0.512-0.389,0.965-0.823,1.252v1.031h1.329C7.631,14.016,8.079,12.955,8.079,11.7L8.079,11.7z"/><path fill="#34A853" d="M4.121,15.728c1.112,0,2.049-0.365,2.732-0.995l-1.329-1.031c-0.37,0.251-0.846,0.394-1.403,0.394c-1.075,0-1.987-0.725-2.314-1.701H0.439v1.062C1.139,14.85,2.563,15.728,4.121,15.728z"/><path fill="#FBBC04" d="M1.808,12.395c-0.173-0.511-0.173-1.066,0-1.578V9.756H0.439c-0.585,1.165-0.585,2.537,0,3.702L1.808,12.395z"/><path fill="#EA4335" d="M4.121,9.117c0.588-0.009,1.155,0.212,1.581,0.618l1.177-1.176c-0.746-0.7-1.734-1.085-2.758-1.074c-1.558,0-2.983,0.879-3.682,2.271l1.369,1.062C2.134,9.841,3.046,9.117,4.121,9.117z"/></svg>