<svg xmlns="http://www.w3.org/2000/svg" enable-background="new 0 0 24 24" viewBox="0 0 24 24"><path fill="#EDAF01" d="M15.181,24v-1.62h1.622V14.4C18.815,12.9,20,10.53,20,7.995C20,3.6,16.399,0,12,0S4,3.6,4,7.995c0,2.55,1.201,4.89,3.196,6.405v7.979h1.622V24H15.181z M15.198,17.58H8.803v-1.575h6.395V17.58z M5.606,7.996c0-3.525,2.852-6.391,6.394-6.391s6.394,2.851,6.394,6.391c0,2.145-1.051,4.14-2.852,5.324h0.014l-0.358,0.239V14.4H8.803v-0.84l-0.345-0.24C6.657,12.121,5.606,10.14,5.606,7.996z M8.803,20.774v-1.575h6.395v1.575H8.803z"/></svg>