<svg xmlns="http://www.w3.org/2000/svg" enable-background="new 0 0 24 24" viewBox="0 0 24 24"><path fill="#26A95E" d="M3.961,7.028l6.528-3.772c0.62,0.713,1.662,0.882,2.476,0.4c0.814-0.48,1.171-1.475,0.847-2.363c-0.324-0.89-1.234-1.421-2.166-1.266c-0.933,0.156-1.621,0.955-1.639,1.901L3.272,5.823c-0.941,0.542-1.52,1.544-1.522,2.63v8.338c0.001,1.086,0.578,2.088,1.517,2.631l7.212,4.172c0.939,0.541,2.094,0.541,3.033,0l7.213-4.172c0.937-0.543,1.515-1.545,1.517-2.629v-6.062h0.005c0.034-1.422-0.347-2.363-1.122-2.802c-1.166-0.657-2.63,0.2-2.865,0.348l-5.031,2.857c-0.743-0.591-1.802-0.566-2.516,0.06c-0.714,0.626-0.88,1.671-0.395,2.488c0.485,0.817,1.484,1.168,2.373,0.836c0.889-0.332,1.414-1.252,1.248-2.187l5.049-2.87c0.33-0.209,1.095-0.521,1.452-0.319c0.258,0.146,0.404,0.633,0.416,1.35h-0.006v6.301c-0.001,0.588-0.314,1.131-0.822,1.426l-7.213,4.172c-0.509,0.293-1.136,0.293-1.644,0l-7.213-4.172c-0.508-0.295-0.821-0.838-0.822-1.426v-8.34C3.14,7.865,3.453,7.322,3.961,7.028z"/></svg>