<svg xmlns="http://www.w3.org/2000/svg" enable-background="new 0 0 24 24" viewBox="0 0 24 24"><path fill="#FA1100" d="M12.646,21.754c0-1.433-1.055-2.725-2.149-4.187c-0.778-1.079-1.585-2.062-1.585-3.364c0-3.573,5.109-5.93,5.109-9.827c0-2.279-1.653-4.259-1.901-4.375c0.02,0.16,0.029,0.324,0.029,0.484C12.15,4.943,5,7.934,5,13.487c0,2.411,1.565,3.834,3.232,5.243c3.165,2.26,3.797,3.456,3.797,4.192c0,0.488-0.233,0.823-0.233,1.079C12.432,23.191,12.641,22.456,12.646,21.754z"/><path fill="#FA1100" d="M15.573,20.243c0.049,0,0.107-0.067,0.155-0.116C17.571,18.224,19,16.012,19,13.505c0-0.387-0.034-0.784-0.107-1.191h-0.001c-0.588-3.233-3.791-6.021-4.603-6.336l0.195,0.348c0.116,0.247,0.165,0.528,0.165,0.828c0,2.163-2.634,5.382-2.751,5.649c-0.107,0.247-0.156,0.509-0.156,0.765c0,0.973,0.738,2.038,0.87,2.038c0.116,0,2.751-2.682,2.824-4.245c0.311,0.567,0.443,1.095,0.443,1.617c0,1.994-2.032,4.69-2.032,4.69C13.847,18.23,15.397,20.243,15.573,20.243z"/></svg>