<svg xmlns="http://www.w3.org/2000/svg" enable-background="new 0 0 24 24" viewBox="0 0 24 24"><path fill="#7FAF46" d="M23.937,10.553H10.595v4.61h6.687c-1.155,2.012-3.094,3.12-5.27,3.12c-3.229,0-6.125-2.824-6.125-6.497c0-3.315,2.699-6.069,6.125-6.069c1.844,0,3.355,0.749,4.811,2.239h6.52C21.468,3.019,17.084,0,12.083,0c-3.323,0-6.22,1.17-8.53,3.409C1.25,5.647,0,8.572,0,11.754c-0.008,3.417,1.108,6.271,3.316,8.58C5.618,22.736,8.554,24,12.012,24c3.988,0,7.739-1.95,9.978-5.163c1.353-1.95,2.01-4.158,2.01-6.755C24,11.598,23.968,11.076,23.937,10.553z"/></svg>