<svg xmlns="http://www.w3.org/2000/svg" enable-background="new 0 0 24 24" viewBox="0 0 24 24"><path fill="#6FE833" d="M15.16,15.682c-2.468,0-4.431,2.013-4.431,4.416v2.523c0,0.496,0.064,1.006,0.19,1.142c0.315,0.316,1.962,0.316,2.278,0c0.136-0.136,0.195-0.631,0.195-1.142v-2.583c0-0.946,0.766-1.713,1.713-1.713c3.605,0,6.52-2.915,6.52-6.52c0-2.163-1.066-4.116-2.78-5.317L18.83,6.52c-0.189-0.127-0.315-0.315-0.315-0.57C18.199,2.596,15.413,0,11.995,0c-3.418,0-6.203,2.594-6.52,5.949c0,0.255-0.126,0.442-0.314,0.57c-1.711,1.202-2.785,3.165-2.785,5.378c0,3.038,2.087,5.573,4.872,6.331c0.507,0.127,0.95,0.189,1.14,0.061c0.379-0.188,0.76-1.832,0.57-2.213c-0.128-0.189-0.57-0.379-1.014-0.506c-1.646-0.443-2.848-1.961-2.848-3.732c0-1.015,0.379-1.9,1.014-2.6c0.252-0.315,0.63-0.567,0.948-0.757c0.696-0.38,1.14-1.142,1.14-1.964c0-0.45,0.063-0.826,0.189-1.201c0.506-1.532,1.961-2.659,3.67-2.659c1.711,0,3.166,1.127,3.672,2.659c0.126,0.375,0.189,0.751,0.189,1.201c0,0.812,0.381,1.578,1.142,1.953c0.379,0.18,0.694,0.436,0.946,0.752c0.634,0.69,1.014,1.576,1.014,2.598C19.02,13.969,17.311,15.682,15.16,15.682z"/></svg>