<svg xmlns="http://www.w3.org/2000/svg" enable-background="new 0 0 24 24" viewBox="0 0 24 24"><path fill="#25A7B7" d="M22.008,16.29c0.516,0,0.941-0.42,0.941-0.92V3.57C22.949,1.6,21.33,0,19.337,0H4.613C2.617,0,1,1.598,1,3.57v14.55c0,1.97,1.619,3.57,3.613,3.57H20.5L23,24v-3.2c0-0.003,0-0.007,0-0.01c0-0.514-0.421-0.93-0.941-0.93c-0.004,0-0.007,0-0.011,0H4.613c-0.961,0-1.751-0.8-1.751-1.74V3.57c0-0.95,0.789-1.73,1.751-1.73h14.724c0.961,0,1.761,0.76,1.761,1.73v11.8C21.098,15.87,21.523,16.29,22.008,16.29z"/><path fill="#1D123B" d="M12.546 16.73c0-.5-.405-.89-.911-.89H5.22c-.506 0-.901.4-.901.89 0 .5.405.9.911.9h6.416C12.152 17.63 12.546 17.23 12.546 16.73zM16.655 13.77h-.02c0-.5-.405-.9-.911-.9H6.475c-.506 0-.901.4-.901.9s.405.9.911.9h9.26C16.25 14.67 16.655 14.27 16.655 13.77zM7.872 3.96L7.872 3.96H5.22c-.506 0-.901.4-.901.9S4.724 5.75 5.23 5.75h2.672c.506 0 .911-.4.911-.9C8.79 4.354 8.377 3.96 7.872 3.96zM18.517 10.8c-.016-.483-.411-.869-.9-.88h-.001H6.465c-.506 0-.901.39-.901.89s.405.89.911.89h11.142C18.122 11.7 18.517 11.3 18.517 10.8zM5.564 7.82c0 .5.405.89.911.89h9.614c.496 0 .891-.4.891-.9 0-.49-.405-.88-.901-.88H6.465C5.959 6.93 5.564 7.32 5.564 7.82z"/></svg>