<svg xmlns="http://www.w3.org/2000/svg" enable-background="new 0 0 24 24" viewBox="0 0 24 24"><path fill="#247CF2" d="M22,0H2C0.896,0,0,0.895,0,2v20c0,1.104,0.896,2,2,2h20c1.104,0,2-0.896,2-2V2C24,0.895,23.104,0,22,0z M18.012,21.637c-1.417-0.003-2.566-1.153-2.566-2.573c0-0.452,0.117-0.877,0.315-1.233l-3.526-8.389c-0.015-0.028-0.07-0.028-0.07,0.014l-0.18,6.932c-0.042,1.319-1.751,1.708-2.251,0.486c-0.736-1.278-2.792-6.821-4.64-11.571c-0.055,0-0.111,0.014-0.18,0.014c-0.806,0-1.459-0.653-1.459-1.459c0-0.806,0.653-1.459,1.459-1.459c0.806,0,1.459,0.653,1.459,1.459C6.372,4.314,6.162,4.744,5.804,5.025l4.39,8.751c0.007,0.011,0.02,0.016,0.033,0.013c0.013-0.003,0.022-0.014,0.023-0.027c0.125-1.976,0.014-3.612,0.444-5.348c0.501-1.834,1.89-1.89,2.609-0.598l4.917,8.682l0.011,0.001c1.291,0.141,2.295,1.234,2.295,2.562C20.526,20.461,19.408,21.601,18.012,21.637z"/></svg>