<svg xmlns="http://www.w3.org/2000/svg" enable-background="new 0 0 24 24" viewBox="0 0 24 24"><path fill="#229FD8" d="M20.47,0H3.53C1.58,0,0,1.58,0,3.53v16.94C0,22.42,1.58,24,3.53,24h16.94c1.95,0,3.53-1.58,3.53-3.53V3.53C24,1.58,22.42,0,20.47,0z M15.542,6.708h2.46v7.06H18h-2.458V6.708z M13.53,15.725c-0.24,0.426-0.57,0.758-1.02,0.99c-0.344,0.19-0.794,0.328-1.32,0.412c-0.524,0.078-1.38,0.12-2.58,0.12v-0.069H5.654V6.692h2.915c1.184,0,2.01,0.046,2.474,0.12c0.48,0.09,0.87,0.21,1.215,0.405c0.39,0.225,0.673,0.51,0.883,0.87c0.197,0.375,0.3,0.78,0.3,1.26c0,0.6-0.15,1.08-0.465,1.424c-0.3,0.36-0.796,0.63-1.456,0.81c0.75,0.06,1.32,0.314,1.74,0.794c0.42,0.467,0.63,1.09,0.63,1.87C13.89,14.81,13.77,15.299,13.53,15.725z M16.765,17.294c-0.78,0-1.41-0.634-1.41-1.414c0-0.78,0.63-1.41,1.41-1.41v-0.011c0.78,0,1.41,0.63,1.41,1.41C18.175,16.649,17.545,17.294,16.765,17.294z"/><path fill="#229FD8" d="M10.334 10.954c.26-.158.39-.424.39-.804 0-.395-.122-.67-.367-.83C10.11 9.16 9.635 9.08 8.925 9.08H8.312v2.106h.57C9.587 11.186 10.069 11.108 10.334 10.954zM9.346 13.062l.014.004H8.31v2.297h1.006c.675 0 1.17-.074 1.44-.254.285-.165.42-.45.42-.855 0-.435-.12-.75-.39-.93C10.531 13.15 10.051 13.062 9.346 13.062z"/></svg>