<svg xmlns="http://www.w3.org/2000/svg" enable-background="new 0 0 24 24" viewBox="0 0 24 24"><path fill="#430097" d="M1.25,21.841C1.25,23.039,2.207,24,3.406,24h17.189c1.198,0,2.155-0.961,2.155-2.159V2.16C22.751,0.96,21.794,0,20.595,0H3.406C2.207,0,1.25,0.96,1.25,2.16V21.841z M2.448,2.16c0-0.54,0.419-0.961,0.958-0.961h17.189c0.538,0,0.958,0.421,0.958,0.961v19.681c0,0.539-0.42,0.96-0.958,0.96H3.406c-0.539,0-0.958-0.421-0.958-0.96V2.16z"/><path fill="#430097" d="M13.409 11.94c1.198 0 1.497.66 1.497 1.26v7.2h2.396v-7.2c.059-.179.059-1.501-.959-2.52-.478-.48-1.377-1.08-2.874-1.08-1.618 0-3.295.421-4.492.84V3.6H6.581v10.38l1.677-.78C8.258 13.2 11.013 11.94 13.409 11.94zM17.361 3.6h-2.395c-.241 1.379-.839 2.64-1.798 3.9h2.396C16.642 6.24 17.181 4.979 17.361 3.6z"/><polygon fill="#430097" points="6.64 20.399 9.335 18 6.64 15.6"/></svg>