<svg xmlns="http://www.w3.org/2000/svg" enable-background="new 0 0 24 24" viewBox="0 0 24 24"><path fill="#72C29C" d="M3.532,10.126c0.065,0.157,0.222,0.261,0.398,0.267l11.26,0.017c1.566,0.014,1.08-0.522,0.35-0.592c-2.894-0.301-7.488-0.575-8.57-0.683c0.239-0.23,4.979-5.562,5.884-6.344c0.567,0.585,5.799,7.541,5.973,7.748l-0.22,10.619c-1.338-0.749-3.457-2.405-5.69-4.135c2.267-2.354,4.335-4.514,4.467-4.68c0.13-0.163,0.028-0.73-0.36-0.516c-0.313,0.173-2.7,2.213-5.186,4.363c-2.385-1.835-4.78-3.607-6.4-4.327c-0.053-0.024-0.109-0.036-0.165-0.038c-0.122-0.003-0.242,0.042-0.332,0.127c-0.26,0.315-0.086,0.905,0.368,1.26l5.24,4.095c-2.42,2.1-4.606,4.008-4.674,4.05c-0.75,0.481,0.068,2.754,1.06,1.808c0.45-0.43,2.584-2.623,4.808-4.925l7.076,5.53c0.78,0.66,1.622-0.205,1.62-1.283c-0.001-0.465-0.033-9.494,0.057-11.821l0.004-0.05v-0.053l-0.001-0.002v-0.032c-0.004-0.365-0.13-0.824-0.628-1.502c-2.082-2.86-6.348-8.723-6.432-8.8C13.363,0.144,13.177,0.008,12.947,0c-0.17-0.005-0.333,0.056-0.487,0.183C11.781,0.747,3.688,9.612,3.628,9.67C3.504,9.79,3.466,9.969,3.532,10.126z"/></svg>