<svg xmlns="http://www.w3.org/2000/svg" enable-background="new 0 0 24 24" viewBox="0 0 24 24"><path fill="#E44D26" d="M3.345,21.601L1.419,0h21.162l-1.928,21.597L11.987,24L3.345,21.601z"/><path fill="#F16529" d="M12,22.164l7.003-1.941L20.65,1.766H12V22.164z"/><path fill="#EBEBEB" d="M12,9.778H8.494L8.252,7.065H12V4.416H5.357L5.42,5.126l0.651,7.301H12V9.778z M12,16.658l-0.012,0.003l-2.95-0.797l-0.189-2.113H6.19l0.371,4.16l5.427,1.506L12,19.414V16.658z"/><path fill="#FFF" d="M11.991,9.778v2.649h3.262l-0.308,3.436l-2.955,0.797v2.756l5.431-1.505l0.04-0.448l0.623-6.975l0.065-0.711h-0.714L11.991,9.778z M11.991,4.416v2.649h6.399l0.053-0.596l0.121-1.343l0.063-0.711L11.991,4.416z"/></svg>