<svg xmlns="http://www.w3.org/2000/svg" enable-background="new 0 0 24 24" viewBox="0 0 24 24"><path fill="#F31001" d="M2.98 12.528c1.822 1.782 6.232 4.022 7.267 4.53 0 0 .06.03.1-.01l.02-.04v-.04c-2.827-6.162-6.66-10.801-6.66-10.801S1.865 7.929 1.765 9.79v.348C1.845 11.642 2.98 12.528 2.98 12.528zM9.073 3.23C7.641 3.604 6.589 4.853 6.514 6.358v.008.408c.03.597.159 1.045.159 1.045.657 2.887 3.843 7.616 4.53 8.611.05.05.1.03.1.03.036-.016.06-.051.06-.092 0-.003 0-.006 0-.009C12.417 5.807 10.257 3 10.257 3 9.939 3.02 9.073 3.229 9.073 3.23L9.073 3.23z"/><polygon fill="#F31001" points="14.418 18.501 14.427 18.501 14.428 18.501"/><path fill="#F31001" d="M14.369 18.65c.697.508 2.837 1.991 3.863 2.29 0 0 .159.05.428.06h.14c.687-.02 1.891-.368 2.987-2.25l-7.359-.249c-.003 0-.068.001-.088.049C14.339 18.551 14.329 18.621 14.369 18.65zM2.781 17.645c.697.299 1.394.309 1.394.309.119.02 4.38 0 5.515 0 .05 0 .08-.05.08-.05v-.06c0-.03-.03-.05-.03-.05-3.225-2.18-9.477-5.515-9.477-5.515-.149.458-.199.896-.209 1.294v.07c0 1.065.398 1.812.398 1.812C1.248 17.137 2.781 17.645 2.781 17.645zM13.672 17.048l.04.01h.06c1.055-.528 5.435-2.757 7.247-4.52 0 0 1.145-.926 1.205-2.409.139-2.051-1.931-3.952-1.931-3.962 0 0-3.833 4.639-6.64 10.752C13.652 16.918 13.622 16.998 13.672 17.048zM14.906 3.22c0 0-.567-.139-1.165-.219 0 0-2.17 2.797-1.115 13.37.01.07.06.08.06.08.07.03.1-.03.1-.03.717-1.025 3.882-5.734 4.53-8.601 0 0 .358-1.394.02-2.33C17.335 5.49 16.847 3.698 14.906 3.22zM5.757 20.94c.956-.249 3.146-1.772 3.863-2.29.06-.05.04-.09.04-.09v.01c-.02-.08-.1-.08-.1-.08L2.213 18.75C3.01 20.174 4.354 21.269 5.757 20.94zM23.737 12.259c0 0-6.252 3.355-9.477 5.525 0 0-.05.04-.03.109 0 0 .03.06.07.06 1.155 0 5.535 0 5.645-.02 0 0 .568-.02 1.264-.289 0 0 1.553-.498 2.359-2.26C23.567 15.385 24.294 13.942 23.737 12.259z"/></svg>