<svg xmlns="http://www.w3.org/2000/svg" enable-background="new 0 0 24 24" viewBox="0 0 24 24"><path fill="#146EB5" d="M12,24c6.627,0,12-5.373,12-12S18.627,0,12,0C5.37,0,0,5.373,0,12S5.37,24,12,24z M6.184,7.473l0.2-0.285c0.187-0.264,0.56-0.629,0.828-0.814l0.175-0.119c0.27-0.196,0.703-0.182,0.961,0.014l3.135,2.37c0.26,0.195,0.684,0.195,0.942,0l3.135-2.385c0.258-0.195,0.698-0.226,0.979-0.061l0.33,0.195c0.28,0.165,0.639,0.524,0.795,0.81l0.12,0.21c0.154,0.285,0.123,0.721-0.075,0.99l-2.37,3.135c-0.194,0.255-0.194,0.676,0,0.945l0.006,0.028l2.37,3.131c0.198,0.261,0.211,0.69,0.025,0.961l-0.119,0.177c-0.181,0.27-0.55,0.645-0.814,0.831l-0.285,0.201c-0.266,0.195-0.697,0.195-0.956-0.016l-3.135-2.369c-0.255-0.195-0.681-0.195-0.94,0l-3.136,2.369c-0.258,0.211-0.689,0.211-0.956,0.03l-0.207-0.135c-0.27-0.181-0.641-0.556-0.825-0.81L6.186,16.62C6,16.35,6.006,15.931,6.204,15.66l2.377-3.149c0.195-0.256,0.195-0.675,0-0.945L6.197,8.43C6.003,8.167,5.994,7.74,6.184,7.473z"/></svg>