<svg xmlns="http://www.w3.org/2000/svg" enable-background="new 0 0 24 24" viewBox="0 0 24 24"><path fill="#DEB122" d="M0,22c0,1.105,0.895,2,2,2h20c1.105,0,2-0.895,2-2V2c0-1.105-0.895-2-2-2H2C0.895,0,0,0.895,0,2V22z"/><path d="M19.302 10.312c-.477 0-.798.145-1.12.492V8.57h-1.698v6.847h1.597l.102-.434c.305.365.638.524 1.12.524 1.061 0 1.19-.814 1.19-1.655v-1.928C20.491 10.998 20.448 10.312 19.302 10.312zM18.444 14.523c-.086 0-.161-.043-.203-.129-.118-.273-.059-2.362-.059-2.394 0-.203-.059-.68.263-.68.391 0 .333.391.333.68v1.752C18.777 14.041 18.863 14.523 18.444 14.523zM15.814 9.69c-.231-1.206-1.682-1.12-2.625-1.12h-1.318v6.847c4.613.006 4.018.321 4.018-4.419C15.889 10.563 15.905 10.097 15.814 9.69zM13.645 14.229V9.745c.638 0 .552.337.552.857v2.641C14.197 13.762 14.298 14.245 13.645 14.229zM5.792 8.571h2.293c.177 1.061.321 2.137.466 3.209l.407-3.209h2.304v6.847H9.725V10.79l-.622 4.629H7.999l-.654-4.527v4.527H5.792V8.571z"/><rect width="1.768" height="6.847" x="3.429" y="8.571"/></svg>