<svg xmlns="http://www.w3.org/2000/svg" enable-background="new 0 0 24 24" viewBox="0 0 24 24"><path d="M20.718 20.706c.258-.176-.021-1.021-1.134-1.241C18.598 20.38 19.754 21.337 20.718 20.706zM5.123 20.924c.791.697 1.992-.152 2.377-1.131-.24-.321-.686-.433-1.143-.404H6.355v-.001C5.347 19.447 4.267 20.191 5.123 20.924z"/><path d="M23.076 10.327l-9.147-9.51c-.56-.529-1.295-.82-2.058-.817-.745-.011-1.464.283-1.993.817l-8.825 9.184c-3.343 3.394 2.164 3.11 4.154 4.395.922.612-2.955 1.393-2.164 2.199.771.806 4.65 1.545 5.422 2.33.771.804-1.564 1.653-.793 2.457.75.806 2.549.044 2.87 1.872.235 1.349 3.3.677 4.672-.479.854-.741-1.479-.741-.708-1.545 1.929-1.98 3.642-.889 4.349-2.719.387-.979-2.913-1.677-2.034-2.308C18.922 14.701 26.633 13.939 23.076 10.327zM17.011 6.278l-1.734-1.435-.343 2.11-1.435-.784-2.336 1.502-.771-3.155L9.15 7.257 6.043 7.235c-.6 0-.514-.631.107-1.262 1.221-1.372 3.6-3.699 4.35-4.504.385-.402.915-.599 1.445-.593l.001-.002c.529.003 1.06.204 1.444.593l3.492 3.614C17.205 5.407 17.205 6.083 17.011 6.278zM23.313 18.4c-.141-.697-.87-1.018-1.611-.991v.002h-.001c-.74.025-1.496.401-1.689 1.097C20.012 18.965 23.504 19.227 23.313 18.4z"/></svg>