<svg xmlns="http://www.w3.org/2000/svg" enable-background="new 0 0 24 24" viewBox="0 0 24 24"><path fill="#41AB29" d="M15.536 8.104c.948.255 4.94-3.305 4.679-5.564-.144-1.234-1.353-2.058-2.551-2.382h.001V.154c-1.198-.318-2.704-.184-3.398.788C12.919 2.82 14.589 7.853 15.536 8.104zM22.084 10.487c.691-.494.781-1.56.556-2.414l.015-.02c-.231-.855-.821-1.717-1.7-1.82-1.61-.186-4.15 2.663-3.97 3.339C17.166 10.262 20.75 11.447 22.084 10.487z"/><path fill="#F47E03" d="M1.379,23.871c1.129,1.126,14.389-5.385,16.166-9.1c0.663-1.385-0.495-3.72-1.914-5.149l0.002-0.005c-1.428-1.41-3.763-2.58-5.151-1.92C6.769,9.476,0.254,22.746,1.379,23.871z"/></svg>