<svg xmlns="http://www.w3.org/2000/svg" enable-background="new 0 0 24 24" viewBox="0 0 24 24"><path fill="#1F8DED" d="M3,23.5h18c1.655,0,3-1.345,3-3v-18c0-1.655-1.345-3-3-3H3c-1.655,0-3,1.345-3,3v18C0,22.155,1.345,23.5,3,23.5z M19.2,5.5c0-1.061,1.602-1.061,1.602,0v7.194c0,1.061-1.602,1.061-1.602,0V5.5z M15.198,3.898c0-1.061,1.602-1.061,1.602,0v10.688c0,1.061-1.602,1.061-1.602,0V3.898z M11.202,3.497c0-1.061,1.602-1.061,1.602,0v11.598c0,1.061-1.602,1.061-1.602,0V3.497z M7.2,3.898c0-1.061,1.602-1.061,1.602,0v10.688c0,1.061-1.602,1.061-1.602,0V3.898z M3.198,5.5c0-1.061,1.602-1.061,1.602,0v7.194c0,1.061-1.602,1.061-1.602,0V5.5z M4.521,16.487c3.53,2.962,11.577,2.888,14.962,0c0.798-0.691,1.838,0.525,1.039,1.216h0.001c-3.901,3.375-12.949,3.504-17.041,0C2.679,17.018,3.718,15.802,4.521,16.487z"/></svg>