<svg xmlns="http://www.w3.org/2000/svg" enable-background="new 0 0 24 24" viewBox="0 0 24 24"><path fill="#187DC1" d="M19.547 7.737h-1.243v5.596c0 .658.314 1.226 1.243 1.317V7.737zM19.931 15.663c-2.116 1.275-5.617 2.327-8.533 2.599-4.742.443-9.686-.254-10.377-4.001-.337-1.847.497-3.807 1.598-5.022v-.65c-1.987 1.762-3.065 3.994-2.444 6.629.792 3.382 5.035 5.297 11.509 4.66 2.563-.252 5.916-1.086 8.247-2.38V15.663z"/><rect width="1.242" height="1.193" x="3.497" y="7.906" fill="#187DC1"/><path fill="#187DC1" d="M9.833 14.706v-3.453c0-.7-.369-1.472-1.449-1.472L5.837 9.779v4.927H7.07v-3.92h1.02c.364 0 .513.18.513.474v3.446H9.833zM23.894 8.546C22.769 2.992 12.102 2.641 5.23 6.871v.467c6.865-3.567 16.604-3.547 17.491 1.567.296 1.694-.646 3.456-2.329 4.471v1.325C22.417 13.951 24.497 11.519 23.894 8.546zM3.496 9.781v3.655c0 .661.316 1.229 1.244 1.319V9.781H3.496z"/><path fill="#187DC1" d="M10.756,8.439v4.853c0,0.7,0.428,1.406,1.432,1.406v-0.001h0.728v-1.038h-0.5c-0.294,0-0.429-0.158-0.429-0.445v-2.426h0.929V9.78h-0.928V8.439H10.756z"/><polygon fill="#187DC1" points="4.742 14.756 4.74 14.755 4.74 14.76"/><path fill="#187DC1" d="M17.587,12.178c0-1.407-0.76-2.482-2.075-2.482c-1.296,0-2.281,0.917-2.281,2.54c0,1.898,1.13,2.548,2.31,2.548c0.901,0,1.415-0.295,1.902-0.782l-0.762-0.737c-0.316,0.32-0.587,0.471-1.131,0.471c-0.701,0-1.094-0.471-1.094-1.107l3.131-0.003V12.178z M14.456,11.779c0.001-0.185,0.041-0.367,0.118-0.536c0.137-0.297,0.463-0.516,0.885-0.516c0.632,0,0.872,0.516,0.895,1.051H14.456z"/></svg>