<svg xmlns="http://www.w3.org/2000/svg" enable-background="new 0 0 24 24" viewBox="0 0 24 24"><path d="M12.99,10.284c-0.877,0.398-1.524,0.293-2.312,0.756c-0.787,0.461-1.184,1.103-1.184,1.103l-3.205,8.362c-0.347,0.944,0.167,2.05,1.121,2.42c0.957,0.369,2.033-0.12,2.404-1.056l5.013-13.094C14.827,8.775,13.866,9.884,12.99,10.284z M8.901,16.949v0.009c-0.151,0.068-0.333,0-0.396-0.155c-0.07-0.152,0-0.334,0.153-0.397c0.154-0.07,0.334,0,0.397,0.153C9.13,16.709,9.064,16.873,8.901,16.949z M10.073,19.129c-0.104,0.043-0.224,0-0.265-0.104c-0.042-0.097,0-0.216,0.105-0.265c0.104-0.041,0.224,0,0.265,0.105C10.219,18.969,10.177,19.087,10.073,19.129z M9.936,16.146c-0.299,0.126-0.627,0-0.762-0.285l0.013,0.001c-0.123-0.288,0-0.623,0.286-0.758c0.284-0.124,0.613,0,0.748,0.285C10.341,15.678,10.22,16.013,9.936,16.146z M10.477,12.596c-0.104,0.042-0.225,0-0.264-0.104c-0.044-0.106,0.006-0.227,0.103-0.267c0.105-0.042,0.225,0,0.265,0.105C10.624,12.434,10.581,12.556,10.477,12.596z M11.849,14.153c-0.155,0.07-0.336,0-0.398-0.155c-0.074-0.152,0-0.334,0.154-0.397v0.003c0.153-0.074,0.334,0,0.397,0.15C12.071,13.908,12.001,14.09,11.849,14.153z"/><path d="M12.758,0.489c-0.012,0.046-0.012,0.092,0,0.138c0,0,0.149,0.976-0.023,1.413L5.66,20.449c-0.505,1.355,0.172,2.86,1.527,3.376c1.355,0.517,2.86-0.149,3.399-1.493l7.074-18.41c0.138-0.356,0.93-1.057,0.93-1.057c0.035-0.035,0.069-0.069,0.092-0.103V2.751c0-0.012,0.012-0.012,0.012-0.023c0.184-0.471-0.999-1.367-2.63-1.998c-1.631-0.632-3.112-0.758-3.296-0.276C12.769,0.454,12.758,0.466,12.758,0.489z" enable-background="new" opacity=".1"/><linearGradient id="a" x1="-67.303" x2="-67.293" y1="133.982" y2="133.98" gradientTransform="matrix(561.0148 0 0 -1011.5933 37766.61 135546.234)" gradientUnits="userSpaceOnUse"><stop offset="0" stop-color="#919191"/><stop offset="1" stop-color="#fff"/></linearGradient><path fill="url(#a)" d="M12.551,0.328c-0.012,0.046-0.012,0.092,0,0.138c0,0,0.149,0.976-0.023,1.413l-7.074,18.41c-0.505,1.355,0.172,2.86,1.528,3.376s2.86-0.149,3.399-1.493l7.074-18.41c0.138-0.356,0.93-1.057,0.93-1.057c0.035-0.035,0.069-0.069,0.092-0.103V2.59c0-0.012,0.012-0.012,0.012-0.023c0.184-0.471-0.999-1.367-2.63-1.998c-1.631-0.632-3.112-0.758-3.296-0.276C12.562,0.305,12.562,0.316,12.551,0.328L12.551,0.328z"/><linearGradient id="b" x1="-69.037" x2="-69.028" y1="134.562" y2="134.56" gradientTransform="matrix(373.6914 0 0 -614.1078 25807.02 82650.406)" gradientUnits="userSpaceOnUse"><stop offset="0" stop-color="#900"/><stop offset="1" stop-color="#e80000"/></linearGradient><path fill="url(#b)" d="M14.779,8.654L9.668,21.93c-0.379,0.953-1.47,1.447-2.446,1.068c-0.976-0.379-1.493-1.493-1.137-2.446l3.261-8.487c0,0,0.402-0.655,1.206-1.125c0.804-0.471,1.458-0.368,2.343-0.758C13.791,9.791,14.779,8.654,14.779,8.654L14.779,8.654z"/><path fill="#333" d="M17.257,2.183c0.102-0.266-0.631-0.796-1.637-1.184c-1.006-0.388-1.903-0.488-2.005-0.222c-0.102,0.266,0.631,0.796,1.637,1.184C16.258,2.35,17.155,2.449,17.257,2.183L17.257,2.183z"/><path fill="#FFF" d="M12.503,0.464c0,0,0.148,0.973-0.023,1.409L5.452,20.231c-0.502,1.351,0.171,2.852,1.518,3.367c0.228,0.092,0.468,0.149,0.707,0.16c-0.924-0.706-1.281-1.932-0.879-3.023L13.69,2.743C13.69,2.743,12.743,1.862,12.503,0.464L12.503,0.464z" enable-background="new" opacity=".3"/><g opacity=".5" transform="translate(420.01 104.5)"><ellipse cx="-409.766" cy="-92.194" fill="#FFF" rx=".205" ry=".206"/><ellipse cx="-408.431" cy="-90.717" fill="#FFF" rx=".308" ry=".309"/><ellipse cx="-410.473" cy="-88.953" fill="#FFF" rx=".582" ry=".584"/><ellipse cx="-411.409" cy="-87.877" fill="#FFF" rx=".308" ry=".309"/><ellipse cx="-410.188" cy="-85.586" fill="#FFF" rx=".205" ry=".206"/></g></svg>