<svg xmlns="http://www.w3.org/2000/svg" enable-background="new 0 0 24 24" viewBox="0 0 24 24"><path fill="#EE4035" d="M23.966,3.219C23.966,1.441,22.53,0,20.762,0c-1.623,0-2.968,1.205-3.188,2.764c-1.81-0.53-3.841-0.08-5.266,1.345c-0.981,1.023-3.809,3.83-5.336,5.351l2.372,2.372c0.536-0.536,4.806-4.805,5.341-5.346c0.766-0.766,2.014-0.766,2.781,0c0.686,0.686,0.911,1.875-0.188,2.967l2.358,2.373c1.672-1.671,2.063-3.621,1.549-5.421C22.75,6.187,23.966,4.842,23.966,3.219z"/><polygon points="6.972 9.46 6.972 9.46 6.971 9.458"/><path fill="#4F91CD" d="M17.641,21.421c0.295,1.467,1.591,2.577,3.156,2.577c1.768,0,3.204-1.435,3.204-3.219c0-1.618-1.206-2.946-2.765-3.165l0.002-0.002c0.439-1.752-0.048-3.669-1.409-5.03c-0.632-0.654,0.267,0.251-5.33-5.34l-2.374,2.374l5.341,5.34c0.766,0.766,0.766,2.014,0,2.78c-0.686,0.686-1.876,0.911-2.968-0.187l-2.358,2.373C13.618,21.539,15.783,21.999,17.641,21.421z"/><path fill="#F9AE40" d="M3.862,11.645c2.684,2.677,0.648,0.67,5.347,5.34l2.358-2.373l-5.33-5.329c-0.766-0.766-0.766-2.031,0-2.796C6.921,5.8,8.106,5.575,9.204,6.673L11.578,4.3c-1.575-1.575-3.423-2.013-5.169-1.607C6.157,1.178,4.844,0.004,3.237,0.004c-1.768,0-3.204,1.435-3.204,3.219L0.032,3.225c0,1.532,1.061,2.812,2.502,3.123C1.986,8.174,2.426,10.226,3.862,11.645z"/><path fill="#7AC043" d="M3.204,24c1.533,0,2.813-1.06,3.14-2.501c1.752,0.439,3.67-0.032,5.047-1.393c1.72-1.714,0.654-0.664,5.33-5.34l0.001,0.001l-2.358-2.373c-4.661,4.628-2.701,2.699-5.341,5.346c-0.766,0.766-2.015,0.766-2.781,0c-0.702-0.718-0.905-1.891,0.172-2.967l-2.358-2.373c-1.618,1.618-2.036,3.492-1.581,5.266C1.045,17.985,0,19.266,0,20.781C0,22.565,1.435,24,3.204,24z"/></svg>