<svg xmlns="http://www.w3.org/2000/svg" enable-background="new 0 0 24 24" viewBox="0 0 24 24"><path fill="#1266A9" d="M1.406,16.346c0.023,0.052,0.049,0.1,0.077,0.148c0.013,0.028,0.031,0.057,0.047,0.083c0.026,0.052,0.054,0.102,0.081,0.152l0.157,0.264c0.029,0.049,0.057,0.097,0.09,0.145c0.055,0.094,0.12,0.186,0.177,0.28c0.026,0.039,0.05,0.078,0.079,0.117c0.11,0.171,0.21,0.313,0.317,0.451c0.076,0.103,0.152,0.204,0.234,0.305c0.027,0.038,0.057,0.076,0.085,0.114l0.221,0.268c0.027,0.031,0.054,0.067,0.083,0.099c0.098,0.118,0.202,0.232,0.306,0.348c0,0.002,0.003,0.004,0.005,0.007c0.129,0.162,0.268,0.306,0.42,0.434l0.004,0.004c0.08,0.082,0.16,0.163,0.245,0.243l0.101,0.097c0.111,0.104,0.222,0.207,0.339,0.307c0.002,0,0.003,0.002,0.005,0.003l0.057,0.05c0.102,0.089,0.205,0.177,0.31,0.259l0.125,0.105c0.085,0.068,0.173,0.132,0.26,0.199l0.136,0.104c0.093,0.07,0.192,0.138,0.287,0.206c0.035,0.025,0.07,0.05,0.106,0.073l0.029,0.023l0.281,0.184l0.12,0.08c0.147,0.094,0.293,0.182,0.439,0.27c0.042,0.021,0.084,0.044,0.123,0.068c0.108,0.062,0.22,0.125,0.329,0.182c0.06,0.034,0.122,0.063,0.184,0.094c0.075,0.042,0.153,0.083,0.233,0.125c0.022,0.007,0.04,0.014,0.058,0.024L7.56,22.257c0.033,0.015,0.064,0.031,0.096,0.047c0.12,0.06,0.245,0.117,0.375,0.173c0.024,0.01,0.05,0.02,0.076,0.034c0.144,0.063,0.288,0.123,0.437,0.181c0.034,0.01,0.07,0.027,0.105,0.04c0.135,0.051,0.274,0.103,0.412,0.152l0.05,0.018c0.153,0.052,0.304,0.102,0.46,0.149c0.036,0.01,0.073,0.023,0.111,0.033c0.159,0.048,0.313,0.105,0.474,0.135c10.273,1.863,13.258-6.146,13.258-6.146c-2.508,3.25-6.959,4.107-11.174,3.153c-0.156-0.036-0.312-0.086-0.47-0.132c-0.286-0.083-0.476-0.143-0.663-0.209l0.095,0.029l-0.062-0.024c-0.136-0.046-0.267-0.097-0.4-0.148c-0.025-0.011-0.062-0.025-0.099-0.038l-0.011-0.003c-0.147-0.059-0.29-0.119-0.432-0.182c-0.031-0.01-0.057-0.024-0.088-0.036c-0.262-0.116-0.381-0.172-0.5-0.23l0.138,0.061c-0.037-0.016-0.07-0.033-0.106-0.052c-0.094-0.044-0.188-0.094-0.28-0.141c-0.086-0.041-0.147-0.073-0.207-0.106l0.02,0.01c-0.113-0.06-0.226-0.125-0.34-0.186c-0.034-0.024-0.073-0.044-0.112-0.066c-0.216-0.126-0.359-0.215-0.502-0.306l0.063,0.038c-0.048-0.03-0.087-0.056-0.124-0.083l0.006,0.004c-0.123-0.076-0.221-0.141-0.316-0.208c-0.034-0.022-0.065-0.046-0.1-0.07c-0.128-0.088-0.224-0.157-0.318-0.228l0.024,0.017c-0.042-0.034-0.087-0.066-0.132-0.099c-0.088-0.069-0.177-0.135-0.265-0.207l-0.118-0.094c-0.127-0.102-0.233-0.191-0.337-0.282c-0.01-0.01-0.021-0.019-0.033-0.027l-0.001-0.001l-0.347-0.315l-0.1-0.094c-0.082-0.083-0.166-0.162-0.25-0.244l-0.097-0.1c-0.104-0.103-0.204-0.207-0.303-0.315l-0.006-0.007L5.45,16.138c-0.106-0.116-0.209-0.233-0.313-0.353c-0.027-0.031-0.052-0.064-0.08-0.097L4.83,15.413c-0.079-0.098-0.19-0.243-0.3-0.391l-0.04-0.056C2.152,11.79,1.306,7.407,3.177,3.811L1.525,5.9C-0.6,8.939-0.337,12.891,1.288,16.118C1.325,16.197,1.366,16.271,1.406,16.346z"/><path d="M8.563,11.968c-0.004-0.005-0.007-0.011-0.011-0.016c-0.003-0.004-0.006-0.008-0.009-0.012L8.563,11.968z"/><path fill="#1266A9" d="M9.681,13.28l0.09,0.09c0.114,0.11,0.231,0.217,0.35,0.324l0.015,0.013c0.12,0.106,0.255,0.217,0.394,0.325l0.021,0.016c0.034,0.023,0.063,0.05,0.096,0.073c0.14,0.108,0.281,0.211,0.428,0.314l0.015,0.009c0.062,0.045,0.128,0.086,0.198,0.13c0.028,0.018,0.06,0.042,0.09,0.06c0.106,0.068,0.21,0.131,0.317,0.196c0.017,0.007,0.032,0.016,0.048,0.023c0.09,0.055,0.188,0.108,0.282,0.156c0.033,0.02,0.065,0.035,0.099,0.054c0.067,0.033,0.133,0.068,0.197,0.102l0.032,0.014c0.135,0.066,0.273,0.128,0.408,0.189c0.034,0.013,0.063,0.024,0.092,0.038c0.111,0.048,0.224,0.094,0.335,0.136c0.05,0.017,0.097,0.037,0.144,0.052c0.102,0.038,0.209,0.073,0.31,0.108l0.14,0.045c0.146,0.045,0.294,0.104,0.449,0.128C22.164,17.181,24,11.104,24,11.104c-1.653,2.367-4.852,3.495-8.261,2.614c-0.207-0.053-0.357-0.097-0.506-0.145l0.057,0.016c-0.048-0.013-0.09-0.028-0.136-0.042c-0.104-0.036-0.211-0.071-0.312-0.108l-0.144-0.054c-0.112-0.045-0.226-0.087-0.335-0.135c-0.034-0.015-0.065-0.025-0.091-0.04c-0.14-0.063-0.281-0.125-0.418-0.191l-0.206-0.107l-0.119-0.06c-0.092-0.048-0.177-0.098-0.265-0.149c-0.025-0.012-0.045-0.023-0.065-0.036l0.003,0.001c-0.106-0.066-0.216-0.13-0.318-0.197c-0.034-0.019-0.065-0.042-0.097-0.062l-0.208-0.135c-0.144-0.1-0.285-0.207-0.428-0.311c-0.032-0.029-0.063-0.053-0.094-0.079c-1.499-1.173-2.681-2.776-3.242-4.591c-0.591-1.887-0.461-4.003,0.56-5.72L8.12,3.341c-1.541,2.201-1.454,5.143-0.254,7.471c0.219,0.43,0.441,0.793,0.686,1.139c0.228,0.326,0.48,0.708,0.784,0.97C9.444,13.044,9.56,13.161,9.681,13.28z"/><polygon points="2.436 17.992 2.432 17.986 2.425 17.977"/><polygon points="6.594 17.248 6.604 17.255 6.606 17.258"/><path fill="#1266A9" d="M13.666,1.427c-0.909,1.327-0.996,2.975-0.37,4.438c0.665,1.554,2.024,2.774,3.608,3.352c0.065,0.025,0.128,0.046,0.195,0.07l0.088,0.027c0.092,0.029,0.185,0.063,0.28,0.084c4.381,0.841,5.567-2.238,5.886-2.691c-1.043,1.49-2.792,1.848-4.938,1.329c-0.21-0.052-0.383-0.107-0.55-0.17l0.033,0.011c-0.253-0.089-0.457-0.174-0.656-0.27l0.038,0.017c-0.41-0.2-0.762-0.416-1.089-0.664c-1.918-1.45-3.104-4.211-1.852-6.46L13.666,1.427z"/></svg>