<svg xmlns="http://www.w3.org/2000/svg" enable-background="new 0 0 24 24" viewBox="0 0 24 24"><linearGradient id="a" x1="37.985" x2="37.992" y1="99.982" y2="99.976" gradientTransform="matrix(2341.4561 0 0 -2498.4375 -88937.328 249803.578)" gradientUnits="userSpaceOnUse"><stop offset="0"/><stop offset="1" stop-color="#fff"/></linearGradient><path fill="url(#a)" d="M11.98,17.865c5.31,7.238,10.506-2.02,10.498-7.588C22.469,3.694,15.797,0.015,11.975,0.015C5.841,0.015,0,5.084,0,12.02C0,19.73,6.696,24,11.975,24c-1.195-0.172-5.176-1.025-5.229-10.195c-0.036-6.202,2.023-8.68,5.221-7.59c0.072,0.027,3.527,1.39,3.527,5.843C15.494,16.492,11.98,17.865,11.98,17.865L11.98,17.865z"/><linearGradient id="b" x1="37.782" x2="37.773" y1="99.975" y2="99.982" gradientTransform="matrix(2065.9375 0 0 -2499.9961 -78033.563 249957.89)" gradientUnits="userSpaceOnUse"><stop offset="0"/><stop offset="1" stop-color="#fff"/></linearGradient><path fill="url(#b)" d="M11.973,6.21c-3.509-1.209-7.806,1.682-7.806,7.474C4.167,23.142,11.175,24,12.025,24C18.159,24,24,18.931,24,11.995c0-7.709-6.696-11.98-11.975-11.98c1.462-0.203,7.881,1.582,7.881,10.355c0,5.721-4.793,8.836-7.91,7.505c-0.072-0.027-3.527-1.39-3.527-5.843C8.468,7.599,11.973,6.21,11.973,6.21L11.973,6.21z"/></svg>