<svg xmlns="http://www.w3.org/2000/svg" enable-background="new 0 0 24 24" viewBox="0 0 24 24"><path fill="#EC7424" d="M17.925 3.731c-1.737-1.21-3.677-1.815-5.618-1.815-2.043 0-3.984.605-5.618 1.714-1.634 1.21-2.86 2.723-3.575 4.639 1.839-2.118 5.21-3.428 9.194-3.428 3.882 0 7.355 1.412 9.194 3.428C20.785 6.454 19.559 4.84 17.925 3.731zM17.925 19.26c1.634-1.109 2.86-2.723 3.575-4.538-1.839 2.017-5.312 3.429-9.194 3.429-3.882 0-7.355-1.412-9.194-3.429.715 1.815 1.941 3.429 3.575 4.538s3.575 1.714 5.618 1.714S16.29 20.37 17.925 19.26z"/><ellipse cx="3.522" cy="3.227" fill="#737374" rx="1.022" ry="1.008"/><ellipse cx="5.054" cy="22.185" fill="#737374" rx="1.839" ry="1.815"/><ellipse cx="19.457" cy="1.412" fill="#737374" rx="1.43" ry="1.412"/></svg>