<svg xmlns="http://www.w3.org/2000/svg" enable-background="new 0 0 24 24" viewBox="0 0 24 24"><path fill="#E9478B" d="M3.098,8.989c3.185,0,6.196,0.829,8.815,2.225L21.251,0H2.749v22.255V8.989H3.098L3.098,8.989z"/><path fill="#3EBEB0" d="M11.913,11.215l-9.164,11.04V24h18.458C20.16,18.502,16.669,13.833,11.913,11.215z"/><path fill="#37A595" d="M11.913,11.215l-9.164,11.04V24h3.273l8.902-10.735c0,0-0.611-0.48-1.44-1.091C12.873,11.738,11.913,11.215,11.913,11.215z"/><path fill="#353535" d="M3.098,8.989H2.749v13.265l9.164-11.04C9.295,9.818,6.284,8.989,3.098,8.989L3.098,8.989z"/></svg>