<svg xmlns="http://www.w3.org/2000/svg" enable-background="new 0 0 24 24" viewBox="0 0 24 24"><polygon points="18.876 16.522 18.875 16.523 18.873 16.525"/><polygon points="19.948 5.954 19.957 5.949 19.959 5.948"/><path d="M2.56 5.568L2.55 5.569c.008-.001.017-.001.026-.001.03-.001.052-.012.083-.012L2.56 5.568zM21.341 5.555c.029 0 .05.011.079.012.007.001.015 0 .021.001L21.341 5.555z"/><polygon points="20.959 5.571 20.967 5.571 20.969 5.57"/><path fill="#2E179C" d="M15.906 14.621c1.686 0 3.053-1.341 3.053-2.996s-1.367-2.996-3.053-2.996V8.63c-1.686 0-3.053 1.341-3.053 2.996S14.22 14.621 15.906 14.621zM14.166 11.312c.087.206.291.347.527.347.315 0 .57-.25.57-.559 0-.3-.242-.546-.544-.558h-.001c.213-.144.476-.23.76-.23.001 0 .002 0 .002 0l-.001.001c.733.021 1.32.608 1.32 1.33 0 .722-.587 1.311-1.318 1.33h-.002-.001c-.749 0-1.356-.596-1.356-1.33C14.122 11.528 14.138 11.417 14.166 11.312zM8.1 14.622c.019 0 .039 0 .058-.001H8.155c1.662-.03 2.998-1.36 2.998-2.996S9.817 8.661 8.158 8.63H8.155c-.016 0-.036 0-.055 0-1.686 0-3.053 1.341-3.053 2.996S6.414 14.622 8.1 14.622zM7.279 11.312c.087.206.291.347.527.347.315 0 .57-.25.57-.559v-.001c0-.301-.242-.547-.546-.559H7.829c.212-.143.475-.229.758-.229.001 0 .003 0 .004 0v.001c.733.021 1.32.608 1.32 1.33 0 .722-.587 1.311-1.318 1.33H8.591c-.749 0-1.356-.596-1.356-1.33C7.235 11.528 7.251 11.417 7.279 11.312zM11.143 15.342c0 .206.138.358.378.358.079 0 .142-.063.142-.14 0-.066-.046-.121-.108-.136h-.001c-.022-.005-.13-.043-.13-.133 0-.09 0-.123.183-.147.078-.012.116-.103.092-.177-.024-.073-.094-.098-.179-.091C11.281 14.895 11.143 15.018 11.143 15.342zM12.456 15.143c.182.025.182.056.182.147 0 .09-.107.128-.13.133-.063.016-.109.071-.109.136 0 .078.064.14.142.14.24 0 .379-.152.379-.358 0-.324-.139-.447-.377-.467-.085-.006-.156.018-.18.091C12.339 15.04 12.378 15.131 12.456 15.143z"/><path fill="#2E179C" d="M2.834,12.804c0.118,0.031,0.223,0.039,0.336,0.062c0.399,1.856,1.58,3.426,3.158,4.299v0.001H6.33c0.929,0.512,1.81,0.747,2.472,0.995c0.924,0.35,1.9,0.737,3.036,0.834L11.898,19h0.15c1.306,0,2.296-0.517,3.152-0.839c0.655-0.245,1.54-0.473,2.477-0.989c0.453-0.253,0.845-0.539,1.198-0.866c0.959-0.887,1.652-2.04,1.956-3.339l0.009-0.044c0.867-0.142,1.62-0.547,2.189-1.127l0.001-0.001c1.098-1.094,1.094-2.562,0.809-3.695c-0.144-0.567-0.366-1.085-0.71-1.547C22.795,6.106,22.277,5.6,21.42,5.567c-0.063-0.006-0.133-0.011-0.206-0.011c-0.083,0-0.165,0.005-0.247,0.014c-0.376,0.062-0.713,0.193-1.01,0.378c-0.497,0.301-0.656,0.604-0.825,0.87c-0.055,0.087-0.09,0.16-0.139,0.244C17.376,5.664,14.917,5,12.008,5C9.094,5,6.631,5.666,5.013,7.07c-0.05-0.086-0.085-0.16-0.141-0.248C4.702,6.554,4.544,6.25,4.044,5.949c-0.29-0.183-0.631-0.317-0.998-0.378L3.03,5.569C2.958,5.56,2.875,5.556,2.79,5.556c-0.072,0-0.144,0.005-0.214,0.011c-0.854,0.034-1.37,0.539-1.704,0.985C0.527,7.013,0.305,7.533,0.161,8.1c-0.285,1.133-0.289,2.601,0.81,3.696C1.546,12.373,2.222,12.643,2.834,12.804z M2.683,6.9c0,0,0.246-0.063,0.666,0.191c0.521,0.315,0.987,1.947,1.62,2.172c1.044-1.875,3.501-2.919,7.063-2.919c3.557,0,6.012,1.045,7.056,2.914c0.63-0.238,1.093-1.855,1.612-2.167C21.12,6.836,21.365,6.9,21.365,6.9c0.95,0,1.93,2.744,0.712,3.956c-0.644,0.645-1.83,0.826-2.422,0.78c-0.045,1.87-1.155,3.558-2.624,4.366c-0.748,0.412-1.552,0.628-2.296,0.907c-0.921,0.345-1.786,0.749-2.662,0.749h-0.092c-0.872-0.075-1.74-0.399-2.662-0.749c-0.744-0.28-1.548-0.5-2.296-0.912c-1.46-0.808-2.571-2.492-2.616-4.362c-0.587,0.049-1.788-0.129-2.436-0.779C0.754,9.644,1.733,6.9,2.683,6.9z"/></svg>