<svg xmlns="http://www.w3.org/2000/svg" enable-background="new 0 0 24 24" viewBox="0 0 24 24"><path fill="#31CE63" d="M20.85,10.224L21.68,0.5L1.958,3.573l1.686,6.272H0l3.734,11.533l8.713-1.288V23.5l10.113-4.659L24,10.195L20.85,10.224z M11.221,6.831c0-0.047,0.039-0.09,0.088-0.092l3.064-0.204c0.002,0,0.005,0,0.007,0c0.044,0,0.08,0.036,0.08,0.08v0.947c0,0.049-0.039,0.09-0.087,0.092l-1.9,0.08c-0.048,0.003-0.086,0.042-0.088,0.09L12.38,8.22v0.001c0,0.046,0.037,0.083,0.083,0.083c0.001,0,0.002,0,0.003,0l1.646-0.066c0.001,0,0.003,0,0.004,0c0.045,0,0.082,0.037,0.082,0.082c0,0.001,0,0.001,0,0.002l-0.02,1.016c-0.002,0.048-0.041,0.086-0.089,0.086h-1.63c-0.048,0.001-0.087,0.04-0.088,0.088v0.418c0,0.047,0.039,0.088,0.088,0.088l1.87,0.033c0.048,0.002,0.087,0.041,0.087,0.09v0.955c0,0.046-0.038,0.084-0.084,0.084c-0.001,0-0.002,0-0.003,0l-3.063-0.124c-0.048-0.002-0.087-0.041-0.087-0.09L11.221,6.831z M5.211,7.145L5.211,7.145L6.186,7.08c0.002,0,0.004,0,0.006,0c0.048,0,0.089,0.034,0.099,0.08v0.001l0.458,2.214c0.01,0.047,0.027,0.047,0.039,0l0.576-2.29c0.016-0.048,0.057-0.083,0.107-0.09h0.001l0.921-0.061c0.002,0,0.003,0,0.005,0c0.049,0,0.09,0.033,0.104,0.077v0.001l0.564,2.351c0.012,0.047,0.029,0.047,0.041,0l0.6-2.433C9.722,6.88,9.764,6.844,9.814,6.837h0.001l0.996-0.064c0.048-0.004,0.077,0.031,0.065,0.078l-1.09,4.12c-0.014,0.048-0.057,0.082-0.109,0.082l-1.121-0.031c-0.052-0.003-0.095-0.038-0.109-0.085v-0.001L7.912,8.963c-0.012-0.047-0.033-0.047-0.045,0l-0.522,1.942c-0.016,0.047-0.059,0.08-0.11,0.082l-1.109-0.031c-0.051-0.004-0.094-0.04-0.108-0.087v-0.001L5.145,7.235C5.134,7.188,5.164,7.147,5.211,7.145z M7.64,13.083c-0.003,0.048-0.041,0.086-0.089,0.088l-1.139,0.004c-0.048,0.002-0.086,0.04-0.087,0.088v3.461c0,0.049-0.039,0.09-0.087,0.092l-1.227,0.07c-0.002,0-0.005,0-0.008,0c-0.044,0-0.08-0.036-0.08-0.08c0-0.001,0-0.001,0-0.002v-0.001V13.23c-0.001-0.048-0.039-0.087-0.087-0.088l-1.252-0.029c-0.049-0.002-0.088-0.041-0.091-0.09l-0.046-1.129c0-0.001,0-0.003,0-0.004c0-0.045,0.037-0.082,0.082-0.082H3.53l4.047,0.096c0.048,0,0.087,0.041,0.085,0.088L7.64,13.083z M10.096,16.742c-1.033,0.001-2.339-0.727-2.339-2.325c0-1.926,1.321-2.492,2.416-2.492c1.095,0,2.339,0.733,2.339,2.325C12.512,16.157,11.129,16.742,10.096,16.742z M14.989,16.438c-0.939,0-2.093-0.683-2.093-2.137c0-1.753,1.166-2.247,2.162-2.247s2.129,0.667,2.129,2.115C17.187,15.905,15.928,16.438,14.989,16.438z M17.088,11.258l-2.133-0.059c-0.048-0.002-0.086-0.041-0.086-0.089v-0.001l0.027-4.522c0-0.049,0.039-0.092,0.088-0.094l2.325-0.155c0.524-0.035,1.634,0.063,1.634,1.241c0,0.833-0.619,1.189-0.619,1.189s0.75,0.19,0.707,1.096C19.031,11.472,17.088,11.258,17.088,11.258z M21.069,15.88c-0.003,0.049-0.042,0.089-0.091,0.092l-0.823,0.046c-0.001,0-0.002,0-0.004,0c-0.054,0-0.103-0.025-0.135-0.064l-1.187-1.638c-0.029-0.039-0.053-0.031-0.053,0.018v1.676c0,0.047-0.039,0.09-0.086,0.092l-1.052,0.061c-0.002,0-0.003,0-0.005,0c-0.045,0-0.082-0.037-0.082-0.082l0.039-3.857c0-0.047,0.039-0.086,0.088-0.084l0.881,0.02c0.056,0.005,0.104,0.033,0.137,0.074l1.293,1.91c0.027,0.041,0.051,0.033,0.051-0.014l0.032-1.853c0.001-0.048,0.039-0.086,0.087-0.086c0.001,0,0.001,0,0.002,0l0.963,0.029c0.047,0,0.085,0.041,0.083,0.09L21.069,15.88z"/><path fill="#31CE63" d="M17.128 9.38L16.23 9.409c-.048.001-.087.041-.087.089v.001.598.001c0 .048.039.086.086.086h.99c.024 0 .35-.051.35-.406C17.569 9.485 17.34 9.376 17.128 9.38zM10.166 13.19c-.637 0-1.002.447-1.002 1.119 0 .599.352 1.152.971 1.152.764 0 1.113-.445 1.113-1.158C11.248 13.697 10.91 13.19 10.166 13.19zM15.053 13.205c-.58 0-.912.406-.912 1.02 0 .545.32 1.049.882 1.049.695 0 1.014-.406 1.014-1.055C16.037 13.666 15.729 13.205 15.053 13.205zM16.258 8.216l.724-.014c0 0 .47.018.47-.436 0-.358-.411-.331-.411-.331l-.782.008c-.048.001-.087.04-.088.088v.6.001c0 .046.037.083.083.083C16.255 8.216 16.257 8.216 16.258 8.216z"/></svg>