<svg xmlns="http://www.w3.org/2000/svg" enable-background="new 0 0 24 24" viewBox="0 0 24 24"><path fill="#664F44" d="M3.119,17.404v0.01V17.404z M2.523,16.471v-0.01V16.471z M23.138,16.308c-0.01-0.038-0.019-0.077-0.019-0.115c-0.01-0.019-0.01-0.048-0.019-0.067c-0.019-0.048-0.038-0.106-0.058-0.154c-0.048-0.096-0.115-0.192-0.202-0.269c-0.087-0.077-0.183-0.135-0.279-0.163c-0.096-0.038-0.192-0.058-0.279-0.058h-0.067c0.048-0.471-0.125-0.808-0.231-0.962c0.01-0.01,0.01-0.019,0.019-0.019c0.096-0.125,0.183-0.24,0.25-0.356l0.01-0.019c0.058-0.106,0.087-0.202,0.106-0.298c0.01-0.077,0.019-0.154,0.019-0.212v-0.058v-0.038c0-0.029-0.01-0.058-0.01-0.087c-0.019-0.144-0.077-0.327-0.192-0.51c-0.058-0.096-0.135-0.192-0.231-0.269c-0.096-0.087-0.212-0.154-0.346-0.212c-0.01,0-0.019-0.01-0.029-0.01c-0.298-0.346-0.625-0.596-0.913-0.788c-0.144-0.096-0.288-0.173-0.404-0.24c-0.115-0.067-0.212-0.115-0.269-0.144c-0.125-0.067-0.212-0.106-0.26-0.125c-0.096-0.048-0.173-0.077-0.221-0.106c-0.038-0.019-0.058-0.038-0.058-0.038s-0.01-0.01-0.01-0.029c-0.01-0.029-0.019-0.067-0.029-0.125c-0.019-0.096-0.029-0.24-0.038-0.433c-0.019-0.308-0.038-0.721-0.077-1.288c-0.01-0.183-0.029-0.346-0.058-0.51c-0.038-0.25-0.106-0.481-0.183-0.683c-0.019-0.048-0.038-0.096-0.058-0.135c-0.019-0.029-0.029-0.058-0.038-0.077c-0.019-0.029-0.029-0.058-0.048-0.087c-0.01-0.01-0.019-0.029-0.029-0.058c-0.029-0.038-0.058-0.087-0.087-0.135l-0.01-0.01l-0.019-0.019l-0.01-0.019c-0.058-0.077-0.125-0.144-0.192-0.212c-0.048-0.125-0.115-0.308-0.231-0.519c-0.096-0.183-0.221-0.385-0.385-0.577c-0.058-0.067-0.125-0.135-0.192-0.192l0.019-0.019c0.029-0.029,0.606-0.817,1.019-1.798C19.571,2.24,19.119,1.24,18.6,0.721L18.58,0.702l-0.019-0.01C18.061,0.212,17.436,0,16.705,0c-1.519,0-3.125,0.952-3.548,1.212l-0.923-0.788c-0.077-0.067-0.173-0.135-0.26-0.183c-0.096-0.048-0.192-0.096-0.298-0.125c-0.202-0.067-0.423-0.096-0.654-0.096c-0.462,0-0.962,0.115-1.5,0.327C8.725,0.663,7.85,1.192,6.946,1.894S5.128,3.481,4.253,4.5c-1.067,1.25-1.913,2.529-2.5,3.721C1.465,8.817,1.234,9.385,1.08,9.923c-0.154,0.529-0.24,1.029-0.24,1.481c0,0.327,0.048,0.635,0.144,0.904c0.048,0.115,0.096,0.231,0.163,0.337c0.087,0.135,0.192,0.26,0.308,0.365l0.962,0.779l0.106,0.087v0.01c-0.01,0.019-0.019,0.038-0.019,0.058l-0.029,0.087c-0.01,0.019-0.01,0.038-0.019,0.058l-0.029,0.087c-0.01,0.019-0.01,0.038-0.019,0.058l-0.029,0.087c-0.01,0.019-0.01,0.038-0.019,0.058c-0.01,0.029-0.01,0.058-0.019,0.096c0,0.019-0.01,0.038-0.01,0.058c-0.01,0.029-0.01,0.067-0.019,0.096v0.029c0,0.01,0,0.019-0.01,0.038c0,0.029-0.01,0.067-0.01,0.096c0,0.019-0.01,0.038-0.01,0.058v0.404c0,0.038,0,0.087,0.01,0.125v0.106c0,0.029,0.01,0.058,0.01,0.087c0,0.019,0,0.038,0.01,0.058v0.029c0,0.019,0.01,0.038,0.01,0.058c0,0.019,0.01,0.038,0.01,0.058c0,0.019,0.01,0.029,0.01,0.048c0,0.01,0.01,0.019,0.01,0.029c0,0.019,0.01,0.038,0.01,0.058c0,0.019,0.01,0.048,0.019,0.077c0,0.01,0,0.019,0.01,0.029c0.01,0.019,0.01,0.048,0.019,0.067s0.01,0.038,0.019,0.067c0,0.01,0.01,0.019,0.01,0.029c0,0.01,0.01,0.029,0.01,0.038l0.01,0.019c0.01,0.019,0.01,0.038,0.029,0.067c0,0.01,0.01,0.01,0.01,0.019c0.01,0.019,0.01,0.038,0.019,0.048l0.01,0.019c0,0.01,0.01,0.01,0.01,0.019l0.01,0.019l0.01,0.019l0.01,0.01c0,0.01,0.01,0.01,0.01,0.019l0.01,0.019c0.01,0.019,0.01,0.029,0.019,0.038c0.01,0.019,0.019,0.038,0.029,0.067v0.01c0,0.01,0.01,0.01,0.01,0.019c0.01,0.029,0.019,0.048,0.029,0.058c0.01,0.019,0.019,0.038,0.038,0.067l0.01,0.01c0.01,0.019,0.019,0.029,0.029,0.048l0.01,0.01c0,0.01,0.01,0.019,0.019,0.029c0.01,0.01,0.01,0.019,0.019,0.038l0.01,0.01c0.01,0.01,0.019,0.029,0.019,0.038c0.01,0.01,0.01,0.019,0.019,0.029C2.85,16.981,2.859,17,2.878,17.019l0.01,0.01c0.01,0.01,0.01,0.019,0.019,0.029s0.019,0.019,0.019,0.029c0.01,0.01,0.019,0.029,0.038,0.058l0.01,0.01c0.01,0.01,0.01,0.019,0.019,0.029c0.01,0.01,0.019,0.029,0.029,0.038c0.01,0.01,0.019,0.029,0.038,0.048l0.01,0.01L3.1,17.308c0.01,0.01,0.019,0.029,0.029,0.038c0.01,0.01,0.019,0.029,0.038,0.048l0.029,0.029l0.038,0.038L3.273,17.5l0.029,0.029l0.038,0.038l0.029,0.029l0.01,0.01c0.019,0.019,0.038,0.029,0.058,0.048l0.019,0.019l0.029,0.029c0.019,0.019,0.038,0.038,0.058,0.048c0.01,0.01,0.019,0.01,0.029,0.019c0,0,0.01,0.01,0.029,0.019l0.01,0.01c0.029,0.019,0.048,0.038,0.077,0.058h0.01c0.01,0,0.019,0.01,0.029,0.019c0.029,0.019,0.067,0.048,0.096,0.067l0.019,0.01l0.01,0.01l0.019,0.01C3.898,17.99,3.927,18,3.946,18.019h0.01c0.01,0.01,0.019,0.01,0.019,0.01h0.01c0.01,0,0.019,0.01,0.019,0.01c0.019,0.01,0.048,0.029,0.067,0.038l0.019,0.01l0.019,0.01l0.01,0.01c0.019,0.01,0.048,0.019,0.067,0.038c0.01,0.01,0.019,0.01,0.038,0.019l0.019,0.01l0.01,0.01h0.01c0.038,0.019,0.067,0.029,0.106,0.048l0.019,0.01c0.048,0.019,0.087,0.029,0.125,0.048h0.01l0.019,0.01c0.019,0.01,0.038,0.01,0.058,0.019c0.01,0,0.019,0.01,0.029,0.01s0.029,0.01,0.038,0.01h0.019c0.019,0.01,0.038,0.01,0.058,0.019h0.01c0.019,0.01,0.048,0.01,0.067,0.019H4.85c0.01,0,0.019,0,0.029,0.01h0.01c0.029,0.01,0.067,0.01,0.096,0.019h0.01c0.048,0.01,0.096,0.019,0.144,0.019h0.01c0.048,0.01,0.087,0.01,0.125,0.01h0.038c0.038,0,0.077,0.01,0.125,0.01h0.115c0.01,0.01,0.01,0.019,0.01,0.029c0.087,0.173,0.183,0.337,0.279,0.51C7.359,21.962,10.782,24,14.398,24s7.125-2.837,8.269-6.231c0.048-0.135,0.096-0.26,0.135-0.385c0.135-0.173,0.231-0.356,0.288-0.538C23.167,16.702,23.177,16.481,23.138,16.308L23.138,16.308z"/><path fill="#90694C" d="M22.58,16.442c0,0,0-0.144-0.087-0.269l-0.019-0.019l-0.01-0.01l-0.029-0.029c-0.019-0.019-0.048-0.029-0.077-0.048c-0.019-0.01-0.029-0.01-0.048-0.019c-0.048-0.019-0.096-0.029-0.163-0.029c-0.048,0-0.096,0-0.154,0.01c-0.019,0-0.048,0.01-0.067,0.01h-0.01c0,0,0,0.01,0.01,0.019c0,0.01,0.01,0.019,0.019,0.038c0,0.01,0.01,0.01,0.01,0.019c0.01,0.029,0.029,0.067,0.038,0.115c0,0,0,0.01-0.01,0.029v0.01c-0.019,0.067-0.077,0.231-0.221,0.452c-0.029,0.038-0.048,0.077-0.087,0.115c-0.413,0.548-1.365,1.385-3.49,2.048c-0.721,0.192-1.404,0.288-1.99,0.288c-0.875,0-1.548-0.192-1.894-0.529l-0.087-0.087c-0.019-0.019-0.038-0.048-0.058-0.067c-0.01-0.01-0.01-0.019-0.019-0.029c-0.154-0.212-0.24-0.452-0.269-0.692c-0.029-0.288,0.019-0.587,0.154-0.817c0.106-0.192,0.25-0.337,0.442-0.423c0.096-0.038,0.192-0.067,0.298-0.077h0.423c0.413,0,1.067-0.019,1.846-0.163c1.413-0.269,3.24-0.952,4.76-2.702v-0.01c-0.01-0.125-0.058-0.356-0.24-0.519c-0.029-0.029-0.067-0.058-0.115-0.077c-0.019-0.01-0.048-0.029-0.077-0.038c-0.029-0.01-0.048-0.019-0.077-0.029c-0.029-0.019-0.067-0.029-0.087-0.048v-0.01c-0.01-0.019-0.029-0.029-0.038-0.048c-0.529-0.615-1.183-0.933-1.452-1.077c-0.125-0.067-0.202-0.096-0.202-0.096c-0.567-0.26-0.654-0.356-0.721-1.231c-0.019-0.317-0.038-0.731-0.077-1.298c0-0.077-0.01-0.144-0.019-0.212c0-0.019,0-0.029-0.01-0.048c-0.01-0.067-0.019-0.125-0.029-0.183V8.625c-0.01-0.048-0.019-0.096-0.029-0.135c0-0.019-0.01-0.038-0.01-0.058c-0.01-0.048-0.019-0.096-0.038-0.135c-0.01-0.019-0.01-0.048-0.019-0.067c-0.01-0.029-0.019-0.048-0.029-0.067c-0.01-0.019-0.019-0.048-0.029-0.067c-0.01-0.029-0.019-0.048-0.029-0.077c0-0.01-0.01-0.019-0.01-0.029c0-0.01-0.01-0.019-0.01-0.029v-0.01l-0.01-0.029l-0.029-0.058v-0.01l-0.01-0.019l-0.01-0.019c-0.019-0.038-0.038-0.067-0.067-0.096l-0.019-0.019c-0.029-0.029-0.048-0.058-0.077-0.087l-0.01-0.01l-0.01-0.01c-0.019-0.019-0.038-0.038-0.048-0.058l-0.019-0.019C18.119,7.5,18.09,7.481,18.071,7.462V7.413l-0.01-0.019v-0.01c-0.01-0.038-0.029-0.077-0.048-0.135c-0.01-0.01-0.01-0.029-0.019-0.038v-0.01c-0.01-0.019-0.01-0.029-0.019-0.048c-0.019-0.038-0.029-0.077-0.048-0.115c-0.01-0.01-0.01-0.029-0.019-0.038c-0.01-0.029-0.029-0.058-0.038-0.087c-0.01-0.019-0.019-0.029-0.029-0.048c-0.01-0.029-0.029-0.058-0.048-0.077l-0.029-0.058c-0.019-0.029-0.029-0.058-0.048-0.077c-0.01-0.019-0.019-0.038-0.038-0.058c-0.019-0.029-0.038-0.058-0.058-0.077C17.609,6.5,17.59,6.481,17.58,6.471c-0.019-0.029-0.048-0.058-0.067-0.087l-0.038-0.038c-0.01-0.01-0.019-0.019-0.038-0.029C17.407,6.288,17.378,6.26,17.35,6.24l-0.019-0.01c-0.038-0.029-0.077-0.067-0.125-0.087l-0.01-0.01c-0.019-0.01-0.038-0.019-0.058-0.038h-0.01c-0.019-0.01-0.038-0.019-0.048-0.029h-0.01c-0.019-0.01-0.048-0.019-0.096-0.038c-0.019,0-0.029-0.01-0.048-0.01C16.84,6,16.725,5.971,16.59,5.952h-0.029c-0.115-0.019-0.24-0.029-0.365-0.029h-0.231c-0.106,0-0.202,0.01-0.308,0.019h-0.01c-0.135,0.019-0.269,0.048-0.385,0.087c0.019-0.058,0.096-0.115,0.173-0.173c0.096-0.067,0.192-0.125,0.192-0.125c-0.058,0.01-0.115,0.029-0.173,0.048c-0.019,0.01-0.038,0.01-0.058,0.019c-0.01,0-0.029,0.01-0.038,0.01h-0.01c-0.01,0-0.019,0.01-0.029,0.01c-0.288,0.096-0.558,0.24-0.712,0.327l-0.058,0.029l-0.01,0.01c-0.019,0-0.029,0.01-0.048,0.01c0.087-0.231,0.25-0.365,0.375-0.452c0.019-0.01,0.038-0.029,0.058-0.038c0.01,0,0.01-0.01,0.019-0.01c0.019-0.01,0.029-0.019,0.048-0.019c0.029-0.01,0.048-0.019,0.048-0.019c-0.01,0-0.029,0.01-0.038,0.01c-0.01,0-0.019,0-0.038,0.01c-0.019,0-0.038,0.01-0.048,0.01s-0.019,0-0.029,0.01c-0.327,0.077-0.606,0.221-0.837,0.394c-0.163,0.115-0.298,0.24-0.413,0.365c-0.029,0.01-0.067,0.019-0.106,0.038c-0.346,0.125-0.75,0.269-1.163,0.462c-0.154,0.067-0.308,0.144-0.462,0.221c-0.125,0.058-0.24,0.125-0.365,0.192c-0.087,0.048-0.173,0.096-0.26,0.154c-0.625,0.375-1.231,0.856-1.712,1.442C9.552,8.981,9.532,9,9.523,9.029C9.484,9.087,9.446,9.135,9.398,9.192C9.378,9.212,9.369,9.24,9.35,9.26L9.292,9.346C9.205,9.481,9.119,9.615,9.052,9.76c-0.058,0.106-0.106,0.212-0.154,0.327l-0.01,0.01c-0.096,0.231-0.183,0.481-0.24,0.74c-0.029,0.135-0.058,0.269-0.077,0.404c-0.01,0.038-0.01,0.077-0.019,0.106v0.019c-0.019,0.154-0.029,0.308-0.029,0.462v0.096c0,0.077,0,0.154,0.01,0.24c0,0.077,0.01,0.144,0.01,0.221v0.019c0,0.038,0.01,0.077,0.01,0.115c0,0.038,0.01,0.087,0.019,0.125v0.029c0.01,0.087,0.019,0.173,0.038,0.26v0.01c0.019,0.087,0.029,0.173,0.048,0.26c0.01,0.038,0.019,0.077,0.019,0.106c0,0.01,0,0.019,0.01,0.029c0,0.019,0.01,0.038,0.019,0.058c0.019,0.096,0.048,0.192,0.077,0.298c0.01,0.029,0.019,0.058,0.019,0.087c0.029,0.087,0.048,0.173,0.077,0.26c0,0-0.029-0.115-0.038-0.288v-0.125c0-0.096,0.01-0.212,0.029-0.327c0.01-0.029,0.01-0.058,0.019-0.087c0-0.01,0.01-0.029,0.01-0.038c0.019-0.058,0.029-0.106,0.058-0.163c0.01,0.038,0.019,0.067,0.038,0.106v0.029c0,0.019,0.01,0.048,0.01,0.067c0.01,0.058,0.01,0.115,0.019,0.183s0.019,0.144,0.029,0.221c0.048,0.327,0.125,0.712,0.24,1.038c0,0-0.058-0.606,0.029-0.692c0,0,0.317,1.096,0.538,1.5c0.029,0.048,0.058,0.096,0.077,0.115l-0.019-0.115l-0.106-0.625v-0.067c0.154,0.24,0.327,0.481,0.529,0.731c0.058,0.067,0.106,0.135,0.163,0.212c-0.279,0.308-0.51,0.731-0.663,1.212C9.821,17,9.792,17.077,9.773,17.163c-0.01,0.048-0.019,0.096-0.029,0.135c0,0.019-0.01,0.029-0.01,0.048c-0.01,0.029-0.01,0.067-0.019,0.096c0,0.019-0.01,0.038-0.01,0.048c0,0.029-0.01,0.067-0.01,0.096c0,0.019,0,0.029-0.01,0.048c0,0.048-0.01,0.096-0.01,0.144s0,0.096-0.01,0.144v0.212c0,0.038,0,0.067,0.01,0.106v0.048c0,0.048,0.01,0.106,0.019,0.154v0.01c0.01,0.038,0.01,0.077,0.019,0.115s0.01,0.077,0.019,0.125v0.029c0.01,0.048,0.019,0.096,0.038,0.144c0,0.019,0.01,0.029,0.01,0.048c0.01,0.029,0.019,0.067,0.029,0.106c0.01,0.019,0.01,0.038,0.019,0.058c0.01,0.029,0.019,0.058,0.029,0.096c0.01,0.019,0.01,0.038,0.019,0.058c0.01,0.029,0.019,0.058,0.038,0.087c0.01,0.019,0.019,0.038,0.019,0.058c0.01,0.029,0.029,0.058,0.038,0.087l0.029,0.058c0.01,0.029,0.029,0.058,0.048,0.096l0.029,0.058c0.019,0.038,0.038,0.067,0.058,0.106c0.01,0.019,0.019,0.029,0.029,0.048c0.058,0.096,0.115,0.192,0.183,0.298c0.01,0.019,0.019,0.029,0.029,0.048c0.029,0.038,0.048,0.067,0.077,0.106c0.01,0.019,0.029,0.038,0.038,0.058c0.019,0.029,0.048,0.058,0.077,0.096c0.019,0.019,0.029,0.038,0.048,0.058c0.029,0.029,0.048,0.058,0.077,0.087c0.019,0.019,0.038,0.038,0.048,0.058c0.029,0.029,0.058,0.058,0.077,0.087l0.058,0.058l0.087,0.087l0.058,0.058c0.029,0.029,0.067,0.067,0.106,0.096l0.048,0.048c0.048,0.048,0.106,0.087,0.163,0.135c0,0-0.038-0.038-0.087-0.106c-0.01-0.01-0.019-0.029-0.029-0.038c-0.01-0.019-0.019-0.029-0.029-0.048c-0.01-0.019-0.019-0.038-0.038-0.058c-0.096-0.163-0.192-0.404-0.221-0.673c0.029,0.038,0.067,0.067,0.096,0.096c0.038,0.067,0.096,0.144,0.154,0.231c0.019,0.029,0.038,0.058,0.067,0.087c0.087,0.125,0.192,0.26,0.298,0.404c0.135,0.163,0.279,0.327,0.423,0.471c0,0-0.183-0.288-0.26-0.481c-0.019-0.058-0.029-0.106-0.029-0.135c0.01,0.01,0.029,0.019,0.038,0.029c0.01,0.01,0.029,0.019,0.038,0.029c0.029,0.029,0.058,0.067,0.096,0.106l0.019,0.019l0.058,0.058l0.077,0.077c0.24,0.24,0.548,0.538,0.769,0.702c0.077,0.058,0.135,0.087,0.173,0.106l-0.346-0.462c0.692,0.433,3.385,0.769,5.865-0.288c0.298-0.125,0.596-0.279,0.885-0.442c0.173-0.106,0.346-0.212,0.519-0.337l0.029-0.019c0.115-0.087,0.231-0.173,0.346-0.269c0.087-0.067,0.173-0.144,0.26-0.221c0.144-0.125,0.279-0.26,0.413-0.404c0.01-0.01,0.019-0.019,0.019-0.029c0.135-0.144,0.25-0.298,0.365-0.442c0.144-0.202,0.279-0.394,0.394-0.596l0.01-0.01c0.029-0.048,0.058-0.096,0.077-0.144l0.01-0.01c0.01-0.019,0.019-0.029,0.029-0.048c0.038-0.067,0.077-0.135,0.106-0.212c0.01-0.019,0.019-0.029,0.019-0.048c0.019-0.038,0.029-0.077,0.048-0.106c0.01-0.029,0.029-0.058,0.038-0.087c0.01-0.029,0.029-0.058,0.038-0.087c0.019-0.058,0.048-0.106,0.067-0.163c0.01-0.019,0.019-0.038,0.019-0.067c0.019-0.038,0.029-0.087,0.048-0.125c0.01-0.019,0.01-0.038,0.019-0.058l0.01-0.019c0.019-0.048,0.038-0.106,0.048-0.154v-0.01c0.077-0.087,0.125-0.173,0.173-0.25c0.01-0.01,0.01-0.019,0.019-0.029C22.571,16.731,22.59,16.577,22.58,16.442L22.58,16.442z M6.994,16.5c0-0.01-0.01-0.019-0.01-0.038c-0.048-0.163-0.096-0.327-0.135-0.5c0-0.01-0.01-0.019-0.01-0.038c-0.029,0.01-0.058,0.058-0.077,0.106c-0.01,0.019-0.019,0.048-0.029,0.067c-0.067,0.173-0.115,0.413-0.115,0.413c0-0.077,0-0.154-0.01-0.24V16.24v-0.25v-0.029c0-0.096,0.01-0.183,0.01-0.269v-0.048v-0.029v-0.048c0-0.067,0.01-0.135,0.01-0.202c0-0.058,0.01-0.115,0.01-0.163v-0.019v-0.019v-0.019v-0.038v-0.038V15v-0.038c0-0.019,0-0.038,0.01-0.048v-0.029v-0.019v-0.067l-0.019,0.019c-0.01,0.019-0.029,0.029-0.038,0.048l-0.01,0.019c-0.019,0.019-0.029,0.048-0.038,0.067l-0.01,0.01c-0.019,0.029-0.029,0.058-0.048,0.087l-0.01,0.01c0,0.01-0.01,0.019-0.01,0.019c-0.01,0.019-0.019,0.038-0.019,0.058v0.019L6.417,15.24c-0.019,0.087-0.038,0.163-0.048,0.221c0,0.019-0.01,0.048-0.01,0.067c-0.01,0.038-0.01,0.077-0.01,0.087v0.01v-0.01v-0.077c0-0.048-0.01-0.106-0.01-0.154V15.26v-0.038v-0.058v-0.087V15.01v-0.048v-0.019v-0.029c0-0.029,0.01-0.067,0.01-0.096v-0.01c0-0.019,0-0.048,0.01-0.067v-0.01c0.01-0.048,0.01-0.096,0.019-0.144v-0.019v-0.029c0.01-0.077,0.029-0.154,0.048-0.231v-0.01c0.01-0.067,0.029-0.125,0.048-0.192v-0.01c0.01-0.029,0.019-0.058,0.019-0.077c0.01-0.038,0.019-0.077,0.029-0.125v-0.01c0-0.01,0.01-0.038,0.019-0.067c0-0.01,0.01-0.029,0.01-0.038c0.01-0.019,0.01-0.048,0.019-0.067l0.01-0.019l0.125-0.317c0.01-0.01,0.01-0.029,0.019-0.038v-0.01l0.01-0.019c0.01-0.038,0.029-0.067,0.038-0.106l0.058-0.144c0.038-0.096,0.067-0.173,0.087-0.221c0.01-0.029,0.019-0.048,0.019-0.048c-0.01,0-0.058-0.029-0.144-0.067c-0.096-0.048-0.24-0.106-0.413-0.163c-0.058-0.019-0.115-0.038-0.173-0.048l-0.231-0.058c-0.019,0-0.038-0.01-0.058-0.01l-0.202-0.029c-0.048-0.01-0.096-0.01-0.144-0.01c-0.038,0-0.077,0-0.115-0.01H5.34c-0.048,0-0.106,0.01-0.154,0.01c-0.029,0-0.048,0-0.077,0.01c-0.106,0.019-0.221,0.038-0.317,0.067l-0.019,0.01c-0.192,0.048-0.365,0.125-0.538,0.212c-0.058,0.029-0.115,0.058-0.163,0.096c-0.019,0.01-0.029,0.019-0.048,0.029s-0.038,0.019-0.058,0.038c-0.163,0.115-0.317,0.24-0.452,0.385l-0.01,0.01c-0.115,0.125-0.221,0.26-0.308,0.404c-0.029,0.038-0.048,0.087-0.077,0.125c-0.029,0.048-0.058,0.096-0.077,0.154c-0.048,0.096-0.087,0.202-0.125,0.298c-0.01,0.038-0.029,0.077-0.038,0.106c0,0.01,0,0.01-0.01,0.019c-0.067,0.24-0.106,0.49-0.115,0.75v0.173c0,0.038,0.01,0.077,0.01,0.125c0,0.048,0.01,0.096,0.019,0.154v0.019c0.01,0.038,0.01,0.077,0.019,0.115v0.019c0,0.01,0,0.019,0.01,0.029c0.01,0.029,0.01,0.058,0.019,0.087v0.01c0,0.019,0.01,0.029,0.01,0.048c0.01,0.029,0.01,0.058,0.019,0.077c0.01,0.019,0.01,0.038,0.019,0.058c0.01,0.029,0.019,0.048,0.029,0.077c0.01,0.019,0.019,0.038,0.019,0.058l0.01,0.01l0.01,0.019l0.01,0.019l0.01,0.019l0.029,0.058c0.01,0.019,0.019,0.038,0.029,0.067l0.029,0.058l0.096,0.029c0.01,0.019,0.019,0.029,0.019,0.038c0.01,0.019,0.019,0.038,0.038,0.058l0.029,0.058c0.01,0.01,0.01,0.019,0.019,0.029c0.01,0.01,0.01,0.019,0.019,0.029c0.01,0.019,0.019,0.038,0.029,0.048c0.01,0.019,0.029,0.038,0.038,0.058s0.019,0.029,0.029,0.048c0.019,0.019,0.029,0.038,0.048,0.058c0.01,0.01,0.019,0.029,0.038,0.038c0.019,0.019,0.038,0.038,0.048,0.058c0.01,0.01,0.019,0.029,0.038,0.038L3.6,17.058c0.01,0.01,0.019,0.019,0.029,0.038l0.058,0.058l0.029,0.029c0.019,0.019,0.048,0.038,0.067,0.058l0.029,0.029c0.019,0.019,0.048,0.038,0.067,0.058c0.01,0.01,0.019,0.019,0.029,0.019c0.029,0.019,0.048,0.038,0.077,0.058c0.01,0.01,0.019,0.01,0.029,0.019c0.029,0.019,0.058,0.038,0.077,0.058c0.01,0.01,0.019,0.01,0.029,0.019c0.029,0.019,0.058,0.038,0.087,0.048c0.01,0,0.019,0.01,0.029,0.01c0.029,0.019,0.058,0.029,0.087,0.048l0.019,0.01c0.029,0.019,0.067,0.029,0.096,0.048l0.019,0.01c0.029,0.019,0.067,0.029,0.106,0.038l0.019,0.01c0.038,0.01,0.067,0.029,0.106,0.038l0.019,0.01c0.038,0.01,0.077,0.019,0.115,0.038h0.01l0.115,0.029h0.01l0.115,0.029h0.01c0.019,0,0.038,0.01,0.058,0.01c0.019,0,0.038,0.01,0.067,0.01h0.01c0.038,0.01,0.087,0.01,0.125,0.01s0.087,0.01,0.135,0.01c0.135,0,0.269,0,0.404-0.019c0.029,0,0.067-0.01,0.096-0.01c0.048-0.01,0.087-0.019,0.135-0.029c0.058-0.01,0.125-0.029,0.183-0.048c0.058-0.019,0.106-0.029,0.163-0.048c0.087-0.029,0.163-0.058,0.24-0.096c0.24-0.106,0.442-0.221,0.558-0.337c0,0-0.135-0.365-0.25-0.74C7.013,16.577,7.003,16.538,6.994,16.5L6.994,16.5z"/><path fill="#FCE9CD" d="M22.58,16.442c0,0,0-0.144-0.087-0.269l-0.019-0.019l-0.01-0.01l-0.029-0.029c-0.019-0.019-0.048-0.029-0.077-0.048c-0.019-0.01-0.029-0.01-0.048-0.019c-0.048-0.019-0.096-0.029-0.163-0.029c-0.048,0-0.096,0-0.154,0.01c-0.019,0-0.048,0.01-0.067,0.01h-0.01c0,0,0,0.01,0.01,0.019c0,0.01,0.01,0.019,0.019,0.038c0,0.01,0.01,0.01,0.01,0.019c0.01,0.029,0.029,0.067,0.038,0.115c0,0,0,0.01-0.01,0.029v0.01c-0.019,0.067-0.077,0.231-0.221,0.452c-0.029,0.038-0.048,0.077-0.087,0.115c-0.413,0.548-1.365,1.385-3.49,2.048c-0.721,0.192-1.404,0.288-1.99,0.288c-0.875,0-1.548-0.192-1.894-0.529l-0.087-0.087c-0.019-0.019-0.038-0.048-0.058-0.067c-0.01-0.01-0.01-0.019-0.019-0.029c-0.154-0.212-0.24-0.452-0.269-0.692c-0.029-0.288,0.019-0.587,0.154-0.817c0.106-0.192,0.25-0.337,0.442-0.423c0.096-0.038,0.192-0.067,0.298-0.077h0.423c0.413,0,1.067-0.019,1.846-0.163c1.413-0.269,3.24-0.952,4.76-2.702v-0.01c-0.01-0.125-0.058-0.356-0.24-0.519c-0.029-0.029-0.067-0.058-0.115-0.077c-0.019-0.01-0.048-0.029-0.077-0.038c-0.029-0.01-0.048-0.019-0.077-0.029c-0.029-0.019-0.067-0.029-0.087-0.048v-0.01c-0.01-0.019-0.029-0.029-0.038-0.048c-0.529-0.615-1.183-0.933-1.452-1.077c-0.125-0.067-0.202-0.096-0.202-0.096c-0.567-0.26-0.654-0.356-0.721-1.231c-0.019-0.317-0.038-0.731-0.077-1.298c0-0.077-0.01-0.144-0.019-0.212c0-0.019,0-0.029-0.01-0.048c-0.01-0.067-0.019-0.125-0.029-0.183V8.625c-0.01-0.048-0.019-0.096-0.029-0.135c0-0.019-0.01-0.038-0.01-0.058c-0.01-0.048-0.019-0.096-0.038-0.135c-0.01-0.019-0.01-0.048-0.019-0.067c-0.01-0.029-0.019-0.048-0.029-0.067c-0.01-0.019-0.019-0.048-0.029-0.067c-0.01-0.029-0.019-0.048-0.029-0.077c0-0.01-0.01-0.019-0.01-0.029c0-0.01-0.01-0.019-0.01-0.029v-0.01l-0.01-0.029l-0.029-0.058v-0.01l-0.01-0.019l-0.01-0.019c-0.019-0.038-0.038-0.067-0.067-0.096l-0.019-0.019c-0.029-0.029-0.048-0.058-0.077-0.087l-0.01-0.01l-0.01-0.01c-0.019-0.019-0.038-0.038-0.048-0.058l-0.019-0.019C18.119,7.5,18.09,7.481,18.071,7.462c-0.029-0.019-0.058-0.048-0.087-0.067c-0.029-0.019-0.058-0.029-0.096-0.038c-0.01,0-0.019-0.01-0.029-0.01c-0.019-0.01-0.038-0.01-0.058-0.019c-0.01,0-0.019,0-0.038-0.01c-0.019,0-0.038-0.01-0.058-0.01h-0.202c-0.019,0-0.029,0.01-0.048,0.01c-0.01,0-0.019,0-0.029,0.01l-0.019,0.01c-0.01,0-0.019,0.01-0.029,0.01s-0.019,0.01-0.029,0.01c-0.019,0.01-0.038,0.019-0.058,0.019l-0.019,0.01c-0.048,0.019-0.106,0.048-0.154,0.077L17.1,7.471C17.08,7.481,17.061,7.5,17.042,7.51l-0.019,0.019c-0.019,0.01-0.038,0.029-0.058,0.038l-0.019,0.019c-0.019,0.01-0.038,0.029-0.048,0.038l-0.019,0.019c-0.019,0.019-0.038,0.029-0.058,0.048l-0.019,0.019c-0.019,0.019-0.038,0.038-0.058,0.048l-0.01,0.01c-0.019,0.019-0.048,0.038-0.067,0.058c-0.038,0.038-0.087,0.077-0.125,0.115c-0.038,0.029-0.077,0.067-0.106,0.096l-0.019,0.019c-0.038,0.029-0.077,0.067-0.115,0.096l-0.019,0.019L16.167,8.26l-0.019,0.019c-0.038,0.029-0.077,0.058-0.125,0.087l-0.019,0.01c-0.038,0.029-0.087,0.048-0.125,0.077l-0.019,0.01c-0.048,0.019-0.087,0.048-0.135,0.067h-0.01c-0.048,0.019-0.096,0.038-0.154,0.048c-0.087,0.019-0.173,0.038-0.26,0.048c-0.144,0.019-0.288,0.029-0.442,0.019c-0.048,0-0.096,0-0.154-0.01h-0.058c-0.135-0.01-0.26-0.019-0.394-0.038c-0.058-0.01-0.115-0.01-0.163-0.019c-0.087-0.01-0.183-0.019-0.269-0.029c-0.019,0-0.038,0-0.058-0.01h-0.038c-0.019,0-0.038,0-0.058-0.01h-0.125c-0.038,0-0.087,0-0.125-0.01h-0.423c-0.029,0-0.058,0.01-0.087,0.01h-0.048c-0.038,0-0.067,0.01-0.106,0.019h-0.029c-0.038,0.01-0.087,0.019-0.125,0.029c-0.01,0-0.019,0.01-0.038,0.01c-0.029,0.01-0.058,0.01-0.087,0.019h-0.01c-0.019,0-0.029,0.01-0.048,0.01L12.33,8.644c-0.019,0.01-0.029,0.01-0.048,0.019c-0.029,0.01-0.058,0.019-0.087,0.038c-0.019,0.01-0.029,0.01-0.048,0.019c-0.029,0.01-0.058,0.029-0.087,0.038c-0.01,0.01-0.029,0.01-0.038,0.019c-0.048,0.019-0.087,0.048-0.135,0.077c-0.337,0.25-0.615,0.577-0.817,0.942c-0.067,0.125-0.125,0.25-0.183,0.375c-0.058,0.135-0.106,0.279-0.135,0.413c-0.01,0.038-0.019,0.087-0.029,0.125c-0.019,0.067-0.029,0.144-0.038,0.212v0.019c-0.01,0.077-0.019,0.163-0.029,0.24c-0.01,0.087-0.01,0.173-0.01,0.25v0.135c0.01,0.125,0.019,0.24,0.048,0.365c0,0.01,0,0.019,0.01,0.029c0.01,0.029,0.01,0.058,0.019,0.096c0.019,0.087,0.038,0.173,0.067,0.25c0.01,0.029,0.019,0.058,0.038,0.087l0.029,0.087c0.087,0.212,0.202,0.394,0.327,0.567c0.481,0.635,1.183,0.962,1.673,1.115c0.192,0.058,0.394,0.106,0.596,0.144l-0.019,0.019c-0.038,0.01-0.077,0.029-0.115,0.048c-0.067,0.029-0.144,0.058-0.231,0.106c-0.096,0.048-0.202,0.096-0.308,0.163c-0.288,0.163-0.615,0.385-0.885,0.673c-0.038,0.038-0.067,0.077-0.106,0.106c-0.058,0.067-0.106,0.135-0.154,0.202c-0.01,0.01-0.01,0.019-0.019,0.019c-0.01,0.01-0.019,0.019-0.019,0.029l-0.058,0.087c-0.01,0.01-0.01,0.019-0.019,0.038c-0.019,0.038-0.048,0.077-0.067,0.125c-0.019,0.038-0.038,0.087-0.058,0.125c-0.144,0.337-0.202,0.731-0.106,1.183v-0.019v-0.038v-0.048c0-0.01,0-0.029,0.01-0.048c0-0.019,0.01-0.038,0.01-0.048v-0.01c0-0.019,0.01-0.038,0.01-0.058v-0.01c0-0.019,0.01-0.038,0.019-0.058v-0.01c0.01-0.019,0.01-0.048,0.019-0.067v-0.019c0.01-0.019,0.019-0.048,0.029-0.077c0.01-0.038,0.029-0.077,0.048-0.115c0.01-0.01,0.01-0.029,0.019-0.038l0.01-0.01c0.019-0.029,0.029-0.058,0.048-0.087c0.01-0.029,0.029-0.048,0.048-0.077c0.01-0.01,0.01-0.019,0.019-0.019c0.01-0.019,0.029-0.038,0.038-0.058c0.01-0.01,0.01-0.019,0.019-0.019c0.019-0.029,0.038-0.048,0.058-0.067c0,0-0.298,0.981-0.029,1.702v-0.01v-0.019v-0.029v-0.038v-0.048v-0.058v-0.058v-0.01v-0.087c0-0.029,0-0.058,0.01-0.077v-0.01c0-0.029,0.01-0.058,0.01-0.087c0-0.01,0-0.019,0.01-0.029v-0.019c0.01-0.019,0.01-0.048,0.019-0.067c0.01-0.029,0.019-0.067,0.029-0.096c0-0.01,0.01-0.019,0.01-0.029c0.01-0.029,0.029-0.058,0.048-0.087c0,0,0,0.231,0.048,0.51c0.01,0.038,0.01,0.087,0.019,0.135c0.01,0.029,0.01,0.058,0.019,0.087c0.01,0.192,0.038,0.385,0.087,0.587c0.077,0.337,0.202,0.683,0.385,1.038c0,0-0.183-0.413-0.048-0.865c0.019,0.038,0.048,0.077,0.067,0.115c0.029,0.125,0.077,0.308,0.144,0.5c0.077,0.327,0.365,1.308,1.125,1.923c0,0-0.298-0.298-0.308-0.74c0.038,0.058,0.067,0.106,0.096,0.144c0.144,0.202,0.423,0.577,0.712,0.827c0,0-0.25-0.365-0.221-0.462c0,0,0.769,0.75,0.99,0.798L14.58,21.25l-0.01-0.01c1.058,0.587,2.413,0.673,4,0.019c0.269-0.115,0.548-0.25,0.837-0.413c0.173-0.106,0.346-0.212,0.519-0.337l0.029-0.019c0.115-0.087,0.231-0.173,0.346-0.269c0.087-0.067,0.173-0.144,0.26-0.221c0.144-0.125,0.279-0.26,0.413-0.404c0.01-0.01,0.019-0.019,0.019-0.029c0.135-0.144,0.25-0.298,0.365-0.442c0.144-0.202,0.279-0.394,0.394-0.596l0.01-0.01c0.029-0.048,0.058-0.096,0.077-0.144l0.01-0.01c0.01-0.019,0.019-0.029,0.029-0.048c0.038-0.067,0.077-0.135,0.106-0.212c0.01-0.019,0.019-0.029,0.019-0.048c0.019-0.038,0.029-0.077,0.048-0.106c0.01-0.029,0.029-0.058,0.038-0.087c0.01-0.029,0.029-0.058,0.038-0.087c0.019-0.058,0.048-0.106,0.067-0.163c0.01-0.019,0.019-0.038,0.019-0.067c0.019-0.038,0.029-0.087,0.048-0.125c0.01-0.019,0.01-0.038,0.019-0.058l0.01-0.019c0.019-0.048,0.038-0.106,0.048-0.154v-0.01c0.077-0.087,0.125-0.173,0.173-0.25c0.01-0.01,0.01-0.019,0.019-0.029C22.571,16.731,22.59,16.577,22.58,16.442L22.58,16.442z M6.84,15.923c-0.029,0.01-0.058,0.058-0.077,0.106c-0.01,0.019-0.019,0.048-0.029,0.067c-0.067,0.173-0.115,0.413-0.115,0.413c0-0.077,0-0.154-0.01-0.24V16.24v-0.25v-0.029c0-0.096,0.01-0.183,0.01-0.269v-0.048v-0.029v-0.048c0-0.067,0.01-0.135,0.01-0.202c0-0.058,0.01-0.115,0.01-0.163v-0.019v-0.019v-0.019v-0.038v-0.038V15v-0.038c0-0.019,0-0.038,0.01-0.048v-0.029v-0.019v-0.067l-0.019,0.019c-0.01,0.019-0.029,0.029-0.038,0.048l-0.01,0.019c-0.019,0.019-0.029,0.048-0.038,0.067l-0.01,0.01c-0.019,0.029-0.029,0.058-0.048,0.087l-0.01,0.01c0,0.01-0.01,0.019-0.01,0.019c-0.01,0.019-0.019,0.038-0.019,0.058v0.019L6.417,15.24c-0.019,0.087-0.038,0.163-0.048,0.221c0,0.019-0.01,0.048-0.01,0.067c-0.01,0.038-0.01,0.077-0.01,0.087v0.01v-0.01v-0.077c0-0.048-0.01-0.106-0.01-0.154V15.26v-0.038v-0.058v-0.087V15.01v-0.048v-0.019v-0.029c0-0.029,0.01-0.067,0.01-0.096v-0.01c0-0.019,0-0.048,0.01-0.067v-0.01c0.01-0.048,0.01-0.096,0.019-0.144v-0.019v-0.029c0.01-0.077,0.029-0.154,0.048-0.231v-0.01c0.01-0.067,0.029-0.125,0.048-0.192v-0.01c0.01-0.029,0.019-0.058,0.019-0.077c0.01-0.038,0.019-0.077,0.029-0.125v-0.01c0-0.01,0.01-0.038,0.019-0.067c0-0.01,0.01-0.029,0.01-0.038c0.01-0.019,0.01-0.048,0.019-0.067l0.01-0.019c-0.01-0.01-0.029-0.01-0.048-0.019h-0.01l-0.019-0.01c-0.096-0.029-0.192-0.058-0.288-0.067H6.196c-0.067-0.01-0.125-0.01-0.192-0.01c-0.038,0-0.077,0-0.115,0.01c-0.029,0-0.067,0.01-0.096,0.01l-0.144,0.029c-0.019,0-0.029,0.01-0.038,0.01c-0.019,0.01-0.048,0.01-0.067,0.019c-0.01,0-0.019,0.01-0.029,0.01c-0.019,0.01-0.029,0.01-0.048,0.019c-0.029,0.01-0.058,0.029-0.087,0.038c-0.01,0.01-0.029,0.01-0.038,0.019c-0.038,0.019-0.077,0.038-0.115,0.067c-0.019,0.01-0.029,0.019-0.038,0.029c-0.019,0.01-0.038,0.019-0.048,0.038l-0.019,0.01c-0.019,0.01-0.038,0.029-0.058,0.038c-0.019,0.01-0.029,0.029-0.048,0.038C4.994,13.99,4.975,14,4.955,14.019l-0.029,0.029c-0.029,0.029-0.058,0.058-0.087,0.096c-0.01,0.019-0.029,0.029-0.038,0.048c-0.019,0.029-0.048,0.058-0.067,0.087l-0.01,0.019c-0.01,0.019-0.019,0.038-0.029,0.048s-0.01,0.019-0.019,0.038c-0.038,0.077-0.077,0.154-0.106,0.231c0,0.01-0.01,0.019-0.01,0.038l-0.029,0.115c0,0.019-0.01,0.029-0.01,0.048c-0.01,0.038-0.019,0.087-0.019,0.125v0.038c0,0.029-0.01,0.058-0.01,0.096v0.135c0,0.048,0.01,0.096,0.01,0.144c0.01,0.038,0.01,0.077,0.019,0.115v0.019c0,0.019,0.01,0.038,0.019,0.058c0.019,0.077,0.048,0.144,0.077,0.212c0.019,0.048,0.048,0.106,0.077,0.154c0.048,0.087,0.115,0.173,0.173,0.25c0.135,0.163,0.308,0.288,0.5,0.385c0.106,0.048,0.221,0.087,0.346,0.115c0.115,0.029,0.231,0.038,0.356,0.038h0.087c0.038,0,0.087-0.01,0.125-0.01c0.038-0.01,0.077-0.019,0.115-0.019c0.019,0,0.038-0.01,0.067-0.01c0.058-0.01,0.106-0.029,0.154-0.048h0.01l0.058-0.029c0.067-0.029,0.125-0.058,0.183-0.096l0.01-0.01c0.019-0.01,0.029-0.019,0.048-0.029c-0.048-0.163-0.096-0.327-0.135-0.5C6.85,15.952,6.84,15.933,6.84,15.923L6.84,15.923z"/><path fill="#E9B784" d="M14.119,9.577c-0.077-0.029-0.154-0.048-0.231-0.058c-0.048-0.01-0.106-0.01-0.154-0.01h-0.058c-0.26,0.01-0.471,0.077-0.471,0.077c-0.048,0.019-0.087,0.038-0.135,0.058c-0.337,0.144-0.548,0.356-0.692,0.587c-0.115,0.183-0.183,0.385-0.212,0.567c0,0.019-0.01,0.029-0.01,0.048c-0.01,0.048-0.01,0.096-0.019,0.144c-0.01,0.154-0.01,0.298,0,0.404c0.01,0.154,0.038,0.25,0.038,0.25c0.048-0.135,0.096-0.269,0.144-0.385c0.125-0.298,0.269-0.548,0.423-0.75c0.298-0.394,0.625-0.625,0.885-0.76C13.917,9.606,14.119,9.577,14.119,9.577L14.119,9.577z M18.186,8.577l-0.01-0.01c-0.048-0.048-0.096-0.087-0.154-0.115c-0.144-0.077-0.327-0.096-0.577-0.019c0,0-0.288,0.106-0.442,0.327c0,0,0.49-0.288,1.087,0.038c0.058,0.029,0.106,0.067,0.163,0.106s0.115,0.087,0.173,0.144c0,0-0.048-0.24-0.212-0.423C18.205,8.596,18.196,8.587,18.186,8.577L18.186,8.577z M13.359,12.029c0.019-0.019,0.038-0.038,0.058-0.048c0.01-0.01,0.019-0.019,0.029-0.019c0.019-0.019,0.038-0.029,0.058-0.048c0.01-0.01,0.019-0.019,0.038-0.029c0.019-0.01,0.038-0.029,0.058-0.038c0.01-0.01,0.029-0.019,0.038-0.029c0.019-0.01,0.038-0.029,0.058-0.038c0.019-0.01,0.029-0.019,0.048-0.029c0.019-0.01,0.038-0.019,0.067-0.029l0.058-0.029c0.019-0.01,0.048-0.019,0.067-0.029c0.019-0.01,0.048-0.019,0.067-0.019c0.019-0.01,0.038-0.019,0.067-0.019h0.01c0.029-0.01,0.058-0.019,0.096-0.019c0.01,0,0.019,0,0.029-0.01c0.019,0,0.038-0.01,0.058-0.01h0.029c0.019,0,0.038,0,0.058-0.01h0.106c0.038,0,0.077,0,0.115,0.01h0.019c0.038,0,0.067,0.01,0.106,0.019h0.019c0.038,0.01,0.067,0.01,0.096,0.019h0.01c0.029,0.01,0.067,0.019,0.096,0.029c0.038,0.01,0.067,0.029,0.096,0.038c0.029,0.01,0.058,0.029,0.087,0.048c-0.048-0.173-0.192-0.548-0.596-0.644c-0.058-0.01-0.115-0.019-0.183-0.019h-0.048c-0.058,0-0.125,0.01-0.192,0.029c-0.76,0.163-0.798,0.798-0.788,1.01c0.019-0.019,0.038-0.048,0.058-0.067L13.359,12.029L13.359,12.029z"/><path fill="#FFF" d="M21.936,16.125c0-0.01-0.01-0.019-0.01-0.019c-0.01-0.019-0.01-0.029-0.019-0.038c-0.067-0.144-0.144-0.26-0.202-0.337c-0.077-0.096-0.144-0.144-0.144-0.144c0.01-0.038,0.01-0.077,0.01-0.115c0-0.048,0.01-0.096,0.01-0.144c0-0.356-0.125-0.606-0.221-0.75c-0.019-0.019-0.029-0.038-0.038-0.058c-0.048,0.048-0.096,0.087-0.144,0.135c-0.942,0.817-2.038,1.413-3.269,1.76c-0.846,0.24-1.75,0.365-2.712,0.365h0.019c0,0-0.558,0.144-0.644,0.712h0.01v0.375c0.077,0.49,0.346,0.779,0.625,0.904c0.279,0.067,0.615,0.106,0.981,0.106c0.635,0,1.346-0.106,2.067-0.317c0.962-0.25,2.269-0.942,3.163-1.731c0.202-0.183,0.385-0.365,0.538-0.558l0.01-0.01l0.01-0.01C21.965,16.202,21.955,16.154,21.936,16.125L21.936,16.125z"/><path fill="#F2D2AC" d="M14.052,11.625c-0.019,0.01-0.038,0.01-0.067,0.019C14.013,11.644,14.032,11.635,14.052,11.625h0.01H14.052L14.052,11.625z"/><path fill="#F2D2AC" d="M14.215,13.683c0.029-0.019,0.067-0.048,0.096-0.067c0.01-0.01,0.029-0.019,0.038-0.029c0.029-0.019,0.067-0.038,0.096-0.067c0.019-0.01,0.029-0.019,0.048-0.029c0.029-0.019,0.067-0.038,0.096-0.058c0.019-0.01,0.038-0.019,0.048-0.029c0.029-0.019,0.067-0.038,0.096-0.058c0.019-0.01,0.038-0.019,0.058-0.038c0.029-0.019,0.067-0.038,0.096-0.058c0.019-0.01,0.048-0.029,0.067-0.038c0.029-0.019,0.067-0.038,0.096-0.048c0.029-0.01,0.048-0.029,0.077-0.038c0.029-0.019,0.067-0.029,0.096-0.048c0.029-0.01,0.058-0.029,0.087-0.038c0.029-0.019,0.067-0.029,0.096-0.048c0.029-0.019,0.058-0.029,0.096-0.048c0.029-0.01,0.058-0.029,0.096-0.038c0.038-0.019,0.067-0.029,0.106-0.048c0.029-0.01,0.058-0.029,0.087-0.038c0.038-0.019,0.077-0.029,0.115-0.048l0.058-0.029c0.106-0.413,0.452-1.442,1.231-1.644c0.087-0.019,0.163-0.038,0.231-0.048c0.019,0,0.038-0.01,0.058-0.01c-0.019-0.058-0.029-0.115-0.038-0.173c-0.077-0.413,0.01-0.779,0.192-0.817c0.144-0.029,0.279,0.163,0.308,0.231c0.067,0.125,0.125,0.279,0.163,0.462c0.029,0.163,0.038,0.317,0.019,0.452l0.048,0.048c0.212,0.202,0.279,0.51,0.298,0.731c0.067-0.019,0.144-0.029,0.212-0.048c0.019,0,0.038-0.01,0.058-0.01h0.01c0.01,0,0.019,0,0.029-0.01c0.087-0.019,0.183-0.038,0.269-0.058c0.202-0.038,0.423-0.077,0.635-0.115c-0.125-0.067-0.202-0.096-0.202-0.096c-0.567-0.26-0.654-0.356-0.721-1.231c-0.019-0.317-0.038-0.731-0.077-1.298c0-0.077-0.01-0.144-0.019-0.212c0-0.019,0-0.029-0.01-0.048c-0.01-0.067-0.019-0.125-0.029-0.183V8.625c-0.01-0.048-0.019-0.096-0.029-0.135c0-0.019-0.01-0.038-0.01-0.058c-0.01-0.048-0.019-0.096-0.038-0.135c-0.01-0.019-0.01-0.048-0.019-0.067c-0.01-0.029-0.019-0.048-0.029-0.067c-0.01-0.019-0.019-0.048-0.029-0.067c-0.087-0.106-0.192-0.192-0.308-0.26l-0.019-0.01l-0.019-0.01h-0.01c-0.019-0.01-0.038-0.019-0.048-0.029L18.013,7.76c-0.163-0.077-0.346-0.115-0.538-0.115c-0.106,0-0.212,0.01-0.317,0.019c-0.048,0.01-0.106,0.019-0.154,0.029c-0.135,0.029-0.269,0.077-0.404,0.135c-0.038,0.038-0.087,0.077-0.125,0.115c-0.038,0.029-0.077,0.067-0.106,0.096L16.35,8.058c-0.038,0.029-0.077,0.067-0.115,0.096l-0.019,0.019L16.1,8.26L16.08,8.279c-0.038,0.029-0.077,0.058-0.125,0.087l-0.019,0.01c-0.038,0.029-0.087,0.048-0.125,0.077l-0.019,0.01c-0.048,0.019-0.087,0.048-0.135,0.067h-0.01c-0.048,0.019-0.096,0.038-0.154,0.048c-0.087,0.019-0.173,0.038-0.26,0.048c-0.144,0.019-0.288,0.029-0.442,0.019c-0.048,0-0.096,0-0.154-0.01H14.58c-0.135-0.01-0.26-0.019-0.394-0.038c-0.058-0.01-0.115-0.01-0.163-0.019c-0.087-0.01-0.183-0.019-0.269-0.029c-0.019,0-0.038,0-0.058-0.01c-0.077,0.01-0.144,0.029-0.221,0.048h-0.019c-0.212,0.058-0.423,0.135-0.625,0.231c-0.01,0.01-0.019,0.01-0.038,0.019c-0.029,0.019-0.067,0.029-0.096,0.048c-0.038,0.019-0.087,0.048-0.125,0.077c-0.298,0.173-0.577,0.404-0.827,0.673c-0.106,0.106-0.192,0.221-0.279,0.346c-0.135,0.183-0.25,0.375-0.346,0.567c-0.01,0.01-0.01,0.019-0.019,0.029c-0.048,0.106-0.096,0.212-0.135,0.317c-0.01,0.038-0.029,0.077-0.038,0.115v0.01c-0.038,0.125-0.077,0.25-0.106,0.385v0.019c0,0.019-0.01,0.038-0.01,0.058l-0.029,0.173c-0.01,0.058-0.019,0.125-0.019,0.183v0.038c0,0.038,0,0.077-0.01,0.115c0,0.135,0,0.269,0.019,0.404c0,0.029,0.01,0.067,0.01,0.096c0.087,0.212,0.202,0.394,0.327,0.567c0.481,0.635,1.183,0.962,1.673,1.115c0.192,0.058,0.394,0.106,0.596,0.144l0.01,0.01l0.01-0.01l0.067-0.067l0.029-0.029c0.029-0.019,0.048-0.048,0.077-0.067c0.01-0.01,0.019-0.019,0.029-0.019c0.029-0.019,0.048-0.048,0.077-0.067c0.01-0.01,0.019-0.019,0.029-0.019c0.029-0.019,0.058-0.048,0.087-0.067c0.01-0.01,0.019-0.019,0.029-0.019c0.029-0.019,0.058-0.048,0.087-0.067c0.01-0.01,0.019-0.019,0.029-0.019c0.029-0.019,0.058-0.048,0.087-0.067l0.029-0.029c0.029-0.019,0.058-0.048,0.096-0.067C14.196,13.702,14.205,13.692,14.215,13.683L14.215,13.683z M17.436,8.433c0.24-0.087,0.433-0.058,0.577,0.019c0.058,0.029,0.115,0.067,0.154,0.115l0.01,0.01c0.01,0.01,0.019,0.019,0.029,0.038c0.163,0.192,0.212,0.423,0.212,0.423c-0.058-0.058-0.115-0.096-0.173-0.144c-0.058-0.038-0.115-0.077-0.163-0.106c-0.596-0.327-1.087-0.038-1.087-0.038C17.148,8.538,17.436,8.433,17.436,8.433L17.436,8.433z M12.753,10.51c-0.154,0.202-0.298,0.452-0.423,0.75c-0.048,0.125-0.096,0.25-0.144,0.385c0,0-0.019-0.096-0.038-0.25c-0.01-0.115-0.019-0.25,0-0.404c0-0.048,0.01-0.096,0.019-0.144c0-0.019,0.01-0.029,0.01-0.048c0.038-0.183,0.096-0.385,0.212-0.567C12.532,10,12.753,9.788,13.08,9.644c0.038-0.019,0.087-0.038,0.135-0.058c0,0,0.212-0.067,0.471-0.077h0.058c0.048,0,0.106,0,0.154,0.01c0.077,0.01,0.154,0.029,0.231,0.058c0,0-0.202,0.029-0.481,0.173C13.378,9.885,13.052,10.115,12.753,10.51L12.753,10.51z M13.177,12.413c-0.019,0.01-0.038,0.01-0.048,0c-0.029-0.019,0.01-0.144,0.144-0.298c-0.01-0.212,0.029-0.846,0.788-1.01c0.067-0.01,0.135-0.019,0.192-0.029h0.048c0.067,0,0.125,0.01,0.183,0.019c0.404,0.087,0.548,0.462,0.596,0.644c0.135,0.077,0.192,0.154,0.173,0.163c-0.01,0.019-0.029,0.019-0.058,0.019c-0.029,0.019-0.106,0.029-0.202,0.038c-0.192,0.019-0.49,0.038-0.817,0.125c-0.019,0.01-0.048,0.01-0.067,0.019C13.628,12.24,13.263,12.452,13.177,12.413L13.177,12.413z M14.436,11.577h-0.019H14.436L14.436,11.577z M22.225,17.269c-0.308,0.356-0.644,0.644-0.981,0.885c-0.163,0.125-0.337,0.231-0.5,0.327c-0.375,0.221-0.731,0.385-1.048,0.51c-0.712,0.269-1.221,0.337-1.221,0.337c0.423,0.173,0.933,0.106,1.279,0.029c0.231-0.058,0.394-0.115,0.394-0.115c0.01,0.144,0.01,0.288,0,0.413c-0.01,0.144-0.038,0.279-0.067,0.394v0.01c-0.038,0.154-0.096,0.288-0.163,0.404c-0.01,0.01-0.01,0.029-0.019,0.038l0.029-0.019c0.115-0.087,0.231-0.173,0.346-0.269c0.087-0.067,0.173-0.144,0.26-0.221c0.144-0.125,0.279-0.26,0.413-0.404c0.01-0.01,0.019-0.019,0.019-0.029c0.135-0.144,0.25-0.298,0.365-0.442c0.144-0.202,0.279-0.394,0.394-0.596l0.01-0.01c0.029-0.048,0.058-0.096,0.077-0.144l0.01-0.01c0.01-0.019,0.019-0.029,0.029-0.048c0.038-0.067,0.077-0.135,0.106-0.212c0.01-0.019,0.019-0.029,0.019-0.048c0.019-0.038,0.029-0.077,0.048-0.106c0.01-0.029,0.029-0.058,0.038-0.087c0.01-0.029,0.029-0.058,0.038-0.087c0.019-0.058,0.048-0.106,0.067-0.163c0.01-0.019,0.019-0.038,0.019-0.067c0.019-0.038,0.029-0.087,0.048-0.125c0.01-0.019,0.01-0.038,0.019-0.058l0.01-0.019c0.019-0.048,0.038-0.106,0.048-0.154C22.263,17.221,22.244,17.24,22.225,17.269L22.225,17.269z M13.042,14.51c-0.096,0.048-0.202,0.096-0.308,0.163c-0.288,0.163-0.615,0.385-0.885,0.673c-0.038,0.038-0.067,0.077-0.106,0.106c-0.058,0.067-0.106,0.135-0.154,0.202c-0.01,0.01-0.01,0.019-0.019,0.019c-0.01,0.01-0.019,0.019-0.019,0.029l-0.058,0.087c-0.01,0.01-0.01,0.019-0.019,0.038c-0.019,0.038-0.048,0.077-0.067,0.125c-0.019,0.038-0.038,0.087-0.058,0.125c-0.144,0.337-0.202,0.731-0.106,1.183V17.24v-0.038v-0.048c0-0.01,0-0.029,0.01-0.048c0-0.019,0.01-0.038,0.01-0.048v-0.01c0-0.019,0.01-0.038,0.01-0.058v-0.01c0-0.019,0.01-0.038,0.019-0.058v-0.01c0.01-0.019,0.01-0.048,0.019-0.067v-0.019c0.01-0.019,0.019-0.048,0.029-0.077c0.01-0.038,0.029-0.077,0.048-0.115c0.01-0.01,0.01-0.029,0.019-0.038l0.01-0.01c0.019-0.029,0.029-0.058,0.048-0.087c0.01-0.029,0.029-0.048,0.048-0.077c0.01-0.01,0.01-0.019,0.019-0.019c0.01-0.019,0.029-0.038,0.038-0.058c0.01-0.01,0.01-0.019,0.019-0.019c0.019-0.029,0.038-0.048,0.058-0.067c0,0-0.298,0.981-0.029,1.702v-0.01v-0.019v-0.029v-0.038v-0.048V17.76v-0.058v-0.01v-0.087c0-0.029,0-0.058,0.01-0.077v-0.01c0-0.029,0.01-0.058,0.01-0.087c0-0.01,0-0.019,0.01-0.029v-0.019c0.01-0.019,0.01-0.048,0.019-0.067c0.01-0.029,0.019-0.067,0.029-0.096c0-0.01,0.01-0.019,0.01-0.029c0.01-0.029,0.029-0.058,0.048-0.087c0,0,0,0.231,0.048,0.51c0.01,0.038,0.01,0.087,0.019,0.135c0.01,0.029,0.01,0.058,0.019,0.087c-0.019-0.298,0-0.577,0.048-0.846c0.01-0.077,0.029-0.144,0.048-0.221c0-0.01,0-0.019,0.01-0.029l0.058-0.202c0-0.01,0.01-0.029,0.01-0.038c0.019-0.067,0.038-0.125,0.067-0.192c0-0.01,0.01-0.019,0.01-0.029c0.048-0.135,0.106-0.25,0.163-0.375c0-0.01,0.01-0.019,0.01-0.029c0.019-0.048,0.048-0.087,0.067-0.135c0.01-0.01,0.01-0.019,0.019-0.038c0.01-0.01,0.01-0.019,0.019-0.029c0.029-0.048,0.058-0.106,0.087-0.154c0-0.01,0.01-0.019,0.01-0.019c0.029-0.048,0.067-0.106,0.096-0.154l0.115-0.173l0.087-0.115c0.01-0.01,0.019-0.029,0.029-0.038c0.067-0.087,0.135-0.173,0.202-0.24c0.192-0.221,0.346-0.356,0.394-0.404c-0.038,0.01-0.077,0.029-0.115,0.048C13.205,14.433,13.128,14.462,13.042,14.51L13.042,14.51z"/><path fill="#F2D2AC" d="M18.282,11.76c0,0-0.01-0.019-0.019-0.058c-0.048-0.135-0.221-0.442-0.75-0.317c-0.548,0.125-0.683,0.596-0.712,0.75c-0.01,0.029-0.01,0.058-0.01,0.058l0.019,0.01c0.067-0.067,0.202-0.077,0.327-0.019c0.058,0.029,0.106,0.067,0.144,0.115c0.058,0.067,0.077,0.144,0.048,0.202c-0.01,0.01-0.01,0.029-0.019,0.038c0,0,0.019,0.01,0.058,0.01c0.163,0.029,0.596,0.067,0.798-0.269c0.01-0.019,0.019-0.029,0.029-0.048c-0.048-0.019-0.087-0.077-0.096-0.163c-0.01-0.038-0.01-0.077,0-0.125C18.128,11.817,18.205,11.731,18.282,11.76L18.282,11.76z M16.032,16.183c-0.346,0.115-0.654,0.212-0.894,0.279h0.038c0.413,0,1.067-0.019,1.846-0.163c1.413-0.269,3.24-0.952,4.76-2.702v-0.01c-0.01-0.125-0.058-0.356-0.24-0.519c-0.029-0.029-0.067-0.058-0.115-0.077c-0.01,0-0.01-0.01-0.019-0.01c-0.048-0.019-0.087-0.038-0.125-0.058c-0.029-0.019-0.067-0.029-0.087-0.048v-0.01c-0.087,0.163-0.192,0.327-0.308,0.481c-0.038,0.058-0.087,0.106-0.135,0.163c-0.413,0.481-0.981,0.913-1.606,1.288C18.109,15.404,16.936,15.875,16.032,16.183L16.032,16.183z M6.677,14.817c-0.01,0.019-0.029,0.029-0.038,0.048l-0.01,0.019C6.609,14.904,6.6,14.933,6.59,14.952l-0.01,0.01c-0.019,0.029-0.029,0.058-0.048,0.087l-0.01,0.01c0,0.01-0.01,0.019-0.01,0.019c-0.01,0.019-0.019,0.038-0.019,0.058v0.019L6.465,15.24c-0.019,0.087-0.038,0.163-0.048,0.221c0,0.019-0.01,0.048-0.01,0.067c-0.01,0.038-0.01,0.077-0.01,0.087v0.01v-0.01v-0.077c0-0.048-0.01-0.106-0.01-0.154V15.26v-0.038v-0.058v-0.087V15.01v-0.048v-0.019v-0.029c0-0.029,0.01-0.067,0.01-0.096v-0.01c0-0.019,0-0.048,0.01-0.067v-0.01c0.01-0.048,0.01-0.096,0.019-0.144v-0.019v-0.029c0.01-0.077,0.029-0.154,0.048-0.231v-0.01c0.01-0.067,0.029-0.125,0.048-0.192v-0.01c0.01-0.029,0.019-0.058,0.019-0.077c0.01-0.038,0.019-0.077,0.029-0.125v-0.01c0-0.01,0.01-0.038,0.019-0.067c0-0.01,0.01-0.029,0.01-0.038c0.01-0.019,0.01-0.048,0.019-0.067l0.01-0.019c-0.01-0.01-0.029-0.01-0.048-0.019h-0.01l-0.019-0.01c-0.096-0.029-0.192-0.058-0.288-0.067H6.244c-0.067-0.01-0.125-0.01-0.192-0.01c-0.038,0-0.077,0-0.115,0.01c-0.029,0-0.067,0.01-0.096,0.01l-0.144,0.029c-0.019,0-0.029,0.01-0.038,0.01c-0.019,0.01-0.048,0.01-0.067,0.019c-0.01,0-0.019,0.01-0.029,0.01c-0.019,0.01-0.029,0.01-0.048,0.019c-0.029,0.01-0.058,0.029-0.087,0.038c-0.01,0.01-0.029,0.01-0.038,0.019c-0.038,0.019-0.077,0.038-0.115,0.067c-0.019,0.01-0.029,0.019-0.038,0.029c-0.019,0.01-0.038,0.019-0.048,0.038l-0.019,0.01c-0.019,0.01-0.038,0.029-0.058,0.038c-0.019,0.01-0.029,0.029-0.048,0.038C5.042,13.99,5.023,14,5.003,14.019l-0.029,0.029c-0.029,0.029-0.058,0.058-0.087,0.096c-0.01,0.019-0.029,0.029-0.038,0.048c-0.019,0.029-0.048,0.058-0.067,0.087l-0.01,0.019c-0.01,0.019-0.019,0.038-0.029,0.048c-0.01,0.01-0.01,0.019-0.019,0.038c-0.038,0.077-0.077,0.154-0.106,0.231c0,0.01-0.01,0.019-0.01,0.038L4.58,14.769c0,0.019-0.01,0.029-0.01,0.048c0,0.01,0.01,0.019,0.01,0.029c0.019,0.029,0.029,0.067,0.048,0.096l0.01,0.01l0.01,0.01c0.019,0.029,0.029,0.058,0.048,0.096c0.048,0.087,0.106,0.173,0.154,0.24c0.01,0.01,0.019,0.019,0.019,0.029l0.01,0.058l0.01,0.01c0.038,0.048,0.077,0.096,0.106,0.135c0.048,0.058,0.096,0.106,0.125,0.135l0.019,0.019l0.01,0.01l0.019,0.019c-0.01-0.019-0.01-0.029-0.019-0.048c-0.038-0.115-0.067-0.24-0.087-0.356v-0.019c-0.01-0.077-0.019-0.154-0.019-0.221c0.01,0.029,0.019,0.058,0.038,0.077l0.058,0.115l0.01,0.01c0.077,0.154,0.163,0.279,0.24,0.385c0.096,0.125,0.173,0.202,0.221,0.25c0.01,0.01,0.019,0.019,0.029,0.019l0.019,0.019c-0.048-0.125-0.077-0.25-0.096-0.375c-0.01-0.038-0.01-0.087-0.019-0.125c-0.01-0.058-0.01-0.106-0.01-0.154c0.038,0.087,0.067,0.163,0.106,0.24v0.01c0.135,0.26,0.288,0.452,0.385,0.558l0.01,0.01c0.019,0.019,0.029,0.038,0.048,0.048l0.029,0.029l0.019,0.019l0.01,0.01l-0.01-0.019c-0.01-0.019-0.01-0.038-0.019-0.048c-0.019-0.067-0.038-0.125-0.048-0.192c-0.01-0.038-0.019-0.087-0.029-0.125c-0.01-0.038-0.01-0.077-0.019-0.115v-0.019c0-0.019,0-0.038-0.01-0.058v-0.019c0-0.048-0.01-0.106-0.01-0.154c0.01,0.029,0.029,0.067,0.038,0.096c0.01,0.019,0.019,0.048,0.029,0.067v0.01l0.01,0.01c0.01,0.029,0.029,0.048,0.038,0.077c0.029,0.048,0.048,0.087,0.077,0.125c0.029,0.048,0.067,0.096,0.096,0.135C6.302,16,6.321,16.029,6.33,16.048c0.019,0.029,0.038,0.048,0.058,0.077c0.019,0.019,0.038,0.038,0.048,0.058l0.01,0.01l0.038,0.038l0.029,0.029l0.038,0.038l0.01,0.01v-0.029v-0.25V16c0-0.096,0.01-0.183,0.01-0.269v-0.048v-0.029v-0.048c0-0.067,0.01-0.135,0.01-0.202c0-0.058,0.01-0.115,0.01-0.163v-0.019v-0.019v-0.019v-0.038v-0.038v-0.067V15c0-0.019,0-0.038,0.01-0.048v-0.029v-0.019v-0.067L6.677,14.817L6.677,14.817z M18.734,17.365c0.125-0.067,0.24-0.115,0.327-0.163c0.173-0.096,0.269-0.163,0.26-0.183s-0.115,0.01-0.308,0.077c-0.096,0.038-0.212,0.067-0.337,0.115c-0.067,0.029-0.135,0.038-0.212,0.067c-0.077,0.019-0.154,0.048-0.24,0.067c-0.163,0.048-0.356,0.087-0.558,0.144c-0.096,0.019-0.202,0.038-0.308,0.067c-0.106,0.019-0.221,0.038-0.337,0.058c-0.462,0.067-0.962,0.115-1.49,0.087c-0.279-0.01-0.654-0.096-0.933-0.212h-0.01c0.087-0.567,0.644-0.712,0.644-0.712h-0.452c-0.346,0.019-0.5,0.337-0.548,0.462c-0.01,0.019-0.01,0.038-0.019,0.058c-0.038,0.115-0.048,0.25-0.048,0.394c0.019,0.26,0.115,0.529,0.346,0.75c0.154,0.144,0.394,0.26,0.702,0.337c-0.279-0.135-0.538-0.413-0.625-0.904c0.308,0.087,0.654,0.125,0.913,0.135c0.558,0.029,1.087-0.019,1.558-0.106c0.115-0.029,0.231-0.048,0.346-0.077c0.106-0.029,0.221-0.058,0.317-0.087c0.202-0.058,0.385-0.115,0.558-0.183c0.087-0.029,0.163-0.058,0.24-0.096C18.6,17.423,18.677,17.404,18.734,17.365L18.734,17.365z"/><path fill="#664F44" d="M17.494,11.048c0.288-0.029,0.49,0.038,0.635,0.154c0.019-0.135,0.01-0.288-0.019-0.452c-0.029-0.183-0.096-0.337-0.163-0.462c-0.029-0.067-0.163-0.26-0.308-0.231c-0.183,0.038-0.269,0.394-0.192,0.817C17.465,10.933,17.475,10.99,17.494,11.048L17.494,11.048z M14.148,11.913c0.327-0.096,0.635-0.048,0.837-0.019c0.096,0.019,0.173,0.029,0.212,0.029c0.029,0,0.048-0.01,0.058-0.019c0.019-0.019-0.048-0.096-0.173-0.163c-0.029-0.019-0.058-0.029-0.087-0.048c-0.029-0.01-0.067-0.029-0.096-0.038c-0.029-0.01-0.058-0.019-0.096-0.029h-0.01c-0.029-0.01-0.067-0.019-0.096-0.019h-0.019c-0.029-0.01-0.067-0.01-0.106-0.019h-0.019c-0.038,0-0.077-0.01-0.115-0.01H14.33c-0.019,0-0.038,0-0.058,0.01h-0.029c-0.019,0-0.038,0.01-0.058,0.01c-0.01,0-0.019,0-0.029,0.01c-0.029,0.01-0.058,0.01-0.087,0.019h-0.01c-0.019,0.01-0.038,0.01-0.067,0.019c-0.019,0.01-0.048,0.01-0.067,0.019c-0.019,0.01-0.048,0.019-0.067,0.029l-0.058,0.029c-0.019,0.01-0.038,0.019-0.067,0.029c-0.019,0.01-0.038,0.019-0.048,0.029c-0.019,0.01-0.038,0.029-0.058,0.038c-0.01,0.01-0.029,0.019-0.038,0.029c-0.019,0.01-0.038,0.029-0.058,0.038c-0.01,0.01-0.019,0.019-0.038,0.029c-0.019,0.019-0.038,0.029-0.058,0.048c-0.01,0.01-0.019,0.019-0.029,0.019c-0.019,0.019-0.038,0.038-0.058,0.048l-0.019,0.019c-0.019,0.019-0.038,0.048-0.058,0.067c-0.135,0.154-0.173,0.288-0.144,0.298c0.01,0.01,0.029,0.01,0.048,0c0.125-0.048,0.433-0.337,0.894-0.481C14.109,11.933,14.128,11.923,14.148,11.913L14.148,11.913z M18.109,12.067c0.01,0.077,0.048,0.144,0.096,0.163c0.077,0.029,0.144-0.058,0.173-0.192V12c0.01-0.115-0.029-0.221-0.096-0.25c-0.067-0.029-0.144,0.058-0.173,0.192C18.109,11.99,18.1,12.029,18.109,12.067L18.109,12.067z M16.84,12.433c0.038,0.048,0.087,0.087,0.154,0.115c0.135,0.067,0.269,0.048,0.337-0.019c0.01-0.01,0.019-0.019,0.019-0.038c0.029-0.058,0-0.135-0.048-0.202c-0.038-0.038-0.087-0.087-0.144-0.115c-0.135-0.058-0.269-0.048-0.327,0.019c-0.01,0.01-0.019,0.019-0.029,0.038C16.763,12.298,16.782,12.365,16.84,12.433L16.84,12.433z M21.792,13.587l-0.01,0.01L21.792,13.587L21.792,13.587z M21.975,16.26c-0.163,0.192-0.346,0.385-0.548,0.558c-0.894,0.788-2.212,1.481-3.163,1.731c-0.721,0.212-1.433,0.317-2.067,0.317c-0.365,0-0.702-0.038-0.981-0.106c-0.308-0.077-0.558-0.192-0.702-0.337c-0.231-0.212-0.327-0.49-0.346-0.75c-0.01-0.135,0.01-0.269,0.048-0.394c0.01-0.019,0.01-0.038,0.019-0.058c0.048-0.135,0.202-0.442,0.548-0.462h0.433c0.952,0,1.865-0.125,2.712-0.365c1.231-0.346,2.327-0.933,3.269-1.76c0.048-0.048,0.096-0.087,0.144-0.135l0.462-0.913c-1.519,1.75-3.337,2.433-4.76,2.692c-0.779,0.144-1.433,0.163-1.846,0.163h-0.423c-0.106,0.01-0.212,0.029-0.298,0.077c-0.183,0.087-0.337,0.24-0.442,0.423c-0.125,0.231-0.183,0.519-0.154,0.817c0.029,0.24,0.115,0.481,0.269,0.692c0.01,0.01,0.01,0.019,0.019,0.029c0.019,0.019,0.038,0.048,0.058,0.067l0.087,0.087c0.346,0.327,1.019,0.529,1.894,0.529c0.587,0,1.269-0.087,1.99-0.288c2.125-0.663,3.067-1.49,3.49-2.048l0.087-0.115c0.144-0.221,0.202-0.375,0.221-0.452v-0.01c0.01-0.019,0.01-0.029,0.01-0.029L21.975,16.26L21.975,16.26z"/><path fill="#132134" d="M18.186,1.135c-0.192-0.173-0.413-0.288-0.644-0.375c-0.038-0.01-0.087-0.019-0.125-0.029c-0.019-0.01-0.048-0.019-0.067-0.029c-0.202-0.048-0.413-0.077-0.625-0.077c-1.048-0.01-2.183,0.51-2.827,0.856C13.859,1.5,13.83,1.519,13.792,1.538c-0.058,0.029-0.106,0.058-0.163,0.096c-0.096,0.058-0.183,0.115-0.279,0.173c-0.01,0.01-0.029,0.019-0.038,0.029L13.1,1.644l-0.096-0.087l-0.087-0.077l-0.038-0.038L12.09,0.721l-0.067-0.067l-0.077-0.077h-0.01l-0.192,0.067l-0.221,0.077c-0.135-0.048-0.288-0.067-0.462-0.067c-0.346,0-0.788,0.087-1.269,0.279S8.773,1.404,8.215,1.769C7.09,2.51,5.878,3.577,4.744,4.885C4.35,5.346,3.984,5.808,3.648,6.269C3.33,6.712,3.032,7.163,2.782,7.596c-0.519,0.885-0.904,1.721-1.115,2.462c-0.144,0.49-0.221,0.933-0.221,1.308c0,0.269,0.038,0.5,0.106,0.692c0.019,0.058,0.048,0.115,0.077,0.163c0.058,0.106,0.125,0.202,0.212,0.279l0.865,0.712l0.096,0.077v-0.01c0.019-0.029,0.038-0.058,0.067-0.087l0.01-0.01c0.01-0.01,0.019-0.019,0.019-0.029c0.019-0.029,0.038-0.058,0.058-0.077c0.01-0.019,0.029-0.029,0.038-0.048C3.003,13.01,3.023,13,3.032,12.981l0.019-0.019c0.01-0.019,0.029-0.029,0.038-0.048c0.019-0.019,0.038-0.048,0.058-0.067l0.038-0.038l0.01-0.01l0.067-0.067l0.038-0.038c0.019-0.019,0.048-0.038,0.067-0.067c0.01-0.01,0.029-0.029,0.048-0.038c0.029-0.019,0.048-0.038,0.077-0.058c0.019-0.01,0.029-0.019,0.048-0.038c0.029-0.019,0.058-0.038,0.077-0.058c0.019-0.01,0.029-0.019,0.048-0.029l0.019-0.01c0.019-0.019,0.048-0.029,0.067-0.048c0.01-0.01,0.029-0.019,0.038-0.029c0.019-0.01,0.038-0.029,0.058-0.038l0.058-0.029l0.019-0.01c0.048-0.029,0.087-0.048,0.135-0.067c0.019-0.01,0.029-0.01,0.048-0.019s0.029-0.019,0.048-0.019l0.019-0.01c0.01,0,0.019-0.01,0.029-0.01l0.058-0.029l0.019-0.01c0.019-0.01,0.048-0.019,0.067-0.029c0.019-0.01,0.048-0.019,0.067-0.029l0.087-0.029c0.01,0,0.019-0.01,0.038-0.01c0.01,0,0.019-0.01,0.038-0.01c0.029-0.01,0.058-0.019,0.087-0.019c0.029-0.01,0.048-0.01,0.077-0.019c0.019,0,0.038-0.01,0.058-0.019c0.01,0,0.019,0,0.019-0.01c0.01,0,0.019,0,0.029-0.01h0.019c0.096-0.019,0.202-0.029,0.327-0.029h0.019c0.125,0,0.25,0,0.394,0.01c0.029,0,0.067,0.01,0.096,0.01c0.01-0.01,0.01-0.029,0.019-0.038l0.173-0.404c0.346-0.769,0.731-1.452,1.135-2.058c0.135-0.202,0.279-0.404,0.423-0.596C8.042,8,8.657,7.375,9.225,6.885C9.35,6.779,9.475,6.673,9.6,6.577c0.163-0.135,0.327-0.25,0.481-0.365c0.125-0.087,0.24-0.173,0.356-0.25c0.192-0.125,0.365-0.231,0.519-0.317c0.048-0.029,0.096-0.058,0.135-0.077c0.067-0.038,0.125-0.067,0.183-0.096c-0.048,0-0.106,0-0.154,0.01c-0.048,0-0.096,0.01-0.154,0.01h-0.038C10.878,5.5,10.821,5.5,10.773,5.51c-0.096,0.019-0.202,0.038-0.298,0.067c-0.038,0.01-0.067,0.019-0.106,0.029c0.24-0.163,0.481-0.298,0.721-0.394c0.154-0.067,0.308-0.125,0.462-0.173c0.202-0.067,0.404-0.115,0.587-0.144c0.125-0.019,0.24-0.038,0.346-0.048c0.106-0.01,0.212-0.019,0.298-0.019c0.317-0.01,0.51,0.01,0.51,0.01c-0.048-0.058-0.115-0.106-0.183-0.144c-0.125-0.077-0.26-0.115-0.375-0.154c-0.048-0.01-0.087-0.019-0.125-0.029C12.58,4.5,12.552,4.5,12.523,4.5c0.048-0.019,0.106-0.029,0.154-0.038c0.058-0.01,0.106-0.029,0.163-0.038c0.442-0.096,0.846-0.106,1.144-0.087c0.365,0.019,0.587,0.087,0.587,0.087c-0.067-0.096-0.144-0.173-0.24-0.231c-0.067-0.048-0.135-0.087-0.202-0.115c0.125,0.01,0.24,0.029,0.356,0.048c0.298,0.058,0.548,0.125,0.75,0.192c0.067,0.019,0.125,0.048,0.183,0.067c0.019,0.01,0.029,0.01,0.048,0.019c0.183,0.077,0.288,0.135,0.288,0.135c-0.038-0.096-0.115-0.192-0.192-0.269l-0.058-0.058h0.01c0.01,0,0.019,0,0.038,0.01c0.019,0,0.029,0.01,0.058,0.01c0.077,0.019,0.202,0.048,0.346,0.106c0.01,0,0.01,0.01,0.019,0.01c0.019,0.01,0.038,0.019,0.058,0.019c0.048,0.019,0.106,0.038,0.154,0.067c0.048,0.019,0.096,0.048,0.154,0.077c0.029,0.01,0.058,0.029,0.077,0.038c0.058,0.029,0.115,0.067,0.173,0.106c0.058,0.038,0.115,0.077,0.173,0.125l0.029,0.029c0.038,0.029,0.077,0.067,0.115,0.106c0.077,0.067,0.144,0.144,0.212,0.231c0.077,0.096,0.144,0.212,0.202,0.337c0,0.01,0.01,0.01,0.01,0.019c0.029-0.038,0.067-0.096,0.125-0.183C17.936,4.596,19.34,2.298,18.186,1.135L18.186,1.135z"/><path fill="#2F83C1" d="M11.388,1.577l-0.077-0.375l0.144-0.442l0.077-0.029c-0.135-0.048-0.288-0.067-0.462-0.067c-0.346,0-0.788,0.087-1.269,0.279S8.782,1.413,8.225,1.779C7.09,2.51,5.878,3.577,4.744,4.885C4.35,5.346,3.984,5.808,3.648,6.269C3.33,6.712,3.032,7.163,2.782,7.596c-0.519,0.885-0.904,1.721-1.115,2.462c-0.144,0.49-0.221,0.933-0.221,1.308c0,0.269,0.038,0.5,0.106,0.692c0.019,0.058,0.048,0.115,0.077,0.163c0.058,0.106,0.125,0.202,0.212,0.279l0.865,0.712l0.096,0.077v-0.01c0.019-0.029,0.038-0.058,0.067-0.087l0.01-0.01c0.01-0.01,0.019-0.019,0.019-0.029c0.019-0.029,0.038-0.058,0.058-0.077c0.01-0.019,0.029-0.029,0.038-0.048C3.003,13.01,3.023,13,3.032,12.981l0.019-0.019c0.01-0.019,0.029-0.029,0.038-0.048c0.019-0.019,0.038-0.048,0.058-0.067l0.038-0.038l0.01-0.01l0.067-0.067l0.038-0.038c0.019-0.019,0.048-0.038,0.067-0.067c0.01-0.01,0.029-0.029,0.048-0.038c0.029-0.019,0.048-0.038,0.077-0.058c0.019-0.01,0.029-0.019,0.048-0.038c0.029-0.019,0.058-0.038,0.077-0.058c0.019-0.01,0.029-0.019,0.048-0.029l0.019-0.01c0.125-0.529,0.337-1.115,0.625-1.74c0.356-0.76,0.827-1.577,1.413-2.394C6.09,7.74,6.494,7.221,6.936,6.712c0.577-0.663,1.173-1.269,1.76-1.798C9.1,4.558,9.494,4.231,9.888,3.942l0.115-0.087c0.106-0.077,0.212-0.144,0.317-0.221c0.221-0.154,0.452-0.298,0.663-0.423l-0.125-0.125L10.84,3.067l-0.163-0.154L9.763,2.048L9.686,1.394l-0.01-0.01l0.538-0.231L11.388,1.577L11.388,1.577z"/><path fill="#4D9ED7" d="M11.638,1.673l0.029,0.01L11.638,1.673z"/><path fill="#FFD250" d="M11.946,0.577l-0.5,0.173l0.221,0.923l-1.452-0.529L9.677,1.375l0.01,0.01l1.885,1.692l0.019-0.01l0.019-0.019l0.144-0.115c0.019-0.01,0.029-0.029,0.048-0.038c0.067-0.058,0.144-0.106,0.212-0.163L11.215,2.01l1.212,0.423c0.029-0.019,0.067-0.048,0.096-0.067l-0.202-0.798l0.587,0.538h0.01c0.038-0.029,0.077-0.058,0.125-0.077l0.01-0.01l0.019-0.01C13.08,2.01,13.08,2,13.09,2c0.019-0.01,0.038-0.019,0.048-0.038c0,0,0.01,0,0.01-0.01c0.058-0.038,0.115-0.077,0.173-0.106L11.946,0.577L11.946,0.577z"/><path fill="#4D9ED7" d="M11.455,0.788l-0.01-0.038L11.455,0.788L11.455,0.788z M11.446,0.75l0.077-0.029c-0.135-0.048-0.288-0.067-0.462-0.067c-0.346,0-0.788,0.087-1.269,0.279S8.773,1.404,8.215,1.769C7.09,2.51,5.878,3.577,4.744,4.885C4.35,5.346,3.984,5.808,3.648,6.269l1.769,1.712c0.365-0.51,0.769-1.019,1.202-1.529c0.587-0.673,1.192-1.288,1.798-1.837c0.587-0.529,1.173-0.981,1.75-1.365L9.753,2.067L9.686,1.394l-0.01-0.01l0.538-0.231l1.163,0.433l-0.077-0.375L11.446,0.75L11.446,0.75z"/><g><path fill="#132134" d="M11.446,0.75l-0.135,0.452l0.077,0.375l0.279,0.106L11.446,0.75z M11.205,2.01l1.212,0.423L12.013,2.74L11.205,2.01z M12.311,1.567l0.202,0.798l0.394-0.269L12.311,1.567z"/></g><path fill="#FFF" d="M16.59,0.75l0.202-0.029c0.192-0.019,0.375-0.019,0.548,0.01h0.077c-0.019-0.01-0.048-0.019-0.067-0.029c-0.202-0.048-0.413-0.077-0.625-0.077c-1.048-0.01-2.183,0.51-2.827,0.856C13.859,1.5,13.83,1.519,13.792,1.538c-0.058,0.029-0.106,0.058-0.163,0.096c-0.096,0.058-0.183,0.115-0.279,0.173c-0.01,0.01-0.029,0.019-0.038,0.029c-0.058,0.038-0.115,0.067-0.173,0.106c0,0-0.01,0-0.01,0.01c-0.019,0.01-0.038,0.019-0.048,0.038c-0.01,0-0.01,0.01-0.019,0.01l-0.019,0.01l-0.01,0.01c-0.038,0.029-0.077,0.048-0.125,0.077h-0.01c-0.01,0.01-0.019,0.01-0.029,0.019h-0.01c-0.01,0.01-0.019,0.01-0.019,0.019c-0.067,0.038-0.125,0.087-0.192,0.125c-0.048,0.029-0.087,0.058-0.135,0.087l-0.01,0.01c-0.029,0.019-0.067,0.048-0.096,0.067C12.302,2.5,12.196,2.577,12.1,2.654c-0.01,0.01-0.019,0.019-0.029,0.019c-0.01,0.01-0.019,0.01-0.029,0.019c-0.01,0.01-0.019,0.01-0.029,0.019l-0.01,0.01c-0.067,0.058-0.144,0.106-0.212,0.163c-0.019,0.01-0.038,0.029-0.048,0.038L11.6,3.038L11.58,3.058l-0.019,0.01c-0.135,0.106-0.26,0.221-0.394,0.337c-0.212,0.183-0.423,0.375-0.635,0.577c-0.029,0.029-0.058,0.048-0.077,0.077C9.907,4.577,9.388,5.135,8.898,5.702c-0.519,0.596-1.01,1.221-1.471,1.837c-0.25,0.317-0.462,0.606-0.644,0.846C6.436,8.865,6.244,9.154,6.253,9.163c0,0,0.038-0.029,0.087-0.106C6.292,9.125,6.253,9.192,6.205,9.26c0.76-1.038,1.625-2.106,2.558-3.125C9.33,5.51,9.927,4.913,10.552,4.346c0.269-0.25,0.548-0.49,0.837-0.721c0.087-0.077,0.183-0.144,0.269-0.221c0.048-0.038,0.096-0.067,0.135-0.106c0.029-0.019,0.048-0.038,0.077-0.058l0.144-0.115c0.048-0.038,0.096-0.077,0.144-0.106C12.186,3,12.205,2.981,12.234,2.962c0.058-0.048,0.125-0.087,0.183-0.135c0.038-0.029,0.077-0.058,0.115-0.077c0.115-0.087,0.24-0.163,0.356-0.24c0.01-0.01,0.019-0.01,0.029-0.019c0.019-0.01,0.038-0.029,0.058-0.038c0.029-0.019,0.048-0.029,0.077-0.048c0.01-0.01,0.019-0.01,0.029-0.019c0.019-0.01,0.029-0.019,0.048-0.029c0,0,0.01,0,0.01-0.01h0.01c0.048-0.029,0.106-0.067,0.154-0.096c0.01-0.01,0.019-0.01,0.029-0.019c0.019-0.01,0.029-0.019,0.048-0.029c0.058-0.038,0.115-0.077,0.183-0.115c0.019-0.01,0.029-0.019,0.048-0.029c0.01-0.01,0.019-0.01,0.029-0.019c0.019-0.01,0.029-0.019,0.048-0.029c0.067-0.038,0.135-0.087,0.202-0.125c0.058-0.038,0.125-0.067,0.183-0.106c0.346-0.192,0.663-0.365,0.971-0.5C15.628,0.99,16.138,0.827,16.59,0.75L16.59,0.75z"/></svg>