<svg xmlns="http://www.w3.org/2000/svg" enable-background="new 0 0 24 24" viewBox="0 0 24 24"><path fill="#F59A02" d="M11.585,5.274c-3.625,0-6.814,3.222-6.814,6.877c0,3.619,3.188,6.804,6.813,6.804c1.834,0,3.517-0.731,4.782-1.986l0.019,0.677c-0.018,2.066,2.682,3.447,4.498,2.029c4.011-3.123,4.25-11.154,0.139-15.443C17.09,0.13,10.567-0.684,5.62,2.256c-6.467,3.844-6.597,11.263-4.158,15.48c3.608,6.245,11.334,6.365,14.11,5.182c1.837-0.78,1.02-3.169-0.749-2.454c-3.493,1.406-9.37-0.004-11.424-4.739C1.513,11.383,3.453,6.761,6.485,4.673c2.852-1.964,8.213-2.539,12.209,0.954c4.288,3.748,2.467,10.214,0.946,11.777c-0.389,0.397-1.092,0.078-1.029-0.542l-0.005-9.464c0-0.267-0.182-1.108-1.073-1.108h-0.145c-0.569,0-0.979,0.458-0.979,1.067V7.352C15.143,6.084,13.419,5.274,11.585,5.274z M11.56,16.726c-2.414,0-4.256-1.732-4.256-4.476c0-2.448,1.523-4.605,4.268-4.605h0.09c2.378,0,4.347,1.594,4.484,4.244l0.006,0.535C16.024,14.755,14.253,16.726,11.56,16.726z"/></svg>