<svg xmlns="http://www.w3.org/2000/svg" enable-background="new 0 0 24 24" viewBox="0 0 24 24"><path fill="#E57C7C" d="M23.395 19.073c.536-.575.123-1.15.123-1.15L6.508 2.305 22.16 19.156C22.16 19.156 22.861 19.648 23.395 19.073zM11.134 22.576c0 0 .241.163.427-.026.186-.189.042-.376.042-.376l-5.425-4.949L11.134 22.576zM18.823 23.471c.535-.575.123-1.15.123-1.15L1.936 6.703l15.652 16.85C17.588 23.553 18.288 24.046 18.823 23.471zM22.583 11.973c0 0 .243.161.428-.027.186-.189.044-.376.044-.376L17.629 6.62 22.583 11.973zM15.24 23.512c.373-.403.088-.802.088-.802L3.442 11.799l10.935 11.772C14.377 23.571 14.865 23.915 15.24 23.512zM23.895 14.984L12.009 4.072l10.936 11.774c0 0 .489.346.863-.058C24.182 15.385 23.895 14.984 23.895 14.984zM21.788 21.909c.536-.575.124-1.149.124-1.149L0 .25l20.552 21.742C20.552 21.992 21.253 22.484 21.788 21.909z"/></svg>