<svg xmlns="http://www.w3.org/2000/svg" enable-background="new 0 0 24 24" viewBox="0 0 24 24"><linearGradient id="a" x1="12" x2="12" y1="23.893" y2="3.392" gradientUnits="userSpaceOnUse"><stop offset="0" stop-color="#fb9600"/><stop offset="1" stop-color="#fdc600"/></linearGradient><path fill="url(#a)" d="M12,21.8c1.5,0.1,2.9-0.2,4.3-0.6c0.2-0.1,0.3,0,0.5,0.1l0.014,0.024c0.876,1.37,2.293,2.36,3.986,2.676c0.2,0,0.6,0,0.3-0.4c-0.7-1.1-1.7-3.3,0.3-5.9C23,15.8,24,13.5,24,11c0-6.1-5.4-11-12-11S0,5,0,11S5.4,21.8,12,21.8z"/><linearGradient id="b" x1="11.951" x2="11.951" y1="15.75" y2="5.862" gradientUnits="userSpaceOnUse"><stop offset="0" stop-color="#ffff20"/><stop offset="1" stop-color="#ffffb2"/></linearGradient><path fill="url(#b)" d="M6.4,8.999h4l1.3-3.8c0.074-0.083,0.181-0.135,0.3-0.135s0.226,0.052,0.3,0.135l1.3,3.8h3.9L17.503,9c0.155,0.056,0.265,0.204,0.265,0.377c0,0.083-0.026,0.161-0.068,0.223L14.6,12l1.2,3.8v-0.002c0.003,0.019,0.004,0.038,0.004,0.058c0,0.221-0.179,0.4-0.4,0.4c-0.075,0-0.146-0.021-0.204-0.056L12,14c0,0-3.197,2.198-3.199,2.199c-0.032,0.008-0.066,0.013-0.101,0.013c-0.221,0-0.4-0.179-0.4-0.4c0-0.005,0-0.009,0-0.013l1-3.7l-3-2.4L6.299,9.698c-0.1-0.073-0.164-0.19-0.164-0.323C6.135,9.203,6.244,9.056,6.4,8.999z"/></svg>