<svg xmlns="http://www.w3.org/2000/svg" enable-background="new 0 0 24 24" viewBox="0 0 24 24"><path fill="#F31000" d="M0.281,14.621c1.399-0.091,2.357-0.819,3.297-1.991c0.172,0.246,0.354,0.51,0.544,0.796c0.375,0.566,0.807,1.208,1.314,1.845c-1.01,1.169-2.255,2.175-3.933,2.557C3.551,21.51,7.482,24,11.999,24c4.518,0,8.447-2.49,10.498-6.173c-1.681-0.384-2.924-1.388-3.933-2.556c-0.086-0.09-0.17-0.18-0.25-0.285l-0.236-0.3c-0.48-0.615-0.917-1.245-1.306-1.845L16.217,12c-0.074-0.111-0.154-0.225-0.23-0.33c-0.078-0.111-0.154-0.219-0.232-0.325c-1.052-1.44-2.102-2.431-3.753-2.431c-1.651,0-2.701,0.99-3.753,2.431l-0.375-0.56c-0.436-0.669-0.917-1.38-1.457-2.059C7.691,7.263,9.372,6,11.999,6c2.597,0,4.313,1.263,5.587,2.726l0.248,0.293c0.082,0.101,0.164,0.2,0.242,0.3c0.434,0.569,0.81,1.146,1.171,1.674c0.24,0.356,0.465,0.693,0.69,1.008l0.227,0.32c0.074,0.105,0.148,0.211,0.24,0.31c0.929,1.171,1.89,1.9,3.286,1.991c0.195-0.845,0.301-1.721,0.301-2.621c0-0.9-0.105-1.776-0.301-2.621c-1.396,0.091-2.357,0.819-3.304,1.991c-0.18-0.246-0.357-0.51-0.555-0.796c-0.375-0.566-0.81-1.208-1.321-1.845c1.007-1.169,2.252-2.175,3.935-2.557C20.45,2.49,16.517,0,11.999,0C7.496,0,3.553,2.49,1.501,6.173c1.682,0.384,2.925,1.388,3.934,2.556c0.086,0.09,0.168,0.18,0.249,0.285l0.237,0.3c0.479,0.615,0.915,1.245,1.306,1.845l0.555,0.826l0.24,0.329c0.074,0.104,0.165,0.21,0.239,0.315c1.052,1.439,2.117,2.43,3.753,2.43c1.651,0,2.703-0.99,3.768-2.43l0.375,0.555c0.451,0.66,0.933,1.38,1.456,2.055c-1.274,1.471-3.002,2.73-5.599,2.73c-2.596,0-4.307-1.275-5.583-2.73l-0.48-0.6c-0.435-0.57-0.811-1.154-1.171-1.68c-0.239-0.36-0.465-0.69-0.69-1.006l-0.226-0.33c-0.074-0.104-0.149-0.21-0.24-0.314C2.648,10.2,1.686,9.465,0.291,9.375c-0.195,0.849-0.3,1.725-0.3,2.625C-0.009,12.9,0.093,13.776,0.281,14.621z"/></svg>