<svg xmlns="http://www.w3.org/2000/svg" enable-background="new 0 0 24 24" viewBox="0 0 24 24"><path fill="#D04422" d="M0 20.91l13.688 2.34V.75L0 3.153V20.91zM4.299 6.955l2.859-.147c.53-.033 1.054.025 1.566.178.515.15.922.454 1.223.912.3.456.469.985.51 1.588.037.603-.043 1.16-.244 1.669-.375.86-.935 1.41-1.684 1.647C7.78 13.039 6.971 13.131 6.1 13.078v3.386l-1.801-.207V6.955zM23.49 4.084h-.006-8.542v3.152c.515-.386 1.132-.582 1.855-.582V9.72h3.074c-.015.86-.315 1.585-.901 2.17-.584.586-1.318.887-2.188.906-.675-.02-1.29-.221-1.829-.608v2.106h6.719v1.034h-6.721v1.279h6.715v1.021h-6.719v2.315h8.543c.346 0 .51-.18.51-.531V4.589C24 4.251 23.836 4.084 23.49 4.084zM17.28 9.216V6.125c.87.02 1.6.319 2.188.9.586.582.891 1.312.906 2.191H17.28z"/><path fill="#D04422" d="M6.951,11.449c0.285-0.015,0.555-0.089,0.809-0.223c0.313-0.223,0.5-0.519,0.561-0.904c0.06-0.387,0.039-0.758-0.064-1.099v0.044H8.256C8.203,9.068,8.116,8.914,7.993,8.8C7.873,8.689,7.711,8.608,7.51,8.557c-0.225-0.06-0.457-0.089-0.69-0.089L6.1,8.481v2.967h0.026C6.387,11.465,6.661,11.465,6.951,11.449z"/></svg>