<svg xmlns="http://www.w3.org/2000/svg" enable-background="new 0 0 24 24" viewBox="0 0 24 24"><path fill="#136EC5" d="M14.635 5.298v5.081l1.969 1.565 7.369-5.936c-.014-.212-.098-.386-.248-.515-.15-.13-.332-.194-.543-.194H14.635zM13.404.75L0 3.154V20.91l13.404 2.34V.75zM8.506 14.871c-.571.754-1.29 1.147-2.145 1.182-.827-.043-1.53-.441-2.101-1.188-.57-.752-.87-1.691-.885-2.82.015-1.144.3-2.093.87-2.843.571-.749 1.276-1.143 2.1-1.176.856.033 1.576.428 2.131 1.176.566.75.859 1.698.879 2.843h.036C9.376 13.173 9.076 14.115 8.506 14.871z"/><path fill="#136EC5" d="M6.235 9.537L6.208 9.577c-.435.031-.797.274-1.081.728-.3.454-.435 1.046-.435 1.758 0 .711.135 1.303.435 1.772.3.469.659.697 1.095.697.436 0 .795-.242 1.096-.711.286-.469.435-1.061.435-1.789 0-.714-.15-1.304-.435-1.77C7.029 9.796 6.666 9.558 6.235 9.537zM14.635 18.74h8.547c.228 0 .422-.077.58-.232C23.92 18.354 24 18.158 24 17.926V7.34l-6.997 5.61c-.112.087-.241.128-.389.128-.15 0-.277-.041-.379-.127l-1.6-1.242V18.74z"/></svg>