<svg xmlns="http://www.w3.org/2000/svg" enable-background="new 0 0 24 24" viewBox="0 0 24 24"><path fill="#A23538" d="M6.992 11.01C6.736 9.941 6.571 9.301 6.541 9.12h-.06L6.474 9.111c-.032.197-.171.824-.412 1.875l-.45 1.834 1.8.025L6.992 11.01zM16.568 12.652c-.603 0-1.199-.016-1.784-.051l.026 3.345c.57.016 1.163.03 1.785.03 2.1-.015 3.848-.195 5.239-.555 1.392-.346 2.115-.795 2.165-1.335V10.86c-.051.543-.776.978-2.178 1.305-1.399.33-3.15.495-5.254.495L16.568 12.652 16.568 12.652z"/><path fill="#A23538" d="M24 15.019c-.051.542-.773.975-2.165 1.29-1.392.32-3.138.479-5.24.479-.621 0-1.216-.008-1.785-.026v3.283c.569.033 1.164.053 1.785.053 2.094-.02 3.84-.205 5.234-.563 1.394-.358 2.12-.808 2.171-1.351V15.019zM21.822 4.472c-1.399-.36-3.15-.54-5.254-.556V3.903c-.603 0-1.199.025-1.784.077v3.697c.585.034 1.182.05 1.784.05 2.101-.015 3.855-.199 5.254-.548 1.402-.348 2.127-.8 2.178-1.351C23.949 5.286 23.224 4.833 21.822 4.472zM0 20.912l13.545 2.338V.75L0 3.153V20.912zM5.635 7.601l1.85-.104 2.639 8.995-1.84-.105L7.78 14.385l-2.494-.09-.479 1.886-1.591-.105L5.635 7.601z"/><path fill="#A23538" d="M24,6.759c-0.051,0.544-0.776,0.976-2.178,1.294c-1.399,0.317-3.15,0.479-5.254,0.479V8.53c-0.603,0-1.199-0.019-1.784-0.053v3.335c0.585,0.034,1.182,0.053,1.784,0.053c2.101-0.019,3.855-0.203,5.254-0.555c1.401-0.354,2.127-0.803,2.178-1.346V6.759z"/></svg>