<svg xmlns="http://www.w3.org/2000/svg" enable-background="new 0 0 24 24" viewBox="0 0 24 24"><path fill="#7E3779" d="M1.649,7.789c0.002-0.006,0.005-0.011,0.007-0.017C1.665,7.746,1.67,7.717,1.679,7.691L1.649,7.789z"/><path d="M8.658,22.796c-0.004-0.002-0.007-0.005-0.011-0.007c-0.014-0.008-0.03-0.013-0.044-0.02L8.658,22.796z"/><polygon points="6.64 21.379 6.638 21.377 6.632 21.372"/><path fill="#7E3779" d="M0 20.912l13.646 2.338V.75L0 3.149V20.912zM3.333 7.766l1.629-.064 3.19 5.775c-.018-.266-.018-1.266 0-2.998V7.523l1.6-.104v8.919l-1.705-.103-3.44-6.217v6.046L3.333 15.96V7.766zM22.661 14.795v4.586h.779c.137 0 .257-.049.357-.145.099-.101.149-.218.149-.357v-3.58c0-.136-.05-.256-.149-.354-.099-.098-.219-.148-.357-.148v-.002H22.661zM23.947 10.198c0-.141-.05-.257-.149-.358-.099-.098-.219-.148-.357-.148h-.779v4.577h.779c.137 0 .257-.052.357-.149.099-.1.149-.218.149-.356V10.198z"/><path fill="#7E3779" d="M24,5.091c0-0.138-0.059-0.256-0.176-0.357c-0.117-0.098-0.246-0.149-0.384-0.149v0.001h-1.288V3.781c-0.018-0.134-0.075-0.248-0.17-0.341c-0.094-0.09-0.153-0.134-0.169-0.134h-6.887v2.514h5.207v1.057h-5.207v1.265h5.207v1.012h-5.207v1.295h5.207v0.998h-5.207v1.264h5.207v0.997h-5.207v1.295h5.207v1.013h-5.207v1.263h5.207v1.073h-5.207v2.248h6.704c0.14,0,0.259-0.045,0.364-0.119c0.104-0.09,0.157-0.195,0.157-0.329v-11h1.289c0.138,0,0.267-0.045,0.384-0.134C23.939,8.927,24,8.803,24,8.658V5.091z"/></svg>