<svg xmlns="http://www.w3.org/2000/svg" enable-background="new 0 0 24 24" viewBox="0 0 24 24"><polygon points="23.225 21.607 23.224 21.607 23.223 21.609"/><path fill="#32B5E2" d="M12.592,11.962c0,0.143,0.046,0.275,0.125,0.383l-0.001-0.002l6.89,9.296c0.452,0.601,1.163,0.986,1.964,0.986c0.638,0,1.219-0.244,1.655-0.643c0.955-0.867,1.014-2.33,0.252-3.361l-4.947-6.65l4.917-6.59c0.762-1.032,0.687-2.496-0.254-3.363c-0.434-0.396-1.013-0.639-1.65-0.641l0.001-0.002c-0.004,0-0.008,0-0.013,0c-0.799,0-1.508,0.385-1.951,0.98l-0.005,0.006l-6.86,9.22C12.638,11.687,12.592,11.819,12.592,11.962z"/><path fill="#1C244E" d="M0.777,21.983c0.434,0.398,1.015,0.642,1.653,0.642c0.801,0,1.513-0.385,1.96-0.979l0.005-0.006l6.904-9.28c0.077-0.106,0.124-0.238,0.124-0.381c0-0.142-0.046-0.274-0.124-0.381L4.423,2.363C3.975,1.762,3.266,1.377,2.468,1.377c-0.004,0-0.007,0-0.011,0L2.455,1.375C1.818,1.377,1.239,1.621,0.803,2.018c-0.939,0.867-1.014,2.33-0.252,3.362l4.917,6.59l-4.946,6.65C-0.239,19.652-0.179,21.116,0.777,21.983z"/><polygon points="11.298 11.596 11.299 11.598 11.299 11.598"/></svg>