<svg xmlns="http://www.w3.org/2000/svg" enable-background="new 0 0 24 24" viewBox="0 0 24 24"><path d="M24,0H0v24h24V0z M21.78,17.29h-4.3V11.2l-0.01-0.25l-0.03-0.23l-0.03-0.21l-0.04-0.19l-0.05-0.19L17.2,9.81l-0.08-0.14l-0.09-0.12l-0.09-0.11l-0.1-0.1l-0.11-0.09l-0.12-0.07l-0.13-0.06l-0.14-0.05L16.2,9.03L16.04,9l-0.16-0.02h-0.17L15.5,8.99l-0.19,0.02l-0.19,0.04L14.95,9.1l-0.16,0.06l-0.14,0.08l-0.14,0.09l-0.12,0.1l-0.12,0.11l-0.1,0.12L14.08,9.8L14,9.94l-0.07,0.16l-0.06,0.16l-0.05,0.18l-0.04,0.18l-0.04,0.19l-0.02,0.2l-0.02,0.42v3.6h1.37v2.26h-4.3V11.2l-0.01-0.25l-0.03-0.23l-0.03-0.21l-0.04-0.19l-0.05-0.19l-0.12-0.32l-0.08-0.14l-0.08-0.12l-0.1-0.11l-0.1-0.1l-0.11-0.09L9.9,9.18L9.77,9.12L9.63,9.07L9.49,9.03L9.33,9L9.17,8.98H9L8.79,8.99L8.6,9.01L8.41,9.05L8.24,9.1L8.09,9.16L7.94,9.24L7.8,9.33l-0.12,0.1L7.57,9.54L7.46,9.66L7.37,9.8L7.29,9.94L7.22,10.1l-0.06,0.16l-0.05,0.18l-0.04,0.18l-0.03,0.19l-0.03,0.2L7,11.22v3.81h1.98v2.26H2.65v-2.26h1.37V9.17H2.65V6.95H7V8.5l0.09-0.16l0.1-0.16L7.3,8.03l0.12-0.14l0.12-0.13l0.13-0.13l0.14-0.12L7.95,7.4l0.3-0.2l0.17-0.08l0.16-0.08l0.18-0.07l0.18-0.06l0.18-0.05l0.19-0.05l0.2-0.03l0.2-0.02l0.21-0.02h0.43l0.44,0.04l0.22,0.04l0.21,0.05l0.2,0.06L11.62,7l0.2,0.08L12,7.17l0.19,0.11l0.17,0.11l0.17,0.13l0.15,0.14l0.15,0.15l0.14,0.16l0.13,0.17l0.12,0.19l0.1,0.2l0.1,0.21l0.08,0.22l0.09-0.21l0.1-0.19l0.11-0.19l0.11-0.17l0.13-0.17l0.13-0.16l0.14-0.15l0.15-0.14l0.16-0.13l0.17-0.12l0.17-0.11l0.18-0.1l0.19-0.09l0.4-0.14l0.21-0.06l0.22-0.04l0.23-0.03l0.23-0.02h0.52l0.28,0.03l0.26,0.04l0.27,0.06l0.25,0.08l0.25,0.09l0.24,0.12l0.23,0.13l0.21,0.15l0.21,0.16l0.18,0.19l0.18,0.2l0.16,0.23L20,8.46l0.12,0.26L20.22,9l0.08,0.3l0.06,0.32l0.04,0.33l0.01,0.36v4.72h1.37V17.29z"/></svg>