<svg xmlns="http://www.w3.org/2000/svg" enable-background="new 0 0 24 24" viewBox="0 0 24 24"><g fill="#3f51b5"><path d="m15 18.75c0 .414.336.75.75.75h7.5c.414 0 .75-.336.75-.75v-.75c0-2.481-2.019-4.5-4.5-4.5s-4.5 2.019-4.5 4.5z"/><circle cx="19.5" cy="8.25" r="3.75"/><path d="M6.75 18.75c0 .414.336.75.75.75h6c.414 0 .75-.336.75-.75v-1.5c0-2.069-1.683-3.75-3.75-3.75s-3.75 1.681-3.75 3.75zM.75 19.5h4.5c.414 0 .75-.336.75-.75v-2.25c0-1.654-1.346-3-3-3-1.655 0-3 1.346-3 3v2.25c0 .414.336.75.75.75z"/><circle cx="10.5" cy="9" r="3.375"/><circle cx="3" cy="9.75" r="2.625"/></g></svg>