<svg xmlns="http://www.w3.org/2000/svg" enable-background="new 0 0 24 24" viewBox="0 0 24 24"><path fill="#60AE44" d="M6.064,5.679c1.56,0.008,2.85-1.277,2.85-2.839c0-1.532-1.27-2.817-2.806-2.84C4.565-0.022,3.244,1.268,3.219,2.82C3.194,4.35,4.51,5.672,6.064,5.679z"/><path fill="#1C88BC" d="M3.04,5.018c-2.516,3.673-2.37,8.679,0.373,12.185c0.493,0.631,1.03,1.219,1.696,1.71c0.752-3.208,3.405-4.251,5.536-3.888c2.601,0.442,4.014,2.602,3.77,5.787c3.527-0.43,7.951-5.65,7.515-8.864c-2.705,2.356-5.015,2.779-7.443,1.36c-2.147-1.254-3.206-3.721-2.662-6.197c0.589-2.68,2.514-4.085,6.216-4.467c-2.81-2.002-5.781-2.619-9.043-1.823C8.576,0.923,8.757,1.082,8.872,1.294c0.788,1.447,0.384,3.207-0.945,4.151C6.598,6.389,4.792,6.2,3.697,4.955C3.373,4.588,3.268,4.686,3.04,5.018z M17.21,14.702c0.487-0.011,0.867,0.356,0.866,0.841c0.001,0.455-0.363,0.821-0.825,0.832c-0.483,0.011-0.875-0.367-0.869-0.84C16.387,15.073,16.747,14.713,17.21,14.702z M15.729,16.479c0.48,0.004,0.853,0.393,0.836,0.875c-0.015,0.462-0.371,0.792-0.852,0.791c-0.496-0.004-0.859-0.375-0.841-0.858C14.89,16.841,15.275,16.477,15.729,16.479z M12.814,2.095c0.463-0.023,0.873,0.365,0.884,0.835c0.009,0.456-0.348,0.827-0.809,0.843c-0.508,0.017-0.865-0.32-0.869-0.818C12.015,2.479,12.349,2.118,12.814,2.095z M10.699,1.348c0.463,0.013,0.816,0.376,0.815,0.837c-0.001,0.449-0.373,0.827-0.826,0.838c-0.47,0.012-0.871-0.38-0.869-0.849C9.822,1.693,10.206,1.334,10.699,1.348z M7.685,14.312c-0.002,0.452-0.372,0.813-0.839,0.821c-0.502,0.007-0.86-0.345-0.854-0.838c0.006-0.46,0.372-0.832,0.821-0.836C7.284,13.455,7.689,13.85,7.685,14.312z M6.513,12.193c-0.019,0.468-0.385,0.813-0.849,0.797c-0.48-0.014-0.84-0.409-0.816-0.891c0.023-0.46,0.397-0.806,0.861-0.797C6.189,11.312,6.533,11.693,6.513,12.193z M5.194,10.583C4.72,10.59,4.328,10.202,4.331,9.728c0.003-0.451,0.375-0.824,0.832-0.835C5.625,8.882,5.99,9.228,6.01,9.696C6.03,10.185,5.672,10.574,5.194,10.583z M5.055,6.629C5.536,6.638,5.91,7.03,5.889,7.505C5.87,7.957,5.49,8.309,5.028,8.303c-0.461-0.006-0.824-0.366-0.83-0.827C4.19,6.993,4.567,6.621,5.055,6.629z"/><path fill="#60AE44" d="M12.035 8.319c-.015 2.983 2.352 5.393 5.307 5.407 2.988.012 5.394-2.35 5.407-5.309.013-2.929-2.372-5.341-5.307-5.363C14.501 3.032 12.049 5.419 12.035 8.319zM9.806 24c2.384-.008 4.345-1.975 4.342-4.358 0-2.41-1.963-4.336-4.409-4.326-2.347.01-4.332 2.01-4.308 4.34C5.456 22.035 7.442 24.008 9.806 24z"/></svg>