<svg xmlns="http://www.w3.org/2000/svg" enable-background="new 0 0 24 24" viewBox="0 0 24 24"><path fill="#197EC3" d="M24,12.001L24,12.001c-0.009-1.973-1.594-3.569-3.552-3.578h-0.001c-1.416,0-2.63,0.864-3.199,2.081c-0.654-2.3-2.743-4.005-5.23-4.004c-2.5,0-4.6,1.724-5.241,4.042c-0.56-1.24-1.793-2.119-3.225-2.119C1.594,8.433,0.009,10.029,0,11.999V12c0.009,1.971,1.594,3.567,3.551,3.577h0.001c1.432,0,2.664-0.88,3.224-2.12c0.641,2.32,2.742,4.043,5.242,4.043c2.487,0,4.576-1.705,5.231-4.004c0.569,1.218,1.783,2.081,3.198,2.081C22.406,15.569,23.992,13.972,24,12.001z M3.552,13.478c-0.004,0-0.01,0-0.015,0c-0.802,0-1.452-0.654-1.452-1.462c0-0.006,0-0.011,0-0.016c0-0.829,0.644-1.477,1.467-1.477v-0.001c0.822,0,1.467,0.649,1.467,1.478S4.375,13.477,3.552,13.478z M12.018,15.401c-0.004,0-0.01,0-0.015,0c-1.857,0-3.362-1.515-3.362-3.385c0-0.006,0-0.011,0-0.016c0-1.891,1.5-3.401,3.377-3.401c1.878,0,3.378,1.51,3.378,3.401S13.896,15.401,12.018,15.401z M20.447,13.478c-0.004,0-0.01,0-0.015,0c-0.802,0-1.452-0.654-1.452-1.462c0-0.006,0-0.011,0-0.016c0-0.829,0.644-1.477,1.467-1.477v-0.001c0.823,0,1.468,0.649,1.468,1.478S21.27,13.478,20.447,13.478z"/><polygon points="23.229 7.148 23.229 7.149 23.23 7.149"/></svg>