<svg xmlns="http://www.w3.org/2000/svg" enable-background="new 0 0 24 24" viewBox="0 0 24 24"><polygon fill="#564FAE" points="1.5 18.205 11.521 23.997 11.521 20.176 4.804 16.294 4.804 8.526 1.5 6.616"/><polygon fill="#564FAE" points="22.5 6.619 12.48 12.411 12.48 17.842 17.175 15.127 17.175 13.513 19.194 12.346 19.194 16.294 19.194 16.296 12.479 20.184 12.479 24 22.5 18.206"/><polygon fill="#564FAE" points="16.696 8.862 12 6.146 12 6.145 7.306 8.863 12 11.579"/><polygon fill="#564FAE" points="17.649 7.087 20.953 5.177 12 0 1.992 5.789 5.293 7.696 12 3.813"/><polygon fill="#564FAE" points="11.52 17.841 11.52 12.408 6.823 9.695 6.823 15.127 6.825 15.126"/></svg>