<svg xmlns="http://www.w3.org/2000/svg" enable-background="new 0 0 24 24" viewBox="0 0 24 24"><ellipse cx="1.998" cy="2.471" fill="#09467D" rx="1.998" ry="1.971"/><path fill="#09467D" d="M24,10.853c0-3.353-2.755-6.071-6.154-6.072h-6.667C7.781,4.782,5.027,7.5,5.026,10.853v6.577c0,3.353,2.755,6.071,6.154,6.071h6.667c3.399,0,6.154-2.718,6.154-6.071V10.853z M9.702,12.471c-1.379,0-2.497-1.103-2.497-2.463c0-1.36,1.118-2.463,2.497-2.463s2.497,1.103,2.497,2.463C12.198,11.368,11.081,12.471,9.702,12.471z M17.67,21.503c-2.206,0-3.995-1.765-3.995-3.941s1.789-3.941,3.995-3.941s3.995,1.765,3.995,3.941S19.876,21.503,17.67,21.503z"/></svg>