<svg xmlns="http://www.w3.org/2000/svg" enable-background="new 0 0 24 24" viewBox="0 0 24 24"><polygon fill="#77B900" points="8.948 14.408 8.948 14.408 8.949 14.409"/><path fill="#77B900" d="M8.948,18.121v-1.247c-4.84-0.605-6.492-5.983-6.492-5.983s2.164-3.222,6.5-3.561V6.155C4.153,6.547,0,10.642,0,10.642S2.35,17.498,8.948,18.121z"/><path fill="#77B900" d="M4.275,11.053c0,0,1.016,3.836,4.673,4.495v-1.14C6.89,13.704,6.21,11.274,6.21,11.274s1.202-1.442,2.73-1.255h0.008V8.773C9.166,8.749,9.386,8.735,9.61,8.735c0.047,0,0.094,0.001,0.134,0.002c2.508,0,4,1.968,4,1.968l-2.04,1.728c-0.91-1.54-1.219-2.217-2.747-2.404v4.38c0.371,0.124,0.76,0.187,1.158,0.187c2.976,0,5.75-3.882,5.75-3.882s-2.571-3.526-6.493-3.401H9.368c-0.149,0.002-0.296,0.008-0.42,0.018v1.441L8.921,8.775c0.008-0.001,0.016,0,0.023-0.001C6.031,9.095,4.275,11.053,4.275,11.053z"/><path fill="#77B900" d="M24,4H8.948v2.155l0.424-0.027c5.45-0.186,9.01,4.506,9.01,4.506s-4.08,5.003-8.33,5.003c-0.37,0-0.733-0.035-1.095-0.098v1.335c0.3,0.035,0.61,0.063,0.91,0.063c3.957,0,6.82-2.039,9.593-4.443c0.459,0.374,2.34,1.273,2.73,1.665c-2.633,2.226-8.772,4.016-12.253,4.016c-0.335,0-0.653-0.018-0.971-0.053V20H24V4z"/></svg>