<svg xmlns="http://www.w3.org/2000/svg" enable-background="new 0 0 24 24" viewBox="0 0 24 24"><path fill="#B2B2B2" d="M10.9 20.74V23C4.74 22.46 0 19.22 0 15.29c0-3.78 4.42-6.93 10.27-7.63v2.27c-3.83.66-6.64 2.81-6.64 5.36C3.63 17.99 6.76 20.22 10.9 20.74zM24 13.851V13.85l-.493-5.156-1.875 1.047c-1.746-1.047-3.969-1.787-6.444-2.078v2.274c1.419.254 2.705.704 3.75 1.312l-1.972 1.094L24 13.851z"/><polygon fill="#F7931F" points="14.54 1 14.54 21.31 10.9 23 10.9 2.76"/><rect width=".01" height="8.1" x="14.54" y="13.21" fill="#F7931F"/></svg>