<svg xmlns="http://www.w3.org/2000/svg" enable-background="new 0 0 24 24" viewBox="0 0 24 24"><linearGradient id="a" x1="-63.965" x2="-63.965" y1="916.31" y2="916.3" gradientTransform="matrix(2083.0078 0 0 -2500 133248.5 2290774.25)" gradientUnits="userSpaceOnUse"><stop offset=".3" stop-color="#ff1b2d"/><stop offset=".438" stop-color="#fa1a2c"/><stop offset=".594" stop-color="#ed1528"/><stop offset=".758" stop-color="#d60e21"/><stop offset=".927" stop-color="#b70519"/><stop offset="1" stop-color="#a70014"/></linearGradient><path fill="url(#a)" d="M8.053,18.759c-1.331-1.566-2.184-3.881-2.241-6.478v-0.562c0.056-2.597,0.919-4.912,2.241-6.478c1.725-2.231,4.256-3.234,7.116-3.234c1.762,0,3.422,0.122,4.828,1.059C17.888,1.163,15.103,0.009,12.047,0H12C5.372,0,0,5.372,0,12c0,6.431,5.062,11.691,11.428,11.991C11.616,24,11.812,24,12,24c3.075,0,5.878-1.153,7.997-3.056c-1.406,0.938-2.972,0.975-4.734,0.975C12.413,21.928,9.769,21,8.053,18.759L8.053,18.759z"/><linearGradient id="b" x1="-64.457" x2="-64.457" y1="916.432" y2="916.422" gradientTransform="matrix(1661.1328 0 0 -2171.875 107087.367 1990376.875)" gradientUnits="userSpaceOnUse"><stop offset="0" stop-color="#9c0000"/><stop offset=".7" stop-color="#ff4b4b"/></linearGradient><path fill="url(#b)" d="M8.053,5.241c1.097-1.303,2.522-2.081,4.078-2.081c3.497,0,6.328,3.956,6.328,8.85s-2.831,8.85-6.328,8.85c-1.556,0-2.972-0.788-4.078-2.081c1.725,2.231,4.284,3.656,7.134,3.656c1.753,0,3.403-0.534,4.809-1.472C22.453,18.75,24,15.553,24,12s-1.547-6.75-4.003-8.944c-1.406-0.938-3.047-1.472-4.809-1.472C12.328,1.584,9.769,3,8.053,5.241L8.053,5.241z"/></svg>