<svg xmlns="http://www.w3.org/2000/svg" enable-background="new 0 0 24 24" viewBox="0 0 24 24"><path fill="#EA5821" d="M12.075,23.582c-0.016,0.018-0.029,0.039-0.037,0.062c-0.008,0.026-0.012,0.056-0.012,0.085c-0.001,0.062,0.021,0.124,0.063,0.173c0.041,0.049,0.097,0.082,0.161,0.097c0.038,0.003,0.077-0.005,0.11-0.023l0.037-0.026c0.791-0.441,1.55-0.935,2.276-1.479c0.726-0.548,1.409-1.149,2.052-1.802c0.643-0.653,1.236-1.359,1.779-2.118c0.546-0.76,1.041-1.563,1.484-2.412c0.284-0.544,0.512-1.115,0.681-1.703c0.173-0.596,0.276-1.212,0.309-1.848c0.085-1.224-0.074-2.393-0.469-3.502c-0.397-1.11-0.973-2.098-1.732-2.963c-0.764-0.869-1.692-1.58-2.733-2.094c-1.075-0.535-2.25-0.848-3.451-0.919c-0.265-0.032-0.531-0.044-0.806-0.035c-0.271,0.008-0.538,0.028-0.803,0.061c-0.031,0-0.064-0.013-0.086-0.037c-0.024-0.023-0.036-0.053-0.036-0.086c0.067-0.473,0.187-0.925,0.37-1.358c0.184-0.436,0.418-0.851,0.694-1.237c0.016-0.018,0.029-0.038,0.036-0.061c0.009-0.027,0.013-0.057,0.012-0.084c0-0.068-0.019-0.123-0.063-0.174C11.873,0.051,11.818,0.016,11.753,0c-0.039-0.002-0.077,0.005-0.11,0.025L11.604,0.05c-0.791,0.44-1.548,0.933-2.275,1.479c-0.726,0.548-1.408,1.148-2.053,1.8C6.634,3.984,6.042,4.691,5.498,5.448c-0.543,0.76-1.04,1.572-1.483,2.436c-0.282,0.525-0.509,1.082-0.682,1.68c-0.173,0.596-0.276,1.212-0.309,1.848c-0.088,1.188,0.072,2.379,0.47,3.502c0.383,1.088,0.97,2.093,1.732,2.963c0.763,0.869,1.69,1.58,2.732,2.095c1.075,0.533,2.251,0.847,3.452,0.918c0.267,0.034,0.535,0.046,0.804,0.037c0.27-0.009,0.536-0.03,0.803-0.062c0.032,0,0.065,0.013,0.086,0.038c0.023,0.021,0.038,0.053,0.038,0.085c-0.066,0.474-0.189,0.925-0.372,1.359C12.586,22.776,12.355,23.189,12.075,23.582z M11.779,15.477c-0.989-0.047-1.801-0.437-2.435-1.162C8.72,13.622,8.411,12.706,8.49,11.78c0.032-0.927,0.459-1.798,1.175-2.4c0.696-0.623,1.623-0.933,2.559-0.855c0.937,0.031,1.817,0.454,2.424,1.162c0.63,0.689,0.943,1.607,0.864,2.535c-0.068,0.962-0.46,1.761-1.187,2.4C13.635,15.246,12.71,15.556,11.779,15.477z"/></svg>