<svg xmlns="http://www.w3.org/2000/svg" enable-background="new 0 0 24 24" viewBox="0 0 24 24"><path fill="#F47B11" d="M18.851,6.798c-0.255-0.319-0.714-0.385-1.049-0.15c-0.021,0.013-0.04,0.028-0.06,0.044c-0.289,0.238-0.33,0.668-0.091,0.957c0,0,1.35,1.799,1.35,4.35s-1.35,4.35-1.35,4.35c-0.016,0.02-0.03,0.039-0.044,0.06c-0.206,0.313-0.119,0.734,0.194,0.941c0.335,0.235,0.794,0.169,1.049-0.15c0.099-0.1,1.651-2.152,1.651-5.202C20.501,8.948,18.951,6.899,18.851,6.798z"/><path fill="#F47B11" d="M16.168 8.625c-.303-.232-.737-.178-.969.125C14.95 9.099 14.95 9.599 15.25 9.9c0 .049.75.799.75 2.1s-.75 2.1-.75 2.1c-.3.3-.351.85-.051 1.15.301.301.75.35 1.051.051C16.301 15.25 17.5 14 17.5 12s-1.199-3.25-1.25-3.301C16.224 8.672 16.197 8.647 16.168 8.625zM8.801 8.75C8.551 8.4 8.051 8.4 7.75 8.699 7.699 8.801 6.5 10 6.5 12s1.199 3.199 1.25 3.301c.301.299.75.25 1.051-.051.3-.351.249-.85-.051-1.15 0 0-.75-.799-.75-2.1s.75-2.051.75-2.1C9.05 9.6 9.101 9.05 8.801 8.75z"/><path fill="#F47B11" d="M6.393,7.591C6.599,7.278,6.512,6.856,6.199,6.65C5.864,6.414,5.405,6.481,5.149,6.8C5.051,6.9,3.5,8.95,3.5,12s1.551,5.1,1.649,5.201c0.256,0.319,0.715,0.384,1.05,0.15C6.5,17.1,6.6,16.65,6.35,16.35c0,0-1.35-1.799-1.35-4.35s1.35-4.35,1.35-4.35C6.365,7.631,6.38,7.611,6.393,7.591z"/><path fill="#F47B11" d="M12,0C5.351,0,0,5.35,0,12v0.061C0.017,18.671,5.389,24.018,12,24c6.649,0,12-5.351,12-12C24,5.35,18.649,0,12,0z M12,22.5c-0.7,0-1.35-0.099-2-0.199l2-2.001l2,2.001C13.35,22.45,12.7,22.5,12,22.5z M12,19.249l-0.9-0.899L12,14.9l0.9,3.45L12,19.249z M13.15,19.199l0.45,1.652L12.55,19.8L13.15,19.199z M11.45,19.848L10.4,20.9l0.45-1.701L11.45,19.848z M15.449,21.899l-2.25-8.35c0.5-0.4,0.801-0.951,0.801-1.6c0-1.101-0.9-2.001-2-2.001s-2,0.9-2,2.001c-0.008,0.632,0.29,1.228,0.801,1.6l-2.25,8.35C4.325,20.446,1.492,16.468,1.5,12C1.5,6.201,6.201,1.5,12,1.5S22.5,6.201,22.5,12C22.509,16.467,19.676,20.446,15.449,21.899z"/></svg>