<svg xmlns="http://www.w3.org/2000/svg" enable-background="new 0 0 24 24" viewBox="0 0 24 24"><path fill="#373737" d="M3.107,22.807c-0.821,0-0.797,1.193,0,1.193c3.82-0.015,7.131-2.587,9.135-6.585c0,0,6.531,4.044,9.258-2.64c-4.403-3.51-8.511,0.978-8.511,0.978c0.436-1.179,0.773-2.45,0.99-3.789c0,0,6.814,1.349,7.022-5.202c-4.513-1.54-6.75,2.811-6.75,2.811c0.024-0.469,0.024-1.555,0-1.633c0,0,3.128-5.837-3.038-7.939c-3.375,4.473,1.885,8.077,1.885,8.077c0,0.039-0.084,1.794-0.164,2.611c0,0-1.657-6.091-7.551-3.75c0.486,5.867,7.398,4.796,7.398,4.796c-0.228,1.408-0.58,2.703-1.069,3.897c-0.95-1.677-3.43-4.42-8.823-2.225c2.128,5.383,5.962,4.796,7.997,4.019C9.069,20.719,6.294,22.792,3.107,22.807z"/></svg>