<svg xmlns="http://www.w3.org/2000/svg" enable-background="new 0 0 24 24" viewBox="0 0 24 24"><path fill="#f44336" d="m23.993 8.625v-.002c-.13-3.329-3.192-8.686-12.073-8.622-9.274.066-11.985 6.276-11.919 9.827.065 3.552 2.383 5.517 2.383 5.517l3.462-2.853s-1.47.126-1.47-2.79c0-4.443 5.324-5.58 8.72-5.517s6.076 2.805 6.123 4.946c.045 2.093-.51 3.42-2.205 4.374-2.025 1.141-4.479.128-4.479.128l.033-7.164-4.578.027-.012 12.653s-.042 1.013-1.224.951c-.848-.043-1.918-.975-1.918-.975l.007 3.765s1.322 1.11 3.412 1.11c4.507 0 4.311-4.407 4.311-4.407v-2.482s.919.444 2.748.444c7.578 0 8.788-6.138 8.679-8.93z"/></svg>