<svg xmlns="http://www.w3.org/2000/svg" enable-background="new 0 0 24 24" viewBox="0 0 24 24"><path fill="#003087" d="M19.148,1.81C18.037,0.543,16.028,0,13.458,0H5.999C5.474,0,5.026,0.382,4.944,0.901L1.84,20.598c-0.055,0.349,0.183,0.677,0.533,0.732c0.033,0.005,0.067,0.008,0.1,0.008h4.605l1.156-7.335l-0.036,0.23c0.081-0.518,0.527-0.9,1.051-0.901h2.188c4.299,0,7.664-1.746,8.647-6.797c0.029-0.149,0.054-0.295,0.076-0.437C20.452,4.231,20.158,2.961,19.148,1.81L19.148,1.81z"/><path fill="#003087" d="M19.148,1.81C18.037,0.543,16.028,0,13.458,0H5.999C5.474,0,5.026,0.382,4.944,0.901L1.84,20.598c-0.055,0.349,0.183,0.677,0.533,0.732c0.033,0.005,0.067,0.008,0.1,0.008h4.605l1.156-7.335l-0.036,0.23c0.081-0.518,0.527-0.9,1.051-0.901h2.188c4.299,0,7.664-1.746,8.647-6.797c0.029-0.149,0.054-0.295,0.076-0.437C20.452,4.231,20.158,2.961,19.148,1.81L19.148,1.81z"/><path fill="#003087" d="M9.475,6.123c0.072-0.454,0.463-0.788,0.922-0.788h5.847c0.692,0,1.338,0.045,1.929,0.139c0.323,0.052,0.642,0.123,0.956,0.214c0.357,0.1,0.702,0.238,1.03,0.41c0.293-1.867-0.001-3.137-1.011-4.289c-1.112-1.266-3.12-1.809-5.69-1.809H5.999c-0.525,0-0.972,0.382-1.054,0.901L1.839,20.597c-0.055,0.349,0.183,0.677,0.532,0.732c0.033,0.005,0.067,0.008,0.1,0.008h4.605l1.156-7.336L9.475,6.123z"/><path fill="#009CDE" d="M20.16,6.098c-0.023,0.146-0.048,0.292-0.076,0.437c-0.983,5.05-4.349,6.797-8.647,6.797H9.247c-0.524,0-0.97,0.383-1.05,0.901l-1.121,7.105l-0.319,2.015c-0.048,0.306,0.16,0.593,0.466,0.641C7.252,23.998,7.282,24,7.311,24h3.882c0.459,0,0.85-0.335,0.922-0.788l0.038-0.198l0.732-4.636l0.046-0.256c0.072-0.454,0.463-0.788,0.923-0.788h0.581c3.76,0,6.704-1.527,7.565-5.946c0.358-1.846,0.173-3.388-0.777-4.47C20.921,6.582,20.561,6.304,20.16,6.098L20.16,6.098z"/><path fill="#012169" d="M19.13,5.688c-0.15-0.044-0.305-0.084-0.464-0.119c-0.159-0.035-0.324-0.066-0.493-0.093c-0.591-0.096-1.236-0.141-1.929-0.141h-5.847c-0.46-0.001-0.851,0.334-0.922,0.789l-1.243,7.88l-0.036,0.229c0.08-0.518,0.526-0.9,1.05-0.901h2.189c4.299,0,7.664-1.746,8.647-6.797c0.029-0.149,0.054-0.294,0.076-0.437c-0.26-0.136-0.53-0.25-0.809-0.341C19.279,5.732,19.205,5.71,19.13,5.688L19.13,5.688z"/></svg>