<svg xmlns="http://www.w3.org/2000/svg" enable-background="new 0 0 24 24" viewBox="0 0 24 24"><path fill="#878EB7" d="M12,18.5c6.626,0,12-2.908,12-6.5c0-3.591-5.374-6.5-12-6.5S0,8.408,0,12C0,15.592,5.374,18.5,12,18.5z"/><path fill="#23282C" d="M5.029 15.642l.326-1.73c1.542 0 2.497.116 3.382-.737.978-.927 1.234-2.576.536-3.403C8.91 9.339 8.325 9.126 7.53 9.126H4.878l-1.226 6.516h.001H5.029zM6.067 10.154c1.425 0 2.393-.158 2.115 1.325v-.001c-.296 1.564-1.342 1.402-2.629 1.402L6.067 10.154zM10.758 13.904l.705-3.731c1.114 0 1.575-.046 1.778.178.21.232.102.487-.476 3.554h1.387c.6-3.171.866-3.843.311-4.368-.529-.502-1.623-.414-2.805-.414l.326-1.73h-1.369L9.39 13.904H10.758zM15.787 15.642l.326-1.73c1.62 0 2.516.096 3.382-.737.978-.927 1.234-2.576.536-3.403-.364-.433-.949-.645-1.744-.645h-2.651l-1.23 6.516H15.787zM16.822 10.154c1.433 0 2.393-.158 2.115 1.325v-.001c-.3 1.588-1.376 1.402-2.629 1.402L16.822 10.154z"/></svg>