<svg xmlns="http://www.w3.org/2000/svg" enable-background="new 0 0 24 24" viewBox="0 0 24 24"><path fill="#229C71" d="M24,17.615C23.994,17.615,23.994,0,23.994,0s-7.648,3.578-9.983,8.952c-1.243,2.871-1.548,6.327-3.802,8.496c-1.548,1.489-3.739,2.047-5.64,3.016C3.326,21.107,1.012,22.633,0.022,24h17.589C21.146,24,24,21.145,24,17.615z"/><path fill="#146A55" d="M0.044,6.386L0,23.958l1.714-3.225c2.71-4.339,4.858-7.339,8.639-11.7C13.781,5.047,18.971,1.549,23.952,0H6.428C2.893,0,0.044,2.856,0.044,6.386z"/></svg>