<svg xmlns="http://www.w3.org/2000/svg" enable-background="new 0 0 24 24" viewBox="0 0 24 24"><path fill="#378A3B" d="M9.299 5.614c-.381 0-.686.08-.921.225v3.643C8.614 9.616 8.919 9.68 9.299 9.68c.937 0 1.698-.911 1.698-2.041C10.998 6.519 10.237 5.614 9.299 5.614zM13.816 11.227v.001c-.381 0-.686.08-.921.225v3.642c.235.134.541.198.921.198.933 0 1.698-.905 1.698-2.025C15.514 12.138 14.749 11.227 13.816 11.227z"/><path fill="#378A3B" d="M24,21.429V2.571C24,1.152,22.848,0,21.429,0H2.571C1.152,0,0,1.152,0,2.571v18.857C0,22.848,1.152,24,2.571,24h18.857C22.848,24,24,22.848,24,21.429z M8.384,11.695v2.711l-2.775,0.541V3.895h2.448c0.562-0.299,1.21-0.471,1.854-0.471c2.197,0,3.975,1.908,3.975,4.264s-1.778,4.264-3.975,4.264C9.353,11.952,8.845,11.86,8.384,11.695z M18.396,13.309c0,2.357-1.779,4.264-3.965,4.264c-0.562,0-1.076-0.08-1.537-0.251v2.711l-2.775,0.54v-8.374c1.05-0.053,2.035-0.525,2.775-1.328c0.488-0.514,0.831-1.12,1.029-1.79c0.171-0.027,0.343-0.038,0.514-0.038c2.181,0,3.959,1.906,3.959,4.264V13.309z"/></svg>