<svg xmlns="http://www.w3.org/2000/svg" enable-background="new 0 0 24 24" viewBox="0 0 24 24"><path fill="#156D66" d="M24,3.5c-3.02,1.97-3.35,3.4-3.61,3.84c-0.25,0.45-0.44,2.22-0.87,3.07c-0.44,0.87-2.04,1.56-2.48,1.84c-0.44,0.29-1.06,1.41-1.57,2.37l-0.24-0.73c0.86-1.46,1.06-1.81,1.06-1.81c0.2-0.35,1.32-2.84,3.24-5.21C21.46,4.53,22.92,3.94,24,3.5z"/><path fill="#156D66" d="M18.13,16.06l-2.02,3.53c-0.09,0.17-0.29,0.26-0.49,0.22c-4.76-0.87-8.51,0.64-11.96,0.69C0.9,20.54,0,19.27,0,19.21c0-0.04,0.02-0.07,0.06-0.07c0,0,1.44,0,3.87-0.56c2.76-5.16,5.22-6.97,7.9-6.97c0,0,2.69,0,3.4,2.28l0.24,0.73c-4.06-0.16-6.28,1.43-9.73,3.44c1.11-0.36,1.63-0.61,1.63-0.61c3.53-1.33,5.22-2.52,10.54-1.81c0.04,0,0.07,0.02,0.11,0.03C18.16,15.75,18.22,15.92,18.13,16.06z"/></svg>