<svg xmlns="http://www.w3.org/2000/svg" enable-background="new 0 0 24 24" viewBox="0 0 24 24"><path d="M0 8.697c3.03.317 5.877 1.571 8.139 3.578 1.086-.331 2.196-.567 3.286-.865v-.006l.001-.001.207-.059c1.538-.452 3.049-.999 4.523-1.63 1.492-.576 2.896-1.359 4.159-2.33 1.345-1.052 2.355-2.46 2.915-4.058.12-.263.211-.54.267-.824-2.024 2.717-10.041 3.001-10.041 3.001l1.89-1.707C9.84 3.812 4.47 5.526 0 8.697zM12.87 21.5l7.049-7.129-7.959 3.344v.001C12.438 18.93 12.746 20.205 12.87 21.5zM24 11.132c-5.101-.232-10.208.408-15.087 1.89 1.024 1.056 1.881 2.257 2.535 3.565 4.042-2.215 9.646-5.044 12.552-5.446V11.132z"/></svg>