<svg xmlns="http://www.w3.org/2000/svg" enable-background="new 0 0 24 24" viewBox="0 0 24 24"><path d="M22.618 9.5h-.3c-.093.023-.195.065-.303.129l-6.181 3.72c-.24.146-.323.31-.263.434.048.101.185.177.454.177l-.004.004h5.739c.017 0 .03.012.03.023v.471c0 .023.017.035.035.035h1.035c.018 0 .036-.01.036-.035v-.463c0-.018.02-.035.04-.035h1.028c.024 0 .036-.017.036-.035v-.472c0-.017-.01-.035-.035-.035h-1.03c-.02 0-.037-.017-.037-.034V10.01C22.898 9.734 22.794 9.559 22.618 9.5zM21.796 13.39c0 .018-.015.035-.033.035h-4.817c-.04 0-.06-.012-.065-.023-.006-.023.005-.041.036-.058l4.789-2.888c.03-.023.09-.018.09.047V13.39zM12.376 9.5c-.792.097-1.18.637-1.18 1.323v2.326c0 .471-.233.811-.71.811H7.333c-.018 0-.036.012-.036.035v.463c0 .02.01.034.023.039h3.583c.933-.024 1.393-.604 1.393-1.351l.006.004v-2.327c0-.475.227-.814.712-.814h2.989c.017 0 .035-.017.035-.035V9.512c0-.004 0-.008-.003-.012H12.376zM6.365 9.504H.006C.006 9.507 0 9.509 0 9.514v.463C0 10 .013 10.012.037 10.012h5.697c.484 0 .712.341.712.813s-.227.815-.712.815H1.227c-.7 0-1.226.577-1.226 1.338v1.481c0 .019.01.035.028.039L.025 14.5h1.05C1.088 14.495 1.1 14.48 1.1 14.461V12.98c0-.476.275-.803.676-.803h4.323c.974 0 1.446-.585 1.446-1.349C7.544 10.139 7.157 9.601 6.365 9.504z"/></svg>