<svg xmlns="http://www.w3.org/2000/svg" enable-background="new 0 0 24 24" viewBox="0 0 24 24"><circle cx="21.953" cy="14.917" r=".002"/><path fill="#32648D" d="M18.991,14.727l0.002,0.002v0.001l-0.003,0.001c-0.145,0.053-0.265,0.075-0.366,0.12c-0.103,0.041-0.186,0.116-0.235,0.212l-0.001,0.002c-0.062,0.115-0.116,0.319-0.1,0.666c0.041,0.03,0.091,0.053,0.142,0.069l0.004,0.001c0.169,0.052,0.452,0.086,0.768,0.081c0.63-0.007,1.406-0.156,1.818-0.35c0.355-0.169,0.659-0.373,0.93-0.615c-1.376,0.288-2.153,0.211-2.63,0.012C19.196,14.875,19.087,14.808,18.991,14.727z"/><polygon fill="#32648D" points="17.58 4.151 17.586 4.16 17.593 4.168"/><path fill="#32648D" d="M12.317 19.299c-.001-.025 0-.051-.001-.076 0-.01-.001-.017-.001-.027L12.317 19.299zM11.262 14.886c-.058-.029-.126-.05-.199-.06H11.06v-.002h-.021c-.052.005-.128.023-.276.188-.344.39-.464.635-.748.864-.284.228-.652.35-1.388.503-.233.048-.367.101-.455.144.029.024.026.03.069.053.108.06.246.113.358.142.316.08.836.173 1.378.08.542-.094 1.106-.357 1.587-1.04.083-.118.092-.292.024-.479C11.52 15.092 11.368 14.931 11.262 14.886zM15.3 1.502l-.057.011c.019-.004.04-.006.059-.01C15.301 1.503 15.301 1.502 15.3 1.502zM18.082 6.9c-.671.009-1.047.184-1.245.413-.28.325-.306.895-.132 1.597.173.703.53 1.489.866 2.142.168.327.331.621.462.86.132.24.229.41.288.555.054.134.115.252.176.362.26-.555.306-1.1.28-1.668-.034-.703-.196-1.422-.172-2.15.027-.851.193-1.405.207-2.063C18.593 6.918 18.339 6.9 18.082 6.9zM18.206 7.406l-.001.008c0 .003 0 .006 0 .01 0 .046-.013.09-.036.126l.001-.001c-.031.057-.067.107-.109.15-.098.109-.229.185-.377.211L17.68 7.911c-.021.003-.045.004-.07.004-.126 0-.242-.04-.337-.108l.002.001c-.049-.034-.092-.073-.127-.117L17.147 7.69c-.031-.034-.053-.078-.062-.125V7.563c0-.005-.001-.01-.001-.015 0-.043.016-.083.043-.113.032-.037.07-.067.114-.089l.002-.001c.095-.054.223-.094.368-.116.054-.008.108-.012.158-.013v.003h.049c.065.002.125.009.178.022.053.012.099.03.136.055C18.169 7.321 18.197 7.359 18.206 7.406L18.206 7.406zM7.077 11.307c0-.18.014-.356.04-.529l-.002.019c.102-.739.116-1.43.104-1.976C7.207 8.289 7.169 7.935 7.169 7.714c0-.003 0-.006 0-.009 0-.003 0-.007 0-.01V7.69L7.168 7.684V7.683c0-.002 0-.003 0-.005 0-1.184.208-2.319.585-3.372C8.03 3.562 8.442 2.807 9.059 2.195 8.452 1.993 7.376 1.685 6.21 1.627c-.112-.006-.243-.01-.374-.01H5.835v.001c-.125 0-.251.004-.375.011C4.462 1.687 3.518 1.98 2.844 2.704 2.168 3.428 1.723 4.615 1.82 6.58c.019.372.179 1.414.453 2.652.275 1.238.662 2.695 1.128 3.982.467 1.287 1.033 2.407 1.571 2.937.271.265.506.372.719.363.214-.01.472-.135.787-.518.619-.754 1.204-1.421 1.808-2.069l-.02.021C7.536 13.303 7.077 12.36 7.077 11.307z"/><path fill="#32648D" d="M12.396 1.568V1.566c-1.168.003-2.005.36-2.641.895C9.1 3.014 8.661 3.771 8.372 4.546c-.343.92-.46 1.81-.507 2.414l.013-.008c.353-.2.816-.4 1.312-.516.496-.116 1.03-.151 1.514.039.484.19.884.637 1.029 1.315.695 3.257-.216 4.468-.552 5.382-.107.263-.218.601-.311.946l-.016.067c.042-.01.085-.022.127-.026.237-.02.423.06.533.108.338.142.57.44.695.78.033.089.056.185.07.284.013.034.02.074.02.115 0 .004 0 .008 0 .012-.016.5-.026 1.087-.026 1.677 0 .699.014 1.395.04 2.088.023.526.056.992.097 1.359.043.374.103.657.141.753.126.32.311.739.645 1.024.334.284.813.474 1.688.284.759-.165 1.227-.394 1.54-.723.313-.329.499-.787.618-1.488.179-1.05.538-4.095.582-4.668-.02-.432.043-.764.18-1.017.14-.26.358-.419.545-.505.094-.043.182-.072.254-.093-.088-.127-.167-.233-.249-.336l.009.011c-.259-.316-.48-.679-.647-1.07l-.011-.029c-.101-.209-.186-.367-.275-.522l.021.039c-.131-.24-.297-.54-.471-.877-.348-.675-.726-1.493-.923-2.29-.196-.796-.224-1.62.278-2.201.444-.516 1.225-.73 2.396-.61-.034-.105-.055-.192-.114-.332-.285-.67-.628-1.248-1.035-1.772-.993-1.282-2.598-2.551-5.076-2.592H12.396zM11.622 16.666c0 .012 0 .023 0 .035l0 0V16.666z"/><polygon fill="#32648D" points="7.851 7.77 7.853 7.769 7.856 7.766"/><polygon fill="#32648D" points="9.321 7.093 9.331 7.092 9.339 7.089"/><polygon fill="#32648D" points="10.047 7.391 10.045 7.391 10.045 7.391"/><path fill="#32648D" d="M10.56,12.937c0.401-1.094,1.19-1.892,0.526-5.006c-0.109-0.51-0.324-0.716-0.62-0.832c-0.144-0.053-0.311-0.084-0.486-0.084c-0.011,0-0.023,0-0.034,0l0.002,0C9.735,7.017,9.529,7.044,9.331,7.092C8.911,7.198,8.541,7.348,8.197,7.54c-0.129,0.071-0.24,0.145-0.344,0.228L7.834,7.786c0.006,0.146,0.034,0.5,0.046,1.021c0.012,0.57-0.002,1.297-0.111,2.084c-0.236,1.71,0.99,3.126,2.43,3.128C10.284,13.668,10.422,13.312,10.56,12.937z M9.709,7.968L9.709,7.968C9.662,7.92,9.624,7.866,9.593,7.807L9.591,7.803C9.565,7.761,9.55,7.71,9.55,7.655c0-0.01,0.001-0.02,0.002-0.03v0.001C9.567,7.518,9.655,7.462,9.74,7.431C9.819,7.405,9.907,7.39,10.001,7.39c0.014,0,0.028,0,0.044,0.001l-0.001-0.004c0.052,0,0.108,0.005,0.164,0.013c0.151,0.021,0.286,0.062,0.388,0.122c0.051,0.028,0.095,0.063,0.13,0.105l0.001,0.001c0.034,0.039,0.054,0.09,0.054,0.147c0,0.008,0,0.016-0.001,0.024V7.798c-0.01,0.06-0.037,0.112-0.074,0.154c-0.041,0.05-0.087,0.093-0.139,0.129l-0.002,0.001C10.464,8.156,10.337,8.2,10.2,8.2c-0.027,0-0.054-0.002-0.08-0.005h0.003C9.957,8.167,9.815,8.085,9.709,7.968z"/><path fill="#32648D" d="M8.177 7.55c.007-.004.014-.006.02-.01C8.198 7.54 8.199 7.539 8.2 7.538L8.177 7.55zM18.115 3.752c.433.555.808 1.187 1.097 1.865l.021.055c.109.264.182.487.223.66.021.087.035.16.04.236.002.038.004.077-.012.144 0 .003-.005.01-.006.013.03.876-.185 1.47-.21 2.306-.02.606.133 1.318.171 2.095.036.73-.051 1.532-.52 2.319.04.048.075.096.113.144 1.239-1.975 2.132-4.16 2.608-6.023.255-1.003.39-1.912.402-2.632.01-.72-.123-1.242-.291-1.46-1.326-1.716-3.119-2.153-4.623-2.165V1.31h-.144c-.58.009-1.14.076-1.681.193C16.531 2.055 17.461 2.905 18.115 3.752z"/><path d="M12.561,0.258h-0.01C11.387,0.238,10.388,0.524,9.581,1C8.787,0.721,7.14,0.24,5.403,0.336C4.194,0.403,2.874,0.775,1.896,1.82C0.921,2.865,0.406,4.482,0.514,6.682c0.03,0.607,0.201,1.597,0.484,2.879c0.284,1.282,0.682,2.783,1.179,4.152c0.497,1.37,1.041,2.6,1.892,3.436c0.425,0.419,1.01,0.771,1.699,0.742c0.484-0.02,0.921-0.235,1.299-0.552c0.184,0.245,0.38,0.352,0.559,0.451C7.851,17.915,8.07,18,8.297,18.056c0.408,0.103,1.106,0.241,1.924,0.1c0.279-0.047,0.572-0.139,0.864-0.27c0.011,0.33,0.024,0.653,0.036,0.98c0.041,1.036,0.066,1.993,0.373,2.832c0.049,0.137,0.185,0.843,0.718,1.466c0.533,0.624,1.579,1.013,2.769,0.755c0.84-0.182,1.907-0.51,2.617-1.532c0.701-1.01,1.017-2.459,1.08-4.809c0.016-0.127,0.035-0.235,0.054-0.336l0.167,0.015h0.02c0.896,0.041,1.868-0.088,2.68-0.47c0.719-0.337,1.263-0.678,1.66-1.283c0.099-0.15,0.207-0.331,0.237-0.643c0.03-0.312-0.147-0.8-0.441-1.025c-0.588-0.452-0.957-0.28-1.353-0.197c-0.353,0.083-0.761,0.135-1.179,0.146h-0.008c1.142-1.947,1.961-4.015,2.428-5.845c0.277-1.08,0.432-2.076,0.444-2.947c0.013-0.871-0.057-1.642-0.573-2.309c-1.611-2.084-3.876-2.66-5.629-2.68c-0.054-0.001-0.109-0.002-0.163-0.001V0c-0.954,0.008-1.872,0.152-2.741,0.409L14.24,0.423C13.738,0.329,13.155,0.269,12.561,0.258z M14.93,0.895c0.612-0.151,1.316-0.242,2.04-0.251h0.006l0.001-0.004c1.658-0.016,3.775,0.455,5.296,2.422c0.342,0.442,0.444,1.088,0.432,1.884c-0.013,0.795-0.158,1.747-0.424,2.79c-0.516,2.02-1.49,4.375-2.862,6.488c0.045,0.033,0.097,0.062,0.151,0.084l0.005,0.002c0.286,0.12,0.939,0.223,2.242-0.048c0.328-0.07,0.568-0.117,0.817,0.075c0.112,0.096,0.182,0.238,0.182,0.397c0,0.01,0,0.02-0.001,0.03v-0.001c-0.015,0.127-0.06,0.241-0.129,0.336c-0.252,0.383-0.749,0.746-1.385,1.045c-0.564,0.266-1.373,0.405-2.09,0.413c-0.36,0.004-0.691-0.024-0.973-0.113l-0.018-0.007c-0.109,1.06-0.359,3.153-0.522,4.108c-0.13,0.77-0.358,1.382-0.794,1.84c-0.435,0.458-1.05,0.734-1.878,0.914c-1.025,0.223-1.773-0.017-2.255-0.428c-0.481-0.41-0.701-0.954-0.834-1.287c-0.091-0.23-0.138-0.528-0.184-0.926s-0.079-0.885-0.102-1.434c-0.022-0.558-0.034-1.214-0.034-1.873c0-0.217,0.002-0.433,0.004-0.65c-0.413,0.384-0.935,0.654-1.515,0.757l-0.018,0.003c-0.681,0.117-1.288,0.002-1.651-0.09c-0.193-0.049-0.361-0.118-0.519-0.204c-0.166-0.09-0.324-0.193-0.43-0.394c-0.042-0.077-0.067-0.17-0.067-0.268c0-0.039,0.004-0.078,0.012-0.114c0.036-0.134,0.111-0.248,0.214-0.328l0.001-0.001c0.196-0.161,0.454-0.251,0.845-0.333c0.71-0.148,0.958-0.249,1.109-0.37c0.128-0.104,0.274-0.314,0.53-0.622c-0.001-0.009-0.002-0.024-0.003-0.038v-0.003c-0.484-0.014-0.935-0.145-1.329-0.366l0.015,0.008c-0.148,0.158-0.905,0.968-1.827,2.092c-0.388,0.47-0.817,0.74-1.269,0.759s-0.861-0.211-1.209-0.552c-0.695-0.683-1.249-1.858-1.732-3.186c-0.482-1.328-0.874-2.807-1.153-4.067c-0.28-1.26-0.444-2.276-0.468-2.766c-0.104-2.082,0.377-3.485,1.202-4.37c0.826-0.885,1.958-1.22,3.061-1.284c1.981-0.115,3.861,0.584,4.242,0.734C10.396,1.194,11.341,0.88,12.52,0.9c0.594,0.009,1.165,0.088,1.711,0.229l-0.05-0.011l0.02-0.009c0.191-0.072,0.435-0.145,0.685-0.205L14.93,0.895z"/></svg>