<svg xmlns="http://www.w3.org/2000/svg" enable-background="new 0 0 24 24" viewBox="0 0 24 24"><path d="M14.231,0.421c0.017-0.005,0.035-0.007,0.051-0.011l0.02-0.006L14.231,0.421z"/><path fill="#F6BA55" d="M14.609,22.226c-0.939,0.73-2.4,1.357-3.862,1.774h0.001h7.513C21.391,24,24,21.392,24,18.261c0,0-0.209-5.531-2.4-8.139c-0.104-0.209-0.313-0.313-0.521-0.522v7.722c0,0.003,0,0.006,0,0.01c0,2.127-1.725,3.852-3.852,3.852c-0.004,0-0.007,0-0.011,0h-1.668C15.235,21.601,14.922,21.914,14.609,22.226z"/><path fill="#E35B46" d="M7.83,6.954L7.827,6.992c0.21-0.209,0.522-0.209,0.835-0.209h6.783c0.104,0,2.607,0,4.797,1.043V6.782c0-0.001,0-0.003,0-0.005c0-1.611-1.306-2.916-2.916-2.916c-0.002,0-0.004,0-0.005,0H8.869C8.331,4.76,7.961,5.821,7.83,6.954z"/><polygon points="20.244 7.826 20.242 7.825 20.242 7.826"/><path fill="#E35B46" d="M24,5.739C24,2.608,21.392,0,18.261,0c0,0-5.53,0.208-8.14,2.399c-0.223,0.12-0.401,0.299-0.518,0.515L9.6,2.921h7.722c0.003,0,0.006,0,0.009,0c2.127,0,3.852,1.725,3.852,3.852c0,0.003,0,0.006,0,0.009v1.67c0.417,0.313,0.73,0.626,1.044,0.939c0.73,0.938,1.357,2.399,1.774,3.861V5.739z"/><path fill="#BF67C8" d="M0,5.739c0,0,0.209,5.531,2.4,8.139c0.104,0.209,0.313,0.313,0.521,0.522V6.678c0-0.003,0-0.006,0-0.01c0-2.127,1.725-3.852,3.852-3.852c0.004,0,0.007,0,0.011,0h1.668c0.313-0.417,0.626-0.73,0.939-1.043c0.939-0.73,2.4-1.357,3.862-1.774h-0.001H5.739C2.608,0,0,2.608,0,5.739z"/><path fill="#F6BA55" d="M16.173,20.243v0.001h1.043c0.001,0,0.003,0,0.005,0c1.611,0,2.916-1.306,2.916-2.916c0-0.002,0-0.004,0-0.005V8.868c-0.899-0.538-1.961-0.91-3.094-1.041l-0.037-0.003c0.21,0.209,0.21,0.521,0.21,0.834v6.783C17.217,15.547,17.217,18.051,16.173,20.243z"/><path fill="#659BEB" d="M3.756,16.174v1.043c0,0.001,0,0.003,0,0.005c0,1.611,1.306,2.916,2.916,2.916c0.002,0,0.004,0,0.005,0h8.452c0.538-0.899,0.908-1.96,1.04-3.093l0.003-0.037c-0.208,0.209-0.521,0.209-0.834,0.209H8.557c-0.104,0-2.608,0-4.799-1.043H3.756z"/><path fill="#BF67C8" d="M6.781,3.861c-0.001,0-0.003,0-0.005,0c-1.611,0-2.916,1.306-2.916,2.916c0,0.002,0,0.004,0,0.005v8.557c0.9,0.538,1.961,0.909,3.094,1.041l0.037,0.003c-0.125-0.243-0.202-0.529-0.21-0.832v-0.003V8.66C6.677,8.556,6.677,6.052,7.826,3.861H6.781z"/><path fill="#659BEB" d="M2.921,15.548c-0.417-0.313-0.73-0.626-1.043-0.939C1.043,13.67,0.417,12.209,0,10.748v7.513C0,21.392,2.608,24,5.739,24c0,0,5.53-0.208,8.14-2.399c0.208-0.105,0.313-0.313,0.521-0.522H6.782c-0.003,0-0.006,0-0.009,0c-2.127,0-3.852-1.725-3.852-3.852c0-0.003,0-0.006,0-0.009V15.548z"/></svg>