<svg xmlns="http://www.w3.org/2000/svg" enable-background="new 0 0 24 24" viewBox="0 0 24 24"><path fill="#27B0D8" d="M24,8.46v13.08C24,22.9,22.9,24,21.54,24H2.46C1.1,24,0,22.9,0,21.54V8.46C0,7.1,1.1,6,2.46,6h8.37l0.63-2.59h-0.01c-0.03-0.01-0.05-0.02-0.08-0.03c-0.08-0.03-0.15-0.06-0.22-0.11c-0.06-0.03-0.12-0.07-0.18-0.11c-0.07-0.05-0.14-0.1-0.2-0.17c-0.12-0.12-0.22-0.26-0.3-0.41c-0.02-0.02-0.03-0.04-0.03-0.06c-0.03-0.06-0.06-0.13-0.09-0.21c-0.01-0.01-0.01-0.01,0-0.02c-0.03-0.08-0.05-0.16-0.07-0.25c-0.01-0.02-0.01-0.04,0-0.06c-0.01-0.07-0.02-0.15-0.02-0.23c0-0.49,0.2-0.92,0.51-1.24C11.09,0.19,11.52,0,12,0s0.91,0.19,1.23,0.51c0.31,0.32,0.51,0.75,0.51,1.24c0,0.07,0,0.15-0.02,0.22c0,0.13-0.03,0.25-0.08,0.37c-0.03,0.08-0.06,0.15-0.1,0.22c-0.04,0.08-0.09,0.16-0.14,0.23C13.35,2.86,13.29,2.93,13.22,3c-0.09,0.1-0.2,0.18-0.31,0.24c-0.06,0.04-0.13,0.08-0.2,0.1c-0.02,0.02-0.04,0.03-0.06,0.03c-0.04,0.02-0.08,0.04-0.12,0.05L13.14,6h8.4C22.9,6,24,7.1,24,8.46z"/><path fill="#AEDFE4" d="M13.75 1.75c0 .08 0 .15-.03.22 0 .13-.03.25-.08.37-.03.08-.06.15-.1.22-.04.08-.09.16-.14.23C13.35 2.86 13.29 2.93 13.22 3c-.09.1-.2.18-.31.24-.06.04-.13.08-.2.1-.02.02-.04.03-.06.03-.04.02-.08.04-.12.05L13.14 6h-2.31l.63-2.59h-.01c-.03-.01-.05-.02-.08-.03-.08-.03-.15-.06-.22-.11-.06-.03-.12-.07-.18-.11-.07-.05-.14-.1-.2-.17-.12-.11-.23-.26-.3-.41-.02-.02-.03-.04-.03-.06-.03-.06-.06-.13-.09-.21-.01-.01-.01-.01 0-.02-.03-.08-.05-.16-.07-.25-.01-.02-.01-.04 0-.06-.02-.07-.03-.15-.03-.23 0-.49.2-.93.52-1.24C11.09.19 11.52 0 12 0s.91.19 1.23.51C13.55.82 13.75 1.26 13.75 1.75zM22.063 20.018c0 1.105-.893 2.001-1.994 2.001H3.933c-1.101 0-1.994-.896-1.994-2.001V9.867c0-1.105.893-2 1.994-2h16.136c1.101 0 1.994.896 1.994 2V20.018z"/><path fill="#EF4136" d="M14.056,21.616H9.984c-0.598,0-1.083-0.485-1.083-1.083v0c0-0.598,0.485-1.083,1.083-1.083h4.072c0.598,0,1.083,0.485,1.083,1.083v0C15.139,21.131,14.654,21.616,14.056,21.616z"/><ellipse cx="16.93" cy="14.777" fill="#27B0D8" rx="4.575" ry="4.59"/><path fill="#F1F1F2" d="M16.989,18.295c-0.021,0-0.042,0-0.062-0.001h0.003c-1.911-0.033-3.447-1.595-3.447-3.518s1.536-3.484,3.444-3.517h0.003c0.018,0,0.038,0,0.059,0c1.936,0,3.506,1.575,3.506,3.518S18.925,18.295,16.989,18.295z"/><ellipse cx="7.187" cy="14.777" fill="#27B0D8" rx="4.575" ry="4.59"/><path fill="#F1F1F2" d="M7.246,18.295c-0.021,0-0.042,0-0.062-0.001h0.003c-1.911-0.033-3.447-1.595-3.447-3.518s1.536-3.484,3.444-3.517h0.003c0.018,0,0.038,0,0.059,0c1.936,0,3.506,1.575,3.506,3.518S9.182,18.295,7.246,18.295z"/><rect width=".706" height="2.166" x="13.233" y="19.45" fill="#FCBA62"/><ellipse cx="7.187" cy="14.778" rx="1.843" ry="1.849"/><rect width=".706" height="2.166" x="10.003" y="19.45" fill="#FCBA62"/><rect width=".705" height="2.166" x="11.08" y="19.45" fill="#FCBA62"/><path fill="#FCBA62" d="M8.901 20.533v.001c0 .475.306.879.731 1.024v-2.05C9.203 19.658 8.901 20.06 8.901 20.533zM14.31 19.48v2.107c.479-.117.828-.544.829-1.052v-.001C15.139 20.022 14.785 19.594 14.31 19.48z"/><rect width=".706" height="2.166" x="12.156" y="19.45" fill="#FCBA62"/><ellipse cx="16.93" cy="14.778" rx="1.843" ry="1.849"/><path fill="#EF4136" d="M13.75,1.75c0,0.08,0,0.15-0.03,0.22c0,0.13-0.03,0.25-0.08,0.37c-0.03,0.08-0.06,0.15-0.1,0.22c-0.04,0.08-0.09,0.16-0.14,0.23C13.35,2.86,13.29,2.93,13.22,3c-0.09,0.1-0.2,0.18-0.31,0.24c-0.06,0.04-0.13,0.08-0.2,0.1c-0.02,0.02-0.04,0.03-0.06,0.03C12.45,3.46,12.23,3.5,12,3.5c-0.22,0-0.44-0.04-0.63-0.12c-0.08-0.03-0.15-0.06-0.22-0.11c-0.06-0.03-0.12-0.07-0.18-0.11c-0.07-0.05-0.14-0.1-0.2-0.17c-0.12-0.11-0.23-0.26-0.3-0.41c-0.02-0.02-0.03-0.04-0.03-0.06c-0.03-0.06-0.06-0.13-0.09-0.21c-0.01-0.01-0.01-0.01,0-0.02c-0.03-0.08-0.05-0.16-0.07-0.25c-0.01-0.02-0.01-0.04,0-0.06c-0.02-0.07-0.03-0.15-0.03-0.23c0-0.49,0.2-0.93,0.52-1.24C11.09,0.19,11.52,0,12,0s0.91,0.19,1.23,0.51C13.55,0.82,13.75,1.26,13.75,1.75z"/></svg>