<svg xmlns="http://www.w3.org/2000/svg" enable-background="new 0 0 24 24" viewBox="0 0 24 24"><path fill="#2AA2BC" d="M12,0C5.373,0,0,5.373,0,12s5.373,12,12,12s12-5.373,12-12S18.627,0,12,0z M12,22C6.477,22,2,17.523,2,12S6.477,2,12,2s10,4.477,10,10S17.523,22,12,22z"/><path fill="#2AA2BC" d="M14.914,11.939l0.002,0.037c0-2.828-1.109-5.397-2.916-7.298c-1.807,1.9-2.916,4.47-2.916,7.298c0,1.297,0.234,2.535,0.66,3.683c-0.618,0.9-1.074,2.16-1.275,3.616c0.639-0.767,1.422-1.306,2.292-1.591c0.363,0.555,0.78,1.096,1.239,1.574c0.461-0.494,0.876-1.02,1.239-1.59c0.87,0.271,1.653,0.826,2.29,1.576c-0.199-1.456-0.655-2.716-1.275-3.615C14.681,14.474,14.914,13.244,14.914,11.939z M12,11.997c-0.728,0-1.316-0.59-1.316-1.317c0-0.727,0.588-1.317,1.316-1.317s1.316,0.589,1.316,1.316S12.728,11.997,12,11.997z"/></svg>