<svg xmlns="http://www.w3.org/2000/svg" enable-background="new 0 0 24 24" viewBox="0 0 24 24"><path fill="#F44336" d="M17.516,20.01c2.992-1.903,4.984-5.313,4.984-9.199C22.5,4.842,17.798,0,12,0C6.2,0,1.5,4.842,1.5,10.812c0,5.973,4.7,10.812,10.5,10.812c0.853,0,1.68-0.107,2.475-0.305c0.995,1.841,2.516,3.145,5.738,2.523v-1.835C20.213,22.008,18.147,21.48,17.516,20.01L17.516,20.01z M17.443,12.243c0,1.805-0.567,3.444-1.486,4.653c-1.153-1.249-2.962-2.274-5.257-2.144v2.125c0,0,1.558,0.063,2.622,1.923c-0.4,0.12-0.813,0.184-1.243,0.184c-2.962,0-5.361-3.019-5.361-6.744V9.458c0-3.726,2.4-6.745,5.361-6.745c2.962,0,5.364,3.02,5.364,6.745L17.443,12.243z"/></svg>