<svg xmlns="http://www.w3.org/2000/svg" enable-background="new 0 0 24 24" viewBox="0 0 24 24"><polygon points="23.982 9.666 23.982 9.667 23.983 9.668"/><path fill="#F7D542" d="M7.622,17.413c-0.678-0.071-1.17-0.144-1.243-0.439c-0.053-0.216,0.054-0.461,0.545-0.833c-0.608,0.441-1.125,0.816-1.586,1.15c-0.354,2.163-0.911,5.569-0.932,5.711c-0.031,0.209,0.075,0.37,0.159,0.431c0.083,0.062,0.233,0.106,0.421,0.013s6.813-3.27,6.813-3.27s0.098-0.044,0.201-0.061c0.103-0.017,0.201,0.061,0.201,0.061s6.624,3.177,6.813,3.27c0.188,0.094,0.338,0.049,0.421-0.013c0.101-0.085,0.165-0.214,0.165-0.356c0-0.027-0.002-0.053-0.007-0.078v0.003c-0.021-0.14-0.93-5.693-0.93-5.693c0.876-0.542,1.425-1.042,1.849-1.752c-2.594,0.972-6.007,1.722-9.417,1.871C10.181,17.469,8.686,17.526,7.622,17.413z"/><path fill="#F7D542" d="M23.986,9.191c-0.033-0.099-0.127-0.221-0.332-0.256c-0.207-0.036-7.352-1.41-7.352-1.41s-0.105-0.022-0.198-0.07c-0.092-0.047-0.127-0.167-0.127-0.167s-3.529-6.362-3.627-6.549C12.251,0.551,12.105,0.5,12.001,0.5s-0.251,0.051-0.349,0.239c-0.098,0.187-3.627,6.549-3.627,6.549S7.99,7.408,7.897,7.455C7.805,7.502,7.7,7.525,7.7,7.525S0.555,8.899,0.347,8.934C0.139,8.97,0.045,9.095,0.014,9.193C0.005,9.227,0,9.266,0,9.306c0,0.131,0.053,0.251,0.139,0.337l5.363,5.505c0,0,0.072,0.08,0.119,0.173c0.016,0.104,0.005,0.211,0.005,0.211s-0.115,0.704-0.275,1.68l4.435-3.231c1.285-0.971,3.56-2.477,3.56-2.739c0-0.286-2.144-0.783-4.038-0.783c-1.945,0-2.275,0.132-2.811,0.169c-0.488,0.034-0.769,0.005-0.804-0.138c-0.06-0.249,0.183-0.39,0.588-0.569c0.709-0.315,1.86-0.596,1.984-0.628c0.194-0.052,3.083-0.807,5.619-0.537c1.318,0.141,3.245,0.67,3.245,1.28c0,0.343-1.721,1.498-3.226,2.604c-1.149,0.845-2.217,1.565-2.217,1.693c0,0.343,3.534,1.244,6.69,1.013l0.003-0.022c0.048-0.092,0.119-0.172,0.119-0.172l5.363-5.505C23.947,9.558,24,9.437,24,9.305C24,9.266,23.995,9.228,23.986,9.191z"/><polygon points="23.984 9.67 23.983 9.668 23.983 9.669"/></svg>