<svg xmlns="http://www.w3.org/2000/svg" enable-background="new 0 0 24 24" viewBox="0 0 24 24"><linearGradient id="a" x1="-267.89" x2="-267.885" y1="-308.278" y2="-308.284" gradientTransform="matrix(2500 0 0 -1643.5742 669732 -506670.469)" gradientUnits="userSpaceOnUse"><stop offset="0" stop-color="#c9cbce"/><stop offset="1" stop-color="#7b7a81"/></linearGradient><path fill="url(#a)" d="M14,16.956c-5,0-9.249-2.504-9.249-5.504S8.5,5.956,13.5,5.956c6.315,0,9.241,2.429,9.241,5.429S19.515,16.956,14,16.956L14,16.956z M12,2.956c-6.5,0-12,3.5-12,8c0,4.25,5.467,7.778,11.967,7.778c6.5,0,12.033-3.278,12.033-7.778S18.5,2.956,12,2.956L12,2.956z"/><path fill="#2165B6" d="M9.932,7.815v13.229h3.998v-5.145c0.999,0,1.595-0.218,2.249,0.98c0.999,1.715,2.249,4.165,2.249,4.165h4.747c0,0-2.998-4.9-3.248-5.145c-0.461-0.49-0.999-0.49-1.749-0.735c1.499-0.245,2.897-0.867,3.383-2.2c0.425-1.225,0.375-2.783-0.536-3.828c-0.789-0.827-1.598-1.322-3.597-1.322L9.932,7.815L9.932,7.815z M13.93,10.57h2.623c0.622,0,1.124,0.612,1.124,1.225c0,0.612-0.5,1.225-1.124,1.225H13.93V10.57L13.93,10.57z"/></svg>