<svg xmlns="http://www.w3.org/2000/svg" enable-background="new 0 0 24 24" viewBox="0 0 24 24"><circle cx="12" cy="11.999" r="2.147" fill="#53C1DE"/><path fill="#53C1DE" d="M4.514,15.801c0.211,0.07,0.422,0.141,0.638,0.202c-0.07,0.281-0.131,0.558-0.188,0.844c-0.492,2.602-0.108,4.664,1.12,5.372c1.266,0.731,3.394-0.019,5.466-1.833c0.164-0.145,0.328-0.295,0.492-0.455c0.206,0.202,0.422,0.394,0.637,0.581c2.006,1.725,3.989,2.423,5.213,1.716c1.266-0.731,1.678-2.948,1.144-5.648c-0.042-0.206-0.089-0.417-0.141-0.633c0.15-0.042,0.295-0.089,0.441-0.136C22.041,14.916,24,13.467,24,11.981c0-1.42-1.847-2.798-4.397-3.675V8.305c-0.253-0.084-0.506-0.164-0.759-0.239c0.042-0.173,0.08-0.347,0.117-0.52c0.577-2.794,0.197-5.038-1.083-5.779c-1.233-0.708-3.244,0.028-5.278,1.8c-0.202,0.173-0.398,0.356-0.586,0.539c-0.127-0.122-0.258-0.244-0.389-0.361C9.492,1.851,7.355,1.054,6.075,1.8C4.847,2.513,4.481,4.627,4.997,7.269c0.052,0.263,0.108,0.52,0.173,0.783C4.87,8.136,4.575,8.23,4.298,8.329C1.795,9.196,0,10.565,0,11.981C0,13.444,1.912,14.91,4.514,15.801z M10.889,19.62c-0.773,0.708-1.669,1.27-2.644,1.655c-0.52,0.248-1.12,0.272-1.655,0.061c-0.745-0.431-1.055-2.086-0.633-4.313c0.052-0.262,0.108-0.525,0.173-0.783c1.05,0.225,2.109,0.38,3.183,0.459c0.619,0.877,1.298,1.716,2.025,2.503c-0.15,0.145-0.3,0.286-0.45,0.417L10.889,19.62z M16.842,10.818c-0.22-0.413-0.445-0.825-0.68-1.228c-0.23-0.398-0.469-0.792-0.717-1.181c0.755,0.094,1.477,0.22,2.152,0.375C17.381,9.478,17.128,10.153,16.842,10.818z M16.851,13.152c0.3,0.68,0.563,1.369,0.792,2.077c-0.727,0.164-1.462,0.291-2.203,0.375c0.253-0.394,0.492-0.797,0.727-1.2C16.406,13.991,16.631,13.574,16.851,13.152z M16.309,11.986c-0.314,0.647-0.652,1.284-1.012,1.912c-0.356,0.623-0.736,1.228-1.134,1.828c-0.698,0.052-1.425,0.075-2.161,0.075c-0.736,0-1.448-0.023-2.137-0.066c-0.408-0.595-0.792-1.205-1.153-1.828c-0.361-0.623-0.694-1.256-1.008-1.903H7.702c0.309-0.647,0.647-1.28,1.003-1.903c0.356-0.623,0.741-1.228,1.144-1.823c0.703-0.052,1.42-0.08,2.152-0.08s1.453,0.028,2.152,0.08c0.398,0.591,0.778,1.195,1.139,1.814C15.653,10.711,15.99,11.344,16.309,11.986z M7.832,9.599c-0.23,0.398-0.455,0.805-0.666,1.218c-0.295-0.698-0.544-1.382-0.75-2.043c0.675-0.15,1.392-0.272,2.137-0.366C8.306,8.797,8.062,9.195,7.832,9.599z M7.167,13.189L7.167,13.189c0.216,0.413,0.436,0.821,0.67,1.224c0.239,0.408,0.483,0.816,0.741,1.214c-0.731-0.08-1.458-0.197-2.175-0.352C6.609,14.6,6.867,13.902,7.167,13.189z M12.038,18.48L12.038,18.48c-0.478-0.515-0.956-1.086-1.42-1.701c0.45,0.019,0.914,0.028,1.383,0.028c0.483,0,0.956-0.009,1.425-0.033C12.995,17.369,12.531,17.937,12.038,18.48z M18.165,19.888L18.165,19.888c-0.043,0.571-0.324,1.105-0.774,1.466c-0.745,0.431-2.334-0.131-4.05-1.603c-0.197-0.169-0.394-0.352-0.595-0.539c0.717-0.792,1.378-1.631,1.978-2.512c1.073-0.089,2.142-0.253,3.197-0.492c0.047,0.192,0.089,0.384,0.127,0.572C18.278,17.793,18.315,18.847,18.165,19.888z M18.572,9.032c0.244,0.07,0.478,0.145,0.703,0.22c2.184,0.75,3.717,1.866,3.717,2.719c0,0.919-1.636,2.105-3.975,2.878c-0.131,0.042-0.262,0.084-0.398,0.122c-0.328-1.022-0.731-2.02-1.195-2.991C17.874,11.024,18.254,10.039,18.572,9.032z M13.26,4.326L13.26,4.326c1.745-1.518,3.371-2.113,4.112-1.687c0.792,0.455,1.097,2.292,0.6,4.706c-0.033,0.159-0.066,0.314-0.108,0.469c-1.041-0.234-2.095-0.403-3.155-0.497C14.1,6.444,13.434,5.61,12.712,4.827C12.895,4.654,13.073,4.49,13.26,4.326z M12.01,5.545c0.492,0.534,0.956,1.096,1.387,1.677c-0.928-0.042-1.861-0.042-2.789,0C11.067,6.618,11.541,6.056,12.01,5.545z M6.572,2.672C7.36,2.213,9.108,2.869,10.95,4.5c0.117,0.103,0.234,0.216,0.356,0.328C10.579,5.61,9.909,6.444,9.295,7.316C8.236,7.41,7.186,7.574,6.145,7.804C6.084,7.565,6.033,7.321,5.981,7.077C5.54,4.808,5.831,3.098,6.572,2.672z M4.627,9.28c0.267-0.094,0.539-0.178,0.811-0.258c0.319,1.017,0.703,2.016,1.148,2.981c-0.45,0.98-0.839,1.992-1.162,3.023l-0.001,0.001c-0.197-0.056-0.389-0.117-0.581-0.183c-0.998-0.314-2.133-0.811-2.953-1.462c-0.473-0.328-0.792-0.834-0.881-1.402C1.008,11.122,2.489,10.025,4.627,9.28z"/></svg>