<svg xmlns="http://www.w3.org/2000/svg" enable-background="new 0 0 24 24" viewBox="0 0 24 24"><path fill="#197FC4" d="M24,15.524V5.26c0-1.103-0.887-2.001-1.987-2.01h-0.002h-5.825c-2.004,0-3.746,1.391-4.183,3.354C11.561,4.641,9.824,3.25,7.82,3.25H2c-1.104,0-2,0.898-2,2.005v10.269c0,1.107,0.896,2.005,2,2.005h3.738c4.258,0,5.529,1.02,6.137,3.133c0.029,0.117,0.217,0.117,0.25,0c0.613-2.114,1.884-3.133,6.138-3.133H22C23.104,17.529,24,16.631,24,15.524z M10.087,14.337h-0.004c0,0.079-0.062,0.146-0.146,0.146H3.258c-0.079,0-0.146-0.062-0.146-0.146V13.38c0-0.079,0.062-0.146,0.146-0.146h6.683c0.079,0,0.146,0.062,0.146,0.146V14.337z M10.087,11.793h-0.004c0,0.079-0.062,0.146-0.146,0.146H3.258c-0.079,0-0.146-0.062-0.146-0.146v-0.956c0-0.079,0.062-0.146,0.146-0.146h6.683c0.079,0,0.146,0.062,0.146,0.146V11.793z M10.087,9.249h-0.004c0,0.079-0.062,0.146-0.146,0.146H3.258c-0.079,0-0.146-0.062-0.146-0.146V8.292c0-0.079,0.062-0.146,0.146-0.146h6.683c0.079,0,0.146,0.062,0.146,0.146V9.249z M20.89,14.333h-0.004c0,0.079-0.062,0.146-0.146,0.146h-6.679c-0.079,0-0.146-0.062-0.146-0.146v-0.956c0-0.079,0.062-0.146,0.146-0.146h6.683c0.079,0,0.146,0.062,0.146,0.146V14.333z M20.89,11.789h-0.004c0,0.079-0.062,0.146-0.146,0.146h-6.679c-0.079,0-0.146-0.062-0.146-0.146v-0.956c0-0.079,0.062-0.146,0.146-0.146h6.683c0.079,0,0.146,0.062,0.146,0.146V11.789z M20.89,9.244h-0.004c0,0.079-0.062,0.146-0.146,0.146h-6.679c-0.079,0-0.146-0.062-0.146-0.146V8.292c0-0.079,0.062-0.146,0.146-0.146h6.683c0.079,0,0.146,0.062,0.146,0.146V9.244z"/></svg>