<svg xmlns="http://www.w3.org/2000/svg" enable-background="new 0 0 24 24" viewBox="0 0 24 24"><path fill="#F3453A" d="M24,5.079C24,2.272,21.729,0,18.921,0H5.079C2.272,0,0,2.272,0,5.079v13.842C0,21.728,2.272,24,5.079,24h13.842C21.728,24,24,21.729,24,18.921V5.079z M7.762,9.048v3.016c0,1.447-1.174,2.619-2.619,2.619v-8.26c0-0.707,0.574-1.28,1.28-1.28h8.261c0,1.447-1.174,2.619-2.619,2.619H9.048C8.389,7.73,7.73,8.384,7.762,9.048z M17.207,12.905h-3.016c-0.659-0.032-1.318,0.622-1.286,1.286v3.016c0,1.447-1.174,2.619-2.619,2.619v-8.26c0-0.707,0.574-1.28,1.28-1.28h8.261C19.826,11.733,18.653,12.905,17.207,12.905z"/></svg>