<svg xmlns="http://www.w3.org/2000/svg" enable-background="new 0 0 24 24" viewBox="0 0 24 24"><path fill="#0E5AA4" d="M14.033 0v7.647c0 5.396 2.952 10.029 7.142 12.08v-.001C22.936 17.612 24 14.902 24 11.919 24 5.928 19.689.961 14.033 0zM2.825 19.728c4.191-2.051 7.142-6.69 7.142-12.08V.002C4.312.964 0 5.929 0 11.921 0 14.904 1.064 17.613 2.825 19.728zM6.217 22.516C7.92 23.462 9.876 24 11.951 24c2.095 0 4.051-.537 5.749-1.479-2.763-1.768-4.998-4.434-5.749-7.554C11.221 18.086 8.985 20.753 6.217 22.516z"/></svg>