<svg xmlns="http://www.w3.org/2000/svg" enable-background="new 0 0 24 24" viewBox="0 0 24 24"><path fill="#2FCAAA" d="M0,24h24V0H0V24z M13.549,7.233c0-0.654,0.472-1.628,1.822-1.628c1.35,0,1.629,0.959,1.629,0.959l-0.574,0.385c0,0-0.295-0.67-1.055-0.67c-0.423,0-1.055,0.391-1.055,1.055v1.435c0,0.718,0.353,1.248,0.959,1.248c0.755,0,1.152-0.584,1.152-1.435h-0.959V8.008h1.629c0,1.098,0.251,2.673-1.822,2.673l-0.001,0.001c-1.248,0-1.725-0.841-1.725-1.724V7.233z M5.635,17.48c0.831-0.155,1.178-0.07,1.178-1.28v-5.861c0-1.21-0.343-1.125-1.178-1.28V8.625C7.017,8.679,8.48,8.593,9.433,8.593c1.698,0,2.994,0.771,2.994,2.442c0,1.13-0.895,2.261-2.101,2.545c0.728,1.296,1.607,2.443,2.26,3.155c0.385,0.418,0.921,0.787,1.457,0.787v0.391h0.002c-0.353,0.161-1.778,0.321-2.679-0.761c-0.493-0.568-1.355-1.784-2.261-3.407c-0.477,0-0.787,0-1.146-0.032V16.2c0,1.259,0.321,1.136,1.382,1.28v0.434c-0.369-0.016-1.238-0.044-1.908-0.044c-0.702,0-1.398,0.032-1.8,0.044V17.48z"/><path fill="#2FCAAA" d="M9.032,13.078c1.323,0,2.127-0.788,2.127-1.961c0-1.194-0.745-1.848-1.993-1.848c-0.402,0-0.863,0-1.206,0.032v3.734c0.344,0.026,0.568,0.042,1.072,0.042V13.078z"/></svg>