<svg xmlns="http://www.w3.org/2000/svg" enable-background="new 0 0 24 24" viewBox="0 0 24 24"><path d="M4.443,0.628l-0.01,0.007c0.005-0.004,0.011-0.006,0.017-0.01c0.002-0.001,0.003-0.003,0.004-0.004L4.443,0.628z"/><path fill="#F33132" d="M16.971,14.883l0.002-0.001C19.396,13.483,21,10.916,21,7.975c0-0.002,0-0.004,0-0.005c0-1.425-0.375-2.761-1.036-3.92c-0.932-0.952-2.444-1.516-3.8-1.506h-0.002c-1.197,0.01-2.27,0.466-2.713,1.498c-0.972,2.256,1.633,4.767,2.772,4.568c1.45-0.255-0.256-3.563-0.256-3.563c2.217,4.156,1.707,2.884-2.303,6.7c-4.009,3.816-8.103,11.872-8.7,12.21c-0.023,0.016-0.049,0.03-0.077,0.042L4.881,24h15.724c0.205-0.003,0.37-0.169,0.37-0.373c0-0.06-0.014-0.117-0.039-0.167l0.001,0.002l-4.111-8.092c-0.025-0.049-0.04-0.107-0.04-0.168C16.787,15.066,16.86,14.947,16.971,14.883z"/><path fill="#F33132" d="M15.624,1.819c1.569,0,3.152,0.704,4.175,1.955C18.385,1.526,15.925,0.043,13.113,0h-0.006H3.371C3.166,0.001,3,0.166,3,0.37v19.515c0.58-1.488,1.566-3.617,3.155-6.53C11.887,2.876,12.638,1.819,15.624,1.819z"/></svg>