<svg xmlns="http://www.w3.org/2000/svg" enable-background="new 0 0 24 24" viewBox="0 0 24 24"><linearGradient id="a" x1="3.753" x2="3.75" y1="-410.038" y2="-410.034" gradientTransform="matrix(1981.5812 0 0 -1980.0968 -7415.078 -811889.625)" gradientUnits="userSpaceOnUse"><stop offset="0" stop-color="#fb7655"/><stop offset="0" stop-color="#fb7655"/><stop offset=".41" stop-color="#e42b1e"/><stop offset=".99" stop-color="#900"/><stop offset="1" stop-color="#900"/></linearGradient><path fill="url(#a)" d="M18.594,15.83L4.891,23.967l17.742-1.204L24,4.873L18.594,15.83L18.594,15.83z"/><linearGradient id="b" x1="1.042" x2="1.031" y1="-409.364" y2="-409.36" gradientTransform="matrix(588.89 0 0 -1091.4792 -590.31 -446793.906)" gradientUnits="userSpaceOnUse"><stop offset="0" stop-color="#871101"/><stop offset="0" stop-color="#871101"/><stop offset=".99" stop-color="#911209"/><stop offset="1" stop-color="#911209"/></linearGradient><path fill="url(#b)" d="M22.663,22.75l-1.525-10.525l-4.154,5.485L22.663,22.75L22.663,22.75z"/><linearGradient id="c" x1="3.729" x2="3.725" y1="-402.143" y2="-402.123" gradientTransform="matrix(1838.8894 0 0 -214.6868 -6838.169 -86308.43)" gradientUnits="userSpaceOnUse"><stop offset="0" stop-color="#871101"/><stop offset="0" stop-color="#871101"/><stop offset=".99" stop-color="#911209"/><stop offset="1" stop-color="#911209"/></linearGradient><path fill="url(#c)" d="M22.683,22.75l-11.172-0.877l-6.561,2.07L22.683,22.75L22.683,22.75z"/><linearGradient id="d" x1="3.738" x2="3.74" y1="-408.983" y2="-408.99" gradientTransform="matrix(636.8931 0 0 -948.1528 -2376.01 -387762.75)" gradientUnits="userSpaceOnUse"><stop offset="0" stop-color="#fff"/><stop offset="0" stop-color="#fff"/><stop offset=".23" stop-color="#e57252"/><stop offset=".46" stop-color="#de3b20"/><stop offset=".99" stop-color="#a60003"/><stop offset="1" stop-color="#a60003"/></linearGradient><path fill="url(#d)" d="M4.966,23.946l2.791-9.143l-6.142,1.313L4.966,23.946L4.966,23.946z"/><linearGradient id="e" x1="3.295" x2="3.295" y1="-409.777" y2="-409.784" gradientTransform="matrix(1028.4187 0 0 -1043.1245 -3376.95 -427439.625)" gradientUnits="userSpaceOnUse"><stop offset="0" stop-color="#fff"/><stop offset="0" stop-color="#fff"/><stop offset=".23" stop-color="#e4714e"/><stop offset=".56" stop-color="#be1a0d"/><stop offset=".99" stop-color="#a80d00"/><stop offset="1" stop-color="#a80d00"/></linearGradient><path fill="url(#e)" d="M16.983,17.74L14.415,7.682l-7.349,6.889L16.983,17.74L16.983,17.74z"/><linearGradient id="f" x1="2.378" x2="2.38" y1="-410.517" y2="-410.525" gradientTransform="matrix(921.017 0 0 -648.5522 -2172.67 -266238.688)" gradientUnits="userSpaceOnUse"><stop offset="0" stop-color="#fff"/><stop offset="0" stop-color="#fff"/><stop offset=".18" stop-color="#e46342"/><stop offset=".4" stop-color="#c82410"/><stop offset=".99" stop-color="#a80d00"/><stop offset="1" stop-color="#a80d00"/></linearGradient><path fill="url(#f)" d="M23.417,7.823L16.47,2.149l-1.934,6.254L23.417,7.823L23.417,7.823z"/><linearGradient id="g" x1="1.988" x2="1.995" y1="-412.304" y2="-412.293" gradientTransform="matrix(691.0189 0 0 -237.2921 -1359.582 -97834.96)" gradientUnits="userSpaceOnUse"><stop offset="0" stop-color="#fff"/><stop offset="0" stop-color="#fff"/><stop offset=".54" stop-color="#c81f11"/><stop offset=".99" stop-color="#bf0905"/><stop offset="1" stop-color="#bf0905"/></linearGradient><path fill="url(#g)" d="M20.169,0.126l-4.086,2.258l-2.578-2.288L20.169,0.126L20.169,0.126z"/><linearGradient id="h" x1="3.98" x2="3.982" y1="-408.998" y2="-409.003" gradientTransform="matrix(177.4931 0 0 -709.3571 -705.972 -290111.625)" gradientUnits="userSpaceOnUse"><stop offset="0" stop-color="#fff"/><stop offset="0" stop-color="#fff"/><stop offset=".31" stop-color="#de4024"/><stop offset=".99" stop-color="#bf190b"/><stop offset="1" stop-color="#bf190b"/></linearGradient><path fill="url(#h)" d="M0,19.183l1.712-3.122l-1.385-3.719L0,19.183z"/><path fill="#FFF" d="M0.235,12.225l1.393,3.951l6.053-1.358l6.911-6.423l1.95-6.195l-3.071-2.168L8.25,1.987c-1.645,1.53-4.837,4.557-4.952,4.614C3.185,6.659,1.191,10.428,0.235,12.225L0.235,12.225z"/><linearGradient id="i" x1="3.94" x2="3.952" y1="-410.329" y2="-410.317" gradientTransform="matrix(1544.4148 0 0 -1542.2133 -6087.566 -632796.625)" gradientUnits="userSpaceOnUse"><stop offset="0" stop-color="#bd0012"/><stop offset="0" stop-color="#bd0012"/><stop offset=".07" stop-color="#fff"/><stop offset=".17" stop-color="#fff"/><stop offset=".27" stop-color="#c82f1c"/><stop offset=".33" stop-color="#820c01"/><stop offset=".46" stop-color="#a31601"/><stop offset=".72" stop-color="#b31301"/><stop offset=".99" stop-color="#e82609"/><stop offset="1" stop-color="#e82609"/></linearGradient><path fill="url(#i)" d="M5.126,5.127c3.565-3.535,8.161-5.623,9.924-3.844c1.763,1.779-0.107,6.104-3.672,9.637c-3.565,3.533-8.104,5.737-9.866,3.957C-0.251,13.1,1.561,8.66,5.126,5.127L5.126,5.127z"/><linearGradient id="j" x1="3.591" x2="3.587" y1="-408.995" y2="-408.994" gradientTransform="matrix(1240.8304 0 0 -951.1702 -4444.292 -389003.25)" gradientUnits="userSpaceOnUse"><stop offset="0" stop-color="#8c0c01"/><stop offset="0" stop-color="#8c0c01"/><stop offset=".54" stop-color="#990c00"/><stop offset=".99" stop-color="#a80d0e"/><stop offset="1" stop-color="#a80d0e"/></linearGradient><path fill="url(#j)" d="M4.966,23.942l2.769-9.172l9.196,2.954C13.607,20.843,9.909,23.479,4.966,23.942L4.966,23.942z"/><linearGradient id="k" x1="2.369" x2="2.364" y1="-409.769" y2="-409.765" gradientTransform="matrix(917.9897 0 0 -1031.1821 -2153.531 -422532.469)" gradientUnits="userSpaceOnUse"><stop offset="0" stop-color="#7e110b"/><stop offset="0" stop-color="#7e110b"/><stop offset=".99" stop-color="#9e0c00"/><stop offset="1" stop-color="#9e0c00"/></linearGradient><path fill="url(#k)" d="M14.604,8.378l2.361,9.352c2.778-2.921,5.27-6.06,6.491-9.944L14.604,8.378L14.604,8.378z"/><linearGradient id="l" x1="1.829" x2="1.825" y1="-410.685" y2="-410.682" gradientTransform="matrix(778.2689 0 0 -798.665 -1399.705 -327994.219)" gradientUnits="userSpaceOnUse"><stop offset="0" stop-color="#79130d"/><stop offset="0" stop-color="#79130d"/><stop offset=".99" stop-color="#9e120b"/><stop offset="1" stop-color="#9e120b"/></linearGradient><path fill="url(#l)" d="M23.432,7.833c0.945-2.851,1.163-6.942-3.292-7.702l-3.656,2.019L23.432,7.833z"/><path fill="#9E1209" d="M0,19.142c0.131,4.706,3.526,4.776,4.973,4.818l-3.341-7.802L0,19.142z"/><radialGradient id="m" cx="2.348" cy="-409.485" r=".007" gradientTransform="matrix(909.2308 0 0 -475.1044 -2117.128 -194538.344)" gradientUnits="userSpaceOnUse"><stop offset="0" stop-color="#a80d00"/><stop offset="0" stop-color="#a80d00"/><stop offset=".99" stop-color="#7e0e08"/><stop offset="1" stop-color="#7e0e08"/></radialGradient><path fill="url(#m)" d="M14.617,8.393c2.134,1.312,6.436,3.947,6.523,3.995c0.136,0.076,1.855-2.899,2.245-4.58L14.617,8.393z"/><radialGradient id="n" cx="3.163" cy="-408.705" r=".009" gradientTransform="matrix(951.4143 0 0 -740.6335 -2999.848 -302683.219)" gradientUnits="userSpaceOnUse"><stop offset="0" stop-color="#a30c00"/><stop offset="0" stop-color="#a30c00"/><stop offset=".99" stop-color="#800e08"/><stop offset="1" stop-color="#800e08"/></radialGradient><path fill="url(#n)" d="M7.732,14.77l3.702,7.142c2.189-1.187,3.903-2.633,5.473-4.183L7.732,14.77L7.732,14.77z"/><linearGradient id="o" x1="3.709" x2="3.704" y1="-408.615" y2="-408.606" gradientTransform="matrix(391.9162 0 0 -792.3398 -1450.355 -323738.125)" gradientUnits="userSpaceOnUse"><stop offset="0" stop-color="#8b2114"/><stop offset="0" stop-color="#8b2114"/><stop offset=".43" stop-color="#9e100a"/><stop offset=".99" stop-color="#b3100c"/><stop offset="1" stop-color="#b3100c"/></linearGradient><path fill="url(#o)" d="M1.617,16.167l-0.524,6.246c0.99,1.352,2.351,1.469,3.779,1.364C3.839,21.205,1.775,16.063,1.617,16.167z"/><linearGradient id="p" x1="1.781" x2="1.787" y1="-411.705" y2="-411.712" gradientTransform="matrix(762.6236 0 0 -318.554 -1339.37 -131149.188)" gradientUnits="userSpaceOnUse"><stop offset="0" stop-color="#b31000"/><stop offset="0" stop-color="#b31000"/><stop offset=".44" stop-color="#910f08"/><stop offset=".99" stop-color="#791c12"/><stop offset="1" stop-color="#791c12"/></linearGradient><path fill="url(#p)" d="M16.462,2.166l7.354,1.032c-0.393-1.663-1.598-2.736-3.652-3.072L16.462,2.166L16.462,2.166z"/></svg>