<svg xmlns="http://www.w3.org/2000/svg" enable-background="new 0 0 24 24" viewBox="0 0 24 24"><circle cx="12" cy="12" r="12" fill="#EEE"/><radialGradient id="a" cx="3.946" cy="916.391" r=".006" gradientTransform="matrix(2240.2344 0 0 -2240.2344 -8827.055 2052939.25)" gradientUnits="userSpaceOnUse"><stop offset="0" stop-color="#2abce1"/><stop offset=".114" stop-color="#2abbe1"/><stop offset="1" stop-color="#3375f8"/></radialGradient><circle cx="12" cy="12" r="11.1" fill="url(#a)"/><g transform="translate(9.688 8.719)"><path fill="#F3F3F3" d="M2.331-5.119c-0.075,0-0.141-0.056-0.141-0.131V-7.21c0-0.075,0.066-0.131,0.141-0.131S2.471-7.285,2.471-7.21v1.959C2.462-5.175,2.406-5.119,2.331-5.119L2.331-5.119z"/><path fill="#FFF" d="M2.331-5.11c-0.084,0-0.15-0.066-0.15-0.141V-7.21c0-0.075,0.066-0.141,0.15-0.141s0.15,0.066,0.15,0.141v1.959C2.481-5.175,2.406-5.11,2.331-5.11z M2.331-7.332C2.265-7.332,2.2-7.275,2.2-7.21v1.959c0,0.066,0.056,0.122,0.131,0.122c0.066,0,0.131-0.056,0.131-0.122V-7.21C2.453-7.275,2.396-7.332,2.331-7.332z"/><path fill="#F3F3F3" d="M3.268-6.169C3.193-6.178,3.137-6.235,3.137-6.31l0.066-0.872c0.009-0.075,0.075-0.131,0.15-0.122c0.075,0.009,0.131,0.066,0.131,0.141L3.418-6.291C3.409-6.216,3.343-6.16,3.268-6.169L3.268-6.169z"/><path fill="#FFF" d="M3.268-6.16C3.184-6.169,3.128-6.235,3.128-6.31l0.066-0.872c0.009-0.075,0.075-0.141,0.159-0.131c0.084,0.009,0.141,0.075,0.141,0.15L3.428-6.291C3.418-6.206,3.353-6.15,3.268-6.16z M3.353-7.294c-0.066,0-0.131,0.047-0.131,0.113L3.156-6.31c0,0.066,0.047,0.122,0.122,0.131c0.066,0,0.131-0.047,0.131-0.112l0.066-0.872C3.475-7.228,3.418-7.285,3.353-7.294L3.353-7.294z"/><path fill="#F3F3F3" d="M3.971-4.95C3.896-4.969,3.85-5.035,3.859-5.11l0.384-1.922c0.019-0.075,0.084-0.122,0.159-0.103C4.478-7.116,4.525-7.05,4.515-6.975L4.131-5.053C4.121-4.988,4.046-4.941,3.971-4.95L3.971-4.95z"/><path fill="#FFF" d="M3.971-4.941C3.887-4.96,3.84-5.035,3.85-5.11l0.384-1.922c0.019-0.075,0.094-0.131,0.178-0.112C4.496-7.125,4.543-7.05,4.534-6.975L4.15-5.053C4.131-4.978,4.056-4.931,3.971-4.941z M4.412-7.125c-0.066-0.009-0.131,0.028-0.15,0.094L3.878-5.11C3.868-5.044,3.906-4.978,3.981-4.96c0.066,0.009,0.131-0.028,0.15-0.094l0.384-1.922C4.525-7.05,4.478-7.106,4.412-7.125z"/><path fill="#F3F3F3" d="M5.096-5.794C5.021-5.812,4.975-5.888,4.993-5.963c0,0,0,0,0,0l0.234-0.844C5.246-6.881,5.321-6.919,5.396-6.9C5.471-6.881,5.518-6.806,5.5-6.731L5.265-5.888C5.246-5.813,5.171-5.775,5.096-5.794L5.096-5.794z"/><path fill="#FFF" d="M5.096-5.785C5.021-5.803,4.965-5.888,4.993-5.963l0.234-0.844C5.246-6.881,5.331-6.928,5.406-6.91c0.075,0.019,0.131,0.103,0.103,0.178L5.275-5.888C5.256-5.813,5.181-5.766,5.096-5.785L5.096-5.785z M5.406-6.881C5.34-6.9,5.265-6.863,5.246-6.797L5.012-5.953c-0.019,0.066,0.019,0.131,0.094,0.15c0.066,0.019,0.141-0.019,0.159-0.084L5.5-6.732C5.509-6.797,5.471-6.863,5.406-6.881L5.406-6.881z"/><path fill="#F3F3F3" d="M5.556-4.472C5.481-4.5,5.453-4.585,5.481-4.65l0.75-1.809c0.028-0.066,0.113-0.103,0.178-0.066c0.075,0.028,0.103,0.113,0.075,0.178l-0.75,1.809C5.706-4.472,5.621-4.435,5.556-4.472L5.556-4.472z"/><path fill="#FFF" d="M5.556-4.463C5.481-4.491,5.443-4.575,5.471-4.65l0.75-1.809C6.25-6.535,6.334-6.563,6.418-6.535c0.075,0.029,0.113,0.112,0.084,0.188l-0.75,1.809C5.715-4.463,5.631-4.425,5.556-4.463z M6.409-6.516c-0.066-0.028-0.141,0-0.169,0.066L5.49-4.641C5.462-4.575,5.5-4.51,5.565-4.481c0.066,0.028,0.141,0,0.169-0.066l0.75-1.809C6.503-6.413,6.475-6.488,6.409-6.516L6.409-6.516z"/><path fill="#F3F3F3" d="M6.821-5.072C6.756-5.11,6.728-5.185,6.756-5.25L7.15-6.028c0.037-0.066,0.112-0.094,0.188-0.056c0.066,0.038,0.094,0.113,0.066,0.178L7.009-5.128C6.971-5.063,6.896-5.035,6.821-5.072L6.821-5.072z"/><path fill="#FFF" d="M6.821-5.063C6.746-5.1,6.718-5.185,6.756-5.26L7.15-6.038c0.037-0.075,0.122-0.103,0.197-0.066C7.421-6.066,7.45-5.981,7.412-5.906L7.018-5.128C6.981-5.053,6.896-5.025,6.821-5.063L6.821-5.063z M7.337-6.085C7.271-6.113,7.196-6.094,7.168-6.028L6.775-5.25c-0.028,0.056,0,0.131,0.056,0.169C6.896-5.053,6.971-5.072,7-5.138l0.394-0.778C7.421-5.972,7.393-6.047,7.337-6.085z"/><path fill="#F3F3F3" d="M7.009-3.685C6.943-3.731,6.925-3.816,6.971-3.872l1.088-1.622C8.096-5.56,8.181-5.569,8.246-5.531C8.312-5.485,8.331-5.4,8.284-5.344L7.196-3.722C7.159-3.656,7.075-3.638,7.009-3.685z"/><path fill="#FFF" d="M7.009-3.675C6.943-3.722,6.925-3.816,6.962-3.881L8.05-5.503c0.047-0.066,0.131-0.084,0.206-0.037C8.321-5.494,8.34-5.4,8.303-5.335L7.215-3.713C7.168-3.647,7.075-3.628,7.009-3.675z M8.246-5.522C8.19-5.56,8.106-5.55,8.068-5.494L6.981-3.872C6.943-3.816,6.962-3.741,7.018-3.703c0.056,0.038,0.141,0.028,0.178-0.028l1.088-1.613C8.321-5.4,8.303-5.485,8.246-5.522L8.246-5.522z"/><path fill="#F3F3F3" d="M8.378-4.031C8.321-4.078,8.303-4.163,8.35-4.219l0.544-0.684C8.94-4.96,9.025-4.969,9.081-4.922c0.056,0.047,0.075,0.131,0.028,0.187L8.565-4.05C8.518-3.994,8.434-3.985,8.378-4.031L8.378-4.031z"/><path fill="#FFF" d="M8.368-4.022C8.303-4.069,8.293-4.163,8.34-4.228l0.544-0.684C8.931-4.978,9.025-4.988,9.09-4.931c0.066,0.047,0.075,0.141,0.028,0.206L8.575-4.041C8.528-3.975,8.434-3.966,8.368-4.022z M9.071-4.913C9.015-4.96,8.94-4.95,8.893-4.894L8.35-4.21C8.312-4.153,8.321-4.078,8.378-4.032C8.434-3.985,8.509-3.994,8.556-4.05L9.1-4.735C9.137-4.791,9.128-4.875,9.071-4.913L9.071-4.913z"/><path fill="#F3F3F3" d="M8.284-2.625c-0.056-0.056-0.056-0.141,0-0.188l1.387-1.378c0.056-0.056,0.141-0.047,0.188,0c0.047,0.047,0.056,0.141,0,0.187L8.481-2.625C8.425-2.569,8.34-2.569,8.284-2.625z"/><path fill="#FFF" d="M8.275-2.616c-0.056-0.057-0.056-0.149,0-0.206L9.662-4.2c0.057-0.056,0.149-0.056,0.206,0c0.056,0.057,0.056,0.149,0,0.206L8.481-2.616C8.424-2.56,8.332-2.56,8.275-2.616L8.275-2.616z M9.859-4.191c-0.047-0.047-0.131-0.047-0.178,0L8.293-2.813c-0.047,0.047-0.047,0.131,0,0.178c0.047,0.047,0.131,0.047,0.178,0l1.388-1.378C9.906-4.06,9.906-4.135,9.859-4.191L9.859-4.191z"/><path fill="#F3F3F3" d="M9.69-2.7C9.643-2.756,9.643-2.841,9.7-2.888l0.666-0.562c0.056-0.047,0.141-0.038,0.188,0.019C10.6-3.375,10.6-3.291,10.543-3.244L9.878-2.681C9.821-2.635,9.737-2.644,9.69-2.7z"/><path fill="#FFF" d="M9.681-2.691C9.625-2.756,9.634-2.85,9.69-2.897l0.666-0.563c0.056-0.056,0.15-0.047,0.206,0.019c0.056,0.066,0.047,0.159-0.009,0.206L9.887-2.672C9.831-2.616,9.737-2.625,9.681-2.691L9.681-2.691z M10.543-3.431c-0.047-0.056-0.122-0.056-0.178-0.019L9.7-2.888C9.653-2.841,9.643-2.766,9.69-2.71s0.122,0.056,0.178,0.019l0.666-0.563C10.59-3.3,10.59-3.375,10.543-3.431z"/><path fill="#F3F3F3" d="M9.315-1.35C9.268-1.416,9.287-1.5,9.353-1.538l1.631-1.087c0.066-0.038,0.15-0.019,0.187,0.038c0.047,0.066,0.028,0.15-0.037,0.187L9.503-1.313C9.446-1.275,9.362-1.294,9.315-1.35z"/><path fill="#FFF" d="M9.306-1.35C9.259-1.416,9.278-1.51,9.343-1.556l1.631-1.088c0.066-0.047,0.159-0.028,0.206,0.047c0.047,0.066,0.028,0.159-0.037,0.206L9.512-1.303C9.446-1.256,9.353-1.275,9.306-1.35L9.306-1.35z M11.162-2.578c-0.037-0.056-0.112-0.075-0.169-0.038L9.362-1.528C9.306-1.491,9.287-1.416,9.334-1.35c0.037,0.056,0.112,0.075,0.169,0.038L11.134-2.4C11.19-2.447,11.2-2.522,11.162-2.578L11.162-2.578z"/><path fill="#F3F3F3" d="M10.712-1.153c-0.038-0.066-0.019-0.15,0.047-0.188l0.759-0.431c0.066-0.038,0.15-0.009,0.187,0.056c0.038,0.066,0.019,0.15-0.047,0.188L10.9-1.097C10.834-1.06,10.75-1.088,10.712-1.153L10.712-1.153z"/><path fill="#FFF" d="M10.703-1.144c-0.038-0.075-0.019-0.159,0.047-0.197l0.759-0.431c0.066-0.038,0.159-0.009,0.197,0.056c0.038,0.075,0.019,0.159-0.047,0.197L10.9-1.088C10.834-1.05,10.74-1.078,10.703-1.144L10.703-1.144z M11.696-1.706c-0.037-0.066-0.112-0.084-0.169-0.047l-0.759,0.431c-0.056,0.037-0.075,0.112-0.047,0.169c0.038,0.066,0.113,0.084,0.169,0.047l0.759-0.431C11.706-1.566,11.725-1.641,11.696-1.706z"/><path fill="#F3F3F3" d="M10.084,0.094c-0.028-0.075,0-0.15,0.075-0.178l1.809-0.75c0.066-0.028,0.15,0.009,0.178,0.075c0.028,0.075,0,0.15-0.075,0.178l-1.809,0.75C10.196,0.197,10.112,0.168,10.084,0.094z"/><path fill="#FFF" d="M10.075,0.103c-0.028-0.075,0-0.159,0.075-0.197l1.809-0.75c0.075-0.028,0.159,0.009,0.187,0.084c0.028,0.075,0,0.159-0.075,0.197l-1.809,0.75C10.187,0.216,10.103,0.178,10.075,0.103L10.075,0.103z M12.128-0.75c-0.028-0.066-0.103-0.094-0.159-0.075l-1.809,0.75c-0.066,0.028-0.094,0.103-0.066,0.169c0.028,0.066,0.103,0.094,0.159,0.075l1.809-0.75C12.128-0.61,12.156-0.685,12.128-0.75z"/><path fill="#F3F3F3" d="M11.406,0.562c-0.028-0.075,0.009-0.15,0.084-0.178l0.825-0.272c0.066-0.028,0.15,0.019,0.169,0.084c0.028,0.075-0.009,0.15-0.084,0.178l-0.825,0.272C11.509,0.675,11.434,0.637,11.406,0.562L11.406,0.562z"/><path fill="#FFF" d="M11.396,0.572c-0.028-0.075,0.009-0.159,0.094-0.187l0.825-0.272c0.075-0.028,0.159,0.019,0.188,0.094c0.028,0.075-0.009,0.159-0.094,0.187l-0.825,0.272C11.509,0.684,11.425,0.647,11.396,0.572z M12.484,0.215c-0.019-0.066-0.094-0.103-0.159-0.084L11.5,0.403c-0.066,0.019-0.094,0.094-0.075,0.159c0.019,0.066,0.094,0.103,0.159,0.084l0.825-0.272C12.475,0.347,12.503,0.281,12.484,0.215L12.484,0.215z"/><path fill="#F3F3F3" d="M10.562,1.678c-0.019-0.075,0.028-0.15,0.103-0.159l1.922-0.375c0.075-0.019,0.141,0.037,0.159,0.112c0.019,0.075-0.028,0.15-0.103,0.159L10.721,1.79C10.646,1.8,10.571,1.753,10.562,1.678L10.562,1.678z"/><path fill="#FFF" d="M10.543,1.678c-0.019-0.084,0.037-0.159,0.112-0.178l1.922-0.375c0.075-0.019,0.15,0.038,0.169,0.122c0.019,0.084-0.037,0.159-0.112,0.178L10.712,1.8C10.637,1.819,10.562,1.762,10.543,1.678L10.543,1.678z M12.728,1.256c-0.009-0.066-0.075-0.112-0.141-0.103l-1.922,0.375c-0.066,0.009-0.112,0.084-0.094,0.15c0.009,0.066,0.075,0.112,0.141,0.103l1.922-0.375C12.7,1.387,12.746,1.322,12.728,1.256L12.728,1.256z"/><path fill="#F3F3F3" d="M11.762,2.4c-0.009-0.075,0.037-0.141,0.112-0.15l0.862-0.103c0.075-0.009,0.141,0.047,0.15,0.122c0.009,0.075-0.037,0.141-0.112,0.15l-0.863,0.103C11.846,2.531,11.771,2.475,11.762,2.4L11.762,2.4z"/><path fill="#FFF" d="M11.753,2.4C11.743,2.315,11.8,2.24,11.875,2.231l0.862-0.103c0.075-0.009,0.15,0.047,0.159,0.131c0.009,0.084-0.047,0.159-0.122,0.169l-0.863,0.103C11.837,2.54,11.762,2.484,11.753,2.4L11.753,2.4z M12.887,2.269c-0.009-0.066-0.075-0.122-0.141-0.113l-0.862,0.103c-0.066,0.009-0.113,0.075-0.103,0.141s0.075,0.122,0.141,0.113l0.863-0.103C12.85,2.4,12.896,2.334,12.887,2.269L12.887,2.269z"/><path fill="#F3F3F3" d="M10.712,3.309c0-0.075,0.056-0.141,0.131-0.141h1.959c0.075,0,0.131,0.066,0.131,0.141c0,0.075-0.056,0.141-0.131,0.141h-1.959C10.768,3.45,10.712,3.384,10.712,3.309z"/><path fill="#FFF" d="M10.703,3.309c0-0.084,0.066-0.15,0.141-0.15h1.959c0.075,0,0.141,0.066,0.141,0.15s-0.066,0.15-0.141,0.15h-1.959C10.768,3.459,10.703,3.394,10.703,3.309z M12.925,3.319c0-0.066-0.056-0.131-0.122-0.131h-1.959c-0.066,0-0.122,0.056-0.122,0.131c0,0.066,0.056,0.131,0.122,0.131h1.959C12.868,3.44,12.925,3.384,12.925,3.319L12.925,3.319z"/><path fill="#F3F3F3" d="M11.753,4.256c0.009-0.075,0.066-0.131,0.141-0.131l0.872,0.066c0.075,0.009,0.131,0.075,0.122,0.15c-0.009,0.075-0.066,0.131-0.141,0.131l-0.872-0.066C11.809,4.397,11.753,4.331,11.753,4.256L11.753,4.256z"/><path fill="#FFF" d="M11.743,4.256c0.009-0.084,0.075-0.141,0.15-0.141l0.872,0.066c0.075,0.009,0.141,0.075,0.131,0.159c-0.009,0.084-0.075,0.141-0.15,0.141l-0.872-0.066C11.8,4.406,11.743,4.331,11.743,4.256L11.743,4.256z M12.887,4.34c0.009-0.066-0.047-0.131-0.113-0.131l-0.872-0.066c-0.066,0-0.122,0.047-0.131,0.122c-0.009,0.066,0.047,0.131,0.113,0.131l0.872,0.066C12.821,4.462,12.878,4.406,12.887,4.34z"/><path fill="#F3F3F3" d="M10.543,4.94c0.019-0.075,0.084-0.122,0.159-0.112l1.922,0.384c0.075,0.019,0.122,0.084,0.103,0.159s-0.084,0.122-0.159,0.113L10.646,5.1C10.581,5.09,10.534,5.015,10.543,4.94L10.543,4.94z"/><path fill="#FFF" d="M10.534,4.94c0.019-0.084,0.094-0.131,0.169-0.122l1.922,0.384c0.075,0.019,0.131,0.094,0.112,0.178c-0.019,0.084-0.094,0.131-0.169,0.122l-1.922-0.384C10.571,5.1,10.525,5.025,10.534,4.94L10.534,4.94z M12.718,5.381c0.009-0.066-0.028-0.131-0.094-0.15l-1.922-0.384c-0.066-0.009-0.131,0.028-0.15,0.103c-0.009,0.066,0.028,0.131,0.094,0.15l1.922,0.384C12.643,5.494,12.7,5.447,12.718,5.381z"/><path fill="#F3F3F3" d="M11.387,6.065c0.018-0.075,0.094-0.121,0.169-0.103c0,0,0,0,0,0L12.4,6.197c0.075,0.019,0.112,0.094,0.094,0.169C12.475,6.44,12.4,6.487,12.325,6.469c0,0,0,0,0,0l-0.844-0.234C11.406,6.215,11.368,6.14,11.387,6.065L11.387,6.065z"/><path fill="#FFF" d="M11.378,6.065c0.019-0.075,0.103-0.131,0.178-0.103L12.4,6.197c0.075,0.019,0.122,0.103,0.103,0.178C12.484,6.45,12.4,6.506,12.325,6.478l-0.844-0.234C11.406,6.225,11.359,6.15,11.378,6.065L11.378,6.065z M12.475,6.375c0.019-0.066-0.019-0.141-0.084-0.159l-0.844-0.234C11.481,5.962,11.415,6,11.396,6.075c-0.019,0.066,0.019,0.141,0.084,0.159l0.844,0.234C12.39,6.478,12.456,6.44,12.475,6.375z"/><path fill="#F3F3F3" d="M10.065,6.515c0.028-0.075,0.113-0.103,0.178-0.075l1.809,0.75c0.066,0.028,0.103,0.113,0.075,0.178C12.1,7.444,12.015,7.472,11.95,7.444l-1.809-0.75C10.065,6.665,10.037,6.581,10.065,6.515L10.065,6.515z"/><path fill="#FFF" d="M10.056,6.506c0.029-0.075,0.112-0.113,0.188-0.084l1.809,0.75c0.075,0.028,0.103,0.113,0.075,0.197c-0.029,0.075-0.112,0.113-0.188,0.084l-1.809-0.75C10.056,6.665,10.028,6.581,10.056,6.506z M12.109,7.359c0.028-0.066,0-0.141-0.066-0.169l-1.809-0.75c-0.066-0.028-0.131,0.009-0.159,0.075c-0.028,0.066,0,0.141,0.066,0.169l1.809,0.75C12.015,7.453,12.09,7.425,12.109,7.359z"/><path fill="#F3F3F3" d="M10.675,7.781c0.038-0.066,0.112-0.094,0.178-0.066l0.778,0.394c0.066,0.028,0.094,0.112,0.056,0.187c-0.038,0.066-0.113,0.094-0.178,0.066l-0.778-0.394C10.665,7.931,10.637,7.847,10.675,7.781z"/><path fill="#FFF" d="M10.665,7.772c0.038-0.075,0.122-0.103,0.197-0.066L11.64,8.1c0.075,0.038,0.103,0.122,0.066,0.197c-0.037,0.075-0.122,0.103-0.197,0.066l-0.778-0.394C10.656,7.94,10.628,7.847,10.665,7.772z M11.678,8.287c0.028-0.066,0.009-0.141-0.056-0.169l-0.778-0.394c-0.056-0.028-0.131,0-0.169,0.056c-0.028,0.066-0.009,0.141,0.056,0.169l0.778,0.394C11.575,8.372,11.65,8.353,11.678,8.287L11.678,8.287z"/><path fill="#F3F3F3" d="M9.296,7.959c0.047-0.066,0.122-0.084,0.188-0.038l1.631,1.088c0.066,0.037,0.075,0.122,0.038,0.187c-0.047,0.066-0.122,0.084-0.188,0.038L9.334,8.147C9.268,8.1,9.25,8.015,9.296,7.959z"/><path fill="#FFF" d="M9.287,7.95c0.047-0.066,0.141-0.084,0.206-0.047l1.631,1.087c0.066,0.047,0.084,0.131,0.037,0.206c-0.047,0.066-0.141,0.084-0.206,0.047L9.325,8.156C9.25,8.109,9.24,8.015,9.287,7.95z M11.134,9.187c0.037-0.056,0.028-0.141-0.028-0.178L9.475,7.922C9.418,7.884,9.343,7.903,9.306,7.959C9.268,8.015,9.278,8.1,9.334,8.137l1.631,1.088C11.021,9.262,11.096,9.244,11.134,9.187L11.134,9.187z"/><path fill="#F3F3F3" d="M9.643,9.319C9.69,9.262,9.775,9.244,9.831,9.29l0.684,0.534c0.056,0.047,0.066,0.131,0.019,0.188c-0.047,0.056-0.131,0.075-0.188,0.028L9.662,9.506C9.606,9.459,9.596,9.375,9.643,9.319z"/><path fill="#FFF" d="M9.634,9.309C9.681,9.244,9.775,9.234,9.84,9.281l0.684,0.534c0.066,0.047,0.075,0.141,0.028,0.206c-0.047,0.066-0.141,0.075-0.206,0.028L9.662,9.515C9.596,9.469,9.587,9.375,9.634,9.309z M10.534,10.012c0.047-0.056,0.037-0.131-0.019-0.178L9.831,9.3C9.775,9.262,9.7,9.272,9.653,9.328C9.606,9.384,9.615,9.459,9.671,9.506l0.684,0.534C10.412,10.078,10.487,10.068,10.534,10.012L10.534,10.012z"/><path fill="#F3F3F3" d="M8.246,9.225c0.056-0.056,0.141-0.056,0.188,0l1.387,1.378c0.056,0.056,0.047,0.141,0,0.188c-0.056,0.056-0.141,0.056-0.187,0L8.246,9.412C8.2,9.365,8.2,9.272,8.246,9.225L8.246,9.225z"/><path fill="#FFF" d="M8.246,9.215c0.057-0.056,0.149-0.056,0.206,0l1.387,1.378c0.056,0.057,0.056,0.149,0,0.206c-0.057,0.056-0.149,0.056-0.206,0L8.246,9.422C8.181,9.365,8.181,9.272,8.246,9.215L8.246,9.215z M9.821,10.781c0.047-0.047,0.047-0.131,0-0.178L8.434,9.225c-0.047-0.047-0.131-0.047-0.178,0c-0.047,0.047-0.047,0.131,0,0.178l1.387,1.378C9.69,10.837,9.765,10.837,9.821,10.781L9.821,10.781z"/><path fill="#F3F3F3" d="M8.331,10.622c0.056-0.047,0.141-0.047,0.188,0.009l0.572,0.656c0.047,0.056,0.037,0.141-0.019,0.188c-0.056,0.047-0.141,0.047-0.187-0.009l-0.572-0.656C8.265,10.762,8.275,10.678,8.331,10.622z"/><path fill="#FFF" d="M8.321,10.622c0.066-0.056,0.15-0.047,0.206,0.009L9.1,11.287c0.056,0.056,0.047,0.15-0.019,0.206c-0.066,0.056-0.15,0.047-0.206-0.009l-0.572-0.656C8.256,10.762,8.256,10.669,8.321,10.622L8.321,10.622z M9.071,11.475c0.056-0.047,0.056-0.122,0.019-0.178L8.518,10.64c-0.047-0.047-0.122-0.056-0.178-0.009c-0.056,0.047-0.056,0.122-0.019,0.178l0.572,0.656C8.94,11.522,9.015,11.522,9.071,11.475L9.071,11.475z"/><path fill="#F3F3F3" d="M6.981,10.265c0.066-0.047,0.15-0.028,0.188,0.038l1.087,1.622c0.038,0.066,0.019,0.15-0.037,0.188c-0.066,0.047-0.15,0.028-0.188-0.038l-1.087-1.622C6.906,10.387,6.924,10.303,6.981,10.265L6.981,10.265z"/><path fill="#FFF" d="M6.981,10.256c0.066-0.047,0.159-0.028,0.206,0.038l1.088,1.622c0.047,0.066,0.028,0.159-0.047,0.206c-0.066,0.047-0.159,0.028-0.206-0.037l-1.087-1.622C6.887,10.387,6.906,10.303,6.981,10.256L6.981,10.256z M8.218,12.103c0.056-0.038,0.075-0.113,0.037-0.169l-1.087-1.622c-0.038-0.056-0.113-0.066-0.178-0.028c-0.056,0.037-0.075,0.112-0.038,0.169l1.087,1.622C8.078,12.122,8.162,12.14,8.218,12.103L8.218,12.103z"/><path fill="#F3F3F3" d="M6.784,11.653c0.066-0.037,0.15-0.019,0.187,0.047l0.431,0.759c0.037,0.066,0.009,0.15-0.056,0.187c-0.066,0.038-0.15,0.019-0.187-0.047L6.728,11.84C6.7,11.775,6.718,11.69,6.784,11.653L6.784,11.653z"/><path fill="#FFF" d="M6.784,11.644c0.075-0.038,0.159-0.019,0.197,0.047l0.431,0.759c0.038,0.066,0.019,0.159-0.056,0.197c-0.075,0.038-0.159,0.019-0.197-0.047L6.728,11.84C6.69,11.775,6.709,11.69,6.784,11.644L6.784,11.644z M7.346,12.637c0.056-0.038,0.084-0.113,0.047-0.169l-0.431-0.759c-0.038-0.056-0.113-0.075-0.169-0.047c-0.056,0.038-0.084,0.113-0.047,0.169l0.431,0.759C7.206,12.647,7.29,12.675,7.346,12.637L7.346,12.637z"/><path fill="#F3F3F3" d="M5.537,11.034c0.075-0.028,0.15,0,0.178,0.066l0.759,1.809c0.028,0.066-0.009,0.15-0.075,0.178c-0.066,0.028-0.15,0-0.178-0.066l-0.759-1.809C5.434,11.147,5.471,11.062,5.537,11.034L5.537,11.034z"/><path fill="#FFF" d="M5.537,11.025c0.075-0.028,0.159,0,0.197,0.075l0.759,1.809c0.028,0.075-0.009,0.159-0.084,0.187c-0.075,0.028-0.159,0-0.197-0.075l-0.759-1.809C5.425,11.147,5.462,11.062,5.537,11.025L5.537,11.025z M6.39,13.078c0.066-0.028,0.094-0.103,0.066-0.159l-0.759-1.809c-0.028-0.066-0.103-0.094-0.169-0.066c-0.066,0.028-0.094,0.103-0.066,0.159l0.759,1.809C6.259,13.078,6.325,13.106,6.39,13.078z"/><path fill="#F3F3F3" d="M5.078,12.365c0.075-0.028,0.15,0.009,0.178,0.084l0.272,0.825c0.028,0.066-0.019,0.15-0.084,0.169c-0.075,0.028-0.15-0.009-0.178-0.084l-0.272-0.825C4.965,12.469,5.003,12.394,5.078,12.365L5.078,12.365z"/><path fill="#FFF" d="M5.068,12.356c0.075-0.028,0.159,0.009,0.187,0.084l0.272,0.825c0.028,0.075-0.019,0.159-0.094,0.188c-0.075,0.028-0.159-0.009-0.187-0.084l-0.272-0.825C4.956,12.469,4.993,12.384,5.068,12.356L5.068,12.356z M5.434,13.434c0.066-0.019,0.103-0.094,0.084-0.159L5.246,12.45c-0.019-0.066-0.094-0.094-0.159-0.075c-0.066,0.019-0.103,0.094-0.084,0.159l0.272,0.825c0.019,0.063,0.085,0.098,0.147,0.079C5.426,13.437,5.43,13.436,5.434,13.434L5.434,13.434z"/><path fill="#F3F3F3" d="M3.971,11.512c0.075-0.019,0.15,0.028,0.159,0.103l0.394,1.922c0.019,0.075-0.038,0.141-0.113,0.159c-0.075,0.019-0.15-0.028-0.159-0.103l-0.394-1.922C3.85,11.606,3.896,11.531,3.971,11.512L3.971,11.512z"/><path fill="#FFF" d="M3.971,11.503c0.084-0.019,0.159,0.038,0.178,0.113l0.394,1.922c0.019,0.075-0.038,0.159-0.113,0.169c-0.084,0.019-0.159-0.037-0.178-0.112l-0.394-1.922C3.84,11.597,3.887,11.522,3.971,11.503L3.971,11.503z M4.412,13.687c0.066-0.009,0.113-0.075,0.103-0.15l-0.394-1.922c-0.009-0.066-0.084-0.112-0.15-0.094c-0.066,0.009-0.112,0.075-0.103,0.15l0.394,1.922C4.281,13.659,4.346,13.697,4.412,13.687L4.412,13.687z"/><path fill="#F3F3F3" d="M3.259,12.731c0.075-0.009,0.141,0.038,0.159,0.113l0.112,0.862c0.009,0.075-0.047,0.141-0.122,0.15c-0.075,0.009-0.141-0.037-0.159-0.112l-0.112-0.863C3.128,12.806,3.184,12.74,3.259,12.731z"/><path fill="#FFF" d="M3.259,12.722c0.084-0.009,0.159,0.047,0.169,0.122l0.112,0.862c0.009,0.075-0.047,0.15-0.131,0.159S3.25,13.819,3.24,13.743l-0.112-0.862C3.118,12.806,3.175,12.731,3.259,12.722z M3.4,13.847c0.066-0.009,0.122-0.075,0.113-0.141L3.4,12.844c-0.009-0.066-0.075-0.113-0.141-0.103s-0.122,0.075-0.113,0.141l0.113,0.863C3.268,13.809,3.334,13.856,3.4,13.847z"/><path fill="#F3F3F3" d="M2.293,11.681c0.075,0,0.141,0.056,0.141,0.131v1.959c0,0.075-0.066,0.131-0.141,0.131c-0.075,0-0.141-0.056-0.141-0.131v-1.959C2.162,11.737,2.218,11.681,2.293,11.681z"/><path fill="#FFF" d="M2.293,11.672c0.084,0,0.15,0.066,0.15,0.141v1.959c0,0.075-0.066,0.141-0.15,0.141s-0.15-0.066-0.15-0.141v-1.959C2.143,11.737,2.218,11.672,2.293,11.672z M2.293,13.894c0.066,0,0.131-0.056,0.131-0.122v-1.959c0-0.066-0.056-0.122-0.131-0.122c-0.066,0-0.131,0.056-0.131,0.122v1.959C2.171,13.837,2.228,13.894,2.293,13.894z"/><path fill="#F3F3F3" d="M1.356,12.731c0.075,0.009,0.131,0.066,0.131,0.141l-0.066,0.872c-0.009,0.075-0.075,0.131-0.15,0.122C1.196,13.856,1.14,13.8,1.14,13.725l0.066-0.872C1.215,12.778,1.281,12.722,1.356,12.731z"/><path fill="#FFF" d="M1.356,12.722c0.084,0.009,0.141,0.075,0.141,0.15l-0.066,0.872c-0.009,0.075-0.075,0.141-0.159,0.131c-0.084-0.009-0.141-0.075-0.141-0.15l0.066-0.872C1.206,12.769,1.271,12.712,1.356,12.722z M1.271,13.856c0.066,0,0.131-0.047,0.131-0.112l0.066-0.872c0-0.066-0.047-0.122-0.122-0.131c-0.066,0-0.131,0.047-0.131,0.113L1.15,13.725C1.15,13.79,1.206,13.847,1.271,13.856L1.271,13.856z"/><path fill="#F3F3F3" d="M0.653,11.512c0.075,0.019,0.122,0.084,0.112,0.159l-0.384,1.922c-0.019,0.075-0.084,0.122-0.159,0.103c-0.075-0.019-0.122-0.084-0.112-0.159l0.384-1.922C0.503,11.55,0.578,11.503,0.653,11.512z"/><path fill="#FFF" d="M0.653,11.503c0.084,0.019,0.131,0.094,0.122,0.169L0.39,13.594c-0.019,0.075-0.094,0.131-0.178,0.112c-0.084-0.019-0.131-0.094-0.122-0.169l0.384-1.922C0.493,11.54,0.568,11.493,0.653,11.503L0.653,11.503z M0.212,13.687c0.066,0.009,0.131-0.028,0.15-0.094l0.384-1.922c0.009-0.066-0.028-0.131-0.103-0.15c-0.066-0.009-0.131,0.028-0.15,0.094l-0.384,1.922C0.1,13.612,0.146,13.669,0.212,13.687z"/><path fill="#F3F3F3" d="M-0.472,12.356c0.075,0.019,0.122,0.094,0.103,0.169l-0.234,0.844c-0.019,0.075-0.094,0.112-0.169,0.094c-0.075-0.018-0.121-0.093-0.103-0.169c0,0,0,0,0,0l0.234-0.844C-0.622,12.375-0.547,12.337-0.472,12.356L-0.472,12.356z"/><path fill="#FFF" d="M-0.472,12.347c0.075,0.019,0.131,0.103,0.103,0.178l-0.234,0.844c-0.019,0.075-0.103,0.122-0.178,0.103c-0.075-0.019-0.131-0.103-0.103-0.178l0.234-0.844C-0.632,12.375-0.557,12.328-0.472,12.347L-0.472,12.347z M-0.782,13.444c0.066,0.019,0.141-0.019,0.159-0.084l0.234-0.844c0.019-0.066-0.019-0.131-0.094-0.15c-0.066-0.019-0.141,0.019-0.159,0.084l-0.234,0.844C-0.885,13.359-0.847,13.425-0.782,13.444z"/><path fill="#F3F3F3" d="M-0.932,11.034c0.075,0.028,0.103,0.112,0.075,0.178l-0.75,1.809c-0.028,0.066-0.113,0.103-0.178,0.066c-0.066-0.038-0.103-0.113-0.075-0.178l0.75-1.809C-1.082,11.034-0.997,10.997-0.932,11.034L-0.932,11.034z"/><path fill="#FFF" d="M-0.932,11.025c0.075,0.029,0.113,0.112,0.084,0.188l-0.75,1.809c-0.028,0.075-0.113,0.103-0.197,0.075c-0.075-0.029-0.113-0.112-0.084-0.187l0.75-1.809C-1.091,11.025-1.007,10.987-0.932,11.025z M-1.785,13.078c0.066,0.028,0.141,0,0.169-0.066l0.75-1.809c0.028-0.066-0.009-0.131-0.075-0.159c-0.066-0.028-0.141,0-0.169,0.066l-0.75,1.809C-1.879,12.975-1.85,13.05-1.785,13.078z"/><path fill="#F3F3F3" d="M-2.197,11.634c0.066,0.037,0.094,0.112,0.066,0.178l-0.394,0.778c-0.038,0.066-0.113,0.094-0.188,0.056c-0.066-0.037-0.094-0.112-0.066-0.178l0.394-0.778C-2.347,11.625-2.272,11.597-2.197,11.634z"/><path fill="#FFF" d="M-2.197,11.625c0.075,0.037,0.103,0.122,0.066,0.197L-2.525,12.6c-0.038,0.075-0.122,0.103-0.197,0.066c-0.075-0.037-0.103-0.122-0.066-0.197l0.394-0.778C-2.357,11.615-2.272,11.587-2.197,11.625z M-2.713,12.647c0.066,0.028,0.141,0.009,0.169-0.056l0.394-0.778c0.028-0.056,0-0.131-0.056-0.169c-0.066-0.028-0.141-0.009-0.169,0.056l-0.394,0.778C-2.797,12.534-2.769,12.609-2.713,12.647L-2.713,12.647z"/><path fill="#F3F3F3" d="M-2.385,10.247c0.066,0.047,0.084,0.131,0.038,0.187l-1.088,1.622c-0.037,0.066-0.122,0.075-0.187,0.037c-0.066-0.047-0.084-0.131-0.038-0.188l1.088-1.622C-2.535,10.219-2.45,10.2-2.385,10.247L-2.385,10.247z"/><path fill="#FFF" d="M-2.385,10.237c0.066,0.047,0.084,0.141,0.047,0.206l-1.087,1.622c-0.047,0.066-0.131,0.084-0.206,0.037c-0.066-0.047-0.084-0.141-0.047-0.206l1.088-1.622C-2.544,10.209-2.45,10.19-2.385,10.237L-2.385,10.237z M-3.622,12.084c0.056,0.037,0.141,0.028,0.178-0.028l1.088-1.622c0.037-0.056,0.019-0.131-0.038-0.169c-0.056-0.037-0.141-0.028-0.178,0.028l-1.088,1.613C-3.697,11.962-3.679,12.047-3.622,12.084L-3.622,12.084z"/><path fill="#F3F3F3" d="M-3.754,10.594c0.056,0.047,0.075,0.131,0.028,0.187l-0.544,0.684c-0.047,0.056-0.131,0.066-0.187,0.019c-0.056-0.047-0.075-0.131-0.028-0.188l0.544-0.684C-3.894,10.556-3.81,10.547-3.754,10.594z"/><path fill="#FFF" d="M-3.744,10.584c0.066,0.047,0.075,0.141,0.028,0.206l-0.544,0.684C-4.307,11.54-4.4,11.55-4.466,11.494c-0.066-0.047-0.075-0.141-0.028-0.206l0.544-0.684C-3.904,10.537-3.81,10.528-3.744,10.584z M-4.447,11.475c0.056,0.047,0.131,0.038,0.178-0.019l0.544-0.684c0.038-0.056,0.028-0.131-0.028-0.178c-0.056-0.047-0.131-0.038-0.178,0.019l-0.544,0.684C-4.513,11.353-4.504,11.437-4.447,11.475L-4.447,11.475z"/><path fill="#F3F3F3" d="M-3.66,9.187c0.056,0.056,0.056,0.141,0,0.187l-1.387,1.378c-0.056,0.056-0.141,0.047-0.188,0c-0.047-0.047-0.056-0.141,0-0.187l1.378-1.378C-3.8,9.131-3.716,9.131-3.66,9.187z"/><path fill="#FFF" d="M-3.65,9.178c0.056,0.057,0.056,0.149,0,0.206l-1.388,1.378c-0.057,0.056-0.149,0.056-0.206,0c-0.056-0.057-0.056-0.149,0-0.206l1.387-1.378C-3.799,9.122-3.708,9.122-3.65,9.178z M-5.235,10.753c0.047,0.047,0.131,0.047,0.178,0l1.388-1.378c0.047-0.047,0.047-0.131,0-0.178c-0.047-0.047-0.131-0.047-0.178,0l-1.388,1.378C-5.282,10.622-5.282,10.697-5.235,10.753L-5.235,10.753z"/><path fill="#F3F3F3" d="M-5.066,9.262c0.047,0.056,0.047,0.141-0.009,0.187l-0.666,0.563c-0.056,0.047-0.141,0.037-0.188-0.019c-0.047-0.056-0.047-0.141,0.009-0.188l0.666-0.562C-5.197,9.197-5.113,9.206-5.066,9.262z"/><path fill="#FFF" d="M-5.057,9.253C-5,9.319-5.01,9.412-5.066,9.459l-0.666,0.562c-0.056,0.056-0.15,0.047-0.206-0.019c-0.056-0.066-0.047-0.159,0.009-0.206l0.666-0.562C-5.207,9.178-5.113,9.187-5.057,9.253L-5.057,9.253z M-5.919,9.994c0.047,0.056,0.122,0.056,0.178,0.019l0.666-0.563c0.047-0.047,0.056-0.122,0.009-0.178c-0.047-0.056-0.122-0.056-0.178-0.019L-5.91,9.815C-5.966,9.862-5.966,9.937-5.919,9.994L-5.919,9.994z"/><path fill="#F3F3F3" d="M-4.691,7.912c0.047,0.066,0.028,0.15-0.038,0.188L-6.36,9.187C-6.425,9.225-6.51,9.206-6.547,9.15C-6.594,9.084-6.575,9-6.51,8.962l1.631-1.087C-4.822,7.837-4.738,7.856-4.691,7.912L-4.691,7.912z"/><path fill="#FFF" d="M-4.682,7.912c0.047,0.066,0.028,0.159-0.038,0.206L-6.35,9.206C-6.416,9.253-6.51,9.234-6.557,9.159C-6.604,9.094-6.585,9-6.519,8.953l1.631-1.088C-4.822,7.819-4.729,7.837-4.682,7.912L-4.682,7.912z M-6.538,9.14C-6.5,9.197-6.425,9.215-6.369,9.178l1.631-1.088c0.056-0.037,0.075-0.112,0.028-0.178c-0.037-0.056-0.112-0.075-0.169-0.038L-6.51,8.962C-6.566,9.009-6.575,9.084-6.538,9.14L-6.538,9.14z"/><path fill="#F3F3F3" d="M-6.088,7.715c0.038,0.066,0.019,0.15-0.047,0.188l-0.759,0.431c-0.066,0.037-0.15,0.009-0.187-0.056C-7.119,8.212-7.1,8.128-7.035,8.09l0.759-0.431C-6.21,7.622-6.125,7.65-6.088,7.715L-6.088,7.715z"/><path fill="#FFF" d="M-6.079,7.706c0.037,0.075,0.019,0.159-0.047,0.197l-0.759,0.431C-6.95,8.372-7.044,8.344-7.082,8.278C-7.119,8.203-7.1,8.119-7.035,8.081l0.759-0.431C-6.21,7.612-6.116,7.64-6.079,7.706L-6.079,7.706z M-7.072,8.269c0.038,0.066,0.113,0.084,0.169,0.047l0.759-0.431c0.056-0.038,0.075-0.113,0.047-0.169C-6.135,7.65-6.21,7.631-6.266,7.669L-7.025,8.1C-7.082,8.128-7.1,8.203-7.072,8.269L-7.072,8.269z"/><path fill="#F3F3F3" d="M-5.46,6.469c0.028,0.075,0,0.15-0.075,0.178l-1.809,0.75c-0.066,0.028-0.15-0.009-0.178-0.075c-0.028-0.075,0-0.15,0.075-0.178l1.809-0.75C-5.572,6.365-5.488,6.394-5.46,6.469L-5.46,6.469z"/><path fill="#FFF" d="M-5.45,6.459c0.028,0.075,0,0.159-0.075,0.197l-1.809,0.75C-7.41,7.434-7.494,7.397-7.522,7.322c-0.028-0.075,0-0.159,0.075-0.197l1.809-0.75C-5.563,6.346-5.479,6.384-5.45,6.459L-5.45,6.459z M-7.504,7.312C-7.475,7.378-7.4,7.406-7.344,7.387l1.809-0.75c0.066-0.028,0.094-0.103,0.066-0.169c-0.028-0.066-0.103-0.094-0.159-0.075l-1.809,0.75C-7.504,7.172-7.532,7.247-7.504,7.312L-7.504,7.312z"/><path fill="#F3F3F3" d="M-6.782,6c0.028,0.075-0.009,0.15-0.084,0.178L-7.691,6.45c-0.066,0.028-0.15-0.019-0.169-0.084C-7.888,6.29-7.85,6.215-7.775,6.187l0.825-0.272C-6.885,5.887-6.81,5.925-6.782,6z"/><path fill="#FFF" d="M-6.772,5.99c0.028,0.075-0.009,0.159-0.094,0.188L-7.691,6.45C-7.766,6.478-7.85,6.431-7.879,6.356c-0.028-0.075,0.009-0.159,0.094-0.187l0.825-0.272C-6.885,5.878-6.8,5.915-6.772,5.99L-6.772,5.99z M-7.86,6.347C-7.841,6.412-7.766,6.45-7.7,6.431l0.825-0.272C-6.81,6.14-6.782,6.065-6.8,6S-6.894,5.897-6.96,5.915l-0.825,0.272C-7.85,6.215-7.879,6.281-7.86,6.347z"/><path fill="#F3F3F3" d="M-5.938,4.884c0.019,0.075-0.028,0.15-0.103,0.159l-1.922,0.375c-0.075,0.019-0.141-0.038-0.159-0.113c-0.019-0.075,0.028-0.15,0.103-0.159l1.922-0.375C-6.022,4.762-5.947,4.809-5.938,4.884L-5.938,4.884z"/><path fill="#FFF" d="M-5.919,4.884C-5.9,4.969-5.957,5.044-6.032,5.062l-1.922,0.375C-8.029,5.456-8.104,5.4-8.122,5.315C-8.141,5.231-8.085,5.156-8.01,5.137l1.922-0.375C-6.013,4.744-5.938,4.8-5.919,4.884z M-8.104,5.306c0.009,0.066,0.075,0.112,0.141,0.103l1.922-0.375c0.066-0.009,0.112-0.084,0.094-0.15c-0.009-0.066-0.075-0.113-0.141-0.103L-8.01,5.156C-8.075,5.175-8.122,5.24-8.104,5.306L-8.104,5.306z"/><path fill="#F3F3F3" d="M-7.138,4.162c0.009,0.075-0.038,0.141-0.113,0.15l-0.862,0.103c-0.075,0.009-0.141-0.047-0.15-0.122c-0.009-0.075,0.037-0.141,0.112-0.15l0.863-0.103C-7.222,4.031-7.147,4.087-7.138,4.162z"/><path fill="#FFF" d="M-7.129,4.162c0.009,0.084-0.047,0.159-0.122,0.169l-0.862,0.103c-0.075,0.009-0.15-0.047-0.159-0.131s0.047-0.159,0.122-0.169l0.863-0.103C-7.213,4.022-7.138,4.078-7.129,4.162L-7.129,4.162z M-8.263,4.294c0.009,0.066,0.075,0.122,0.141,0.112l0.862-0.103c0.066-0.009,0.113-0.075,0.103-0.141C-7.166,4.097-7.232,4.04-7.297,4.05L-8.16,4.153C-8.225,4.162-8.272,4.228-8.263,4.294z"/><path fill="#F3F3F3" d="M-6.088,3.253c0,0.075-0.056,0.141-0.131,0.141h-1.959c-0.075,0-0.131-0.066-0.131-0.141c0-0.075,0.056-0.141,0.131-0.141h1.959C-6.144,3.112-6.088,3.178-6.088,3.253L-6.088,3.253z"/><path fill="#FFF" d="M-6.079,3.253c0,0.084-0.066,0.15-0.141,0.15h-1.959c-0.075,0-0.141-0.066-0.141-0.15c0-0.084,0.066-0.15,0.141-0.15h1.959C-6.144,3.103-6.079,3.169-6.079,3.253L-6.079,3.253z M-8.3,3.244c0,0.066,0.056,0.131,0.122,0.131h1.959c0.066,0,0.122-0.056,0.122-0.131c0-0.066-0.056-0.131-0.122-0.131h-1.959C-8.244,3.122-8.3,3.178-8.3,3.244L-8.3,3.244z"/><path fill="#E2E2E2" d="M-7.129,2.306c-0.009,0.075-0.066,0.131-0.141,0.131l-0.872-0.066c-0.075-0.009-0.131-0.075-0.122-0.15C-8.254,2.147-8.197,2.09-8.122,2.09l0.872,0.066C-7.185,2.165-7.129,2.231-7.129,2.306z"/><path fill="#FFF" d="M-7.119,2.306c-0.009,0.084-0.075,0.141-0.15,0.141l-0.872-0.066c-0.075-0.009-0.141-0.075-0.131-0.159c0.009-0.084,0.075-0.141,0.15-0.141l0.872,0.066C-7.175,2.156-7.119,2.231-7.119,2.306L-7.119,2.306z M-8.263,2.222C-8.272,2.287-8.216,2.353-8.15,2.353l0.872,0.066c0.066,0,0.122-0.047,0.131-0.122c0.009-0.066-0.047-0.131-0.113-0.131L-8.132,2.1C-8.197,2.1-8.254,2.156-8.263,2.222L-8.263,2.222z"/><path fill="#F3F3F3" d="M-5.919,1.622c-0.019,0.075-0.084,0.122-0.159,0.113L-8,1.34c-0.075-0.019-0.122-0.084-0.103-0.159s0.084-0.122,0.159-0.112l1.922,0.384C-5.957,1.472-5.91,1.547-5.919,1.622L-5.919,1.622z"/><path fill="#FFF" d="M-5.91,1.622c-0.019,0.084-0.094,0.131-0.169,0.122L-8,1.359C-8.075,1.34-8.132,1.265-8.113,1.181c0.019-0.084,0.094-0.131,0.169-0.122l1.922,0.384C-5.947,1.462-5.9,1.537-5.91,1.622L-5.91,1.622z M-8.094,1.181C-8.104,1.247-8.066,1.312-8,1.331l1.922,0.384c0.066,0.009,0.131-0.028,0.15-0.103c0.009-0.066-0.028-0.131-0.094-0.15l-1.922-0.384C-8.019,1.069-8.075,1.115-8.094,1.181L-8.094,1.181z"/><path fill="#F3F3F3" d="M-6.763,0.497C-6.781,0.572-6.856,0.618-6.931,0.6c0,0,0,0,0,0l-0.844-0.234C-7.85,0.347-7.888,0.272-7.869,0.197c0.018-0.075,0.094-0.121,0.169-0.103c0,0,0,0,0,0l0.844,0.234C-6.782,0.347-6.744,0.422-6.763,0.497L-6.763,0.497z"/><path fill="#FFF" d="M-6.754,0.497C-6.772,0.572-6.857,0.628-6.932,0.6l-0.844-0.234C-7.85,0.347-7.897,0.262-7.879,0.187C-7.86,0.112-7.775,0.056-7.7,0.084l0.844,0.234C-6.782,0.337-6.735,0.412-6.754,0.497L-6.754,0.497z M-7.85,0.187c-0.019,0.066,0.019,0.141,0.084,0.159l0.844,0.234c0.066,0.019,0.131-0.019,0.15-0.094c0.019-0.066-0.019-0.141-0.084-0.159L-7.7,0.093C-7.766,0.084-7.832,0.122-7.85,0.187L-7.85,0.187z"/><path fill="#F3F3F3" d="M-5.441,0.047C-5.469,0.122-5.554,0.15-5.619,0.122l-1.809-0.75c-0.066-0.028-0.103-0.112-0.075-0.178c0.028-0.075,0.113-0.103,0.178-0.075l1.809,0.75C-5.441-0.103-5.413-0.019-5.441,0.047L-5.441,0.047z"/><path fill="#FFF" d="M-5.432,0.056C-5.46,0.131-5.544,0.169-5.619,0.14l-1.809-0.75c-0.075-0.028-0.103-0.112-0.075-0.197c0.029-0.075,0.112-0.113,0.188-0.084l1.809,0.75C-5.432-0.103-5.404-0.019-5.432,0.056z M-7.485-0.797c-0.028,0.066,0,0.141,0.066,0.169l1.809,0.75C-5.544,0.15-5.479,0.112-5.45,0.047c0.028-0.066,0-0.141-0.066-0.169l-1.809-0.75C-7.391-0.891-7.466-0.863-7.485-0.797L-7.485-0.797z"/><path fill="#F3F3F3" d="M-6.05-1.219c-0.037,0.066-0.112,0.094-0.178,0.066l-0.778-0.394C-7.072-1.575-7.1-1.66-7.063-1.735C-7.025-1.8-6.95-1.828-6.885-1.8l0.778,0.394C-6.041-1.369-6.013-1.285-6.05-1.219L-6.05-1.219z"/><path fill="#FFF" d="M-6.041-1.21c-0.038,0.075-0.122,0.103-0.197,0.066l-0.778-0.394C-7.091-1.575-7.119-1.66-7.082-1.735C-7.044-1.81-6.96-1.838-6.885-1.8l0.778,0.394C-6.032-1.378-6.004-1.285-6.041-1.21L-6.041-1.21z M-7.054-1.725C-7.082-1.66-7.063-1.585-6.997-1.556l0.778,0.394c0.056,0.028,0.131,0,0.169-0.056c0.028-0.066,0.009-0.141-0.056-0.169l-0.788-0.394C-6.951-1.809-7.026-1.791-7.054-1.725L-7.054-1.725z"/><path fill="#F3F3F3" d="M-4.672-1.397C-4.719-1.331-4.794-1.313-4.86-1.36l-1.622-1.078C-6.547-2.475-6.557-2.56-6.519-2.625c0.038-0.066,0.122-0.084,0.188-0.038L-4.7-1.575C-4.644-1.538-4.625-1.453-4.672-1.397L-4.672-1.397z"/><path fill="#FFF" d="M-4.663-1.388C-4.71-1.322-4.804-1.303-4.869-1.341l-1.622-1.088C-6.557-2.475-6.575-2.56-6.529-2.635C-6.482-2.7-6.388-2.719-6.322-2.681L-4.7-1.594C-4.625-1.547-4.616-1.453-4.663-1.388L-4.663-1.388z M-6.51-2.625c-0.037,0.056-0.028,0.141,0.028,0.178L-4.85-1.36c0.056,0.038,0.131,0.019,0.169-0.037c0.037-0.056,0.028-0.141-0.028-0.178l-1.631-1.088C-6.397-2.7-6.472-2.681-6.51-2.625L-6.51-2.625z"/><path fill="#F3F3F3" d="M-5.019-2.756C-5.066-2.7-5.15-2.681-5.207-2.728l-0.684-0.534C-5.947-3.31-5.957-3.394-5.91-3.45c0.047-0.056,0.131-0.075,0.188-0.028l0.684,0.534C-4.982-2.897-4.972-2.813-5.019-2.756z"/><path fill="#FFF" d="M-5.01-2.747C-5.057-2.681-5.15-2.672-5.216-2.719L-5.9-3.253C-5.966-3.3-5.975-3.394-5.929-3.459c0.047-0.066,0.141-0.075,0.206-0.028l0.684,0.534C-4.972-2.906-4.963-2.813-5.01-2.747L-5.01-2.747z M-5.91-3.45c-0.047,0.056-0.037,0.131,0.019,0.178l0.684,0.534C-5.15-2.7-5.075-2.71-5.029-2.766c0.047-0.056,0.038-0.131-0.019-0.178l-0.684-0.534C-5.788-3.516-5.863-3.506-5.91-3.45L-5.91-3.45z"/><path fill="#F3F3F3" d="M-3.622-2.663c-0.056,0.056-0.141,0.056-0.187,0l-1.397-1.378c-0.056-0.056-0.047-0.141,0-0.188c0.056-0.056,0.141-0.056,0.187,0l1.388,1.378C-3.575-2.803-3.575-2.71-3.622-2.663L-3.622-2.663z"/><path fill="#FFF" d="M-3.622-2.653c-0.057,0.056-0.149,0.056-0.206,0l-1.388-1.378c-0.056-0.057-0.056-0.149,0-0.206c0.057-0.056,0.149-0.056,0.206,0l1.388,1.378C-3.557-2.803-3.557-2.71-3.622-2.653L-3.622-2.653z M-5.197-4.219c-0.047,0.047-0.047,0.131,0,0.178l1.387,1.378c0.047,0.047,0.131,0.047,0.178,0c0.047-0.047,0.047-0.131,0-0.178l-1.387-1.387C-5.066-4.275-5.141-4.275-5.197-4.219L-5.197-4.219z"/><path fill="#F3F3F3" d="M-3.707-4.06c-0.056,0.047-0.141,0.047-0.188-0.009l-0.572-0.656c-0.047-0.056-0.037-0.141,0.019-0.187C-4.391-4.96-4.307-4.96-4.26-4.903l0.572,0.656C-3.641-4.2-3.65-4.116-3.707-4.06L-3.707-4.06z"/><path fill="#FFF" d="M-3.697-4.06c-0.066,0.056-0.15,0.047-0.206-0.009l-0.572-0.656c-0.056-0.056-0.047-0.15,0.019-0.206c0.066-0.056,0.15-0.047,0.206,0.009l0.572,0.656C-3.632-4.2-3.632-4.106-3.697-4.06z M-4.447-4.913c-0.056,0.047-0.056,0.122-0.019,0.178l0.572,0.656c0.047,0.047,0.122,0.056,0.178,0.009C-3.66-4.116-3.66-4.191-3.697-4.247l-0.572-0.656C-4.316-4.96-4.391-4.96-4.447-4.913L-4.447-4.913z"/><path fill="#F3F3F3" d="M-2.357-3.703c-0.066,0.047-0.15,0.028-0.188-0.038l-1.097-1.622C-3.679-5.428-3.66-5.513-3.604-5.55c0.066-0.047,0.15-0.028,0.188,0.038l1.087,1.622C-2.282-3.825-2.3-3.741-2.357-3.703L-2.357-3.703z"/><path fill="#FFF" d="M-2.357-3.694c-0.066,0.047-0.159,0.028-0.206-0.037L-3.65-5.353C-3.697-5.419-3.679-5.513-3.604-5.56c0.066-0.047,0.159-0.028,0.206,0.037L-2.31-3.9C-2.263-3.825-2.282-3.741-2.357-3.694z M-3.594-5.541c-0.056,0.037-0.075,0.112-0.037,0.169l1.087,1.622c0.038,0.056,0.113,0.066,0.178,0.028C-2.31-3.76-2.291-3.835-2.329-3.891l-1.087-1.613C-3.454-5.56-3.538-5.578-3.594-5.541L-3.594-5.541z"/><path fill="#F3F3F3" d="M-2.16-5.091c-0.066,0.037-0.15,0.019-0.187-0.047l-0.431-0.759c-0.037-0.066-0.009-0.15,0.056-0.188c0.066-0.037,0.15-0.019,0.187,0.047l0.431,0.759C-2.075-5.213-2.094-5.128-2.16-5.091L-2.16-5.091z"/><path fill="#FFF" d="M-2.16-5.081c-0.075,0.037-0.159,0.019-0.197-0.047l-0.431-0.759c-0.037-0.066-0.019-0.159,0.056-0.197c0.075-0.037,0.159-0.019,0.197,0.047l0.431,0.759C-2.066-5.213-2.085-5.128-2.16-5.081L-2.16-5.081z M-2.722-6.075c-0.056,0.037-0.084,0.112-0.047,0.169l0.431,0.759C-2.3-5.091-2.225-5.072-2.169-5.1c0.056-0.037,0.084-0.113,0.047-0.169l-0.431-0.759C-2.582-6.085-2.666-6.113-2.722-6.075L-2.722-6.075z"/><path fill="#F3F3F3" d="M-0.913-4.472c-0.075,0.028-0.15,0-0.178-0.066L-1.85-6.347c-0.028-0.066,0.009-0.15,0.075-0.178c0.075-0.028,0.15,0,0.178,0.066l0.759,1.809C-0.81-4.585-0.847-4.5-0.913-4.472L-0.913-4.472z"/><path fill="#FFF" d="M-0.913-4.463c-0.075,0.028-0.159,0-0.197-0.075l-0.759-1.809C-1.898-6.422-1.86-6.506-1.785-6.535c0.075-0.028,0.159,0,0.197,0.075l0.759,1.809C-0.8-4.585-0.838-4.5-0.913-4.463L-0.913-4.463z M-1.766-6.516C-1.832-6.488-1.86-6.413-1.832-6.356l0.759,1.809c0.028,0.066,0.103,0.094,0.169,0.066C-0.838-4.51-0.81-4.585-0.838-4.641L-1.597-6.45C-1.635-6.516-1.701-6.544-1.766-6.516L-1.766-6.516z"/><path fill="#F3F3F3" d="M-0.454-5.803c-0.075,0.028-0.15-0.009-0.178-0.084l-0.272-0.825c-0.028-0.066,0.019-0.15,0.084-0.169c0.066-0.019,0.15,0.009,0.178,0.084l0.272,0.825C-0.341-5.906-0.379-5.831-0.454-5.803L-0.454-5.803z"/><path fill="#FFF" d="M-0.444-5.794c-0.075,0.028-0.159-0.009-0.187-0.084l-0.272-0.825C-0.932-6.778-0.885-6.863-0.81-6.891c0.075-0.028,0.159,0.009,0.187,0.084l0.272,0.825C-0.332-5.906-0.369-5.822-0.444-5.794z M-0.81-6.872c-0.066,0.019-0.103,0.094-0.084,0.159l0.272,0.825c0.019,0.066,0.094,0.094,0.159,0.075c0.066-0.019,0.103-0.094,0.084-0.159L-0.65-6.797C-0.669-6.86-0.735-6.895-0.798-6.876C-0.802-6.875-0.806-6.874-0.81-6.872L-0.81-6.872z"/><path fill="#F3F3F3" d="M0.653-4.95c-0.075,0.019-0.15-0.028-0.159-0.103L0.1-6.975C0.081-7.05,0.137-7.116,0.212-7.135c0.075-0.019,0.15,0.028,0.159,0.103L0.765-5.11C0.775-5.044,0.728-4.969,0.653-4.95z"/><path fill="#FFF" d="M0.653-4.941C0.568-4.922,0.493-4.978,0.475-5.053L0.081-6.975C0.062-7.05,0.118-7.135,0.193-7.144c0.084-0.019,0.159,0.038,0.178,0.113L0.765-5.11C0.784-5.035,0.737-4.96,0.653-4.941L0.653-4.941z M0.212-7.125C0.146-7.116,0.1-7.05,0.109-6.975l0.394,1.922c0.009,0.066,0.084,0.112,0.15,0.094c0.066-0.009,0.112-0.075,0.103-0.15L0.362-7.032C0.343-7.097,0.278-7.135,0.212-7.125L0.212-7.125z"/><path fill="#F3F3F3" d="M1.365-6.169C1.29-6.16,1.225-6.206,1.206-6.281L1.093-7.144C1.084-7.219,1.14-7.285,1.215-7.294C1.29-7.303,1.356-7.256,1.375-7.181l0.112,0.862C1.496-6.244,1.44-6.178,1.365-6.169L1.365-6.169z"/><path fill="#FFF" d="M1.365-6.16C1.281-6.15,1.206-6.206,1.196-6.282L1.084-7.144c-0.009-0.075,0.047-0.15,0.131-0.159C1.3-7.313,1.375-7.256,1.384-7.181l0.112,0.862C1.506-6.244,1.45-6.169,1.365-6.16z M1.225-7.285C1.159-7.275,1.103-7.21,1.112-7.144l0.113,0.863C1.234-6.216,1.3-6.169,1.365-6.178c0.066-0.009,0.122-0.075,0.113-0.141L1.365-7.181C1.356-7.247,1.29-7.294,1.225-7.285L1.225-7.285z"/></g><path fill="#CD151E" d="M19.584,4.416l-8.85,6.291l2.625,2.606L19.584,4.416L19.584,4.416z"/><path fill="#FA5153" d="M10.744,10.688l1.322,1.303l7.519-7.575L10.744,10.688L10.744,10.688z"/><path fill="#ACACAC" d="M10.744,10.688l2.625,2.606l-8.85,6.291L10.744,10.688L10.744,10.688z"/><path fill="#EEE" d="M4.519,19.584l7.547-7.594l-1.322-1.303L4.519,19.584L4.519,19.584z"/></svg>