<svg xmlns="http://www.w3.org/2000/svg" enable-background="new 0 0 24 24" viewBox="0 0 24 24"><path fill="#2F55CC" d="M0.035,13.424c0.174,3.843,1.169,6.883,3.465,8.541c2.284,1.648,5.996,2.171,9.909,2.006c3.798-0.16,6.883-1.168,8.535-3.468c1.649-2.297,2.175-5.687,2.034-9.801c-0.133-3.831-1.139-6.914-3.408-8.598c-2.269-1.684-5.68-2.269-9.966-2.064C8.658,0.133,6.902,0.386,5.477,0.957c-1.47,0.59-2.606,1.422-3.437,2.58C0.369,5.863-0.148,9.376,0.035,13.424z M21.315,9.549l-3.426,6.976h-1.181l3.426-6.976H21.315z M16.628,9.55L16.628,9.55l1.361,2.789l-0.592,1.204L15.448,9.55H16.628z M12.521,9.372c1.389,0,2.739,1.166,2.783,2.62v2.782H14.26v-2.782c-0.021-0.784-0.853-1.566-1.739-1.566c-0.996,0-1.729,0.851-1.729,1.647c0,1.127,0.794,1.642,1.729,1.642h0.368v1.059h-0.368c-1.538-0.001-2.785-0.986-2.785-2.701C9.736,10.674,10.983,9.372,12.521,9.372z M3.849,10.528c0-0.639,0.517-1.156,1.155-1.156h1.599c1.49,0,2.725,1.209,2.725,2.7s-1.153,2.701-2.726,2.701H6.107v-1.064h0.495c0.946,0,1.636-0.733,1.636-1.637c0-0.904-0.732-1.637-1.636-1.637H5.003c-0.058,0-0.108,0.039-0.124,0.092v0.001v5.806h-1.03V10.528z"/></svg>