<svg xmlns="http://www.w3.org/2000/svg" enable-background="new 0 0 24 24" viewBox="0 0 24 24"><path fill="#EA5A2A" d="M5.072,0C2.282,0,0,2.282,0,5.067v13.86C0,21.718,2.282,24,5.072,24h13.856C21.718,24,24,21.718,24,18.932V5.069c0-2.786-2.282-5.068-5.072-5.068V0H5.072z M16.25,16.951V16.95c-1.494,2.582-4.815,3.477-7.402,1.993c-1.226,2.133-2.94,0.461-2.266-0.707l0.841-1.457c0.316-0.552,1.028-0.745,1.58-0.423C10,16.934,8.998,16.35,9.994,16.929c1.478,0.851,3.396,0.337,4.253-1.141c0.851-1.479,0.337-3.396-1.14-4.254c-0.953-0.546-0.032-0.022-0.996-0.568c-1.317-0.761-0.182-2.781,1.156-2.009c0.996,0.578-0.006-0.006,0.991,0.574C16.85,11.032,17.744,14.369,16.25,16.951z M17.418,5.765c-0.911,1.581-0.873,1.543-1.018,1.688c-0.349,0.348-0.873,0.466-1.419,0.193c-0.996-0.578,0.006,0.006-0.991-0.574c-1.479-0.851-3.396-0.337-4.253,1.141s-0.337,3.396,1.14,4.254c0,0,0.991,0.568,0.996,0.568c1.317,0.761,0.182,2.781-1.156,2.009c-0.996-0.578,0.006,0.006-0.991-0.574C7.146,12.98,6.251,9.643,7.74,7.056c1.495-2.582,4.815-3.477,7.402-1.993l0.257-0.45C16.164,3.279,18.184,4.435,17.418,5.765z"/></svg>