<svg xmlns="http://www.w3.org/2000/svg" enable-background="new 0 0 24 24" viewBox="0 0 24 24"><path fill="#7DC852" d="M24,12L12,0L0,12l12,12L24,12z M12,3.196L12,3.196l4.418,4.419C14.973,7.229,13.488,7.029,12,7.029S9.026,7.228,7.582,7.617L12,3.196z M3.319,12.122C5.822,10.284,8.834,9.29,12,9.29s6.178,0.994,8.681,2.832l-3.103,3.101c-1.697-1.08-3.636-1.622-5.578-1.622s-3.881,0.542-5.578,1.622L3.319,12.122z M12,15.862c1.397,0,2.741,0.35,3.931,1.008L12,20.804L8.069,16.87C9.259,16.212,10.603,15.862,12,15.862z"/></svg>