<svg xmlns="http://www.w3.org/2000/svg" enable-background="new 0 0 24 24" viewBox="0 0 24 24"><polygon fill="#CBCCCE" points="24 3.61 19.111 3.61 19.11 3.605 19.11 5.897 24 5.897"/><rect width="4.889" height="2.284" x="19.111" y="11.016" fill="#7E8082"/><rect width="4.89" height="2.29" x="19.11" y="7.284" fill="#A2A5A7"/><rect width="4.89" height="2.285" x="12.89" y="7.183" fill="#952023"/><rect width="4.89" height="2.285" x="12.89" y="18.108" fill="#211D1E"/><rect width="4.89" height="2.282" x="12.89" y="10.911" fill="#600E15"/><rect width="4.89" height="2.285" x="19.11" y="18.215" fill="#211D1E"/><rect width="4.89" height="2.285" x="12.89" y="3.5" fill="#E2262D"/><rect width="4.889" height="2.285" x="19.111" y="14.484" fill="#565658"/><rect width="11.505" height="2.285" y="3.5" fill="#CBCCCE"/><rect width="4.89" height="2.285" x="12.89" y="14.378" fill="#2A1213"/><rect width="11.505" height="2.285" y="18.108" fill="#211D1E"/><rect width="11.505" height="2.282" y="10.911" fill="#7E8082"/><rect width="11.505" height="2.285" y="14.378" fill="#565658"/><rect width="11.505" height="2.285" y="7.183" fill="#A2A5A7"/></svg>