<svg xmlns="http://www.w3.org/2000/svg" enable-background="new 0 0 24 24" viewBox="0 0 24 24"><path fill="#1F99F8" d="M12,24c6.627,0,12-5.375,12-12c0-6.629-5.373-12-12-12S0,5.371,0,12C0,18.625,5.374,24,12,24z M17.688,8.544c1.214,1.051,1.935,2.48,2.028,4.025c0.092,1.497-0.419,2.945-1.434,4.068c-1.143,1.262-3.189,3.225-3.276,3.309c-0.27,0.256-0.615,0.385-0.96,0.385c-0.368,0-0.732-0.145-1.006-0.43c-0.531-0.559-0.512-1.439,0.044-1.971c0.021-0.02,2.063-1.977,3.137-3.166c0.508-0.563,0.764-1.283,0.719-2.027c-0.048-0.789-0.428-1.529-1.07-2.084c-0.844-0.73-2.51-0.893-3.552,0.044c-0.621,0.556-1.373,1.376-1.38,1.384c-0.521,0.566-1.399,0.604-1.966,0.084c-0.564-0.521-0.604-1.404-0.082-1.971c0.034-0.037,0.85-0.926,1.571-1.573C12.44,6.843,15.682,6.808,17.688,8.544z M5.719,7.364c1.142-1.263,3.189-3.225,3.275-3.309C9.549,3.523,10.429,3.544,10.96,4.1c0.53,0.557,0.512,1.439-0.044,1.971c-0.021,0.02-2.061,1.976-3.137,3.164c-0.508,0.564-0.764,1.283-0.719,2.027c0.049,0.789,0.428,1.529,1.07,2.086c0.844,0.73,2.51,0.891,3.553-0.043c0.619-0.559,1.372-1.377,1.38-1.386c0.52-0.567,1.4-0.603,1.965-0.081c0.565,0.52,0.603,1.402,0.083,1.969c-0.035,0.035-0.852,0.924-1.572,1.572c-1.005,0.902-2.336,1.357-3.666,1.357c-1.287,0-2.573-0.426-3.561-1.281c-1.214-1.049-1.934-2.479-2.029-4.024C4.193,9.932,4.703,8.487,5.719,7.364z"/></svg>