<svg xmlns="http://www.w3.org/2000/svg" enable-background="new 0 0 24 24" viewBox="0 0 24 24"><path fill="#209AF8" d="M12.002,24c2.59,0,5.058-0.814,7.136-2.352v0.001c0.093-0.068,0.093-0.206,0.001-0.276c-1.043-0.786-2.58-1.382-4.208-2.013c-4.098-1.59-8.557-3.372-8.557-8.648c0-4.93,4.502-7.517,10.762-7.517c0.965,0,1.889,0.06,2.744,0.178c0.166,0.022,0.265-0.185,0.138-0.299C17.816,1.091,14.967,0,12.002,0C5.373,0,0,5.362,0,12C0,18.629,5.362,24,12.002,24z"/><path fill="#209AF8" d="M23.889,10.774c-2.504-2.079-4.53-2.926-6.991-2.926c-4.071,0-3.884,2.524-3.884,2.595c0,2.061,2.519,3.001,5.436,4.088c1.503,0.56,3.058,1.141,4.484,1.932c0.091,0.051,0.206,0.009,0.245-0.088c0.914-2.341,0.868-4.366,0.771-5.482v-0.001C23.946,10.846,23.924,10.803,23.889,10.774z"/></svg>