<svg xmlns="http://www.w3.org/2000/svg" enable-background="new 0 0 24 24" viewBox="0 0 24 24"><path fill="#312E33" d="M6.309,3H1.258C0.562,3,0,3.553,0,4.233v15.534C0,20.447,0.562,21,1.268,21h21.464C23.438,21,24,20.447,24,19.767V4.233C23.991,3.553,23.428,3,22.727,3h-5.052c-0.691,0-1.268,0.553-1.268,1.233v1.856H7.577V4.233C7.577,3.553,7.005,3,6.309,3z M17.056,10.443c1.745,0,3.165,1.392,3.165,3.113c0,1.73-1.42,3.122-3.165,3.122c-1.759,0-3.174-1.392-3.174-3.122C13.882,11.84,15.298,10.443,17.056,10.443z M10.109,13.565c0,1.72-1.415,3.112-3.174,3.112v0.001c-1.745,0-3.165-1.392-3.165-3.113c0-1.73,1.415-3.122,3.165-3.122C8.693,10.443,10.109,11.835,10.109,13.565z"/></svg>