<svg xmlns="http://www.w3.org/2000/svg" enable-background="new 0 0 24 24" viewBox="0 0 24 24"><path fill="#FF9800" d="M23.977,8.171c0.103,1.315-0.123,2.891-1.006,2.969c-1.442,0.127-0.69-1.435-0.671-2.375c0.053-2.725-2.312-4.618-4.629-4.618c-0.656,0-2.181,0.438-1.946-0.924c0.106-0.6,0.623-0.592,1.14-0.66C20.762,2.053,23.703,4.688,23.977,8.171L23.977,8.171z"/><path fill="#F44336" d="M17.604,11.337c1.675,0.901,3.687,1.35,3.354,4.024c-0.08,0.641-0.474,1.497-0.872,2.044c-2.831,3.898-11.371,5.536-16.703,2.574c-1.788-0.994-3.639-2.448-3.354-5.344c0.246-2.493,1.95-4.424,3.623-6.069c1.596-1.57,3.278-2.798,5.567-3.364c2.484-0.614,3.218,1.422,2.549,3.43c1.439-0.095,4.488-1.674,5.836-0.132C18.198,9.18,17.971,10.397,17.604,11.337L17.604,11.337z M15.793,17.67c0.537-0.598,1.076-1.51,1.073-2.572c-0.007-3.278-4.207-4.49-7.512-4.222c-1.808,0.146-3.024,0.521-4.293,1.254c-1.036,0.598-2.248,1.571-2.549,3.034c-0.678,3.291,2.961,4.838,5.634,5.014C11.234,20.381,14.325,19.309,15.793,17.67z"/><path fill="#FF9800" d="M20.689,8.171c0.141,1.004-0.152,1.875-0.738,1.913c-0.977,0.064-0.612-0.658-0.671-1.517c-0.037-0.529-0.483-1.14-0.872-1.32c-0.763-0.352-1.945,0.256-1.945-0.791c0-0.778,0.686-0.697,1.074-0.726C19.235,5.603,20.491,6.754,20.689,8.171z"/><path fill="#212121" d="M12.842,14.768c1.429,4.248-6.017,6.223-7.379,2.573c-0.911-2.441,1.277-4.383,3.555-4.618C10.963,12.522,12.413,13.498,12.842,14.768z M9.42,15.494c0.303,0.516,1,0.145,0.939-0.264C10.286,14.757,9.414,14.827,9.42,15.494z M8.213,17.737c1.252-0.293,1.42-2.612-0.47-2.177C6.156,15.924,6.463,18.146,8.213,17.737z"/></svg>