<svg xmlns="http://www.w3.org/2000/svg" enable-background="new 0 0 24 24" viewBox="0 0 24 24"><path fill="#4ABFC3" d="M24,14.529c0-2.31-1.92-3.999-4.196-3.999c-0.442,0-0.9,0.06-1.346,0.175c0.034-0.258,0.045-0.512,0.045-0.769c0-2.962-2.238-5.141-5.216-5.141c-1.429,0-2.906,0.556-3.855,1.63C9.292,6.578,9.139,6.754,9.139,6.962c0,0.232,0.187,0.418,0.42,0.418c0.33,0,1.339-1.377,3.33-1.377c2.475,0,4.384,1.795,4.384,4.28c0,0.47-0.198,0.922-0.198,1.355c0,0.314,0.281,0.582,0.596,0.582c0.446,0,1.102-0.433,1.758-0.433c3.428,0,3.619,5.212-0.127,5.212c-5.227,0-6.622-9.175-13.571-9.175C2.532,7.823,0,10.182,0,13.386c0,3.204,2.648,5.41,5.775,5.406c2.04,0,4.268-0.955,5.801-2.283c0.21-0.187,0.702-0.608,0.702-0.899c0-0.22-0.187-0.407-0.409-0.407c-0.221,0-0.645,0.455-0.855,0.608c-1.29,0.922-3.105,1.586-4.698,1.586c-5.726,0-5.719-7.917-0.21-7.917c6.116,0,7.267,9.316,13.488,9.316c2.438,0,4.406-1.81,4.406-4.268L24,14.529z"/></svg>