<svg xmlns="http://www.w3.org/2000/svg" enable-background="new 0 0 24 24" viewBox="0 0 24 24"><path fill="#03a9f4" d="m23.309 14.547c1.738-7.81-5.104-14.905-13.139-13.543-4.362-2.707-10.17.352-10.17 5.542 0 1.207.333 2.337.912 3.311-1.615 7.828 5.283 14.821 13.311 13.366.936.495 2.004.777 3.139.777 4.949 0 8.118-5.133 5.947-9.453zm-11.213 5.332c-2.342 0-4.63-.565-5.984-2.499-2.018-2.854.643-4.282 1.949-3.194 1.09.919.748 3.142 3.949 3.142 1.411 0 3.153-.602 3.153-2.001 0-2.815-6.245-1.483-8.728-4.552-.912-1.124-1.084-3.107.036-4.545 1.952-2.512 7.68-2.665 10.143-.768 2.274 1.76 1.66 4.096-.175 4.096-2.207 0-1.047-2.888-4.61-2.888-2.583 0-3.599 1.837-1.78 2.731 2.421 1.202 8.75.827 8.75 5.603-.008 3.357-3.247 4.875-6.703 4.875z"/></svg>