<svg xmlns="http://www.w3.org/2000/svg" enable-background="new 0 0 24 24" viewBox="0 0 24 24"><g fill="#e91e63"><path d="M6.6 16.48l1.23 3.66c-1.77.57-2.99.94-3.08.93-.78-.03-1.54-.54-1.8-1.32-.33-1.02.21-2.12 1.23-2.46zM15.31 13.58l1.24 3.69c-1.62.54-3.37 1.12-5.02 1.66l-1.23-3.68zM24 13.38c0 .82-.51 1.58-1.32 1.84 0 0-.96.32-2.44.81l-1.23-3.68 2.43-.81c1.02-.33 2.13.21 2.46 1.23.07.2.1.41.1.61z"/></g><path fill="#00bcd4" d="M3.75 7.97l1.23 3.66c-1.77.57-2.99.94-3.08.93-.78-.03-1.54-.54-1.8-1.32-.33-1.02.2-2.12 1.23-2.46zM12.45 5.07l1.24 3.69c-1.61.54-3.36 1.12-5.01 1.66l-1.23-3.68zM19.81 6.72s-.95.32-2.42.81l-1.24-3.69 2.43-.81c1.02-.33 2.13.21 2.47 1.23.32 1.02-.21 2.13-1.24 2.46z"/><path fill="#689f38" d="m17.39 7.53c-1.03.34-2.31.77-3.7 1.23l-1.24-3.69 3.7-1.23z"/><path fill="#ffc107" d="m16.15 3.84-3.7 1.23-.84-2.51c-.32-1.03.21-2.13 1.23-2.46 1.03-.33 2.14.21 2.47 1.22z"/><path fill="#b71c1c" d="m20.24 16.03c-1.03.35-2.31.78-3.69 1.24l-1.24-3.69 3.7-1.23z"/><path fill="#ffc107" d="M19.01 12.35l-3.7 1.23-1.62-4.82c1.39-.46 2.67-.89 3.7-1.23zM19.85 21c-1.14.33-2.14-.32-2.46-1.22l-.84-2.51c1.38-.46 2.66-.89 3.69-1.24l.84 2.51c.33 1.03-.2 2.13-1.23 2.46z"/><path fill="#009688" d="m8.68 10.42c-1.35.44-2.63.86-3.7 1.21l-1.23-3.66 3.7-1.23z"/><path fill="#4caf50" d="m7.45 6.74-3.7 1.23-.84-2.51c-.32-1.02.21-2.13 1.23-2.46 1.03-.33 2.14.21 2.47 1.23z"/><path fill="#880e4f" d="m11.53 18.93c-1.35.44-2.62.86-3.7 1.21l-1.23-3.66 3.7-1.23z"/><path fill="#4caf50" d="M10.3 15.25l-3.7 1.23-1.62-4.85c1.07-.35 2.35-.77 3.7-1.21zM11.14 23.91c-1.14.33-2.14-.32-2.46-1.22l-.85-2.55c1.08-.35 2.35-.77 3.7-1.21l.84 2.52c.33 1.03-.2 2.13-1.23 2.46z"/></svg>