<svg xmlns="http://www.w3.org/2000/svg" enable-background="new 0 0 24 24" viewBox="0 0 24 24"><path fill="#DF6079" d="M24,0H0v24h24V0z M14.176,15.794c-0.644,0.584-1.41,0.87-2.31,0.87c-0.9,0-1.664-0.137-2.324-0.406c-0.646-0.27-0.976-0.525-0.976-0.78L8.49,15.573c0-0.13,0.08-0.324,0.244-0.585c0.163-0.26,0.31-0.39,0.44-0.39c0.014,0,0.12,0.06,0.314,0.184c0.195,0.125,0.472,0.247,0.837,0.372c0.364,0.123,0.804,0.185,1.317,0.185c0.525,0,0.945-0.147,1.275-0.44s0.495-0.69,0.495-1.19s-0.15-0.89-0.436-1.17c-0.285-0.28-0.87-0.544-1.74-0.79c-0.87-0.25-1.5-0.564-1.89-0.946C8.956,10.417,8.76,9.835,8.76,9.055s0.3-1.435,0.9-1.962c0.6-0.54,1.38-0.795,2.34-0.795c0.675,0,1.26,0.074,1.785,0.254c0.524,0.165,0.78,0.36,0.78,0.555c0,0.164-0.075,0.39-0.226,0.644c-0.15,0.27-0.285,0.39-0.39,0.39c-0.017,0-0.09-0.045-0.257-0.12c-0.435-0.24-0.93-0.36-1.484-0.36s-0.976,0.105-1.29,0.33c-0.3,0.225-0.45,0.525-0.45,0.885s0.12,0.644,0.344,0.854s0.615,0.39,1.17,0.57c1.23,0.375,2.055,0.78,2.49,1.23c0.436,0.45,0.66,1.126,0.66,2.025c0.002,0.9-0.312,1.65-0.958,2.234L14.176,15.794z"/></svg>