<svg xmlns="http://www.w3.org/2000/svg" enable-background="new 0 0 24 24" viewBox="0 0 24 24"><path fill="#ffeb3b" d="m20.413 19.514c.981-.157 3.029-.528 3.086-1.517.016-.278-.178-.525-.45-.569v-.001c-3.027-.508-4.933-3.993-4.639-4.69.212-.504 1.158-.699 1.575-.863 1.996-.8 1.136-2.169-.043-2.169-.531 0-1.161.576-1.742.305.18-3.065.5-5.224-1.668-7.312-2.814-2.706-8.524-2.391-10.472 2.055-.579 1.319-.357 3.73-.264 5.257-.41.183-.996-.014-1.401-.208-1.021-.486-2.767 1.111-.381 2.071 1.034.413 2.012.531 1.466 1.661-.059.108-.391.932-1.17 1.854-.881 1.044-2.001 1.809-3.359 2.038-.334.055-.561.416-.395.811v.002c.341.811 2.153 1.136 3.029 1.276.241.459.066 1.513.887 1.513.441 0 1.281-.365 2.597-.14 1.616.274 2.145 2.112 5.072 2.112 1.423 0 2.355-.671 3.177-1.261l.001-.002c.961-.69 1.636-1.201 3.68-.791 1.481.292 1.069-.749 1.414-1.432z"/><path fill="#212121" d="m11.945 23.494c.017.003-.033.006-.085.006-1.584 0-2.629-.752-3.469-1.357-.945-.681-1.446-1.064-3.28-.702-.27.052-.465.086-.637.086-1.038 0-1.132-.932-1.273-1.57-1.256-.223-3.121-.655-3.198-1.929-.03-.539.343-1.008.868-1.095 1.243-.21 2.258-.919 3.059-1.867.525-.621 1.293-1.915 1.199-2.137-.1-.24-1.006-.473-1.299-.591-3.017-1.216-.87-3.769.779-2.988.289.139.505.198.66.221-.092-1.501-.25-3.689.334-5.019 1.164-2.659 3.589-4.047 6.166-4.047l.389-.005c2.609 0 5.056 1.345 6.239 4.053.586 1.334.425 3.517.333 4.997.489-.122 1.035-.57 1.905-.21 1.36.495 1.698 2.331-.834 3.126-.23.075-.848.274-.928.465-.117.28 1.447 3.532 4.261 4.004.524.087.897.556.866 1.092-.072 1.27-1.934 1.705-3.198 1.93-.185.837-.322 1.555-1.246 1.555-1.58-.093-2.081-.708-3.944.634-1.102.788-2.186 1.441-3.667 1.348zm.063-.998c.117-.029 1.023.266 2.922-1.094 1.093-.786 1.87-1.409 4.167-.946.33.065.356.048.457.056.101 0 .106.002.233-.599.135-.641.207-.648.294-.851.396-.079 2.635-.394 2.899-1.017h-.001l-.014-.122c-3.368-.566-4.835-4.022-4.896-4.169-.999-2.056 1.757-2.039 2.471-2.784.29-.304.082-.57-.27-.698-.598-.248-.798.266-1.731.309-.477-.021-.587-.151-.86-.261.222-3.117.528-5.312-1.495-7.261-2.554-2.456-7.857-2.241-9.666 1.895-.545 1.24-.301 3.75-.201 5.373-.193.037-.734.603-2.139-.074-.385-.183-1.732.449.022 1.157.472.189 1.54.391 1.85 1.135.473 1.138-1.48 3.612-2.864 4.521-.667.439-1.392.727-2.153.854v.001l-.017.124c.282.672 2.794.984 2.894 1.015.113.271.145.132.3.852.036.169.071.338.124.519.106.36.993-.353 2.82-.035 1.609.274 2.491 2.105 4.704 2.105z"/></svg>