<svg xmlns="http://www.w3.org/2000/svg" enable-background="new 0 0 24 24" viewBox="0 0 24 24"><path d="M15.046,17.421c0.626,0,1.168-0.432,1.628-1.295h0.002c0.46-0.864,0.69-1.912,0.69-3.144c0-0.618-0.134-1.108-0.402-1.468c-0.268-0.36-0.608-0.538-1.022-0.538v0.001c-0.329,0-0.64,0.066-0.933,0.199c-0.293,0.133-0.605,0.397-0.934,0.792c-0.04,0.183-0.109,0.534-0.21,1.055s-0.152,1.162-0.152,1.923c0,0.778,0.123,1.384,0.365,1.82S14.644,17.421,15.046,17.421z"/><path d="M12,24c6.627,0,12-5.373,12-12S18.627,0,12,0S0,5.373,0,12S5.373,24,12,24z M13.279,7.987c1.68-1.686,3.895-2.692,6.65-3.023l-0.001,0.002l0.042,0.876l-0.916,0.157c-0.705,0.194-1.32,0.465-1.843,0.813c-0.523,0.348-0.966,0.73-1.33,1.148c-0.34,0.388-0.636,0.828-0.872,1.303l-0.016,0.036l-0.016,0.036c-0.243,0.506-0.459,1.04-0.65,1.599c0.375-0.324,0.808-0.597,1.278-0.8l0.032-0.012l0.033-0.012c0.521-0.223,1.141-0.335,1.864-0.335c0.839,0,1.543,0.296,2.111,0.884c0.568,0.588,0.853,1.355,0.853,2.298c0,1.409-0.541,2.628-1.624,3.659s-2.414,1.547-3.992,1.547c-1.255,0-2.256-0.374-3.003-1.122s-1.12-1.743-1.12-2.981C10.759,11.697,11.599,9.673,13.279,7.987z M3.846,15.353c0.344,0,0.631,0.092,0.863,0.278c0.236,0.193,0.43,0.426,0.574,0.691l0.006,0.012c0.136,0.244,0.259,0.528,0.352,0.824L5.65,17.19c0.035,0.09,0.106,0.322,0.172,0.556l0.034,0.139c0.647,0,1.137-0.144,1.469-0.436s0.498-0.691,0.498-1.196c0-0.222-0.05-0.408-0.15-0.558c-0.1-0.15-0.234-0.283-0.399-0.398c-0.166-0.108-0.377-0.213-0.635-0.315c-0.258-0.102-0.513-0.198-0.765-0.289c-0.693-0.246-1.24-0.587-1.644-1.023c-0.404-0.436-0.605-0.978-0.605-1.628v-0.013c0-0.387,0.092-0.751,0.255-1.076c0.17-0.339,0.433-0.652,0.792-0.941C5.027,9.736,5.476,9.516,6.02,9.351c0.544-0.165,1.179-0.249,1.906-0.249L7.925,9.103c0.435,0,0.838,0.027,1.211,0.081c0.381,0.054,0.725,0.156,1.046,0.3c0.284,0.13,0.521,0.321,0.7,0.557l0.003,0.004c0.169,0.232,0.252,0.513,0.252,0.844c0,0.331-0.118,0.614-0.356,0.852c-0.237,0.238-0.549,0.356-0.933,0.356c-0.332,0-0.607-0.091-0.828-0.272c-0.221-0.181-0.399-0.394-0.537-0.642c-0.137-0.253-0.247-0.516-0.327-0.784c-0.08-0.268-0.146-0.493-0.197-0.674c-0.401,0.024-0.765,0.178-1.094,0.459C6.536,10.465,6.37,10.813,6.37,11.23c0,0.253,0.039,0.452,0.116,0.596c0.077,0.144,0.184,0.265,0.311,0.358L6.8,12.186c0.162,0.115,0.348,0.217,0.544,0.296l0.018,0.006c0.151,0.069,0.431,0.177,0.714,0.279l0.132,0.041c0.778,0.288,1.365,0.635,1.76,1.038c0.321,0.328,0.509,0.742,0.569,1.241c-0.008-0.117,0.117,1.109,0.018,0.183c0.002,0.056,0.006,0.113,0.006,0.171c0,0.433-0.097,0.847-0.289,1.245c-0.192,0.398-0.464,0.728-0.818,0.992c-0.382,0.278-0.826,0.5-1.306,0.639l-0.03,0.007l-0.03,0.007c-0.516,0.147-1.172,0.221-1.967,0.221c-0.722,0-1.318-0.061-1.789-0.184c-0.471-0.123-0.845-0.282-1.12-0.474c-0.281-0.193-0.473-0.398-0.575-0.617s-0.155-0.425-0.155-0.617c0-0.349,0.125-0.655,0.373-0.916C3.103,15.483,3.435,15.353,3.846,15.353z"/></svg>