<svg xmlns="http://www.w3.org/2000/svg" enable-background="new 0 0 24 24" viewBox="0 0 24 24"><path fill="#F30E43" d="M20.812,2.652L20.812,2.652c-1.634-1.219-3.442-2.039-5.723-2.414v10.875l3.261-4.539h3.565l-4.095,5.72c0,0,0.944,1.51,1.515,2.405c0.586,0.899,1.139,1.14,1.965,1.14h0.57v2.806h-0.872c-1.812,0-2.9-0.33-3.72-1.575c-0.504-0.811-2.175-3.436-2.175-3.436v4.995H12.12V0H12C8.147,0,5.49,0.931,3.188,2.652C-0.133,5.138,0,8.452,0,11.998c0,3.547-0.133,6.867,3.188,9.352C5.49,23.074,8.147,24,12,24s6.51-0.927,8.812-2.651C24.131,18.865,24,15.544,24,11.998C24,8.452,24.131,5.139,20.812,2.652z M6.554,18.782L6.55,18.779c-1.855,0-3.372-0.339-4.598-1.602l1.92-1.908c0.63,0.631,1.74,0.853,2.715,0.853c1.186,0,1.739-0.391,1.739-1.089c0-0.291-0.06-0.529-0.239-0.717c-0.15-0.154-0.404-0.273-0.795-0.324l-1.455-0.205c-1.064-0.152-1.891-0.51-2.43-1.072c-0.555-0.578-0.84-1.395-0.84-2.434C2.535,8.067,4.199,6.451,6.959,6.451c1.74,0,3.048,0.407,4.086,1.448L9.17,9.771c-0.765-0.766-1.77-0.715-2.295-0.715c-1.039,0-1.465,0.597-1.465,1.125c0,0.152,0.051,0.375,0.24,0.561c0.15,0.153,0.404,0.307,0.832,0.359l1.467,0.203c1.09,0.153,1.875,0.495,2.385,1.005c0.645,0.63,0.9,1.53,0.9,2.655C11.235,17.433,9.107,18.782,6.554,18.782z"/></svg>