<svg xmlns="http://www.w3.org/2000/svg" enable-background="new 0 0 24 24" viewBox="0 0 24 24"><path d="M2.426,15.823h5.021c0.372,0,0.676,0.335,0.676,0.714v1.296c0,0.375-0.304,0.715-0.676,0.715H0.486c-0.271,0-0.485,0.219-0.485,0.492v1.469C0.001,20.78,0.217,21,0.486,21H8.13c1.34,0,2.426-1.099,2.426-2.454v-2.727c0-1.355-1.086-2.455-2.427-2.455H3.104c-0.372,0-0.675-0.338-0.675-0.712v-1.297H2.43c0-0.376,0.303-0.713,0.675-0.713h6.968c0.271-0.003,0.486-0.221,0.486-0.493V8.677c0-0.273-0.219-0.493-0.488-0.493H2.43C1.088,8.185,0,9.284,0,10.639v2.725C0,14.722,1.086,15.823,2.426,15.823z"/><path fill="#1F95CB" d="M23.515,5.453c0.266,0,0.483-0.219,0.483-0.492v-1.47C23.998,3.217,23.783,3,23.514,3h-5.019c-1.34,0-2.427,1.099-2.427,2.454V8.19h-2.327c-0.27,0-0.484,0.22-0.484,0.49v1.475c0,0.271,0.216,0.49,0.483,0.49h2.325v8.042c0,0.243,0.099,0.287,0.303,0.287c0.488,0,2.124-0.92,2.124-1.707v-6.624h5.024c0.266,0,0.484-0.22,0.484-0.489V8.678c0-0.269-0.219-0.488-0.484-0.488h-5.021V5.453H23.515z"/></svg>