<svg xmlns="http://www.w3.org/2000/svg" enable-background="new 0 0 24 24" viewBox="0 0 24 24"><polygon points="16.956 20.775 16.957 20.782 16.96 20.793"/><path fill="#29B7F2" d="M23.88,15.8c-0.31,1.05-1.25,1.72-2.37,1.72c-0.25,0-0.49-0.06-0.81-0.12l-4.99-1.62l-2.89-0.94L10,13.92l-2.36-0.77l-5.9-1.92c-1.3-0.43-2.05-1.85-1.62-3.14c0.44-1.3,1.87-2.04,3.17-1.61l5.09,1.66l2.91,0.95L14.11,10l2.37,0.77l5.78,1.88C23.56,13.08,24.31,14.5,23.88,15.8z"/><path fill="#B137F7" d="M12.82,14.84L10.87,17l-3.6,3.98c-0.49,0.55-1.18,0.86-1.86,0.86c-0.69,0-1.31-0.28-1.75-0.72c-0.46-0.45-0.74-1.07-0.74-1.75c0.01-0.63,0.24-1.21,0.62-1.66l4.1-4.56L10,13.92L12.82,14.84z"/><path fill="#F86011" d="M17.19,21.46c0,1.14-0.77,2.1-1.83,2.42C15.17,23.94,14.92,24,14.74,24c-1.16,0-2.13-0.78-2.43-1.85L10.87,17l1.95-2.16l2.89,0.94l1.39,5C17.16,21,17.19,21.23,17.19,21.46z"/><path fill="#B137F7" d="M20.58,6.24l-4.1,4.53L14.11,10l-2.82-0.91l1.96-2.18l3.6-4c0.93-1.05,2.49-1.11,3.54-0.19C21.45,3.65,21.51,5.19,20.58,6.24z"/><path fill="#F86011" d="M13.25,6.91l-1.96,2.18L8.38,8.14L6.96,3.09c-0.31-1.35,0.5-2.71,1.86-3.02C8.98,0.03,9.14,0.01,9.32,0c1.13-0.05,2.17,0.66,2.49,1.74L13.25,6.91z"/><path d="M12.087,23.999c-0.029,0-0.058-0.003-0.087-0.003l-0.001,0L12.087,23.999z"/></svg>