<svg xmlns="http://www.w3.org/2000/svg" enable-background="new 0 0 24 24" viewBox="0 0 24 24"><linearGradient id="a" x1="10" x2="30.127" y1="10" y2="30.127" gradientUnits="userSpaceOnUse"><stop offset="0" stop-color="#053251"/><stop offset="1"/></linearGradient><path fill="url(#a)" d="M18.8,5.2L24,0H0v24l5.29-5.29C5.24,18.18,5.2,15.36,5.2,12V5.2H18.8z"/><polygon fill="#4393C6" points="13.6 14 13.6 24 24 24 24 14 18.8 14"/><path fill="#4393C6" d="M24,0v8.22l-5.02,4.98H12.4v6.05L8.22,24H0l5.29-5.29c0,0.06,0.01,0.09,0.01,0.09c0.06,0,3.17-3.06,6.9-6.8l6.79-6.8H18.8L24,0z"/><path fill="#4393C6" d="M18.99,5.2L12.2,12c-3.73,3.74-6.84,6.8-6.9,6.8c0,0-0.01-0.03-0.01-0.09L18.8,5.2H18.99z"/></svg>