<svg xmlns="http://www.w3.org/2000/svg" enable-background="new 0 0 24 24" viewBox="0 0 24 24"><polygon fill="#329563" points="12.783 13.594 12.779 13.596 12.783 13.598"/><polygon fill="#329563" points="11.22 10.402 8.55 12.012 11.2 13.598"/><path fill="#329563" d="M0,19.41C0,20.288,0.715,21,1.6,21h20.8c0.883,0,1.6-0.713,1.6-1.59V4.59h-0.003C23.997,3.712,23.282,3,22.4,3H1.6C0.717,3,0,3.713,0,4.59V19.41z M6.41,9.88h0.01c0-0.58,0.463-1.05,1.033-1.06h9.06c0.57,0.017,1.05,0.48,1.05,1.067v4.243h-0.014c0,0.586-0.466,1.052-1.05,1.065l0.036-0.016h-9.07c-0.58-0.01-1.05-0.48-1.05-1.06H6.41V9.88z"/><polygon fill="#329563" points="12.798 10.403 12.783 13.593 15.45 11.985"/></svg>