<svg xmlns="http://www.w3.org/2000/svg" enable-background="new 0 0 24 24" viewBox="0 0 24 24"><path d="M1.356 15.259c1.808 1.8 4.74 1.801 6.55 0L7.904 15.26l7.368-7.334c.452-.45.452-1.179 0-1.63-.452-.451-1.185-.45-1.636 0l-7.369 7.334c-.904.9-2.37.901-3.274 0-.904-.9-.905-2.358-.001-3.259l7.228-7.195c-.904-.9-2.37-.901-3.274-.001L1.356 8.74C-.452 10.541-.452 13.459 1.356 15.259zM22.643 8.741c-1.809-1.8-4.741-1.801-6.549 0l-7.37 7.335-.001-.001c-.452.45-.452 1.18 0 1.631.452.451 1.185.45 1.638 0l7.368-7.334c.904-.9 2.37-.9 3.275 0 .905.9.904 2.359 0 3.26l-7.226 7.192c.903.9 2.369.901 3.273.002l5.592-5.565C24.452 13.459 24.452 10.541 22.643 8.741z"/><path d="M20.186 12.815c.452-.45.452-1.18 0-1.63-.452-.45-1.185-.45-1.637 0L11.18 18.52c-.903.9-2.369.901-3.273.002L7.904 18.52c-.452-.45-1.185-.45-1.637 0-.452.45-.453 1.18-.001 1.629l.001.001c1.808 1.8 4.741 1.8 6.549 0L20.186 12.815zM11.179 3.851L3.81 11.185c-.452.45-.452 1.179 0 1.63.452.45 1.185.45 1.636 0l7.369-7.334c.904-.9 2.37-.901 3.274-.001l.001.001c.452.45 1.185.45 1.637 0 .452-.45.452-1.179 0-1.63C15.919 2.051 12.988 2.051 11.179 3.851z"/></svg>