<svg xmlns="http://www.w3.org/2000/svg" enable-background="new 0 0 24 24" viewBox="0 0 24 24"><path fill="#3A6DA6" d="M10.25,15.58L6.64,19.8H5.51c-1.66,0-3.01-1.42-3.01-3.19v-1.03H10.25z"/><polygon fill="#62B0DF" points="18.99 5.36 15.58 9.34 2.5 9.34 2.5 5.36"/><polygon fill="#5184C1" points="14.6 10.49 11.2 14.47 2.5 14.47 2.5 10.49"/><polygon fill="#46A2D9" points="21.5 5.36 21.5 9.34 15.58 9.34 18.99 5.36"/><polygon fill="#326EB6" points="21.5 10.49 21.5 14.47 11.2 14.47 14.6 10.49"/><path fill="#185397" d="M21.5,15.58v1.03c0,1.76-1.35,3.19-3.01,3.19h-0.87l-4,4.2v-4.2H6.64l3.61-4.22H21.5z"/><path fill="#8FD8F6" d="M21.5,3.17v1.05h-19V3.17C2.5,1.42,3.85,0,5.51,0h12.98c1.44,0,2.64,1.07,2.94,2.5C21.48,2.72,21.5,2.94,21.5,3.17z"/></svg>