<svg xmlns="http://www.w3.org/2000/svg" enable-background="new 0 0 24 24" viewBox="0 0 24 24"><polygon points="6.444 16.566 6.444 16.565 6.443 16.563"/><linearGradient id="a" x1="-29.99" x2="-29.98" y1="-580.44" y2="-580.444" gradientTransform="matrix(2490.6401 0 0 -1660.4128 74693.883 -963761.188)" gradientUnits="userSpaceOnUse"><stop offset="0" stop-color="#ff4c1d"/><stop offset="1" stop-color="#9b0063"/></linearGradient><path fill="url(#a)" d="M0.2,8.668C0.072,8.76,0,8.908,0,9.058v0.004c0,0.064,0.014,0.128,0.04,0.19l2.3,5.208c0.1,0.228,0.36,0.34,0.6,0.256c1.504-0.536,6.713-2.232,10.085-1.32c0,0-3.38,0.2-6.441,2.596c-0.172,0.136-0.23,0.372-0.14,0.572c0.248,0.56,0.746,1.688,1.028,2.324l0.396,0.93c0.094,0.22,0.396,0.244,0.528,0.044c0.714-1.074,1.916-1.61,3.072-2.08c1.184-0.48,2.42-0.836,3.68-1.048c1.34-0.228,2.712-0.288,4.068-0.168c0.226,0.02,0.436-0.12,0.504-0.336l1.04-3.316c0.06-0.196-0.012-0.41-0.18-0.53c-1.156-0.84-5.74-3.654-13.801-2.524c0,0,6.881-3.948,15.611,0.392c0.266,0.132,0.584-0.008,0.674-0.288L23.98,7.04C23.992,6.994,24,6.948,24,6.9V6.888c0-0.166-0.092-0.324-0.244-0.41C22.662,5.86,18.952,4,13.847,4C9.935,4,5.206,5.092,0.2,8.668L0.2,8.668z"/></svg>