<svg xmlns="http://www.w3.org/2000/svg" enable-background="new 0 0 24 24" viewBox="0 0 24 24"><path d="M0 12.437c.21 0 .765.13.765 1.08v2.374c0 1.316.374 1.938 1.709 1.938 0 0 .524.046.63.046l.025-.012c-.03-.21-.021-.704-.021-.704H2.82c-.662 0-.922-.264-.922-.918v-2.6c0-1.174-.278-1.461-.835-1.642v-.06c.557-.181.835-.48.835-1.654v-2.59c0-.654.26-.859.92-.859h.285c0 0 .014-.451.045-.714-.135-.018-.66-.03-.66-.03-1.334 0-1.709.637-1.709 1.953v2.359C.779 11.37.21 11.5 0 11.5V12.437zM14.98 15.871c.32-.242.57-.541.75-.89.176-.35.266-.739.266-1.169 0-.374-.066-.696-.198-.961-.132-.267-.345-.499-.636-.703-.293-.203-.665-.386-1.118-.544-.452-.158-.999-.316-1.642-.473-.689-.173-1.166-.325-1.434-.459-.271-.138-.405-.357-.405-.663 0-.349.141-.606.423-.762.28-.164.627-.237 1.041-.237.445 0 .893.059 1.34.207.446.132.922.369 1.426.68l.945-1.406c-.551-.339-1.145-.607-1.779-.813-.63-.206-1.273-.296-1.904-.296-.51 0-.988.059-1.424.192C10.197 7.708 9.808 7.9 9.478 8.152 9.146 8.403 8.893 8.714 8.712 9.069c-.179.354-.27.77-.27 1.213 0 .34.06.621.181.873.119.251.299.459.554.651.255.191.585.354 1.005.502.42.148.914.297 1.499.43.778.178 1.319.34 1.648.503.33.147.495.385.495.696 0 .31-.135.56-.405.723-.27.163-.659.252-1.139.252-1.064 0-2.174-.37-3.313-1.11L7.992 15.4c.271.179.57.342.915.489.345.148.704.267 1.079.37.375.104.765.179 1.17.237.404.059.779.073 1.139.073.569 0 1.08-.073 1.544-.206l-.034.067C14.268 16.3 14.658 16.114 14.98 15.871z"/><path d="M4.846 9.847V6.539C4.846 5.711 5.16 5.463 6 5.463h.389V4.502h-.75c-1.693 0-2.098.813-2.098 2.485v3.018c0 1.228-.689 1.406-1.185 1.406v1.173c.485.008 1.146.194 1.146 1.378v3.023c0 1.676.408 2.516 2.107 2.516h.765v-.896h-.39c-.84 0-1.154-.345-1.154-1.173v-3.315c0-1.495-.479-1.86-1.319-2.092v-.067C4.351 11.724 4.846 11.342 4.846 9.847zM2.356 12.593v-.009c-.012 0-.026-.002-.038-.002L2.356 12.593zM21.628 12.581v-1.194c-.487 0-1.185-.166-1.185-1.394V6.985c0-1.675-.269-2.485-1.969-2.485h-.82v.962h.449c.84 0 1.086.247 1.086 1.076v3.305c0 1.494.419 1.875 1.259 2.108v.066c-.84.232-1.244.597-1.244 2.091v3.32c0 .832-.24 1.175-1.079 1.175h-.449V19.5H18.5c1.708 0 1.978-.842 1.978-2.518h-.035l0 .001V13.96C20.443 12.747 21.14 12.581 21.628 12.581z"/><path d="M24,11.497c-0.277,0-0.837-0.131-0.837-1.094V8.046c0-1.316-0.308-1.955-1.643-1.955c0,0-0.47,0.015-0.608,0.032c0.029,0.264,0.059,0.717,0.059,0.717h0.285l0.009-0.002c0.66,0,0.853,0.204,0.853,0.859v2.588c0,1.173,0.209,1.474,1.045,1.657v0.051c-0.836,0.182-1.045,0.47-1.045,1.641v2.608c0,0.651-0.192,0.917-0.853,0.917h-0.289c0,0-0.003,0.492-0.031,0.701c0.116,0,0.575-0.015,0.575-0.015c1.335,0,1.643-0.638,1.643-1.955v-2.366c0-0.952,0.56-1.081,0.837-1.081V11.497z"/></svg>