<svg xmlns="http://www.w3.org/2000/svg" enable-background="new 0 0 24 24" viewBox="0 0 24 24"><polygon points="7.586 17.006 7.587 17.009 7.59 17.016"/><path fill="#38E7B2" d="M3.445,16.719l0.013,0.011c0.598,0.512,1.934,1.308,1.958,1.349c-0.876,2.226-3.678,2.835-3.678,2.835c2.499,1.463,5.431,2.493,8.558,2.904l0.118,0.013c0.691,0.093,1.491,0.146,2.302,0.146c0.639,0,1.269-0.036,1.891-0.1c2.493-0.308,4.678-1.44,6.314-3.114l0.002-0.002c1.761-1.73,2.853-4.136,2.853-6.798c0-2.633-1.068-5.016-2.795-6.74h-0.001c-0.94-0.941-2.073-1.689-3.334-2.179L17.58,5.021c0.721-2.12,3.277-2.892,3.277-2.892c-2.724-1.329-5.926-2.106-9.31-2.106c-1.106,0-2.192,0.087-3.253,0.247C5.936,0.751,3.924,1.994,2.479,3.729L2.466,3.745C1.073,5.342,0.224,7.446,0.224,9.748C0.224,12.54,1.474,15.04,3.445,16.719z M6.365,20.492c0.631-0.59,1.139-1.304,1.484-2.104l0.016-0.041c0.07-0.177,0.111-0.382,0.111-0.596c0-0.258-0.06-0.501-0.165-0.719c-0.441-0.891-0.699-1.938-0.699-3.046c0-1.97,0.815-3.751,2.126-5.022L9.24,8.962c1.305-1.265,3.087-2.045,5.05-2.045c1.992,0,3.797,0.803,5.109,2.102c1.261,1.313,2.036,3.1,2.036,5.067c0,2.03-0.826,3.867-2.16,5.193l0.002,0.002c-1.358,1.289-3.13,2.154-5.096,2.377l-0.041,0.004c-0.511,0.057-1.104,0.09-1.705,0.09c-0.626,0-1.244-0.037-1.852-0.106c-1.573-0.222-2.994-0.625-4.328-1.196L6.365,20.492z"/></svg>