<svg xmlns="http://www.w3.org/2000/svg" enable-background="new 0 0 24 24" viewBox="0 0 24 24"><path d="M14.44,9.851c-0.018,0.002-0.037,0.001-0.056,0.003c-0.008,0.001-0.016,0.003-0.024,0.004L14.44,9.851z"/><path fill="#3995D3" d="M2.367 17.654c.51.615 1.004 1.111 1.47 1.456.48.345.96.63 1.47.856.495.226.945.361 1.32.435.375.075.736.105 1.095.105 1.23 0 2.191-.314 2.897-.96.69-.63 1.049-1.398 1.049-2.297 0-.495-.104-.961-.299-1.411-.195-.435-.451-.84-.78-1.215-.316-.362-.675-.738-1.05-1.097-.375-.36-.766-.736-1.141-1.155-.375-.422-.735-.842-1.05-1.308-.316-.451-.57-.989-.765-1.614C6.372 8.824 6.282 8.159 6.282 7.449c0-.752.095-1.454.291-2.108C6.768 4.685 7.005 4.139 7.29 3.699c.282-.438.62-.844 1.012-1.216.392-.372.75-.659 1.072-.861.326-.203.663-.381 1.013-.537.353-.158.588-.254.712-.293.127-.036.222-.066.285-.08L11.085 0C9.765.151 8.55.42 7.439.814 6.326 1.189 5.367 1.668 4.587 2.224 3.793 2.785 3.093 3.42 2.478 4.126 1.87 4.83 1.39 5.569 1.038 6.347.688 7.123.424 7.92.243 8.736c-.179.812-.261 1.621-.24 2.418.02.797.116 1.561.285 2.292.168.731.412 1.4.731 2.007l-.048.055C1.392 16.319 1.857 17.04 2.367 17.654zM23.935 12.865c-.013-1.162-.201-2.322-.562-3.423-.669-2.038-1.944-3.935-3.79-5.027-2.441-1.444-8.061-1.226-7.109 2.911.251 1.091.972 2.012 1.752 2.815.78.803 1.645 1.535 2.296 2.445 1.292 1.805 1.61 4.26.845 6.344-.765 2.084-2.583 3.744-4.721 4.341-.1.246.098.531.347.623s.525.046.787-.002c.444-.081.889-.161 1.329-.263 2.509-.58 4.891-1.885 6.52-3.88C23.195 17.832 23.963 15.346 23.935 12.865z"/></svg>