<svg xmlns="http://www.w3.org/2000/svg" enable-background="new 0 0 24 24" viewBox="0 0 24 24"><g fill="#ff5722"><path d="m24 15.732v-3.266-.001h-4.1v3.374c0 .689-.577 1.242-1.279 1.242-.701 0-1.275-.553-1.275-1.242v-3.308l-2.438.713-1.637-.75v3.29c0 2.882 2.415 5.216 5.364 5.216 2.964 0 5.365-2.357 5.365-5.268z"/><path d="m5.364 20.994c2.94 0 5.364-2.319 5.364-5.193v-7.511c0-.689.573-1.252 1.275-1.252.701 0 1.275.563 1.275 1.252v1.448.002l1.637.75 2.438-.713v-1.669c0-2.835-2.438-5.108-5.35-5.108-2.901 0-5.35 2.258-5.35 5.071v7.61c0 .698-.573 1.252-1.275 1.252-.701 0-1.275-.553-1.275-1.252v-3.215h-4.103v3.266c0 2.905 2.401 5.262 5.364 5.262z"/></g></svg>