<svg xmlns="http://www.w3.org/2000/svg" enable-background="new 0 0 24 24" viewBox="0 0 24 24"><path d="M8.257 9.828L8.255 9.827C8.164 9.67 8.11 9.482 8.11 9.281c0-.011 0-.023.001-.034v.002c0-.641.517-1.138 1.138-1.138.642 0 1.138.517 1.138 1.138 0 .394-.207.766-.538.973l-.041.021c-.207.145-.269.414-.125.621.083.124.228.186.373.207.077-.002.148-.024.209-.063l.039-.02c.591-.368.979-1.014.979-1.751 0-.391-.109-.755-.298-1.066-.368-.59-1.013-.977-1.749-.977-.391 0-.755.11-1.066.298C7.584 7.865 7.2 8.509 7.2 9.245c0 .389.108.752.295 1.062.041.062.081.122.121.162l2.627 3.663c.104.166.145.373.145.578 0 .643-.497 1.139-1.138 1.16-.002 0-.003 0-.005 0-.632 0-1.145-.508-1.153-1.138v-.001c0-.393.207-.766.538-.973l.042-.02c.207-.146.269-.414.124-.621-.082-.122-.218-.202-.372-.207H8.423c-.077.001-.149.025-.209.064l-.04.02c-.952.599-1.262 1.863-.662 2.814.6.951 1.862 1.262 2.814.662.6-.373.972-1.035.972-1.738 0-.455-.145-.889-.414-1.242L8.257 9.828zM14.752 8.689L14.752 8.689c-.32 0-.579.259-.579.578 0 .001 0 .001 0 .002 0 .32.259.579.579.579.32 0 .579-.259.579-.579C15.311 8.938 15.063 8.689 14.752 8.689z"/><path d="M12,0C5.379,0,0,5.379,0,12c0,6.622,5.379,12,12,12s12-5.379,12-12S18.621,0,12,0z M10.706,16.896l-0.009,0.006c-0.398,0.283-0.893,0.453-1.428,0.454v0.001c-0.004,0-0.009,0-0.014,0c-1.44,0-2.608-1.165-2.613-2.605c0-0.003,0-0.007,0-0.011c0-1.076,0.649-2,1.576-2.404l0.017-0.007l-1.097-1.531C6.29,9.619,6.559,7.985,7.717,7.157s2.814-0.58,3.641,0.579c0.828,1.159,0.58,2.814-0.579,3.642c-0.149,0.109-0.319,0.206-0.5,0.284l-0.017,0.006l1.138,1.615c0.281,0.409,0.449,0.915,0.449,1.46C11.849,15.639,11.396,16.429,10.706,16.896z M16.221,16.902c-1.2,0.806-2.814,0.498-3.621-0.703c-0.281-0.409-0.449-0.915-0.449-1.46c0-0.896,0.454-1.687,1.144-2.155l0.009-0.006c0.145-0.104,0.289-0.165,0.435-0.248l-1.117-1.531c-0.31-0.427-0.497-0.961-0.497-1.539c0-0.868,0.42-1.638,1.068-2.118L13.2,7.137c0.427-0.31,0.961-0.496,1.538-0.496c0.869,0,1.639,0.42,2.119,1.069l0.005,0.007c0.31,0.427,0.496,0.961,0.496,1.539c0,0.868-0.42,1.638-1.068,2.118l-0.007,0.005c-0.15,0.11-0.32,0.207-0.501,0.284l-0.017,0.006l1.158,1.614h0.001C17.732,14.482,17.421,16.096,16.221,16.902z"/><polygon points="10.982 8.165 10.985 8.171 10.987 8.174"/><polygon points="8.164 7.495 8.17 7.492 8.173 7.49"/><path d="M9.848,14.731c-0.013-0.31-0.268-0.556-0.579-0.556S8.703,14.421,8.69,14.73v0.001c0,0.332,0.249,0.58,0.58,0.58C9.579,15.311,9.848,15.063,9.848,14.731z"/><polygon points="13.714 12.993 13.714 12.993 13.716 12.992"/><path d="M9.828 9.251c0-.309-.25-.56-.559-.562-.002 0-.003 0-.005 0-.312 0-.566.248-.575.558v.001c0 .311.249.58.559.58.31 0 .58-.249.58-.559C9.828 9.264 9.828 9.257 9.828 9.251zM14.752 15.311L14.752 15.311c.32 0 .579-.259.579-.578 0-.001 0-.001 0-.002 0-.32-.259-.579-.579-.579-.32 0-.579.259-.579.579C14.173 15.063 14.441 15.311 14.752 15.311z"/><polygon points="9.27 15.311 9.27 15.311 9.269 15.311"/><path d="M16.384,13.509l-2.627-3.683c-0.092-0.157-0.146-0.345-0.146-0.545c0-0.012,0-0.024,0.001-0.036v0.002c0-0.641,0.517-1.138,1.138-1.138c0.62,0,1.138,0.517,1.138,1.138c0,0.394-0.207,0.745-0.538,0.973c-0.021,0-0.021,0.021-0.041,0.021c-0.207,0.145-0.27,0.414-0.124,0.621c0.082,0.124,0.228,0.186,0.372,0.207c0.077-0.001,0.148-0.024,0.209-0.063l0.039-0.02c0.952-0.6,1.263-1.862,0.662-2.814c-0.364-0.574-0.996-0.95-1.716-0.951l0.001-0.001c-0.003,0-0.006,0-0.009,0c-1.127,0-2.04,0.913-2.04,2.04c0,0.003,0,0.006,0,0.008c0,0.455,0.146,0.89,0.414,1.241l2.628,3.662c0.31,0.537,0.124,1.242-0.414,1.572c-0.538,0.311-1.241,0.125-1.572-0.414c-0.099-0.166-0.157-0.367-0.157-0.581c0-0.405,0.209-0.761,0.524-0.967l0.004-0.003l0.042-0.021c0.206-0.145,0.269-0.414,0.124-0.621c-0.082-0.122-0.218-0.202-0.372-0.207h-0.001c-0.077,0.001-0.148,0.025-0.209,0.064l-0.039,0.02c-0.951,0.6-1.262,1.861-0.662,2.813c0.601,0.953,1.862,1.264,2.813,0.662c0.952-0.6,1.263-1.861,0.662-2.813C16.447,13.612,16.406,13.571,16.384,13.509z"/><polygon points="15.766 11.006 15.766 11.006 15.764 11.007"/><polygon points="10.265 11.008 10.265 11.008 10.263 11.009"/><polygon points="8.214 12.975 8.214 12.975 8.216 12.974"/><polygon points="7.497 10.313 7.495 10.308 7.492 10.304"/></svg>