<svg xmlns="http://www.w3.org/2000/svg" enable-background="new 0 0 24 24" viewBox="0 0 24 24"><path fill="#4D4D4E" d="M23.071,23.997H0.929C0.419,23.997,0,23.578,0,23.068V0.932c0-0.51,0.419-0.929,0.929-0.929h22.141c0.51,0,0.929,0.419,0.929,0.929v22.141C23.995,23.584,23.581,23.997,23.071,23.997L23.071,23.997z"/><path fill="#F89820" d="M5.533,7.249l12.559-3.986c0,0,0.892-0.467,0.677,0.397L18.8,7.501c0,0,0.156,0.564-0.618,0.704L13.08,9.8L5.533,7.249z"/><path fill="#F89820" d="M5.533,7.249c0,0-0.494,0.118-0.349,0.962l-0.027,3.701c0,0-0.043,0.467,0.843,0.655l12.446,4.007c0,0,0.419,0.167,0.371-0.349l0.005-4.125c0,0,0.118-0.424-0.655-0.704L13.08,9.8L5.533,7.249z"/><linearGradient id="a" x1="-1.78" x2=".491" y1="-774.227" y2="-773.441" gradientTransform="matrix(5.5944 0 0 -5.5944 15.841 -4312.876)" gradientUnits="userSpaceOnUse"><stop offset=".233" stop-color="#f89822"/><stop offset="1" stop-color="#c27818"/></linearGradient><path fill="url(#a)" d="M11.017,14.178l-5.296,1.617c0,0-0.639,0.021-0.564,1.219s-0.005,3.61-0.005,3.61s0.054,0.446,0.666,0.188l12.559-4.007c0,0,0.446-0.113,0.07-0.236C18.07,16.45,11.017,14.178,11.017,14.178z"/></svg>