<svg xmlns="http://www.w3.org/2000/svg" enable-background="new 0 0 24 24" viewBox="0 0 24 24"><path d="M13.595,10.346V9.003c0-0.308-0.281-0.585-0.636-0.585h-1.472c-0.332,0-0.636,0.25-0.636,0.585v1.343c0,0.309,0.277,0.59,0.636,0.59h1.472l-0.003-0.002C13.287,10.934,13.595,10.682,13.595,10.346z"/><path fill="#25A8E8" d="M11.904,0.02h-0.551c-0.223,0-0.372,0.086-0.372,0.281v1.393c0,0.195,0.104,0.279,0.327,0.279h0.447c2.14,0,3.628,1.705,3.628,3.412V9.81c0,1.373,0.982,2.517,2.499,3.217c0.104,0.056,0.134,0.139,0.134,0.195c0,0.056-0.016,0.11-0.134,0.141c-1.667,0.613-2.499,2.294-2.499,3.493v3.917c0,1.735-1.502,1.26-3.643,1.26h-0.446c-0.223,0-0.342,0.085-0.342,0.279v1.398c0,0.196,0.133,0.28,0.356,0.28h0.55c3.579,0,6.461,0.334,6.461-2.714v-4.081c0-1.429,1-2.295,2.468-2.716l0.055,0.011c0.669-0.195,0.936-0.314,0.906-0.57v-1.17c0-0.45-0.31-0.481-0.862-0.646c-1.503-0.524-2.498-1.335-2.498-2.744V5.64C18.388,2.592,15.473,0.02,11.904,0.02z"/><path d="M2.583,23.969h5.541v-0.003c0.222,0,0.334-0.089,0.305-0.255v-1.484c0-0.179-0.136-0.255-0.36-0.255H5.574c-0.25,0-0.364-0.074-0.364-0.27V2.293c0-0.196,0.114-0.307,0.416-0.307h2.451c0.223,0,0.343-0.057,0.343-0.252V0.279C8.42,0.084,8.288,0,8.064,0H2.577C2.353,0,2.25,0.115,2.25,0.279v23.438C2.25,23.913,2.36,23.969,2.583,23.969z"/></svg>