<svg xmlns="http://www.w3.org/2000/svg" enable-background="new 0 0 24 24" viewBox="0 0 24 24"><path fill="#31CD5D" d="M21.506,8.033c-0.563-0.018-1.015,0.421-1.029,0.95c-0.019,0.545,0.41,1.003,0.961,1.021c0.562,0.018,1.015-0.416,1.033-0.95C22.49,8.509,22.057,8.055,21.506,8.033z M21.669,9.114c-0.585,0-0.585-0.585,0-0.585C22.254,8.529,22.254,9.114,21.669,9.114z"/><path fill="#31CD5D" d="M23.86,10.373c0.03-0.022,0.164-0.109,0.137-0.214c-0.524-1.806-0.851-2.354-1.31-2.613c-1.405-0.811-4.749-1.303-4.908-1.326c0.004-0.004-0.034-0.011-0.034,0.026l0.001,0.003c0,0-0.011,0.687-0.011,0.762c-0.346-0.113-2.827-0.905-5.155-0.987c-1.972-0.067-4.665-0.162-8.472,2.151C3.37,8.641,1.299,9.907,0.323,12.294c-0.209,0.499-0.479,1.626-0.209,2.681c0.118,0.462,0.335,0.923,0.626,1.34c0.661,0.939,1.77,1.562,2.967,1.667c1.686,0.147,2.967-0.601,3.419-2.001c0.311-0.968,0-2.388-1.197-3.112c-0.972-0.59-2.025-0.454-2.629-0.06c-0.528,0.345-0.828,0.883-0.821,1.471c0.011,1.044,0.923,1.6,1.576,1.6c0.19,0,0.383-0.031,0.601-0.102c0.247-0.067,0.505-0.244,0.505-0.559c0-0.454-0.441-0.556-0.639-0.522c-0.11,0.018-0.171,0.075-0.448,0.09c-0.076-0.007-0.456-0.116-0.456-0.525v-0.004c0.007-0.462,0.502-0.676,0.969-0.634c1.227,0.105,1.812,1.528,1.083,2.467c-0.695,0.89-2.91,0.872-3.787-0.766c-0.988-1.847,0.482-4.175,3.305-3.695c1.261,0.214,3.176,1.333,3.89,3.916h1.744c-0.216-0.661-0.338-2.565,1.623-2.565c2.154,0,2.427,1.498,3.032,2.565h1.846c-0.486-0.687-0.824-1.453-0.718-2.095c0.213-1.269,1.508-0.69,3.131-0.653c2.526,0.015,3.879-1.014,3.917-1.052c0.14-0.116,0.247-0.593,0.266-0.665c0.049-0.191-0.122-0.09-0.122-0.09c-0.331,0.195-1.159,0.57-1.934,0.585c-0.961,0.018-2.895-0.954-3.1-1.059c-0.011-0.015,0.004,0.045-0.418-0.957C21.702,11.747,22.838,11.079,23.86,10.373z M20.04,8.982c0.023-0.758,0.665-1.388,1.477-1.363c1.269,0.045,1.854,1.588,0.927,2.448C21.526,10.919,19.998,10.24,20.04,8.982z"/></svg>