<svg xmlns="http://www.w3.org/2000/svg" enable-background="new 0 0 24 24" viewBox="0 0 24 24"><path fill="#E94E36" d="M14.748,1.375c2.412,3.236,3.365,7.085,2.524,10.544c-0.056,0.278-0.168,0.614-0.28,0.892c-0.178-0.099-0.325-0.19-0.466-0.289l0.016,0.011c0,0-5.439-3.347-11.27-9.205c-0.169-0.167,3.14,4.685,6.841,8.535c-1.738-1.005-6.673-4.518-9.758-7.364C2.692,5.112,3.197,5.726,3.701,6.34c2.58,3.292,5.945,7.307,9.983,10.375c-2.86,1.731-6.842,1.841-10.88,0C1.794,16.27,0.954,15.712,0,15.042c1.682,2.622,4.318,5.022,7.459,6.304c3.757,1.619,7.57,1.507,10.318,0h0.057c0.112-0.056,0.224-0.111,0.336-0.223c1.346-0.67,3.982-1.395,5.44,1.395c0.392,0.781,1.121-2.845-1.626-6.192h-0.001c0.056-0.111,0.056-0.223,0.112-0.334C23.441,10.747,20.244,4.611,14.748,1.375z"/></svg>