<svg xmlns="http://www.w3.org/2000/svg" enable-background="new 0 0 24 24" viewBox="0 0 24 24"><path fill="#DD0671" d="M14.419,1.162c3.775,0,5.535,1.971,6.27,7.225l1.17-0.05L21.702,0H2.489L2.3,8.337l1.125,0.05c0.195-1.97,0.429-3.032,0.936-4.093c0.896-1.97,2.768-3.132,5.068-3.132h0.819v18.138c0,1.921-0.117,2.527-0.584,2.981c-0.39,0.354-1.169,0.506-2.067,0.506H6.699V24h10.681v-1.213h-0.902c-0.891,0-1.676-0.152-2.06-0.506c-0.468-0.454-0.586-1.061-0.586-2.981V1.162H14.419z"/><rect width="4.926" height="4.905" x="2" y="10.953" fill="#DD0671"/><rect width="4.926" height="4.905" x="17.074" y="10.953" fill="#DD0671"/></svg>