<svg xmlns="http://www.w3.org/2000/svg" enable-background="new 0 0 24 24" viewBox="0 0 24 24"><path fill="#F6C722" d="M23.36,23.86v0.13L1.01,23.97v-0.48c0-0.88,0.02-1.75,0.06-2.49c0.21-0.06,0.48-0.06,0.65-0.17c-0.01-0.06-0.03-0.11-0.04-0.18c-0.18-0.02-0.42,0.11-0.59,0.1c0.06-1.22,0.15-2.4,0.34-3.48l0.06-0.01c0.18-0.04,0.37-0.09,0.49-0.13v0.02c0.16,0.4,0.44,0.74,0.8,0.97c0.91,0.54,1.18-0.86,1.34-1.52c4.88-0.96,11.55-0.88,16.4,0.05v0.03c0.06,0.26,0.15,0.5,0.26,0.72c0.1,0.2,0.24,0.5,0.46,0.54c0.59,0.13,0.97-0.55,1.22-0.81c0.16,0.06,0.35,0.09,0.49,0.17c0.16,1.16,0.29,2.35,0.33,3.62c-0.18-0.03-0.49-0.19-0.44,0.06c0.02,0.12,0.33,0.07,0.46,0.17C23.34,22.05,23.36,22.95,23.36,23.86z"/><path fill="#212131" d="M23.72,22.82c0-0.31,0-0.63-0.01-0.89c-0.05-1.41-0.13-2.93-0.33-4.22c-0.04-0.26-0.08-0.63-0.18-0.74c-0.13-0.15-0.44-0.16-0.59-0.25c0.13-0.38,0.23-1.06,0.01-1.37c-0.16-0.23-0.58-0.35-0.9-0.43c-1.22-0.31-2.44,0.17-2.95,0.84c0,0,0.01-0.01,0.01-0.02c0.48-0.87,1.73-1.3,3.1-1.02c0.43-1.43,0.42-3.18,0.05-4.53c-0.37-1.35-0.92-2.53-1.61-3.52c-1.43-2.06-3.41-3.48-6.39-3.85c-0.46-0.06-0.94-0.09-1.42-0.09c-2.49,0-4.79,0.8-6.64,2.14C4.92,5.56,4.05,6.43,3.39,7.51c-0.64,1.05-1.2,2.4-1.2,3.95c0.01,1.4,0.45,2.45,0.79,3.54c1.11-0.2,2.03,0.25,2.6,0.76c0.05,0.05,0.17,0.11,0.15,0.2c-0.15-0.06-0.26-0.2-0.4-0.3c-0.65-0.46-1.63-0.69-2.61-0.41c-0.28,0.08-0.67,0.2-0.81,0.43c-0.16,0.26-0.09,0.7-0.05,1.09c-0.27,0.09-0.56,0.17-0.84,0.26c-0.18,2.18-0.29,4.43-0.36,6.73c0.08,0.09,0.27,0.24,0.35,0.21v-0.48c0-0.88,0.02-1.75,0.06-2.49c0.21-0.06,0.48-0.06,0.65-0.17c-0.01-0.06-0.03-0.11-0.04-0.18c-0.18-0.02-0.42,0.11-0.59,0.1c0.06-1.22,0.15-2.4,0.34-3.48l0.06-0.01c0.18-0.04,0.37-0.09,0.49-0.13v0.02c0.16,0.4,0.44,0.74,0.8,0.97c0.91,0.54,1.18-0.86,1.34-1.52c4.88-0.96,11.55-0.88,16.4,0.05v0.03c0.06,0.26,0.15,0.5,0.26,0.72c0.1,0.2,0.24,0.5,0.46,0.54c0.59,0.13,0.97-0.55,1.22-0.81c0.16,0.06,0.35,0.09,0.49,0.17c0.16,1.16,0.29,2.35,0.33,3.62c-0.18-0.03-0.49-0.19-0.44,0.06c0.02,0.12,0.33,0.07,0.46,0.17c0.04,0.9,0.06,1.8,0.06,2.71v0.13c0.12-0.07,0.32-0.12,0.36-0.26C23.78,23.52,23.72,23.12,23.72,22.82z M8.78,11.45c-0.03,0.4-0.23,0.72-0.66,0.49c-0.36-0.19-0.55-0.91-0.52-1.47c0.02-0.29,0.08-0.58,0.33-0.63C8.51,9.73,8.83,10.82,8.78,11.45z M14.96,15.07c-0.78,0.33-2.14,0.26-3.05-0.02c-0.43-0.13-0.77-0.29-1.09-0.53c-0.27-0.2-0.64-0.53-0.61-0.99c0.02-0.31,0.27-0.55,0.46-0.66c0.56-0.31,1.33-0.19,1.89-0.1l0.13,0.01c0.31,0.06,0.62,0.11,0.78,0.15c0.29,0.06,0.65,0.18,0.92,0.12c0.55-0.12,0.78-0.99,1.43-1.08c0.58-0.07,0.86,0.46,0.85,1.05C16.66,14,15.69,14.75,14.96,15.07z M16.64,10.32c-0.22-0.16-0.39-0.56-0.44-0.94c-0.06-0.35-0.03-0.81,0.23-0.88c0.11-0.03,0.3,0.03,0.41,0.12c0.25,0.22,0.46,0.82,0.42,1.32C17.24,10.32,17.01,10.59,16.64,10.32z"/><path fill="#212131" d="M15.027 19.908c.248.037.536.034.789.067.001-.071.028-.116.015-.2-.248-.035-.535-.031-.788-.064.001.013.001.028.001.042C15.044 19.809 15.038 19.861 15.027 19.908zM13.911 2.816c.008.001.014.003.022.004.011.001.024.001.035.002L13.911 2.816zM1.008 23.974L1.008 23.974c0 .009 0 .017 0 .026V23.974zM13.466 19.843c.258.009.524.013.773.033.03-.041.01-.132.017-.199-.252-.023-.517-.029-.79-.032V19.843zM20.535 20.357L20.535 20.357c-.272-.026-.511-.084-.772-.116-.02.062-.032.128-.034.197.255.049.527.077.772.132.022-.064.034-.132.034-.204C20.535 20.363 20.535 20.36 20.535 20.357zM10.311 19.843c.27.003.507-.03.787-.018v-.198H11.1h.009c-.063-.001-.126-.002-.189-.002-.215 0-.427.007-.609.02V19.843zM4.014 20.241c.002.07.014.137.034.196C4.306 20.4 4.563 20.36 4.82 20.32c-.017-.063.01-.174-.05-.196C4.526 20.168 4.266 20.202 4.014 20.241L4.014 20.241zM21.29 20.717c.281.023.495.112.773.133 0-.078.03-.125.034-.197-.268-.039-.52-.096-.773-.148C21.306 20.567 21.272 20.676 21.29 20.717zM11.888 19.809c.261.006.514.026.79.016v-.198c-.258-.01-.515-.024-.79-.016V19.809zM5.594 20.206c.224 0 .531-.06.788-.082.013-.086-.023-.119-.017-.199-.263.033-.539.054-.789.099C5.574 20.092 5.605 20.129 5.594 20.206z"/><polygon fill="#212131" points="19.763 20.241 19.763 20.241 19.764 20.236"/><polygon fill="#212131" points="20.501 20.57 20.501 20.57 20.5 20.574"/><path fill="#212131" d="M9.522 19.877v-.199c-.277-.002-.512.035-.79.034v.197C9.013 19.915 9.249 19.879 9.522 19.877zM2.486 20.702c.273-.028.512-.093.773-.133.002-.08-.014-.139-.034-.196-.261.04-.499.104-.772.132C2.453 20.582 2.482 20.629 2.486 20.702zM7.944 19.976v-.2c-.272.014-.527.043-.79.067-.001.072-.005.148.017.198C7.43 20.023 7.686 19.996 7.944 19.976zM.25 8.205C.502 8.399.774 8.158.956 8.04l.028-.017c.206-.137.404-.283.58-.428l.482-.374c1.907-1.529 3.791-3.088 5.306-4.387.563-.481 1.175-.945 1.71-1.455C9.229 1.22 9.493 1.013 9.391.717c-.352-.106-.637.167-.889.33C8.235 1.222 7.977 1.426 7.697 1.56 6.964.71 6.052-.078 4.475.006 3.359.066 2.399.61 1.68 1.262.98 1.898.346 2.832.348 3.941.35 4.523.541 5.045.726 5.494c.188.453.412.847.658 1.273C1.17 6.981.971 7.211.759 7.427.554 7.638.321 7.868.25 8.205zM18.955 20.32c-.01-.082.029-.112.017-.196h.001c-.248-.038-.563-.092-.79-.1.008.073-.007.124-.017.182C18.419 20.257 18.701 20.276 18.955 20.32zM17.378 20.124c.028-.051.012-.141.032-.199-.254-.034-.521-.059-.788-.082 0 .07-.027.115-.017.198C16.863 20.071 17.129 20.088 17.378 20.124z"/></svg>