<svg xmlns="http://www.w3.org/2000/svg" enable-background="new 0 0 24 24" viewBox="0 0 24 24"><path d="M21.74,19.71c-0.53,0.06-2.08-2.47-2.08-2.47c0,1.47-0.75,3.38-2.37,4.77c-6.21-1.8-10.58,0-10.58,0c-1.62-1.39-2.37-3.3-2.37-4.77c0,0-1.55,2.53-2.08,2.47c-0.25-0.03-0.58-1.39,0.43-4.67l0.08-0.28c0.25-0.76,0.52-1.51,0.72-1.99l0.13-0.33l0.94-2.36c-0.01-0.03-0.02-0.56-0.02-0.84C4.54,4.63,6.7,0,12,0s7.46,4.63,7.46,9.24c0,0.27-0.01,0.8-0.01,0.84l0.99,2.52l0.07,0.17l-0.06-0.17l-0.03-0.1c0.01,0.03,0.03,0.07,0.04,0.1c0.27,0.71,0.53,1.44,0.85,2.44C22.32,18.32,21.99,19.68,21.74,19.71z"/><path fill="#FFF" d="M14.03 3c.72.03 1.27.91 1.23 1.96-.04 1.06-.65 1.88-1.37 1.85-.72-.03-1.27-.91-1.23-1.96C12.69 3.79 13.31 2.97 14.03 3zM9.97 3c.72-.03 1.34.79 1.37 1.85.04 1.05-.51 1.93-1.23 1.96C9.39 6.84 8.78 6.02 8.74 4.96 8.7 3.91 9.25 3.03 9.97 3z"/><path fill="#FFCA28" d="M7.46,8.29c0.19-0.43,2.13-0.9,4.53-0.9h0.02c2.4,0,4.34,0.48,4.53,0.9c0.01,0.02,0.01,0.04,0.01,0.07c0,0.03-0.01,0.05-0.02,0.08c-0.17,0.24-2.32,1.41-4.52,1.41h-0.02c-2.2,0-4.35-1.17-4.51-1.41C7.46,8.42,7.45,8.39,7.45,8.36C7.45,8.33,7.45,8.31,7.46,8.29z"/><path d="M17.79,16.92c-0.22,3.67-2.38,5.98-5.72,6.02h-0.14c-3.34-0.04-5.5-2.35-5.72-6.02c-0.08-1.35,0-2.5,0.15-3.43c0.31,0.06,0.63,0.12,0.95,0.17v3.51c0,0,1.64,0.33,3.28,0.1v-3.22c0.49,0.02,0.96,0.04,1.4,0.03h0.02c0.27,0,0.55,0,0.83-0.01c0.01,0,0.01,0,0.02,0c1.48-0.05,3.14-0.26,4.76-0.58c0.01,0,0.01,0,0.02,0C17.79,14.42,17.87,15.57,17.79,16.92z"/><polygon points="7.463 8.293 7.463 8.294 7.463 8.294"/><path d="M10.494 5.804c.31-.041.537-.409.503-.825s-.311-.72-.623-.679c-.31.04-.536.409-.503.824C9.904 5.541 10.183 5.844 10.494 5.804zM14.457 5.156c.077.037.219.042.286-.146.035-.095.025-.165-.009-.214-.023-.033-.132-.118-.368-.176-.896-.22-1.329.384-1.392.499-.04.072-.012.176.056.227.067.051.138.037.177-.006C13.782 4.712 14.406 5.132 14.457 5.156z"/><path fill="#D32F2F" d="M19.45,10.08c-9.02,1.99-14.89,0-14.89,0l-0.94,2.36c1.16,0.78,2.74,1.05,2.74,1.05c0.31,0.06,0.63,0.12,0.95,0.17v3.51c0,0,1.64,0.33,3.28,0.1v-3.22c0.49,0.02,0.96,0.04,1.4,0.03h0.02c0.27,0,0.55,0,0.83-0.01c0.01,0,0.01,0,0.02,0h0.1c1.69,0.02,3.31-0.24,4.66-0.58c0.01,0,0.01,0,0.02,0c1.23-0.31,2.22-0.66,2.8-0.89h0.01c0.01,0,0.01,0,0.01,0L19.45,10.08z"/><path fill="#FFCA28" d="M19.42,23.62c-0.34,0.58-5.83,0.37-7.42,0.19c-1.58,0.18-7.07,0.39-7.41-0.19c-0.08-0.13-0.14-0.46,0.29-0.78c0.48-0.35,1.23-0.64,1.83-0.83c0,0,4.37-1.8,10.58,0c0.61,0.19,1.35,0.48,1.83,0.83C19.55,23.16,19.49,23.49,19.42,23.62z"/><path fill="#FFF" d="M17.79,16.92c-0.22,3.67-2.38,5.98-5.72,6.02h-0.14c-3.34-0.04-5.5-2.35-5.72-6.02c-0.08-1.35,0-2.5,0.15-3.43c0.31,0.06,0.63,0.12,0.95,0.17v3.51c0,0,1.64,0.33,3.28,0.1v-3.22c0.49,0.02,0.96,0.04,1.4,0.03h0.02c0.27,0,0.55,0,0.83-0.01c0.01,0,0.01,0,0.02,0h0.1c1.69,0.02,3.31-0.24,4.66-0.58c0.01,0,0.01,0,0.02,0C17.79,14.42,17.87,15.57,17.79,16.92z"/></svg>