<svg xmlns="http://www.w3.org/2000/svg" enable-background="new 0 0 24 24" viewBox="0 0 24 24"><path fill="#C70B01" d="M12,0C8.472,0.015,4.375,0.61,0,2.349c0,0,0.195,0.525,0.672,1.396C4.674,1.989,8.585,1.435,12,1.46v0.003c3.415-0.03,7.326,0.528,11.328,2.28C23.863,2.775,24,2.348,24,2.348C19.625,0.612,15.528,0.015,12,0z"/><path fill="#C70B01" d="M8.619,5.034L12,24l3.361-18.962c3.2,0,4.208,0.351,4.354,1.79c0,0,2.149-0.802,3.231-2.438c-4.226-1.964-8.471-2.054-8.471-2.054L12,5.362v0.002h-0.004L12,5.362L9.525,2.34c0,0-4.245,0.091-8.47,2.056c1.083,1.635,3.229,2.43,3.229,2.43C4.431,5.388,5.439,5.034,8.619,5.034z"/></svg>