<svg xmlns="http://www.w3.org/2000/svg" enable-background="new 0 0 24 24" viewBox="0 0 24 24"><path fill="#255793" d="M2.222,18.627l8.78,5.163c0.468,0.276,1.229,0.28,1.7,0.01l9.069-5.184c0.471-0.269,0.853-0.929,0.853-1.474V6.794c0-0.544-0.382-1.203-0.855-1.47l-9.065-5.126c-0.472-0.267-1.235-0.262-1.705,0.01l-0.001-0.001L2.224,5.313c-0.469,0.272-0.849,0.935-0.849,1.48v10.349C1.375,17.687,1.754,18.351,2.222,18.627z M16.608,9.637c3.292,0,3.296,5.04,0,5.04C13.241,14.676,13.36,9.637,16.608,9.637z M9.712,9.726c0.763,0,1.525,0.007,2.289,0.007c2.167,0.013,2.27,2.763,0.516,3.121l1.458,1.65v0.062h-1.079l-1.402-1.615H10.62v1.615H9.712V9.726z M5.059,9.734c0.757,0,1.513-0.007,2.269-0.007c2.351,0,2.358,3.417,0,3.417H5.967v1.422H5.059V9.734z"/><path fill="#255793" d="M16.608 13.841c2.125 0 2.093-3.376 0-3.376C14.5 10.466 14.483 13.841 16.608 13.841zM12.003 10.582h-1.382v1.546h1.382C13.106 12.128 13.11 10.582 12.003 10.582zM7.469 10.507v.001H5.937v1.85h1.533C8.471 12.358 8.474 10.507 7.469 10.507z"/></svg>