<svg xmlns="http://www.w3.org/2000/svg" enable-background="new 0 0 24 24" viewBox="0 0 24 24"><path d="M2.358 15.765c.005-.023.013-.046.019-.069l-.002.002L2.358 15.765zM20.073 15.806l-.002-.001c.002.011.007.021.009.032L20.073 15.806zM1.985 15.849l-.037-.04c-.006.024-.013.049-.019.073L1.985 15.849z"/><path fill="#8EC546" d="M9.916,11.342c0.233-0.094,0.466-0.181,0.7-0.268c1.023-0.375,2.061-0.69,3.113-0.944c0.873-0.21,1.744-0.375,2.633-0.509l0.06-0.016c-0.241-0.225-0.496-0.419-0.752-0.615c-0.481-0.359-1.007-0.66-1.563-0.899c-1.295-0.554-2.723-0.733-4.105-0.478C9.249,7.747,8.511,8.003,7.835,8.363c-1.067,0.569-2,1.378-2.768,2.306l-0.03,0.016l0.466,0.044l0.572,0.076c0.813,0.134,1.594,0.3,2.391,0.478c0.301,0.076,0.887,0.285,0.887,0.285C9.563,11.477,9.705,11.422,9.916,11.342z"/><path fill="#2DA9E2" d="M0.089,13.502c0.091,0.314,0.242,0.615,0.393,0.899c0.285,0.494,0.646,0.958,1.022,1.393l0.444,0.483c0.046-0.18,0.093-0.362,0.141-0.541c0.08-0.3,0.176-0.598,0.266-0.893c0.069-0.216,0.15-0.427,0.227-0.643c0.09-0.224,0.185-0.448,0.277-0.674c0.033-0.076,0.061-0.153,0.098-0.229c0.102-0.214,0.211-0.425,0.322-0.635c0.135-0.241,0.256-0.479,0.391-0.704c0.18-0.315,0.377-0.6,0.586-0.885l0.016-0.015c-0.331-0.016-0.677-0.016-1.008-0.016c-0.24,0-0.496,0.016-0.736,0.045c-0.166,0.016-0.33,0.031-0.496,0.061c-0.121,0.016-0.24,0.045-0.361,0.075c-0.586,0.149-1.248,0.419-1.533,1.003c-0.031,0.076-0.061,0.151-0.091,0.241C0.015,12.587,0,12.737,0,12.873C0,13.083,0.045,13.292,0.089,13.502z"/><path fill="#F89224" d="M23.909,11.635c-0.031-0.094-0.076-0.184-0.121-0.269c-0.091-0.153-0.211-0.29-0.331-0.412c-0.21-0.2-0.468-0.359-0.723-0.487c-0.376-0.187-0.781-0.312-1.201-0.405c-0.603-0.136-1.205-0.2-1.821-0.225C18.87,9.797,18.028,9.832,17.2,9.913c0.105,0.108,0.196,0.224,0.301,0.337c0.195,0.225,0.392,0.465,0.571,0.72c0.227,0.299,0.437,0.629,0.647,0.958c0.602,0.988,1.054,2.067,1.383,3.161c0.105,0.329,0.182,0.66,0.255,1.004c0.031,0.12,0.048,0.255,0.077,0.39l0.08,0.016c0.192-0.026,0.376-0.111,0.542-0.209c0.345-0.2,0.646-0.471,0.936-0.747c0.226-0.213,0.444-0.434,0.653-0.667c0.12-0.145,0.256-0.295,0.376-0.45c0.105-0.142,0.21-0.284,0.315-0.434c0.076-0.115,0.15-0.229,0.212-0.349C23.878,13.048,24.149,12.313,23.909,11.635z"/><path fill="#FEF204" d="M16.803,10.006l-0.041-0.04c-0.2,0.014-0.399,0.045-0.603,0.074c-2.154,0.331-4.26,0.915-6.285,1.709c0.168,0.045,0.336,0.09,0.507,0.15c0.706,0.225,1.413,0.464,2.108,0.72c2.421,0.899,4.755,2.022,6.998,3.31l0.584,0.345c-0.495-2.282-1.545-4.491-3.185-6.181L16.803,10.006z"/><path fill="#1572B8" d="M4.469,11.468c-0.181,0.27-0.354,0.525-0.517,0.81c-0.15,0.239-0.271,0.479-0.392,0.72c-0.104,0.194-0.21,0.389-0.286,0.584c-0.029,0.045-0.045,0.105-0.06,0.15c-0.091,0.225-0.195,0.449-0.286,0.674c-0.074,0.18-0.135,0.359-0.195,0.539c-0.09,0.285-0.18,0.555-0.255,0.84c-0.039,0.126-0.073,0.253-0.102,0.379l0.871-0.837c0.15-0.142,0.15-0.141,0.301-0.279c1.533-1.349,3.318-2.366,5.18-3.205c-0.275-0.076-0.549-0.136-0.824-0.194c-1.053-0.24-2.113-0.435-3.188-0.525C4.632,11.243,4.55,11.349,4.469,11.468z"/></svg>