<svg xmlns="http://www.w3.org/2000/svg" enable-background="new 0 0 24 24" viewBox="0 0 24 24"><polygon points="4.559 9.935 4.558 9.935 4.554 9.934"/><polygon points="4.561 9.936 4.559 9.935 4.56 9.936"/><path fill="#DE2318" d="M0.761,17.39l-0.002-0.024L0,21.5h3.904C2.196,20.791,0.974,19.242,0.761,17.39z"/><path d="M11.679,5.084l-0.028,0.006c0.016-0.004,0.032-0.005,0.047-0.009c0.003-0.001,0.005-0.002,0.009-0.003L11.679,5.084z"/><path fill="#DE2318" d="M3.489,2.5L1.281,14.529c0.862-1.665,2.586-2.785,4.574-2.785h0.007c0.002,0,0.005,0,0.007,0c1.08,0,2.08,0.333,2.903,0.901l-0.017-0.011l-0.017-0.011c0.391-0.353,0.693-0.797,0.871-1.298l0.007-0.023l0.007-0.023c0.413-1.313-0.787-5.411,3.662-5.476c2.222-0.031,5.068,1.795,4.992,1.785c-3.994-0.607-5.263-0.778-6.242,1.102c-0.889,1.707-0.657,3.128-1.802,4.192c-0.979,0.913-3.32,1.517-4.048,1.368c-0.33-0.068,0.837-0.375,1.921-1.123c-0.644-0.392-1.424-0.624-2.259-0.624c-2.408,0-4.36,1.93-4.36,4.311c0,2.381,1.952,4.311,4.36,4.311c2.292,0,4.171-1.749,4.347-3.971l0.001-0.015l0.001-0.014c0.251,0.143,0.489,0.291,0.711,0.439c-0.281,1.778-1.459,3.23-3.054,3.91L7.786,21.5h9.235c-0.733-1.25-3.514-5.208-9.87-6.331c0.783-0.383,7.589-0.195,13.545,5.32L24,2.502L3.489,2.5z M13.237,5.012C13.06,4.986,12.854,4.97,12.645,4.97c-0.326,0-0.643,0.04-0.946,0.111C9.607,5.583,8.85,8.007,8.708,8.225C8.691,8.249,7.522,7.632,7.434,6.419C7.372,5.536,7.692,4.687,8.959,4.22l0.002,0.002C9.234,4.124,9.55,4.066,9.879,4.066c0.049,0,0.098,0.001,0.146,0.004h-0.007c0.592,0.019,1.176,0.175,1.664,0.291c1.338,0.316,2.533,0.666,2.372,0.739C14.02,5.113,13.467,5.036,13.237,5.012z M13.123,14.572c-1.971-1.173-0.712-4.012-0.114-5.241c0.342-0.696,0.964-1.195,2.397-1.213h0.001c0.651-0.008,1.469,0.084,2.505,0.302c-0.71,0.416-1.322,0.893-1.864,1.439l-0.001,0.001L16.044,9.86c-1.07,1.086-2.061,2.537-1.691,3.341c0.37,0.804,2.652,1.805,4.3,2.887c0.852,0.562,1.515,2.53,1.517,2.537C17.06,16.236,14.801,15.563,13.123,14.572z"/></svg>