<svg xmlns="http://www.w3.org/2000/svg" enable-background="new 0 0 24 24" viewBox="0 0 24 24"><path fill="#66C170" d="M1,7.164v9.638c0,0.736,0.523,1.638,1.157,1.998l8.695,4.929c0.64,0.361,1.686,0.361,2.313,0l8.671-4.929C22.478,18.436,23,17.538,23,16.803V7.149c0-0.736-0.522-1.635-1.149-1.998l-1.435-0.814L20.388,4.34c-0.792-0.448-2.055,0.275-2.821,1.617l-1.391,2.435c-0.211,0.406-0.335,0.888-0.335,1.398c0,0.653,0.202,1.258,0.548,1.757l-0.007-0.01l0.04,0.061c0.642,0.93,1.508,1.788,1.791,2.095c0.265,0.285,0.427,0.668,0.427,1.09c0,0.727-0.482,1.339-1.143,1.532l-0.011,0.003c-0.128,0.037-0.275,0.059-0.427,0.059c-0.87,0-1.575-0.71-1.575-1.585c0-0.071,0.005-0.142,0.014-0.21l-0.001,0.008c0.044-0.346-0.066-0.917-0.564-1.473c-0.497-0.557-1.513,0.495-1.841,1.593l-0.016,0.06c-0.328,1.082-0.536,2.028-0.473,2.12c0.036,0.059,0.071,0.119,0.103,0.18c0.132,0.243,0.208,0.533,0.208,0.842c0,0.989-0.796,1.79-1.778,1.79c-0.676,0-1.264-0.38-1.565-0.94l-0.005-0.01c-0.132-0.243-0.209-0.533-0.209-0.842c0-0.681,0.377-1.272,0.933-1.574l0.01-0.005l0.119-0.06c0.064-0.029,0.255-0.481,0.416-1.021l0.296-0.976c0.019-0.046,0.032-0.106,0.044-0.166l0.881-3.155l-0.94,1.939c-0.11-0.359-0.295-0.376-0.697-0.09c-0.239,0.181-0.642,0.525-0.835,0.662c-0.359,0.27-0.673,0.779-0.836,1.097c-0.094,0.2-0.231,0.366-0.4,0.493l-0.004,0.002c-0.672,0.558-1.657,0.451-2.195-0.225c-0.214-0.267-0.344-0.61-0.344-0.984c0-0.754,0.527-1.384,1.229-1.538l0.01-0.002c0.402-0.091,1.746-0.917,2.55-1.503c0.149-0.105,0.269-0.195,0.373-0.301l2.164-1.652l-1.881,1.021c0,0-0.193-0.016-0.419,0.017c-0.686,0.074-1.403,0.18-1.537,0.346c-0.077,0.108-0.172,0.198-0.281,0.267l-0.004,0.002c-0.626,0.451-1.492,0.317-1.954-0.313C5.898,9.963,5.801,9.679,5.801,9.372c0-0.474,0.23-0.893,0.584-1.151l0.004-0.003c0.254-0.181,0.567-0.271,0.85-0.271c0.509,0.016,1.837,0.287,2.941,0.091l0.283-0.044c1.12-0.194,2.433-1.173,2.971-2.163l1.163-2.045c0.642-1.127,0.597-2.358-0.103-2.765l-1.3-0.752c-0.642-0.359-1.685-0.359-2.313,0L2.178,5.181C1.523,5.526,1,6.428,1,7.164z"/></svg>