<svg xmlns="http://www.w3.org/2000/svg" enable-background="new 0 0 24 24" viewBox="0 0 24 24"><path fill="#fb8c00" d="m10.121 16.908c.064-.054.129-.11.189-.169-3.341 3.278-8.776 1.738-10.049-2.87v-.007c-1.731-6.353 5.56-10.992 10.047-6.656.092.098 5.994 6.392 5.994 6.392s-.024-.025-.074-.079c.025.027.044.047.056.06h.018c.457.471 1.014.688 1.557.688 1.419 0 2.21-1.284 2.21-2.362 0-.738-.322-1.46-.923-1.89l-.24-.167c-.311-.171-.655-.256-1.001-.256-.648 0-1.407.321-1.844 1.027-.247.384-.362.83-.362 1.279 0 .098.005.196.016.293l-1.511-1.54-1.753-1.677c.361-.718.836-1.346 1.43-1.889-.064.055-.129.112-.189.169 3.34-3.277 8.78-1.733 10.049 2.874v.006c1.719 6.296-5.52 11.034-10.047 6.656-.09-.097-5.99-6.432-5.99-6.432.093.1.111.119.018.019l-.004-.015c-.016 0-.016-.015-.016-.015-.949-.979-2.283-.901-3.1-.031-.444.463-.669 1.076-.669 1.685 0 2.316 2.852 3.111 4.009 1.245.247-.385.36-.84.36-1.292 0-.098-.005-.196-.016-.294.095.098 3.277 3.365 3.277 3.365s-.013-.013-.04-.041c.014.014.024.024.03.031-.597 1.196-1.345 1.793-1.432 1.893z"/></svg>