<svg xmlns="http://www.w3.org/2000/svg" enable-background="new 0 0 24 24" viewBox="0 0 24 24"><path fill="#F48305" d="M10.273 24c1.927 0 5.165-3.188 7.788-7.447l-.001.001c-.371.124-.616.124-.982.124-3.036 0-7.464-10.634-7.464-14.191 0-1.323.287-1.736.738-2.111C6.662.831 2.427 2.198.994 3.932.707 4.345.5 5.047.5 5.92.5 11.465 6.169 24 10.273 24zM23.5 2.814c0-2.191-3.556-2.812-7.367-2.812V0c-1.598 0-2.214.29-2.214 1.945 0 3.558 2.856 10.634 5.398 10.634C20.713 12.579 23.5 7.239 23.5 2.814z"/></svg>