<svg xmlns="http://www.w3.org/2000/svg" enable-background="new 0 0 24 24" viewBox="0 0 24 24"><path fill="#D74615" d="M24,12c0-6.629-5.371-12-12-12S0,5.371,0,12s5.371,12,12,12S24,18.629,24,12z M14.55,4.499c0.426-0.736,1.37-0.992,2.105-0.566c0.74,0.425,0.992,1.37,0.566,2.11c-0.425,0.735-1.37,0.992-2.105,0.566C14.375,6.179,14.123,5.236,14.55,4.499z M13.737,5.602c0.213,1.37,1.635,2.192,2.928,1.694c1.118,1.108,1.838,2.609,1.945,4.282l-2.226,0.029v0.001c-0.261-3-3.45-4.897-6.237-3.601l-1.089-1.95C11.376,4.91,13.485,5.535,13.737,5.602z M4.229,13.543c-0.852,0-1.543-0.692-1.543-1.543s0.692-1.543,1.543-1.543c0.852,0,1.543,0.692,1.543,1.543S5.081,13.543,4.229,13.543z M5.589,13.694c1.078-0.866,1.083-2.511,0-3.382c0.416-1.587,1.408-2.937,2.733-3.828l1.147,1.916c-2.492,1.757-2.492,5.443,0,7.2l-1.147,1.916C6.997,16.63,6.009,15.276,5.589,13.694z M16.654,20.066c-0.74,0.426-1.679,0.174-2.105-0.566c-0.425-0.74-0.174-1.684,0.566-2.11c0.736-0.425,1.679-0.174,2.105,0.566C17.645,18.696,17.395,19.64,16.654,20.066z M16.669,16.704v-0.001c-1.292-0.498-2.715,0.319-2.927,1.694c-0.252,0.068-2.366,0.692-4.679-0.455l1.089-1.95c2.758,1.282,5.971-0.566,6.237-3.6l2.231,0.034C18.507,14.096,17.782,15.595,16.669,16.704z"/></svg>