<svg xmlns="http://www.w3.org/2000/svg" enable-background="new 0 0 24 24" viewBox="0 0 24 24"><path fill="#3442AB" d="M12,0.375C5.363,0.375,0,5.553,0,12c0,6.446,5.363,11.625,12,11.625S24,18.445,24,12C24,5.553,18.637,0.375,12,0.375z M19.063,12.845c-0.052,1.269-0.265,2.274-0.69,3.065c-0.425,0.74-1.116,1.321-2.126,1.637c-1.008,0.32-2.387,0.477-4.14,0.477h-0.213c-1.753,0-3.132-0.158-4.142-0.477c-1.008-0.317-1.699-0.899-2.124-1.637c-0.424-0.793-0.637-1.796-0.69-3.065c-0.053-1.269,0-1.427,0-1.427c-0.004-0.69,0.05-1.379,0.159-2.061c0.106-0.581,0.159-1.003,0.267-1.479c0.051-0.211,0.104-0.266,0.104-0.369c0.053-0.055,0.161-0.159,0.266-0.159h0.052l1.54,0.211c0.107,0,0.212,0.108,0.212,0.212v0.052L7.433,8.246C7.326,8.671,7.274,9.199,7.166,9.832c-0.051,0.635-0.104,1.27-0.104,1.956c-0.053,1.269,0.105,2.217,0.371,2.8c0.318,0.581,0.797,1.005,1.541,1.162c0.637,0.107,1.592,0.21,2.76,0.21v0.002h0.531c1.168,0,2.123-0.053,2.762-0.212c0.744-0.157,1.273-0.579,1.539-1.162c0.267-0.634,0.371-1.532,0.371-2.8c0-0.687,0-1.32-0.105-1.956c-0.108-0.633-0.16-1.16-0.266-1.585L16.46,7.825V7.773c0-0.105,0.108-0.212,0.213-0.212l1.54-0.211h0.053c0.161,0,0.266,0.053,0.266,0.159c0.052,0.052,0.052,0.158,0.105,0.369c0.108,0.422,0.161,0.845,0.266,1.48c0.056,0.631,0.16,1.32,0.16,2.059C19.063,11.418,19.115,11.576,19.063,12.845z"/></svg>