<svg xmlns="http://www.w3.org/2000/svg" enable-background="new 0 0 24 24" viewBox="0 0 24 24"><path fill="#6CD441" d="M18.561,5.024c-2.539,0-4.51,1.648-5.31,4.362c-1.22-1.832-2.148-4.032-2.687-5.887H7.828v7.105c-0.002,1.405-1.141,2.543-2.547,2.545c-1.405-0.002-2.543-1.142-2.545-2.545V3.5H0v7.105c0,2.911,2.37,5.298,5.281,5.298c2.913,0,5.283-2.387,5.283-5.298V9.416c0.529,1.106,1.182,2.227,1.974,3.218L10.865,20.5h2.797l1.213-5.705c1.063,0.678,2.285,1.108,3.686,1.108c3,0,5.439-2.45,5.439-5.445C24,7.461,21.561,5.024,18.561,5.024z M18.561,13.157c-1.102,0-2.135-0.467-3.074-1.226l0.228-1.075l0.008-0.042c0.207-1.142,0.849-3.057,2.839-3.057c1.492,0,2.703,1.211,2.703,2.7C21.264,11.945,20.053,13.157,18.561,13.157z"/><rect width="5.493" height=".134" x="1.75" fill="#7C7E81"/><rect width="5.493" height=".134" x="16.757" fill="#7C7E81"/></svg>