<svg xmlns="http://www.w3.org/2000/svg" enable-background="new 0 0 24 24" viewBox="0 0 24 24"><path d="M23.832,11.732l-3.334-1.98c-0.093-0.063-0.228-0.074-0.333-0.011s-0.168,0.166-0.168,0.289v1.317H8.395c0.946-1.462,1.515-3.955,2.603-3.955h1.115c0.281,0.77,1.01,1.318,1.886,1.318c1.108,0,2.002-0.884,2.002-1.98S15.103,4.75,14,4.75c-0.875,0-1.605,0.544-1.886,1.317c-1.901,0-2.574-0.26-4.074,3.037c-1.148,2.586-1.328,2.234-2.791,2.234c-0.299-1.136-1.342-1.98-2.581-1.98C1.197,9.36,0,10.544,0,11.998c0,1.454,1.197,2.638,2.667,2.642c1.238,0,2.278-0.848,2.581-1.98h3.753c1.631,0,1.844,5.273,4.665,5.273h0.999v0.988c0,0.185,0.146,0.329,0.333,0.329h3.334c0.187,0,0.333-0.145,0.333-0.329v-3.297c0-0.185-0.146-0.329-0.333-0.329h-3.334c-0.187,0-0.333,0.145-0.333,0.329v0.991h-0.999c-1.089,0-1.657-2.49-2.603-3.955h8.93v1.317c0,0.122,0.064,0.226,0.168,0.289c0.053,0.03,0.116,0.041,0.168,0.041c0.064,0,0.116-0.022,0.168-0.052l3.334-1.98C23.936,12.223,24,12.112,24,11.998C24,11.883,23.936,11.773,23.832,11.732z"/></svg>