<svg xmlns="http://www.w3.org/2000/svg" enable-background="new 0 0 24 24" viewBox="0 0 24 24"><path fill="#424242" d="m9.351 3.182c.077-.201.13-.322.171-.447 1.221-3.794 6.69-3.634 7.517.432.213 1.046-.054 1.742-.493 3.213-.068.227-.021.348.231.418.789.22 1.365.719 1.734 1.443.121.236.266.314.529.31 2.284-.038 3.902 1.943 3.155 4.629-.196.705-.405 1.405-.609 2.108-.623 2.146-1.697 2.007-1.888 2.575-3.167 9.448-17.349 7.395-17.521-2.176-.018-1.023-.004-2.046-.004-3.068 0-.881.262-1.677.81-2.365.29-.364.251-.121-1.221-5.308-.615-2.165.741-4.413 2.95-4.866 1.882-.387 3.794.7 4.454 2.568.053.148.104.298.185.534zm1.892 12.17c.154.509.508.668.436 2.398-.015.371-.24.59-.587.589-.724-.002-.569-.766-.594-1.271-.045-.916-.592-1.59-1.435-1.746-.22-.041-.451-.015-.675-.035-.754-.066-.8-1.091-.022-1.178.296-.033 2.194-.01 3.614-.055 1.722-.054 1.667-2.734.032-2.76-2.012-.032-4.024-.045-6.035-.021-.944.011-1.387.529-1.394 1.489-.022 3.044-.277 5.228 2.075 7.228 2.05 1.742 4.416 1.974 6.884 1.156 1.949-.646 3.241-2.013 3.831-4.01.09-.304.081-.511-.262-.627-.512-.174-.499-.683-.976-.238-1.225 1.143-3.115.871-3.935-.549-.274-.474-.375-.515-.957-.37zm-7.216-11.468c.205 1.08-.236-.754 1.581 5.783.079.284.205.395.514.393 1.884-.014 3.768-.011 5.653-.003.91.004 1.117.387 1.269-.163 1.554-5.605 1.696-5.698 1.627-6.193-.229-1.653-2.344-1.665-2.835-.249-.152.439-.913 3.132-1.459 4.952-.187.619-.639.917-1.212.813-.501-.091-.724-.456-.855-.907-1.346-4.647-1.388-4.83-1.568-5.15-.327-.582-1.009-.86-1.633-.692-.644.172-1.056.723-1.082 1.416zm10.371 5.815c-.154.4-.263.818-.37 1.233-.026.1.006.241.063.331.776 1.241.231 2.805-.72 3.489-.57.41.826 1.539 1.776.745.206-.172.412-.412.487-.66.448-1.48.885-2.964 1.271-4.461.394-1.523-1.911-2.227-2.507-.677zm4.712 1.224c-.543-.098-1.133.284-1.325.897-.234.747-.447 1.502-.65 2.258-.398 1.482 1.811 2.272 2.34.545.217-.708.412-1.422.612-2.135.177-.628-.143-1.415-.977-1.565z"/></svg>