<svg xmlns="http://www.w3.org/2000/svg" enable-background="new 0 0 24 24" viewBox="0 0 24 24"><path fill="#00ae82" d="m5.575 3.588h-4.075c1.883 14.527 7.493 19.15 8.976 20.036.837.504 1.561.48 2.329.049 1.211-.688 4.833-4.315 6.837-8.564.837-.003 1.855-.1 2.858-.328v-2.865l-.012.006c-.616.143-1.213.206-1.752.206-3.019 0-5.344-2.116-5.344-5.794 0-1.801.704-2.731 1.691-2.731.943 0 1.557.841 1.557 2.552 0 .975-.255 2.041-.449 2.672 0 0 .927 1.636 3.47 1.125.538-1.2.839-2.761.839-4.126 0-3.68-1.87-5.826-5.297-5.826-3.532-.017-5.597 2.7-5.597 6.288 0 3.55 1.654 6.597 4.381 7.986-1.146 2.301-2.606 4.328-4.129 5.856-2.761-3.351-5.257-7.82-6.283-16.542z"/></svg>