<svg xmlns="http://www.w3.org/2000/svg" enable-background="new 0 0 24 24" viewBox="0 0 24 24"><path d="M1.314 6.481c-.704 0-.825 0-.809.301C1.239 12.93 1.854 17.939 2.529 23.58 2.589 24 2.889 24 3.534 24c.51 0 .779-.014.825-.375.751-6.09 1.327-10.65 2.077-16.814.025-.274-.225-.325-.924-.325-.453 0-.654-.025-.705.398-.398 3.933-.773 7.59-1.199 11.893l.016.033c0 .106-.03.27-.18.27-.119 0-.15-.164-.15-.24-.375-4.17-.675-7.574-1.081-11.955C2.2 6.556 2.049 6.481 1.314 6.481zM23.166 13.773c.299-.551.284-.979.284-1.578V9.943c0-.903-.165-1.905-.915-2.604-.75-.678-1.859-.877-2.625-.877h-1.428c-.2 0-.401-.026-.6.15-.15.149-.15.375-.15.625l-.054-.008v15.763c0 .676.045.631.194.854.105.153.555.106.854.137.451.016.781 0 1.23 0 .601 0 1.785-.137 2.64-1.08.899-1.05.899-1.83.899-2.445v-3.105c0-.601.031-.976-.27-1.576-.375-.75-1.214-.902-1.214-1.002C22.011 14.673 22.791 14.474 23.166 13.773zM19.357 13.397V8.715c0-.15 0-.277.073-.427.102-.173.375-.173.727-.173v.003c.703 0 .876.125 1.151.375.427.449.526.876.526 1.451v2.37c0 .403 0 .778-.498 1.335-.453.475-1.03.549-1.38.549-.199 0-.301.025-.45-.125C19.331 13.897 19.357 13.672 19.357 13.397zM21.935 20.506c0 .42-.03.779-.525 1.318-.451.467-1.08.541-1.35.541-.225 0-.255 0-.451-.031l-.015.032c-.225-.031-.24-.494-.24-.781v-5.264c0-.6.076-.674 1.156-.674.75 0 1.425.494 1.425 1.648V20.506z"/><path fill="#26ABD2" d="M8.475,0C7.888,0,7.74,0.049,7.74,0.368V2.01H6.203c-0.369,0-0.396,0.174-0.396,0.835c0,0.59,0.051,0.735,0.369,0.735h1.563v1.549c0,0.342,0.075,0.342,0.734,0.342c0.786,0,0.836-0.023,0.836-0.393V3.583h1.627c0.345,0,0.345-0.076,0.345-0.736c0.001-0.786-0.024-0.836-0.392-0.837H9.311V0.395C9.311,0.024,9.138,0,8.475,0z"/><path d="M8.444 23.961l.01.007c.795 0 .84-.029.84-.404V6.885c0-.375-.176-.398-.85-.398-.602 0-.75.05-.75.375v16.749C7.694 23.961 7.768 23.961 8.444 23.961zM16.129 13.772c.301-.551.276-.979.276-1.578v-2.26c0-.876-.177-1.905-.927-2.604-.75-.677-1.827-.876-2.628-.876h-1.428c-.201 0-.375-.075-.576.101-.151.151-.174.424-.174.674v16.407c0 .352.174.352.75.352.751 0 .85 0 .85-.402l-.011-.023v-7.59c0-.398.15-.375 1.335-.375.555 0 1.229.625 1.229 1.652v6.359c0 .375.166.359.75.359.675 0 .855 0 .855-.391v-6.225c0-.601.023-.976-.277-1.576-.375-.75-1.2-.902-1.2-1.002C14.953 14.672 15.754 14.473 16.129 13.772zM14.774 12.298c0 .36 0 .778-.499 1.335-.45.481-1.103.555-1.38.555-.125 0-.301.029-.449-.09-.201-.15-.15-.426-.15-.701V8.715c0-.15 0-.277.074-.427.102-.173.328-.173.553-.173v.003c.901 0 1.051.125 1.326.375.425.449.525.876.525 1.451V12.298z"/></svg>