<svg xmlns="http://www.w3.org/2000/svg" enable-background="new 0 0 24 24" viewBox="0 0 24 24"><path fill="#FB8801" d="M10.569.561l-.002.005L9.683 3.38c.662.255 1.428.41 2.227.426h.007c.846-.01 1.647-.191 2.376-.507l-.858-2.734c-.074-.195-.218-.349-.401-.435l-.005-.002c0 0-.115-.129-.997-.129s-1.055.136-1.055.136C10.786.216 10.639.37 10.569.561zM7.006 11.904c.228.361 1.255 1.56 4.885 1.56v-.001c3.757 0 4.854-1.347 5.065-1.674l-1.36-4.334c-.36.34-1.327.937-3.68.937-2.292 0-3.188-.567-3.52-.91L7.006 11.904zM20.24 15.526c-.088-.245-.314-.419-.582-.431h-.001-1.663l.2.64c-.24.485-1.488 2.38-6.303 2.38-4.6 0-5.828-1.73-6.11-2.308l.223-.712H4.343c-.269.012-.495.186-.582.426L3.76 15.526l-2.334 7.633c-.012.036-.018.077-.018.119 0 .011 0 .021.001.031l-.002.02c.004.08.012.156.025.229C1.475 23.807 1.684 23.995 1.94 24h20.12c.258-.006.469-.195.51-.442v-.003c.011-.065.02-.143.023-.222V23.33l-.003-.011c.001-.012.002-.027.002-.042 0-.042-.007-.083-.019-.121l.001.003L20.24 15.526z"/><path d="M13.925,3.285c-0.013,0.006-0.026,0.01-0.039,0.015v0L13.925,3.285z"/></svg>