<svg xmlns="http://www.w3.org/2000/svg" enable-background="new 0 0 24 24" viewBox="0 0 24 24"><path fill="#950600" d="M7.741,21.75c4.067-0.307,7.174-1.651,10.04-3.906c1.119-0.88,2.659-2.043,3.756-3.237c1.101-1.196,2.296-2.586,2.443-4.534c0.21-2.799-1.236-4.709-2.751-5.941C19.787,2.959,17.93,2.25,15.908,2.25c-0.186,0-0.369,0.006-0.551,0.018c-3.765,0.244-6.323,2.671-7.363,6.501c-1.28-1.228-1.892-3.248-2.093-5.557c-1.02,0.216-1.658,0.704-2.233,1.241C4.113,6.776,5.47,8.48,6.932,9.627c-2.559,0.318-5.99,2.45-6.771,4.919c-0.507,1.603,0.258,3.426,1.283,4.534c1.237,1.337,3.75,2.004,6.355,1.759C7.836,21.203,7.695,21.378,7.741,21.75z M3.892,11.663c0.693-0.448,1.627-0.788,2.478-1.078c1.419,2.056,2.729,4.266,4.171,6.353c0.019-3.123-0.009-6.694-0.061-9.95c0.577-0.131,1.059-0.272,1.527-0.435c1.813,2.729,3.553,5.645,5.464,8.385c-0.02-1.757-0.032-3.833-0.032-5.912c0-1.297,0.005-2.593,0.014-3.887c0.858-0.283,1.803-0.537,2.669-0.811c0.02,3.51-0.338,7.15-0.327,10.777c-1.035,1.004-2.241,1.803-3.351,2.683c-1.249-1.993-2.583-3.997-3.887-5.936c0.017,2.638,0.006,5.449,0.04,7.982c-0.78,0.382-1.789,0.56-2.744,0.766C7.918,17.672,5.885,14.59,3.892,11.663z"/><path d="M15.332,2.269c0.008,0,0.017,0,0.025-0.001c0,0,0.001,0,0.001,0L15.332,2.269z"/></svg>