<svg xmlns="http://www.w3.org/2000/svg" enable-background="new 0 0 24 24" viewBox="0 0 24 24"><polygon fill="#2E5EA9" points="24 11.99 23.77 12.37 18.1 12.37 17.74 11.93 18.02 11.6 17.14 11.6 14.74 7.6 14.77 7.6 15.3 6.84 9.11 6.84 6.08 11.98 11.79 2.25 18.43 2.25 18.45 2.29 18.46 2.28 21.06 6.84 20.43 7.6 21.38 7.6 21.39 7.62"/><polygon points="9.09 17.13 11.75 21.69 5.62 21.69 0 11.98 5.62 2.27 11.72 2.27 11.73 2.25 11.79 2.25 6.08 11.98 9.07 17.13"/><polygon points="9.09 17.13 9.07 17.13 6.08 11.98"/><polygon fill="#DCF11B" points="21.39 16.37 20.48 16.37 21.11 17.12 21.11 17.13 20.59 18.02 18.46 21.75 18.42 21.69 11.75 21.69 9.09 17.13 15.29 17.13 14.77 16.37 14.74 16.37 17.14 12.37 23.77 12.37"/></svg>