<svg xmlns="http://www.w3.org/2000/svg" enable-background="new 0 0 24 24" viewBox="0 0 24 24"><path fill="#1F8AE7" d="M19.926,3.085c-1.869,0-3.435,1.206-3.922,3.015c-0.851-2.722-3.07-3.015-3.982-3.015c-0.927,0-3.131,0.294-3.997,3.015C7.538,4.292,5.988,3.085,4.103,3.085C1.808,3.085,0,4.674,0,6.704c0,1.357,0.196,1.56,3.617,10.944c1.049,2.839,3.177,3.251,4.347,3.251c1.839,0,3.283-0.912,4.028-2.53c0.745,1.633,2.189,2.545,4.028,2.545c1.17,0,3.298-0.427,4.347-3.266C23.955,7.868,24,8.011,24,6.999C24.03,4.733,22.312,3.085,19.926,3.085z M21.162,8.467L21.162,8.467l-3.075,8.27c-0.371,1.007-0.995,1.745-2.167,1.745c-1.099,0-1.752-0.582-2.064-1.589l-1.841-5.504H11.97l-1.841,5.504c-0.326,1.008-0.98,1.575-2.063,1.575c-1.173,0-1.797-0.738-2.168-1.745L2.854,8.51C2.602,7.814,2.483,7.388,2.483,6.893c0-0.766,0.742-1.376,1.797-1.376c0.876,0,1.5,0.553,1.693,1.362l2.064,6.554h0.045l2.093-6.412c0.282-0.922,0.772-1.504,1.826-1.504s1.544,0.568,1.826,1.504l2.093,6.412h0.045l2.064-6.554c0.193-0.809,0.817-1.362,1.693-1.362c1.039,0,1.797,0.624,1.797,1.674C21.504,7.56,21.326,7.942,21.162,8.467z"/></svg>