<svg xmlns="http://www.w3.org/2000/svg" enable-background="new 0 0 24 24" viewBox="0 0 24 24"><path fill="#4E9F3C" d="M6.891 9.291h8.748c.309 0 .62-.311.619-.697V7.588c0-.308-.31-.619-.62-.619H6.89c-.387 0-.697.31-.697.621V8.6C6.194 8.984 6.508 9.293 6.891 9.291zM15.639 14.709H6.891c-.388 0-.698.311-.697.621v1.006c0 .386.309.697.697.773h8.753c.382-.002.693-.314.691-.697v-1.006C16.335 15.02 16.027 14.709 15.639 14.709z"/><path fill="#4E9F3C" d="M12,0C5.342,0,0,5.342,0,12c0,6.582,5.342,12,12,12s12-5.418,12-12C24,5.342,18.658,0,12,0z M12,21.988c-5.497,0-9.987-4.49-9.987-9.988c0-5.497,4.49-9.986,9.987-9.986c5.498,0,9.987,4.489,9.987,9.986C21.987,17.498,17.497,21.988,12,21.988z"/><path fill="#4E9F3C" d="M17.961,10.762H9.213c-0.387,0-0.698,0.31-0.698,0.697v1.012c0.003,0.382,0.314,0.691,0.698,0.691h8.672c0.386,0,0.696-0.31,0.773-0.697v-1.006C18.658,11.073,18.348,10.762,17.961,10.762z"/></svg>