<svg xmlns="http://www.w3.org/2000/svg" enable-background="new 0 0 24 24" viewBox="0 0 24 24"><rect width="2.317" height="7.509" x="21.475" y="10.164" fill="#757575"/><path fill="#757575" d="M22.614 6.25c-.747 0-1.36.581-1.36 1.314 0 .712.613 1.307 1.361 1.307.767 0 1.385-.58 1.385-1.307C24 6.83 23.382 6.25 22.614 6.25zM2.652 16.361c.241.766.84 1.389 1.7 1.389 1.009 0 1.479-.734 1.684-1.389.225-.677 1.738-6.273 1.738-6.273s1.515 5.599 1.719 6.273c.225.654.69 1.389 1.682 1.389.879 0 1.456-.622 1.72-1.389.315-.992 2.657-9.474 2.657-9.474h-2.45l-2.021 7.959c0 0-1.55-5.976-1.812-6.835-.242-.846-.77-1.217-1.495-1.217-.748 0-1.252.375-1.514 1.217-.242.859-1.794 6.835-1.794 6.835L2.43 6.887H0C0 6.887 2.334 15.367 2.652 16.361zM17.904 6.25c-.729-.014-1.33.566-1.344 1.295v.018c.012.733.612 1.317 1.344 1.307.783 0 1.404-.58 1.404-1.307C19.309 6.83 18.688 6.25 17.904 6.25z"/><rect width="2.322" height="7.509" x="16.782" y="10.164" fill="#757575"/></svg>