<svg xmlns="http://www.w3.org/2000/svg" enable-background="new 0 0 24 24" viewBox="0 0 24 24"><path d="M3.677,16.456c0.534-0.269,0.786-0.477,1.11-1.73c0.288-1.117,1.092-4.398,1.167-4.632c0.178-0.555,0.416-0.513,0.578,0c0.074,0.234,0.879,3.516,1.167,4.632c0.322,1.253,0.576,1.461,1.11,1.73c0.406,0.205,1.218,0.147,1.218,0.147l2.459-9.211c-0.916-0.114-1.868,0.332-2.074,1.31h-0.002L9.125,13.63L8.057,9.597c-0.288-1.189-0.78-1.803-1.816-1.803c-1.026,0-1.525,0.601-1.816,1.803L3.357,13.63L2.073,8.703C1.865,7.71,0.894,7.281,0,7.392l2.459,9.211C2.459,16.603,3.271,16.661,3.677,16.456z"/><path fill="#F6C712" d="M14.752,7.382L14.752,7.382c0,0.001-0.655-0.017-1.021,0.173c-0.476,0.247-0.653,0.663-0.653,1.815c0,0,0.242-0.231,0.598-0.359C14.83,8.596,14.752,7.867,14.752,7.382z"/><path d="M14.104 16.475c.522-.264.642-.518.647-1.663V9.229h-.001V8.896c0 0-.154.235-.505.43-.226.125-.442.209-.674.32-.568.27-.495.518-.495 1.308v5.649C13.078 16.602 13.699 16.68 14.104 16.475zM24 7.423c0 0-1.317-.222-1.969.366-.498.449-.915 1.098-2.032 2.692-.018.027-.234.392-.49 0-1.098-1.569-1.531-2.24-2.032-2.692-.652-.588-1.969-.366-1.969-.366l3.12 4.597-3.111 4.582c0 0 1.371.172 2.023-.416.431-.388.659-.757 1.969-2.627.255-.391.471-.028.49 0 1.102 1.575 1.471 2.157 1.993 2.627.652.588 1.999.416 1.999.416l-3.112-4.582h.001L24 7.423z"/></svg>