<svg xmlns="http://www.w3.org/2000/svg" enable-background="new 0 0 24 24" viewBox="0 0 24 24"><path fill="#F36204" d="M12,0.5C2.954,0.5-2.736,8.638,1.343,15.407C-1.569,18.726,1.156,23.5,6.077,23.5c2.036,0,4.061-0.905,5.161-2.569c0.355,0.018,1.17,0.018,1.525,0c1.098,1.661,3.12,2.569,5.161,2.569c4.949,0,7.632-4.792,4.734-8.093h-0.001C26.734,8.644,21.053,0.5,12,0.5z M5.154,11.148V8.167h2.141v2.981H5.154z M6.692,13.878L6.679,12.6c2.846,2.216,6.55,2.817,9.668,1.744v1.223l0.001,0.001C13.482,16.85,9.325,16.258,6.692,13.878z M17.136,11.148H8.577V8.167h8.559V11.148z"/></svg>