<svg xmlns="http://www.w3.org/2000/svg" enable-background="new 0 0 24 24" viewBox="0 0 24 24"><polygon fill="#3FB5C4" points="7.651 8.1 7.65 8.1 0 8.1 0 15.9 5.85 15.9 7.651 13.95"/><polygon fill="#3FB5C4" points="0 16.35 0 24 5.85 24 7.651 22.199 7.651 18.15 7.65 18.15 5.85 16.35"/><polygon fill="#3FB5C4" points="16.349 16.349 16.349 24 24 24 24 18.15 22.199 16.349"/><polygon fill="#3FB5C4" points="16.35 5.85 18.15 7.65 24 7.65 24 0 16.35 0"/><polygon fill="#3FB5C4" points="0 1.8 0 7.65 7.65 7.65 7.65 0 1.8 0"/><polygon fill="#3FB5C4" points="15.9 0 8.1 0 8.1 5.85 10.05 7.651 13.95 7.651 15.9 5.85"/><polygon fill="#3FB5C4" points="8.1 18.15 8.1 24 15.9 24 15.9 18.15 13.95 16.349 10.05 16.349"/><path fill="#3FB5C4" d="M13.05,12c0-0.6-0.45-1.05-1.05-1.05S10.95,11.4,10.95,12s0.45,1.05,1.05,1.05S13.05,12.6,13.05,12z"/><polygon fill="#3FB5C4" points="16.349 10.05 16.349 13.95 18.15 15.9 24 15.9 24 8.1 18.15 8.1"/></svg>