<svg xmlns="http://www.w3.org/2000/svg" enable-background="new 0 0 24 24" viewBox="0 0 24 24"><path fill="#90AEBA" d="M21.691,0H2.314C1.007,0,0,1.023,0,2.314v19.367C0,22.998,1.034,23.994,2.314,24h19.371C22.982,24,24,22.988,24,21.686V2.314C24,1.006,22.977,0,21.691,0z M18.814,2.004l-3.455,2.34l-2.888-2.34H18.814z M11.534,2.004l-2.893,2.34H8.64l-3.455-2.34H11.534z M21.693,21.992H2.315c-0.171,0-0.311-0.15-0.311-0.311V2.308c0-0.161,0.139-0.311,0.311-0.311h0.498l5.909,4.001l3.279-2.672l3.283,2.672l5.908-3.996h0.498c0.171,0,0.311,0.15,0.311,0.311v19.367h0.001C22.003,21.846,21.864,21.997,21.693,21.992z"/><rect width="10.501" height="1.997" x="9.391" y="12.233" fill="#1268AA"/><rect width="5.325" height="1.997" x="14.567" y="16.228" fill="#1268AA"/><rect width="3.937" height="1.997" x="4.11" y="12.233" fill="#1F96E6"/><rect width="10.501" height="1.981" x="9.391" y="8.248" fill="#1268AA"/><rect width="3.937" height="1.981" x="4.11" y="8.248" fill="#1F96E6"/></svg>