<svg xmlns="http://www.w3.org/2000/svg" enable-background="new 0 0 24 24" viewBox="0 0 24 24"><path fill="#3B97CF" d="M18.4,17.26c-0.2-0.1-0.6-0.2-0.9-0.4c-0.3,1.2-0.6,2.6-0.9,4.1l6.3-1l-2.1-14.1l-0.1,0.1c-0.4,0.4-0.9,1.7-1.9,5.5h0.1l0.3,1.6l-0.8,0.1c-0.1,0.5-0.2,1-0.4,1.6c1.7,0.9,0.8,3.1,0.7,3.1c-0.1,0-0.1,0-0.1-0.1S18.7,17.36,18.4,17.26z"/><path fill="#CFD8DC" d="M23.7,4.26c-0.2,0.6-0.5,1.3-0.7,1.3c-0.3,0-1-0.2-1.2-0.5c-0.1-0.2-0.4-0.5-0.9-0.5c-0.3,0-0.5,0.2-0.9,0.4c-0.62,0.49-1.39,2.71-2.14,5.43l-1.48-0.25c0.66-2.04,1.16-3.73,1.22-4.38c0-0.3,0.1-1.7-0.8-2.8c-0.6-0.6-1.2-0.8-1.8-0.8c-0.5,0-1.1,0.2-1.5,0.2c-0.2,0-0.5,0.1-0.5,0.1s-0.1,0-0.1-0.1c0-0.16,0.31-0.32,0.44-0.38C13.22,2,12.98,2.06,12.9,2.06c-0.1,0-0.1-0.1,0-0.2c0.1,0,0.4-0.1,0.5-0.2c0.4-0.2,0.7-0.3,1.1-0.4c0.9-0.3,1.9-0.3,2.8-0.2c0.6,0,1.3,0,1.9,0.2c0.6,0.2,1.2,0.4,1.7,0.9c0.3,0.3,0.7,0.6,1.1,0.6s0.6-0.1,0.7-0.2c0.2,0,1,0.2,1.1,0.3C23.9,2.96,23.9,3.66,23.7,4.26z"/><path fill="#3B97CF" d="M10.1,6.26c0.3-0.2,0.7-0.2,0.9,0.1l3.8,4.4c0.8-2.4,1.5-4.5,1.5-5.2c0.1-0.2,0.1-0.9-0.2-1.6L0,6.46l2.6,16.7l8.6-1.4c-0.1-0.7,2.2-6.7,2.6-7.8l-4.4,0.7l0.6-1.8l3.1-0.5l0.8,1c0,0,0.2-0.5,0.2-0.7l-4.3-5.3c-0.2-0.3-0.2-0.7,0.1-0.9L10.1,6.26z M4.1,13.86l2.7-0.5l-0.7,1.8l-1.8,0.3L4.1,13.86z M9.9,8.76l0.3,0.1c0.4,0.1,0.5,0.5,0.4,0.9l-3,8l-1.8,2.4l0.2-3l3-8C9.1,8.76,9.5,8.66,9.9,8.76z"/><path fill="#1F2228" d="M17.86,10.39c-1.39,5.12-2.69,12.01-2.76,12.47c-0.2,0.4-0.6,0.7-1.7,0.4s-1.1-0.8-0.9-1.7c0.14-0.62,2.42-6.9,3.88-11.42L17.86,10.39z"/></svg>