<svg xmlns="http://www.w3.org/2000/svg" enable-background="new 0 0 24 24" viewBox="0 0 24 24"><path fill="#962460" d="M1.496,17.827V7.383c0-1.968,1.653-3.574,3.691-3.574h9.19l0.359-0.961H5.188C2.59,2.847,0.5,4.876,0.5,7.383v10.439c0,2.507,2.116,4.551,4.688,4.551h0.621v-0.971C2.774,21.401,1.496,19.626,1.496,17.827z"/><path fill="#73AE26" d="M16.948,0l-5.247,14.186L9.114,6.223H5.962c4.245,10.708,4.214,10.328,4.214,11.35c0,1.292-0.791,3.438-3.316,3.829V24c1.488-0.051,2.952-0.565,4.02-1.663c2.002-2.055,2.1-3.112,9.483-22.337H16.948z"/><path fill="#962460" d="M20.373,3.101l-0.344,0.895c1.596,0.559,2.474,1.546,2.474,3.198v14.192h-9.37c-0.071,0.157-0.283,0.498-0.621,0.986h10.986V7.194H23.5C23.5,5.292,22.514,3.792,20.373,3.101z"/></svg>