<svg xmlns="http://www.w3.org/2000/svg" enable-background="new 0 0 24 24" viewBox="0 0 24 24"><path fill="#99B777" d="M20.793,18.746c-0.748,0.714-1.564,1.017-2.547,1.017c-1.322,0-3.327-0.61-4.853-1.66c-1.631-1.119-3.771-2.237-5.57-2.271c1.325-1.798,3.395-3.628,5.33-5.798c0.714-0.78,4.991-5.7,5.739-6.586c0.541-0.645,0.814-1.424,0.814-2.205c0-0.3-0.033-0.585-0.101-0.855c-2.038,0.405-3.566,0.601-6.01,0.601C10.913,1.004,8.98,0.675,7.855,0C7.074,1.018,6.293,2.373,6.293,3.12c0,0.948,0.919,1.728,3.194,1.728c0.747,0,1.968-0.034,3.665-0.169c-3.497,4.5-6.959,8.16-9.03,10.47C3.409,15.93,3,16.979,3,18.03c0,0.405,0.075,0.81,0.18,1.185c0.646-0.104,1.293-0.179,1.968-0.179c1.397,0,2.794,0.299,4.087,0.839C11.805,21.014,14.209,24,16.929,24C19.136,24,21,22.259,21,19.964c0-0.404-0.061-0.825-0.195-1.229L20.793,18.746z"/></svg>