<svg xmlns="http://www.w3.org/2000/svg" enable-background="new 0 0 24 24" viewBox="0 0 24 24"><path fill="#1471DE" d="M13.08 2.51V2.5c-1.33.614-5.168 3.556-7.233 5.113 2.517-.835 8.556-2.161 11.652-2.235C16.53 4.7 13.814 2.866 13.08 2.51zM9.406 14.325c2.28-.82 6.961-1.788 9.915-1.966.346-1.042.709-1.802.709-1.802L24 10.167c0 0-3.015-2.428-5.908-4.394C18.092 5.773 10.592 13.252 9.406 14.325z"/><path fill="#83CD04" d="M4.256 12.686l-1.95 5.244C4.668 15.516 13.165 7.725 13.165 7.725c-4.42 1.028-9.038 2.414-10.685 3.159l-.001.013L0 13.431C2.072 12.999 2.74 12.909 4.256 12.686zM2.008 18.73L1.019 21.5c.852-.372 8.932-3.044 16.362-3.486l-.012-.013c.164-.61.975-2.696 1.125-3.262C10.783 15.285 4.529 17.572 2.008 18.73z"/></svg>