<svg xmlns="http://www.w3.org/2000/svg" enable-background="new 0 0 24 24" viewBox="0 0 24 24"><path fill="#212121" d="m19.566 18.705c-1.175.631-2.227.972-3.183.972-1.224 0-1.909-.535-5.802-6.219 2.961-2.526 4.701-4.203 6.951-7.385 1.935-1.263 2.692-2.38 2.692-3.401 0-.874-.759-2.04-1.737-2.04-.466 0-.832.438-1.323 1.191-3.599-1.361-5.287-1.823-7.147-1.823-1.739 0-3.157 1.506-3.157 3.255 0 .996.417 1.554 1.051 1.749.832-.484 1.518-.679 1.957-.679 1.152 0 2.938.51 5.141 1.165-1.101 1.578-3.965 4.494-6.021 6.098-.783-.657-1.274-.899-1.982-.899-2.277 0-3.256 2.623-3.256 4.251 0 1.651.391 2.114 1.003 2.114.686-.003 1.812-.585 2.523-1.216h.002c3.745 7.021 4.797 8.162 7.367 8.162 2.79 0 5.605-2.066 5.605-3.934 0-.633-.342-1.191-.684-1.361z"/></svg>